<?xml version="1.0" encoding="iso-8859-1"?>
<!-- Generator: Adobe Illustrator 18.0.0, SVG Export Plug-In . SVG Version: 6.00 Build 0)  -->
<!DOCTYPE svg PUBLIC "-//W3C//DTD SVG 1.1//EN" "http://www.w3.org/Graphics/SVG/1.1/DTD/svg11.dtd">
<svg version="1.1" id="Capa_1" xmlns="http://www.w3.org/2000/svg" xmlns:xlink="http://www.w3.org/1999/xlink" x="0px" y="0px"
	 viewBox="0 0 21.867 21.87" style="enable-background:new 0 0 21.867 21.87;" xml:space="preserve">
<g>
	<rect x="5" y="8" style="fill-rule:evenodd;clip-rule:evenodd;" width="7" height="1"/>
	<path style="fill-rule:evenodd;clip-rule:evenodd;" d="M8.5,0C3.806,0,0,3.806,0,8.5C0,13.194,3.806,17,8.5,17
		c1.805,0,3.479-0.563,4.855-1.522l0-0.001l6.304,6.304c0.117,0.117,0.303,0.12,0.423,0l1.699-1.699
		c0.117-0.117,0.111-0.311-0.001-0.423l-6.303-6.303C16.437,11.979,17,10.305,17,8.5C17,3.806,13.194,0,8.5,0z M8.5,15
		C4.91,15,2,12.09,2,8.5C2,4.91,4.91,2,8.5,2C12.09,2,15,4.91,15,8.5C15,12.09,12.09,15,8.5,15z"/>
</g>
<g>
</g>
<g>
</g>
<g>
</g>
<g>
</g>
<g>
</g>
<g>
</g>
<g>
</g>
<g>
</g>
<g>
</g>
<g>
</g>
<g>
</g>
<g>
</g>
<g>
</g>
<g>
</g>
<g>
</g>
</svg>
