<?xml version="1.0" encoding="utf-8"?>
<!-- Generator: Adobe Illustrator 16.0.0, SVG Export Plug-In . SVG Version: 6.00 Build 0)  -->
<!DOCTYPE svg PUBLIC "-//W3C//DTD SVG 1.1//EN" "http://www.w3.org/Graphics/SVG/1.1/DTD/svg11.dtd">
<svg version="1.1" id="Layer_2" xmlns="http://www.w3.org/2000/svg" xmlns:xlink="http://www.w3.org/1999/xlink" x="0px" y="0px"
	 width="100px" height="100px" viewBox="0 0 100 100" enable-background="new 0 0 100 100" xml:space="preserve">
<path d="M75.807,11.371H10.595c-3.341,0-6.06,2.718-6.06,6.059v65.14c0,3.341,2.719,6.06,6.06,6.06h48.209
	c-2.233-1.938-4.101-4.285-5.484-6.925H11.46V29.909h63.481v17.193c2.415,0.065,4.74,0.493,6.925,1.232V17.43
	C81.866,14.088,79.147,11.371,75.807,11.371z M62.393,23.462c-1.435,0-2.597-1.163-2.597-2.597c0-1.434,1.162-2.597,2.597-2.597
	s2.597,1.163,2.597,2.597C64.989,22.299,63.827,23.462,62.393,23.462z M71.698,23.462c-1.435,0-2.597-1.163-2.597-2.597
	c0-1.434,1.162-2.597,2.597-2.597s2.597,1.163,2.597,2.597C74.295,22.299,73.133,23.462,71.698,23.462z M74.295,54.164
	c-9.393,0-17.006,7.614-17.006,17.006s7.613,17.005,17.006,17.005s17.006-7.613,17.006-17.005S83.688,54.164,74.295,54.164z
	 M77.42,55.552l-1.822,7.982h-1.822l-1.302-7.982C74.383,54.597,77.42,55.552,77.42,55.552z M74.295,77.483
	c-3.486,0-6.314-2.826-6.314-6.313s2.828-6.313,6.314-6.313s6.313,2.826,6.313,6.313S77.781,77.483,74.295,77.483z M74.295,66.356
	c-2.654,0-4.813,2.159-4.813,4.813s2.159,4.813,4.813,4.813s4.813-2.159,4.813-4.813S76.949,66.356,74.295,66.356z M74.295,74.609
	c-1.896,0-3.439-1.542-3.439-3.439s1.544-3.439,3.439-3.439c1.896,0,3.438,1.542,3.438,3.439S76.191,74.609,74.295,74.609z
	 M74.295,50c-11.674,0-21.17,9.497-21.17,21.17s9.496,21.17,21.17,21.17c11.672,0,21.17-9.497,21.17-21.17S85.967,50,74.295,50z
	 M74.295,90.258c-10.525,0-19.088-8.563-19.088-19.088s8.563-19.088,19.088-19.088s19.087,8.563,19.087,19.088
	S84.82,90.258,74.295,90.258z"/>
</svg>
