<?xml version="1.0" encoding="utf-8"?>
<!-- Generator: Adobe Illustrator 16.0.0, SVG Export Plug-In . SVG Version: 6.00 Build 0)  -->
<!DOCTYPE svg PUBLIC "-//W3C//DTD SVG 1.1//EN" "http://www.w3.org/Graphics/SVG/1.1/DTD/svg11.dtd">
<svg version="1.1" id="Layer_1" xmlns="http://www.w3.org/2000/svg" xmlns:xlink="http://www.w3.org/1999/xlink" x="0px" y="0px"
	 width="100px" height="100px" viewBox="0 0 100 100" enable-background="new 0 0 100 100" xml:space="preserve">
<path fill="#020202" d="M53.951,49.39c0,2.18-1.771,3.952-3.951,3.952c-2.179,0-3.952-1.772-3.952-3.952s1.773-3.952,3.952-3.952
	C52.18,45.438,53.951,47.21,53.951,49.39z M81.509,10.294v78.192c0,0.858-0.696,1.554-1.555,1.554H20.045
	c-0.857,0-1.554-0.695-1.554-1.554V10.294c0-0.858,0.696-1.554,1.554-1.554h59.909C80.813,8.74,81.509,9.436,81.509,10.294z
	 M21.077,15.084c0,2.002,1.623,3.625,3.625,3.625s3.625-1.623,3.625-3.625s-1.623-3.625-3.625-3.625S21.077,13.082,21.077,15.084z
	 M28.327,83.438c0-2.002-1.623-3.625-3.625-3.625s-3.625,1.623-3.625,3.625s1.623,3.625,3.625,3.625S28.327,85.439,28.327,83.438z
	 M74.331,49.39c0-13.416-10.915-24.331-24.331-24.331S25.669,35.974,25.669,49.39S36.584,73.721,50,73.721
	S74.331,62.806,74.331,49.39z M79.593,83.438c0-2.002-1.623-3.625-3.625-3.625s-3.625,1.623-3.625,3.625s1.623,3.625,3.625,3.625
	S79.593,85.439,79.593,83.438z M79.593,15.084c0-2.002-1.623-3.625-3.625-3.625s-3.625,1.623-3.625,3.625s1.623,3.625,3.625,3.625
	S79.593,17.086,79.593,15.084z M51.498,40.614l2.093-9.175c0,0-3.489-1.098-5.684,0l1.496,9.175H51.498z M57.257,49.39
	c0,4.007-3.25,7.257-7.257,7.257s-7.257-3.25-7.257-7.257s3.25-7.257,7.257-7.257S57.257,45.383,57.257,49.39z M55.533,49.39
	c0-3.052-2.482-5.533-5.533-5.533s-5.533,2.481-5.533,5.533c0,3.051,2.482,5.533,5.533,5.533S55.533,52.44,55.533,49.39z
	 M71.938,49.39c0,12.097-9.841,21.938-21.938,21.938S28.063,61.486,28.063,49.39S37.903,27.451,50,27.451
	S71.938,37.293,71.938,49.39z M69.545,49.39c0-10.795-8.75-19.545-19.545-19.545s-19.545,8.75-19.545,19.545
	S39.205,68.935,50,68.935S69.545,60.185,69.545,49.39z"/>
</svg>
