<?xml version="1.0" encoding="utf-8"?>
<!-- Generator: Adobe Illustrator 16.0.0, SVG Export Plug-In . SVG Version: 6.00 Build 0)  -->
<!DOCTYPE svg PUBLIC "-//W3C//DTD SVG 1.1//EN" "http://www.w3.org/Graphics/SVG/1.1/DTD/svg11.dtd">
<svg version="1.1" id="Layer_1" xmlns="http://www.w3.org/2000/svg" xmlns:xlink="http://www.w3.org/1999/xlink" x="0px" y="0px"
	 width="100px" height="100px" viewBox="0 0 100 100" enable-background="new 0 0 100 100" xml:space="preserve">
<path fill="#020202" d="M49.994,17.333c-18.042,0-32.667,14.625-32.667,32.667s14.625,32.667,32.667,32.667S82.661,68.042,82.661,50
	S68.036,17.333,49.994,17.333z M60.445,61.919c-0.092,6.109-4.391,7.731-6.675,7.731c-0.535,0-1.063-0.065-1.58-0.194
	c-0.726,0.115-1.471,0.104-2.186-0.039c-0.7,0.139-1.437,0.156-2.151,0.047c-0.527,0.136-1.066,0.204-1.612,0.204
	c-2.291,0-6.6-1.624-6.698-7.734c-5.292-1.144-8.465-5.322-8.465-11.453c0-10.838,7.242-19.152,17.117-20.059l-1.699-10.423
	c3.667-1.834,9.5,0,9.5,0l-2.437,10.674c8.959,1.681,15.351,9.628,15.351,19.808C68.91,56.592,65.737,60.767,60.445,61.919z
	 M49.994,9.334C27.571,9.334,9.328,27.577,9.328,50s18.243,40.666,40.666,40.666S90.66,72.423,90.66,50S72.417,9.334,49.994,9.334z
	 M49.994,86.666c-20.218,0-36.666-16.448-36.666-36.666s16.448-36.666,36.666-36.666S86.66,29.782,86.66,50
	S70.211,86.666,49.994,86.666z M49.994,33.332c-9.074,0-15.916,7.374-15.916,17.149c0,5.539,3.081,8.729,8.463,8.769v2.47
	c0,4.811,3.32,4.949,3.7,4.949c0.512,0,1.008-0.115,1.463-0.32c0.336,0.119,0.698,0.187,1.084,0.187
	c0.365,0,0.784-0.058,1.218-0.232c0.461,0.185,0.884,0.232,1.199,0.232c0.396,0,0.768-0.072,1.112-0.196
	c0.45,0.199,0.944,0.313,1.453,0.313c0.376,0,3.677-0.138,3.677-4.932v-2.478c5.38-0.056,8.463-3.241,8.463-8.761
	C65.91,40.706,59.068,33.332,49.994,33.332z M57.302,56.761c-0.734,0-1.519-0.068-2.34-0.195c0,0,0,4.004,0,5.154
	c0,1.846-0.59,2.449-1.192,2.449c-0.63,0-1.272-0.656-1.272-1.237c0,0-0.551,1.119-1.293,1.119c-0.371,0-0.79-0.28-1.211-1.119
	c-0.421,0.841-0.837,1.119-1.208,1.119c-0.737,0-1.284-1.119-1.284-1.119c0,0.607-0.635,1.254-1.264,1.254
	c-0.609-0.001-1.213-0.612-1.213-2.466c0-1.136,0-5.166,0-5.166c-0.84,0.139-1.638,0.212-2.385,0.212
	c-3.646,0-6.078-1.74-6.078-6.284c0-8.105,5.328-14.665,13.432-14.665c8.105,0,13.432,6.56,13.432,14.665
	C63.425,55.062,60.966,56.761,57.302,56.761z M59.839,47.915c0.037,1.304-0.219,4.956-5.736,4.956c-2.268,0-2.741-0.726-2.741-3.036
	c0-1.429,1.333-2.804,3.8-4.611C58.428,42.827,59.767,45.415,59.839,47.915z M45.883,52.871c-5.517,0-5.772-3.652-5.735-4.956
	c0.072-2.5,1.411-5.088,4.678-2.691c2.467,1.808,3.8,3.183,3.8,4.611C48.625,52.146,48.152,52.871,45.883,52.871z M51.216,55.089
	c0.866,2.434,2.058,4.134,0.37,4.137c-1.318,0-1.592-1.321-1.592-1.321s-0.572,1.271-1.467,1.271c-1.999,0-0.498-1.902,0.34-4.3
	c0.271-0.776,1.126-0.485,1.126,0.35C49.994,54.352,50.809,53.943,51.216,55.089z"/>
</svg>
