<?xml version="1.0" encoding="utf-8"?>
<!-- Generator: Adobe Illustrator 16.0.0, SVG Export Plug-In . SVG Version: 6.00 Build 0)  -->
<!DOCTYPE svg PUBLIC "-//W3C//DTD SVG 1.1//EN" "http://www.w3.org/Graphics/SVG/1.1/DTD/svg11.dtd">
<svg version="1.1" id="Layer_1" xmlns="http://www.w3.org/2000/svg" xmlns:xlink="http://www.w3.org/1999/xlink" x="0px" y="0px"
	 width="100px" height="100px" viewBox="0 0 100 100" enable-background="new 0 0 100 100" xml:space="preserve">
<path fill="#020202" d="M48.059,17.333c-18.042,0-32.667,14.625-32.667,32.667s14.625,32.667,32.667,32.667
	c0.274,0,0.546-0.014,0.819-0.021v-20.56c-0.272,0.018-0.543,0.041-0.819,0.041c-6.698,0-12.128-5.43-12.128-12.128
	s5.43-12.128,12.128-12.128c5.709,0,10.483,3.949,11.773,9.262h20.761C79.141,30.436,65.134,17.333,48.059,17.333z M50.561,35.333
	h-3.5l-2.5-15.334c3.667-1.834,9.5,0,9.5,0L50.561,35.333z M54.11,47.361c-1.02-2.332-3.347-3.967-6.051-3.967
	c-3.642,0-6.605,2.963-6.605,6.605s2.964,6.605,6.605,6.605c0.278,0,0.551-0.022,0.819-0.057v2.657
	c-0.271,0.023-0.543,0.041-0.819,0.041c-5.1,0-9.247-4.147-9.247-9.247s4.147-9.247,9.247-9.247c4.099,0,7.577,2.682,8.787,6.381h-1
	C55.246,47.134,54.667,47.218,54.11,47.361z M51.955,90.476c-1.282,0.122-2.581,0.19-3.896,0.19
	C25.636,90.666,7.393,72.423,7.393,50S25.636,9.334,48.059,9.334c21.458,0,39.076,16.711,40.554,37.8h-4.011
	c-1.468-18.882-17.291-33.8-36.543-33.8c-20.218,0-36.666,16.448-36.666,36.666s16.448,36.666,36.666,36.666
	c0.369,0,0.733-0.017,1.1-0.028C49.619,88.22,50.621,89.573,51.955,90.476z M91.705,51.666H55.644c-1.581,0-2.868,1.287-2.868,2.868
	v30.597c0,1.581,1.287,2.868,2.868,2.868h36.061c1.581,0,2.868-1.287,2.868-2.868V54.534C94.573,52.953,93.286,51.666,91.705,51.666
	z M88.357,54.073c0.82,0,1.485,0.665,1.485,1.486c0,0.82-0.665,1.484-1.485,1.484c-0.819,0-1.485-0.664-1.485-1.484
	C86.872,54.738,87.538,54.073,88.357,54.073z M82.397,53.992c0.82,0,1.485,0.665,1.485,1.485s-0.665,1.484-1.485,1.484
	c-0.819,0-1.485-0.664-1.485-1.484S81.578,53.992,82.397,53.992z M92.114,85.131c0,0.227-0.184,0.41-0.409,0.41H55.644
	c-0.226,0-0.409-0.184-0.409-0.41V58.837h36.879V85.131z"/>
</svg>
