<?xml version="1.0" encoding="utf-8"?>
<!-- Generator: Adobe Illustrator 16.0.0, SVG Export Plug-In . SVG Version: 6.00 Build 0)  -->
<!DOCTYPE svg PUBLIC "-//W3C//DTD SVG 1.1//EN" "http://www.w3.org/Graphics/SVG/1.1/DTD/svg11.dtd">
<svg version="1.1" id="Layer_1" xmlns="http://www.w3.org/2000/svg" xmlns:xlink="http://www.w3.org/1999/xlink" x="0px" y="0px"
	 width="100px" height="100px" viewBox="0 0 100 100" enable-background="new 0 0 100 100" xml:space="preserve">
<path fill="#020202" d="M47.267,34.204c-15.683,0-28.395,12.713-28.395,28.395c0,15.683,12.712,28.395,28.395,28.395
	c15.682,0,28.395-12.712,28.395-28.395C75.661,46.917,62.948,34.204,47.267,34.204z M52.483,36.521l-3.042,13.329h-3.043
	l-2.173-13.329C47.413,34.928,52.483,36.521,52.483,36.521z M47.267,73.141c-5.822,0-10.542-4.72-10.542-10.542
	s4.72-10.541,10.542-10.541s10.542,4.719,10.542,10.541S53.089,73.141,47.267,73.141z M47.267,54.562
	c-4.433,0-8.038,3.604-8.038,8.037s3.605,8.038,8.038,8.038s8.037-3.605,8.037-8.038S51.699,54.562,47.267,54.562z M47.267,68.341
	c-3.166,0-5.742-2.576-5.742-5.742s2.576-5.741,5.742-5.741s5.74,2.575,5.74,5.741S50.433,68.341,47.267,68.341z M47.267,27.251
	c-19.49,0-35.348,15.857-35.348,35.348s15.857,35.348,35.348,35.348s35.347-15.857,35.347-35.348S66.757,27.251,47.267,27.251z
	 M47.267,94.47c-17.574,0-31.871-14.297-31.871-31.871c0-17.573,14.297-31.87,31.871-31.87c17.573,0,31.87,14.297,31.87,31.87
	C79.137,80.173,64.84,94.47,47.267,94.47z M83.616,55.537c-0.204-9.388-5.348-17.576-12.935-22.066
	c0.071-0.424,0.191-0.867,0.381-1.334c1.687-3.339,5.516-2.994,6.127-7.943c1.037,5.738-6.411,8.059-2.545,10.225
	c3.589,1.442,7.428-9.627,3.479-14.349c-3.256-3.867-7.793-8.737-3.59-18.015c-1.113,4.727-2.251,8.701,3.699,14.649
	c6.811,6.403,3.248,12.968,2.809,14.549c-1.5,3.698-4.896,9.114-0.003,9.947c3.802,0.176,1.39-6.505,1.39-6.505
	c-1.348-5.478,3.781-5.617,3.781-5.617c-6.07,2.248,1.614,6.657,1.835,12.679C88.404,47.222,86.063,52.054,83.616,55.537z"/>
</svg>
