<?xml version="1.0" encoding="utf-8"?>
<!-- Generator: Adobe Illustrator 16.0.0, SVG Export Plug-In . SVG Version: 6.00 Build 0)  -->
<!DOCTYPE svg PUBLIC "-//W3C//DTD SVG 1.1//EN" "http://www.w3.org/Graphics/SVG/1.1/DTD/svg11.dtd">
<svg version="1.1" id="Layer_1" xmlns="http://www.w3.org/2000/svg" xmlns:xlink="http://www.w3.org/1999/xlink" x="0px" y="0px"
	 width="100px" height="100px" viewBox="0 0 100 100" enable-background="new 0 0 100 100" xml:space="preserve">
<path fill="#020202" d="M63.11,50c0,2.479-2.015,4.494-4.493,4.494c-2.478,0-4.494-2.016-4.494-4.494s2.017-4.494,4.494-4.494
	C61.096,45.506,63.11,47.521,63.11,50z M60.319,40.021L62.7,29.59c0,0-3.968-1.248-6.463,0l1.701,10.432H60.319z M66.868,50
	c0,4.557-3.694,8.251-8.251,8.251S50.366,54.557,50.366,50s3.694-8.251,8.251-8.251S66.868,45.443,66.868,50z M64.908,50
	c0-3.47-2.821-6.291-6.291-6.291S52.326,46.53,52.326,50s2.821,6.291,6.291,6.291S64.908,53.47,64.908,50z M89.952,14.333v71.333
	H11.285V14.333H89.952z M24.451,17.666h-9v64.667h9V17.666z M86.283,50c0-15.255-12.411-27.666-27.666-27.666
	S30.951,34.745,30.951,50s12.411,27.666,27.666,27.666S86.283,65.255,86.283,50z M83.562,50c0,13.755-11.189,24.944-24.944,24.944
	S33.673,63.755,33.673,50s11.189-24.944,24.944-24.944S83.562,36.245,83.562,50z M80.841,50c0-12.274-9.949-22.224-22.224-22.224
	S36.394,37.726,36.394,50s9.949,22.224,22.224,22.224S80.841,62.274,80.841,50z"/>
</svg>
