<?xml version="1.0" encoding="iso-8859-1"?>
<!-- Generator: Adobe Illustrator 18.0.0, SVG Export Plug-In . SVG Version: 6.00 Build 0)  -->
<!DOCTYPE svg PUBLIC "-//W3C//DTD SVG 1.1//EN" "http://www.w3.org/Graphics/SVG/1.1/DTD/svg11.dtd">
<svg version="1.1" id="Capa_1" xmlns="http://www.w3.org/2000/svg" xmlns:xlink="http://www.w3.org/1999/xlink" x="0px" y="0px"
	 viewBox="0 0 22 22" style="enable-background:new 0 0 22 22;" xml:space="preserve">
<g>
	<path style="fill-rule:evenodd;clip-rule:evenodd;" d="M16.077,9.06c0-2.281-1.893-4.406-4.769-4.406
		c-3.58,0-5.384,2.62-5.384,4.805c0,1.323,0.49,2.5,1.543,2.938c0.172,0.072,0.327,0.002,0.377-0.192
		c0.034-0.135,0.117-0.476,0.153-0.617c0.051-0.193,0.031-0.26-0.108-0.429C7.585,10.792,7.392,10.32,7.392,9.65
		c0-1.943,1.424-3.683,3.709-3.683c2.023,0,3.135,1.262,3.135,2.947c0,2.218-0.961,4.089-2.389,4.089
		c-0.789,0-1.378-0.665-1.189-1.481c0.226-0.974,0.665-2.026,0.665-2.729c0-0.629-0.331-1.155-1.016-1.155
		c-0.806,0-1.453,0.851-1.453,1.991c0,0.726,0.241,1.217,0.241,1.217s-0.825,3.567-0.969,4.191
		c-0.131,0.569-0.151,1.194-0.133,1.722c0.055,0.474,0.514,0.86,0.912,0.34c0.28-0.457,0.581-1.034,0.737-1.612
		c0.093-0.342,0.53-2.114,0.53-2.114c0.262,0.51,1.027,0.959,1.841,0.959C14.434,14.331,16.077,12.077,16.077,9.06z"/>
	<path style="fill-rule:evenodd;clip-rule:evenodd;" d="M22,11c0-6.075-4.925-11-11-11C4.925,0,0,4.925,0,11s4.925,11,11,11
		C17.075,22,22,17.075,22,11z M1,11C1,5.477,5.477,1,11,1c5.523,0,10,4.477,10,10c0,5.523-4.477,10-10,10C5.477,21,1,16.523,1,11z"
		/>
</g>
<g>
</g>
<g>
</g>
<g>
</g>
<g>
</g>
<g>
</g>
<g>
</g>
<g>
</g>
<g>
</g>
<g>
</g>
<g>
</g>
<g>
</g>
<g>
</g>
<g>
</g>
<g>
</g>
<g>
</g>
</svg>
