<?xml version="1.0" encoding="utf-8"?>
<!-- Generator: Adobe Illustrator 16.0.0, SVG Export Plug-In . SVG Version: 6.00 Build 0)  -->
<!DOCTYPE svg PUBLIC "-//W3C//DTD SVG 1.1//EN" "http://www.w3.org/Graphics/SVG/1.1/DTD/svg11.dtd">
<svg version="1.1" id="Layer_1" xmlns="http://www.w3.org/2000/svg" xmlns:xlink="http://www.w3.org/1999/xlink" x="0px" y="0px"
	 width="100px" height="100px" viewBox="0 0 100 100" enable-background="new 0 0 100 100" xml:space="preserve">
<path fill="#020202" d="M79.954,8.74H20.045c-0.857,0-1.554,0.695-1.554,1.554v78.192c0,0.858,0.696,1.554,1.554,1.554h59.909
	c0.858,0,1.555-0.695,1.555-1.554V10.294C81.509,9.436,80.813,8.74,79.954,8.74z M64.626,40.855h7.916v2.328h-7.916V40.855z
	 M64.626,47.994h7.916v2.328h-7.916V47.994z M64.626,55.521h7.916v2.328h-7.916V55.521z M56.598,26.848h2.329v7.916h-2.329V26.848z
	 M49.461,26.848h2.326v7.916h-2.326V26.848z M41.931,26.848h2.33v7.916h-2.33V26.848z M24.702,11.459
	c2.002,0,3.625,1.623,3.625,3.625s-1.623,3.625-3.625,3.625s-3.625-1.623-3.625-3.625S22.7,11.459,24.702,11.459z M24.702,87.063
	c-2.002,0-3.625-1.623-3.625-3.625s1.623-3.625,3.625-3.625s3.625,1.623,3.625,3.625S26.704,87.063,24.702,87.063z M35.373,57.85
	h-7.915v-2.328h7.915V57.85z M35.373,50.322h-7.915v-2.328h7.915V50.322z M35.373,43.184h-7.915v-2.328h7.915V43.184z M42.378,89.25
	h-2.625V84.5h2.625V89.25z M48.128,89.25h-2.625V84.5h2.625V89.25z M53.878,89.25h-2.625V84.5h2.625V89.25z M59.69,89.25h-2.625
	V84.5h2.625V89.25z M65.44,89.25h-2.625V84.5h2.625V89.25z M68.657,82.642H37.032v-2h29.625V68.609l-5.315-6.84
	c-0.116,0.022-0.236,0.036-0.359,0.036H39.876c-1.028,0-1.863-0.833-1.863-1.862V38.836c0-1.027,0.835-1.862,1.863-1.862h21.106
	c1.029,0,1.862,0.835,1.862,1.862v21.107c0,0.148-0.021,0.291-0.055,0.43l5.867,7.551V82.642z M41.931,71.932v-7.916h2.33v7.916
	H41.931z M49.461,71.932v-7.916h2.326v7.916H49.461z M56.598,71.932v-7.916h2.329v7.916H56.598z M75.968,87.063
	c-2.002,0-3.625-1.623-3.625-3.625s1.623-3.625,3.625-3.625s3.625,1.623,3.625,3.625S77.97,87.063,75.968,87.063z M75.968,18.709
	c-2.002,0-3.625-1.623-3.625-3.625s1.623-3.625,3.625-3.625s3.625,1.623,3.625,3.625S77.97,18.709,75.968,18.709z"/>
</svg>
