<?xml version="1.0" encoding="utf-8"?>
<!-- Generator: Adobe Illustrator 16.0.0, SVG Export Plug-In . SVG Version: 6.00 Build 0)  -->
<!DOCTYPE svg PUBLIC "-//W3C//DTD SVG 1.1//EN" "http://www.w3.org/Graphics/SVG/1.1/DTD/svg11.dtd">
<svg version="1.1" id="Layer_2" xmlns="http://www.w3.org/2000/svg" xmlns:xlink="http://www.w3.org/1999/xlink" x="0px" y="0px"
	 width="100px" height="100px" viewBox="0 0 100 100" enable-background="new 0 0 100 100" xml:space="preserve">
<path d="M68.768,28.265h-54.65c-2.801,0-5.079,2.277-5.079,5.078v54.59c0,2.8,2.278,5.078,5.079,5.078h54.65
	c2.801,0,5.079-2.278,5.079-5.078v-54.59C73.847,30.542,71.568,28.265,68.768,28.265z M65.325,34.044
	c1.201,0,2.175,0.976,2.175,2.178c0,1.2-0.974,2.176-2.175,2.176c-1.204,0-2.177-0.976-2.177-2.176
	C63.148,35.02,64.121,34.044,65.325,34.044z M57.525,34.044c1.203,0,2.177,0.976,2.177,2.178c0,1.2-0.974,2.176-2.177,2.176
	c-1.201,0-2.175-0.976-2.175-2.176C55.351,35.02,56.324,34.044,57.525,34.044z M68.043,87.208H14.842V43.801h53.201V87.208z
	 M28.43,73.636l8.457-8.458l-8.457-8.459c-1.258-1.258-1.258-3.297,0-4.554c1.258-1.258,3.295-1.258,4.553,0l8.46,8.458l8.459-8.458
	c1.258-1.258,3.296-1.258,4.554,0c1.258,1.257,1.258,3.296,0,4.554l-8.457,8.459l8.457,8.458c1.258,1.258,1.258,3.298,0,4.554
	c-0.629,0.629-1.454,0.944-2.277,0.944c-0.825,0-1.648-0.315-2.276-0.944l-8.459-8.458l-8.46,8.458
	c-0.628,0.629-1.451,0.944-2.275,0.944s-1.648-0.315-2.277-0.944C27.172,76.934,27.172,74.894,28.43,73.636z M83.92,7.913H29.27
	c-2.801,0-5.079,2.277-5.079,5.078v10.804h5.804v-0.346h53.2v43.407h-4.837v5.803h5.563c2.801,0,5.079-2.277,5.079-5.078v-54.59
	C88.999,10.19,86.721,7.913,83.92,7.913z M72.678,18.046c-1.201,0-2.175-0.975-2.175-2.176c0-1.202,0.974-2.177,2.175-2.177
	c1.203,0,2.177,0.975,2.177,2.177C74.854,17.071,73.881,18.046,72.678,18.046z M80.478,18.046c-1.204,0-2.177-0.975-2.177-2.176
	c0-1.202,0.973-2.177,2.177-2.177c1.201,0,2.175,0.975,2.175,2.177C82.652,17.071,81.679,18.046,80.478,18.046z"/>
</svg>
