<?xml version="1.0" encoding="utf-8"?>
<!-- Generator: Adobe Illustrator 16.0.0, SVG Export Plug-In . SVG Version: 6.00 Build 0)  -->
<!DOCTYPE svg PUBLIC "-//W3C//DTD SVG 1.1//EN" "http://www.w3.org/Graphics/SVG/1.1/DTD/svg11.dtd">
<svg version="1.1" id="Layer_2" xmlns="http://www.w3.org/2000/svg" xmlns:xlink="http://www.w3.org/1999/xlink" x="0px" y="0px"
	 width="100px" height="100px" viewBox="0 0 100 100" enable-background="new 0 0 100 100" xml:space="preserve">
<path d="M69.718,31.302H19.959c-2.551,0-4.625,2.074-4.625,4.624v49.706c0,2.549,2.074,4.624,4.625,4.624h49.759
	c2.55,0,4.625-2.075,4.625-4.624V35.925C74.343,33.375,72.268,31.302,69.718,31.302z M66.584,36.565c1.094,0,1.98,0.887,1.98,1.981
	c0,1.095-0.887,1.982-1.98,1.982c-1.096,0-1.982-0.887-1.982-1.982C64.602,37.452,65.488,36.565,66.584,36.565z M59.482,36.565
	c1.096,0,1.982,0.887,1.982,1.981c0,1.095-0.887,1.982-1.982,1.982c-1.094,0-1.98-0.887-1.98-1.982
	C57.502,37.452,58.389,36.565,59.482,36.565z M69.058,84.97H20.619V45.448h48.438V84.97z M82.125,9.746h-49.76
	c-2.55,0-4.624,2.074-4.624,4.624v13.598h5.284v-4.075h48.439v39.522h-1.717v5.285h2.377c2.55,0,4.625-2.075,4.625-4.624V14.369
	C86.75,11.819,84.675,9.746,82.125,9.746z M71.89,18.972c-1.095,0-1.981-0.887-1.981-1.981c0-1.094,0.887-1.981,1.981-1.981
	s1.981,0.887,1.981,1.981C73.871,18.085,72.984,18.972,71.89,18.972z M78.991,18.972c-1.096,0-1.982-0.887-1.982-1.981
	c0-1.094,0.887-1.981,1.982-1.981c1.094,0,1.98,0.887,1.98,1.981C80.972,18.085,80.085,18.972,78.991,18.972z"/>
</svg>
