<?xml version="1.0" encoding="utf-8"?>
<!-- Generator: Adobe Illustrator 16.0.0, SVG Export Plug-In . SVG Version: 6.00 Build 0)  -->
<!DOCTYPE svg PUBLIC "-//W3C//DTD SVG 1.1//EN" "http://www.w3.org/Graphics/SVG/1.1/DTD/svg11.dtd">
<svg version="1.1" id="Layer_3" xmlns="http://www.w3.org/2000/svg" xmlns:xlink="http://www.w3.org/1999/xlink" x="0px" y="0px"
	 width="100px" height="100px" viewBox="0 0 100 100" enable-background="new 0 0 100 100" xml:space="preserve">
<path d="M65.213,67.087H54.534V56.408c0-0.113-0.023-0.219-0.034-0.33c10.806-1.837,19.062-11.261,19.062-22.582
	c0-12.634-10.278-22.912-22.912-22.912c-12.634,0-22.912,10.278-22.912,22.912c0,11.321,8.256,20.745,19.062,22.582
	c-0.01,0.111-0.034,0.217-0.034,0.33v10.679H36.088c-2.145,0-3.883,1.739-3.883,3.883s1.738,3.883,3.883,3.883h10.679v10.68
	c0,2.145,1.739,3.883,3.883,3.883c2.145,0,3.884-1.739,3.884-3.883v-10.68h10.679c2.145,0,3.883-1.739,3.883-3.883
	S67.358,67.087,65.213,67.087z M35.505,33.496c0-8.351,6.794-15.146,15.145-15.146c8.351,0,15.146,6.794,15.146,15.146
	S59.001,48.641,50.65,48.641C42.3,48.641,35.505,41.847,35.505,33.496z"/>
</svg>
