<?xml version="1.0" encoding="iso-8859-1"?>
<!-- Generator: Adobe Illustrator 18.0.0, SVG Export Plug-In . SVG Version: 6.00 Build 0)  -->
<!DOCTYPE svg PUBLIC "-//W3C//DTD SVG 1.1//EN" "http://www.w3.org/Graphics/SVG/1.1/DTD/svg11.dtd">
<svg version="1.1" id="Capa_1" xmlns="http://www.w3.org/2000/svg" xmlns:xlink="http://www.w3.org/1999/xlink" x="0px" y="0px"
	 viewBox="0 0 18 24" style="enable-background:new 0 0 18 24;" xml:space="preserve">
<g>
	<path style="fill-rule:evenodd;clip-rule:evenodd;" d="M0,4v18c0,2,2.061,2,2.061,2h11.879c0,0,2.061,0,2.061-2v-0.002
		c0.058-0.003,0.154-0.011,0.273-0.031L16,21.967V4c0-2-2.061-2-2.061-2H2.061C2.061,2,0,2,0,4z M7.975,23.244
		c-0.428,0-0.775-0.336-0.775-0.75c0-0.414,0.347-0.75,0.775-0.75c0.428,0,0.775,0.336,0.775,0.75
		C8.749,22.908,8.402,23.244,7.975,23.244z M13.889,3C13.889,3,15,3,15,4.034v15.931C15,21,13.889,21,13.889,21H2.111
		C2.111,21,1,21,1,19.965V4.034C1,3,2.111,3,2.111,3H13.889z"/>
	<path style="fill-rule:evenodd;clip-rule:evenodd;" d="M18,20V2c0-2-2.061-2-2.061-2H4.061c0,0-1.298,0-1.834,1h13.551
		c0,0,1.111,0,1.111,1.034v19.753C17.429,21.551,18,21.052,18,20z"/>
</g>
<g>
</g>
<g>
</g>
<g>
</g>
<g>
</g>
<g>
</g>
<g>
</g>
<g>
</g>
<g>
</g>
<g>
</g>
<g>
</g>
<g>
</g>
<g>
</g>
<g>
</g>
<g>
</g>
<g>
</g>
</svg>
