<?xml version="1.0" encoding="iso-8859-1"?>
<!-- Generator: Adobe Illustrator 18.0.0, SVG Export Plug-In . SVG Version: 6.00 Build 0)  -->
<!DOCTYPE svg PUBLIC "-//W3C//DTD SVG 1.1//EN" "http://www.w3.org/Graphics/SVG/1.1/DTD/svg11.dtd">
<svg version="1.1" id="Capa_1" xmlns="http://www.w3.org/2000/svg" xmlns:xlink="http://www.w3.org/1999/xlink" x="0px" y="0px"
	 viewBox="0 0 16 22" style="enable-background:new 0 0 16 22;" xml:space="preserve">
<path style="fill-rule:evenodd;clip-rule:evenodd;" d="M13.939,22c0,0,2.061,0,2.061-2V2c0-2-2.061-2-2.061-2H2.061C2.061,0,0,0,0,2
	v18c0,2,2.061,2,2.061,2H13.939z M7.975,21.244c-0.428,0-0.775-0.336-0.775-0.75c0-0.414,0.347-0.75,0.775-0.75
	c0.428,0,0.775,0.336,0.775,0.75C8.749,20.909,8.402,21.244,7.975,21.244z M1,17.966V2.035C1,1,2.111,1,2.111,1h11.778
	C13.889,1,15,1,15,2.035v15.931C15,19,13.889,19,13.889,19H2.111C2.111,19,1,19,1,17.966z"/>
<g>
</g>
<g>
</g>
<g>
</g>
<g>
</g>
<g>
</g>
<g>
</g>
<g>
</g>
<g>
</g>
<g>
</g>
<g>
</g>
<g>
</g>
<g>
</g>
<g>
</g>
<g>
</g>
<g>
</g>
</svg>
