<?xml version="1.0" encoding="iso-8859-1"?>
<!-- Generator: Adobe Illustrator 18.0.0, SVG Export Plug-In . SVG Version: 6.00 Build 0)  -->
<!DOCTYPE svg PUBLIC "-//W3C//DTD SVG 1.1//EN" "http://www.w3.org/Graphics/SVG/1.1/DTD/svg11.dtd">
<svg version="1.1" id="Capa_1" xmlns="http://www.w3.org/2000/svg" xmlns:xlink="http://www.w3.org/1999/xlink" x="0px" y="0px"
	 viewBox="0 0 15 24.034" style="enable-background:new 0 0 15 24.034;" xml:space="preserve">
<g>
	<path style="fill-rule:evenodd;clip-rule:evenodd;" d="M15,20V2c0-2-2-2-2-2H4c0,0-1.26,0-1.78,1H13
		c0.109,0,0.342,0.039,0.553,0.144C13.85,1.293,14,1.518,14,2v19.75C14.5,21.5,15,21,15,20z"/>
	<path style="fill-rule:evenodd;clip-rule:evenodd;" d="M0,4.003v18.028c0,2.003,2,2.003,2,2.003h9c0,0,2,0,2-2.003V4.003
		C13,2,11,2,11,2H2C2,2,0,2,0,4.003z M6.5,23.2c-0.552,0-1-0.448-1-1c0-0.552,0.448-1,1-1s1,0.448,1,1
		C7.5,22.752,7.052,23.2,6.5,23.2z M12,4.5v16H1v-16H12z M4,3.221C4,3.096,4.099,3,4.221,3h4.557C8.9,3,9,3.099,9,3.221V3.28
		c0,0.125-0.099,0.221-0.221,0.221H4.221C4.1,3.501,4,3.402,4,3.28V3.221z"/>
</g>
<g>
</g>
<g>
</g>
<g>
</g>
<g>
</g>
<g>
</g>
<g>
</g>
<g>
</g>
<g>
</g>
<g>
</g>
<g>
</g>
<g>
</g>
<g>
</g>
<g>
</g>
<g>
</g>
<g>
</g>
</svg>
