<?xml version="1.0" encoding="iso-8859-1"?>
<!-- Generator: Adobe Illustrator 18.0.0, SVG Export Plug-In . SVG Version: 6.00 Build 0)  -->
<!DOCTYPE svg PUBLIC "-//W3C//DTD SVG 1.1//EN" "http://www.w3.org/Graphics/SVG/1.1/DTD/svg11.dtd">
<svg version="1.1" id="Capa_1" xmlns="http://www.w3.org/2000/svg" xmlns:xlink="http://www.w3.org/1999/xlink" x="0px" y="0px"
	 viewBox="0 0 22 16" style="enable-background:new 0 0 22 16;" xml:space="preserve">
<path style="fill-rule:evenodd;clip-rule:evenodd;" d="M20,16c2,0,2-2.061,2-2.061V2.061C22,2.061,22,0,20,0H2C0,0,0,2.061,0,2.061
	v11.879C0,13.939,0,16,2,16H20z M20.494,7.251c0.414,0,0.75,0.347,0.75,0.775c0,0.428-0.336,0.775-0.75,0.775
	c-0.414,0-0.75-0.347-0.75-0.775C19.744,7.598,20.08,7.251,20.494,7.251z M1,13.889V2.111C1,2.111,1,1,2.035,1h15.931
	C19,1,19,2.111,19,2.111v11.778c0,0,0,1.111-1.034,1.111H2.035C1,15,1,13.889,1,13.889z"/>
<g>
</g>
<g>
</g>
<g>
</g>
<g>
</g>
<g>
</g>
<g>
</g>
<g>
</g>
<g>
</g>
<g>
</g>
<g>
</g>
<g>
</g>
<g>
</g>
<g>
</g>
<g>
</g>
<g>
</g>
</svg>
