<?xml version="1.0" encoding="iso-8859-1"?>
<!-- Generator: Adobe Illustrator 18.0.0, SVG Export Plug-In . SVG Version: 6.00 Build 0)  -->
<!DOCTYPE svg PUBLIC "-//W3C//DTD SVG 1.1//EN" "http://www.w3.org/Graphics/SVG/1.1/DTD/svg11.dtd">
<svg version="1.1" id="Capa_1" xmlns="http://www.w3.org/2000/svg" xmlns:xlink="http://www.w3.org/1999/xlink" x="0px" y="0px"
	 viewBox="0 0 16 22" style="enable-background:new 0 0 16 22;" xml:space="preserve">
<g>
	<ellipse style="fill-rule:evenodd;clip-rule:evenodd;" cx="7.975" cy="19.95" rx="0.775" ry="0.75"/>
	<path style="fill-rule:evenodd;clip-rule:evenodd;" d="M13.939,22c0,0,2.061,0,2.061-2V2c0-2-2.061-2-2.061-2H2.061
		C2.061,0,0,0,0,2v18c0,2,2.061,2,2.061,2H13.939z M1,2.035C1,1,2.111,1,2.111,1h11.778C13.889,1,15,1,15,2.035V18H1V2.035z
		 M1,19.966V19h14v0.965C15,21,13.889,21,13.889,21H2.111C2.111,21,1,21,1,19.966z"/>
</g>
<g>
</g>
<g>
</g>
<g>
</g>
<g>
</g>
<g>
</g>
<g>
</g>
<g>
</g>
<g>
</g>
<g>
</g>
<g>
</g>
<g>
</g>
<g>
</g>
<g>
</g>
<g>
</g>
<g>
</g>
</svg>
