<?xml version="1.0" encoding="iso-8859-1"?>
<!-- Generator: Adobe Illustrator 18.0.0, SVG Export Plug-In . SVG Version: 6.00 Build 0)  -->
<!DOCTYPE svg PUBLIC "-//W3C//DTD SVG 1.1//EN" "http://www.w3.org/Graphics/SVG/1.1/DTD/svg11.dtd">
<svg version="1.1" id="Capa_1" xmlns="http://www.w3.org/2000/svg" xmlns:xlink="http://www.w3.org/1999/xlink" x="0px" y="0px"
	 viewBox="0 0 24 24" style="enable-background:new 0 0 24 24;" xml:space="preserve">
<g>
	<ellipse style="fill-rule:evenodd;clip-rule:evenodd;" cx="21.95" cy="16.025" rx="0.75" ry="0.775"/>
	<ellipse style="fill-rule:evenodd;clip-rule:evenodd;" cx="7.975" cy="19.95" rx="0.775" ry="0.75"/>
	<path style="fill-rule:evenodd;clip-rule:evenodd;" d="M13.939,0H2.061C2.061,0,0,0,0,2v18c0,2,2.061,2,2.061,2h11.879
		c0,0,2.061,0,2.061-2V8V2C16,0,13.939,0,13.939,0z M15,19.966C15,21,13.889,21,13.889,21H2.111C2.111,21,1,21,1,19.966V19h14
		V19.966z M15,18H1V2.035C1,1,2.111,1,2.111,1h11.778C13.889,1,15,1,15,2.035V18z"/>
	<path style="fill-rule:evenodd;clip-rule:evenodd;" d="M10.517,23H2.265C2.52,23.505,3.02,24,4,24h18c2,0,2-2.061,2-2.061V10.061
		c0,0,0-2.061-2-2.061h-5v1h3v14H10.517z M21,9h0.965C23,9,23,10.111,23,10.111v11.778c0,0,0,1.111-1.034,1.111H21V9z"/>
</g>
<g>
</g>
<g>
</g>
<g>
</g>
<g>
</g>
<g>
</g>
<g>
</g>
<g>
</g>
<g>
</g>
<g>
</g>
<g>
</g>
<g>
</g>
<g>
</g>
<g>
</g>
<g>
</g>
<g>
</g>
</svg>
