<?xml version="1.0" encoding="iso-8859-1"?>
<!-- Generator: Adobe Illustrator 18.0.0, SVG Export Plug-In . SVG Version: 6.00 Build 0)  -->
<!DOCTYPE svg PUBLIC "-//W3C//DTD SVG 1.1//EN" "http://www.w3.org/Graphics/SVG/1.1/DTD/svg11.dtd">
<svg version="1.1" id="Capa_1" xmlns="http://www.w3.org/2000/svg" xmlns:xlink="http://www.w3.org/1999/xlink" x="0px" y="0px"
	 viewBox="0 0 18 24" style="enable-background:new 0 0 18 24;" xml:space="preserve">
<g>
	<path style="fill-rule:evenodd;clip-rule:evenodd;" d="M18,20V2c0-2-2.061-2-2.061-2H4.061c0,0-1.298,0-1.834,1h13.662
		C15.889,1,17,1,17,2.034v19.701C17.505,21.48,18,20.98,18,20z"/>
	<path style="fill-rule:evenodd;clip-rule:evenodd;" d="M0,4v18c0,2,2.061,2,2.061,2h11.879c0,0,2.061,0,2.061-2v-0.002
		c0.058-0.003,0.153-0.011,0.272-0.031L16,21.968V4c0-2-2.061-2-2.061-2H2.061C2.061,2,0,2,0,4z M15,21.965
		C15,23,13.889,23,13.889,23H2.111C2.111,23,1,23,1,21.965V21h14V21.965z M13.889,3C13.889,3,15,3,15,4.034V20H1V4.034
		C1,3,2.111,3,2.111,3H13.889z"/>
	<ellipse style="fill-rule:evenodd;clip-rule:evenodd;" cx="7.975" cy="21.95" rx="0.775" ry="0.75"/>
</g>
<g>
</g>
<g>
</g>
<g>
</g>
<g>
</g>
<g>
</g>
<g>
</g>
<g>
</g>
<g>
</g>
<g>
</g>
<g>
</g>
<g>
</g>
<g>
</g>
<g>
</g>
<g>
</g>
<g>
</g>
</svg>
