<?xml version="1.0" encoding="iso-8859-1"?>
<!-- Generator: Adobe Illustrator 18.0.0, SVG Export Plug-In . SVG Version: 6.00 Build 0)  -->
<!DOCTYPE svg PUBLIC "-//W3C//DTD SVG 1.1//EN" "http://www.w3.org/Graphics/SVG/1.1/DTD/svg11.dtd">
<svg version="1.1" id="Capa_1" xmlns="http://www.w3.org/2000/svg" xmlns:xlink="http://www.w3.org/1999/xlink" x="0px" y="0px"
	 viewBox="0 0 22 16" style="enable-background:new 0 0 22 16;" xml:space="preserve">
<g>
	<ellipse style="fill-rule:evenodd;clip-rule:evenodd;" cx="19.95" cy="8.025" rx="0.75" ry="0.775"/>
	<path style="fill-rule:evenodd;clip-rule:evenodd;" d="M20,16c2,0,2-2.061,2-2.061V2.061C22,2.061,22,0,20,0H2C0,0,0,2.061,0,2.061
		v11.879C0,13.939,0,16,2,16H20z M19,1h0.965C21,1,21,2.111,21,2.111v11.778c0,0,0,1.111-1.034,1.111H19V1z M1,13.889V2.111
		C1,2.111,1,1,2.035,1H18v14H2.035C1,15,1,13.889,1,13.889z"/>
</g>
<g>
</g>
<g>
</g>
<g>
</g>
<g>
</g>
<g>
</g>
<g>
</g>
<g>
</g>
<g>
</g>
<g>
</g>
<g>
</g>
<g>
</g>
<g>
</g>
<g>
</g>
<g>
</g>
<g>
</g>
</svg>
