<?xml version="1.0" encoding="iso-8859-1"?>
<!-- Generator: Adobe Illustrator 18.0.0, SVG Export Plug-In . SVG Version: 6.00 Build 0)  -->
<!DOCTYPE svg PUBLIC "-//W3C//DTD SVG 1.1//EN" "http://www.w3.org/Graphics/SVG/1.1/DTD/svg11.dtd">
<svg version="1.1" id="Capa_1" xmlns="http://www.w3.org/2000/svg" xmlns:xlink="http://www.w3.org/1999/xlink" x="0px" y="0px"
	 viewBox="0 0 24 24" style="enable-background:new 0 0 24 24;" xml:space="preserve">
<g>
	<path style="fill-rule:evenodd;clip-rule:evenodd;" d="M19.966,23h-9.448H2.265C2.52,23.505,3.02,24,4,24h18c2,0,2-2.061,2-2.061
		V10.061c0,0,0-2.061-2-2.061h-5v1h2.965C21,9,21,10.111,21,10.111v11.778C21,21.889,21,23,19.966,23z M22.494,15.251
		c0.414,0,0.75,0.347,0.75,0.775c0,0.428-0.336,0.775-0.75,0.775c-0.414,0-0.75-0.347-0.75-0.775
		C21.744,15.598,22.08,15.251,22.494,15.251z"/>
	<path style="fill-rule:evenodd;clip-rule:evenodd;" d="M13.939,0H2.061C2.061,0,0,0,0,2v18c0,2,2.061,2,2.061,2h11.879
		c0,0,2.061,0,2.061-2V8V2C16,0,13.939,0,13.939,0z M7.975,21.244c-0.428,0-0.775-0.336-0.775-0.75c0-0.414,0.347-0.75,0.775-0.75
		c0.428,0,0.775,0.336,0.775,0.75C8.749,20.909,8.403,21.244,7.975,21.244z M15,17.966C15,19,13.889,19,13.889,19H2.111
		C2.111,19,1,19,1,17.966V2.035C1,1,2.111,1,2.111,1h11.778C13.889,1,15,1,15,2.035V17.966z"/>
</g>
<g>
</g>
<g>
</g>
<g>
</g>
<g>
</g>
<g>
</g>
<g>
</g>
<g>
</g>
<g>
</g>
<g>
</g>
<g>
</g>
<g>
</g>
<g>
</g>
<g>
</g>
<g>
</g>
<g>
</g>
</svg>
