<?xml version="1.0" encoding="iso-8859-1"?>
<!-- Generator: Adobe Illustrator 18.0.0, SVG Export Plug-In . SVG Version: 6.00 Build 0)  -->
<!DOCTYPE svg PUBLIC "-//W3C//DTD SVG 1.1//EN" "http://www.w3.org/Graphics/SVG/1.1/DTD/svg11.dtd">
<svg version="1.1" id="Capa_1" xmlns="http://www.w3.org/2000/svg" xmlns:xlink="http://www.w3.org/1999/xlink" x="0px" y="0px"
	 viewBox="0 0 16 16" style="enable-background:new 0 0 16 16;" xml:space="preserve">
<path style="fill-rule:evenodd;clip-rule:evenodd;" d="M16,8c0-4.418-3.582-8-8-8C3.582,0,0,3.582,0,8c0,4.418,3.582,8,8,8
	C12.418,16,16,12.418,16,8z M6.957,10.316C6.75,10.074,6.598,9.7,6.5,9.195l0.661-0.162c0.09,0.357,0.2,0.612,0.331,0.765
	c0.136,0.146,0.318,0.219,0.544,0.219c0.221,0,0.405-0.083,0.553-0.25c0.146-0.164,0.219-0.377,0.219-0.638
	c0-0.233-0.061-0.419-0.183-0.56C8.563,8.499,8.471,8.422,8.35,8.337c-0.121-0.086-0.276-0.179-0.465-0.28
	C7.497,7.852,7.241,7.664,7.119,7.492C6.925,7.236,6.828,6.93,6.828,6.572c0-0.169,0.023-0.327,0.069-0.472
	c0.046-0.146,0.113-0.278,0.2-0.396S7.292,5.482,7.42,5.395C7.548,5.308,7.693,5.24,7.856,5.191V4.5h0.526v0.691
	c0.236,0.045,0.43,0.136,0.58,0.275c0.15,0.139,0.294,0.351,0.43,0.638L8.806,6.488C8.629,6.112,8.399,5.924,8.114,5.924
	c-0.176,0-0.323,0.061-0.439,0.183C7.559,6.229,7.501,6.382,7.501,6.565c0,0.167,0.047,0.305,0.141,0.416
	c0.092,0.108,0.279,0.236,0.559,0.384C8.444,7.495,8.644,7.616,8.803,7.73C8.961,7.844,9.08,7.954,9.16,8.06
	C9.387,8.347,9.5,8.693,9.5,9.1c0,0.399-0.102,0.752-0.307,1.057C8.991,10.46,8.72,10.665,8.382,10.77v0.73H7.856v-0.708
	C7.463,10.716,7.163,10.558,6.957,10.316z"/>
<g>
</g>
<g>
</g>
<g>
</g>
<g>
</g>
<g>
</g>
<g>
</g>
<g>
</g>
<g>
</g>
<g>
</g>
<g>
</g>
<g>
</g>
<g>
</g>
<g>
</g>
<g>
</g>
<g>
</g>
</svg>
