<?xml version="1.0" encoding="iso-8859-1"?>
<!-- Generator: Adobe Illustrator 18.0.0, SVG Export Plug-In . SVG Version: 6.00 Build 0)  -->
<!DOCTYPE svg PUBLIC "-//W3C//DTD SVG 1.1//EN" "http://www.w3.org/Graphics/SVG/1.1/DTD/svg11.dtd">
<svg version="1.1" id="Capa_1" xmlns="http://www.w3.org/2000/svg" xmlns:xlink="http://www.w3.org/1999/xlink" x="0px" y="0px"
	 viewBox="0 0 12 22" style="enable-background:new 0 0 12 22;" xml:space="preserve">
<g>
	<rect x="2" y="13" style="fill-rule:evenodd;clip-rule:evenodd;" width="8" height="1"/>
	<rect x="2" y="15" style="fill-rule:evenodd;clip-rule:evenodd;" width="8" height="1"/>
	<rect x="2" y="19" style="fill-rule:evenodd;clip-rule:evenodd;" width="8" height="1"/>
	<rect x="2" y="17" style="fill-rule:evenodd;clip-rule:evenodd;" width="8" height="1"/>
	<rect x="2" y="11" style="fill-rule:evenodd;clip-rule:evenodd;" width="8" height="1"/>
	<rect x="2" y="9" style="fill-rule:evenodd;clip-rule:evenodd;" width="8" height="1"/>
	<rect x="2" y="7" style="fill-rule:evenodd;clip-rule:evenodd;" width="8" height="1"/>
	<path style="fill-rule:evenodd;clip-rule:evenodd;" d="M0,4.105v15.79C0,21.983,2.182,22,2.182,22h7.636c0,0,2.182,0,2.182-2.105
		V4.105C12,2,9.818,2,9.818,2H2.182C2.182,2,0,2,0,4.105z M9.889,3C9.889,3,11,3,11,4.059v15.882C11,21,9.889,21,9.889,21H2.111
		C2.111,21,1,21,1,19.941V4.059C1,2.967,2.111,3,2.111,3H9.889z"/>
	<path style="fill-rule:evenodd;clip-rule:evenodd;" d="M7,0H5C4,0,4,1.503,3.97,1.503H8C8,1.503,8,0,7,0z"/>
	<rect x="2" y="5" style="fill-rule:evenodd;clip-rule:evenodd;" width="8" height="1"/>
</g>
<g>
</g>
<g>
</g>
<g>
</g>
<g>
</g>
<g>
</g>
<g>
</g>
<g>
</g>
<g>
</g>
<g>
</g>
<g>
</g>
<g>
</g>
<g>
</g>
<g>
</g>
<g>
</g>
<g>
</g>
</svg>
