<?xml version="1.0" encoding="utf-8"?>
<!-- Generator: Adobe Illustrator 16.0.0, SVG Export Plug-In . SVG Version: 6.00 Build 0)  -->
<!DOCTYPE svg PUBLIC "-//W3C//DTD SVG 1.1//EN" "http://www.w3.org/Graphics/SVG/1.1/DTD/svg11.dtd">
<svg version="1.1" id="Layer_2" xmlns="http://www.w3.org/2000/svg" xmlns:xlink="http://www.w3.org/1999/xlink" x="0px" y="0px"
	 width="100px" height="100px" viewBox="0 0 100 100" enable-background="new 0 0 100 100" xml:space="preserve">
<path d="M85.727,39.5c0.086,0,0.166,0.019,0.25,0.025V35.5h-74v4.092c0.25-0.057,0.507-0.092,0.773-0.092c1.933,0,3.5,1.567,3.5,3.5
	v4.25c0,1.933-1.567,3.5-3.5,3.5c-0.267,0-0.523-0.036-0.773-0.092v2.435C12.227,53.036,12.483,53,12.75,53
	c1.933,0,3.5,1.567,3.5,3.5v4.25c0,1.933-1.567,3.5-3.5,3.5c-0.267,0-0.523-0.036-0.773-0.092V69h74v-4.775
	c-0.084,0.006-0.164,0.025-0.25,0.025c-1.933,0-3.5-1.567-3.5-3.5V56.5c0-1.933,1.567-3.5,3.5-3.5c0.086,0,0.166,0.019,0.25,0.025
	v-2.301c-0.084,0.006-0.164,0.025-0.25,0.025c-1.933,0-3.5-1.567-3.5-3.5V43C82.227,41.067,83.794,39.5,85.727,39.5z M76.667,65H22
	V39h54.667V65z M27,43.875c0-0.552,0.447-1,1-1h42c0.553,0,1,0.448,1,1s-0.447,1-1,1H28C27.447,44.875,27,44.427,27,43.875z
	 M27,59.333c0-0.552,0.447-1,1-1h42c0.553,0,1,0.448,1,1s-0.447,1-1,1H28C27.447,60.333,27,59.886,27,59.333z"/>
</svg>
