<?xml version="1.0" encoding="utf-8"?>
<!-- Generator: Adobe Illustrator 16.0.0, SVG Export Plug-In . SVG Version: 6.00 Build 0)  -->
<!DOCTYPE svg PUBLIC "-//W3C//DTD SVG 1.1//EN" "http://www.w3.org/Graphics/SVG/1.1/DTD/svg11.dtd">
<svg version="1.1" id="Layer_1" xmlns="http://www.w3.org/2000/svg" xmlns:xlink="http://www.w3.org/1999/xlink" x="0px" y="0px"
	 width="100px" height="100px" viewBox="0 0 100 100" enable-background="new 0 0 100 100" xml:space="preserve">
<path fill="#020202" d="M53.426,83.59v1c0,1.657-1.343,3-3,3h-10c-15.577,0-28.25-12.673-28.25-28.25s12.673-28.25,28.25-28.25
	h18.449L46.168,18.384c-1.364-1.364-1.364-3.585,0-4.949c1.321-1.322,3.628-1.322,4.949,0l18.681,18.681
	c0.661,0.661,1.025,1.54,1.025,2.475s-0.364,1.814-1.025,2.475L51.118,55.746c-1.321,1.322-3.626,1.324-4.95,0
	c-1.364-1.364-1.364-3.585,0-4.949L58.875,38.09H40.426c-11.717,0-21.25,9.533-21.25,21.25s9.533,21.25,21.25,21.25h10
	C52.083,80.59,53.426,81.934,53.426,83.59z M86.799,32.116L68.118,13.435c-1.321-1.322-3.628-1.322-4.949,0
	c-1.365,1.364-1.365,3.585,0,4.949L75.875,31.09l3.4,3.369l-3.4,3.631L63.169,50.796c-1.365,1.364-1.365,3.585,0,4.949
	c1.324,1.324,3.629,1.322,4.95,0l18.681-18.681c0.661-0.661,1.025-1.54,1.025-2.475S87.46,32.776,86.799,32.116z"/>
</svg>
