<?xml version="1.0" encoding="iso-8859-1"?>
<!-- Generator: Adobe Illustrator 18.0.0, SVG Export Plug-In . SVG Version: 6.00 Build 0)  -->
<!DOCTYPE svg PUBLIC "-//W3C//DTD SVG 1.1//EN" "http://www.w3.org/Graphics/SVG/1.1/DTD/svg11.dtd">
<svg version="1.1" id="Capa_1" xmlns="http://www.w3.org/2000/svg" xmlns:xlink="http://www.w3.org/1999/xlink" x="0px" y="0px"
	 viewBox="0 90 612 612" style="enable-background:new 0 90 612 612;" xml:space="preserve">
<g>
	<circle cx="542.455" cy="396" r="27.818"/>
	<path d="M55.664,332.602c0-3.394-2.698-6.148-6.148-6.148h-1.641c-3.394,0-6.148,2.782-6.148,6.148V459.37
		c0,3.422,2.698,6.176,6.148,6.176h1.641c3.394,0,6.148-2.782,6.148-6.148V332.602z"/>
	<path d="M556.364,576.818C612,576.818,612,521.182,612,521.182V270.818c0,0,0-55.636-55.636-55.636H55.636
		C0,215.182,0,270.818,0,270.818v250.364c0,0,0,55.636,55.636,55.636H556.364z M500.727,243h55.636
		c13.408,0,19.667,4.173,23.812,12.435c2.921,5.87,4.006,12.351,4.006,15.383v250.364c0,3.032-1.085,9.514-4.006,15.383
		C576.031,544.827,569.772,549,556.364,549h-55.636V243z M97.364,243h375.545v306H97.364V243z M31.824,536.565
		c-2.921-5.87-4.006-12.351-4.006-15.383V270.818c0-3.032,1.085-9.514,4.006-15.383C35.969,247.173,42.228,243,55.636,243h13.909
		v306H55.636C42.228,549,35.969,544.827,31.824,536.565z"/>
</g>
</svg>
