<?xml version="1.0" encoding="iso-8859-1"?>
<!-- Generator: Adobe Illustrator 18.0.0, SVG Export Plug-In . SVG Version: 6.00 Build 0)  -->
<!DOCTYPE svg PUBLIC "-//W3C//DTD SVG 1.1//EN" "http://www.w3.org/Graphics/SVG/1.1/DTD/svg11.dtd">
<svg version="1.1" id="Capa_1" xmlns="http://www.w3.org/2000/svg" xmlns:xlink="http://www.w3.org/1999/xlink" x="0px" y="0px"
	 viewBox="0 0 24 24" style="enable-background:new 0 0 24 24;" xml:space="preserve">
<g>
	<path style="fill-rule:evenodd;clip-rule:evenodd;" d="M11,0H2c0,0-2,0-2,2v18c0,2,2,2,2,2h9c0,0,2,0,2-2V2C13,0,11,0,11,0z M12,20
		c0,0.482-0.15,0.707-0.447,0.856C11.342,20.961,11.109,21,11,21H2c-0.109,0-0.342-0.039-0.553-0.144C1.15,20.707,1,20.482,1,20v-2
		h11V20z M12,17H1V3.5h11V17z M12,2.5H1V2c0-0.482,0.15-0.707,0.447-0.856C1.658,1.039,1.891,1,2,1h9
		c0.109,0,0.342,0.039,0.553,0.144C11.85,1.293,12,1.518,12,2V2.5z"/>
	<circle style="fill-rule:evenodd;clip-rule:evenodd;" cx="21.5" cy="17.5" r="1"/>
	<path style="fill-rule:evenodd;clip-rule:evenodd;" d="M9,23H2.25C2.5,23.5,3,24,4,24h18c2,0,2-2,2-2v-9c0,0,0-2-2-2h-8v1h5v11H9z
		 M20,12h2c0.482,0,0.707,0.15,0.856,0.447C22.961,12.658,23,12.891,23,13v9c0,0.109-0.039,0.342-0.144,0.553
		C22.707,22.85,22.482,23,22,23h-2V12z"/>
	<circle style="fill-rule:evenodd;clip-rule:evenodd;" cx="6.5" cy="19.5" r="1"/>
	<path style="fill-rule:evenodd;clip-rule:evenodd;" d="M8.779,1.5H4.221C4.099,1.5,4,1.597,4,1.721V1.78
		c0,0.122,0.1,0.221,0.221,0.221h4.557C8.901,2.001,9,1.904,9,1.78V1.721C9,1.599,8.9,1.5,8.779,1.5z"/>
</g>
<g>
</g>
<g>
</g>
<g>
</g>
<g>
</g>
<g>
</g>
<g>
</g>
<g>
</g>
<g>
</g>
<g>
</g>
<g>
</g>
<g>
</g>
<g>
</g>
<g>
</g>
<g>
</g>
<g>
</g>
</svg>
