<?xml version="1.0" encoding="utf-8"?>
<!-- Generator: Adobe Illustrator 16.0.0, SVG Export Plug-In . SVG Version: 6.00 Build 0)  -->
<!DOCTYPE svg PUBLIC "-//W3C//DTD SVG 1.1//EN" "http://www.w3.org/Graphics/SVG/1.1/DTD/svg11.dtd">
<svg version="1.1" id="Layer_1" xmlns="http://www.w3.org/2000/svg" xmlns:xlink="http://www.w3.org/1999/xlink" x="0px" y="0px"
	 width="100px" height="100px" viewBox="0 0 100 100" enable-background="new 0 0 100 100" xml:space="preserve">
<path fill="#020202" d="M85.308,49C84.782,30.221,69.54,15.067,50.725,14.685V7h-2v7.699C30.164,15.362,15.213,30.404,14.692,49
	H5.725v2h8.967c0.521,18.596,15.472,33.638,34.033,34.301V93h2v-7.685C69.54,84.933,84.782,69.779,85.308,51h6.417v-2H85.308z
	 M48.725,16.699v10.207C36.842,27.513,27.332,37.091,26.825,49H16.692C17.211,31.506,31.267,17.359,48.725,16.699z M48.725,83.301
	C31.267,82.641,17.211,68.494,16.692,51h10.133c0.507,11.909,10.017,21.487,21.9,22.094V83.301z M48.725,57.737v-6.654h-6.571
	v-2.167h6.571v-6.488h2.167v6.488h6.571v2.167h-6.571v6.654H48.725z M50.725,83.315v-10.21C62.792,72.693,72.512,63.042,73.024,51
	h10.284C82.783,68.677,68.437,82.934,50.725,83.315z M73.024,49c-0.513-12.042-10.232-21.693-22.299-22.104v-10.21
	C68.437,17.066,82.783,31.323,83.308,49H73.024z M50.891,51.083h-2.167v-2.167h2.167V51.083z"/>
</svg>
