<?xml version="1.0" encoding="utf-8"?>
<!-- Generator: Adobe Illustrator 16.0.0, SVG Export Plug-In . SVG Version: 6.00 Build 0)  -->
<!DOCTYPE svg PUBLIC "-//W3C//DTD SVG 1.1//EN" "http://www.w3.org/Graphics/SVG/1.1/DTD/svg11.dtd">
<svg version="1.1" id="Layer_1" xmlns="http://www.w3.org/2000/svg" xmlns:xlink="http://www.w3.org/1999/xlink" x="0px" y="0px"
	 width="100px" height="100px" viewBox="0 0 100 100" enable-background="new 0 0 100 100" xml:space="preserve">
<path fill="#020202" d="M53.006,32.121c0,1.66-1.345,3.006-3.006,3.006c-1.66,0-3.005-1.346-3.005-3.006
	c0-1.661,1.345-3.006,3.005-3.006C51.661,29.115,53.006,30.46,53.006,32.121z M76.646,8.195v66.124c0,0.726-0.589,1.313-1.313,1.313
	H24.67c-0.727,0-1.314-0.588-1.314-1.313V8.195c0-0.726,0.588-1.313,1.314-1.313h50.662C76.057,6.882,76.646,7.47,76.646,8.195z
	 M25.542,12.246c0,1.693,1.373,3.065,3.065,3.065c1.693,0,3.066-1.372,3.066-3.065c0-1.692-1.373-3.065-3.066-3.065
	C26.915,9.181,25.542,10.554,25.542,12.246z M31.674,70.05c0-1.693-1.373-3.065-3.066-3.065c-1.692,0-3.065,1.372-3.065,3.065
	c0,1.692,1.373,3.065,3.065,3.065C30.301,73.115,31.674,71.742,31.674,70.05z M32.731,60.087c2.357,0,4.27-1.911,4.27-4.27
	s-1.912-4.27-4.27-4.27c-2.358,0-4.27,1.911-4.27,4.27S30.373,60.087,32.731,60.087z M64.762,67.86H35.177v4.817h29.585V67.86z
	 M65.76,64.85c1.668,0,3.234-0.649,4.414-1.827c2.432-2.433,2.432-6.392-0.002-8.826c-0.357-0.356-0.764-0.671-1.21-0.938
	l-7.308-5.529c4.882-3.586,8.052-9.365,8.052-15.886c0-10.883-8.822-19.706-19.706-19.706c-10.883,0-19.705,8.823-19.705,19.706
	S39.117,51.548,50,51.548c1.086,0,2.149-0.091,3.186-0.261l6.99,10.098c0.304,0.612,0.697,1.163,1.173,1.638
	C62.527,64.2,64.094,64.85,65.76,64.85z M75.025,70.05c0-1.693-1.373-3.065-3.064-3.065c-1.694,0-3.066,1.372-3.066,3.065
	c0,1.692,1.372,3.065,3.066,3.065C73.652,73.115,75.025,71.742,75.025,70.05z M75.025,12.246c0-1.692-1.373-3.065-3.064-3.065
	c-1.694,0-3.066,1.373-3.066,3.065c0,1.693,1.372,3.065,3.066,3.065C73.652,15.312,75.025,13.939,75.025,12.246z M52.22,49.012
	c0.101,0.145,0.117,0.333,0.043,0.493c-0.073,0.16-0.227,0.271-0.402,0.288c-0.618,0.064-1.244,0.097-1.86,0.097
	c-9.798,0-17.769-7.971-17.769-17.769S40.202,14.352,50,14.352s17.77,7.972,17.77,17.77c0,5.832-2.87,11.298-7.677,14.622
	c-0.178,0.123-0.414,0.117-0.586-0.013l-11.292-8.543c-0.043-0.032-0.089-0.058-0.135-0.084c-0.083-0.048-0.148-0.117-0.194-0.197
	c-0.052,0.019-0.077,0.035-0.171,0.027c-0.036-0.002-0.071-0.002-0.107-0.009c-0.466-0.091-0.957,0.049-1.297,0.374
	c-0.524,0.503-0.605,1.302-0.192,1.899L52.22,49.012z M50,37.409c2.915,0,5.287-2.372,5.287-5.288c0-2.915-2.372-5.287-5.287-5.287
	s-5.287,2.372-5.287,5.287c0,2.086,1.225,3.973,3.126,4.826c0.135,0.032,0.248,0.118,0.316,0.233
	c0.049-0.017,0.101-0.025,0.153-0.025c0.046,0,0.093,0.007,0.141,0.021C48.95,37.331,49.473,37.409,50,37.409z M50.902,48.865
	l-5.606-8.099c-0.694-1.003-0.559-2.345,0.323-3.189c0.182-0.175,0.386-0.317,0.607-0.427c-1.561-1.172-2.514-3.022-2.514-5.029
	c0-3.467,2.82-6.287,6.287-6.287s6.287,2.82,6.287,6.287c0,3.413-2.732,6.2-6.125,6.286l9.656,7.306
	c4.359-3.155,6.951-8.208,6.951-13.592c0-9.247-7.522-16.77-16.77-16.77c-9.246,0-16.769,7.522-16.769,16.77
	C33.231,41.666,41.269,49.4,50.902,48.865z M68.944,55.745c-0.279-0.277-0.588-0.505-0.913-0.691L47.493,39.516l14.556,21.03
	c0.207,0.447,0.489,0.868,0.856,1.237c1.668,1.667,4.371,1.667,6.039,0C70.611,60.116,70.611,57.413,68.944,55.745z M32.731,53.089
	c-1.508,0-2.729,1.221-2.729,2.729s1.221,2.729,2.729,2.729c1.507,0,2.729-1.222,2.729-2.729S34.238,53.089,32.731,53.089z
	 M55.82,86.41c0-0.727-0.428-1.314-0.954-1.314h-2.155v-5.607c0-0.726-0.425-1.313-0.953-1.313h-2.962
	c-0.526,0-0.953,0.588-0.953,1.313v5.607h-2.512c-0.526,0-0.953,0.588-0.953,1.314v1.508H34.355v2.42h10.022v1.467
	c0,0.726,0.427,1.313,0.953,1.313h2.512h4.513h2.511c0.526,0,0.954-0.588,0.954-1.313v-1.467h10.408v-2.42H55.82V86.41z"/>
</svg>
