<?xml version="1.0" encoding="utf-8"?>
<!-- Generator: Adobe Illustrator 16.0.0, SVG Export Plug-In . SVG Version: 6.00 Build 0)  -->
<!DOCTYPE svg PUBLIC "-//W3C//DTD SVG 1.1//EN" "http://www.w3.org/Graphics/SVG/1.1/DTD/svg11.dtd">
<svg version="1.1" id="Layer_1" xmlns="http://www.w3.org/2000/svg" xmlns:xlink="http://www.w3.org/1999/xlink" x="0px" y="0px"
	 width="100px" height="100px" viewBox="0 0 100 100" enable-background="new 0 0 100 100" xml:space="preserve">
<path fill="#020202" d="M50,42.751c-1.963,0-3.555-1.592-3.555-3.555c0-1.964,1.592-3.555,3.555-3.555s3.555,1.591,3.555,3.555
	C53.555,41.159,51.963,42.751,50,42.751z M81.508,10.904v78.192c0,0.858-0.696,1.554-1.554,1.554H20.045
	c-0.858,0-1.554-0.695-1.554-1.554V10.904c0-0.858,0.696-1.554,1.554-1.554h59.909C80.813,9.351,81.508,10.046,81.508,10.904z
	 M21.078,15.694c0,2.002,1.624,3.625,3.625,3.625c2.002,0,3.625-1.623,3.625-3.625s-1.623-3.625-3.625-3.625
	C22.701,12.069,21.078,13.692,21.078,15.694z M28.328,84.048c0-2.002-1.623-3.625-3.625-3.625c-2.001,0-3.625,1.623-3.625,3.625
	s1.624,3.625,3.625,3.625C26.705,87.673,28.328,86.05,28.328,84.048z M29.579,72.267c2.789,0,5.049-2.26,5.049-5.049
	c0-2.788-2.26-5.049-5.049-5.049s-5.049,2.261-5.049,5.049C24.53,70.007,26.79,72.267,29.579,72.267z M67.456,81.459H32.471v5.696
	h34.985V81.459z M68.637,77.899c1.971,0,3.824-0.769,5.218-2.161c2.876-2.877,2.877-7.558-0.001-10.438
	c-0.422-0.421-0.902-0.793-1.43-1.109l-8.642-6.538c5.772-4.241,9.521-11.075,9.521-18.786c0-12.869-10.433-23.303-23.302-23.303
	S26.698,25.998,26.698,38.867S37.131,62.169,50,62.169c1.284,0,2.541-0.107,3.768-0.308l8.265,11.94
	c0.359,0.724,0.825,1.375,1.387,1.937C64.813,77.131,66.666,77.899,68.637,77.899z M79.593,84.048c0-2.002-1.623-3.625-3.625-3.625
	s-3.625,1.623-3.625,3.625s1.623,3.625,3.625,3.625S79.593,86.05,79.593,84.048z M79.593,15.694c0-2.002-1.623-3.625-3.625-3.625
	s-3.625,1.623-3.625,3.625s1.623,3.625,3.625,3.625S79.593,17.696,79.593,15.694z M52.549,59.222
	c0.101,0.145,0.117,0.332,0.043,0.493c-0.074,0.16-0.227,0.27-0.402,0.288c-0.726,0.076-1.462,0.114-2.189,0.114
	c-11.536,0-20.921-9.385-20.921-20.921S38.464,18.274,50,18.274s20.921,9.386,20.921,20.922c0,6.867-3.379,13.303-9.039,17.217
	c-0.177,0.124-0.413,0.118-0.586-0.013L47.944,46.298c-0.06-0.045-0.124-0.08-0.187-0.115c-0.105-0.06-0.182-0.153-0.224-0.26
	c-0.071,0.036-0.153,0.063-0.238,0.056c-0.034-0.002-0.071-0.003-0.107-0.009c-0.584-0.116-1.192,0.062-1.615,0.467
	c-0.652,0.626-0.752,1.62-0.238,2.363L52.549,59.222z M48.138,45.262c0.604,0.186,1.231,0.279,1.862,0.279
	c3.498,0,6.344-2.846,6.344-6.344S53.498,32.854,50,32.854s-6.344,2.846-6.344,6.344c0,2.507,1.475,4.774,3.764,5.795
	c0.16,0.038,0.291,0.152,0.35,0.304c0.069-0.036,0.146-0.056,0.225-0.056C48.042,45.24,48.09,45.247,48.138,45.262z M51.234,59.079
	l-6.722-9.711c-0.795-1.148-0.64-2.686,0.369-3.653c0.246-0.236,0.529-0.422,0.835-0.553c-1.896-1.362-3.061-3.568-3.061-5.965
	c0-4.05,3.294-7.344,7.344-7.344s7.344,3.294,7.344,7.344S54.05,46.541,50,46.541c-0.026,0-0.052,0-0.078,0l11.687,8.842
	c5.212-3.744,8.313-9.769,8.313-16.187c0-10.985-8.937-19.922-19.921-19.922s-19.921,8.937-19.921,19.922
	c0,10.984,8.937,19.921,19.921,19.921C50.41,59.117,50.822,59.104,51.234,59.079z M72.401,67.133
	c-0.329-0.328-0.695-0.598-1.08-0.817L47.034,47.94L64.247,72.81c0.244,0.529,0.578,1.027,1.014,1.464
	c1.971,1.971,5.168,1.971,7.14,0C74.373,72.302,74.373,69.105,72.401,67.133z M29.579,63.991c-1.783,0-3.227,1.444-3.227,3.227
	c0,1.783,1.444,3.228,3.227,3.228s3.227-1.444,3.227-3.228C32.806,65.436,31.361,63.991,29.579,63.991z"/>
</svg>
