<?xml version="1.0" encoding="utf-8"?>
<!-- Generator: Adobe Illustrator 16.0.0, SVG Export Plug-In . SVG Version: 6.00 Build 0)  -->
<!DOCTYPE svg PUBLIC "-//W3C//DTD SVG 1.1//EN" "http://www.w3.org/Graphics/SVG/1.1/DTD/svg11.dtd">
<svg version="1.1" id="Layer_2" xmlns="http://www.w3.org/2000/svg" xmlns:xlink="http://www.w3.org/1999/xlink" x="0px" y="0px"
	 width="100px" height="100px" viewBox="0 0 100 100" enable-background="new 0 0 100 100" xml:space="preserve">
<path d="M49.619,9.001C27.012,9.001,8.62,27.393,8.62,50s18.392,40.999,40.999,40.999S90.618,72.607,90.618,50
	S72.227,9.001,49.619,9.001z M49.619,86.999C29.218,86.999,12.62,70.401,12.62,50s16.598-36.999,36.999-36.999
	S86.618,29.599,86.618,50S70.021,86.999,49.619,86.999z M54.328,21.745c0.376,0.387,0.581,0.908,0.567,1.447l-1.319,41.371
	c-0.028,1.085-0.915,1.949-2,1.949h-3.915c-1.084,0-1.972-0.864-2-1.949l-1.319-41.371c-0.014-0.539,0.191-1.061,0.567-1.447
	c0.376-0.386,0.893-0.604,1.432-0.604h6.554C53.435,21.142,53.952,21.359,54.328,21.745z M54.811,72.003v7.49c0,1.104-0.896,2-2,2
	h-6.384c-1.104,0-2-0.896-2-2v-7.49c0-1.104,0.896-2,2-2h6.384C53.916,70.003,54.811,70.898,54.811,72.003z"/>
</svg>
