<?xml version="1.0" encoding="iso-8859-1"?>
<!-- Generator: Adobe Illustrator 18.0.0, SVG Export Plug-In . SVG Version: 6.00 Build 0)  -->
<!DOCTYPE svg PUBLIC "-//W3C//DTD SVG 1.1//EN" "http://www.w3.org/Graphics/SVG/1.1/DTD/svg11.dtd">
<svg version="1.1" id="Capa_1" xmlns="http://www.w3.org/2000/svg" xmlns:xlink="http://www.w3.org/1999/xlink" x="0px" y="0px"
	 viewBox="0 0 16 16" style="enable-background:new 0 0 16 16;" xml:space="preserve">
<g id="Brightness">
	<g>
		<path style="fill-rule:evenodd;clip-rule:evenodd;" d="M8,2c0.552,0,1-0.448,1-1c0-0.552-0.448-1-1-1C7.448,0,7,0.448,7,1
			C7,1.552,7.448,2,8,2z M3,12c-0.552,0-1,0.448-1,1c0,0.552,0.448,1,1,1c0.552,0,1-0.448,1-1C4,12.448,3.552,12,3,12z M1,7
			C0.448,7,0,7.448,0,8c0,0.552,0.448,1,1,1c0.552,0,1-0.448,1-1C2,7.448,1.552,7,1,7z M3,4c0.552,0,1-0.448,1-1
			c0-0.552-0.448-1-1-1C2.448,2,2,2.448,2,3C2,3.552,2.448,4,3,4z M13,12c-0.552,0-1,0.448-1,1c0,0.552,0.448,1,1,1
			c0.552,0,1-0.448,1-1C14,12.448,13.552,12,13,12z M15,7c-0.552,0-1,0.448-1,1c0,0.552,0.448,1,1,1c0.552,0,1-0.448,1-1
			C16,7.448,15.552,7,15,7z M8,4C5.791,4,4,5.791,4,8c0,2.209,1.791,4,4,4c2.209,0,4-1.791,4-4C12,5.791,10.209,4,8,4z M8,10
			c-1.105,0-2-0.895-2-2c0-1.105,0.895-2,2-2c1.105,0,2,0.895,2,2C10,9.105,9.105,10,8,10z M8,14c-0.552,0-1,0.448-1,1
			c0,0.552,0.448,1,1,1c0.552,0,1-0.448,1-1C9,14.448,8.552,14,8,14z M13,4c0.552,0,1-0.448,1-1c0-0.552-0.448-1-1-1
			c-0.552,0-1,0.448-1,1C12,3.552,12.448,4,13,4z"/>
	</g>
</g>
<g>
</g>
<g>
</g>
<g>
</g>
<g>
</g>
<g>
</g>
<g>
</g>
<g>
</g>
<g>
</g>
<g>
</g>
<g>
</g>
<g>
</g>
<g>
</g>
<g>
</g>
<g>
</g>
<g>
</g>
</svg>
