<?xml version="1.0" encoding="iso-8859-1"?>
<!-- Generator: Adobe Illustrator 18.0.0, SVG Export Plug-In . SVG Version: 6.00 Build 0)  -->
<!DOCTYPE svg PUBLIC "-//W3C//DTD SVG 1.1//EN" "http://www.w3.org/Graphics/SVG/1.1/DTD/svg11.dtd">
<svg version="1.1" id="Capa_1" xmlns="http://www.w3.org/2000/svg" xmlns:xlink="http://www.w3.org/1999/xlink" x="0px" y="0px"
	 viewBox="0 0 22 22" style="enable-background:new 0 0 22 22;" xml:space="preserve">
<path style="fill-rule:evenodd;clip-rule:evenodd;" d="M22,11c0-6.075-4.925-11-11-11S0,4.925,0,11c0,6.075,4.925,11,11,11
	S22,17.075,22,11z M11,1.909c5.021,0,9.091,4.07,9.091,9.091c0,2.347-0.889,4.486-2.349,6.099L4.901,4.258
	C6.514,2.798,8.653,1.909,11,1.909z M1.909,11c0-2.347,0.889-4.486,2.349-6.099l12.841,12.84c-1.613,1.46-3.752,2.349-6.099,2.349
	C5.979,20.091,1.909,16.021,1.909,11z"/>
<g>
</g>
<g>
</g>
<g>
</g>
<g>
</g>
<g>
</g>
<g>
</g>
<g>
</g>
<g>
</g>
<g>
</g>
<g>
</g>
<g>
</g>
<g>
</g>
<g>
</g>
<g>
</g>
<g>
</g>
</svg>
