<?xml version="1.0" encoding="utf-8"?>
<!-- Generator: Adobe Illustrator 16.0.0, SVG Export Plug-In . SVG Version: 6.00 Build 0)  -->
<!DOCTYPE svg PUBLIC "-//W3C//DTD SVG 1.1//EN" "http://www.w3.org/Graphics/SVG/1.1/DTD/svg11.dtd">
<svg version="1.1" id="Layer_2" xmlns="http://www.w3.org/2000/svg" xmlns:xlink="http://www.w3.org/1999/xlink" x="0px" y="0px"
	 width="100px" height="100px" viewBox="0 0 100 100" enable-background="new 0 0 100 100" xml:space="preserve">
<path d="M87.065,48.25L70.048,18.775c-0.625-1.083-1.781-1.75-3.031-1.75H32.983c-1.25,0-2.406,0.667-3.031,1.75L12.935,48.25
	c-0.625,1.083-0.625,2.417,0,3.5l17.017,29.475c0.625,1.083,1.781,1.75,3.031,1.75h34.034c1.25,0,2.406-0.667,3.031-1.75
	L87.065,51.75C87.69,50.667,87.69,49.333,87.065,48.25z M64.996,75.975H35.004L20.008,50l14.996-25.975h29.992L79.992,50
	L64.996,75.975z M35.326,52.977c0,2.437-1.875,4.506-5.865,4.506c-1.661,0-3.298-0.432-4.119-0.884l0.669-2.717
	c0.885,0.453,2.242,0.906,3.644,0.906c1.508,0,2.309-0.625,2.309-1.574c0-0.907-0.691-1.423-2.438-2.05
	c-2.415-0.842-3.989-2.178-3.989-4.291c0-2.479,2.071-4.377,5.499-4.377c1.639,0,2.847,0.346,3.709,0.733l-0.734,2.653
	c-0.581-0.281-1.617-0.691-3.04-0.691c-1.423,0-2.114,0.647-2.114,1.402c0,0.927,0.82,1.335,2.695,2.049
	C34.12,49.591,35.326,50.927,35.326,52.977z M36.453,42.733h11.171v2.759h-3.968v11.774h-3.3V45.492h-3.903V42.733z M55.156,42.496
	c-4.291,0-7.072,3.257-7.072,7.613c0,4.139,2.523,7.395,6.835,7.395c4.247,0,7.138-2.89,7.138-7.655
	C62.057,45.839,59.619,42.496,55.156,42.496z M55.091,54.895c-2.198,0-3.536-2.005-3.536-4.85c0-2.827,1.294-4.939,3.515-4.939
	c2.265,0,3.516,2.243,3.516,4.853C58.585,52.783,57.312,54.895,55.091,54.895z M64.22,57.267h3.256v-5.197
	c0.302,0.045,0.69,0.065,1.123,0.065c1.94,0,3.601-0.475,4.721-1.531c0.865-0.819,1.338-2.025,1.338-3.449
	c0-1.423-0.625-2.631-1.554-3.364c-0.969-0.776-2.414-1.165-4.44-1.165c-2.007,0-3.43,0.131-4.443,0.303V57.267z M67.476,45.234
	c0.237-0.064,0.69-0.129,1.358-0.129c1.639,0,2.566,0.799,2.566,2.134c0,1.489-1.078,2.372-2.825,2.372
	c-0.475,0-0.818-0.021-1.1-0.085V45.234z"/>
</svg>
