<?xml version="1.0" encoding="utf-8"?>
<!-- Generator: Adobe Illustrator 16.0.0, SVG Export Plug-In . SVG Version: 6.00 Build 0)  -->
<!DOCTYPE svg PUBLIC "-//W3C//DTD SVG 1.1//EN" "http://www.w3.org/Graphics/SVG/1.1/DTD/svg11.dtd">
<svg version="1.1" id="Layer_3" xmlns="http://www.w3.org/2000/svg" xmlns:xlink="http://www.w3.org/1999/xlink" x="0px" y="0px"
	 width="100px" height="100px" viewBox="0 0 100 100" enable-background="new 0 0 100 100" xml:space="preserve">
<path d="M83.646,41.457c0,0.134-0.041,0.269-0.127,0.381c-0.171,0.229-0.475,0.314-0.74,0.209l-7.924-3.13h-0.158
	c-0.765,8.919-7.531,13.994-13.036,18.115c-4.934,3.695-7.93,6.172-7.93,9.411h-0.001v14.58c0,0.009,0.001,0.017,0.001,0.024h-0.001
	v8.295h-7.461v-8.317c-0.013-6.232-4.923-9.912-10.123-13.806c-5.05-3.781-10.754-8.066-10.905-15.104h-0.093l-7.924,3.131
	c-0.266,0.105-0.568,0.02-0.741-0.209c-0.172-0.228-0.171-0.542,0.005-0.769l11.967-15.565c0.119-0.157,0.306-0.249,0.503-0.249
	s0.384,0.092,0.503,0.249L41.427,54.27c0.089,0.113,0.132,0.25,0.132,0.387c0,0.135-0.042,0.269-0.127,0.382
	c-0.171,0.229-0.476,0.314-0.741,0.209l-7.924-3.131h-0.063c0.169,3.104,3.124,5.545,7.914,9.132
	c1.832,1.373,3.807,2.851,5.651,4.541V42.952c-0.046-0.088-0.078-0.184-0.078-0.29V24.318l-7.924,3.13
	c-0.266,0.105-0.568,0.02-0.741-0.208c-0.172-0.228-0.171-0.543,0.005-0.77l11.967-15.565c0.119-0.156,0.306-0.248,0.503-0.248
	s0.384,0.092,0.503,0.248L62.47,26.471c0.089,0.114,0.132,0.251,0.132,0.388c0,0.135-0.042,0.269-0.127,0.382
	c-0.171,0.228-0.476,0.313-0.741,0.208l-7.924-3.13v18.344c0,0.107-0.033,0.204-0.08,0.293v10.78
	c1.14-0.934,2.315-1.818,3.459-2.675c4.711-3.527,9.173-6.885,9.981-12.119l-7.859,3.105c-0.266,0.105-0.568,0.02-0.741-0.209
	c-0.172-0.228-0.17-0.542,0.005-0.769l11.967-15.565c0.12-0.156,0.306-0.248,0.503-0.248s0.384,0.092,0.504,0.248l11.967,15.565
	C83.603,41.184,83.646,41.32,83.646,41.457z"/>
</svg>
