<?xml version="1.0" encoding="iso-8859-1"?>
<!-- Generator: Adobe Illustrator 18.0.0, SVG Export Plug-In . SVG Version: 6.00 Build 0)  -->
<!DOCTYPE svg PUBLIC "-//W3C//DTD SVG 1.1//EN" "http://www.w3.org/Graphics/SVG/1.1/DTD/svg11.dtd">
<svg version="1.1" id="Capa_1" xmlns="http://www.w3.org/2000/svg" xmlns:xlink="http://www.w3.org/1999/xlink" x="0px" y="0px"
	 viewBox="0 0 16 16" style="enable-background:new 0 0 16 16;" xml:space="preserve">
<g id="Archieve">
	<g>
		<path style="fill-rule:evenodd;clip-rule:evenodd;" d="M9,4H7v4H4l4,4l4-4H9V4z M14,0H2C0.895,0,0,0.895,0,2v12
			c0,1.105,0.895,2,2,2h12c1.105,0,2-0.895,2-2V2C16,0.895,15.105,0,14,0z M14,10c0,0.552-0.448,1-1,1h-1c-0.865,0-1,1-1,1v1
			c0,0.552-0.448,1-1,1H6c-0.552,0-1-0.448-1-1v-1c0,0-0.006-1-1-1H3c-0.552,0-1-0.448-1-1V3c0-0.552,0.448-1,1-1h10
			c0.552,0,1,0.448,1,1V10z"/>
	</g>
</g>
<g>
</g>
<g>
</g>
<g>
</g>
<g>
</g>
<g>
</g>
<g>
</g>
<g>
</g>
<g>
</g>
<g>
</g>
<g>
</g>
<g>
</g>
<g>
</g>
<g>
</g>
<g>
</g>
<g>
</g>
</svg>
