<?xml version="1.0" encoding="iso-8859-1"?>
<!-- Generator: Adobe Illustrator 18.0.0, SVG Export Plug-In . SVG Version: 6.00 Build 0)  -->
<!DOCTYPE svg PUBLIC "-//W3C//DTD SVG 1.1//EN" "http://www.w3.org/Graphics/SVG/1.1/DTD/svg11.dtd">
<svg version="1.1" id="Capa_1" xmlns="http://www.w3.org/2000/svg" xmlns:xlink="http://www.w3.org/1999/xlink" x="0px" y="0px"
	 viewBox="0 0 22 20" style="enable-background:new 0 0 22 20;" xml:space="preserve">
<g>
	<path style="fill-rule:evenodd;clip-rule:evenodd;" d="M0,10.014c0,1.985,1.486,3.632,3.438,3.95l0.688,0.055h3.832v-0.993H4.173
		L3.717,12.99c-1.318-0.21-2.774-1.773-2.774-3.051c0-0.998,0.851-2.598,2.495-3.166L3.107,5.909
		C3.03,5.743,2.991,5.566,2.991,5.382c0-0.718,0.726-1.785,1.865-1.785c0.391,0,0.849,0.195,1.111,0.472l1.075,0.747l0.914-1.219
		c1.035-1.543,2.781-2.604,4.75-2.604c2.777,0,5.518,2.647,5.562,5.293v0.938l0.967,0.259c1.09,0.367,1.821,1.354,1.821,2.456
		c0,1.277-1.308,2.877-2.626,3.087h-0.605h-3.758v0.993h3.806l0.688-0.055C20.514,13.646,22,11.999,22,10.014
		c0-1.744-1.148-3.229-2.751-3.778C19.191,2.782,16.289,0,12.719,0c-2.575,0-4.802,1.447-5.866,3.55
		C6.35,3.01,5.622,2.67,4.812,2.67c-1.519,0-2.75,1.196-2.75,2.67c0,0.385,0.084,0.751,0.234,1.081C0.936,7.076,0,8.439,0,10.014z"
		/>
	<polygon style="fill-rule:evenodd;clip-rule:evenodd;" points="10.502,6 10.502,18.75 6,16 6,17 11,20 16,17 16,16 11.5,18.75 
		11.5,6 	"/>
</g>
<g>
</g>
<g>
</g>
<g>
</g>
<g>
</g>
<g>
</g>
<g>
</g>
<g>
</g>
<g>
</g>
<g>
</g>
<g>
</g>
<g>
</g>
<g>
</g>
<g>
</g>
<g>
</g>
<g>
</g>
</svg>
