<?xml version="1.0" encoding="iso-8859-1"?>
<!-- Generator: Adobe Illustrator 18.0.0, SVG Export Plug-In . SVG Version: 6.00 Build 0)  -->
<!DOCTYPE svg PUBLIC "-//W3C//DTD SVG 1.1//EN" "http://www.w3.org/Graphics/SVG/1.1/DTD/svg11.dtd">
<svg version="1.1" id="Capa_1" xmlns="http://www.w3.org/2000/svg" xmlns:xlink="http://www.w3.org/1999/xlink" x="0px" y="0px"
	 viewBox="0 0 16 16" style="enable-background:new 0 0 16 16;" xml:space="preserve">
<g id="Briefcase">
	<g>
		<path style="fill-rule:evenodd;clip-rule:evenodd;" d="M14,3h-3V2c0-1.105-0.895-2-2-2H7C5.895,0,5,0.895,5,2v1H2
			C0.895,3,0,3.895,0,5v9c0,1.105,0.895,2,2,2h12c1.105,0,2-0.895,2-2V5C16,3.895,15.105,3,14,3z M7,2.5C7,2.224,7.224,2,7.5,2h1
			C8.776,2,9,2.224,9,2.5V3H7V2.5z M14,13c0,0.552-0.448,1-1,1H3c-0.552,0-1-0.448-1-1v-3h4c0,0.552,0.448,1,1,1h2
			c0.552,0,1-0.448,1-1h4V13z M14,9h-4c0-0.552-0.448-1-1-1H7C6.448,8,6,8.448,6,9H2V6c0-0.552,0.448-1,1-1h10c0.552,0,1,0.448,1,1
			V9z"/>
	</g>
</g>
<g>
</g>
<g>
</g>
<g>
</g>
<g>
</g>
<g>
</g>
<g>
</g>
<g>
</g>
<g>
</g>
<g>
</g>
<g>
</g>
<g>
</g>
<g>
</g>
<g>
</g>
<g>
</g>
<g>
</g>
</svg>
