<?xml version="1.0" encoding="iso-8859-1"?>
<!-- Generator: Adobe Illustrator 18.0.0, SVG Export Plug-In . SVG Version: 6.00 Build 0)  -->
<!DOCTYPE svg PUBLIC "-//W3C//DTD SVG 1.1//EN" "http://www.w3.org/Graphics/SVG/1.1/DTD/svg11.dtd">
<svg version="1.1" id="Capa_1" xmlns="http://www.w3.org/2000/svg" xmlns:xlink="http://www.w3.org/1999/xlink" x="0px" y="0px"
	 viewBox="0 0 23.534 24" style="enable-background:new 0 0 23.534 24;" xml:space="preserve">
<g>
	<path style="fill-rule:evenodd;clip-rule:evenodd;" d="M11,0H2c0,0-2,0-2,2.003v18.028c0,2.003,2,2.003,2,2.003h9c0,0,2,0,2-2.003
		V2.003C13,0,11,0,11,0z M4,1.221C4,1.097,4.099,1,4.221,1h4.557C8.9,1,9,1.099,9,1.221V1.28c0,0.125-0.099,0.221-0.221,0.221H4.221
		C4.1,1.501,4,1.402,4,1.28V1.221z M6.5,21.2c-0.552,0-1-0.448-1-1c0-0.552,0.448-1,1-1s1,0.448,1,1C7.5,20.752,7.052,21.2,6.5,21.2
		z M12,18.5H1v-16h11V18.5z"/>
	<path style="fill-rule:evenodd;clip-rule:evenodd;" d="M9,23H1.75c0.25,0.5,0.751,1,1.753,1h18.028c2.003,0,2.003-2,2.003-2v-9
		c0,0,0-2-2.003-2H14v1h6v11H9z M21.7,16.5c0.552,0,1,0.448,1,1c0,0.552-0.448,1-1,1c-0.552,0-1-0.448-1-1
		C20.7,16.948,21.148,16.5,21.7,16.5z"/>
</g>
<g>
</g>
<g>
</g>
<g>
</g>
<g>
</g>
<g>
</g>
<g>
</g>
<g>
</g>
<g>
</g>
<g>
</g>
<g>
</g>
<g>
</g>
<g>
</g>
<g>
</g>
<g>
</g>
<g>
</g>
</svg>
