<?xml version="1.0" encoding="iso-8859-1"?>
<!-- Generator: Adobe Illustrator 18.0.0, SVG Export Plug-In . SVG Version: 6.00 Build 0)  -->
<!DOCTYPE svg PUBLIC "-//W3C//DTD SVG 1.1//EN" "http://www.w3.org/Graphics/SVG/1.1/DTD/svg11.dtd">
<svg version="1.1" id="Capa_1" xmlns="http://www.w3.org/2000/svg" xmlns:xlink="http://www.w3.org/1999/xlink" x="0px" y="0px"
	 viewBox="0 0 22 15.756" style="enable-background:new 0 0 22 15.756;" xml:space="preserve">
<g>
	<path style="fill-rule:evenodd;clip-rule:evenodd;" d="M17.021,12.756l1.488-1.746H19.5C22,11.01,22,8.5,22,8.5v-6
		c0,0,0-2.5-2.5-2.5h-10C7,0,7,2.498,7,2.498L12.673,2.5c2.815,0,2.815,2.806,2.815,2.806v5.704L17.021,12.756z"/>
	<path style="fill-rule:evenodd;clip-rule:evenodd;" d="M0,5.498V11.5c0,0,0,2.51,2.5,2.51h0.515l1.763,1.746l1.726-1.746H12.5
		c2.5,0,2.5-2.51,2.5-2.51v-6c0,0,0-2.5-2.5-2.5h-10C0,3,0,5.498,0,5.498z"/>
</g>
<g>
</g>
<g>
</g>
<g>
</g>
<g>
</g>
<g>
</g>
<g>
</g>
<g>
</g>
<g>
</g>
<g>
</g>
<g>
</g>
<g>
</g>
<g>
</g>
<g>
</g>
<g>
</g>
<g>
</g>
</svg>
