<?xml version="1.0" encoding="iso-8859-1"?>
<!-- Generator: Adobe Illustrator 18.0.0, SVG Export Plug-In . SVG Version: 6.00 Build 0)  -->
<!DOCTYPE svg PUBLIC "-//W3C//DTD SVG 1.1//EN" "http://www.w3.org/Graphics/SVG/1.1/DTD/svg11.dtd">
<svg version="1.1" id="Capa_1" xmlns="http://www.w3.org/2000/svg" xmlns:xlink="http://www.w3.org/1999/xlink" x="0px" y="0px"
	 viewBox="0 0 16 16" style="enable-background:new 0 0 16 16;" xml:space="preserve">
<g id="Gallery">
	<g>
		<path style="fill-rule:evenodd;clip-rule:evenodd;" d="M14,0H8C6.895,0,6,0.895,6,2v6c0,1.105,0.895,2,2,2h6c1.105,0,2-0.895,2-2
			V2C16,0.895,15.105,0,14,0z M14,7c0,0.552-0.448,1-1,1H9C8.448,8,8,7.552,8,7V3c0-0.552,0.448-1,1-1h4c0.552,0,1,0.448,1,1V7z
			 M8,13c0,0.552-0.448,1-1,1H3c-0.552,0-1-0.448-1-1V9c0-0.552,0.448-1,1-1h1V6H2C0.895,6,0,6.895,0,8v6c0,1.105,0.895,2,2,2h6
			c1.105,0,2-0.895,2-2v-2H8V13z"/>
	</g>
</g>
<g>
</g>
<g>
</g>
<g>
</g>
<g>
</g>
<g>
</g>
<g>
</g>
<g>
</g>
<g>
</g>
<g>
</g>
<g>
</g>
<g>
</g>
<g>
</g>
<g>
</g>
<g>
</g>
<g>
</g>
</svg>
