<?xml version="1.0" encoding="iso-8859-1"?>
<!-- Generator: Adobe Illustrator 18.0.0, SVG Export Plug-In . SVG Version: 6.00 Build 0)  -->
<!DOCTYPE svg PUBLIC "-//W3C//DTD SVG 1.1//EN" "http://www.w3.org/Graphics/SVG/1.1/DTD/svg11.dtd">
<svg version="1.1" id="Capa_1" xmlns="http://www.w3.org/2000/svg" xmlns:xlink="http://www.w3.org/1999/xlink" x="0px" y="0px"
	 viewBox="0 0 24 20.344" style="enable-background:new 0 0 24 20.344;" xml:space="preserve">
<g>
	<path style="fill-rule:evenodd;clip-rule:evenodd;" d="M10.059,16.688c1.31,2.19,3.704,3.656,6.441,3.656
		c4.142,0,7.5-3.358,7.5-7.5c0-4.142-3.358-7.5-7.5-7.5c-1.015,0-1.982,0.202-2.865,0.567l6.147,10.647
		c0.042,0.072,0.01,0.13-0.07,0.13H10.059z"/>
	<path style="fill-rule:evenodd;clip-rule:evenodd;" d="M8.933,0.049L0.017,15.497c-0.038,0.067-0.009,0.117,0.062,0.117h17.841
		c0.072,0,0.1-0.052,0.063-0.117L9.068,0.049C9.03-0.017,8.97-0.016,8.933,0.049z"/>
</g>
<g>
</g>
<g>
</g>
<g>
</g>
<g>
</g>
<g>
</g>
<g>
</g>
<g>
</g>
<g>
</g>
<g>
</g>
<g>
</g>
<g>
</g>
<g>
</g>
<g>
</g>
<g>
</g>
<g>
</g>
</svg>
