<?xml version="1.0" encoding="iso-8859-1"?>
<!-- Generator: Adobe Illustrator 18.0.0, SVG Export Plug-In . SVG Version: 6.00 Build 0)  -->
<!DOCTYPE svg PUBLIC "-//W3C//DTD SVG 1.1//EN" "http://www.w3.org/Graphics/SVG/1.1/DTD/svg11.dtd">
<svg version="1.1" id="Capa_1" xmlns="http://www.w3.org/2000/svg" xmlns:xlink="http://www.w3.org/1999/xlink" x="0px" y="0px"
	 viewBox="0 0 14.299 24" style="enable-background:new 0 0 14.299 24;" xml:space="preserve">
<g>
	<path style="fill-rule:evenodd;clip-rule:evenodd;" d="M14.158,6.5C14.664,2.457,13.651,0,13.651,0H9.648h-4
		c0,0-0.218,0.529-0.401,1.5h1.067c0.011-0.054,0.023-0.107,0.034-0.16C6.368,1.252,6.474,1,6.474,1h3.147h0.102h3.147
		c0,0,0.106,0.252,0.126,0.34c0.31,1.398,0.41,3.092,0.166,5.036c-0.174,1.388-0.635,2.261-1.627,3.422
		c-0.092,0.108-0.496,0.57-0.602,0.695c-0.621,0.728-1.04,1.356-1.232,2.04c-0.158-0.437-0.387-0.852-0.694-1.284
		c-0.191,0.343-0.403,0.655-0.625,0.946c0.285,0.484,0.486,1.024,0.536,1.691V20c0,0,0,0.476-0.411,0.654
		c-0.411,0.178-2.824,0.371-2.824,0.861S7.723,22,9.632,22s3.95,0.005,3.95-0.485s-2.413-0.683-2.824-0.861S10.348,20,10.348,20
		l0.027-6C10.52,11,13.651,10.543,14.158,6.5z"/>
	<path style="fill-rule:evenodd;clip-rule:evenodd;" d="M0.648,2c0,0-1.013,2.457-0.506,6.5c0.5,3.991,3.557,4.488,3.775,7.385V22
		c0,0,0,0.476-0.411,0.654c-0.411,0.178-2.824,0.371-2.824,0.861S2.723,24,4.632,24s3.95,0.005,3.95-0.485s-2.413-0.683-2.824-0.861
		S5.348,22,5.348,22l0.027-6c0.145-3,3.276-3.457,3.782-7.5C9.664,4.457,8.651,2,8.651,2H4.648H0.648z M7.869,3
		c0,0,0.106,0.252,0.126,0.34c0.31,1.398,0.41,3.092,0.166,5.036c-0.174,1.388-0.635,2.261-1.627,3.422
		c-0.092,0.108-0.496,0.57-0.602,0.695c-0.621,0.728-1.04,1.356-1.232,2.04c-0.248-0.684-0.667-1.311-1.288-2.04
		c-0.107-0.125-0.51-0.588-0.602-0.695c-0.992-1.161-1.453-2.034-1.627-3.422C0.939,6.432,1.038,4.738,1.348,3.34
		C1.368,3.252,1.474,3,1.474,3h3.147h0.102H7.869z"/>
</g>
<g>
</g>
<g>
</g>
<g>
</g>
<g>
</g>
<g>
</g>
<g>
</g>
<g>
</g>
<g>
</g>
<g>
</g>
<g>
</g>
<g>
</g>
<g>
</g>
<g>
</g>
<g>
</g>
<g>
</g>
</svg>
