<?xml version="1.0" encoding="iso-8859-1"?>
<!-- Generator: Adobe Illustrator 18.0.0, SVG Export Plug-In . SVG Version: 6.00 Build 0)  -->
<!DOCTYPE svg PUBLIC "-//W3C//DTD SVG 1.1//EN" "http://www.w3.org/Graphics/SVG/1.1/DTD/svg11.dtd">
<svg version="1.1" id="Capa_1" xmlns="http://www.w3.org/2000/svg" xmlns:xlink="http://www.w3.org/1999/xlink" x="0px" y="0px"
	 viewBox="0 0 22 21" style="enable-background:new 0 0 22 21;" xml:space="preserve">
<g>
	<path style="fill-rule:evenodd;clip-rule:evenodd;" d="M11,5c1.381,0,2.5-1.119,2.5-2.5C13.5,1.119,12.381,0,11,0
		C9.619,0,8.5,1.119,8.5,2.5C8.5,3.881,9.619,5,11,5z M11,1c0.828,0,1.5,0.672,1.5,1.5S11.828,4,11,4S9.5,3.328,9.5,2.5
		S10.172,1,11,1z"/>
	<path style="fill-rule:evenodd;clip-rule:evenodd;" d="M2.5,5C3.881,5,5,3.881,5,2.5C5,1.119,3.881,0,2.5,0C1.119,0,0,1.119,0,2.5
		C0,3.881,1.119,5,2.5,5z M2.5,1C3.328,1,4,1.672,4,2.5S3.328,4,2.5,4S1,3.328,1,2.5S1.672,1,2.5,1z"/>
	<path style="fill-rule:evenodd;clip-rule:evenodd;" d="M19.5,21c1.381,0,2.5-1.119,2.5-2.5c0-1.381-1.119-2.5-2.5-2.5
		c-1.381,0-2.5,1.119-2.5,2.5C17,19.881,18.119,21,19.5,21z M19.5,17c0.828,0,1.5,0.672,1.5,1.5S20.328,20,19.5,20
		S18,19.328,18,18.5S18.672,17,19.5,17z"/>
	<path style="fill-rule:evenodd;clip-rule:evenodd;" d="M2.5,13C3.881,13,5,11.881,5,10.5C5,9.119,3.881,8,2.5,8
		C1.119,8,0,9.119,0,10.5C0,11.881,1.119,13,2.5,13z M2.5,9C3.328,9,4,9.672,4,10.5S3.328,12,2.5,12S1,11.328,1,10.5S1.672,9,2.5,9z
		"/>
	<path style="fill-rule:evenodd;clip-rule:evenodd;" d="M19.5,5C20.881,5,22,3.881,22,2.5C22,1.119,20.881,0,19.5,0
		C18.119,0,17,1.119,17,2.5C17,3.881,18.119,5,19.5,5z M19.5,1C20.328,1,21,1.672,21,2.5S20.328,4,19.5,4S18,3.328,18,2.5
		S18.672,1,19.5,1z"/>
	<path style="fill-rule:evenodd;clip-rule:evenodd;" d="M11,13c1.381,0,2.5-1.119,2.5-2.5C13.5,9.119,12.381,8,11,8
		c-1.381,0-2.5,1.119-2.5,2.5C8.5,11.881,9.619,13,11,13z M11,9c0.828,0,1.5,0.672,1.5,1.5S11.828,12,11,12s-1.5-0.672-1.5-1.5
		S10.172,9,11,9z"/>
	<path style="fill-rule:evenodd;clip-rule:evenodd;" d="M19.5,13c1.381,0,2.5-1.119,2.5-2.5C22,9.119,20.881,8,19.5,8
		C18.119,8,17,9.119,17,10.5C17,11.881,18.119,13,19.5,13z M19.5,9c0.828,0,1.5,0.672,1.5,1.5S20.328,12,19.5,12S18,11.328,18,10.5
		S18.672,9,19.5,9z"/>
	<path style="fill-rule:evenodd;clip-rule:evenodd;" d="M11,21c1.381,0,2.5-1.119,2.5-2.5c0-1.381-1.119-2.5-2.5-2.5
		c-1.381,0-2.5,1.119-2.5,2.5C8.5,19.881,9.619,21,11,21z M11,17c0.828,0,1.5,0.672,1.5,1.5S11.828,20,11,20s-1.5-0.672-1.5-1.5
		S10.172,17,11,17z"/>
	<path style="fill-rule:evenodd;clip-rule:evenodd;" d="M2.5,21C3.881,21,5,19.881,5,18.5C5,17.119,3.881,16,2.5,16
		C1.119,16,0,17.119,0,18.5C0,19.881,1.119,21,2.5,21z M2.5,17C3.328,17,4,17.672,4,18.5S3.328,20,2.5,20S1,19.328,1,18.5
		S1.672,17,2.5,17z"/>
</g>
<g>
</g>
<g>
</g>
<g>
</g>
<g>
</g>
<g>
</g>
<g>
</g>
<g>
</g>
<g>
</g>
<g>
</g>
<g>
</g>
<g>
</g>
<g>
</g>
<g>
</g>
<g>
</g>
<g>
</g>
</svg>
