<?xml version="1.0" encoding="utf-8"?>
<!-- Generator: Adobe Illustrator 16.0.0, SVG Export Plug-In . SVG Version: 6.00 Build 0)  -->
<!DOCTYPE svg PUBLIC "-//W3C//DTD SVG 1.1//EN" "http://www.w3.org/Graphics/SVG/1.1/DTD/svg11.dtd">
<svg version="1.1" id="Layer_2" xmlns="http://www.w3.org/2000/svg" xmlns:xlink="http://www.w3.org/1999/xlink" x="0px" y="0px"
	 width="100px" height="100px" viewBox="0 0 100 100" enable-background="new 0 0 100 100" xml:space="preserve">
<path d="M71.102,70.861c0.182,0.348,0.146,0.768-0.094,1.078c-0.088,0.116-0.201,0.208-0.326,0.272
	c-0.209,0.11-0.455,0.145-0.691,0.089l-20.395-4.744l-7.662,19.482c-0.143,0.365-0.485,0.612-0.877,0.633
	c-0.391,0.021-0.758-0.187-0.941-0.532L11.748,33.136c-0.256-0.489-0.068-1.093,0.421-1.35l29.215-15.348
	c0.489-0.256,1.094-0.068,1.351,0.421L71.102,70.861z M89.334,75.852L73.625,16.909c-0.143-0.534-0.689-0.851-1.224-0.708
	l-22.727,6.057l23.92,45.674c0.393,0.75,0.567,1.572,0.556,2.389l13.78,6.688c0.22,0.107,0.467,0.128,0.695,0.067
	c0.135-0.037,0.265-0.102,0.378-0.195C89.306,76.632,89.435,76.23,89.334,75.852z M55.515,84.865
	c0.101,0.379,0.413,0.662,0.799,0.729c0.386,0.068,0.774-0.098,0.994-0.423l7.378-10.833l-12.773-2.989L55.515,84.865z"/>
</svg>
