<?xml version="1.0" encoding="iso-8859-1"?>
<!-- Generator: Adobe Illustrator 18.0.0, SVG Export Plug-In . SVG Version: 6.00 Build 0)  -->
<!DOCTYPE svg PUBLIC "-//W3C//DTD SVG 1.1//EN" "http://www.w3.org/Graphics/SVG/1.1/DTD/svg11.dtd">
<svg version="1.1" id="Capa_1" xmlns="http://www.w3.org/2000/svg" xmlns:xlink="http://www.w3.org/1999/xlink" x="0px" y="0px"
	 viewBox="0 0 22 21" style="enable-background:new 0 0 22 21;" xml:space="preserve">
<g>
	<path style="fill-rule:evenodd;clip-rule:evenodd;" d="M17,3.001V0.999C17,0.447,16.551,0,16,0c-0.552,0-1,0.447-1,0.999v2.002
		C15,3.553,15.449,4,16,4C16.552,4,17,3.553,17,3.001z"/>
	<rect x="2" y="6" style="fill-rule:evenodd;clip-rule:evenodd;" width="18" height="1"/>
	<path style="fill-rule:evenodd;clip-rule:evenodd;" d="M6.25,4C6.664,4,7,3.666,7,3.248V0.752C7,0.337,6.665,0,6.25,0H5.75
		C5.336,0,5,0.334,5,0.752v2.495C5,3.663,5.335,4,5.75,4H6.25z"/>
	<rect x="8" y="2" style="fill-rule:evenodd;clip-rule:evenodd;" width="6" height="1"/>
	<path style="fill-rule:evenodd;clip-rule:evenodd;" d="M9,18v-8H8.195c-0.144,0.543-0.361,0.888-0.652,1.033
		C7.251,11.179,6.737,11.283,6,11.345v0.677h2.025V18H9z"/>
	<path style="fill-rule:evenodd;clip-rule:evenodd;" d="M0,20c0,1,1.1,1,1.1,1H21c0,0,1,0,1-1V2h-4v1h3v17H1V3h3V2H0V20z"/>
	<path style="fill-rule:evenodd;clip-rule:evenodd;" d="M15.437,11.092C15.255,10.73,15.351,10.922,15.437,11.092L15.437,11.092z"/>
	<path style="fill-rule:evenodd;clip-rule:evenodd;" d="M13.48,10c-1.042,0-1.763,0.591-2.161,1.773
		C11.106,12.407,11,13.167,11,14.052c0,1.142,0.177,2.052,0.531,2.73C11.956,17.594,12.604,18,13.475,18
		c0.965,0,1.66-0.497,2.085-1.49c0.293-0.693,0.44-1.568,0.44-2.627c0-1.117-0.162-1.996-0.486-2.638
		C15.096,10.415,14.418,10,13.48,10z M14.584,16.35C14.307,16.783,13.935,17,13.467,17c-0.581,0-0.992-0.355-1.232-1.064
		C12.078,15.472,12,14.857,12,14.092c0-1.017,0.123-1.786,0.368-2.308C12.614,11.261,13.002,11,13.532,11
		c0.578,0,0.967,0.275,1.167,0.825c0.2,0.55,0.3,1.252,0.3,2.104C15,15.11,14.861,15.917,14.584,16.35z"/>
</g>
<g>
</g>
<g>
</g>
<g>
</g>
<g>
</g>
<g>
</g>
<g>
</g>
<g>
</g>
<g>
</g>
<g>
</g>
<g>
</g>
<g>
</g>
<g>
</g>
<g>
</g>
<g>
</g>
<g>
</g>
</svg>
