<?xml version="1.0" encoding="iso-8859-1"?>
<!-- Generator: Adobe Illustrator 18.0.0, SVG Export Plug-In . SVG Version: 6.00 Build 0)  -->
<!DOCTYPE svg PUBLIC "-//W3C//DTD SVG 1.1//EN" "http://www.w3.org/Graphics/SVG/1.1/DTD/svg11.dtd">
<svg version="1.1" id="Capa_1" xmlns="http://www.w3.org/2000/svg" xmlns:xlink="http://www.w3.org/1999/xlink" x="0px" y="0px"
	 viewBox="0 0 21 21" style="enable-background:new 0 0 21 21;" xml:space="preserve">
<g>
	<polygon style="fill-rule:evenodd;clip-rule:evenodd;" points="8.018,2 8.013,3 12.92,3 12.926,2 	"/>
	<path style="fill-rule:evenodd;clip-rule:evenodd;" d="M16,3.001V0.999C16,0.447,15.551,0,15,0c-0.552,0-1,0.447-1,0.999v2.002
		C14,3.553,14.449,4,15,4C15.552,4,16,3.553,16,3.001z"/>
	<path style="fill-rule:evenodd;clip-rule:evenodd;" d="M6.25,4C6.664,4,7,3.666,7,3.248V0.752C7,0.337,6.665,0,6.25,0H5.75
		C5.336,0,5,0.334,5,0.752v2.495C5,3.663,5.335,4,5.75,4H6.25z"/>
	<path style="fill-rule:evenodd;clip-rule:evenodd;" d="M3.97,3l0.005-1H0.629C0.281,2,0,2.291,0,2.649v17.703
		C0,20.71,0.281,21,0.628,21h19.743C20.719,21,21,20.709,21,20.352V2.649C21,2.29,20.718,2,20.371,2h-3.364l-0.005,1H20v5H1V3H3.97z
		 M4,20H1.43C1.192,20,1,19.833,1,19.626V17h3V20z M4,16H1v-3h3V16z M17,9h3v3h-3V9z M17,13h3v3h-3V13z M17,17h3v2.626
		C20,19.832,19.807,20,19.57,20H17V17z M13,9h3v3h-3V9z M13,13h3v3h-3V13z M13,17h3v3h-3V17z M9,9h3v3H9V9z M9,17h3v3H9V17z M5,9h3
		v3H5V9z M5,13h3v3H5V13z M5,17h3v3H5V17z M4,9v3H1V9H4z"/>
</g>
<g>
</g>
<g>
</g>
<g>
</g>
<g>
</g>
<g>
</g>
<g>
</g>
<g>
</g>
<g>
</g>
<g>
</g>
<g>
</g>
<g>
</g>
<g>
</g>
<g>
</g>
<g>
</g>
<g>
</g>
</svg>
