<?xml version="1.0" encoding="iso-8859-1"?>
<!-- Generator: Adobe Illustrator 18.0.0, SVG Export Plug-In . SVG Version: 6.00 Build 0)  -->
<!DOCTYPE svg PUBLIC "-//W3C//DTD SVG 1.1//EN" "http://www.w3.org/Graphics/SVG/1.1/DTD/svg11.dtd">
<svg version="1.1" id="Capa_1" xmlns="http://www.w3.org/2000/svg" xmlns:xlink="http://www.w3.org/1999/xlink" x="0px" y="0px"
	 viewBox="0 0 21 21" style="enable-background:new 0 0 21 21;" xml:space="preserve">
<g>
	<path style="fill-rule:evenodd;clip-rule:evenodd;" d="M16,3.001V0.999C16,0.447,15.551,0,15,0c-0.552,0-1,0.447-1,0.999v2.002
		C14,3.553,14.449,4,15,4C15.552,4,16,3.553,16,3.001z"/>
	<path style="fill-rule:evenodd;clip-rule:evenodd;" d="M6.25,4C6.664,4,7,3.666,7,3.248V0.752C7,0.337,6.665,0,6.25,0H5.75
		C5.336,0,5,0.334,5,0.752v2.495C5,3.663,5.335,4,5.75,4H6.25z"/>
	<path style="fill-rule:evenodd;clip-rule:evenodd;" d="M0.629,2C0.281,2,0,2.291,0,2.648v17.703C0,20.71,0.281,21,0.628,21h19.743
		C20.719,21,21,20.709,21,20.351V2.648C21,2.29,20.718,2,20.371,2H17v1.871C17,4.499,16.328,5,15.499,5h-0.998
		C13.669,5,13,4.495,13,3.871V2H8v1.871C8,4.499,7.328,5,6.499,5H5.501C4.669,5,4,4.495,4,3.871V2H0.629z M17,9h3v3h-3V9z M17,13h3
		v3h-3V13z M17,17h3v2.626C20,19.832,19.808,20,19.57,20H17V17z M13,9h3v3h-3V9z M13,13h3v3h-3V13z M13,17h3v3h-3V17z M9,9h3v3H9V9z
		 M9,17h3v3H9V17z M5,9h3v3H5V9z M5,13h3v3H5V13z M5,17h3v3H5V17z M4,20H1.43C1.192,20,1,19.833,1,19.626V17h3V20z M4,16H1v-3h3V16z
		 M4,12H1V9h3V12z"/>
</g>
<g>
</g>
<g>
</g>
<g>
</g>
<g>
</g>
<g>
</g>
<g>
</g>
<g>
</g>
<g>
</g>
<g>
</g>
<g>
</g>
<g>
</g>
<g>
</g>
<g>
</g>
<g>
</g>
<g>
</g>
</svg>
