<?xml version="1.0" encoding="iso-8859-1"?>
<!-- Generator: Adobe Illustrator 18.0.0, SVG Export Plug-In . SVG Version: 6.00 Build 0)  -->
<!DOCTYPE svg PUBLIC "-//W3C//DTD SVG 1.1//EN" "http://www.w3.org/Graphics/SVG/1.1/DTD/svg11.dtd">
<svg version="1.1" id="Capa_1" xmlns="http://www.w3.org/2000/svg" xmlns:xlink="http://www.w3.org/1999/xlink" x="0px" y="0px"
	 viewBox="0 0 16 12" style="enable-background:new 0 0 16 12;" xml:space="preserve">
<g id="Rectangle_3">
	<g>
		<path style="fill-rule:evenodd;clip-rule:evenodd;" d="M11.87,3.037C11.437,1.296,9.875,0,8,0C6.504,0,5.215,0.831,4.529,2.047
			C1.992,2.288,0,4.4,0,7c0,2.166,1.386,3.993,3.313,4.687L3,12h9v-0.05c2.247-0.252,4-2.136,4-4.45
			C16,5.142,14.179,3.229,11.87,3.037z M12,9.95V10H6V9.816C5.686,9.928,5.353,10,5,10c-1.657,0-3-1.343-3-3s1.343-3,3-3
			c0.353,0,0.686,0.072,1,0.184V4c0-0.876,0.411-1.356,0.859-1.633C6.857,2.366,6.856,2.365,6.854,2.364
			c0.01-0.007,0.023-0.01,0.033-0.017c0.107-0.064,0.21-0.116,0.315-0.158c0.124-0.056,0.253-0.096,0.389-0.125C7.827,2.011,8,2,8,2
			c0.194,0,0.379,0.036,0.556,0.088c0.037,0.011,0.072,0.021,0.108,0.033c0.175,0.062,0.339,0.142,0.487,0.247
			c0.003,0.002,0.006,0.005,0.009,0.008C9.317,2.488,9.452,2.624,9.57,2.774c0.006,0.007,0.012,0.014,0.018,0.021
			c0.12,0.157,0.215,0.331,0.284,0.52C9.951,3.53,10,3.758,10,4c0,0.969,1,1,1,1l0.046,0.046C11.194,5.019,11.344,5,11.5,5
			C12.881,5,14,6.119,14,7.5C14,8.709,13.141,9.718,12,9.95z"/>
	</g>
</g>
<g>
</g>
<g>
</g>
<g>
</g>
<g>
</g>
<g>
</g>
<g>
</g>
<g>
</g>
<g>
</g>
<g>
</g>
<g>
</g>
<g>
</g>
<g>
</g>
<g>
</g>
<g>
</g>
<g>
</g>
</svg>
