<?xml version="1.0" encoding="utf-8"?>
<!-- Generator: Adobe Illustrator 16.0.0, SVG Export Plug-In . SVG Version: 6.00 Build 0)  -->
<!DOCTYPE svg PUBLIC "-//W3C//DTD SVG 1.1//EN" "http://www.w3.org/Graphics/SVG/1.1/DTD/svg11.dtd">
<svg version="1.1" id="Layer_3" xmlns="http://www.w3.org/2000/svg" xmlns:xlink="http://www.w3.org/1999/xlink" x="0px" y="0px"
	 width="100px" height="100px" viewBox="0 0 100 100" enable-background="new 0 0 100 100" xml:space="preserve">
<path d="M90.366,52.07c0,0.256-0.119,0.498-0.322,0.654l-20.237,15.56c-0.148,0.114-0.326,0.171-0.503,0.171
	c-0.175,0-0.35-0.056-0.497-0.166c-0.296-0.224-0.407-0.618-0.271-0.963l4.07-10.302H54.953v17.651l10.302-4.07
	c0.345-0.136,0.739-0.025,0.963,0.271c0.224,0.296,0.222,0.705-0.005,1L50.654,92.114c-0.156,0.204-0.398,0.323-0.654,0.322
	c-0.256,0-0.498-0.119-0.654-0.322l-15.56-20.237c-0.114-0.148-0.171-0.326-0.171-0.503c0-0.175,0.056-0.35,0.166-0.497
	c0.224-0.296,0.618-0.407,0.963-0.271l10.302,4.07V57.023H27.395l4.07,10.302c0.136,0.345,0.025,0.739-0.271,0.963
	c-0.296,0.224-0.705,0.222-1-0.005L9.956,52.725c-0.204-0.156-0.323-0.398-0.322-0.654c0-0.256,0.119-0.498,0.322-0.654
	l20.237-15.56c0.148-0.114,0.326-0.171,0.503-0.171c0.175,0,0.35,0.056,0.497,0.166c0.296,0.224,0.407,0.618,0.271,0.963
	l-4.07,10.302h17.652V29.465l-10.302,4.07c-0.345,0.136-0.739,0.025-0.963-0.271c-0.224-0.296-0.222-0.705,0.005-1l15.559-20.237
	c0.156-0.204,0.398-0.323,0.654-0.322c0.256,0,0.498,0.119,0.654,0.322l15.56,20.237c0.114,0.148,0.171,0.326,0.171,0.503
	c0,0.175-0.056,0.35-0.166,0.497c-0.224,0.296-0.618,0.407-0.963,0.271l-10.302-4.07v17.652h17.651l-4.07-10.302
	c-0.136-0.345-0.025-0.739,0.271-0.963c0.296-0.224,0.705-0.222,1,0.005l20.237,15.559C90.248,51.572,90.367,51.814,90.366,52.07z"
	/>
</svg>
