<?xml version="1.0" encoding="utf-8"?>
<!-- Generator: Adobe Illustrator 16.0.0, SVG Export Plug-In . SVG Version: 6.00 Build 0)  -->
<!DOCTYPE svg PUBLIC "-//W3C//DTD SVG 1.1//EN" "http://www.w3.org/Graphics/SVG/1.1/DTD/svg11.dtd">
<svg version="1.1" id="Layer_3" xmlns="http://www.w3.org/2000/svg" xmlns:xlink="http://www.w3.org/1999/xlink" x="0px" y="0px"
	 width="100px" height="100px" viewBox="0 0 100 100" enable-background="new 0 0 100 100" xml:space="preserve">
<path d="M33.175,7.351v86.708h33.649V7.351H33.175z M64.086,91.321H35.914V10.089h28.172V91.321z M62.039,12.066H37.932v76.973
	h24.107V12.066z M49.985,14.918c5.482,0,9.926,4.444,9.926,9.926s-4.444,9.926-9.926,9.926c-5.481,0-9.926-4.444-9.926-9.926
	S44.503,14.918,49.985,14.918z M49.985,37.433c5.482,0,9.926,4.444,9.926,9.926c0,5.481-4.444,9.926-9.926,9.926
	c-5.481,0-9.926-4.444-9.926-9.926C40.059,41.876,44.503,37.433,49.985,37.433z M50,80.406c-5.482,0-9.926-4.444-9.926-9.926
	c0-5.482,4.444-9.926,9.926-9.926c5.481,0,9.926,4.444,9.926,9.926C59.925,75.962,55.481,80.406,50,80.406z"/>
</svg>
