<?xml version="1.0" encoding="utf-8"?>
<!-- Generator: Adobe Illustrator 16.0.0, SVG Export Plug-In . SVG Version: 6.00 Build 0)  -->
<!DOCTYPE svg PUBLIC "-//W3C//DTD SVG 1.1//EN" "http://www.w3.org/Graphics/SVG/1.1/DTD/svg11.dtd">
<svg version="1.1" id="Layer_3" xmlns="http://www.w3.org/2000/svg" xmlns:xlink="http://www.w3.org/1999/xlink" x="0px" y="0px"
	 width="100px" height="100px" viewBox="0 0 100 100" enable-background="new 0 0 100 100" xml:space="preserve">
<path d="M33.176,7.35v86.708h33.648V7.35H33.176z M64.086,91.32H35.914V10.088h28.172V91.32z M62.039,12.065H37.932v76.973h24.107
	V12.065z M49.985,14.918c5.481,0,9.926,4.444,9.926,9.926s-4.444,9.926-9.926,9.926c-5.482,0-9.926-4.444-9.926-9.926
	S44.503,14.918,49.985,14.918z M49.985,37.432c5.481,0,9.926,4.444,9.926,9.926c0,5.481-4.444,9.926-9.926,9.926
	c-5.482,0-9.926-4.444-9.926-9.926C40.06,41.876,44.503,37.432,49.985,37.432z M50,80.406c-5.481,0-9.926-4.444-9.926-9.926
	c0-5.482,4.444-9.926,9.926-9.926c5.482,0,9.926,4.444,9.926,9.926C59.925,75.961,55.481,80.406,50,80.406z M56.083,24.904
	c0,3.367-2.73,6.097-6.098,6.097s-6.098-2.73-6.098-6.097c0-3.368,2.73-6.098,6.098-6.098S56.083,21.537,56.083,24.904z"/>
</svg>
