<?xml version="1.0" encoding="utf-8"?>
<!-- Generator: Adobe Illustrator 16.0.0, SVG Export Plug-In . SVG Version: 6.00 Build 0)  -->
<!DOCTYPE svg PUBLIC "-//W3C//DTD SVG 1.1//EN" "http://www.w3.org/Graphics/SVG/1.1/DTD/svg11.dtd">
<svg version="1.1" id="Layer_3" xmlns="http://www.w3.org/2000/svg" xmlns:xlink="http://www.w3.org/1999/xlink" x="0px" y="0px"
	 width="100px" height="100px" viewBox="0 0 100 100" enable-background="new 0 0 100 100" xml:space="preserve">
<path d="M31.509,7.35v86.708h33.648V7.35H31.509z M62.419,91.32H34.248V10.088h28.172V91.32z M60.373,12.065H36.265v76.973h24.107
	V12.065z M48.319,14.918c5.481,0,9.926,4.444,9.926,9.926S53.8,34.77,48.319,34.77s-9.926-4.444-9.926-9.926
	S42.837,14.918,48.319,14.918z M48.319,37.432c5.481,0,9.926,4.444,9.926,9.926c0,5.481-4.444,9.926-9.926,9.926
	s-9.926-4.444-9.926-9.926C38.393,41.876,42.837,37.432,48.319,37.432z M48.333,80.406c-5.481,0-9.926-4.444-9.926-9.926
	c0-5.482,4.444-9.926,9.926-9.926c5.482,0,9.926,4.444,9.926,9.926C58.259,75.961,53.815,80.406,48.333,80.406z M54.432,70.48
	c0,3.367-2.73,6.097-6.098,6.097s-6.098-2.73-6.098-6.097c0-3.368,2.73-6.098,6.098-6.098S54.432,67.112,54.432,70.48z"/>
</svg>
