<?xml version="1.0" encoding="utf-8"?>
<!-- Generator: Adobe Illustrator 16.0.0, SVG Export Plug-In . SVG Version: 6.00 Build 0)  -->
<!DOCTYPE svg PUBLIC "-//W3C//DTD SVG 1.1//EN" "http://www.w3.org/Graphics/SVG/1.1/DTD/svg11.dtd">
<svg version="1.1" id="Layer_3" xmlns="http://www.w3.org/2000/svg" xmlns:xlink="http://www.w3.org/1999/xlink" x="0px" y="0px"
	 width="100px" height="100px" viewBox="0 0 100 100" enable-background="new 0 0 100 100" xml:space="preserve">
<path d="M33.176,6.646v86.708h33.648V6.646H33.176z M64.086,90.616H35.914V9.384h28.172V90.616z M62.039,11.361H37.932v76.973
	h24.106V11.361z M49.985,14.214c5.482,0,9.926,4.444,9.926,9.926s-4.444,9.926-9.926,9.926c-5.481,0-9.926-4.444-9.926-9.926
	S44.504,14.214,49.985,14.214z M49.985,36.728c5.482,0,9.926,4.444,9.926,9.926c0,5.481-4.444,9.926-9.926,9.926
	c-5.481,0-9.926-4.444-9.926-9.926C40.06,41.172,44.504,36.728,49.985,36.728z M50,79.702c-5.481,0-9.926-4.444-9.926-9.926
	c0-5.482,4.444-9.926,9.926-9.926c5.482,0,9.926,4.444,9.926,9.926C59.925,75.257,55.481,79.702,50,79.702z M56.058,24.214
	c0,3.367-2.73,6.097-6.098,6.097s-6.098-2.73-6.098-6.097c0-3.368,2.73-6.098,6.098-6.098S56.058,20.846,56.058,24.214z
	 M56.058,46.714c0,3.367-2.73,6.097-6.098,6.097s-6.098-2.73-6.098-6.097c0-3.368,2.73-6.098,6.098-6.098
	S56.058,43.346,56.058,46.714z M56.058,69.68c0,3.367-2.73,6.097-6.098,6.097s-6.098-2.73-6.098-6.097
	c0-3.368,2.73-6.098,6.098-6.098S56.058,66.313,56.058,69.68z"/>
</svg>
