<?xml version="1.0" encoding="utf-8"?>
<!-- Generator: Adobe Illustrator 16.0.0, SVG Export Plug-In . SVG Version: 6.00 Build 0)  -->
<!DOCTYPE svg PUBLIC "-//W3C//DTD SVG 1.1//EN" "http://www.w3.org/Graphics/SVG/1.1/DTD/svg11.dtd">
<svg version="1.1" id="Layer_3" xmlns="http://www.w3.org/2000/svg" xmlns:xlink="http://www.w3.org/1999/xlink" x="0px" y="0px"
	 width="100px" height="100px" viewBox="0 0 100 100" enable-background="new 0 0 100 100" xml:space="preserve">
<path d="M63.72,19.412c-11.137,0-20.196,9.06-20.196,20.196c0,3.391,0.849,6.584,2.332,9.394L16.084,78.773l10.819,10.819
	l30.729-30.729c1.922,0.609,3.966,0.942,6.088,0.942c11.137,0,20.196-9.061,20.196-20.197S74.856,19.412,63.72,19.412z
	 M29.225,85.698l-5.576-12.919l3.49-3.487l5.576,12.917L29.225,85.698z M36.202,78.723l-5.578-12.918l3.489-3.489l5.576,12.917
	L36.202,78.723z M42.496,72.428L36.919,59.51l3.488-3.488l5.576,12.918L42.496,72.428z M48.789,66.134l-5.575-12.918l3.219-3.219
	c0.335,0.557,0.696,1.094,1.081,1.614l4.766,11.035L48.789,66.134z M63.72,56.524c-9.327,0-16.916-7.588-16.916-16.916
	s7.589-16.916,16.916-16.916c9.328,0,16.916,7.588,16.916,16.916S73.048,56.524,63.72,56.524z M74.076,39.191
	c0,5.636-4.569,10.206-10.206,10.206c-5.636,0-10.205-4.569-10.205-10.206s4.569-10.206,10.205-10.206
	C69.507,28.985,74.076,33.555,74.076,39.191z"/>
</svg>
