<?xml version="1.0" encoding="utf-8"?>
<!-- Generator: Adobe Illustrator 16.0.0, SVG Export Plug-In . SVG Version: 6.00 Build 0)  -->
<!DOCTYPE svg PUBLIC "-//W3C//DTD SVG 1.1//EN" "http://www.w3.org/Graphics/SVG/1.1/DTD/svg11.dtd">
<svg version="1.1" id="Layer_2" xmlns="http://www.w3.org/2000/svg" xmlns:xlink="http://www.w3.org/1999/xlink" x="0px" y="0px"
	 width="100px" height="100px" viewBox="0 0 100 100" enable-background="new 0 0 100 100" xml:space="preserve">
<path d="M50,11.276c-11.938,0-21.649,9.868-21.649,21.998c0,4.825,2.805,9.168,5.279,12.998c1.458,2.257,2.834,4.389,3.143,5.982
	c0.87,4.499,1.368,15.169,1.373,15.276c0.034,0.746,0.648,1.333,1.396,1.333H60.46c0.384,0,0.75-0.158,1.015-0.437
	c0.264-0.28,0.401-0.655,0.38-1.038c-0.26-4.676-0.081-12.968,1.508-15.315c0.275-0.406,0.591-0.856,0.934-1.348
	c2.75-3.925,7.354-10.498,7.354-17.452C71.649,21.145,61.938,11.276,50,11.276z M62.008,49.126
	c-0.353,0.503-0.676,0.966-0.959,1.383c-2.189,3.235-2.16,11.954-2.046,15.562H40.869c-0.164-3.063-0.625-10.579-1.353-14.345
	c-0.411-2.127-1.86-4.37-3.54-6.969c-2.265-3.507-4.832-7.48-4.832-11.482c0-10.59,8.459-19.204,18.856-19.204
	s18.856,8.614,18.856,19.204C68.856,39.348,64.569,45.469,62.008,49.126z M39.175,70.939h21.649v10.825
	c0,2.036-1.319,3.745-3.143,4.37c-0.338,1.481-1.657,2.589-3.241,2.589h-8.882c-1.584,0-2.903-1.107-3.241-2.589
	c-1.824-0.625-3.143-2.334-3.143-4.37V70.939z"/>
</svg>
