<?xml version="1.0" encoding="iso-8859-1"?>
<!-- Generator: Adobe Illustrator 18.0.0, SVG Export Plug-In . SVG Version: 6.00 Build 0)  -->
<!DOCTYPE svg PUBLIC "-//W3C//DTD SVG 1.1//EN" "http://www.w3.org/Graphics/SVG/1.1/DTD/svg11.dtd">
<svg version="1.1" id="Capa_1" xmlns="http://www.w3.org/2000/svg" xmlns:xlink="http://www.w3.org/1999/xlink" x="0px" y="0px"
	 viewBox="0 0 22 22" style="enable-background:new 0 0 22 22;" xml:space="preserve">
<g>
	<path style="fill-rule:evenodd;clip-rule:evenodd;" d="M11.492,11.089c0.568,0.103,0.891,0.567,1.079,0.673
		c0.568,0.321-2.32,0.995,0.522,3.069c-0.072,1.032-0.03,1.994-0.139,2.168c-0.25,0.397-0.117,0.652,0,0.778
		c-0.678,0.174,0.136,1.617,0.678,1.288c0.333-0.203,0-0.624,0.29-1.024c-0.29-0.7,2.123-2.616,2.568-2.949
		c0,0-0.015-0.842,0.658-1.372c0.334-0.263-0.504-0.796-1.076-0.612c0,0-0.034-1.083-1.603-0.948
		c-0.601,0.052-1.001-0.325-1.001-0.325s-0.513-0.975-1.075-0.975c-0.091,0,0.07-0.361-0.28-0.544
		c-0.275-0.144-1.039-0.153-1.039-0.443s0.741-0.174,1.202-0.541c0.139-0.11,0.343,0.431,0.488,0.309
		c0.165-0.139-0.181-0.394,0.331-0.83c0.093-0.079,0.596-0.62,1.023-0.971c0.154-0.127,0.457-0.029,0.504-0.157
		c0.178-0.483-0.648-0.077-0.37-0.69c0.1-0.22,1.629,0.386,1.717,0.298c0.212-0.213-1.132-0.285-0.575-0.617
		c0.236-0.141-1.606-1.602-2.144-1.454c-0.539,0.148,0.081,1.573-0.487,1.454c-0.563-0.118-1.238-0.672-1.606-0.989
		c-0.433-0.374,0.736-0.344,0.954-0.651c0.261-0.369,0.034-0.721-0.18-0.79c-0.816-0.261-1.947,0.35-2.482,0.216
		C8.503,4.223,8.94,3.992,7.922,3.85C7.414,3.779,6.86,4.146,6.017,3.98C4.989,3.777,4.998,5.706,4.614,6.157
		c0.963-0.84,2.909-0.226,2.718,0.518C7.083,7.648,8.861,9.174,9.144,9.873c0.148,0.366,0.759-0.396,1.255,0.987
		C10.489,11.291,11.028,11.005,11.492,11.089z"/>
	<path style="fill-rule:evenodd;clip-rule:evenodd;" d="M22,11c0-6.075-4.925-11-11-11C4.925,0,0,4.925,0,11c0,6.075,4.925,11,11,11
		C17.075,22,22,17.075,22,11z M1,11C1,5.477,5.477,1,11,1c5.523,0,10,4.477,10,10s-4.477,10-10,10C5.477,21,1,16.523,1,11z"/>
</g>
<g>
</g>
<g>
</g>
<g>
</g>
<g>
</g>
<g>
</g>
<g>
</g>
<g>
</g>
<g>
</g>
<g>
</g>
<g>
</g>
<g>
</g>
<g>
</g>
<g>
</g>
<g>
</g>
<g>
</g>
</svg>
