<?xml version="1.0" encoding="iso-8859-1"?>
<!-- Generator: Adobe Illustrator 18.0.0, SVG Export Plug-In . SVG Version: 6.00 Build 0)  -->
<!DOCTYPE svg PUBLIC "-//W3C//DTD SVG 1.1//EN" "http://www.w3.org/Graphics/SVG/1.1/DTD/svg11.dtd">
<svg version="1.1" id="Capa_1" xmlns="http://www.w3.org/2000/svg" xmlns:xlink="http://www.w3.org/1999/xlink" x="0px" y="0px"
	 viewBox="0 0 16 16" style="enable-background:new 0 0 16 16;" xml:space="preserve">
<g id="Globe">
	<g>
		<path style="fill-rule:evenodd;clip-rule:evenodd;" d="M8,0C3.582,0,0,3.582,0,8c0,4.418,3.582,8,8,8s8-3.582,8-8
			C16,3.582,12.418,0,8,0z M8,14c-3.314,0-6-2.686-6-6c0-3.314,2.686-6,6-6c3.314,0,6,2.686,6,6C14,11.314,11.314,14,8,14z
			 M7.038,5.964l0.021-0.329L7.483,5.47h0.91l0.275-0.247l0.169-0.474l0.466-0.247L9.918,4.07l0.014-0.108
			C9.31,3.67,8.621,3.493,7.885,3.493c-1.305,0-2.486,0.514-3.344,1.343l-0.044,0.16l0.021,0.288l0.36,0.268L5.005,5.82l0.021,0.371
			L5.005,6.623l0.318,0.021l0.339,0.124c0,0,0.275,0.082,0.36,0.165c0.085,0.082,0.551,0.371,0.614,0.474
			c0.064,0.103,0.381,0.103,0.381,0.103c0.254-0.206,0-0.494,0-0.494L6.911,6.767L6.826,6.52l0.042-0.288L7.038,5.964z M11.76,9.197
			l-0.275-0.329h-0.402l-0.36-0.124l-0.275-0.432l-0.445-0.35L9.812,7.57H9.346L8.69,7.447L8.499,7.509L8.224,7.817L7.991,7.982
			L7.885,8.765c0,0,0,0.844,0,0.927c0,0.082,0.127,0.247,0.233,0.412c0.106,0.165,0.169,0.35,0.254,0.453
			c0.085,0.103,0.19,0.103,0.339,0.165c0.148,0.062,0.296,0.206,0.36,0.309s0.106,0.494,0.106,0.494l0.085,0.68v0.294
			c0.241-0.071,0.473-0.155,0.696-0.261l0.299-0.218l0.508-0.309l0.176-0.102c0.399-0.33,0.74-0.717,1.009-1.157l0.044-0.243V9.794
			l-0.064-0.247L11.76,9.197z"/>
	</g>
</g>
<g>
</g>
<g>
</g>
<g>
</g>
<g>
</g>
<g>
</g>
<g>
</g>
<g>
</g>
<g>
</g>
<g>
</g>
<g>
</g>
<g>
</g>
<g>
</g>
<g>
</g>
<g>
</g>
<g>
</g>
</svg>
