<?xml version="1.0" encoding="utf-8"?>
<!-- Generator: Adobe Illustrator 16.0.0, SVG Export Plug-In . SVG Version: 6.00 Build 0)  -->
<!DOCTYPE svg PUBLIC "-//W3C//DTD SVG 1.1//EN" "http://www.w3.org/Graphics/SVG/1.1/DTD/svg11.dtd">
<svg version="1.1" id="Layer_2" xmlns="http://www.w3.org/2000/svg" xmlns:xlink="http://www.w3.org/1999/xlink" x="0px" y="0px"
	 width="100px" height="100px" viewBox="0 0 100 100" enable-background="new 0 0 100 100" xml:space="preserve">
<path d="M75,86c-1.104,0-2-0.896-2-2V18H27v66c0,1.104-0.896,2-2,2s-2-0.896-2-2V16c0-1.104,0.896-2,2-2h50c1.104,0,2,0.896,2,2v68
	C77,85.104,76.104,86,75,86z M70.5,21.5V84h-41V21.5H70.5z M39.5,53.25c0-1.795-1.231-3.25-2.75-3.25S34,51.455,34,53.25
	s1.231,3.25,2.75,3.25S39.5,55.045,39.5,53.25z"/>
</svg>
