<?xml version="1.0" encoding="utf-8"?>
<!-- Generator: Adobe Illustrator 16.0.0, SVG Export Plug-In . SVG Version: 6.00 Build 0)  -->
<!DOCTYPE svg PUBLIC "-//W3C//DTD SVG 1.1//EN" "http://www.w3.org/Graphics/SVG/1.1/DTD/svg11.dtd">
<svg version="1.1" id="Layer_2" xmlns="http://www.w3.org/2000/svg" xmlns:xlink="http://www.w3.org/1999/xlink" x="0px" y="0px"
	 width="100px" height="100px" viewBox="0 0 100 100" enable-background="new 0 0 100 100" xml:space="preserve">
<path d="M86.12,52.956H37.268c-1.51-7.658-6.906-13.332-13.352-13.332c-7.614,0-13.786,7.908-13.786,17.666
	s6.172,17.666,13.786,17.666c6.77,0,12.388-6.256,13.554-14.5h29.326c-0.104,0.402-0.177,0.816-0.177,1.25v8.699l3.333-0.006v-4.191
	h2.333v4.248h2.542v-5.332h2.333v5.332h1.958v-4.248h2.333v4.373l3.917,0.027v-8.902c0-0.434-0.073-0.848-0.177-1.25h0.927
	c2.071,0,3.75-1.678,3.75-3.75C89.87,54.636,88.191,52.956,86.12,52.956z M23.917,66.765c-3.376,0-6.115-4.242-6.115-9.475
	s2.738-9.475,6.115-9.475c3.377,0,6.114,4.242,6.114,9.475S27.294,66.765,23.917,66.765z M46.335,44.647l7.397-7.398l-7.397-7.397
	c-1.1-1.1-1.1-2.884,0-3.983s2.883-1.1,3.983,0l7.398,7.398l7.398-7.398c1.1-1.1,2.882-1.1,3.983,0c1.1,1.1,1.1,2.884,0,3.983
	L61.7,37.249l7.397,7.398c1.1,1.1,1.1,2.884,0,3.983c-0.55,0.55-1.271,0.825-1.992,0.825c-0.721,0-1.441-0.275-1.991-0.825
	l-7.398-7.397l-7.398,7.397c-0.55,0.55-1.27,0.825-1.992,0.825c-0.72,0-1.441-0.275-1.991-0.825
	C45.235,47.531,45.235,45.747,46.335,44.647z"/>
</svg>
