<?xml version="1.0" encoding="utf-8"?>
<!-- Generator: Adobe Illustrator 16.0.0, SVG Export Plug-In . SVG Version: 6.00 Build 0)  -->
<!DOCTYPE svg PUBLIC "-//W3C//DTD SVG 1.1//EN" "http://www.w3.org/Graphics/SVG/1.1/DTD/svg11.dtd">
<svg version="1.1" id="Layer_2" xmlns="http://www.w3.org/2000/svg" xmlns:xlink="http://www.w3.org/1999/xlink" x="0px" y="0px"
	 width="100px" height="100px" viewBox="0 0 100 100" enable-background="new 0 0 100 100" xml:space="preserve">
<path d="M82.796,11.833H17.585c-3.342,0-6.061,2.717-6.061,6.059v65.141c0,3.34,2.719,6.059,6.061,6.059h65.211
	c3.342,0,6.061-2.719,6.061-6.059V17.892C88.856,14.55,86.138,11.833,82.796,11.833z M74.514,65.81c2.352,2.352,2.352,6.165,0,8.513
	c-1.176,1.175-2.718,1.765-4.257,1.765c-1.542,0-3.081-0.59-4.255-1.765L50.19,58.512L34.377,74.322
	c-1.174,1.175-2.713,1.765-4.253,1.765c-1.541,0-3.081-0.59-4.257-1.765c-2.352-2.348-2.352-6.161,0-8.513L41.675,50L25.867,34.188
	c-2.352-2.352-2.352-6.163,0-8.512c2.351-2.352,6.158-2.352,8.51,0l15.813,15.81l15.812-15.81c2.352-2.352,6.161-2.352,8.512,0
	c2.352,2.349,2.352,6.16,0,8.512L58.706,50L74.514,65.81z"/>
</svg>
