<?xml version="1.0" encoding="utf-8"?>
<!-- Generator: Adobe Illustrator 16.0.0, SVG Export Plug-In . SVG Version: 6.00 Build 0)  -->
<!DOCTYPE svg PUBLIC "-//W3C//DTD SVG 1.1//EN" "http://www.w3.org/Graphics/SVG/1.1/DTD/svg11.dtd">
<svg version="1.1" id="Layer_2" xmlns="http://www.w3.org/2000/svg" xmlns:xlink="http://www.w3.org/1999/xlink" x="0px" y="0px"
	 width="100px" height="100px" viewBox="0 0 100 100" enable-background="new 0 0 100 100" xml:space="preserve">
<path d="M89.607,53.373v27.588c0,4.771-3.883,8.652-8.655,8.652h-62.01c-4.773,0-8.656-3.881-8.656-8.652V19.018
	c0-4.771,3.883-8.653,8.656-8.653h27.663c-1.489,1.528-2.479,3.544-2.696,5.784H18.941c-1.583,0-2.871,1.287-2.871,2.869v61.943
	c0,1.581,1.288,2.868,2.871,2.868h62.01c1.583,0,2.871-1.287,2.871-2.868V56.065C86,55.856,88.02,54.919,89.607,53.373z
	 M76.245,48.287h-18.91l30.609-30.609c1.694-1.695,1.694-4.441,0-6.135c-1.694-1.695-4.441-1.695-6.135-0.002L51.2,42.152V23.24
	c0-2.395-1.942-4.338-4.338-4.338c-1.198,0-2.283,0.484-3.068,1.27c-0.785,0.787-1.271,1.871-1.271,3.068v29.385
	c0,2.396,1.942,4.338,4.338,4.338h29.384c2.396,0,4.338-1.941,4.338-4.338C80.583,50.229,78.641,48.287,76.245,48.287z"/>
</svg>
