<?xml version="1.0" encoding="iso-8859-1"?>
<!-- Generator: Adobe Illustrator 18.0.0, SVG Export Plug-In . SVG Version: 6.00 Build 0)  -->
<!DOCTYPE svg PUBLIC "-//W3C//DTD SVG 1.1//EN" "http://www.w3.org/Graphics/SVG/1.1/DTD/svg11.dtd">
<svg version="1.1" id="Capa_1" xmlns="http://www.w3.org/2000/svg" xmlns:xlink="http://www.w3.org/1999/xlink" x="0px" y="0px"
	 viewBox="0 0 23.945 20.27" style="enable-background:new 0 0 23.945 20.27;" xml:space="preserve">
<g>
	<path style="fill-rule:evenodd;clip-rule:evenodd;" d="M8.933,0.049L0.017,15.497c-0.038,0.067-0.009,0.117,0.063,0.117h17.841
		c0.072,0,0.1-0.052,0.063-0.117L9.068,0.049C9.03-0.017,8.97-0.016,8.933,0.049z M1.8,14.47L8.969,2.071l7.169,12.399H1.8z"/>
	<path style="fill-rule:evenodd;clip-rule:evenodd;" d="M16.587,19.27c-2.249,0-4.226-1.187-5.362-2.979h-1.137
		c1.237,2.368,3.683,3.979,6.499,3.979c4.064,0,7.359-3.358,7.359-7.5s-3.295-7.5-7.359-7.5c-1.13,0-2.2,0.26-3.157,0.723
		l0.586,0.827c0.786-0.354,1.656-0.55,2.571-0.55c3.522,0,6.377,2.91,6.377,6.5C22.964,16.36,20.109,19.27,16.587,19.27z"/>
</g>
<g>
</g>
<g>
</g>
<g>
</g>
<g>
</g>
<g>
</g>
<g>
</g>
<g>
</g>
<g>
</g>
<g>
</g>
<g>
</g>
<g>
</g>
<g>
</g>
<g>
</g>
<g>
</g>
<g>
</g>
</svg>
