<?xml version="1.0" encoding="utf-8"?>
<!-- Generator: Adobe Illustrator 16.0.0, SVG Export Plug-In . SVG Version: 6.00 Build 0)  -->
<!DOCTYPE svg PUBLIC "-//W3C//DTD SVG 1.1//EN" "http://www.w3.org/Graphics/SVG/1.1/DTD/svg11.dtd">
<svg version="1.1" id="Layer_2" xmlns="http://www.w3.org/2000/svg" xmlns:xlink="http://www.w3.org/1999/xlink" x="0px" y="0px"
	 width="100px" height="100px" viewBox="0 0 100 100" enable-background="new 0 0 100 100" xml:space="preserve">
<path d="M82.605,11.371H17.393c-3.341,0-6.06,2.718-6.06,6.059v65.14c0,3.341,2.719,6.06,6.06,6.06h65.212
	c3.341,0,6.06-2.719,6.06-6.06V17.43C88.665,14.088,85.946,11.371,82.605,11.371z M78.497,18.268c1.435,0,2.597,1.163,2.597,2.597
	c0,1.435-1.162,2.597-2.597,2.597S75.9,22.299,75.9,20.865C75.9,19.431,77.062,18.268,78.497,18.268z M69.191,18.268
	c1.435,0,2.597,1.163,2.597,2.597c0,1.435-1.162,2.597-2.597,2.597s-2.597-1.163-2.597-2.597
	C66.594,19.431,67.756,18.268,69.191,18.268z M18.258,29.909h30.409v51.795H18.258V29.909z M81.74,81.704H51.333V29.909H81.74
	V81.704z"/>
</svg>
