<?xml version="1.0" encoding="utf-8"?>
<!-- Generator: Adobe Illustrator 16.0.0, SVG Export Plug-In . SVG Version: 6.00 Build 0)  -->
<!DOCTYPE svg PUBLIC "-//W3C//DTD SVG 1.1//EN" "http://www.w3.org/Graphics/SVG/1.1/DTD/svg11.dtd">
<svg version="1.1" id="Layer_1" xmlns="http://www.w3.org/2000/svg" xmlns:xlink="http://www.w3.org/1999/xlink" x="0px" y="0px"
	 width="100px" height="100px" viewBox="0 0 100 100" enable-background="new 0 0 100 100" xml:space="preserve">
<path fill="#020202" d="M82.084,65.643c-2.095-6.422-6.896-11.186-12.229-12.14c-1.736-0.31-3.435-0.201-5.05,0.327
	c-0.314,0.102-0.614,0.233-0.911,0.364l-5.501-5.457l-0.022,0.012l-0.71-0.738c0.285-0.106,0.574-0.206,0.854-0.316
	c23.422-9.32,20.208-34.217,20.173-34.467c-0.066-0.483-0.404-0.886-0.868-1.036c-0.465-0.15-0.977-0.023-1.313,0.329l-26.5,27.537
	L23.61,12.627c-0.337-0.352-0.848-0.479-1.312-0.33c-0.465,0.15-0.802,0.553-0.87,1.036c-0.035,0.25-3.248,25.147,20.174,34.467
	c0.229,0.092,0.471,0.173,0.703,0.261l-0.667,0.692l-0.032-0.017l-5.501,5.457c-0.297-0.131-0.597-0.262-0.911-0.364
	c-1.615-0.528-3.313-0.637-5.05-0.327c-5.332,0.954-10.134,5.718-12.229,12.14c-1.342,4.113-1.41,8.392-0.196,12.048
	c1.285,3.862,3.837,6.59,7.183,7.681c1.615,0.527,3.314,0.638,5.05,0.327c5.333-0.953,10.133-5.719,12.229-12.139
	c0.867-2.655,1.168-5.323,0.991-7.814l4.289-14.905l-0.124-0.067c1.496-0.16,1.033-0.371,2.44-0.629
	c1.505,0.293,1.151,0.528,2.764,0.708l4.287,14.893c-0.177,2.491,0.125,5.159,0.991,7.814c2.096,6.42,6.896,11.186,12.228,12.139
	c1.736,0.311,3.436,0.2,5.051-0.327c3.346-1.09,5.897-3.819,7.183-7.681C83.494,74.034,83.426,69.756,82.084,65.643z M28.374,34.355
	c0,0-5.729-9.81-5.271-18.605c0,0,6.178,19.44,11.478,23.001C34.58,38.751,31.084,39.734,28.374,34.355z M38.54,72.372
	c-1.637,5.019-5.359,8.86-9.262,9.558c-1.107,0.198-2.18,0.132-3.188-0.198c-2.163-0.705-3.845-2.569-4.737-5.25
	c-0.958-2.884-0.887-6.312,0.204-9.653c1.637-5.02,5.36-8.859,9.263-9.558c1.107-0.197,2.18-0.132,3.188,0.197
	C38.689,58.997,40.724,65.683,38.54,72.372z M50,46.063c-0.76,0-1.375-0.616-1.375-1.375S49.24,43.313,50,43.313
	s1.375,0.616,1.375,1.375S50.76,46.063,50,46.063z M78.646,76.482c-0.892,2.68-2.573,4.544-4.736,5.25
	c-1.009,0.33-2.081,0.396-3.188,0.198c-3.902-0.698-7.625-4.539-9.261-9.558c-2.185-6.689-0.15-13.375,4.531-14.903
	c1.009-0.33,2.081-0.395,3.188-0.197c3.903,0.698,7.625,4.538,9.263,9.558C79.534,70.17,79.605,73.598,78.646,76.482z"/>
</svg>
