<?xml version="1.0" encoding="utf-8"?>
<!-- Generator: Adobe Illustrator 16.0.0, SVG Export Plug-In . SVG Version: 6.00 Build 0)  -->
<!DOCTYPE svg PUBLIC "-//W3C//DTD SVG 1.1//EN" "http://www.w3.org/Graphics/SVG/1.1/DTD/svg11.dtd">
<svg version="1.1" id="Layer_2" xmlns="http://www.w3.org/2000/svg" xmlns:xlink="http://www.w3.org/1999/xlink" x="0px" y="0px"
	 width="100px" height="100px" viewBox="0 0 100 100" enable-background="new 0 0 100 100" xml:space="preserve">
<path d="M31.659,31.206c0,4.351-3.528,7.878-7.878,7.878c-4.35,0-7.878-3.527-7.878-7.878s3.528-7.878,7.878-7.878
	C28.131,23.327,31.659,26.854,31.659,31.206z M23.78,63.322c-4.35,0-7.878,3.527-7.878,7.878s3.528,7.878,7.878,7.878
	c4.351,0,7.878-3.527,7.878-7.878S28.131,63.322,23.78,63.322z M43.455,28.746h38.313c1.286,0,2.33-1.043,2.33-2.33
	c0-1.287-1.043-2.33-2.33-2.33H43.455c-1.286,0-2.33,1.043-2.33,2.33C41.125,27.703,42.169,28.746,43.455,28.746z M43.455,40.137
	h24.853c1.287,0,2.33-1.043,2.33-2.33s-1.043-2.33-2.33-2.33H43.455c-1.286,0-2.33,1.042-2.33,2.33S42.169,40.137,43.455,40.137z
	 M81.768,64.729H43.455c-1.286,0-2.33,1.043-2.33,2.33c0,1.287,1.044,2.33,2.33,2.33h38.313c1.286,0,2.33-1.043,2.33-2.33
	C84.098,65.771,83.054,64.729,81.768,64.729z M68.308,76.119H43.455c-1.286,0-2.33,1.042-2.33,2.33s1.044,2.33,2.33,2.33h24.853
	c1.287,0,2.33-1.043,2.33-2.33S69.594,76.119,68.308,76.119z"/>
</svg>
