<?xml version="1.0" encoding="utf-8"?>
<!-- Generator: Adobe Illustrator 16.0.0, SVG Export Plug-In . SVG Version: 6.00 Build 0)  -->
<!DOCTYPE svg PUBLIC "-//W3C//DTD SVG 1.1//EN" "http://www.w3.org/Graphics/SVG/1.1/DTD/svg11.dtd">
<svg version="1.1" id="Layer_2" xmlns="http://www.w3.org/2000/svg" xmlns:xlink="http://www.w3.org/1999/xlink" x="0px" y="0px"
	 width="100px" height="100px" viewBox="0 0 100 100" enable-background="new 0 0 100 100" xml:space="preserve">
<path d="M38.525,26.416c0-1.287,1.045-2.33,2.33-2.33h38.313c1.286,0,2.329,1.043,2.329,2.33c0,1.287-1.043,2.33-2.329,2.33H40.855
	C39.57,28.746,38.525,27.703,38.525,26.416z M40.855,40.137h24.854c1.286,0,2.33-1.043,2.33-2.33s-1.044-2.33-2.33-2.33H40.855
	c-1.285,0-2.33,1.042-2.33,2.33S39.57,40.137,40.855,40.137z M79.169,64.729H40.855c-1.285,0-2.33,1.043-2.33,2.33
	c0,1.287,1.045,2.33,2.33,2.33h38.313c1.286,0,2.329-1.043,2.329-2.33C81.498,65.771,80.455,64.729,79.169,64.729z M65.709,76.119
	H40.855c-1.285,0-2.33,1.042-2.33,2.33s1.045,2.33,2.33,2.33h24.854c1.286,0,2.33-1.043,2.33-2.33S66.995,76.119,65.709,76.119z
	 M31.801,23.289c0-0.811-0.657-1.468-1.468-1.468H16.756c-0.811,0-1.467,0.657-1.467,1.468c0,0.811,0.656,1.467,1.467,1.467h5.373
	c-0.03,0.118-0.052,0.24-0.052,0.367V38.7c0,0.127,0.021,0.249,0.052,0.367h-5.373c-0.811,0-1.467,0.657-1.467,1.468
	s0.656,1.468,1.467,1.468h13.577c0.811,0,1.468-0.657,1.468-1.468s-0.657-1.468-1.468-1.468H24.96
	c0.031-0.118,0.053-0.24,0.053-0.367V25.123c0-0.127-0.021-0.249-0.053-0.367h5.373C31.144,24.756,31.801,24.099,31.801,23.289z
	 M30.334,64.654h-2.07c0.029,0.118,0.051,0.239,0.051,0.367v13.577c0,0.127-0.021,0.249-0.051,0.367h2.07
	c0.811,0,1.467,0.657,1.467,1.468S31.145,81.9,30.334,81.9H16.756c-0.811,0-1.467-0.657-1.467-1.468s0.656-1.468,1.467-1.468h1.887
	c-0.029-0.118-0.051-0.239-0.051-0.367V65.021c0-0.127,0.021-0.249,0.051-0.367h-1.887c-0.811,0-1.467-0.657-1.467-1.468
	s0.656-1.468,1.467-1.468h13.578c0.811,0,1.467,0.657,1.467,1.468S31.145,64.654,30.334,64.654z M25.379,78.598V65.021
	c0-0.127,0.021-0.249,0.053-0.367h-3.957c0.03,0.118,0.052,0.239,0.052,0.367v13.577c0,0.127-0.021,0.249-0.052,0.367h3.957
	C25.4,78.847,25.379,78.725,25.379,78.598z"/>
</svg>
