<?xml version="1.0" encoding="utf-8"?>
<!-- Generator: Adobe Illustrator 16.0.0, SVG Export Plug-In . SVG Version: 6.00 Build 0)  -->
<!DOCTYPE svg PUBLIC "-//W3C//DTD SVG 1.1//EN" "http://www.w3.org/Graphics/SVG/1.1/DTD/svg11.dtd">
<svg version="1.1" id="Layer_1" xmlns="http://www.w3.org/2000/svg" xmlns:xlink="http://www.w3.org/1999/xlink" x="0px" y="0px"
	 width="100px" height="100px" viewBox="0 0 100 100" enable-background="new 0 0 100 100" xml:space="preserve">
<path fill="#020202" d="M76.83,32.561L59.392,50L76.83,67.439c2.594,2.594,2.594,6.798,0,9.392
	c-1.296,1.296-2.995,1.945-4.694,1.945c-1.7,0-3.399-0.648-4.695-1.945L50,59.391l-17.44,17.44
	c-1.296,1.296-2.995,1.945-4.695,1.945c-1.699,0-3.397-0.648-4.694-1.945c-2.594-2.593-2.594-6.797,0-9.392L40.608,50L23.17,32.561
	c-2.594-2.594-2.594-6.798,0-9.392c2.593-2.592,6.795-2.592,9.389,0L50,40.609l17.44-17.44c2.594-2.592,6.796-2.592,9.389,0
	C79.424,25.763,79.424,29.967,76.83,32.561z"/>
</svg>
