<?xml version="1.0" encoding="utf-8"?>
<!-- Generator: Adobe Illustrator 16.0.0, SVG Export Plug-In . SVG Version: 6.00 Build 0)  -->
<!DOCTYPE svg PUBLIC "-//W3C//DTD SVG 1.1//EN" "http://www.w3.org/Graphics/SVG/1.1/DTD/svg11.dtd">
<svg version="1.1" id="Layer_2" xmlns="http://www.w3.org/2000/svg" xmlns:xlink="http://www.w3.org/1999/xlink" x="0px" y="0px"
	 width="100px" height="100px" viewBox="0 0 100 100" enable-background="new 0 0 100 100" xml:space="preserve">
<path d="M70.578,58.1c0.627,1.482,0.949,3.185,0.949,5.122c0,5.066-1.853,9.178-5.555,12.337c-3.704,3.158-8.65,4.737-14.838,4.737
	c-7.215,0-12.673-1.499-16.377-4.497c-3.703-2.998-5.587-7.51-5.65-13.539h8.368c0.128,3.559,1.306,6.204,3.534,7.936
	c2.229,1.731,5.572,2.597,10.028,2.597c3.624,0,6.5-0.721,8.633-2.164s3.199-3.446,3.199-6.012c0-1.828-0.69-3.286-2.067-4.376
	c-0.952-0.751-2.561-1.464-4.793-2.14H70.578z M50.489,48l-1.999-0.505c-3.945-0.993-6.511-1.932-7.695-2.813
	c-1.188-0.881-1.78-2.252-1.78-4.112c0-2.34,1.002-4.136,3.006-5.387s4.416-1.875,7.239-1.875c3.878,0,6.853,0.673,8.921,2.02
	c2.067,1.347,3.165,3.559,3.294,6.637h8.369c-0.191-4.713-1.947-8.585-5.267-11.615c-3.318-3.031-8.088-4.545-14.309-4.545
	c-5.835,0-10.565,1.475-14.188,4.425c-3.623,2.95-5.434,6.958-5.434,12.024c0,2.194,0.456,4.105,1.347,5.748H50.489z M79.833,50.5
	h-52.5c-1.381,0-2.5,1.119-2.5,2.5s1.119,2.5,2.5,2.5h52.5c1.381,0,2.5-1.119,2.5-2.5S81.214,50.5,79.833,50.5z"/>
</svg>
