<?xml version="1.0" encoding="utf-8"?>
<!-- Generator: Adobe Illustrator 16.0.0, SVG Export Plug-In . SVG Version: 6.00 Build 0)  -->
<!DOCTYPE svg PUBLIC "-//W3C//DTD SVG 1.1//EN" "http://www.w3.org/Graphics/SVG/1.1/DTD/svg11.dtd">
<svg version="1.1" id="Layer_1" xmlns="http://www.w3.org/2000/svg" xmlns:xlink="http://www.w3.org/1999/xlink" x="0px" y="0px"
	 width="100px" height="100px" viewBox="0 0 100 100" enable-background="new 0 0 100 100" xml:space="preserve">
<path fill="#020202" d="M81.167,76.667h3v7.5h-7.5v-3h4.5V76.667z M34,84.167h10.668v-3H34V84.167z M55.334,84.167H66v-3H55.334
	V84.167z M18.834,76.667h-3v7.5h7.5v-3h-4.5V76.667z M18.834,55.333h-3V66h3V55.333z M18.834,34h-3v10.667h3V34z M15.834,23.333h3
	v-4.5h4.5v-3h-7.5V23.333z M44.667,15.833H34v3h10.667V15.833z M66,15.833H55.334v3H66V15.833z M76.667,15.833v3h4.5v4.5h3v-7.5
	H76.667z M81.167,66h3V55.333h-3V66z M81.167,44.667h3V34h-3V44.667z M69.604,31.229c-1.895-1.894-4.965-1.894-6.86,0L50,43.972
	L37.257,31.229c-1.896-1.894-4.966-1.894-6.86,0c-1.896,1.895-1.896,4.967,0,6.862l12.741,12.742L30.396,63.575
	c-1.896,1.896-1.896,4.967,0,6.862c0.947,0.947,2.188,1.421,3.43,1.421c1.242,0,2.483-0.474,3.431-1.421L50,57.694l12.743,12.743
	c0.947,0.947,2.188,1.421,3.431,1.421c1.241,0,2.482-0.474,3.43-1.421c1.896-1.895,1.896-4.967,0-6.862L56.862,50.833l12.741-12.742
	C71.499,36.195,71.499,33.124,69.604,31.229z"/>
</svg>
