<?xml version="1.0" encoding="iso-8859-1"?>
<!-- Generator: Adobe Illustrator 18.0.0, SVG Export Plug-In . SVG Version: 6.00 Build 0)  -->
<!DOCTYPE svg PUBLIC "-//W3C//DTD SVG 1.1//EN" "http://www.w3.org/Graphics/SVG/1.1/DTD/svg11.dtd">
<svg version="1.1" id="Capa_1" xmlns="http://www.w3.org/2000/svg" xmlns:xlink="http://www.w3.org/1999/xlink" x="0px" y="0px"
	 viewBox="0 0 26 22" style="enable-background:new 0 0 26 22;" xml:space="preserve">
<g>
	<path style="fill-rule:evenodd;clip-rule:evenodd;" d="M13,20c-3.107,0-5.846-1.575-7.464-3.969H3.215C5.042,19.576,8.738,22,13,22
		c5.738,0,10.45-4.394,10.955-10H26l-3-4l-3,4h1.945C21.448,16.5,17.633,20,13,20z"/>
	<path style="fill-rule:evenodd;clip-rule:evenodd;" d="M13,0C7.608,0,3.122,3.88,2.181,9H0l3,4l3-4H4.223C5.132,4.992,8.717,2,13,2
		c2.707,0,5.134,1.195,6.784,3.086l0.386-0.099h2.042C20.248,1.984,16.856,0,13,0z"/>
</g>
<g>
</g>
<g>
</g>
<g>
</g>
<g>
</g>
<g>
</g>
<g>
</g>
<g>
</g>
<g>
</g>
<g>
</g>
<g>
</g>
<g>
</g>
<g>
</g>
<g>
</g>
<g>
</g>
<g>
</g>
</svg>
