<?xml version="1.0" encoding="iso-8859-1"?>
<!-- Generator: Adobe Illustrator 18.0.0, SVG Export Plug-In . SVG Version: 6.00 Build 0)  -->
<!DOCTYPE svg PUBLIC "-//W3C//DTD SVG 1.1//EN" "http://www.w3.org/Graphics/SVG/1.1/DTD/svg11.dtd">
<svg version="1.1" id="Capa_1" xmlns="http://www.w3.org/2000/svg" xmlns:xlink="http://www.w3.org/1999/xlink" x="0px" y="0px"
	 viewBox="0 0 22 22" style="enable-background:new 0 0 22 22;" xml:space="preserve">
<g>
	<path style="fill-rule:evenodd;clip-rule:evenodd;" d="M11.615,2.021l0.203-0.344l1.444-1.444C9.75-0.501,5.948,0.495,3.222,3.222
		C-0.591,7.035-1.02,12.95,1.936,17.236l-1.542,1.542l4.95,0.707l-0.707-4.95L3.38,15.792C1.188,12.315,1.607,7.665,4.636,4.636
		C6.55,2.722,9.111,1.85,11.615,2.021z"/>
	<path style="fill-rule:evenodd;clip-rule:evenodd;" d="M20.899,2.515l-4.95-0.707l0.707,4.95l1.375-1.375
		c2.83,3.534,2.607,8.706-0.668,11.982c-2.197,2.197-5.248,3.021-8.084,2.471l-1.641,1.641c3.798,1.215,8.126,0.316,11.14-2.698
		c4.057-4.057,4.283-10.496,0.676-14.818L20.899,2.515z"/>
</g>
<g>
</g>
<g>
</g>
<g>
</g>
<g>
</g>
<g>
</g>
<g>
</g>
<g>
</g>
<g>
</g>
<g>
</g>
<g>
</g>
<g>
</g>
<g>
</g>
<g>
</g>
<g>
</g>
<g>
</g>
</svg>
