<?xml version="1.0" encoding="utf-8"?>
<!-- Generator: Adobe Illustrator 16.0.0, SVG Export Plug-In . SVG Version: 6.00 Build 0)  -->
<!DOCTYPE svg PUBLIC "-//W3C//DTD SVG 1.1//EN" "http://www.w3.org/Graphics/SVG/1.1/DTD/svg11.dtd">
<svg version="1.1" id="Layer_1" xmlns="http://www.w3.org/2000/svg" xmlns:xlink="http://www.w3.org/1999/xlink" x="0px" y="0px"
	 width="100px" height="100px" viewBox="0 0 100 100" enable-background="new 0 0 100 100" xml:space="preserve">
<path fill="#020202" d="M86.636,49.329c0,13.23-10.763,23.993-23.993,23.993H46.974l10.792,10.792c1.159,1.159,1.159,3.044,0,4.203
	c-1.122,1.123-3.081,1.123-4.203,0L37.696,72.451c-0.562-0.561-0.871-1.308-0.871-2.102s0.31-1.541,0.871-2.102l15.866-15.866
	c1.122-1.123,3.08-1.125,4.204,0c1.159,1.159,1.159,3.044,0,4.203L46.974,67.376h15.669c9.952,0,18.048-8.096,18.048-18.048
	c0-8.522-5.944-15.667-13.9-17.548c0.355-0.628,0.561-1.333,0.561-2.074c0-1.135-0.442-2.201-1.244-3.002l-1.264-1.264
	C77.045,26.556,86.636,36.841,86.636,49.329z M32.649,70.294c0-0.742,0.206-1.446,0.561-2.074c-7.956-1.881-13.9-9.026-13.9-17.548
	c0-9.951,8.096-18.048,18.048-18.048l15.668,0L42.235,43.416c-1.159,1.159-1.159,3.045,0,4.204c1.124,1.125,3.082,1.123,4.204,0
	l15.866-15.866c0.562-0.561,0.871-1.308,0.871-2.102c0-0.794-0.31-1.541-0.871-2.102L46.438,11.684
	c-1.122-1.123-3.081-1.123-4.203,0c-1.159,1.159-1.159,3.044,0,4.203l10.791,10.792l-15.668,0c-13.23,0-23.993,10.763-23.993,23.993
	c0,12.487,9.591,22.773,21.792,23.889l-1.264-1.264C33.091,72.495,32.649,71.429,32.649,70.294z"/>
</svg>
