<?xml version="1.0" encoding="utf-8"?>
<!-- Generator: Adobe Illustrator 16.0.0, SVG Export Plug-In . SVG Version: 6.00 Build 0)  -->
<!DOCTYPE svg PUBLIC "-//W3C//DTD SVG 1.1//EN" "http://www.w3.org/Graphics/SVG/1.1/DTD/svg11.dtd">
<svg version="1.1" id="Layer_1" xmlns="http://www.w3.org/2000/svg" xmlns:xlink="http://www.w3.org/1999/xlink" x="0px" y="0px"
	 width="100px" height="100px" viewBox="0 0 100 100" enable-background="new 0 0 100 100" xml:space="preserve">
<path fill="#020202" d="M81.167,76.667h3v7.5h-7.5v-3h4.5V76.667z M34,84.167h10.668v-3H34V84.167z M55.334,84.167H66v-3H55.334
	V84.167z M18.834,76.667h-3v7.5h7.5v-3h-4.5V76.667z M18.834,55.333h-3V66h3V55.333z M18.834,34h-3v10.667h3V34z M15.834,23.333h3
	v-4.5h4.5v-3h-7.5V23.333z M44.667,15.833H34v3h10.667V15.833z M55.334,18.833H66v-3H55.334V18.833z M76.667,15.833v3h4.5v4.5h3
	v-7.5H76.667z M81.167,66h3V55.333h-3V66z M81.167,44.667h3V34h-3V44.667z M44.72,63.221c-6.663,0-12.084-5.421-12.084-12.084
	c0-6.574,5.279-11.929,11.82-12.071l-3.349,5.39c-0.784,1.26-0.396,2.916,0.863,3.698c0.441,0.274,0.931,0.405,1.415,0.405
	c0.896,0,1.774-0.45,2.282-1.269l7.122-11.462c0.377-0.605,0.496-1.334,0.335-2.028c-0.163-0.693-0.593-1.294-1.198-1.67
	l-11.463-7.12c-1.258-0.782-2.915-0.397-3.698,0.864c-0.783,1.26-0.396,2.916,0.864,3.698l6.65,4.131
	c-9.42,0.237-17.016,7.957-17.016,17.434c0,9.625,7.831,17.455,17.455,17.455c1.483,0,2.686-1.202,2.686-2.685
	C47.405,64.423,46.203,63.221,44.72,63.221z M75.543,48.864c0-9.625-7.831-17.455-17.455-17.455c-1.483,0-2.686,1.202-2.686,2.685
	c0,1.483,1.202,2.686,2.686,2.686c6.663,0,12.084,5.421,12.084,12.084c0,6.574-5.279,11.929-11.82,12.071l3.349-5.39
	c0.784-1.26,0.396-2.916-0.863-3.698c-0.441-0.274-0.931-0.405-1.415-0.405c-0.896,0-1.775,0.45-2.283,1.269l-7.121,11.462
	c-0.377,0.605-0.496,1.334-0.335,2.028c0.163,0.693,0.593,1.294,1.198,1.67l11.463,7.12c1.258,0.782,2.915,0.397,3.698-0.864
	c0.782-1.26,0.396-2.916-0.864-3.698l-6.65-4.131C67.947,66.061,75.543,58.341,75.543,48.864z"/>
</svg>
