<?xml version="1.0" encoding="utf-8"?>
<!-- Generator: Adobe Illustrator 16.0.0, SVG Export Plug-In . SVG Version: 6.00 Build 0)  -->
<!DOCTYPE svg PUBLIC "-//W3C//DTD SVG 1.1//EN" "http://www.w3.org/Graphics/SVG/1.1/DTD/svg11.dtd">
<svg version="1.1" id="Layer_3" xmlns="http://www.w3.org/2000/svg" xmlns:xlink="http://www.w3.org/1999/xlink" x="0px" y="0px"
	 width="100px" height="100px" viewBox="0 0 100 100" enable-background="new 0 0 100 100" xml:space="preserve">
<path d="M22.438,77.562c15.197,15.197,39.926,15.197,55.123,0s15.197-39.926,0-55.123s-39.926-15.197-55.123,0
	S7.241,62.364,22.438,77.562z M25.462,25.461c13.531-13.531,35.547-13.531,49.078,0c13.529,13.53,13.529,35.547,0,49.078
	c-13.531,13.53-35.549,13.53-49.078,0C11.931,61.008,11.931,38.991,25.462,25.461z M41.674,27.117
	c1.477-0.331,3.189-0.507,4.955-0.507c3.859,0,12.759,0.924,18.903,8.666l0.021-0.021l3.984-9.189
	c0.135-0.308,0.457-0.489,0.789-0.442c0.166,0.023,0.313,0.101,0.426,0.212c0.113,0.113,0.189,0.264,0.211,0.432l2.992,22.889
	c0.029,0.229-0.047,0.461-0.213,0.625c-0.163,0.163-0.396,0.242-0.625,0.213l-22.889-2.993c-0.334-0.042-0.596-0.304-0.643-0.636
	c-0.047-0.333,0.134-0.654,0.442-0.79l9.19-3.984l0.82-0.82c-3.938-5.565-9.898-6.459-13.273-6.459c-2,0-3.37,0.296-3.428,0.308
	c-0.187,0.041-0.374-0.076-0.414-0.265l-1.516-6.821C41.366,27.346,41.485,27.159,41.674,27.117z M58.938,72.884
	c-1.477,0.331-3.189,0.507-4.955,0.507c-3.859,0-12.759-0.924-18.903-8.666l-0.021,0.021l-3.984,9.189
	c-0.135,0.308-0.457,0.489-0.789,0.442c-0.166-0.023-0.313-0.101-0.426-0.212c-0.113-0.113-0.189-0.264-0.211-0.432l-2.992-22.889
	c-0.029-0.229,0.047-0.461,0.213-0.625c0.163-0.163,0.396-0.242,0.625-0.213L50.383,53c0.334,0.042,0.596,0.304,0.643,0.636
	c0.047,0.333-0.134,0.654-0.442,0.79l-9.19,3.984l-0.82,0.82c3.938,5.565,9.898,6.459,13.273,6.459c2,0,3.37-0.296,3.428-0.308
	c0.187-0.041,0.374,0.076,0.414,0.265l1.516,6.821C59.245,72.655,59.126,72.842,58.938,72.884z"/>
</svg>
