<?xml version="1.0" encoding="iso-8859-1"?>
<!-- Generator: Adobe Illustrator 18.0.0, SVG Export Plug-In . SVG Version: 6.00 Build 0)  -->
<!DOCTYPE svg PUBLIC "-//W3C//DTD SVG 1.1//EN" "http://www.w3.org/Graphics/SVG/1.1/DTD/svg11.dtd">
<svg version="1.1" id="Capa_1" xmlns="http://www.w3.org/2000/svg" xmlns:xlink="http://www.w3.org/1999/xlink" x="0px" y="0px"
	 viewBox="0 0 16 22" style="enable-background:new 0 0 16 22;" xml:space="preserve">
<g>
	<path style="fill-rule:evenodd;clip-rule:evenodd;" d="M10,4c0,0,1,0.071,1-0.974c0-1.045-1-1.018-1-1.018S10.037,0,8,0
		S6,2.008,6,2.008S5,2.051,5,3.026C5,4,6,4,6,4H10z M8,1c0.552,0,1,0.448,1,1S8.552,3,8,3C7.448,3,7,2.552,7,2S7.448,1,8,1z"/>
	<path style="fill-rule:evenodd;clip-rule:evenodd;" d="M2.192,2.971h1.78V2h-1.78C2.192,2,0,2,0,4.174c0,6.293,0,15.652,0,15.652
		C0,22,2.192,22,2.192,22h11.616c0,0,2.192,0,2.192-2.174V4.174C16,2,13.808,2,13.808,2h-1.779v0.971h1.779
		c0,0,1.232,0.116,1.232,1.203v15.652c0,1.199-1.232,1.229-1.232,1.229H2.192c0,0-1.219-0.142-1.219-1.229V4.174
		C0.972,3.087,2.192,2.971,2.192,2.971z"/>
</g>
<g>
</g>
<g>
</g>
<g>
</g>
<g>
</g>
<g>
</g>
<g>
</g>
<g>
</g>
<g>
</g>
<g>
</g>
<g>
</g>
<g>
</g>
<g>
</g>
<g>
</g>
<g>
</g>
<g>
</g>
</svg>
