<?xml version="1.0" encoding="utf-8"?>
<!-- Generator: Adobe Illustrator 16.0.0, SVG Export Plug-In . SVG Version: 6.00 Build 0)  -->
<!DOCTYPE svg PUBLIC "-//W3C//DTD SVG 1.1//EN" "http://www.w3.org/Graphics/SVG/1.1/DTD/svg11.dtd">
<svg version="1.1" id="Layer_1" xmlns="http://www.w3.org/2000/svg" xmlns:xlink="http://www.w3.org/1999/xlink" x="0px" y="0px"
	 width="100px" height="100px" viewBox="0 0 100 100" enable-background="new 0 0 100 100" xml:space="preserve">
<path fill="#020202" d="M20.904,80.329h27.678v2.723H20.904c-1.752,0-3.178-1.425-3.178-3.177V16.334
	c0-1.752,1.426-3.177,3.178-3.177h10.171l-0.367,1.656c-0.031,0.139-0.046,0.266-0.046,0.386v7.262c0,1.001,0.814,1.815,1.815,1.815
	h24.962c1.001,0,1.816-0.814,1.816-1.815v-7.262c0-0.121-0.016-0.247-0.047-0.386l-0.367-1.656h10.172
	c1.752,0,3.177,1.425,3.177,3.177v29.163l-0.354-0.308h-2.369V16.334c0-0.25-0.203-0.454-0.453-0.454h-7.035v6.581
	c0,2.502-2.036,4.539-4.539,4.539H32.478c-2.503,0-4.539-2.036-4.539-4.539V15.88h-7.034c-0.25,0-0.454,0.204-0.454,0.454v63.541
	C20.45,80.125,20.654,80.329,20.904,80.329z M33.974,22.571h21.97c0.883,0,1.598-0.715,1.598-1.598v-6.391
	c0-0.883-0.715-1.598-1.598-1.598h-5.991c0-2.647-2.249-4.793-5.021-4.793c-2.774,0-5.022,2.146-5.022,4.793h-5.935
	c-0.883,0-1.597,0.715-1.597,1.598v6.391C32.377,21.855,33.091,22.571,33.974,22.571z M82.273,54.616v34.826
	c0,1.306-1.062,2.367-2.366,2.367H52.576c-1.305,0-2.366-1.062-2.366-2.367V49.326c0-1.306,1.062-2.367,2.366-2.367h20.889
	L82.273,54.616z M74.006,54.002h4.934l-4.934-4.289V54.002z M80.549,55.727H72.28v-7.044H52.576c-0.354,0-0.642,0.288-0.642,0.643
	v40.116c0,0.354,0.287,0.643,0.642,0.643h27.331c0.354,0,0.642-0.288,0.642-0.643V55.727z M54.813,63.921
	c0,0.714,0.581,1.293,1.293,1.293h20.27c0.713,0,1.294-0.579,1.294-1.293c0-0.715-0.581-1.295-1.294-1.295h-20.27
	C55.395,62.626,54.813,63.206,54.813,63.921z M76.376,70.246h-20.27c-0.712,0-1.293,0.579-1.293,1.294
	c0,0.714,0.581,1.293,1.293,1.293h20.27c0.713,0,1.294-0.579,1.294-1.293C77.67,70.825,77.089,70.246,76.376,70.246z M76.376,77.473
	h-20.27c-0.712,0-1.293,0.58-1.293,1.294s0.581,1.293,1.293,1.293h20.27c0.713,0,1.294-0.579,1.294-1.293
	S77.089,77.473,76.376,77.473z"/>
</svg>
