<?xml version="1.0" encoding="utf-8"?>
<!-- Generator: Adobe Illustrator 16.0.0, SVG Export Plug-In . SVG Version: 6.00 Build 0)  -->
<!DOCTYPE svg PUBLIC "-//W3C//DTD SVG 1.1//EN" "http://www.w3.org/Graphics/SVG/1.1/DTD/svg11.dtd">
<svg version="1.1" id="Layer_1" xmlns="http://www.w3.org/2000/svg" xmlns:xlink="http://www.w3.org/1999/xlink" x="0px" y="0px"
	 width="100px" height="100px" viewBox="0 0 100 100" enable-background="new 0 0 100 100" xml:space="preserve">
<path fill="#020202" d="M74.055,17.535L74.055,17.535H63.883l0.367,1.656c0.031,0.139,0.047,0.266,0.047,0.386v7.262
	c0,1.001-0.815,1.815-1.816,1.815H37.519c-1.001,0-1.815-0.814-1.815-1.815v-7.262c0-0.121,0.015-0.247,0.046-0.386l0.367-1.656
	H25.946c-1.752,0-3.178,1.425-3.178,3.177v63.541c0,1.752,1.426,3.177,3.178,3.177h20.431h7.247h20.431
	c1.752,0,3.178-1.425,3.178-3.177V49.875V20.712C77.232,18.96,75.807,17.535,74.055,17.535z M37.418,25.352V18.96
	c0-0.883,0.714-1.598,1.597-1.598h5.935c0-2.647,2.248-4.793,5.022-4.793c2.772,0,5.021,2.146,5.021,4.793h5.991
	c0.883,0,1.598,0.715,1.598,1.598v6.391c0,0.882-0.715,1.598-1.598,1.598h-21.97C38.132,26.949,37.418,26.234,37.418,25.352z"/>
</svg>
