<?xml version="1.0" encoding="utf-8"?>
<!-- Generator: Adobe Illustrator 16.0.0, SVG Export Plug-In . SVG Version: 6.00 Build 0)  -->
<!DOCTYPE svg PUBLIC "-//W3C//DTD SVG 1.1//EN" "http://www.w3.org/Graphics/SVG/1.1/DTD/svg11.dtd">
<svg version="1.1" id="Layer_1" xmlns="http://www.w3.org/2000/svg" xmlns:xlink="http://www.w3.org/1999/xlink" x="0px" y="0px"
	 width="100px" height="100px" viewBox="0 0 100 100" enable-background="new 0 0 100 100" xml:space="preserve">
<path fill="#020202" d="M77.732,20.712v28.77H41.839V87.43H26.446c-1.752,0-3.178-1.425-3.178-3.177V20.712
	c0-1.752,1.426-3.177,3.178-3.177h10.171l-0.367,1.656c-0.031,0.139-0.046,0.266-0.046,0.386v7.262c0,1.001,0.814,1.815,1.815,1.815
	h24.962c1.001,0,1.816-0.814,1.816-1.815v-7.262c0-0.121-0.016-0.247-0.047-0.386l-0.367-1.656h10.171h0.001
	C76.308,17.535,77.732,18.96,77.732,20.712z M39.516,26.949h21.97c0.883,0,1.598-0.715,1.598-1.598V18.96
	c0-0.883-0.715-1.598-1.598-1.598h-5.991c0-2.647-2.249-4.793-5.021-4.793c-2.774,0-5.022,2.146-5.022,4.793h-5.935
	c-0.883,0-1.597,0.715-1.597,1.598v6.391C37.919,26.234,38.633,26.949,39.516,26.949z M45.506,52.482H77.5v39.494H45.506V52.482z
	 M47.506,89.977H75.5V54.482H47.506V89.977z M68.176,65.482h4.177v4.177v0.991v3.159v1.019v3.159v0.99v3.187v0.991v4.149h-5.167
	v-4.149v-0.991v-3.187L55.672,78.98v3.184v0.991v4.149h-5.141v-4.149v-0.991v-3.159v-1.018v-3.159v-0.991V70.65v-0.991V65.51h4.149
	v-4.177h4.177v-4.177h5.141v4.123h4.177V65.482z M67.185,66.446h-4.178v-4.123h-3.186V66.5h-4.149v3.159v0.991v3.187l11.513-0.002
	V70.65v-0.991V66.446z"/>
</svg>
