<?xml version="1.0" encoding="iso-8859-1"?>
<!-- Generator: Adobe Illustrator 18.0.0, SVG Export Plug-In . SVG Version: 6.00 Build 0)  -->
<!DOCTYPE svg PUBLIC "-//W3C//DTD SVG 1.1//EN" "http://www.w3.org/Graphics/SVG/1.1/DTD/svg11.dtd">
<svg version="1.1" id="Capa_1" xmlns="http://www.w3.org/2000/svg" xmlns:xlink="http://www.w3.org/1999/xlink" x="0px" y="0px"
	 viewBox="0 0 20 22" style="enable-background:new 0 0 20 22;" xml:space="preserve">
<g>
	<path style="fill-rule:evenodd;clip-rule:evenodd;" d="M12,8.905v-6.81C12,2.095,12,0,10,0S8,2.095,8,2.095v6.81
		C8,8.905,8,11,10,11S12,8.905,12,8.905z M9,8.941V2.059C9,2.059,9,1,10,1s1,1.059,1,1.059v6.882c0,0,0,1.059-1,1.059
		S9,8.941,9,8.941z"/>
	<path style="fill-rule:evenodd;clip-rule:evenodd;" d="M4.773,3C1.91,4.804,0,8.046,0,11.745C0,17.408,4.477,22,10,22
		s10-4.592,10-10.255c0-3.621-1.83-6.804-4.594-8.629l-1.362,4.362c1.15,1.088,1.87,2.646,1.87,4.377c0,3.289-2.6,5.955-5.806,5.955
		c-3.207,0-5.807-2.666-5.807-5.955c0-1.731,0.72-3.289,1.87-4.377L4.773,3z M10.108,18.815c3.833,0,6.94-3.081,6.94-6.883
		c0-1.793-0.692-3.427-1.825-4.652l0.669-2.203C17.796,6.741,19,9.195,19,11.932C19,16.94,14.971,21,10,21s-9-4.06-9-9.068
		C1,9.152,2.242,6.663,4.198,5l0.745,2.336c-1.103,1.219-1.774,2.83-1.774,4.596C3.169,15.733,6.276,18.815,10.108,18.815z"/>
</g>
<g>
</g>
<g>
</g>
<g>
</g>
<g>
</g>
<g>
</g>
<g>
</g>
<g>
</g>
<g>
</g>
<g>
</g>
<g>
</g>
<g>
</g>
<g>
</g>
<g>
</g>
<g>
</g>
<g>
</g>
</svg>
