<?xml version="1.0" encoding="utf-8"?>
<!-- Generator: Adobe Illustrator 16.0.0, SVG Export Plug-In . SVG Version: 6.00 Build 0)  -->
<!DOCTYPE svg PUBLIC "-//W3C//DTD SVG 1.1//EN" "http://www.w3.org/Graphics/SVG/1.1/DTD/svg11.dtd">
<svg version="1.1" id="Layer_1" xmlns="http://www.w3.org/2000/svg" xmlns:xlink="http://www.w3.org/1999/xlink" x="0px" y="0px"
	 width="100px" height="100px" viewBox="0 0 100 100" enable-background="new 0 0 100 100" xml:space="preserve">
<path fill="#020202" d="M87.944,50c0,3.668-2.973,6.641-6.642,6.641l-24.662,0v24.662c0,3.669-2.973,6.642-6.641,6.641
	c-1.834,0-3.494-0.743-4.695-1.944c-1.202-1.202-1.945-2.862-1.944-4.695L43.359,56.64l-24.664,0c-1.833,0-3.492-0.742-4.695-1.945
	c-1.2-1.201-1.943-2.861-1.943-4.694c-0.001-3.668,2.972-6.641,6.641-6.641h24.662V18.697c0-3.668,2.974-6.642,6.642-6.642
	c3.667,0.001,6.638,2.972,6.64,6.64V43.36h24.664C84.973,43.362,87.942,46.333,87.944,50z"/>
</svg>
