<?xml version="1.0" encoding="utf-8"?>
<!-- Generator: Adobe Illustrator 16.0.0, SVG Export Plug-In . SVG Version: 6.00 Build 0)  -->
<!DOCTYPE svg PUBLIC "-//W3C//DTD SVG 1.1//EN" "http://www.w3.org/Graphics/SVG/1.1/DTD/svg11.dtd">
<svg version="1.1" id="Layer_1" xmlns="http://www.w3.org/2000/svg" xmlns:xlink="http://www.w3.org/1999/xlink" x="0px" y="0px"
	 width="100px" height="100px" viewBox="0 0 100 100" enable-background="new 0 0 100 100" xml:space="preserve">
<path fill="#020202" d="M20.484,79.5h59v-59h-59V79.5z M22.484,22.5h55v55h-55V22.5z M88.868,21v1h-8v-1H88.868z M79.285,19h-1v-8h1
	V19z M11.181,21h8v1h-8V21z M21.764,19h-1v-8h1V19z M80.818,78h8v1h-8V78z M78.235,81h1v8h-1V81z M11.131,78h8v1h-8V78z M20.714,81
	h1v8h-1V81z M24.623,50l5.127-5.126v10.253L24.623,50z M69.373,44.874L74.5,50l-5.127,5.126V44.874z M50,25.062l5.127,5.127H44.873
	L50,25.062z M44.873,69.812h10.254L50,74.938L44.873,69.812z"/>
</svg>
