<?xml version="1.0" encoding="iso-8859-1"?>
<!-- Generator: Adobe Illustrator 18.0.0, SVG Export Plug-In . SVG Version: 6.00 Build 0)  -->
<!DOCTYPE svg PUBLIC "-//W3C//DTD SVG 1.1//EN" "http://www.w3.org/Graphics/SVG/1.1/DTD/svg11.dtd">
<svg version="1.1" id="Capa_1" xmlns="http://www.w3.org/2000/svg" xmlns:xlink="http://www.w3.org/1999/xlink" x="0px" y="0px"
	 viewBox="0 0 12 22" style="enable-background:new 0 0 12 22;" xml:space="preserve">
<g>
	<path style="fill-rule:evenodd;clip-rule:evenodd;" d="M7,0H5C4,0,4,1.503,3.97,1.503V2H2.182C2.182,2,0,2,0,4.105v15.79
		C0,21.983,2.182,22,2.182,22h7.636c0,0,2.182,0,2.182-2.105V4.105C12,2,9.818,2,9.818,2H8V1.503C8,1.503,8,0,7,0z M9.111,4
		C9.111,4,10,4,10,4.941v14.118C10,20,9.111,20,9.111,20H2.889C2.889,20,2,20,2,19.059V4.941C2,3.971,2.889,4,2.889,4H9.111z"/>
	<rect x="3" y="12" style="fill-rule:evenodd;clip-rule:evenodd;" width="6" height="7"/>
</g>
<g>
</g>
<g>
</g>
<g>
</g>
<g>
</g>
<g>
</g>
<g>
</g>
<g>
</g>
<g>
</g>
<g>
</g>
<g>
</g>
<g>
</g>
<g>
</g>
<g>
</g>
<g>
</g>
<g>
</g>
</svg>
