<?xml version="1.0" encoding="utf-8"?>
<!-- Generator: Adobe Illustrator 16.0.0, SVG Export Plug-In . SVG Version: 6.00 Build 0)  -->
<!DOCTYPE svg PUBLIC "-//W3C//DTD SVG 1.1//EN" "http://www.w3.org/Graphics/SVG/1.1/DTD/svg11.dtd">
<svg version="1.1" id="Layer_1" xmlns="http://www.w3.org/2000/svg" xmlns:xlink="http://www.w3.org/1999/xlink" x="0px" y="0px"
	 width="100px" height="100px" viewBox="0 0 100 100" enable-background="new 0 0 100 100" xml:space="preserve">
<path fill="#020202" d="M84.268,29.75v54c0,4.411-3.589,8-8,8h-36.5c-4.411,0-8-3.589-8-8V48.638c1.141,0.19,2.305,0.313,3.5,0.313
	c0.847,0,1.679-0.063,2.5-0.16V83.75c0,1.103,0.897,2,2,2h36.5c1.103,0,2-0.897,2-2v-54c0-1.103-0.897-2-2-2H56.469
	c0-2.086-0.313-4.096-0.875-6h20.674C80.679,21.75,84.268,25.339,84.268,29.75z M34.934,46.319
	c-10.404,0-18.868-8.464-18.868-18.868S24.53,8.583,34.934,8.583s18.868,8.464,18.868,18.868S45.338,46.319,34.934,46.319z
	 M34.934,42.319c8.198,0,14.868-6.669,14.868-14.868s-6.669-14.868-14.868-14.868s-14.868,6.669-14.868,14.868
	S26.736,42.319,34.934,42.319z M46.25,29.451c1.104,0,2-0.896,2-2s-0.896-2-2-2h-9.316v-7.851c0-1.104-0.896-2-2-2s-2,0.896-2,2
	v9.851c0,1.104,0.896,2,2,2H46.25z M69.333,45.667H47.667c-1.104,0-2,0.896-2,2s0.896,2,2,2h21.667c1.104,0,2-0.896,2-2
	S70.438,45.667,69.333,45.667z M69.369,57.799H47.702c-1.104,0-2,0.896-2,2s0.896,2,2,2h21.667c1.104,0,2-0.896,2-2
	S70.474,57.799,69.369,57.799z M69.369,70.433H47.702c-1.104,0-2,0.896-2,2s0.896,2,2,2h21.667c1.104,0,2-0.896,2-2
	S70.474,70.433,69.369,70.433z"/>
</svg>
