<?xml version="1.0" encoding="utf-8"?>
<!-- Generator: Adobe Illustrator 16.0.0, SVG Export Plug-In . SVG Version: 6.00 Build 0)  -->
<!DOCTYPE svg PUBLIC "-//W3C//DTD SVG 1.1//EN" "http://www.w3.org/Graphics/SVG/1.1/DTD/svg11.dtd">
<svg version="1.1" id="Layer_1" xmlns="http://www.w3.org/2000/svg" xmlns:xlink="http://www.w3.org/1999/xlink" x="0px" y="0px"
	 width="100px" height="100px" viewBox="0 0 100 100" enable-background="new 0 0 100 100" xml:space="preserve">
<path fill="#020202" d="M89.676,83.977L57.449,51.749c7.708-10.47,6.857-25.308-2.611-34.776c-10.439-10.439-27.425-10.439-37.864,0
	s-10.439,27.425,0,37.864c9.468,9.469,24.306,10.319,34.776,2.612l32.227,32.227c1.573,1.574,4.125,1.574,5.699,0
	S91.25,85.549,89.676,83.977z M49.139,49.138c-7.296,7.296-19.169,7.296-26.466,0c-7.296-7.296-7.296-19.169,0-26.465
	c7.297-7.297,19.169-7.297,26.466,0C56.435,29.969,56.435,41.842,49.139,49.138z M47.274,33.032c1.505,0,2.726,1.22,2.726,2.726
	s-1.221,2.727-2.726,2.727H24.243c-1.506,0-2.727-1.221-2.727-2.727s1.221-2.726,2.727-2.726H47.274z"/>
</svg>
