<?xml version="1.0" encoding="iso-8859-1"?>
<!-- Generator: Adobe Illustrator 18.0.0, SVG Export Plug-In . SVG Version: 6.00 Build 0)  -->
<!DOCTYPE svg PUBLIC "-//W3C//DTD SVG 1.1//EN" "http://www.w3.org/Graphics/SVG/1.1/DTD/svg11.dtd">
<svg version="1.1" id="Capa_1" xmlns="http://www.w3.org/2000/svg" xmlns:xlink="http://www.w3.org/1999/xlink" x="0px" y="0px"
	 viewBox="0 0 15.989 15.989" style="enable-background:new 0 0 15.989 15.989;" xml:space="preserve">
<g id="Zoom_-">
	<g>
		<path style="fill-rule:evenodd;clip-rule:evenodd;" d="M15.629,13.888L12.74,11C13.532,9.865,14,8.488,14,7c0-3.866-3.134-7-7-7
			C3.134,0,0,3.134,0,7c0,3.866,3.134,7,7,7c1.488,0,2.865-0.468,4-1.26l2.888,2.888c0.481,0.481,1.26,0.481,1.741,0
			C16.109,15.148,16.109,14.369,15.629,13.888z M7,12c-2.761,0-5-2.239-5-5c0-2.761,2.239-5,5-5s5,2.239,5,5C12,9.761,9.761,12,7,12
			z M4,8h6V6H4V8z"/>
	</g>
</g>
<g>
</g>
<g>
</g>
<g>
</g>
<g>
</g>
<g>
</g>
<g>
</g>
<g>
</g>
<g>
</g>
<g>
</g>
<g>
</g>
<g>
</g>
<g>
</g>
<g>
</g>
<g>
</g>
<g>
</g>
</svg>
