<?xml version="1.0" encoding="iso-8859-1"?>
<!-- Generator: Adobe Illustrator 18.0.0, SVG Export Plug-In . SVG Version: 6.00 Build 0)  -->
<!DOCTYPE svg PUBLIC "-//W3C//DTD SVG 1.1//EN" "http://www.w3.org/Graphics/SVG/1.1/DTD/svg11.dtd">
<svg version="1.1" id="Capa_1" xmlns="http://www.w3.org/2000/svg" xmlns:xlink="http://www.w3.org/1999/xlink" x="0px" y="0px"
	 viewBox="0 0 22 13.98" style="enable-background:new 0 0 22 13.98;" xml:space="preserve">
<g>
	<path style="fill-rule:evenodd;clip-rule:evenodd;" d="M0,13.48c0,0.5,0.5,0.5,0.5,0.5h21c0,0,0.5,0,0.5-0.5s-0.5-0.5-0.5-0.5h-21
		C0.5,12.98,0,12.98,0,13.48z"/>
	<path style="fill-rule:evenodd;clip-rule:evenodd;" d="M15.445,9.983c0.105-0.001,0.264-0.014,0.507-0.048
		c0.776-0.109,2.366-0.735,3.012-1.171c0.41-0.277,1.109-0.887,1.392-1.457c0.213-0.429,0.396-1.006,0.32-1.557
		C20.6,5.199,20.27,3.745,18.769,3.553c-0.748-0.096-1.259-0.029-1.582,0.062c-0.006-0.52-0.037-1.064-0.094-1.635
		C17.057,0.885,14.161,0,10.593,0c-3.568,0-6.464,0.885-6.5,1.98h0c-0.752,7.47,3.095,10.52,6.5,10.52
		C12.315,12.5,14.149,11.72,15.445,9.983z M17.128,5.154c0.48-0.388,1.327-0.873,2.191-0.412c0.336,0.179,0.711,0.734,0.567,1.445
		c-0.145,0.711-0.989,1.489-1.651,1.803c-0.653,0.31-1.372,0.411-1.898,0.438C16.734,7.508,17.013,6.421,17.128,5.154z M10.593,1
		c3.038,0,5.5,0.448,5.5,1c0,0.552-2.462,1-5.5,1c-3.037,0-5.5-0.448-5.5-1C5.093,1.448,7.555,1,10.593,1z M5.01,3.025
		C6.145,3.609,8.22,4,10.593,4c2.382,0,4.465-0.394,5.597-0.982c0.215,5.991-2.95,8.462-5.59,8.462
		C7.961,11.48,4.798,9.011,5.01,3.025z"/>
</g>
<g>
</g>
<g>
</g>
<g>
</g>
<g>
</g>
<g>
</g>
<g>
</g>
<g>
</g>
<g>
</g>
<g>
</g>
<g>
</g>
<g>
</g>
<g>
</g>
<g>
</g>
<g>
</g>
<g>
</g>
</svg>
