<?xml version="1.0" encoding="iso-8859-1"?>
<!-- Generator: Adobe Illustrator 18.0.0, SVG Export Plug-In . SVG Version: 6.00 Build 0)  -->
<!DOCTYPE svg PUBLIC "-//W3C//DTD SVG 1.1//EN" "http://www.w3.org/Graphics/SVG/1.1/DTD/svg11.dtd">
<svg version="1.1" id="Capa_1" xmlns="http://www.w3.org/2000/svg" xmlns:xlink="http://www.w3.org/1999/xlink" x="0px" y="0px"
	 viewBox="0 0 22 13.98" style="enable-background:new 0 0 22 13.98;" xml:space="preserve">
<g>
	<path style="fill-rule:evenodd;clip-rule:evenodd;" d="M10.593,12.5c1.722,0,3.557-0.78,4.853-2.517
		c0.105-0.001,0.264-0.014,0.507-0.048c0.776-0.109,2.366-0.735,3.012-1.171c0.41-0.277,1.109-0.887,1.392-1.457
		c0.213-0.429,0.396-1.006,0.32-1.557C20.6,5.199,20.27,3.745,18.769,3.553c-0.748-0.096-1.258-0.029-1.582,0.062
		c-0.003-0.25-0.012-0.506-0.026-0.768C16.174,3.8,13.606,4.48,10.593,4.48S5.011,3.8,4.025,2.846
		C3.645,9.686,7.322,12.5,10.593,12.5z M17.128,5.154c0.48-0.388,1.327-0.873,2.191-0.412c0.336,0.179,0.711,0.734,0.567,1.445
		c-0.145,0.711-0.989,1.489-1.651,1.803c-0.653,0.31-1.372,0.411-1.898,0.438C16.734,7.508,17.013,6.421,17.128,5.154z"/>
	<path style="fill-rule:evenodd;clip-rule:evenodd;" d="M0,13.48c0,0.5,0.5,0.5,0.5,0.5h21c0,0,0.5,0,0.5-0.5s-0.5-0.5-0.5-0.5h-21
		C0.5,12.98,0,12.98,0,13.48z"/>
	<ellipse style="fill-rule:evenodd;clip-rule:evenodd;" cx="10.593" cy="2" rx="6.5" ry="2"/>
</g>
<g>
</g>
<g>
</g>
<g>
</g>
<g>
</g>
<g>
</g>
<g>
</g>
<g>
</g>
<g>
</g>
<g>
</g>
<g>
</g>
<g>
</g>
<g>
</g>
<g>
</g>
<g>
</g>
<g>
</g>
</svg>
