<?xml version="1.0" encoding="utf-8"?>
<!-- Generator: Adobe Illustrator 16.0.0, SVG Export Plug-In . SVG Version: 6.00 Build 0)  -->
<!DOCTYPE svg PUBLIC "-//W3C//DTD SVG 1.1//EN" "http://www.w3.org/Graphics/SVG/1.1/DTD/svg11.dtd">
<svg version="1.1" id="Layer_3" xmlns="http://www.w3.org/2000/svg" xmlns:xlink="http://www.w3.org/1999/xlink" x="0px" y="0px"
	 width="100px" height="100px" viewBox="0 0 100 100" enable-background="new 0 0 100 100" xml:space="preserve">
<path d="M36.729,27.949c-0.099-0.127-0.147-0.279-0.147-0.432c0-0.15,0.048-0.3,0.144-0.427c0.191-0.254,0.529-0.35,0.825-0.232
	l8.846,3.494V9.875c0-0.392,0.317-0.708,0.709-0.708l7.089-0.001c0.392,0,0.709,0.317,0.709,0.709v20.478l8.846-3.494
	c0.296-0.117,0.635-0.021,0.826,0.232c0.192,0.254,0.19,0.606-0.004,0.858L51.212,45.326c-0.134,0.175-0.342,0.276-0.562,0.276
	s-0.428-0.102-0.563-0.276L36.729,27.949z M50.563,54.674c-0.135-0.175-0.343-0.276-0.563-0.276s-0.428,0.102-0.562,0.276
	L36.079,72.051c-0.194,0.252-0.196,0.604-0.004,0.858c0.191,0.254,0.53,0.35,0.826,0.232l8.846-3.494v20.478
	c0,0.392,0.317,0.709,0.709,0.709l7.089-0.001c0.392,0,0.709-0.316,0.709-0.708V69.647l8.846,3.494
	c0.296,0.117,0.634,0.021,0.825-0.232c0.096-0.127,0.144-0.276,0.144-0.427c0-0.152-0.049-0.305-0.147-0.432L50.563,54.674z
	 M90.833,47.105c0-0.392-0.316-0.709-0.708-0.709H69.647l3.494-8.846c0.117-0.296,0.021-0.634-0.232-0.825
	c-0.127-0.096-0.276-0.144-0.427-0.144c-0.152,0-0.305,0.049-0.432,0.147L54.674,50.088c-0.175,0.135-0.276,0.343-0.276,0.563
	s0.102,0.428,0.276,0.562l17.377,13.359c0.252,0.194,0.604,0.196,0.858,0.004c0.254-0.191,0.35-0.53,0.232-0.826l-3.494-8.846
	h20.478c0.392,0,0.709-0.317,0.709-0.709L90.833,47.105z M45.603,50c0-0.22-0.102-0.428-0.276-0.562L27.949,36.079
	c-0.252-0.194-0.604-0.196-0.858-0.004c-0.254,0.191-0.35,0.53-0.232,0.826l3.494,8.846H9.875c-0.392,0-0.709,0.317-0.709,0.709
	l0.001,7.089c0,0.392,0.316,0.709,0.708,0.709h20.478L26.858,63.1c-0.117,0.296-0.021,0.634,0.232,0.825
	c0.127,0.096,0.276,0.144,0.427,0.144c0.152,0,0.305-0.049,0.432-0.147l17.377-13.358C45.501,50.428,45.603,50.22,45.603,50z"/>
</svg>
