<?xml version="1.0" encoding="iso-8859-1"?>
<!-- Generator: Adobe Illustrator 18.0.0, SVG Export Plug-In . SVG Version: 6.00 Build 0)  -->
<!DOCTYPE svg PUBLIC "-//W3C//DTD SVG 1.1//EN" "http://www.w3.org/Graphics/SVG/1.1/DTD/svg11.dtd">
<svg version="1.1" id="Capa_1" xmlns="http://www.w3.org/2000/svg" xmlns:xlink="http://www.w3.org/1999/xlink" x="0px" y="0px"
	 viewBox="0 0 16 16" style="enable-background:new 0 0 16 16;" xml:space="preserve">
<g id="Grid">
	<g>
		<path style="fill-rule:evenodd;clip-rule:evenodd;" d="M5,9H2c-1.105,0-2,0.895-2,2v3c0,1.105,0.895,2,2,2h3c1.105,0,2-0.895,2-2
			v-3C7,9.895,6.105,9,5,9z M5,13c0,0.552-0.448,1-1,1H3c-0.552,0-1-0.448-1-1v-1c0-0.552,0.448-1,1-1h1c0.552,0,1,0.448,1,1V13z
			 M14,0h-3C9.895,0,9,0.895,9,2v3c0,1.105,0.895,2,2,2h3c1.105,0,2-0.895,2-2V2C16,0.895,15.105,0,14,0z M14,4c0,0.552-0.448,1-1,1
			h-1c-0.552,0-1-0.448-1-1V3c0-0.552,0.448-1,1-1h1c0.552,0,1,0.448,1,1V4z M14,9h-3c-1.105,0-2,0.895-2,2v3c0,1.105,0.895,2,2,2h3
			c1.105,0,2-0.895,2-2v-3C16,9.895,15.105,9,14,9z M14,13c0,0.552-0.448,1-1,1h-1c-0.552,0-1-0.448-1-1v-1c0-0.552,0.448-1,1-1h1
			c0.552,0,1,0.448,1,1V13z M5,0H2C0.895,0,0,0.895,0,2v3c0,1.105,0.895,2,2,2h3c1.105,0,2-0.895,2-2V2C7,0.895,6.105,0,5,0z M5,4
			c0,0.552-0.448,1-1,1H3C2.448,5,2,4.552,2,4V3c0-0.552,0.448-1,1-1h1c0.552,0,1,0.448,1,1V4z"/>
	</g>
</g>
<g>
</g>
<g>
</g>
<g>
</g>
<g>
</g>
<g>
</g>
<g>
</g>
<g>
</g>
<g>
</g>
<g>
</g>
<g>
</g>
<g>
</g>
<g>
</g>
<g>
</g>
<g>
</g>
<g>
</g>
</svg>
