<?xml version="1.0" encoding="iso-8859-1"?>
<!-- Generator: Adobe Illustrator 18.0.0, SVG Export Plug-In . SVG Version: 6.00 Build 0)  -->
<!DOCTYPE svg PUBLIC "-//W3C//DTD SVG 1.1//EN" "http://www.w3.org/Graphics/SVG/1.1/DTD/svg11.dtd">
<svg version="1.1" id="Capa_1" xmlns="http://www.w3.org/2000/svg" xmlns:xlink="http://www.w3.org/1999/xlink" x="0px" y="0px"
	 viewBox="0 0 19 22" style="enable-background:new 0 0 19 22;" xml:space="preserve">
<g>
	<rect x="8.974" y="3.963" style="fill-rule:evenodd;clip-rule:evenodd;" width="1" height="16.037"/>
	<polygon style="fill-rule:evenodd;clip-rule:evenodd;" points="5.974,3.963 4.974,3.963 5.974,20 6.974,20 	"/>
	<polygon style="fill-rule:evenodd;clip-rule:evenodd;" points="1.973,4 0.974,4 2.974,22 15.974,22 17.974,4 16.974,4 14.974,21 
		3.974,21 	"/>
	<polygon style="fill-rule:evenodd;clip-rule:evenodd;" points="12.974,3.963 11.974,20 12.974,20 13.974,3.963 	"/>
	<path style="fill-rule:evenodd;clip-rule:evenodd;" d="M19,2c0-1-0.501-1-0.501-1h-6.525c0,0,0-1-1-1h-3c-1,0-1,1-1,1H0.501
		C0.501,1,0,1,0,2c0,1,0.501,1,0.501,1h17.998C18.499,3,19,3,19,2z"/>
</g>
<g>
</g>
<g>
</g>
<g>
</g>
<g>
</g>
<g>
</g>
<g>
</g>
<g>
</g>
<g>
</g>
<g>
</g>
<g>
</g>
<g>
</g>
<g>
</g>
<g>
</g>
<g>
</g>
<g>
</g>
</svg>
