<?xml version="1.0" encoding="utf-8"?>
<!-- Generator: Adobe Illustrator 16.0.0, SVG Export Plug-In . SVG Version: 6.00 Build 0)  -->
<!DOCTYPE svg PUBLIC "-//W3C//DTD SVG 1.1//EN" "http://www.w3.org/Graphics/SVG/1.1/DTD/svg11.dtd">
<svg version="1.1" id="Layer_3" xmlns="http://www.w3.org/2000/svg" xmlns:xlink="http://www.w3.org/1999/xlink" x="0px" y="0px"
	 width="100px" height="100px" viewBox="0 0 100 100" enable-background="new 0 0 100 100" xml:space="preserve">
<path d="M77.465,55.342c0,0.591-0.479,1.068-1.07,1.069h-30.87l5.269,13.334c0.174,0.447,0.032,0.958-0.353,1.247
	c-0.383,0.289-0.913,0.289-1.294-0.007L22.953,50.848c-0.263-0.202-0.417-0.517-0.417-0.847c-0.001-0.334,0.154-0.646,0.417-0.849
	l26.194-20.139c0.192-0.146,0.422-0.222,0.651-0.222c0.227,0,0.452,0.071,0.645,0.216c0.383,0.288,0.525,0.799,0.35,1.245
	l-5.268,13.335l30.87-0.001c0.589,0.001,1.07,0.479,1.069,1.07L77.465,55.342z M88.978,50c0,21.492-17.486,38.978-38.978,38.978
	c-21.493,0-38.978-17.485-38.978-38.978S28.508,11.022,50,11.022S88.978,28.508,88.978,50z M84.704,50
	c0-19.136-15.567-34.703-34.704-34.703c-19.135,0-34.704,15.567-34.704,34.703C15.297,69.136,30.865,84.703,50,84.703
	C69.136,84.703,84.704,69.135,84.704,50z"/>
</svg>
