<?xml version="1.0" encoding="utf-8"?>
<!-- Generator: Adobe Illustrator 16.0.0, SVG Export Plug-In . SVG Version: 6.00 Build 0)  -->
<!DOCTYPE svg PUBLIC "-//W3C//DTD SVG 1.1//EN" "http://www.w3.org/Graphics/SVG/1.1/DTD/svg11.dtd">
<svg version="1.1" id="Layer_3" xmlns="http://www.w3.org/2000/svg" xmlns:xlink="http://www.w3.org/1999/xlink" x="0px" y="0px"
	 width="100px" height="100px" viewBox="0 0 100 100" enable-background="new 0 0 100 100" xml:space="preserve">
<path d="M33.663,17.465c0,1.983-0.991,3.733-2.502,4.789v62.785c0,1.843-1.494,3.337-3.337,3.337c-1.843,0-3.337-1.494-3.337-3.337
	V22.253c-1.511-1.056-2.502-2.805-2.502-4.789c0-3.226,2.615-5.84,5.84-5.84C31.048,11.625,33.663,14.239,33.663,17.465z
	 M33.802,22.053c0,8.621,0,17.241,0,25.861c16.817,6.21,27.398-6.21,44.214,0c0-8.621,0-17.241,0-25.861
	C61.2,15.843,50.619,28.263,33.802,22.053z"/>
</svg>
