<?xml version="1.0" encoding="iso-8859-1"?>
<!-- Generator: Adobe Illustrator 18.0.0, SVG Export Plug-In . SVG Version: 6.00 Build 0)  -->
<!DOCTYPE svg PUBLIC "-//W3C//DTD SVG 1.1//EN" "http://www.w3.org/Graphics/SVG/1.1/DTD/svg11.dtd">
<svg version="1.1" id="Capa_1" xmlns="http://www.w3.org/2000/svg" xmlns:xlink="http://www.w3.org/1999/xlink" x="0px" y="0px"
	 viewBox="0 0 13.997 22.099" style="enable-background:new 0 0 13.997 22.099;" xml:space="preserve">
<g>
	<path style="fill-rule:evenodd;clip-rule:evenodd;" d="M1,2.787V1.502C0.993,1.494,0.985,1.486,0.978,1.478L0,1.48v20.619h0.978
		V2.772C0.985,2.777,0.993,2.782,1,2.787z"/>
	<path style="fill-rule:evenodd;clip-rule:evenodd;" d="M6.34,9.358c-1.708,1.015-3.233,0.99-4.272,0.63v1.017
		c1.259,0.324,2.963,0.269,4.771-0.806c2.613-1.552,4.428-1.586,5.854-0.972c0.263,0.113,0.428,0.22,0.496,0.278l0.808,0.694V9.134
		V1.031l-0.17-0.146c-0.14-0.12-0.388-0.28-0.747-0.435c-1.72-0.74-3.863-0.679-6.74,1.03C4.486,2.581,3.074,2.728,2,2.235v1.048
		c1.3,0.423,2.918,0.179,4.839-0.962c2.613-1.553,4.428-1.586,5.854-0.972c0.263,0.113,0.386,0.262,0.386,0.262v6.718
		C11.36,7.589,9.217,7.649,6.34,9.358z"/>
</g>
<g>
</g>
<g>
</g>
<g>
</g>
<g>
</g>
<g>
</g>
<g>
</g>
<g>
</g>
<g>
</g>
<g>
</g>
<g>
</g>
<g>
</g>
<g>
</g>
<g>
</g>
<g>
</g>
<g>
</g>
</svg>
