<?xml version="1.0" encoding="iso-8859-1"?>
<!-- Generator: Adobe Illustrator 18.0.0, SVG Export Plug-In . SVG Version: 6.00 Build 0)  -->
<!DOCTYPE svg PUBLIC "-//W3C//DTD SVG 1.1//EN" "http://www.w3.org/Graphics/SVG/1.1/DTD/svg11.dtd">
<svg version="1.1" id="Capa_1" xmlns="http://www.w3.org/2000/svg" xmlns:xlink="http://www.w3.org/1999/xlink" x="0px" y="0px"
	 viewBox="0 0 21.409 21.132" style="enable-background:new 0 0 21.409 21.132;" xml:space="preserve">
<g>
	<path style="fill-rule:evenodd;clip-rule:evenodd;" d="M10.009,21.066c0.547,0,0.991-0.439,0.991-1.002V1.068
		c0-0.554-0.451-1.003-0.991-1.003H6.991C6.444,0.066,6,0.505,6,1.068v18.995c0,0.554,0.451,1.002,0.991,1.002H10.009z M6.998,1.07
		C6.998,1.062,10,1.068,10,1.068c-0.009,0-0.007,18.996-0.007,18.996c0,0.008-3.002,0.002-3.002,0.002
		C6.999,20.066,6.998,1.07,6.998,1.07z"/>
	<path style="fill-rule:evenodd;clip-rule:evenodd;" d="M17.76,21.099l2.916-0.781c0.529-0.142,0.843-0.681,0.698-1.225
		L16.457,0.745c-0.143-0.535-0.695-0.852-1.217-0.712l-2.916,0.781c-0.529,0.142-0.843,0.681-0.698,1.225l4.916,18.348
		C16.687,20.922,17.238,21.238,17.76,21.099z M15.491,1.003c-0.008,0.002,4.91,18.35,4.91,18.35
		c0.002,0.008-2.899,0.779-2.899,0.779c0.008-0.002-4.91-18.35-4.91-18.35C12.589,1.775,15.491,1.003,15.491,1.003z"/>
	<path style="fill-rule:evenodd;clip-rule:evenodd;" d="M4.009,21.066C4.556,21.066,5,20.626,5,20.063V1.068
		c0-0.554-0.451-1.003-0.991-1.003H0.991C0.444,0.066,0,0.505,0,1.068v18.995c0,0.554,0.451,1.002,0.991,1.002H4.009z M0.998,1.07
		C0.998,1.062,4,1.068,4,1.068c-0.009,0-0.007,18.996-0.007,18.996c0,0.008-3.002,0.002-3.002,0.002
		C0.999,20.066,0.998,1.07,0.998,1.07z"/>
</g>
<g>
</g>
<g>
</g>
<g>
</g>
<g>
</g>
<g>
</g>
<g>
</g>
<g>
</g>
<g>
</g>
<g>
</g>
<g>
</g>
<g>
</g>
<g>
</g>
<g>
</g>
<g>
</g>
<g>
</g>
</svg>
