<?xml version="1.0" encoding="iso-8859-1"?>
<!-- Generator: Adobe Illustrator 18.0.0, SVG Export Plug-In . SVG Version: 6.00 Build 0)  -->
<!DOCTYPE svg PUBLIC "-//W3C//DTD SVG 1.1//EN" "http://www.w3.org/Graphics/SVG/1.1/DTD/svg11.dtd">
<svg version="1.1" id="Capa_1" xmlns="http://www.w3.org/2000/svg" xmlns:xlink="http://www.w3.org/1999/xlink" x="0px" y="0px"
	 viewBox="0 0 22 18" style="enable-background:new 0 0 22 18;" xml:space="preserve">
<path style="fill-rule:evenodd;clip-rule:evenodd;" d="M21.859,18c0.078,0,0.14-0.065,0.14-0.145V0.145C22,0.065,21.937,0,21.859,0
	H0.14C0.063,0,0,0.065,0,0.145v17.71C0,17.935,0.063,18,0.14,18H21.859z M17.5,3C18.328,3,19,3.672,19,4.5C19,5.328,18.328,6,17.5,6
	S16,5.328,16,4.5C16,3.672,16.672,3,17.5,3z M1.998,15.61L7.714,4.589l0.321-0.62c0.073-0.14,0.198-0.139,0.276-0.004l3.257,5.624
	c0.04,0.069,0.127,0.087,0.191,0.042l2.763-1.943c0.129-0.091,0.302-0.059,0.388,0.076l5.021,7.859
	c0.085,0.133,0.024,0.241-0.126,0.241H2.147C1.992,15.864,1.925,15.751,1.998,15.61z"/>
<g>
</g>
<g>
</g>
<g>
</g>
<g>
</g>
<g>
</g>
<g>
</g>
<g>
</g>
<g>
</g>
<g>
</g>
<g>
</g>
<g>
</g>
<g>
</g>
<g>
</g>
<g>
</g>
<g>
</g>
</svg>
