<?xml version="1.0" encoding="iso-8859-1"?>
<!-- Generator: Adobe Illustrator 18.0.0, SVG Export Plug-In . SVG Version: 6.00 Build 0)  -->
<!DOCTYPE svg PUBLIC "-//W3C//DTD SVG 1.1//EN" "http://www.w3.org/Graphics/SVG/1.1/DTD/svg11.dtd">
<svg version="1.1" id="Capa_1" xmlns="http://www.w3.org/2000/svg" xmlns:xlink="http://www.w3.org/1999/xlink" x="0px" y="0px"
	 viewBox="0 0 22 20" style="enable-background:new 0 0 22 20;" xml:space="preserve">
<g>
	<rect x="1" y="2" style="fill-rule:evenodd;clip-rule:evenodd;" width="20" height="1"/>
	<rect x="2" y="0" style="fill-rule:evenodd;clip-rule:evenodd;" width="18" height="1"/>
	<path style="fill-rule:evenodd;clip-rule:evenodd;" d="M14.909,11.765c-0.086-0.135-0.259-0.167-0.388-0.076l-2.763,1.943
		c-0.064,0.045-0.151,0.027-0.191-0.042L8.311,7.966C8.233,7.83,8.108,7.829,8.035,7.969L1.998,17.61
		c-0.073,0.141-0.006,0.254,0.149,0.254h17.656c0.15,0,0.211-0.108,0.126-0.241L14.909,11.765z"/>
	<circle style="fill-rule:evenodd;clip-rule:evenodd;" cx="17.5" cy="7.5" r="1.5"/>
	<path style="fill-rule:evenodd;clip-rule:evenodd;" d="M0,4.129v15.742C0,19.942,0.063,20,0.141,20H21.86
		C21.937,20,22,19.942,22,19.871V4.129C22,4.058,21.937,4,21.86,4H0.141C0.063,4,0,4.058,0,4.129z M1,5h20v14H1V5z"/>
</g>
<g>
</g>
<g>
</g>
<g>
</g>
<g>
</g>
<g>
</g>
<g>
</g>
<g>
</g>
<g>
</g>
<g>
</g>
<g>
</g>
<g>
</g>
<g>
</g>
<g>
</g>
<g>
</g>
<g>
</g>
</svg>
