<?xml version="1.0" encoding="iso-8859-1"?>
<!-- Generator: Adobe Illustrator 18.0.0, SVG Export Plug-In . SVG Version: 6.00 Build 0)  -->
<!DOCTYPE svg PUBLIC "-//W3C//DTD SVG 1.1//EN" "http://www.w3.org/Graphics/SVG/1.1/DTD/svg11.dtd">
<svg version="1.1" id="Capa_1" xmlns="http://www.w3.org/2000/svg" xmlns:xlink="http://www.w3.org/1999/xlink" x="0px" y="0px"
	 viewBox="0 0 22 20" style="enable-background:new 0 0 22 20;" xml:space="preserve">
<g>
	<rect x="1" y="2" style="fill-rule:evenodd;clip-rule:evenodd;" width="20" height="1"/>
	<path style="fill-rule:evenodd;clip-rule:evenodd;" d="M0,4.129v15.742C0,19.942,0.063,20,0.141,20H21.86
		c0.078,0,0.14-0.058,0.14-0.129V4.129C22,4.058,21.937,4,21.86,4H0.141C0.063,4,0,4.058,0,4.129z M17.5,6C18.328,6,19,6.672,19,7.5
		C19,8.328,18.328,9,17.5,9S16,8.328,16,7.5C16,6.672,16.672,6,17.5,6z M1.998,17.61l6.037-9.641
		c0.073-0.14,0.198-0.139,0.276-0.004l3.257,5.624c0.04,0.069,0.127,0.087,0.191,0.042l2.763-1.943
		c0.129-0.091,0.301-0.059,0.388,0.076l5.021,5.859c0.085,0.133,0.023,0.241-0.126,0.241H2.147
		C1.992,17.864,1.925,17.751,1.998,17.61z"/>
	<rect x="2" y="0" style="fill-rule:evenodd;clip-rule:evenodd;" width="18" height="1"/>
</g>
<g>
</g>
<g>
</g>
<g>
</g>
<g>
</g>
<g>
</g>
<g>
</g>
<g>
</g>
<g>
</g>
<g>
</g>
<g>
</g>
<g>
</g>
<g>
</g>
<g>
</g>
<g>
</g>
<g>
</g>
</svg>
