<?xml version="1.0" encoding="iso-8859-1"?>
<!-- Generator: Adobe Illustrator 18.0.0, SVG Export Plug-In . SVG Version: 6.00 Build 0)  -->
<!DOCTYPE svg PUBLIC "-//W3C//DTD SVG 1.1//EN" "http://www.w3.org/Graphics/SVG/1.1/DTD/svg11.dtd">
<svg version="1.1" id="Capa_1" xmlns="http://www.w3.org/2000/svg" xmlns:xlink="http://www.w3.org/1999/xlink" x="0px" y="0px"
	 viewBox="0 0 22 22" style="enable-background:new 0 0 22 22;" xml:space="preserve">
<g>
	<rect x="12" y="13" style="fill-rule:evenodd;clip-rule:evenodd;" width="1" height="1"/>
	<rect x="12" y="10" style="fill-rule:evenodd;clip-rule:evenodd;" width="1" height="1"/>
	<rect x="14" y="16" style="fill-rule:evenodd;clip-rule:evenodd;" width="4" height="1"/>
	<path style="fill-rule:evenodd;clip-rule:evenodd;" d="M10,0v2H0.579C0.579,2,0,2,0,2.5C0,3,0.579,3,0.579,3h20.842
		C21.421,3,22,3,22,2.5C22,2,21.421,2,21.421,2H12V0H10z"/>
	<rect x="12" y="16" style="fill-rule:evenodd;clip-rule:evenodd;" width="1" height="1"/>
	<path style="fill-rule:evenodd;clip-rule:evenodd;" d="M0.579,22h20.842c0,0,0.579,0,0.579-0.5c0-0.5-0.579-0.5-0.579-0.5H0.579
		C0.579,21,0,21,0,21.5C0,22,0.579,22,0.579,22z"/>
	<path style="fill-rule:evenodd;clip-rule:evenodd;" d="M3.353,4C3.353,4,1,4,1,6.286v11.429C1,20,3.353,20,3.353,20h15.294
		c0,0,2.353,0,2.353-2.286V6.286C21,4,18.647,4,18.647,4H3.353z M20,6.167v11.667C20,19,18.8,19,18.8,19H3.2c0,0-1.2,0-1.2-1.167
		V6.167C2,5,3.2,5,3.2,5h15.6C18.8,5,20,5,20,6.167z"/>
	<rect x="14" y="13" style="fill-rule:evenodd;clip-rule:evenodd;" width="4" height="1"/>
	<path style="fill-rule:evenodd;clip-rule:evenodd;" d="M7,17c1.657,0,3-1.343,3-3H7v-3c-1.657,0-3,1.343-3,3
		C4,15.657,5.343,17,7,17z"/>
	<rect x="14" y="10" style="fill-rule:evenodd;clip-rule:evenodd;" width="4" height="1"/>
	<rect x="4" y="7" style="fill-rule:evenodd;clip-rule:evenodd;" width="14" height="1"/>
</g>
<g>
</g>
<g>
</g>
<g>
</g>
<g>
</g>
<g>
</g>
<g>
</g>
<g>
</g>
<g>
</g>
<g>
</g>
<g>
</g>
<g>
</g>
<g>
</g>
<g>
</g>
<g>
</g>
<g>
</g>
</svg>
