<?xml version="1.0" encoding="iso-8859-1"?>
<!-- Generator: Adobe Illustrator 18.0.0, SVG Export Plug-In . SVG Version: 6.00 Build 0)  -->
<!DOCTYPE svg PUBLIC "-//W3C//DTD SVG 1.1//EN" "http://www.w3.org/Graphics/SVG/1.1/DTD/svg11.dtd">
<svg version="1.1" id="Capa_1" xmlns="http://www.w3.org/2000/svg" xmlns:xlink="http://www.w3.org/1999/xlink" x="0px" y="0px"
	 viewBox="0 0 18.959 20.721" style="enable-background:new 0 0 18.959 20.721;" xml:space="preserve">
<g>
	<path style="fill-rule:evenodd;clip-rule:evenodd;" d="M17.284,4.44l0.636,0.81l0.308-0.394l0.307-0.394
		c0.681-0.871,0.524-2.13-0.342-2.807l-1.579-1.234c-0.87-0.679-2.129-0.521-2.806,0.347l-0.615,0.787l0.94,0.421l0.463-0.593
		c0.339-0.434,0.97-0.512,1.403-0.174l1.579,1.234c0.432,0.338,0.51,0.969,0.17,1.403L17.284,4.44z"/>
	<polygon style="fill-rule:evenodd;clip-rule:evenodd;" points="9.479,4.721 9.479,10.713 5.479,10.713 5.479,11.717 9.479,11.717 
		9.479,11.721 10.475,11.721 10.475,11.717 10.479,11.717 10.479,10.713 10.475,10.713 10.475,4.721 	"/>
	<path style="fill-rule:evenodd;clip-rule:evenodd;" d="M5.152,0.769c-0.68-0.871-1.94-1.024-2.806-0.347L0.766,1.656
		c-0.87,0.679-1.02,1.939-0.342,2.807L1.039,5.25l0.636-0.81L1.212,3.847c-0.339-0.434-0.263-1.065,0.17-1.403L2.961,1.21
		c0.432-0.338,1.063-0.26,1.403,0.174l0.463,0.593l0.94-0.421L5.459,1.163L5.152,0.769z"/>
	<path style="fill-rule:evenodd;clip-rule:evenodd;" d="M0.479,10.721c0,3.021,1.488,5.694,3.772,7.327l-1.985,1.976l0.7,0.697
		l2.141-2.132c1.294,0.721,2.785,1.132,4.372,1.132c1.555,0,3.017-0.394,4.293-1.088l2.097,2.088l0.7-0.697l-1.934-1.926
		c2.324-1.627,3.844-4.325,3.844-7.377c0-4.971-4.029-9-9-9C4.509,1.721,0.479,5.751,0.479,10.721z M17.479,10.721
		c0,4.418-3.582,8-8,8c-4.418,0-8-3.582-8-8c0-4.418,3.582-8,8-8C13.897,2.721,17.479,6.303,17.479,10.721z"/>
</g>
<g>
</g>
<g>
</g>
<g>
</g>
<g>
</g>
<g>
</g>
<g>
</g>
<g>
</g>
<g>
</g>
<g>
</g>
<g>
</g>
<g>
</g>
<g>
</g>
<g>
</g>
<g>
</g>
<g>
</g>
</svg>
