<?xml version="1.0" encoding="iso-8859-1"?>
<!-- Generator: Adobe Illustrator 18.0.0, SVG Export Plug-In . SVG Version: 6.00 Build 0)  -->
<!DOCTYPE svg PUBLIC "-//W3C//DTD SVG 1.1//EN" "http://www.w3.org/Graphics/SVG/1.1/DTD/svg11.dtd">
<svg version="1.1" id="Capa_1" xmlns="http://www.w3.org/2000/svg" xmlns:xlink="http://www.w3.org/1999/xlink" x="0px" y="0px"
	 viewBox="0 0 26 22" style="enable-background:new 0 0 26 22;" xml:space="preserve">
<g>
	<path style="fill-rule:evenodd;clip-rule:evenodd;" d="M13,21c-3.689,0-6.911-1.997-8.644-4.969H3.215C5.042,19.576,8.738,22,13,22
		c5.738,0,10.45-4.394,10.955-10H26l-2.5-3L21,12h1.951C22.449,17.053,18.185,21,13,21z"/>
	<path style="fill-rule:evenodd;clip-rule:evenodd;" d="M13,0C7.608,0,3.122,3.88,2.181,9H0l2.5,3L5,9H3.2C4.127,4.436,8.162,1,13,1
		c3.266,0,6.166,1.565,7.991,3.987h1.222C20.248,1.984,16.856,0,13,0z"/>
</g>
<g>
</g>
<g>
</g>
<g>
</g>
<g>
</g>
<g>
</g>
<g>
</g>
<g>
</g>
<g>
</g>
<g>
</g>
<g>
</g>
<g>
</g>
<g>
</g>
<g>
</g>
<g>
</g>
<g>
</g>
</svg>
