<?xml version="1.0" encoding="iso-8859-1"?>
<!-- Generator: Adobe Illustrator 18.0.0, SVG Export Plug-In . SVG Version: 6.00 Build 0)  -->
<!DOCTYPE svg PUBLIC "-//W3C//DTD SVG 1.1//EN" "http://www.w3.org/Graphics/SVG/1.1/DTD/svg11.dtd">
<svg version="1.1" id="Capa_1" xmlns="http://www.w3.org/2000/svg" xmlns:xlink="http://www.w3.org/1999/xlink" x="0px" y="0px"
	 viewBox="0 0 22 22" style="enable-background:new 0 0 22 22;" xml:space="preserve">
<g>
	<path style="fill-rule:evenodd;clip-rule:evenodd;" d="M11.64,10.367c0,0,2.114-5.664,3.889-3.889
		C17.304,8.253,11.64,10.367,11.64,10.367l1.768,0.354c0,0,5.724-2.054,2.823-4.955c-2.901-2.901-4.944,2.834-4.944,2.834
		L11.64,10.367z"/>
	<polygon style="fill-rule:evenodd;clip-rule:evenodd;" points="11.5,5.5 11.5,2 10.5,2 10.5,5.5 11,6.5 	"/>
	<path style="fill-rule:evenodd;clip-rule:evenodd;" d="M14.304,14.021C14,12.748,12.5,11.5,12.5,11.5l-1,0.5
		c0,0,1.544,1.495,1.739,2.473c0.304,1.522,2.67,2.97,2.67,2.97l-0.467-1.184h1.311C16.753,16.259,14.607,15.293,14.304,14.021z"/>
	<circle style="fill-rule:evenodd;clip-rule:evenodd;" cx="11" cy="11" r="0.5"/>
	<polygon style="fill-rule:evenodd;clip-rule:evenodd;" points="14.5,11.5 20,11.5 20,10.5 16,10.5 	"/>
	<path style="fill-rule:evenodd;clip-rule:evenodd;" d="M22,11c0-6.075-4.925-11-11-11C4.925,0,0,4.925,0,11c0,6.075,4.925,11,11,11
		C17.075,22,22,17.075,22,11z M1,11C1,5.477,5.477,1,11,1s10,4.477,10,10s-4.477,10-10,10S1,16.523,1,11z"/>
	<path style="fill-rule:evenodd;clip-rule:evenodd;" d="M8.599,10.714l1.768-0.354c0,0-5.664-2.114-3.889-3.889
		c1.775-1.775,3.889,3.889,3.889,3.889l0.354-1.768c0,0-2.054-5.724-4.955-2.823C2.864,8.671,8.599,10.714,8.599,10.714z"/>
	<polygon style="fill-rule:evenodd;clip-rule:evenodd;" points="11.5,14.5 11,13.5 10.5,14.5 10.5,20 11.5,20 	"/>
	<polygon style="fill-rule:evenodd;clip-rule:evenodd;" points="6,10.5 2,10.5 2,11.5 7.5,11.5 	"/>
	<path style="fill-rule:evenodd;clip-rule:evenodd;" d="M10.692,12l-1-0.5c0,0-1.5,1.248-1.804,2.521
		c-0.304,1.273-2.449,2.239-2.449,2.239H6.75l-0.467,1.184c0,0,2.366-1.448,2.67-2.97C9.148,13.495,10.692,12,10.692,12z"/>
</g>
<g>
</g>
<g>
</g>
<g>
</g>
<g>
</g>
<g>
</g>
<g>
</g>
<g>
</g>
<g>
</g>
<g>
</g>
<g>
</g>
<g>
</g>
<g>
</g>
<g>
</g>
<g>
</g>
<g>
</g>
</svg>
