<?xml version="1.0" encoding="iso-8859-1"?>
<!-- Generator: Adobe Illustrator 18.0.0, SVG Export Plug-In . SVG Version: 6.00 Build 0)  -->
<!DOCTYPE svg PUBLIC "-//W3C//DTD SVG 1.1//EN" "http://www.w3.org/Graphics/SVG/1.1/DTD/svg11.dtd">
<svg version="1.1" id="Capa_1" xmlns="http://www.w3.org/2000/svg" xmlns:xlink="http://www.w3.org/1999/xlink" x="0px" y="0px"
	 viewBox="0 0 22 22" style="enable-background:new 0 0 22 22;" xml:space="preserve">
<g>
	<path style="fill-rule:evenodd;clip-rule:evenodd;" d="M15.529,6.478c-1.775-1.775-3.889,3.889-3.889,3.889
		S17.304,8.253,15.529,6.478z"/>
	<path style="fill-rule:evenodd;clip-rule:evenodd;" d="M22,11c0-6.075-4.925-11-11-11C4.925,0,0,4.925,0,11c0,6.075,4.925,11,11,11
		C17.075,22,22,17.075,22,11z M15.91,17.443c0,0-2.366-1.448-2.67-2.97C13.044,13.495,11.5,12,11.5,12l1-0.5
		c0,0,1.5,1.248,1.804,2.521c0.304,1.273,2.449,2.239,2.449,2.239h-1.311L15.91,17.443z M11,11.5c-0.276,0-0.5-0.224-0.5-0.5
		s0.224-0.5,0.5-0.5c0.276,0,0.5,0.224,0.5,0.5S11.276,11.5,11,11.5z M20,10.5v1h-5.5l1.5-1H20z M16.23,5.765
		c2.901,2.901-2.823,4.955-2.823,4.955l-1.768-0.354l-0.353-1.768C11.286,8.599,13.329,2.864,16.23,5.765z M10.5,2h1v3.5l-0.5,1
		l-0.5-1V2z M5.765,5.77c2.901-2.901,4.955,2.823,4.955,2.823l-0.354,1.768l-1.768,0.354C8.599,10.714,2.864,8.671,5.765,5.77z
		 M2,11.5v-1h4l1.5,1H2z M6.282,17.443l0.467-1.184H5.439c0,0,2.146-0.966,2.449-2.239C8.192,12.748,9.692,11.5,9.692,11.5l1,0.5
		c0,0-1.544,1.495-1.739,2.473C8.648,15.995,6.282,17.443,6.282,17.443z M10.5,14.5l0.5-1l0.5,1V20h-1V14.5z"/>
	<path style="fill-rule:evenodd;clip-rule:evenodd;" d="M6.478,6.471c-1.775,1.775,3.889,3.889,3.889,3.889S8.253,4.696,6.478,6.471
		z"/>
</g>
<g>
</g>
<g>
</g>
<g>
</g>
<g>
</g>
<g>
</g>
<g>
</g>
<g>
</g>
<g>
</g>
<g>
</g>
<g>
</g>
<g>
</g>
<g>
</g>
<g>
</g>
<g>
</g>
<g>
</g>
</svg>
