<?xml version="1.0" encoding="utf-8"?>
<!-- Generator: Adobe Illustrator 16.0.0, SVG Export Plug-In . SVG Version: 6.00 Build 0)  -->
<!DOCTYPE svg PUBLIC "-//W3C//DTD SVG 1.1//EN" "http://www.w3.org/Graphics/SVG/1.1/DTD/svg11.dtd">
<svg version="1.1" id="Layer_3" xmlns="http://www.w3.org/2000/svg" xmlns:xlink="http://www.w3.org/1999/xlink" x="0px" y="0px"
	 width="100px" height="100px" viewBox="0 0 100 100" enable-background="new 0 0 100 100" xml:space="preserve">
<path d="M85.638,53.301l3.344-26.365l-23.986-9.103L36.222,31.576L11.153,20.989l3.5,27.584l-0.066,0.549l-0.049-0.007l-0.398,2.559
	l0.143,0.021l-2.99,25.118l10.705,2.007l-0.002,0.016l0.494,0.077l15.439,2.896l27.168-5.175l23.977,5.533L85.638,53.301z
	 M65.112,20.648l21.043,7.984L84.692,40.16l-21.178-5.357l1.303-14.014L65.112,20.648z M62.419,48.625l-0.098-0.973l1.1-11.843
	l21.086,5.335l0.123-0.483l-1.332,10.485l-20.432-2.588L62.419,48.625z M59.853,49.012L47.11,50.934
	c-0.686-1.942-1.945-3.609-3.58-4.802c1.668-2.663,3.174-7.819,3.553-9.179l13.795-1.78l-1.158,12.47L59.853,49.012z M37.612,62.348
	c-4.453,0-8.076-3.623-8.076-8.077s3.623-8.077,8.076-8.077c4.455,0,8.078,3.623,8.078,8.077S42.067,62.348,37.612,62.348z
	 M62.095,22.089l-1.121,12.07l-0.018-0.004l-14.662,1.892l-0.088,0.323c-0.018,0.07-1.719,6.355-3.512,9.214
	c-1.16-0.682-2.465-1.139-3.859-1.309l-1.189-10.51L62.095,22.089z M36.231,44.3c-3.873,0.534-7.051,3.269-8.215,6.903L17.149,49.52
	l0.115-0.956l-1.158-9.122c3.602-0.239,6.303-1.411,8.035-3.502c1.561-1.883,2.01-4.11,2.096-5.77l8.816,3.723L36.231,44.3z
	 M14.29,25.125l10.955,4.626c-0.031,1.528-0.377,3.744-1.873,5.551c-1.561,1.882-4.045,2.935-7.393,3.146L14.29,25.125z
	 M14.149,74.715l2.695-22.622l10.717,1.661c-0.008,0.172-0.025,0.342-0.025,0.517c0,2.357,0.818,4.522,2.18,6.241l-5.566,4.47
	l-1.754,11.279L14.149,74.715z M23.378,76.445l1.699-10.927l5.297-4.253c1.625,1.681,3.824,2.801,6.281,3.033l-1.51,14.354
	L23.378,76.445z M37.927,79.174L37.7,79.131l1.572-14.932c4.768-0.795,8.418-4.938,8.418-9.929c0-0.27-0.02-0.534-0.041-0.799
	l12.457-1.878l1.039,10.625c-5.465,0.256-9.549,1.937-12.121,5.04c-2.998,3.621-3.139,8.136-2.984,10.369L37.927,79.174z
	 M47.038,77.438c-0.121-2.119,0.055-6.278,2.758-9.541c2.391-2.888,6.25-4.447,11.445-4.682l1.08,11.042l2.578-0.253l-2.229-22.796
	l0.225-0.034l20.086,2.544l0.049-0.392l3.035,25.489l-12.988-2.997l0.498-0.052l-1.65-15.994l8.381,0.995l0.117-0.992l-9.621-1.144
	l1.762,17.067l-7.416-1.711L47.038,77.438z M42.544,54.271c0,2.724-2.207,4.932-4.932,4.932c-2.723,0-4.932-2.208-4.932-4.932
	s2.209-4.932,4.932-4.932C40.337,49.339,42.544,51.547,42.544,54.271z"/>
</svg>
