<?xml version="1.0" encoding="utf-8"?>
<!-- Generator: Adobe Illustrator 16.0.0, SVG Export Plug-In . SVG Version: 6.00 Build 0)  -->
<!DOCTYPE svg PUBLIC "-//W3C//DTD SVG 1.1//EN" "http://www.w3.org/Graphics/SVG/1.1/DTD/svg11.dtd">
<svg version="1.1" id="Layer_3" xmlns="http://www.w3.org/2000/svg" xmlns:xlink="http://www.w3.org/1999/xlink" x="0px" y="0px"
	 width="100px" height="100px" viewBox="0 0 100 100" enable-background="new 0 0 100 100" xml:space="preserve">
<path d="M85.638,61.117l3.344-26.365L64.995,25.65l-7.596,3.627c-0.234,1.16-0.59,2.289-1.055,3.375l5.75-2.746L59.72,55.459
	l0.133,1.369l-17.52,2.643l-1.438,2.836l19.211-2.896l2.215,22.664l2.578-0.254l-2.229-22.795l0.225-0.035l20.086,2.545l0.049-0.393
	l3.035,25.49l-20.918-4.828L37.927,86.99L37.7,86.947l2.447-23.25l-0.016-0.141l-0.1-0.871l-3.354-6.621l0.473,4.188l-0.598,0.09
	l-19.404-3.006l0.115-0.955L14.29,32.941l13.576,5.732l-1.133-2.234c-0.367-0.475-0.699-0.973-1.014-1.48l-14.566-6.152l3.5,27.584
	l-0.066,0.549l-0.049-0.008L14.14,59.49l0.143,0.021l-2.99,25.119l26.637,4.994l27.168-5.174l23.977,5.533L85.638,61.117z
	 M62.866,56.375l-0.447,0.066l-0.098-0.973l2.496-26.863l0.295-0.141l21.043,7.984l-2.857,22.514L62.866,56.375z M35.146,86.469
	l-20.996-3.938l2.695-22.621l19.703,3.053l0.895-0.135l0.1,0.879L35.146,86.469z M40.368,63.348l-0.336-0.662l-0.027-0.244
	l0.891-0.135L40.368,63.348z M28.747,34.225l11.441,22.578l11.316-22.336c2.223-2.592,3.574-5.951,3.574-9.627
	c0-8.174-6.65-14.824-14.824-14.824s-14.822,6.65-14.822,14.824c0,3.559,1.262,6.826,3.359,9.385H28.747z M40.255,15.729
	c5.023,0,9.111,4.088,9.111,9.111s-4.088,9.111-9.111,9.111s-9.111-4.088-9.111-9.111S35.231,15.729,40.255,15.729z"/>
</svg>
