<?xml version="1.0" encoding="utf-8"?>
<!-- Generator: Adobe Illustrator 16.0.0, SVG Export Plug-In . SVG Version: 6.00 Build 0)  -->
<!DOCTYPE svg PUBLIC "-//W3C//DTD SVG 1.1//EN" "http://www.w3.org/Graphics/SVG/1.1/DTD/svg11.dtd">
<svg version="1.1" id="Layer_3" xmlns="http://www.w3.org/2000/svg" xmlns:xlink="http://www.w3.org/1999/xlink" x="0px" y="0px"
	 width="100px" height="100px" viewBox="0 0 100 100" enable-background="new 0 0 100 100" xml:space="preserve">
<path d="M87.074,53.15l3.47-27.354l-25.69-9.749L36.108,29.775L9.261,18.438l3.788,29.845l-0.697,4.492l0.193,0.03L9.562,77.873
	l28.294,5.306l27.137-5.169l25.746,5.942L87.074,53.15z M37.852,80.126l-24.979-4.685l2.995-25.168h-0.003l0.226-1.861
	l-3.196-25.184l23.29,9.836l28.804-13.758l22.282,8.456l-3.22,25.376l3.206,26.931l-22.205-5.124L37.852,80.126z M80.803,68.379
	c0,1.611-1.306,2.917-2.917,2.917s-2.917-1.306-2.917-2.917c0-0.722,0.271-1.373,0.705-1.883c-2.289-1.676-4.707-3.523-5.593-6.054
	c-1.199-3.427,2.706-9.838-1.093-12.11c-3.548-2.124-9.376,0.232-11.511-3.751c-0.308,0.11-0.634,0.181-0.979,0.181
	c-0.108,0-0.212-0.021-0.317-0.032c-0.552,0.949-0.904,2.022-1.072,3.153c-0.232,1.563,0.268,3.091,0.125,4.648
	c-0.152,1.664-0.759,3.271-2.474,3.846c-2.673,0.895-10.368-1.389-10.224,2.8c0.014,0.398-0.177,0.658-0.435,0.811
	c-0.324,1.258-1.456,2.191-2.815,2.191c-1.611,0-2.917-1.306-2.917-2.917c0-1.094,0.609-2.035,1.5-2.535
	c-0.269-1.818-0.097-3.621-0.309-5.467c-0.307-2.656-1.977-4.157-4.218-5.327c-2.203-1.15-4.608-2.271-5.929-4.314
	c-0.347,0.146-0.728,0.227-1.128,0.227c-1.611,0-2.917-1.306-2.917-2.917s1.306-2.917,2.917-2.917s2.917,1.306,2.917,2.917
	c0,0.454-0.112,0.879-0.298,1.263c1.46,2.895,5.597,3.567,7.956,5.615c3.394,2.944,2.274,6.755,2.958,10.593
	c0.422,0.078,0.811,0.247,1.148,0.486c1.38-2.719,5.779-2.083,8.764-2.11c1.069-0.009,3.051,0.081,3.357-1.328
	c0.369-1.696-0.12-3.395-0.053-5.103c0.063-1.592,0.54-3.149,1.338-4.511c-0.488-0.521-0.793-1.218-0.793-1.988
	c0-1.611,1.306-2.917,2.917-2.917s2.917,1.306,2.917,2.917c0,0.497-0.136,0.959-0.355,1.368c1.725,3.999,9.365,0.857,12.16,4.515
	c2.584,3.384,0.326,6.914,0.491,10.601c0.137,3.051,3.271,5.273,5.899,7.161c0.092-0.009,0.181-0.027,0.274-0.027
	C79.498,65.462,80.803,66.768,80.803,68.379z"/>
</svg>
