<?xml version="1.0" encoding="utf-8"?>
<!-- Generator: Adobe Illustrator 16.0.0, SVG Export Plug-In . SVG Version: 6.00 Build 0)  -->
<!DOCTYPE svg PUBLIC "-//W3C//DTD SVG 1.1//EN" "http://www.w3.org/Graphics/SVG/1.1/DTD/svg11.dtd">
<svg version="1.1" id="Layer_3" xmlns="http://www.w3.org/2000/svg" xmlns:xlink="http://www.w3.org/1999/xlink" x="0px" y="0px"
	 width="100px" height="100px" viewBox="0 0 100 100" enable-background="new 0 0 100 100" xml:space="preserve">
<path d="M14.282,51.695l-2.99,25.118l26.637,4.995l27.168-5.175l23.977,5.533l-3.436-28.866l3.344-26.365l-23.986-9.103
	L36.222,31.576L11.153,20.989l3.5,27.584l-0.066,0.549l-0.049-0.007l-0.398,2.559L14.282,51.695z M37.151,52.436l-0.598,0.09
	L17.149,49.52l0.115-0.956L14.29,25.125l20.764,8.768L37.151,52.436z M83.298,51.146l-20.432-2.588l-0.447,0.066l-0.098-0.973
	l2.496-26.863l0.295-0.141l21.043,7.984L83.298,51.146z M37.7,79.131l2.447-23.25l-0.016-0.141l-0.127-1.115l20.102-3.031
	l2.215,22.663l2.578-0.253l-2.229-22.796l0.225-0.034l20.086,2.544l0.049-0.392l3.035,25.489l-20.918-4.827l-27.221,5.186
	L37.7,79.131z M37.646,33.766l24.449-11.677L59.72,47.643l0.133,1.369l-20.139,3.037L37.646,33.766z M16.845,52.093l19.703,3.054
	l0.895-0.136l0.1,0.88l-2.396,22.762l-20.996-3.938L16.845,52.093z"/>
</svg>
