<?xml version="1.0" encoding="utf-8"?>
<!-- Generator: Adobe Illustrator 16.0.0, SVG Export Plug-In . SVG Version: 6.00 Build 0)  -->
<!DOCTYPE svg PUBLIC "-//W3C//DTD SVG 1.1//EN" "http://www.w3.org/Graphics/SVG/1.1/DTD/svg11.dtd">
<svg version="1.1" id="Layer_2" xmlns="http://www.w3.org/2000/svg" xmlns:xlink="http://www.w3.org/1999/xlink" x="0px" y="0px"
	 width="100px" height="100px" viewBox="0 0 100 100" enable-background="new 0 0 100 100" xml:space="preserve">
<path d="M82.606,11.371H17.394c-3.341,0-6.06,2.717-6.06,6.059V82.57c0,3.34,2.719,6.059,6.06,6.059h65.212
	c3.341,0,6.06-2.719,6.06-6.059V17.43C88.666,14.088,85.947,11.371,82.606,11.371z M78.498,18.268c1.435,0,2.597,1.163,2.597,2.598
	c0,1.434-1.162,2.597-2.597,2.597s-2.597-1.163-2.597-2.597C75.901,19.431,77.063,18.268,78.498,18.268z M69.192,18.268
	c1.435,0,2.597,1.163,2.597,2.598c0,1.434-1.162,2.597-2.597,2.597s-2.597-1.163-2.597-2.597
	C66.595,19.431,67.757,18.268,69.192,18.268z M81.741,81.704H18.259V29.909h63.481V81.704z M33.25,78.25H21.5v-6h11.75V78.25z
	 M33.25,69.167H21.5v-6h11.75V69.167z M33.25,60H21.5v-6h11.75V60z M78.708,78.25h-11.75v-6h11.75V78.25z M78.708,69.167h-11.75v-6
	h11.75V69.167z M78.708,60h-11.75v-6h11.75V60z M48,78.292H36.25v-6H48V78.292z M48,69.209H36.25v-6H48V69.209z M48,60.042H36.25v-6
	H48V60.042z M48,51H36.25v-6H48V51z M63.333,78.292h-11.75v-6h11.75V78.292z M63.333,69.209h-11.75v-6h11.75V69.209z M63.333,60.042
	h-11.75v-6h11.75V60.042z M63.333,51h-11.75v-6h11.75V51z M63.333,42.583h-11.75v-6h11.75V42.583z"/>
</svg>
