<?xml version="1.0" encoding="utf-8"?>
<!-- Generator: Adobe Illustrator 16.0.0, SVG Export Plug-In . SVG Version: 6.00 Build 0)  -->
<!DOCTYPE svg PUBLIC "-//W3C//DTD SVG 1.1//EN" "http://www.w3.org/Graphics/SVG/1.1/DTD/svg11.dtd">
<svg version="1.1" id="Layer_2" xmlns="http://www.w3.org/2000/svg" xmlns:xlink="http://www.w3.org/1999/xlink" x="0px" y="0px"
	 width="100px" height="100px" viewBox="0 0 100 100" enable-background="new 0 0 100 100" xml:space="preserve">
<path d="M84.803,20.591v-0.44c0-2.188-1.773-3.96-3.961-3.96h-9.627c0.023-0.009,0.039-0.018,0.064-0.026
	c2.213-0.728,0.77-0.764,0.77-0.764l-7.045-7.098L61.248,8.73c0,0-0.184,1.97-1.42,2.983c-0.188,0.155-0.318,0.314-0.426,0.475
	c0.059-0.167-0.455-0.181-0.455-0.181L51.904,4.91l-3.758,0.428c0,0-0.184,1.97-1.418,2.983s-0.527,2.249-0.527,2.249l-1.395,1.384
	l0.863,0.871c0,0-1.826,1.795-2.145,3.365h-2.77c0.822-2.003,0.711-5.785,0.711-5.785s-3.457,1.734-2.414-0.35
	c1.041-2.084,0-1.084,0-1.084h-10l-2.344,2.968c0,0,1.27,1.518,1.119,3.108c-0.047,0.494,0.061,0.858,0.221,1.143h-5.287
	c-2.186,0-3.959,1.772-3.959,3.96v0.44c0,2.188,1.773,6.271,3.959,6.271h2.521l3.367,64.857c0.074,1.404,1.232,2.504,2.637,2.504
	h41.359c1.41,0,2.57-1.107,2.637-2.516l3.063-64.846h2.496C83.029,26.861,84.803,22.778,84.803,20.591z M58.178,12.771
	c0.793-0.261,1.113-0.432,1.201-0.545c-0.555,0.875-0.078,1.736-0.078,1.736L58.84,14.42C57.906,14.007,56.662,13.271,58.178,12.771
	z M58.439,15.884l0.305,0.307h-0.648C58.215,16.086,58.33,15.983,58.439,15.884z M39.219,64.12c-1.566,0.911-2.244-0.49-2.244-0.49
	c-0.168-0.78-0.262-1.59-0.262-2.425c0-5.973,4.514-10.84,10.115-10.99l-3.953-2.604c-0.75-0.495-0.98-1.538-0.514-2.332
	c0.465-0.797,1.451-1.039,2.197-0.546l6.816,4.489c0.359,0.237,0.615,0.615,0.711,1.053c0.096,0.437,0.025,0.898-0.199,1.279
	l-4.234,7.227c-0.301,0.516-0.822,0.8-1.355,0.8c-0.289,0-0.578-0.082-0.842-0.255c-0.75-0.494-0.979-1.537-0.514-2.333l1.99-3.397
	c-3.889,0.089-7.025,3.465-7.025,7.609c0,0.394,0.037,0.774,0.092,1.15C39.998,62.355,40.357,63.523,39.219,64.12z M59.766,72.598
	c-0.566,0.563-1.195,1.08-1.896,1.532c-5.021,3.234-11.561,2.076-14.719-2.552l-0.047,4.734c-0.012,0.896-0.762,1.657-1.684,1.695
	c-0.92,0.039-1.658-0.658-1.648-1.554l0.082-8.16c0.006-0.431,0.186-0.851,0.5-1.17c0.316-0.314,0.742-0.507,1.184-0.526
	l8.369-0.352c0.596-0.026,1.119,0.258,1.406,0.706c0.156,0.243,0.244,0.531,0.24,0.845c-0.01,0.898-0.762,1.656-1.682,1.695
	l-3.936,0.168c2.182,3.221,6.719,4.029,10.205,1.785c0.328-0.213,0.629-0.451,0.916-0.7c0,0,0.787-0.935,1.906-0.302
	C60.576,71.267,59.766,72.598,59.766,72.598z M69.824,63.286l-6.814,4.487c-0.361,0.236-0.809,0.322-1.25,0.237
	c-0.439-0.085-0.834-0.331-1.096-0.688l-4.965-6.745c-0.355-0.48-0.412-1.072-0.201-1.563c0.115-0.265,0.307-0.499,0.568-0.672
	c0.75-0.493,1.799-0.292,2.346,0.45l2.334,3.172c1.455-3.608-0.406-7.824-4.215-9.463c-0.359-0.155-0.725-0.271-1.092-0.37
	c0,0-1.215-0.131-1.314-1.412c-0.217-1.799,1.34-1.869,1.34-1.869c0.783,0.156,1.563,0.389,2.328,0.718
	c5.488,2.361,8.176,8.432,6.102,13.636l3.953-2.604c0.75-0.493,1.801-0.292,2.346,0.45C70.74,61.793,70.574,62.795,69.824,63.286z
	 M71.963,29.911H31.127l-0.559-3.05h42.492L71.963,29.911z M97.08,85.816c0,0-2.975,3.131-5.008,3.711
	c-2.033,0.581-0.445,1.898-0.445,1.898l-1.607-0.377l-0.973,0.721l-0.854-1.15c0,0-3.551-0.147-6.301-1.479s1.227-5.23,1.227-5.23
	l-0.863-0.871l1.395-1.384c0,0-0.707-1.235,0.527-2.249s1.418-2.983,1.418-2.983l3.758-0.428l7.043,7.098
	c0,0,1.445,0.036-0.77,0.764C93.414,84.584,97.08,85.816,97.08,85.816z"/>
</svg>
