<?xml version="1.0" encoding="utf-8"?>
<!-- Generator: Adobe Illustrator 16.0.0, SVG Export Plug-In . SVG Version: 6.00 Build 0)  -->
<!DOCTYPE svg PUBLIC "-//W3C//DTD SVG 1.1//EN" "http://www.w3.org/Graphics/SVG/1.1/DTD/svg11.dtd">
<svg version="1.1" id="Layer_2" xmlns="http://www.w3.org/2000/svg" xmlns:xlink="http://www.w3.org/1999/xlink" x="0px" y="0px"
	 width="100px" height="100px" viewBox="0 0 100 100" enable-background="new 0 0 100 100" xml:space="preserve">
<path d="M37.157,56.87c-1.565,0.911-2.245-0.49-2.245-0.49c-0.167-0.78-0.262-1.59-0.262-2.425c0-5.973,4.515-10.84,10.116-10.99
	l-3.954-2.604c-0.75-0.495-0.98-1.538-0.514-2.332c0.465-0.797,1.451-1.039,2.199-0.546l6.815,4.489
	c0.359,0.237,0.615,0.615,0.711,1.053c0.096,0.437,0.026,0.898-0.199,1.279l-4.235,7.227c-0.301,0.516-0.823,0.8-1.356,0.8
	c-0.288,0-0.578-0.082-0.84-0.255c-0.75-0.494-0.98-1.537-0.515-2.333l1.991-3.397c-3.889,0.089-7.027,3.465-7.027,7.609
	c0,0.394,0.038,0.774,0.092,1.15C37.936,55.105,38.295,56.273,37.157,56.87z M68.132,53.802c-0.546-0.742-1.595-0.943-2.346-0.45
	l-3.954,2.604c2.075-5.204-0.612-11.274-6.101-13.636c-0.766-0.329-1.546-0.562-2.33-0.718c0,0-1.557,0.07-1.338,1.869
	c0.1,1.281,1.313,1.412,1.313,1.412c0.367,0.099,0.732,0.215,1.093,0.37c3.808,1.639,5.669,5.854,4.215,9.463l-2.335-3.172
	c-0.547-0.742-1.596-0.943-2.346-0.45c-0.262,0.173-0.453,0.407-0.567,0.672c-0.211,0.49-0.155,1.082,0.2,1.563l4.965,6.745
	c0.261,0.356,0.657,0.603,1.097,0.688c0.44,0.085,0.888-0.001,1.249-0.237l6.816-4.487C68.512,55.545,68.679,54.543,68.132,53.802z
	 M56.9,63.193c-1.119-0.633-1.906,0.302-1.906,0.302c-0.287,0.249-0.587,0.487-0.917,0.7c-3.485,2.244-8.023,1.436-10.204-1.785
	l3.936-0.168c0.92-0.039,1.672-0.797,1.682-1.695c0.003-0.313-0.084-0.602-0.241-0.845c-0.288-0.448-0.811-0.732-1.407-0.706
	l-8.369,0.352c-0.441,0.02-0.867,0.212-1.183,0.526c-0.315,0.319-0.495,0.739-0.5,1.17l-0.082,8.16
	c-0.009,0.896,0.728,1.593,1.649,1.554c0.92-0.038,1.672-0.799,1.682-1.695l0.048-4.734c3.159,4.628,9.696,5.786,14.718,2.552
	c0.701-0.452,1.33-0.97,1.896-1.532C57.703,65.348,58.514,64.017,56.9,63.193z M84.552,17.9v0.44c0,2.188-1.773,6.271-3.96,6.271
	h-2.497l-3.062,64.846c-0.066,1.408-1.227,2.516-2.637,2.516h-41.36c-1.405,0-2.563-1.1-2.636-2.504l-3.369-64.857h-2.52
	c-2.187,0-3.96-4.083-3.96-6.271V17.9c0-2.188,1.773-3.96,3.96-3.96h58.08C82.779,13.94,84.552,15.713,84.552,17.9z M72.81,24.611
	H30.319l1.292,24.885c-0.3,1.176-0.461,2.406-0.461,3.672c0,1.046,0.114,2.109,0.34,3.159l0.088,0.413l0.184,0.379
	c0.437,0.9,1.331,1.897,2.604,2.414c-0.034,0.228-0.072,0.455-0.075,0.688l-0.082,8.159c-0.014,1.355,0.501,2.63,1.451,3.589
	c0.959,0.969,2.246,1.503,3.625,1.503l0.218-0.005c2.076-0.086,3.832-1.358,4.609-3.146c1.71,0.72,3.585,1.106,5.522,1.106h0.001
	c2.847,0,5.637-0.827,8.07-2.395c0.875-0.564,1.705-1.234,2.465-1.99l0.301-0.3l0.221-0.362c0.224-0.366,0.838-1.551,0.685-3.076
	c0.526-0.142,1.036-0.344,1.495-0.646l6.811-4.483c1.152-0.756,1.951-1.963,2.193-3.313c0.176-0.985,0.04-2-0.356-2.913
	L72.81,24.611z"/>
</svg>
