<?xml version="1.0" encoding="utf-8"?>
<!-- Generator: Adobe Illustrator 16.0.0, SVG Export Plug-In . SVG Version: 6.00 Build 0)  -->
<!DOCTYPE svg PUBLIC "-//W3C//DTD SVG 1.1//EN" "http://www.w3.org/Graphics/SVG/1.1/DTD/svg11.dtd">
<svg version="1.1" id="Layer_2" xmlns="http://www.w3.org/2000/svg" xmlns:xlink="http://www.w3.org/1999/xlink" x="0px" y="0px"
	 width="100px" height="100px" viewBox="0 0 100 100" enable-background="new 0 0 100 100" xml:space="preserve">
<path d="M59.721,85.327c0,2.884,0.975,5.533,2.598,7.662H41.053c-5.334,0-12.834-9.578-12.834-14.495s0-26.5,0-31.25
	s-5.334-12.922-5.334-12.922V21.656h5.334h6.666h39.93l0.055,51.251c-0.803-0.159-1.633-0.246-2.482-0.246
	C65.393,72.661,59.721,78.332,59.721,85.327z M77.873,17.736v-5.385c0-0.553-0.447-1-1-1H64.275V8.91c0-0.553-0.447-1-1-1H39.83
	c-0.553,0-1,0.447-1,1v2.441H21.482c-0.553,0-1,0.447-1,1v5.385c0,0.553,0.447,1,1,1h55.391
	C77.426,18.736,77.873,18.289,77.873,17.736z M82.553,85.494c0,5.33-4.336,9.666-9.666,9.666s-9.666-4.336-9.666-9.666
	s4.336-9.666,9.666-9.666S82.553,80.164,82.553,85.494z M78.553,85.494c0-3.124-2.541-5.666-5.666-5.666
	c-3.123,0-5.666,2.542-5.666,5.666s2.543,5.666,5.666,5.666C76.012,91.16,78.553,88.618,78.553,85.494z"/>
</svg>
