<?xml version="1.0" encoding="utf-8"?>
<!-- Generator: Adobe Illustrator 16.0.0, SVG Export Plug-In . SVG Version: 6.00 Build 0)  -->
<!DOCTYPE svg PUBLIC "-//W3C//DTD SVG 1.1//EN" "http://www.w3.org/Graphics/SVG/1.1/DTD/svg11.dtd">
<svg version="1.1" id="Layer_2" xmlns="http://www.w3.org/2000/svg" xmlns:xlink="http://www.w3.org/1999/xlink" x="0px" y="0px"
	 width="100px" height="100px" viewBox="0 0 100 100" enable-background="new 0 0 100 100" xml:space="preserve">
<path d="M80.592,13.94h-58.08c-2.187,0-3.959,1.772-3.959,3.96v0.44c0,2.188,1.772,6.271,3.959,6.271h2.521L28.4,89.469
	c0.073,1.404,1.231,2.504,2.637,2.504h41.359c1.41,0,2.57-1.107,2.637-2.516l3.063-64.846h2.496c2.188,0,3.961-4.083,3.961-6.271
	V17.9C84.553,15.713,82.779,13.94,80.592,13.94z M38.969,61.87c-1.566,0.911-2.245-0.49-2.245-0.49
	c-0.167-0.78-0.262-1.59-0.262-2.425c0-5.973,4.515-10.84,10.116-10.99l-3.953-2.604c-0.75-0.495-0.98-1.538-0.515-2.332
	c0.466-0.797,1.451-1.039,2.198-0.546l6.816,4.489c0.359,0.237,0.614,0.615,0.711,1.053c0.096,0.437,0.025,0.898-0.199,1.279
	l-4.234,7.227c-0.301,0.516-0.822,0.8-1.356,0.8c-0.288,0-0.578-0.082-0.841-0.255c-0.75-0.494-0.979-1.537-0.514-2.333l1.99-3.397
	c-3.889,0.089-7.026,3.465-7.026,7.609c0,0.394,0.038,0.774,0.092,1.15C39.747,60.105,40.107,61.273,38.969,61.87z M59.515,70.348
	c-0.565,0.563-1.195,1.08-1.896,1.532c-5.022,3.234-11.561,2.076-14.719-2.552l-0.048,4.734c-0.011,0.896-0.762,1.657-1.683,1.695
	c-0.92,0.039-1.658-0.658-1.648-1.554l0.082-8.16c0.006-0.431,0.186-0.851,0.5-1.17c0.316-0.314,0.742-0.507,1.184-0.526
	l8.368-0.352c0.597-0.026,1.119,0.258,1.407,0.706c0.156,0.243,0.244,0.531,0.24,0.845c-0.01,0.898-0.762,1.656-1.682,1.695
	l-3.936,0.168c2.182,3.221,6.719,4.029,10.204,1.785c0.329-0.213,0.63-0.451,0.917-0.7c0,0,0.786-0.935,1.905-0.302
	C60.325,69.017,59.515,70.348,59.515,70.348z M69.574,61.036l-6.815,4.487c-0.36,0.236-0.809,0.322-1.249,0.237
	c-0.439-0.085-0.835-0.331-1.096-0.688l-4.966-6.745c-0.354-0.48-0.411-1.072-0.2-1.563c0.114-0.265,0.306-0.499,0.567-0.672
	c0.751-0.493,1.8-0.292,2.347,0.45l2.334,3.172c1.455-3.608-0.406-7.824-4.215-9.463c-0.36-0.155-0.725-0.271-1.092-0.37
	c0,0-1.215-0.131-1.314-1.412c-0.218-1.799,1.339-1.869,1.339-1.869c0.783,0.156,1.563,0.389,2.329,0.718
	c5.488,2.361,8.176,8.432,6.102,13.636l3.953-2.604c0.75-0.493,1.8-0.292,2.346,0.45C70.49,59.543,70.324,60.545,69.574,61.036z
	 M71.712,27.661H30.877l-0.559-3.05h42.492L71.712,27.661z"/>
</svg>
