<?xml version="1.0" encoding="utf-8"?>
<!-- Generator: Adobe Illustrator 16.0.0, SVG Export Plug-In . SVG Version: 6.00 Build 0)  -->
<!DOCTYPE svg PUBLIC "-//W3C//DTD SVG 1.1//EN" "http://www.w3.org/Graphics/SVG/1.1/DTD/svg11.dtd">
<svg version="1.1" id="Layer_2" xmlns="http://www.w3.org/2000/svg" xmlns:xlink="http://www.w3.org/1999/xlink" x="0px" y="0px"
	 width="100px" height="100px" viewBox="0 0 100 100" enable-background="new 0 0 100 100" xml:space="preserve">
<path d="M81.663,13.94h-58.08c-2.187,0-3.96,1.772-3.96,3.96v0.44c0,2.188,1.773,6.271,3.96,6.271h2.52l3.369,64.857
	c0.073,1.404,1.231,2.504,2.636,2.504h41.36c1.41,0,2.57-1.107,2.637-2.516l3.062-64.846h2.497c2.187,0,3.96-4.083,3.96-6.271V17.9
	C85.623,15.713,83.85,13.94,81.663,13.94z M70.95,86.692H34.614L31.39,24.611h42.491L70.95,86.692z M39.103,56.083
	c-1.565,0.911-2.245-0.49-2.245-0.49c-0.167-0.78-0.262-1.59-0.262-2.425c0-5.973,4.515-10.84,10.116-10.99l-3.954-2.604
	c-0.75-0.495-0.98-1.538-0.514-2.332c0.465-0.797,1.451-1.039,2.199-0.546l6.815,4.489c0.359,0.237,0.615,0.615,0.711,1.053
	c0.096,0.437,0.026,0.898-0.199,1.279l-4.235,7.227c-0.301,0.516-0.823,0.8-1.356,0.8c-0.288,0-0.578-0.082-0.84-0.255
	c-0.75-0.494-0.98-1.537-0.515-2.333l1.991-3.397c-3.889,0.089-7.027,3.465-7.027,7.609c0,0.394,0.038,0.774,0.092,1.15
	C39.881,54.318,40.241,55.486,39.103,56.083z M69.709,55.249l-6.816,4.487c-0.36,0.236-0.809,0.322-1.249,0.237
	c-0.439-0.085-0.835-0.331-1.097-0.688l-4.965-6.745c-0.355-0.48-0.411-1.072-0.2-1.563c0.114-0.265,0.305-0.499,0.567-0.672
	c0.75-0.493,1.799-0.292,2.346,0.45l2.335,3.172c1.455-3.608-0.407-7.824-4.215-9.463c-0.361-0.155-0.726-0.271-1.093-0.37
	c0,0-1.214-0.131-1.313-1.412c-0.218-1.799,1.338-1.869,1.338-1.869c0.783,0.156,1.564,0.389,2.33,0.718
	c5.488,2.361,8.175,8.432,6.101,13.636l3.954-2.604c0.75-0.493,1.8-0.292,2.346,0.45C70.625,53.756,70.458,54.758,69.709,55.249z
	 M59.649,64.561c-0.566,0.563-1.195,1.08-1.896,1.532c-5.022,3.234-11.56,2.076-14.718-2.552l-0.048,4.734
	c-0.01,0.896-0.762,1.657-1.682,1.695c-0.921,0.039-1.658-0.658-1.649-1.554l0.082-8.16c0.005-0.431,0.185-0.851,0.5-1.17
	c0.316-0.314,0.742-0.507,1.183-0.526l8.369-0.352c0.596-0.026,1.119,0.258,1.407,0.706c0.157,0.243,0.244,0.531,0.241,0.845
	c-0.01,0.898-0.762,1.656-1.682,1.695l-3.936,0.168c2.181,3.221,6.719,4.029,10.204,1.785c0.329-0.213,0.63-0.451,0.917-0.7
	c0,0,0.787-0.935,1.906-0.302C60.459,63.229,59.649,64.561,59.649,64.561z"/>
</svg>
