<?xml version="1.0" encoding="utf-8"?>
<!-- Generator: Adobe Illustrator 16.0.0, SVG Export Plug-In . SVG Version: 6.00 Build 0)  -->
<!DOCTYPE svg PUBLIC "-//W3C//DTD SVG 1.1//EN" "http://www.w3.org/Graphics/SVG/1.1/DTD/svg11.dtd">
<svg version="1.1" id="Layer_1" xmlns="http://www.w3.org/2000/svg" xmlns:xlink="http://www.w3.org/1999/xlink" x="0px" y="0px"
	 width="100px" height="100px" viewBox="0 0 100 100" enable-background="new 0 0 100 100" xml:space="preserve">
<path fill="#020202" d="M71.822,12.375H28.178c-3.388,0-6.145,2.757-6.145,6.146v62.959c0,3.389,2.757,6.146,6.145,6.146h43.645
	c3.388,0,6.145-2.757,6.145-6.146V18.521C77.967,15.132,75.21,12.375,71.822,12.375z M71.822,84.875H28.178
	c-1.872,0-3.395-1.523-3.395-3.396V18.521c0-1.872,1.522-3.396,3.395-3.396h43.645c1.872,0,3.395,1.523,3.395,3.396v62.959
	C75.217,83.352,73.694,84.875,71.822,84.875z M70.125,22c0,0.758-0.617,1.375-1.375,1.375h-37.5c-0.758,0-1.375-0.617-1.375-1.375
	s0.617-1.375,1.375-1.375h37.5C69.508,20.625,70.125,21.242,70.125,22z M35.291,30.5c-0.758,0-1.375-0.617-1.375-1.375
	s0.617-1.375,1.375-1.375h29.417c0.758,0,1.375,0.617,1.375,1.375S65.466,30.5,64.708,30.5H35.291z M70.125,36.25
	c0,0.758-0.617,1.375-1.375,1.375h-37.5c-0.758,0-1.375-0.617-1.375-1.375s0.617-1.375,1.375-1.375h37.5
	C69.508,34.875,70.125,35.492,70.125,36.25z M70.125,42.875c0,0.758-0.617,1.375-1.375,1.375h-37.5
	c-0.758,0-1.375-0.617-1.375-1.375S30.492,41.5,31.25,41.5h37.5C69.508,41.5,70.125,42.117,70.125,42.875z M70.125,50
	c0,0.758-0.617,1.375-1.375,1.375h-37.5c-0.758,0-1.375-0.617-1.375-1.375s0.617-1.375,1.375-1.375h37.5
	C69.508,48.625,70.125,49.242,70.125,50z M70.125,57.125c0,0.758-0.617,1.375-1.375,1.375h-37.5c-0.758,0-1.375-0.617-1.375-1.375
	s0.617-1.375,1.375-1.375h37.5C69.508,55.75,70.125,56.367,70.125,57.125z M70.125,63.125c0,0.758-0.617,1.375-1.375,1.375h-37.5
	c-0.758,0-1.375-0.617-1.375-1.375s0.617-1.375,1.375-1.375h37.5C69.508,61.75,70.125,62.367,70.125,63.125z M70.125,70.25
	c0,0.758-0.617,1.375-1.375,1.375h-37.5c-0.758,0-1.375-0.617-1.375-1.375s0.617-1.375,1.375-1.375h37.5
	C69.508,68.875,70.125,69.492,70.125,70.25z M70.125,77.375c0,0.758-0.617,1.375-1.375,1.375h-37.5
	c-0.758,0-1.375-0.617-1.375-1.375S30.492,76,31.25,76h37.5C69.508,76,70.125,76.617,70.125,77.375z"/>
</svg>
