<?xml version="1.0" encoding="utf-8"?>
<!-- Generator: Adobe Illustrator 16.0.0, SVG Export Plug-In . SVG Version: 6.00 Build 0)  -->
<!DOCTYPE svg PUBLIC "-//W3C//DTD SVG 1.1//EN" "http://www.w3.org/Graphics/SVG/1.1/DTD/svg11.dtd">
<svg version="1.1" id="Layer_1" xmlns="http://www.w3.org/2000/svg" xmlns:xlink="http://www.w3.org/1999/xlink" x="0px" y="0px"
	 width="100px" height="100px" viewBox="0 0 100 100" enable-background="new 0 0 100 100" xml:space="preserve">
<path fill="#020202" d="M77.586,21.808h-13.5v-6.512c0-1.93-1.57-3.5-3.5-3.5h-40c-1.93,0-3.5,1.57-3.5,3.5v56.597
	c0,1.93,1.57,3.5,3.5,3.5h13.5v6.512c0,1.93,1.57,3.5,3.5,3.5h40c1.93,0,3.5-1.57,3.5-3.5V25.308
	C81.086,23.378,79.516,21.808,77.586,21.808z M20.586,72.393c-0.275,0-0.5-0.224-0.5-0.5V15.296c0-0.276,0.225-0.5,0.5-0.5h40
	c0.275,0,0.5,0.224,0.5,0.5v6.512v50.085c0,0.276-0.225,0.5-0.5,0.5H20.586z M78.086,81.904c0,0.276-0.225,0.5-0.5,0.5h-40
	c-0.275,0-0.5-0.224-0.5-0.5v-6.306h23.5c1.93,0,3.5-1.57,3.5-3.5v-0.206v-0.855h7.165c0.828,0,1.5-0.671,1.5-1.5
	s-0.672-1.5-1.5-1.5h-7.165v-7.333h7.165c0.828,0,1.5-0.671,1.5-1.5s-0.672-1.5-1.5-1.5h-7.165v-7.5h7.165
	c0.828,0,1.5-0.671,1.5-1.5s-0.672-1.5-1.5-1.5h-7.165V40h1.997c0.828,0,1.5-0.671,1.5-1.5s-0.672-1.5-1.5-1.5h-1.997V24.808h13.5
	c0.275,0,0.5,0.224,0.5,0.5V81.904z M24,26.796c0-0.829,0.672-1.5,1.5-1.5h24.333c0.828,0,1.5,0.671,1.5,1.5s-0.672,1.5-1.5,1.5
	H25.5C24.672,28.296,24,27.625,24,26.796z M56.501,37c0,0.829-0.672,1.5-1.5,1.5H25.5c-0.828,0-1.5-0.671-1.5-1.5s0.672-1.5,1.5-1.5
	h29.501C55.829,35.5,56.501,36.171,56.501,37z M56.501,47.5c0,0.829-0.672,1.5-1.5,1.5H25.5c-0.828,0-1.5-0.671-1.5-1.5
	s0.672-1.5,1.5-1.5h29.501C55.829,46,56.501,46.671,56.501,47.5z M56.501,57.833c0,0.829-0.672,1.5-1.5,1.5H25.5
	c-0.828,0-1.5-0.671-1.5-1.5s0.672-1.5,1.5-1.5h29.501C55.829,56.333,56.501,57.005,56.501,57.833z"/>
</svg>
