<?xml version="1.0" encoding="utf-8"?>
<!-- Generator: Adobe Illustrator 16.0.0, SVG Export Plug-In . SVG Version: 6.00 Build 0)  -->
<!DOCTYPE svg PUBLIC "-//W3C//DTD SVG 1.1//EN" "http://www.w3.org/Graphics/SVG/1.1/DTD/svg11.dtd">
<svg version="1.1" id="Layer_2" xmlns="http://www.w3.org/2000/svg" xmlns:xlink="http://www.w3.org/1999/xlink" x="0px" y="0px"
	 width="100px" height="100px" viewBox="0 0 100 100" enable-background="new 0 0 100 100" xml:space="preserve">
<path d="M11.388,70.503l0.333-1.718l0.526-0.027c1.736-0.093,2.813-0.31,3.229-0.651c0.414-0.342,1.509-1.898,3.282-4.669
	l21.42-34.633h2.024l6.562,34.135c0.48,2.512,0.965,4.091,1.454,4.737c0.49,0.646,1.455,1.007,2.896,1.081l0.691,0.027l-0.359,1.718
	H38.068l0.361-1.718h0.857c2.68,0,4.018-0.443,4.018-1.33c0-0.942-0.156-2.264-0.47-3.964l-1.06-5.623H24.692l-3.469,5.514
	c-1.422,2.235-2.133,3.677-2.133,4.322c0,0.721,1.137,1.081,3.408,1.081h0.692l-0.359,1.718H11.388z M25.794,55.458h15.472
	l-3.571-19.284L25.794,55.458z M77.19,70.503l2.529-12.688c-2.296,4.053-4.855,7.295-7.678,9.729c-2.82,2.434-5.448,3.65-7.883,3.65
	c-1.974,0-3.453-0.582-4.439-1.746c-0.987-1.165-1.479-2.903-1.479-5.214c0-6.008,2.11-11.596,6.333-16.764
	c4.224-5.167,8.789-7.751,13.693-7.751c0.517,0,1.18,0.059,1.991,0.174c0.813,0.115,1.78,0.289,2.906,0.519h5.448l-4.511,22.91
	c-0.313,1.517-0.471,2.837-0.471,3.965c0,0.591,0.176,0.952,0.527,1.081c0.35,0.13,1.504,0.259,3.463,0.389l0.498,0.027
	l-0.332,1.718H77.19z M80.543,53.687l1.917-9.615c-1.067-0.564-2.161-0.982-3.283-1.254c-1.123-0.272-2.281-0.409-3.477-0.409
	c-2.76,0-4.993,1.247-6.703,3.741c-1.361,1.994-2.529,4.654-3.505,7.979c-0.976,3.325-1.461,6.317-1.461,8.978
	c0,1.33,0.22,2.327,0.663,2.992c0.441,0.665,1.104,0.997,1.99,0.997C70.206,67.095,74.825,62.625,80.543,53.687z"/>
</svg>
