<?xml version="1.0" encoding="utf-8"?>
<!-- Generator: Adobe Illustrator 16.0.0, SVG Export Plug-In . SVG Version: 6.00 Build 0)  -->
<!DOCTYPE svg PUBLIC "-//W3C//DTD SVG 1.1//EN" "http://www.w3.org/Graphics/SVG/1.1/DTD/svg11.dtd">
<svg version="1.1" id="Layer_2" xmlns="http://www.w3.org/2000/svg" xmlns:xlink="http://www.w3.org/1999/xlink" x="0px" y="0px"
	 width="100px" height="100px" viewBox="0 0 100 100" enable-background="new 0 0 100 100" xml:space="preserve">
<path d="M82.606,11.371H17.394c-3.341,0-6.06,2.718-6.06,6.059v65.14c0,3.341,2.719,6.06,6.06,6.06h65.212
	c3.341,0,6.06-2.719,6.06-6.06V17.43C88.666,14.088,85.947,11.371,82.606,11.371z M78.498,18.268c1.435,0,2.597,1.163,2.597,2.597
	c0,1.435-1.162,2.597-2.597,2.597s-2.597-1.163-2.597-2.597C75.901,19.431,77.063,18.268,78.498,18.268z M69.192,18.268
	c1.435,0,2.597,1.163,2.597,2.597c0,1.435-1.162,2.597-2.597,2.597s-2.597-1.163-2.597-2.597
	C66.595,19.431,67.757,18.268,69.192,18.268z M81.741,81.704H18.259V29.909h63.481V81.704z M30.883,68.711h-0.475
	c-1.556,0-2.335-0.247-2.335-0.741c0-0.442,0.487-1.43,1.461-2.961l2.376-3.777h11.704l0.726,3.853
	c0.215,1.165,0.322,2.07,0.322,2.716c0,0.607-0.917,0.911-2.753,0.911h-0.587l-0.248,1.177h10.536l0.246-1.177l-0.474-0.019
	c-0.988-0.051-1.649-0.298-1.984-0.741s-0.667-1.525-0.997-3.246l-4.495-23.387h-1.387L27.845,65.047
	c-1.215,1.898-1.965,2.964-2.249,3.199c-0.285,0.234-1.022,0.383-2.212,0.446l-0.36,0.019l-0.228,1.177h7.841L30.883,68.711z
	 M40.819,46.368l2.447,13.212h-10.6L40.819,46.368z M58.951,70.362c1.668,0,3.469-0.833,5.401-2.501
	c1.934-1.668,3.688-3.889,5.26-6.666l-1.733,8.692h7.26l0.227-1.177l-0.341-0.019c-1.342-0.089-2.133-0.177-2.373-0.267
	c-0.241-0.088-0.361-0.335-0.361-0.74c0-0.773,0.107-1.678,0.322-2.717l3.09-15.696h-3.732c-0.771-0.157-1.435-0.276-1.991-0.355
	c-0.556-0.079-1.01-0.119-1.364-0.119c-3.36,0-6.488,1.77-9.382,5.31c-2.893,3.541-4.339,7.369-4.339,11.485
	c0,1.583,0.337,2.774,1.014,3.572C56.585,69.963,57.599,70.362,58.951,70.362z M59.864,58.669c0.668-2.277,1.468-4.1,2.401-5.466
	c1.171-1.709,2.702-2.563,4.592-2.563c0.819,0,1.612,0.093,2.382,0.28c0.769,0.186,1.518,0.472,2.25,0.859l-1.313,6.588
	c-3.917,6.124-7.082,9.186-9.495,9.186c-0.607,0-1.061-0.228-1.364-0.683c-0.304-0.456-0.454-1.139-0.454-2.05
	C58.863,62.997,59.196,60.947,59.864,58.669z"/>
</svg>
