<?xml version="1.0" encoding="utf-8"?>
<!-- Generator: Adobe Illustrator 16.0.0, SVG Export Plug-In . SVG Version: 6.00 Build 0)  -->
<!DOCTYPE svg PUBLIC "-//W3C//DTD SVG 1.1//EN" "http://www.w3.org/Graphics/SVG/1.1/DTD/svg11.dtd">
<svg version="1.1" id="Layer_2" xmlns="http://www.w3.org/2000/svg" xmlns:xlink="http://www.w3.org/1999/xlink" x="0px" y="0px"
	 width="100px" height="100px" viewBox="0 0 100 100" enable-background="new 0 0 100 100" xml:space="preserve">
<path d="M28.084,20.313h25.75c5.055,0,9.088,1.371,12.096,4.112c3.007,2.741,4.511,6.294,4.511,10.659
	c0,2.634-0.659,5.037-1.976,7.206c-1.318,2.169-3.281,3.852-5.89,5.049c3.661,1.384,5.033,3.221,6.755,5.51
	c1.723,2.289,2.586,5.229,2.586,8.822c0,5.057-1.826,9.209-5.475,12.456c-3.649,3.247-7.151,4.87-13.144,4.87H28.084V20.313z
	 M37.228,45.144h13.092c4.206,0,6.188-0.765,8.144-2.296c1.955-1.53,2.934-3.918,2.934-7.166c0-2.795-0.926-4.923-2.775-6.387
	c-1.85-1.463-3.857-2.196-8.221-2.196H37.228V45.144z M37.228,72.209h15.608c4.151,0,5.726-0.965,7.802-2.895
	c2.075-1.929,3.112-4.531,3.112-7.804c0-3.327-1.156-5.809-3.472-7.445c-2.316-1.637-4.196-2.455-8.721-2.455h-14.33V72.209z"/>
</svg>
