<?xml version="1.0" encoding="utf-8"?>
<!-- Generator: Adobe Illustrator 16.0.0, SVG Export Plug-In . SVG Version: 6.00 Build 0)  -->
<!DOCTYPE svg PUBLIC "-//W3C//DTD SVG 1.1//EN" "http://www.w3.org/Graphics/SVG/1.1/DTD/svg11.dtd">
<svg version="1.1" id="Layer_2" xmlns="http://www.w3.org/2000/svg" xmlns:xlink="http://www.w3.org/1999/xlink" x="0px" y="0px"
	 width="100px" height="100px" viewBox="0 0 100 100" enable-background="new 0 0 100 100" xml:space="preserve">
<path d="M65.756,66.237H52.344L37.081,48.331L22.164,66.237H9.041l21.621-24.483L10.081,18.649h13.24L37.661,35.4l14.451-16.751
	h12.662L43.96,41.754L65.756,66.237z M73.997,76.189l8.733-6.614c3.064-2.104,5.077-4.058,6.042-5.86
	c0.964-1.801,1.445-3.737,1.445-5.811c0-3.388-1.133-6.123-3.396-8.204c-2.264-2.082-5.242-3.122-8.931-3.122
	c-3.555,0-6.401,1.053-8.531,3.158c-2.134,2.106-3.2,5.28-3.2,9.525h6.861c0-2.533,0.448-4.284,1.344-5.255
	c0.896-0.97,2.125-1.457,3.689-1.457c1.563,0,2.798,0.494,3.714,1.481c0.911,0.986,1.367,2.212,1.367,3.677
	c0,1.463-0.422,2.787-1.27,3.972c-0.848,1.185-3.203,3.183-7.068,5.996c-3.307,2.418-7.781,4.696-9.123,6.834l0.067,7.946h24.552
	v-6.267H73.997z"/>
</svg>
