<?xml version="1.0" encoding="utf-8"?>
<!-- Generator: Adobe Illustrator 16.0.0, SVG Export Plug-In . SVG Version: 6.00 Build 0)  -->
<!DOCTYPE svg PUBLIC "-//W3C//DTD SVG 1.1//EN" "http://www.w3.org/Graphics/SVG/1.1/DTD/svg11.dtd">
<svg version="1.1" id="Layer_2" xmlns="http://www.w3.org/2000/svg" xmlns:xlink="http://www.w3.org/1999/xlink" x="0px" y="0px"
	 width="100px" height="100px" viewBox="0 0 100 100" enable-background="new 0 0 100 100" xml:space="preserve">
<path d="M15.068,56.26v-1.18v-3.764h4.976v-0.033h3.763h1.181h3.796v3.796v1.18v4.944h6.156V56.26v-1.18v-3.796v-1.18V46.34v-1.213
	v-3.763v-1.181v-4.977h-4.976v-5.008h-4.977v-4.912h-6.125v4.977h-4.976v4.976H8.943v4.944v1.181v3.795v1.181v3.763v1.213v3.764
	v1.18v4.944h6.125V56.26z M15.068,41.364v-1.181v-3.764h4.944v-4.977h3.795v4.912h4.978v3.829v1.181v3.763h-4.978v0.032h-3.763
	h-1.181h-3.795V41.364z M43.126,61.204h3.795h1.181h3.762h1.182h4.978V56.26h4.975v-4.977v-1.18v-4.977h-4.975v-3.763h4.975v-4.945
	v-1.213v-4.943h-4.975v-4.977h-4.978h-1.182h-3.762h-1.181h-3.795h-1.182h-4.943v4.977v1.212v3.764v1.18v3.764v1.213v3.763v1.181
	v3.795v1.181v3.764v1.18v4.944h4.943H43.126z M43.126,36.419v-1.18v-3.764v-0.033h3.795h1.181h3.762h1.182h3.795v3.764v1.213v3.764
	h-3.795h-1.182h-3.762h-1.181h-3.795V36.419z M43.126,51.316v-1.181V46.34h3.795h1.181h3.762h1.182h3.795v3.763v1.18v3.796h-3.795
	h-1.182h-3.762h-1.181h-3.795V51.316z M70.003,56.26H65.06v-4.977v-1.18V46.34v-1.181v-3.795v-1.181v-3.764v-1.18v-4.976h4.944
	v-4.977h4.976h1.182h3.762h1.18h4.978v4.977h4.976v6.156h-6.157v-4.977h-3.797h-1.18h-3.762h-1.182h-3.796v3.797v1.18v3.764v1.181
	v3.795v1.181v3.763h0.033v4.977h3.763h1.182h3.762h1.214h3.763v-4.977h6.157v6.157h-4.976v4.944h-4.944h-1.214h-3.762h-1.182h-4.976
	V56.26z M14.053,63.654v5.53H8.522v-5.53H14.053z M14.053,69.184h5.53v5.531h-5.53V69.184z M25.113,63.654v5.53h-5.53v-5.53H25.113z
	 M25.113,69.184h5.531v5.531h-5.531V69.184z M36.174,63.654v5.53h-5.531v-5.53H36.174z M36.174,69.184h5.53v5.531h-5.53V69.184z
	 M47.234,63.654v5.53h-5.53v-5.53H47.234z M47.234,69.184h5.531v5.531h-5.531V69.184z M58.296,63.654v5.53h-5.531v-5.53H58.296z
	 M58.296,69.184h5.53v5.531h-5.53V69.184z M69.356,63.654v5.53h-5.53v-5.53H69.356z M69.356,69.184h5.531v5.531h-5.531V69.184z
	 M80.417,63.654v5.53h-5.53v-5.53H80.417z M91.478,63.654v5.53h-5.53v-5.53H91.478z M80.417,69.184h5.53v5.531h-5.53V69.184z"/>
</svg>
