<?xml version="1.0" encoding="utf-8"?>
<!-- Generator: Adobe Illustrator 16.0.0, SVG Export Plug-In . SVG Version: 6.00 Build 0)  -->
<!DOCTYPE svg PUBLIC "-//W3C//DTD SVG 1.1//EN" "http://www.w3.org/Graphics/SVG/1.1/DTD/svg11.dtd">
<svg version="1.1" id="Layer_3" xmlns="http://www.w3.org/2000/svg" xmlns:xlink="http://www.w3.org/1999/xlink" x="0px" y="0px"
	 width="100px" height="100px" viewBox="0 0 100 100" enable-background="new 0 0 100 100" xml:space="preserve">
<path d="M85.525,60.491l3.344-26.365l-23.986-9.103L42.148,35.882l0.824,2.477l19.01-9.079l-2.375,25.554l0.133,1.369l-20.139,3.037
	L38.26,47.375l-3.188-5.137l1.967,17.388l-0.598,0.09L17.037,56.71l0.115-0.956l-2.975-23.438l19.969,8.432l-2.363-3.808
	l-2.344-0.989c-3.371-0.144-6.48-1.484-8.83-3.729l-9.568-4.041l3.5,27.584l-0.066,0.549l-0.049-0.007l-0.398,2.559l0.143,0.021
	l-2.99,25.118l26.637,4.995l27.168-5.175l23.977,5.533L85.525,60.491z M64.705,27.979L65,27.839l21.043,7.984l-2.857,22.514
	l-20.432-2.588l-0.447,0.066l-0.098-0.973L64.705,27.979z M35.033,85.843l-20.996-3.938l2.695-22.622l19.703,3.054l0.895-0.136
	l0.1,0.88L35.033,85.843z M37.814,86.364l-0.227-0.043l2.447-23.25l-0.016-0.141l-0.127-1.115l20.102-3.031l2.215,22.663
	l2.578-0.253l-2.229-22.796l0.225-0.034l20.086,2.544l0.049-0.392l3.035,25.489l-20.918-4.827L37.814,86.364z M19.217,27.429
	c-2.824-5.791-0.42-12.776,5.371-15.602s12.775-0.421,15.602,5.37c2.242,4.599,1.18,9.943-2.252,13.367l6.672,20.042
	c0.158,0.477-0.061,0.995-0.51,1.215c-0.004,0.002-0.01,0.004-0.014,0.007c-0.459,0.215-1.008,0.053-1.275-0.378L31.838,33.773
	C26.809,34.713,21.57,32.252,19.217,27.429z"/>
</svg>
