<?xml version="1.0" encoding="iso-8859-1"?>
<!-- Generator: Adobe Illustrator 18.0.0, SVG Export Plug-In . SVG Version: 6.00 Build 0)  -->
<!DOCTYPE svg PUBLIC "-//W3C//DTD SVG 1.1//EN" "http://www.w3.org/Graphics/SVG/1.1/DTD/svg11.dtd">
<svg version="1.1" id="Capa_1" xmlns="http://www.w3.org/2000/svg" xmlns:xlink="http://www.w3.org/1999/xlink" x="0px" y="0px"
	 viewBox="0 0 11 16" style="enable-background:new 0 0 11 16;" xml:space="preserve">
<g id="Pin">
	<g>
		<path style="fill-rule:evenodd;clip-rule:evenodd;" d="M5.466,0C5.466,0,0,0.062,0,5.969C0,8.969,5.466,16,5.466,16
			S11,9.031,11,5.937C11,0.062,5.466,0,5.466,0z M5.479,13c0,0-3.474-4.831-3.48-6.893C1.986,2.046,5.477,2,5.479,2
			c0.006,0,3.542,0.045,3.509,4.084C8.972,8.211,5.479,13,5.479,13z M5.5,4C4.672,4,4,4.672,4,5.5C4,6.328,4.672,7,5.5,7
			C6.328,7,7,6.328,7,5.5C7,4.672,6.328,4,5.5,4z"/>
	</g>
</g>
<g>
</g>
<g>
</g>
<g>
</g>
<g>
</g>
<g>
</g>
<g>
</g>
<g>
</g>
<g>
</g>
<g>
</g>
<g>
</g>
<g>
</g>
<g>
</g>
<g>
</g>
<g>
</g>
<g>
</g>
</svg>
