<?xml version="1.0" encoding="utf-8"?>
<!-- Generator: Adobe Illustrator 16.0.0, SVG Export Plug-In . SVG Version: 6.00 Build 0)  -->
<!DOCTYPE svg PUBLIC "-//W3C//DTD SVG 1.1//EN" "http://www.w3.org/Graphics/SVG/1.1/DTD/svg11.dtd">
<svg version="1.1" id="Layer_3" xmlns="http://www.w3.org/2000/svg" xmlns:xlink="http://www.w3.org/1999/xlink" x="0px" y="0px"
	 width="100px" height="100px" viewBox="0 0 100 100" enable-background="new 0 0 100 100" xml:space="preserve">
<path d="M49.628,50.5L21.226,22.098c-2.041-2.041-2.041-5.352,0-7.393c2.041-2.042,5.351-2.042,7.393,0l32.1,32.099
	c1.02,1.021,1.53,2.358,1.53,3.696s-0.511,2.676-1.53,3.696l-32.1,32.099c-2.042,2.042-5.352,2.042-7.393,0
	c-2.041-2.041-2.041-5.351,0-7.393L49.628,50.5z M68.972,13.174v72.083c0,0.553,0.447,1,1,1h9.333c0.553,0,1-0.447,1-1V13.174
	c0-0.553-0.447-1-1-1h-9.333C69.419,12.174,68.972,12.621,68.972,13.174z"/>
</svg>
