<?xml version="1.0" encoding="utf-8"?>
<!-- Generator: Adobe Illustrator 16.0.0, SVG Export Plug-In . SVG Version: 6.00 Build 0)  -->
<!DOCTYPE svg PUBLIC "-//W3C//DTD SVG 1.1//EN" "http://www.w3.org/Graphics/SVG/1.1/DTD/svg11.dtd">
<svg version="1.1" id="Layer_3" xmlns="http://www.w3.org/2000/svg" xmlns:xlink="http://www.w3.org/1999/xlink" x="0px" y="0px"
	 width="100px" height="100px" viewBox="0 0 100 100" enable-background="new 0 0 100 100" xml:space="preserve">
<path d="M84.596,46.03c1.974,1.973,1.974,5.171,0,7.145L53.572,84.2c-0.986,0.985-2.279,1.479-3.572,1.479s-2.586-0.493-3.572-1.479
	L15.404,53.175c-1.974-1.974-1.974-5.172,0-7.145c1.973-1.973,5.172-1.973,7.145,0L50,73.481L77.451,46.03
	C79.424,44.058,82.624,44.058,84.596,46.03z M46.428,53.971c0.986,0.985,2.279,1.479,3.572,1.479s2.586-0.494,3.572-1.479
	l31.024-31.024c1.974-1.974,1.974-5.173,0-7.146c-1.973-1.973-5.172-1.973-7.145,0L50,43.252L22.549,15.801
	c-1.973-1.973-5.172-1.973-7.145,0c-1.974,1.973-1.974,5.172,0,7.146L46.428,53.971z"/>
</svg>
