<?xml version="1.0" encoding="utf-8"?>
<!-- Generator: Adobe Illustrator 16.0.0, SVG Export Plug-In . SVG Version: 6.00 Build 0)  -->
<!DOCTYPE svg PUBLIC "-//W3C//DTD SVG 1.1//EN" "http://www.w3.org/Graphics/SVG/1.1/DTD/svg11.dtd">
<svg version="1.1" id="Layer_3" xmlns="http://www.w3.org/2000/svg" xmlns:xlink="http://www.w3.org/1999/xlink" x="0px" y="0px"
	 width="100px" height="100px" viewBox="0 0 100 100" enable-background="new 0 0 100 100" xml:space="preserve">
<path d="M15.403,53.97c-1.973-1.973-1.973-5.171,0-7.145L46.428,15.8c0.986-0.985,2.279-1.479,3.572-1.479s2.586,0.493,3.572,1.479
	l31.024,31.025c1.973,1.974,1.973,5.172,0,7.145s-5.172,1.973-7.146,0L50,26.519L22.549,53.97
	C20.575,55.942,17.376,55.942,15.403,53.97z M53.572,46.029C52.586,45.044,51.293,44.55,50,44.55s-2.586,0.494-3.572,1.479
	L15.403,77.054c-1.973,1.974-1.973,5.173,0,7.146s5.172,1.973,7.146,0L50,56.748l27.451,27.451c1.974,1.973,5.173,1.973,7.146,0
	s1.973-5.172,0-7.146L53.572,46.029z"/>
</svg>
