<?xml version="1.0" encoding="utf-8"?>
<!-- Generator: Adobe Illustrator 16.0.0, SVG Export Plug-In . SVG Version: 6.00 Build 0)  -->
<!DOCTYPE svg PUBLIC "-//W3C//DTD SVG 1.1//EN" "http://www.w3.org/Graphics/SVG/1.1/DTD/svg11.dtd">
<svg version="1.1" id="Layer_3" xmlns="http://www.w3.org/2000/svg" xmlns:xlink="http://www.w3.org/1999/xlink" x="0px" y="0px"
	 width="100px" height="100px" viewBox="0 0 100 100" enable-background="new 0 0 100 100" xml:space="preserve">
<path d="M73.199,64.13c0.416,0.417,0.418,1.095-0.001,1.513l-7.555,7.555c-0.418,0.418-1.095,0.417-1.513,0L42.303,51.369
	l-5.702,13.154c-0.193,0.439-0.655,0.7-1.132,0.633c-0.476-0.066-0.85-0.441-0.91-0.92l-4.283-32.762
	c-0.043-0.33,0.07-0.661,0.304-0.895c0.235-0.236,0.565-0.348,0.896-0.305l32.762,4.282c0.24,0.032,0.455,0.142,0.618,0.304
	c0.16,0.16,0.269,0.369,0.303,0.608c0.067,0.475-0.193,0.937-0.633,1.128L51.37,42.302L73.199,64.13z M77.562,77.563
	C62.364,92.76,37.636,92.759,22.438,77.562S7.24,37.635,22.438,22.438s39.927-15.196,55.124,0.001S92.759,62.365,77.562,77.563z
	 M74.539,25.461c-13.53-13.53-35.547-13.531-49.078,0s-13.53,35.548,0,49.078c13.532,13.531,35.548,13.53,49.078,0
	C88.07,61.008,88.07,38.993,74.539,25.461z"/>
</svg>
