<?xml version="1.0" encoding="utf-8"?>
<!-- Generator: Adobe Illustrator 16.0.0, SVG Export Plug-In . SVG Version: 6.00 Build 0)  -->
<!DOCTYPE svg PUBLIC "-//W3C//DTD SVG 1.1//EN" "http://www.w3.org/Graphics/SVG/1.1/DTD/svg11.dtd">
<svg version="1.1" id="Layer_1" xmlns="http://www.w3.org/2000/svg" xmlns:xlink="http://www.w3.org/1999/xlink" x="0px" y="0px"
	 width="100px" height="100px" viewBox="0 0 100 100" enable-background="new 0 0 100 100" xml:space="preserve">
<path fill="#020202" d="M20.239,40.1c0-15.576,12.671-28.248,28.248-28.248c12.894,0,23.772,8.693,27.146,20.52
	c-0.617,0.668-1.048,1.515-1.17,2.474l-0.308,2.465l-0.523,2.792L70.745,40.1c0-12.274-9.986-22.259-22.258-22.259
	c-12.275,0-22.261,9.985-22.261,22.259c0,8.326,4.603,15.586,11.389,19.404l-4.353,4.353C25.442,58.827,20.239,50.068,20.239,40.1z
	 M48.487,22.358c-1.655,0-2.994,1.341-2.994,2.994V40.1c0,1.653,1.339,2.994,2.994,2.994h16.939c1.654,0,2.995-1.341,2.995-2.994
	c0-1.654-1.341-2.995-2.995-2.995H51.481V25.352C51.481,23.699,50.139,22.358,48.487,22.358z M79.669,35.556
	c-0.021-0.783-0.642-1.418-1.423-1.458c-0.747-0.043-1.463,0.529-1.561,1.309l-0.32,2.554l-0.559,2.982
	c-0.231,1.034-0.47,2.103-0.914,3.265l-0.671,1.963l-0.951,2.092c-0.34,0.858-0.855,1.722-1.402,2.637
	c-0.278,0.463-0.558,0.931-0.82,1.409c-0.276,0.372-0.546,0.75-0.813,1.131c-0.705,0.993-1.369,1.931-2.261,2.866
	c-0.775,0.967-1.704,1.831-2.685,2.746c-0.289,0.269-0.576,0.537-0.86,0.808c-0.318,0.242-0.633,0.487-0.945,0.731
	c-1.043,0.812-2.025,1.578-3.194,2.25c-0.903,0.629-1.934,1.137-2.929,1.626c-0.416,0.205-0.829,0.409-1.23,0.617
	c-0.508,0.183-1.002,0.38-1.489,0.574c-0.912,0.365-1.773,0.708-2.685,0.909l-1.979,0.548l-1.946,0.333
	c-0.99,0.212-1.861,0.262-2.705,0.312l-1.586,0.121l-0.224-0.005V60.89c0-0.605-0.364-1.151-0.924-1.383
	c-0.562-0.231-1.203-0.104-1.633,0.324l-12.881,12.88c-0.28,0.281-0.438,0.662-0.438,1.059s0.158,0.778,0.438,1.059l12.881,12.88
	c0.287,0.286,0.67,0.438,1.059,0.438c0.193,0,0.388-0.037,0.574-0.114c0.56-0.232,0.924-0.778,0.924-1.384v-7.3l2.757-0.505
	c1.275-0.263,2.862-0.593,4.382-1.157l1.772-0.594l2.938-1.243c1.238-0.488,2.411-1.174,3.544-1.837
	c0.485-0.284,0.975-0.57,1.475-0.845c0.055-0.03,0.106-0.063,0.158-0.099c0.391-0.282,0.788-0.559,1.187-0.837
	c1.21-0.84,2.459-1.71,3.528-2.715c1.32-1.052,2.474-2.271,3.589-3.45l0.809-0.852c0.035-0.037,0.069-0.075,0.102-0.116l0.732-0.926
	c0.998-1.255,2.032-2.555,2.812-3.889c0.874-1.25,1.532-2.553,2.169-3.815c0.219-0.436,0.437-0.867,0.66-1.289
	c0.03-0.058,0.058-0.117,0.08-0.178c0.199-0.535,0.413-1.057,0.623-1.57c0.465-1.136,0.945-2.311,1.216-3.463l0.69-2.456l0.394-2.16
	c0.313-1.424,0.403-2.727,0.484-3.876l0.144-1.954L79.669,35.556z"/>
</svg>
