<?xml version="1.0" encoding="utf-8"?>
<!-- Generator: Adobe Illustrator 16.0.0, SVG Export Plug-In . SVG Version: 6.00 Build 0)  -->
<!DOCTYPE svg PUBLIC "-//W3C//DTD SVG 1.1//EN" "http://www.w3.org/Graphics/SVG/1.1/DTD/svg11.dtd">
<svg version="1.1" id="Layer_3" xmlns="http://www.w3.org/2000/svg" xmlns:xlink="http://www.w3.org/1999/xlink" x="0px" y="0px"
	 width="100px" height="100px" viewBox="0 0 100 100" enable-background="new 0 0 100 100" xml:space="preserve">
<path d="M78.774,78.902c2.041,2.042,2.041,5.352,0,7.393c-2.041,2.042-5.351,2.042-7.393,0l-32.1-32.099
	c-1.02-1.021-1.53-2.358-1.53-3.696s0.511-2.676,1.53-3.696l32.1-32.099c2.042-2.042,5.352-2.042,7.393,0
	c2.041,2.041,2.041,5.352,0,7.393L50.372,50.5L78.774,78.902z M30.028,12.174h-9.333c-0.553,0-1,0.447-1,1v72.083
	c0,0.553,0.447,1,1,1h9.333c0.553,0,1-0.447,1-1V13.174C31.028,12.621,30.581,12.174,30.028,12.174z"/>
</svg>
