<?xml version="1.0" encoding="utf-8"?>
<!-- Generator: Adobe Illustrator 16.0.0, SVG Export Plug-In . SVG Version: 6.00 Build 0)  -->
<!DOCTYPE svg PUBLIC "-//W3C//DTD SVG 1.1//EN" "http://www.w3.org/Graphics/SVG/1.1/DTD/svg11.dtd">
<svg version="1.1" id="Layer_3" xmlns="http://www.w3.org/2000/svg" xmlns:xlink="http://www.w3.org/1999/xlink" x="0px" y="0px"
	 width="100px" height="100px" viewBox="0 0 100 100" enable-background="new 0 0 100 100" xml:space="preserve">
<path d="M70.992,49.559c0.289,0.383,0.288,0.912-0.007,1.294L50.848,77.047c-0.202,0.263-0.517,0.418-0.848,0.418
	c-0.333,0-0.646-0.155-0.848-0.418L29.014,50.853c-0.147-0.192-0.222-0.422-0.222-0.651c0-0.227,0.071-0.452,0.216-0.645
	c0.288-0.383,0.799-0.525,1.245-0.351l13.335,5.269l-0.001-30.87c0.001-0.59,0.479-1.069,1.07-1.069h10.685
	c0.591,0,1.068,0.479,1.069,1.069l-0.001,30.87l13.335-5.269C70.192,49.031,70.703,49.174,70.992,49.559z M88.978,50
	c0,21.492-17.485,38.978-38.978,38.978S11.022,71.492,11.022,50S28.508,11.022,50,11.022S88.978,28.508,88.978,50z M84.703,50
	c0-19.136-15.568-34.703-34.703-34.703c-19.136,0-34.703,15.567-34.703,34.703c0,19.135,15.567,34.703,34.703,34.703
	C69.135,84.703,84.703,69.135,84.703,50z"/>
</svg>
