<?xml version="1.0" encoding="utf-8"?>
<!-- Generator: Adobe Illustrator 16.0.0, SVG Export Plug-In . SVG Version: 6.00 Build 0)  -->
<!DOCTYPE svg PUBLIC "-//W3C//DTD SVG 1.1//EN" "http://www.w3.org/Graphics/SVG/1.1/DTD/svg11.dtd">
<svg version="1.1" id="Layer_3" xmlns="http://www.w3.org/2000/svg" xmlns:xlink="http://www.w3.org/1999/xlink" x="0px" y="0px"
	 width="100px" height="100px" viewBox="0 0 100 100" enable-background="new 0 0 100 100" xml:space="preserve">
<path d="M91.696,23.253h-0.063h-8.038H80.25h-7.831h-3.345h-6.373h-5.035h-6.454h-5.035H35.001h-0.365H30.92h-0.063
	c-2.041,0-3.822,1.115-4.778,2.765c-1.351-3.874-5.026-6.658-9.36-6.658c-5.479,0-9.92,4.441-9.92,9.92v20.092
	c0,2.564,0.981,4.894,2.579,6.655H6.17v19.086H2.779v5.525h28.379v-5.525h-3.893V56.027h-3.207c1.598-1.761,2.579-4.091,2.579-6.655
	V32.696c0.37,0.439,0.8,0.827,1.289,1.134l0.018-0.027c0.86,0.552,1.88,0.877,2.976,0.877h1.473h6.141h5.035h6.455h5.035h6.373
	h5.035h6.141h5.035h6.454h5.035h2.501h0.063c3.046,0,5.524-2.479,5.524-5.525v-0.376C97.221,25.731,94.742,23.253,91.696,23.253z
	 M28.503,32.969c-0.871-0.554-1.533-1.399-1.865-2.394V29.28c0-0.51-0.051-1.007-0.125-1.497c0.455-2.015,2.257-3.525,4.407-3.525
	h3.044h0.364L28.503,32.969z M39.206,33.675h-6.142l6.299-9.417h6.141L39.206,33.675z M50.695,33.675h-6.454l6.298-9.417h6.455
	L50.695,33.675z M62.104,33.675H55.73l6.299-9.417h6.373L62.104,33.675z M73.279,33.675h-6.141l6.299-9.417h6.141L73.279,33.675z
	 M84.77,33.675h-6.455l6.299-9.417h6.454L84.77,33.675z M96.154,29.155c0,2.493-2.028,4.521-4.521,4.521h-1.828l5.247-7.846
	c-0.829-0.96-2.053-1.571-3.419-1.571h0.063c1.347,0,2.554,0.595,3.382,1.532l-0.026,0.04c0.685,0.792,1.103,1.822,1.103,2.949
	V29.155z"/>
</svg>
