<?xml version="1.0" encoding="utf-8"?>
<!-- Generator: Adobe Illustrator 16.0.0, SVG Export Plug-In . SVG Version: 6.00 Build 0)  -->
<!DOCTYPE svg PUBLIC "-//W3C//DTD SVG 1.1//EN" "http://www.w3.org/Graphics/SVG/1.1/DTD/svg11.dtd">
<svg version="1.1" id="Layer_3" xmlns="http://www.w3.org/2000/svg" xmlns:xlink="http://www.w3.org/1999/xlink" x="0px" y="0px"
	 width="100px" height="100px" viewBox="0 0 100 100" enable-background="new 0 0 100 100" xml:space="preserve">
<path d="M94.446,12.477l-0.148-0.346c-1.202-2.799-4.457-4.099-7.257-2.897l-0.058,0.024l-7.387,3.171l-3.073,1.319l-7.196,3.089
	l-3.073,1.319l-5.855,2.514l-4.627,1.986l-5.932,2.546l-4.627,1.986l-10.27,4.409l-0.335,0.144l-3.415,1.466l-0.058,0.024
	c-1.357,0.583-2.358,1.65-2.896,2.913c-1.47-3.639-5.03-6.209-9.195-6.209c-5.479,0-9.92,4.441-9.92,9.92v20.091
	c0,2.565,0.981,4.895,2.579,6.655H8.496v19.087H5.105v5.525h28.379v-5.525h-3.893V66.603h-3.207c1.598-1.761,2.579-4.09,2.579-6.655
	V41.843c0.875,1.233,2.201,2.037,3.651,2.265l0.006-0.032c1.008,0.168,2.073,0.064,3.08-0.368l1.354-0.582l5.644-2.422l4.626-1.986
	l5.932-2.546l4.627-1.986l5.855-2.514l4.627-1.986l5.643-2.422l4.627-1.986l5.932-2.546l4.627-1.986l2.298-0.987l0.058-0.025
	C94.349,18.531,95.648,15.276,94.446,12.477z M32.805,43.088c-1.476-0.24-2.805-1.201-3.438-2.674l-0.148-0.346
	c-0.142-0.33-0.235-0.667-0.295-1.007c-0.015-0.182-0.036-0.362-0.06-0.541c-0.095-1.835,0.94-3.623,2.726-4.39l2.797-1.201
	l0.336-0.144L32.805,43.088z M42.919,39.516l-5.643,2.422L39.35,30.8l5.642-2.422L42.919,39.516z M53.477,34.983l-5.931,2.546
	l2.072-11.139l5.932-2.546L53.477,34.983z M63.96,30.483l-5.856,2.514l2.072-11.139l5.856-2.514L63.96,30.483z M74.229,26.075
	l-5.643,2.422l2.073-11.139l5.642-2.422L74.229,26.075z M84.787,21.542l-5.931,2.546l2.072-11.139l5.932-2.546L84.787,21.542z
	 M91.095,18.835l-1.681,0.721l1.728-9.28C90,9.721,88.635,9.642,87.38,10.181l0.058-0.025c1.237-0.531,2.581-0.46,3.713,0.074
	l-0.009,0.046c0.941,0.458,1.73,1.24,2.176,2.275l0.148,0.346C94.449,15.188,93.386,17.852,91.095,18.835z"/>
</svg>
