<?xml version="1.0" encoding="iso-8859-1"?>
<!-- Generator: Adobe Illustrator 18.0.0, SVG Export Plug-In . SVG Version: 6.00 Build 0)  -->
<!DOCTYPE svg PUBLIC "-//W3C//DTD SVG 1.1//EN" "http://www.w3.org/Graphics/SVG/1.1/DTD/svg11.dtd">
<svg version="1.1" id="Capa_1" xmlns="http://www.w3.org/2000/svg" xmlns:xlink="http://www.w3.org/1999/xlink" x="0px" y="0px"
	 viewBox="0 0 22 22" style="enable-background:new 0 0 22 22;" xml:space="preserve">
<g>
	<path style="fill-rule:evenodd;clip-rule:evenodd;" d="M10.527,0C9.054,0,9,1,9,1h3C12,1,12,0,10.527,0z"/>
	<path style="fill-rule:evenodd;clip-rule:evenodd;" d="M0,10.377c0,1.425,1,2.6,1,2.6s1.399,1.874,2.79,1.874
		s1.612-1.521,3.295-1.521s2.594,1.517,3.622,1.521c1.024,0.005,2.527-1.513,3.601-1.521c1.522-0.012,2.474,1.505,3.656,1.521
		C19.145,14.868,21.5,13,21.5,13s0.5-1.314,0.5-2.623C22,9.068,19.82,2,11,2C2.18,2,0,8.952,0,10.377z"/>
	<path style="fill-rule:evenodd;clip-rule:evenodd;" d="M14.333,14c-1.271,0-2.276,1.5-3.59,1.5c-1.314,0-2.217-1.5-3.59-1.5
		c-1.372,0-2.088,1.5-3.333,1.5S1,14,1,14l2.564,8h14.872L21,14c0,0-1.833,1.5-3.077,1.5C16.679,15.5,15.605,14,14.333,14z"/>
</g>
<g>
</g>
<g>
</g>
<g>
</g>
<g>
</g>
<g>
</g>
<g>
</g>
<g>
</g>
<g>
</g>
<g>
</g>
<g>
</g>
<g>
</g>
<g>
</g>
<g>
</g>
<g>
</g>
<g>
</g>
</svg>
