<?xml version="1.0" encoding="iso-8859-1"?>
<!-- Generator: Adobe Illustrator 18.0.0, SVG Export Plug-In . SVG Version: 6.00 Build 0)  -->
<!DOCTYPE svg PUBLIC "-//W3C//DTD SVG 1.1//EN" "http://www.w3.org/Graphics/SVG/1.1/DTD/svg11.dtd">
<svg version="1.1" id="Capa_1" xmlns="http://www.w3.org/2000/svg" xmlns:xlink="http://www.w3.org/1999/xlink" x="0px" y="0px"
	 viewBox="0 0 16 16" style="enable-background:new 0 0 16 16;" xml:space="preserve">
<g id="Questionmark">
	<g>
		<path style="fill-rule:evenodd;clip-rule:evenodd;" d="M9,4c0,0-0.031,0-2,0S5,6,5,6v1h2c0,0-0.031-1,1-1s1,1,1,1C7.844,7,7,9,7,9
			h2c0-0.875,1-1,1-1s1-0.125,1-2S9,4,9,4z M8,0C3.582,0,0,3.582,0,8c0,4.418,3.582,8,8,8c4.418,0,8-3.582,8-8
			C16,3.582,12.418,0,8,0z M8,14c-3.314,0-6-2.686-6-6c0-3.314,2.686-6,6-6c3.314,0,6,2.686,6,6C14,11.314,11.314,14,8,14z M7,12h2
			v-2H7V12z"/>
	</g>
</g>
<g>
</g>
<g>
</g>
<g>
</g>
<g>
</g>
<g>
</g>
<g>
</g>
<g>
</g>
<g>
</g>
<g>
</g>
<g>
</g>
<g>
</g>
<g>
</g>
<g>
</g>
<g>
</g>
<g>
</g>
</svg>
