<?xml version="1.0" encoding="utf-8"?>
<!-- Generator: Adobe Illustrator 16.0.0, SVG Export Plug-In . SVG Version: 6.00 Build 0)  -->
<!DOCTYPE svg PUBLIC "-//W3C//DTD SVG 1.1//EN" "http://www.w3.org/Graphics/SVG/1.1/DTD/svg11.dtd">
<svg version="1.1" id="Layer_2" xmlns="http://www.w3.org/2000/svg" xmlns:xlink="http://www.w3.org/1999/xlink" x="0px" y="0px"
	 width="100px" height="100px" viewBox="0 0 100 100" enable-background="new 0 0 100 100" xml:space="preserve">
<path d="M83.554,27.449h-35.74L33.785,76.835c-0.424,1.316-1.628,2.227-3.01,2.275c-0.039,0-0.077,0.001-0.114,0.001
	c-1.337,0-2.546-0.813-3.046-2.062L21.88,62.711h-5.433c-1.812,0-3.28-1.469-3.28-3.28c0-1.811,1.469-3.28,3.28-3.28h7.654
	c1.34,0,2.548,0.817,3.046,2.062l3.178,7.946l11.974-42.993c0.436-1.357,1.698-2.277,3.123-2.277h38.132
	c1.812,0,3.28,1.469,3.28,3.28S85.365,27.449,83.554,27.449z M85.322,71.526l-12.93-14.523l12.321-13.678
	c0.218-0.24,0.271-0.586,0.141-0.882c-0.132-0.296-0.426-0.487-0.75-0.487H76.31c-0.238,0-0.464,0.104-0.621,0.284l-8.271,9.59
	l-8.207-9.587c-0.155-0.182-0.383-0.287-0.623-0.287h-8.151c-0.323,0-0.616,0.19-0.747,0.484c-0.134,0.295-0.079,0.64,0.136,0.881
	L62.01,57.003L49.182,71.529c-0.214,0.242-0.265,0.586-0.134,0.88c0.134,0.294,0.427,0.482,0.748,0.482h8.079
	c0.243,0,0.474-0.108,0.629-0.295l8.562-10.274l8.764,10.282c0.157,0.184,0.385,0.288,0.625,0.288h8.256
	c0.324,0,0.617-0.189,0.748-0.484C85.591,72.113,85.538,71.768,85.322,71.526z"/>
</svg>
