<?xml version="1.0" encoding="iso-8859-1"?>
<!-- Generator: Adobe Illustrator 18.0.0, SVG Export Plug-In . SVG Version: 6.00 Build 0)  -->
<!DOCTYPE svg PUBLIC "-//W3C//DTD SVG 1.1//EN" "http://www.w3.org/Graphics/SVG/1.1/DTD/svg11.dtd">
<svg version="1.1" id="Capa_1" xmlns="http://www.w3.org/2000/svg" xmlns:xlink="http://www.w3.org/1999/xlink" x="0px" y="0px"
	 viewBox="0 0 16 16" style="enable-background:new 0 0 16 16;" xml:space="preserve">
<g id="Screen_Mode">
	<g>
		<path style="fill-rule:evenodd;clip-rule:evenodd;" d="M15,13.092V2.908c0.581-0.207,1-0.756,1-1.408C16,0.672,15.328,0,14.5,0
			c-0.652,0-1.202,0.419-1.408,1H2.908C2.702,0.419,2.152,0,1.5,0C0.672,0,0,0.672,0,1.5c0,0.652,0.419,1.202,1,1.408v10.184
			c-0.581,0.207-1,0.756-1,1.408C0,15.328,0.672,16,1.5,16c0.652,0,1.202-0.419,1.408-1h10.184c0.207,0.581,0.756,1,1.408,1
			c0.828,0,1.5-0.672,1.5-1.5C16,13.848,15.581,13.298,15,13.092z M1.5,15C1.224,15,1,14.776,1,14.5C1,14.224,1.224,14,1.5,14
			S2,14.224,2,14.5C2,14.776,1.776,15,1.5,15z M1.5,2C1.224,2,1,1.776,1,1.5C1,1.224,1.224,1,1.5,1S2,1.224,2,1.5
			C2,1.776,1.776,2,1.5,2z M13,13H3V3h10V13z M14.5,1C14.776,1,15,1.224,15,1.5C15,1.776,14.776,2,14.5,2C14.224,2,14,1.776,14,1.5
			C14,1.224,14.224,1,14.5,1z M14.5,15c-0.276,0-0.5-0.224-0.5-0.5c0-0.276,0.224-0.5,0.5-0.5c0.276,0,0.5,0.224,0.5,0.5
			C15,14.776,14.776,15,14.5,15z"/>
	</g>
</g>
<g>
</g>
<g>
</g>
<g>
</g>
<g>
</g>
<g>
</g>
<g>
</g>
<g>
</g>
<g>
</g>
<g>
</g>
<g>
</g>
<g>
</g>
<g>
</g>
<g>
</g>
<g>
</g>
<g>
</g>
</svg>
