<?xml version="1.0" encoding="iso-8859-1"?>
<!-- Generator: Adobe Illustrator 18.0.0, SVG Export Plug-In . SVG Version: 6.00 Build 0)  -->
<!DOCTYPE svg PUBLIC "-//W3C//DTD SVG 1.1//EN" "http://www.w3.org/Graphics/SVG/1.1/DTD/svg11.dtd">
<svg version="1.1" id="Capa_1" xmlns="http://www.w3.org/2000/svg" xmlns:xlink="http://www.w3.org/1999/xlink" x="0px" y="0px"
	 viewBox="0 0 16 16" style="enable-background:new 0 0 16 16;" xml:space="preserve">
<g id="Marque_Tool">
	<g>
		<path style="fill-rule:evenodd;clip-rule:evenodd;" d="M0,2v1h2c0-0.552,0.448-1,1-1V0H2C0.895,0,0,0.895,0,2z M5,2h2V0H5V2z
			 M2,13H0v1c0,1.105,0.895,2,2,2h1v-2C2.448,14,2,13.552,2,13z M2,9H0v2h2V9z M2,5H0v2h2V5z M5,16h2v-2H5V16z M14,7h2V5h-2V7z
			 M14,11h2V9h-2V11z M14,0h-1v2c0.552,0,1,0.448,1,1h2V2C16,0.895,15.105,0,14,0z M9,16h2v-2H9V16z M9,2h2V0H9V2z M13,14v2h1
			c1.105,0,2-0.895,2-2v-1h-2C14,13.552,13.552,14,13,14z"/>
	</g>
</g>
<g>
</g>
<g>
</g>
<g>
</g>
<g>
</g>
<g>
</g>
<g>
</g>
<g>
</g>
<g>
</g>
<g>
</g>
<g>
</g>
<g>
</g>
<g>
</g>
<g>
</g>
<g>
</g>
<g>
</g>
</svg>
