<?xml version="1.0" encoding="iso-8859-1"?>
<!-- Generator: Adobe Illustrator 18.0.0, SVG Export Plug-In . SVG Version: 6.00 Build 0)  -->
<!DOCTYPE svg PUBLIC "-//W3C//DTD SVG 1.1//EN" "http://www.w3.org/Graphics/SVG/1.1/DTD/svg11.dtd">
<svg version="1.1" id="Capa_1" xmlns="http://www.w3.org/2000/svg" xmlns:xlink="http://www.w3.org/1999/xlink" x="0px" y="0px"
	 viewBox="0 0 19 22.007" style="enable-background:new 0 0 19 22.007;" xml:space="preserve">
<g>
	<path style="fill-rule:evenodd;clip-rule:evenodd;" d="M7.587,0.062L0.413,4.068C0.185,4.195,0,4.481,0,4.705v17.057
		c0,0.225,0.182,0.305,0.413,0.176l7.173-4.006C7.815,17.805,8,17.519,8,17.295V0.238C8,0.013,7.818-0.067,7.587,0.062z"/>
	<path style="fill-rule:evenodd;clip-rule:evenodd;" d="M16.477,22.007c0.279,0,0.505-0.228,0.505-0.498V10.995l1.518-0.007
		c0.276,0,0.5-0.225,0.5-0.497V4.497C19,4.223,18.772,4,18.502,4H8.932v14.278L2,22L16.477,22.007z M14,6h1v14h-1V6z M12,6h1v14h-1
		V6z M10,6h1v14h-1V6z"/>
</g>
<g>
</g>
<g>
</g>
<g>
</g>
<g>
</g>
<g>
</g>
<g>
</g>
<g>
</g>
<g>
</g>
<g>
</g>
<g>
</g>
<g>
</g>
<g>
</g>
<g>
</g>
<g>
</g>
<g>
</g>
</svg>
