<?xml version="1.0" encoding="utf-8"?>
<!-- Generator: Adobe Illustrator 16.0.0, SVG Export Plug-In . SVG Version: 6.00 Build 0)  -->
<!DOCTYPE svg PUBLIC "-//W3C//DTD SVG 1.1//EN" "http://www.w3.org/Graphics/SVG/1.1/DTD/svg11.dtd">
<svg version="1.1" id="Layer_1" xmlns="http://www.w3.org/2000/svg" xmlns:xlink="http://www.w3.org/1999/xlink" x="0px" y="0px"
	 width="100px" height="100px" viewBox="0 0 100 100" enable-background="new 0 0 100 100" xml:space="preserve">
<path fill="#020202" d="M81.166,75.167h3v7.5h-7.5v-3h4.5V75.167z M34,82.667h10.667v-3H34V82.667z M55.334,82.667H66v-3H55.334
	V82.667z M18.834,75.167h-3v7.5h7.5v-3h-4.5V75.167z M18.834,53.833h-3V64.5h3V53.833z M18.834,32.5h-3v10.667h3V32.5z
	 M15.834,21.833h3v-4.5h4.5v-3h-7.5V21.833z M44.666,14.333H34v3h10.666V14.333z M66,14.333H55.333v3H66V14.333z M76.666,14.333v3
	h4.5v4.5h3v-7.5H76.666z M81.166,64.5h3V53.833h-3V64.5z M81.166,43.167h3V32.5h-3V43.167z M72.147,36.623l-9.032-3.358
	c-1.404-0.52-2.975,0.005-3.781,1.263l-5.052,7.87c-0.947,1.478-0.519,3.443,0.959,4.391c0.428,0.275,0.898,0.435,1.373,0.485
	c1.159,0.125,2.345-0.395,3.018-1.444l1.566-2.441c3.058,10.698-3.319,16.024-3.628,16.273c-1.357,1.095-1.591,3.088-0.508,4.456
	c0.552,0.698,1.335,1.104,2.155,1.193c0.784,0.084,1.599-0.124,2.272-0.646c3.823-2.969,9.185-11.21,5.803-23.066l2.641,0.981
	c1.641,0.61,3.473-0.226,4.086-1.872C74.631,39.064,73.793,37.234,72.147,36.623z M30.427,40.828l9.266,1.25
	c1.74,0.235,3.34-0.985,3.575-2.725c0.067-0.504,0.013-0.998-0.142-1.449c-0.376-1.104-1.348-1.958-2.583-2.124l-2.876-0.389
	c8.403-7.292,15.926-3.765,16.281-3.59c1.567,0.767,3.472,0.136,4.254-1.422c0.399-0.796,0.437-1.679,0.17-2.459
	c-0.255-0.747-0.788-1.397-1.546-1.787c-4.308-2.209-14.043-3.583-23.357,4.493l-0.227-2.807c-0.141-1.746-1.674-3.053-3.424-2.912
	c-1.748,0.141-3.053,1.673-2.911,3.423l0.775,9.604C27.806,39.427,28.944,40.629,30.427,40.828z M48.097,57.127
	c-0.65-1.63-2.5-2.422-4.132-1.77c-0.472,0.188-0.874,0.479-1.191,0.835c-0.776,0.871-1.04,2.139-0.577,3.294l1.076,2.695
	c-10.482-3.726-11.114-12.01-11.138-12.407c-0.104-1.741-1.591-3.089-3.331-3.002c-0.89,0.044-1.677,0.447-2.225,1.063
	c-0.523,0.59-0.828,1.374-0.795,2.225c0.196,4.837,3.791,13.988,15.406,18.121l-2.332,1.579c-1.45,0.981-1.834,2.959-0.85,4.413
	c0.983,1.454,2.96,1.835,4.412,0.851l7.979-5.402c1.239-0.842,1.724-2.425,1.17-3.812L48.097,57.127z"/>
</svg>
