<?xml version="1.0" encoding="iso-8859-1"?>
<!-- Generator: Adobe Illustrator 18.0.0, SVG Export Plug-In . SVG Version: 6.00 Build 0)  -->
<!DOCTYPE svg PUBLIC "-//W3C//DTD SVG 1.1//EN" "http://www.w3.org/Graphics/SVG/1.1/DTD/svg11.dtd">
<svg version="1.1" id="Capa_1" xmlns="http://www.w3.org/2000/svg" xmlns:xlink="http://www.w3.org/1999/xlink" x="0px" y="0px"
	 viewBox="0 0 16 16" style="enable-background:new 0 0 16 16;" xml:space="preserve">
<g id="Trash">
	<g>
		<path style="fill-rule:evenodd;clip-rule:evenodd;" d="M5,12h2V7H5V12z M9,12h2V7H9V12z M11,3V2c0-1.105-0.895-2-2-2H7
			C5.895,0,5,0.895,5,2v1H0v1c0,0.552,0.448,1,1,1v9c0,1.105,0.895,2,2,2h10c1.105,0,2-0.895,2-2V5c0.552,0,1-0.448,1-1V3H11z M7,2
			h2v1H7V2z M13,13c0,0.552-0.448,1-1,1H4c-0.552,0-1-0.448-1-1V6c0-0.552,0.448-1,1-1h8c0.552,0,1,0.448,1,1V13z"/>
	</g>
</g>
<g>
</g>
<g>
</g>
<g>
</g>
<g>
</g>
<g>
</g>
<g>
</g>
<g>
</g>
<g>
</g>
<g>
</g>
<g>
</g>
<g>
</g>
<g>
</g>
<g>
</g>
<g>
</g>
<g>
</g>
</svg>
