<?xml version="1.0" encoding="utf-8"?>
<!-- Generator: Adobe Illustrator 16.0.0, SVG Export Plug-In . SVG Version: 6.00 Build 0)  -->
<!DOCTYPE svg PUBLIC "-//W3C//DTD SVG 1.1//EN" "http://www.w3.org/Graphics/SVG/1.1/DTD/svg11.dtd">
<svg version="1.1" id="Layer_1" xmlns="http://www.w3.org/2000/svg" xmlns:xlink="http://www.w3.org/1999/xlink" x="0px" y="0px"
	 width="100px" height="100px" viewBox="0 0 100 100" enable-background="new 0 0 100 100" xml:space="preserve">
<path fill="#020202" d="M65.456,11.126H26.325c-2.627,0-4.767,2.141-4.767,4.768v68.213c0,2.63,2.14,4.768,4.767,4.768h47.932
	c2.63,0,4.768-2.138,4.768-4.768V25.869L65.456,11.126z M66.581,18.261l5.948,6.463h-5.948V18.261z M75.021,84.106
	c0,0.421-0.344,0.765-0.765,0.765H26.325c-0.421,0-0.763-0.344-0.763-0.765V15.894c0-0.421,0.342-0.762,0.763-0.762h36.251v11.595
	c0,1.104,0.899,1.999,2.003,1.999h10.442V84.106z M33.202,37.734l-4.178-16.468h3.035l1.931,8.227
	c0.272,1.149,0.534,2.314,0.759,3.39c0.257-1.104,0.566-2.276,0.871-3.424l2.168-8.192h2.786l1.978,8.249
	c0.256,1.077,0.511,2.188,0.726,3.262c0.221-0.956,0.466-1.936,0.718-2.946l0.093-0.366l2.146-8.198h2.973l-4.667,16.468H41.76
	l-2.048-8.455c-0.253-1.039-0.474-1.991-0.657-2.923c-0.213,0.928-0.462,1.878-0.767,2.94l-2.307,8.438H33.202z M51.5,34.234h17.917
	c0.829,0,1.5,0.672,1.5,1.5s-0.671,1.5-1.5,1.5H51.5c-0.828,0-1.5-0.672-1.5-1.5S50.672,34.234,51.5,34.234z M70.917,45.75
	c0,0.828-0.671,1.5-1.5,1.5H32.125c-0.828,0-1.5-0.672-1.5-1.5s0.672-1.5,1.5-1.5h37.292C70.246,44.25,70.917,44.922,70.917,45.75z
	 M70.917,54.625c0,0.828-0.671,1.5-1.5,1.5H32.125c-0.828,0-1.5-0.672-1.5-1.5s0.672-1.5,1.5-1.5h37.292
	C70.246,53.125,70.917,53.797,70.917,54.625z M70.917,63.5c0,0.828-0.671,1.5-1.5,1.5H32.125c-0.828,0-1.5-0.672-1.5-1.5
	s0.672-1.5,1.5-1.5h37.292C70.246,62,70.917,62.672,70.917,63.5z M70.917,72.5c0,0.828-0.671,1.5-1.5,1.5H32.125
	c-0.828,0-1.5-0.672-1.5-1.5s0.672-1.5,1.5-1.5h37.292C70.246,71,70.917,71.672,70.917,72.5z"/>
</svg>
