<?xml version="1.0" encoding="iso-8859-1"?>
<!-- Generator: Adobe Illustrator 18.0.0, SVG Export Plug-In . SVG Version: 6.00 Build 0)  -->
<!DOCTYPE svg PUBLIC "-//W3C//DTD SVG 1.1//EN" "http://www.w3.org/Graphics/SVG/1.1/DTD/svg11.dtd">
<svg version="1.1" id="Capa_1" xmlns="http://www.w3.org/2000/svg" xmlns:xlink="http://www.w3.org/1999/xlink" x="0px" y="0px"
	 viewBox="0 0 15.986 16.002" style="enable-background:new 0 0 15.986 16.002;" xml:space="preserve">
<g id="Heart">
	<g>
		<path style="fill-rule:evenodd;clip-rule:evenodd;" d="M11.99,0.003c-3.997,0-3.997,2.909-3.997,2.909s-0.001-3.01-3.997-2.909
			C0,0.73,0,4.366,0,5.821c0,0,0,5.818,7.993,10.182c7.993-4.364,7.993-10.182,7.993-10.182C15.986,4.366,15.986,0.73,11.99,0.003z
			 M13.989,6.502l-0.094-0.031c0,0.003-0.001,0.007-0.001,0.01c-0.007,0.095-0.351,4.031-5.9,7.021l0-0.044
			c-5.659-2.999-5.916-6.883-5.901-6.977C1.957,4.997,1.46,1.571,5.151,2.049c2.106,0.512,2.736,3.348,2.851,2.954l0-0.241
			c0,0.097,0.002,0.166,0.006,0.218c0.008-0.045,0.014-0.105,0.016-0.203L8.024,5.07C8.056,5.141,8.13,4.932,8.277,4.597
			L7.993,4.502c0,0,0.142-0.037,0.365-0.086c0.366-0.79,1.087-2.039,2.477-2.367c3.352-0.434,3.25,2.347,3.102,3.974
			C13.963,6.175,13.989,6.327,13.989,6.502z"/>
	</g>
</g>
<g>
</g>
<g>
</g>
<g>
</g>
<g>
</g>
<g>
</g>
<g>
</g>
<g>
</g>
<g>
</g>
<g>
</g>
<g>
</g>
<g>
</g>
<g>
</g>
<g>
</g>
<g>
</g>
<g>
</g>
</svg>
