<?xml version="1.0" encoding="iso-8859-1"?>
<!-- Generator: Adobe Illustrator 18.0.0, SVG Export Plug-In . SVG Version: 6.00 Build 0)  -->
<!DOCTYPE svg PUBLIC "-//W3C//DTD SVG 1.1//EN" "http://www.w3.org/Graphics/SVG/1.1/DTD/svg11.dtd">
<svg version="1.1" id="Capa_1" xmlns="http://www.w3.org/2000/svg" xmlns:xlink="http://www.w3.org/1999/xlink" x="0px" y="0px"
	 viewBox="0 0 22 22.124" style="enable-background:new 0 0 22 22.124;" xml:space="preserve">
<path style="fill-rule:evenodd;clip-rule:evenodd;" d="M9.04,20.605c0.436,0.361,0.84,0.683,1.204,0.961
	c0.219,0.168,0.377,0.285,0.463,0.347L11,22.124l0.292-0.211c0.086-0.062,0.244-0.179,0.463-0.347
	c0.364-0.279,0.769-0.601,1.204-0.961c1.244-1.031,2.489-2.168,3.651-3.38c2.596-2.707,4.411-5.389,5.096-7.936
	C21.9,8.568,22,7.865,22,7.181c0-6.791-6.2-9.695-11.005-4.578C6.208-2.515,0,0.569,0,7.181c0,0.684,0.1,1.388,0.293,2.108
	c0.684,2.547,2.499,5.228,5.096,7.936C6.552,18.437,7.796,19.574,9.04,20.605z"/>
<g>
</g>
<g>
</g>
<g>
</g>
<g>
</g>
<g>
</g>
<g>
</g>
<g>
</g>
<g>
</g>
<g>
</g>
<g>
</g>
<g>
</g>
<g>
</g>
<g>
</g>
<g>
</g>
<g>
</g>
</svg>
