<?xml version="1.0" encoding="utf-8"?>
<!-- Generator: Adobe Illustrator 16.0.0, SVG Export Plug-In . SVG Version: 6.00 Build 0)  -->
<!DOCTYPE svg PUBLIC "-//W3C//DTD SVG 1.1//EN" "http://www.w3.org/Graphics/SVG/1.1/DTD/svg11.dtd">
<svg version="1.1" id="Layer_2" xmlns="http://www.w3.org/2000/svg" xmlns:xlink="http://www.w3.org/1999/xlink" x="0px" y="0px"
	 width="100px" height="100px" viewBox="0 0 100 100" enable-background="new 0 0 100 100" xml:space="preserve">
<path d="M75.348,26.033v-6.888H30.575l26.346,28.336c1.65,1.776,1.627,4.536-0.053,6.283L30.82,80.855h44.527v-4.159
	c0-2.521,2.051-4.572,4.572-4.572c2.521,0,4.573,2.051,4.573,4.572v8.731c0,2.521-2.051,4.573-4.573,4.573H20.08
	c-1.835,0-3.487-1.091-4.207-2.781c-0.72-1.69-0.362-3.637,0.91-4.961L47.28,50.542L16.731,17.686
	c-1.238-1.333-1.569-3.271-0.843-4.94C16.615,11.078,18.261,10,20.08,10h59.84c2.521,0,4.573,2.051,4.573,4.573v11.46
	c0,2.521-2.051,4.573-4.573,4.573C77.399,30.606,75.348,28.555,75.348,26.033z"/>
</svg>
