<?xml version="1.0" encoding="iso-8859-1"?>
<!-- Generator: Adobe Illustrator 18.0.0, SVG Export Plug-In . SVG Version: 6.00 Build 0)  -->
<!DOCTYPE svg PUBLIC "-//W3C//DTD SVG 1.1//EN" "http://www.w3.org/Graphics/SVG/1.1/DTD/svg11.dtd">
<svg version="1.1" id="Capa_1" xmlns="http://www.w3.org/2000/svg" xmlns:xlink="http://www.w3.org/1999/xlink" x="0px" y="0px"
	 viewBox="0 0 22 22.009" style="enable-background:new 0 0 22 22.009;" xml:space="preserve">
<g>
	<polygon style="fill-rule:evenodd;clip-rule:evenodd;" points="0,8.509 0,10.009 11,1.5 22,10.009 22,8.509 11,0 	"/>
	<polygon style="fill-rule:evenodd;clip-rule:evenodd;" points="20,5.866 20,0.509 17,0.509 17,3.509 18,4.381 18,1.509 19,1.509 
		19,5.009 	"/>
	<polygon style="fill-rule:evenodd;clip-rule:evenodd;" points="15.029,21.009 15.029,22.009 20.007,22.009 20.007,9.88 
		19.007,9.081 19.007,21.009 	"/>
	<path style="fill-rule:evenodd;clip-rule:evenodd;" d="M8,22h6V12H8V22z M9,13h4v8H9V13z"/>
	<polygon style="fill-rule:evenodd;clip-rule:evenodd;" points="2,9.918 2,22.009 6.98,22.009 6.98,21.009 3,21.009 3,9.108 	"/>
</g>
<g>
</g>
<g>
</g>
<g>
</g>
<g>
</g>
<g>
</g>
<g>
</g>
<g>
</g>
<g>
</g>
<g>
</g>
<g>
</g>
<g>
</g>
<g>
</g>
<g>
</g>
<g>
</g>
<g>
</g>
</svg>
