<?xml version="1.0" encoding="iso-8859-1"?>
<!-- Generator: Adobe Illustrator 18.0.0, SVG Export Plug-In . SVG Version: 6.00 Build 0)  -->
<!DOCTYPE svg PUBLIC "-//W3C//DTD SVG 1.1//EN" "http://www.w3.org/Graphics/SVG/1.1/DTD/svg11.dtd">
<svg version="1.1" id="Capa_1" xmlns="http://www.w3.org/2000/svg" xmlns:xlink="http://www.w3.org/1999/xlink" x="0px" y="0px"
	 viewBox="0 0 15 24" style="enable-background:new 0 0 15 24;" xml:space="preserve">
<g>
	<path style="fill-rule:evenodd;clip-rule:evenodd;" d="M4.221,4.001h4.557C8.901,4.001,9,3.904,9,3.78V3.721
		C9,3.599,8.9,3.5,8.779,3.5H4.221C4.099,3.5,4,3.597,4,3.721V3.78C4,3.902,4.1,4.001,4.221,4.001z"/>
	<circle style="fill-rule:evenodd;clip-rule:evenodd;" cx="6.5" cy="21.5" r="1"/>
	<path style="fill-rule:evenodd;clip-rule:evenodd;" d="M15,20V2c0-2-2-2-2-2H4c0,0-1.26,0-1.78,1H13
		c0.109,0,0.342,0.039,0.553,0.144C13.85,1.293,14,1.518,14,2v19.75C14.5,21.5,15,21,15,20z"/>
	<path style="fill-rule:evenodd;clip-rule:evenodd;" d="M0,4v18c0,2,2,2,2,2h9c0,0,2,0,2-2V4c0-2-2-2-2-2H2C2,2,0,2,0,4z M12,22
		c0,0.482-0.15,0.707-0.447,0.856C11.342,22.961,11.109,23,11,23H2c-0.109,0-0.342-0.039-0.553-0.144C1.15,22.707,1,22.482,1,22v-2
		h11V22z M12,19H1V5.5h11V19z M11.553,3.144C11.85,3.293,12,3.518,12,4v0.5H1V4c0-0.482,0.15-0.707,0.447-0.856
		C1.658,3.039,1.891,3,2,3h9C11.109,3,11.342,3.039,11.553,3.144z"/>
</g>
<g>
</g>
<g>
</g>
<g>
</g>
<g>
</g>
<g>
</g>
<g>
</g>
<g>
</g>
<g>
</g>
<g>
</g>
<g>
</g>
<g>
</g>
<g>
</g>
<g>
</g>
<g>
</g>
<g>
</g>
</svg>
