<?xml version="1.0" encoding="iso-8859-1"?>
<!-- Generator: Adobe Illustrator 18.0.0, SVG Export Plug-In . SVG Version: 6.00 Build 0)  -->
<!DOCTYPE svg PUBLIC "-//W3C//DTD SVG 1.1//EN" "http://www.w3.org/Graphics/SVG/1.1/DTD/svg11.dtd">
<svg version="1.1" id="Capa_1" xmlns="http://www.w3.org/2000/svg" xmlns:xlink="http://www.w3.org/1999/xlink" x="0px" y="0px"
	 viewBox="0 90 612 612" style="enable-background:new 0 90 612 612;" xml:space="preserve">
<path d="M556.366,576.539C612,576.539,612,520.989,612,520.989V271.011c0,0,0-55.551-55.634-55.551H55.634
	C0,215.461,0,271.011,0,271.011v249.977c0,0,0,55.551,55.634,55.551H556.366z M561.06,368.225c15.332,0,27.775,12.443,27.775,27.775
	s-12.443,27.775-27.775,27.775c-15.332,0-27.775-12.443-27.775-27.775S545.728,368.225,561.06,368.225z M69.438,243.236h444.404
	v305.528H69.438V243.236z M41.691,459.3c0,3.361-2.75,6.138-6.138,6.138h-1.639c-3.444,0-6.138-2.75-6.138-6.138V332.7
	c0-3.361,2.75-6.138,6.138-6.138h1.639c3.472,0,6.138,2.75,6.138,6.138C41.691,332.7,41.691,459.3,41.691,459.3z"/>
</svg>
