<?xml version="1.0" encoding="iso-8859-1"?>
<!-- Generator: Adobe Illustrator 18.0.0, SVG Export Plug-In . SVG Version: 6.00 Build 0)  -->
<!DOCTYPE svg PUBLIC "-//W3C//DTD SVG 1.1//EN" "http://www.w3.org/Graphics/SVG/1.1/DTD/svg11.dtd">
<svg version="1.1" id="Capa_1" xmlns="http://www.w3.org/2000/svg" xmlns:xlink="http://www.w3.org/1999/xlink" x="0px" y="0px"
	 viewBox="0 0 13 22.034" style="enable-background:new 0 0 13 22.034;" xml:space="preserve">
<path style="fill-rule:evenodd;clip-rule:evenodd;" d="M11,22.034c0,0,2,0,2-2.003V2.003C13,0,11,0,11,0H2c0,0-2,0-2,2.003v18.028
	c0,2.003,2,2.003,2,2.003H11z M6.5,21.2c-0.552,0-1-0.448-1-1c0-0.552,0.448-1,1-1c0.552,0,1,0.448,1,1
	C7.5,20.752,7.052,21.2,6.5,21.2z M4,1.221C4,1.097,4.099,1,4.221,1h4.557C8.9,1,9,1.099,9,1.221V1.28
	c0,0.125-0.099,0.221-0.221,0.221H4.221C4.1,1.501,4,1.402,4,1.28V1.221z M1,2.5h11v16H1V2.5z"/>
<g>
</g>
<g>
</g>
<g>
</g>
<g>
</g>
<g>
</g>
<g>
</g>
<g>
</g>
<g>
</g>
<g>
</g>
<g>
</g>
<g>
</g>
<g>
</g>
<g>
</g>
<g>
</g>
<g>
</g>
</svg>
