<?xml version="1.0" encoding="iso-8859-1"?>
<!-- Generator: Adobe Illustrator 18.0.0, SVG Export Plug-In . SVG Version: 6.00 Build 0)  -->
<!DOCTYPE svg PUBLIC "-//W3C//DTD SVG 1.1//EN" "http://www.w3.org/Graphics/SVG/1.1/DTD/svg11.dtd">
<svg version="1.1" id="Capa_1" xmlns="http://www.w3.org/2000/svg" xmlns:xlink="http://www.w3.org/1999/xlink" x="0px" y="0px"
	 viewBox="0 90 612 612" style="enable-background:new 0 90 612 612;" xml:space="preserve">
<path d="M556.366,548.764C612,548.764,612,493.213,612,493.213V298.787c0,0,0-55.551-55.634-55.551H55.634
	C0,243.236,0,298.787,0,298.787v194.427c0,0,0,55.551,55.634,55.551H556.366z M561.06,368.225c15.332,0,27.775,12.443,27.775,27.775
	s-12.443,27.775-27.775,27.775c-15.332,0-27.775-12.443-27.775-27.775S545.728,368.225,561.06,368.225z M69.438,271.011h444.404
	v249.977H69.438V271.011z M41.691,433.969c0,2.028-2.75,3.694-6.138,3.694h-1.639c-3.444,0-6.138-1.639-6.138-3.694v-75.938
	c0-2.028,2.75-3.694,6.138-3.694h1.639c3.472,0,6.138,1.639,6.138,3.694C41.691,358.031,41.691,433.969,41.691,433.969z"/>
</svg>
