<?xml version="1.0" encoding="utf-8"?>
<!-- Generator: Adobe Illustrator 16.0.0, SVG Export Plug-In . SVG Version: 6.00 Build 0)  -->
<!DOCTYPE svg PUBLIC "-//W3C//DTD SVG 1.1//EN" "http://www.w3.org/Graphics/SVG/1.1/DTD/svg11.dtd">
<svg version="1.1" id="Layer_2" xmlns="http://www.w3.org/2000/svg" xmlns:xlink="http://www.w3.org/1999/xlink" x="0px" y="0px"
	 width="100px" height="100px" viewBox="0 0 100 100" enable-background="new 0 0 100 100" xml:space="preserve">
<path d="M82.605,11.371H17.395c-3.342,0-6.061,2.718-6.061,6.059v65.14c0,3.341,2.719,6.06,6.061,6.06h65.211
	c3.342,0,6.061-2.719,6.061-6.06V17.43C88.666,14.088,85.947,11.371,82.605,11.371z M78.498,18.268c1.434,0,2.596,1.163,2.596,2.597
	c0,1.435-1.162,2.597-2.596,2.597c-1.436,0-2.598-1.163-2.598-2.597C75.9,19.431,77.063,18.268,78.498,18.268z M69.191,18.268
	c1.436,0,2.598,1.163,2.598,2.597c0,1.435-1.162,2.597-2.598,2.597c-1.434,0-2.596-1.163-2.596-2.597
	C66.596,19.431,67.758,18.268,69.191,18.268z M81.74,81.704H18.26V29.909h63.48V81.704z M50,75.092
	c10.94,0,19.842-8.901,19.842-19.842S60.94,35.408,50,35.408S30.158,44.309,30.158,55.25S39.06,75.092,50,75.092z M50,39.408
	c8.735,0,15.842,7.107,15.842,15.842S58.735,71.092,50,71.092S34.158,63.985,34.158,55.25S41.265,39.408,50,39.408z M48,55.25v-10
	c0-1.104,0.896-2,2-2s2,0.896,2,2v8h8.25c1.104,0,2,0.896,2,2s-0.896,2-2,2H50C48.896,57.25,48,56.354,48,55.25z"/>
</svg>
