<?xml version="1.0" encoding="utf-8"?>
<!-- Generator: Adobe Illustrator 16.0.0, SVG Export Plug-In . SVG Version: 6.00 Build 0)  -->
<!DOCTYPE svg PUBLIC "-//W3C//DTD SVG 1.1//EN" "http://www.w3.org/Graphics/SVG/1.1/DTD/svg11.dtd">
<svg version="1.1" id="Layer_2" xmlns="http://www.w3.org/2000/svg" xmlns:xlink="http://www.w3.org/1999/xlink" x="0px" y="0px"
	 width="100px" height="100px" viewBox="0 0 100 100" enable-background="new 0 0 100 100" xml:space="preserve">
<path d="M78.496,16.445c0,0-0.001,0-0.002,0l-53.438,0c-2.481,0-4.5,2.019-4.5,4.5v47.944h0.015
	c0.073,0.776,0.705,1.385,1.485,1.385s1.412-0.609,1.485-1.385h0.015V20.945c0-0.827,0.673-1.5,1.5-1.5h46
	c0.827,0,1.5,0.673,1.5,1.5v58.111c0,0.827-0.673,1.5-1.5,1.5h-6c-0.55-0.236-2.762-1.288-2.762-2.914
	c0-1.871,2.884-3.032,2.908-3.041c0.678-0.255,1.077-0.959,0.947-1.672c-0.13-0.713-0.751-1.232-1.476-1.232H22.154
	c-3.26,0-5.911,2.651-5.911,5.911s2.651,5.911,5.911,5.911h40.902c-0.002,0.012-0.002,0.024-0.005,0.037h8.005
	c2.481,0,4.5-2.019,4.5-4.5V21.502c0.021-2.113,2.591-2.057,2.882-2.057h0.012c1.271,0,2.306,1.034,2.306,2.305
	c0,1.271-1.034,2.306-2.306,2.306c-0.828,0-1.5,0.671-1.5,1.5s0.672,1.5,1.5,1.5c2.926,0,5.306-2.38,5.306-5.306
	C83.756,18.825,81.376,16.445,78.496,16.445z M60.223,80.519H22.154c-1.605,0-2.911-1.306-2.911-2.911s1.306-2.911,2.911-2.911
	h38.108c-0.569,0.802-0.968,1.78-0.968,2.945C59.295,78.781,59.675,79.735,60.223,80.519z"/>
</svg>
