<?xml version="1.0" encoding="utf-8"?>
<!-- Generator: Adobe Illustrator 16.0.0, SVG Export Plug-In . SVG Version: 6.00 Build 0)  -->
<!DOCTYPE svg PUBLIC "-//W3C//DTD SVG 1.1//EN" "http://www.w3.org/Graphics/SVG/1.1/DTD/svg11.dtd">
<svg version="1.1" id="Layer_1" xmlns="http://www.w3.org/2000/svg" xmlns:xlink="http://www.w3.org/1999/xlink" x="0px" y="0px"
	 width="100px" height="100px" viewBox="0 0 100 100" enable-background="new 0 0 100 100" xml:space="preserve">
<path fill="#020202" d="M71.324,77.58c1.863,0,4.051-1.205,4.848-2.848l15.5-29.332c0.927-1.785-0.421-2.848-2.848-2.848H73.172
	v-7.009c0-2.419-1.968-4.387-4.387-4.387H30.467l-2.843-7.462c-0.296-0.775-1.039-1.288-1.869-1.288H10.21
	c-0.532,0-1.043,0.212-1.419,0.59c-0.375,0.378-0.584,0.889-0.581,1.422l0.038,11.125L8.172,73.206c0,2.419,1.968,4.387,4.387,4.387
	 M69.172,42.553h-34.13c-1.573,0-3.061,1.271-3.848,2.848L17.258,73.593h-4.699c-0.213,0-0.387-0.174-0.387-0.387V35.532
	l-0.002-9.125h12.207l2.843,7.462c0.296,0.775,1.039,1.288,1.869,1.288h39.696c0.213,0,0.387,0.174,0.387,0.387V42.553z"/>
</svg>
