<?xml version="1.0" encoding="utf-8"?>
<!-- Generator: Adobe Illustrator 16.0.0, SVG Export Plug-In . SVG Version: 6.00 Build 0)  -->
<!DOCTYPE svg PUBLIC "-//W3C//DTD SVG 1.1//EN" "http://www.w3.org/Graphics/SVG/1.1/DTD/svg11.dtd">
<svg version="1.1" id="Layer_1" xmlns="http://www.w3.org/2000/svg" xmlns:xlink="http://www.w3.org/1999/xlink" x="0px" y="0px"
	 width="100px" height="100px" viewBox="0 0 100 100" enable-background="new 0 0 100 100" xml:space="preserve">
<path fill="#020202" d="M91.672,56.894l-15.5,29.332c0,1.573-1.274,2.848-2.848,2.848H68.91c-0.042,0.001-0.082,0.013-0.125,0.013
	H12.559c-2.419,0-4.387-1.968-4.387-4.387V47.038l0.011-11.125c-0.003-0.533,0.206-1.044,0.581-1.422
	c0.376-0.378,0.887-0.59,1.419-0.59h7v4h-5.014l0.003,9.125V84.7c0,0.213,0.174,0.387,0.387,0.387h4.699l13.937-28.192
	c0.787-1.577,2.274-2.848,3.848-2.848h34.13l0.011-11.345c2.229,0.206,3.989,2.055,3.989,4.336v7.009h15.652
	C90.397,54.046,92.599,55.109,91.672,56.894z M20.231,71.392c-0.217-0.493-0.328-1.012-0.328-1.543V14.763
	c0-2.123,1.727-3.85,3.85-3.85h31.601l10.957,11.905v28.74h-3.233V25.126h-8.433c-0.892,0-1.617-0.725-1.617-1.616v-9.363H23.754
	c-0.34,0-0.617,0.276-0.617,0.616v52.604l-2.474,5.004L20.231,71.392z M56.263,21.894h4.804l-4.804-5.22V21.894z M56.321,28.779
	H28.22c-1.097,0-1.989,0.893-1.989,1.989s0.892,1.989,1.989,1.989h28.101c1.097,0,1.989-0.893,1.989-1.989
	S57.417,28.779,56.321,28.779z M58.31,42.306c0-1.097-0.892-1.988-1.989-1.988H28.22c-1.097,0-1.989,0.892-1.989,1.988
	s0.892,1.988,1.989,1.988h28.101C57.417,44.294,58.31,43.403,58.31,42.306z M26.231,53.658c0,1.097,0.892,1.989,1.989,1.989h0.715
	l0.141-0.268c0.606-1.156,1.451-2.123,2.443-2.796l1.346-0.914H28.22C27.124,51.669,26.231,52.561,26.231,53.658z"/>
</svg>
