<?xml version="1.0" encoding="utf-8"?>
<!-- Generator: Adobe Illustrator 16.0.0, SVG Export Plug-In . SVG Version: 6.00 Build 0)  -->
<!DOCTYPE svg PUBLIC "-//W3C//DTD SVG 1.1//EN" "http://www.w3.org/Graphics/SVG/1.1/DTD/svg11.dtd">
<svg version="1.1" id="Layer_2" xmlns="http://www.w3.org/2000/svg" xmlns:xlink="http://www.w3.org/1999/xlink" x="0px" y="0px"
	 width="100px" height="100px" viewBox="0 0 100 100" enable-background="new 0 0 100 100" xml:space="preserve">
<path d="M82.605,11.371H17.395c-3.342,0-6.061,2.718-6.061,6.059v65.14c0,3.341,2.719,6.06,6.061,6.06h65.211
	c3.342,0,6.061-2.719,6.061-6.06V17.43C88.666,14.088,85.947,11.371,82.605,11.371z M78.498,18.268c1.434,0,2.596,1.163,2.596,2.597
	c0,1.435-1.162,2.597-2.596,2.597c-1.436,0-2.598-1.163-2.598-2.597C75.9,19.431,77.063,18.268,78.498,18.268z M69.191,18.268
	c1.436,0,2.598,1.163,2.598,2.597c0,1.435-1.162,2.597-2.598,2.597c-1.434,0-2.596-1.163-2.596-2.597
	C66.596,19.431,67.758,18.268,69.191,18.268z M81.74,81.704H18.26V29.909h63.48V81.704z M31.936,52.606
	c-0.525-0.383-0.745-1.06-0.545-1.678c0.201-0.618,0.777-1.036,1.427-1.036h12.036l3.72-11.448c0.201-0.618,0.777-1.036,1.427-1.036
	s1.226,0.418,1.427,1.036l3.72,11.448h12.036c0.649,0,1.226,0.418,1.427,1.036c0.2,0.618-0.02,1.295-0.545,1.678l-9.737,7.075
	l3.719,11.447c0.2,0.618-0.02,1.296-0.545,1.678c-0.263,0.19-0.572,0.286-0.882,0.286S60,72.997,59.737,72.806L50,65.731
	l-9.737,7.075c-0.525,0.381-1.238,0.381-1.764,0c-0.525-0.382-0.745-1.06-0.545-1.678l3.719-11.447L31.936,52.606z"/>
</svg>
