<?xml version="1.0" encoding="utf-8"?>
<!-- Generator: Adobe Illustrator 16.0.0, SVG Export Plug-In . SVG Version: 6.00 Build 0)  -->
<!DOCTYPE svg PUBLIC "-//W3C//DTD SVG 1.1//EN" "http://www.w3.org/Graphics/SVG/1.1/DTD/svg11.dtd">
<svg version="1.1" id="Layer_2" xmlns="http://www.w3.org/2000/svg" xmlns:xlink="http://www.w3.org/1999/xlink" x="0px" y="0px"
	 width="100px" height="100px" viewBox="0 0 100 100" enable-background="new 0 0 100 100" xml:space="preserve">
<path d="M82.606,11.371H17.394c-3.341,0-6.06,2.718-6.06,6.059v65.14c0,3.341,2.719,6.06,6.06,6.06h65.212
	c3.341,0,6.06-2.719,6.06-6.06V17.43C88.666,14.088,85.947,11.371,82.606,11.371z M78.498,18.268c1.435,0,2.597,1.163,2.597,2.597
	c0,1.435-1.162,2.597-2.597,2.597s-2.597-1.163-2.597-2.597C75.901,19.431,77.063,18.268,78.498,18.268z M69.192,18.268
	c1.435,0,2.597,1.163,2.597,2.597c0,1.435-1.162,2.597-2.597,2.597s-2.597-1.163-2.597-2.597
	C66.595,19.431,67.757,18.268,69.192,18.268z M81.741,81.704H18.259V29.909h63.481V81.704z M36.735,65.274l-2.395,2.395L38.672,72
	l2.48-2.479c1.727,1.107,3.683,1.88,5.785,2.238v3.665h6.125v-3.823c1.99-0.452,3.836-1.278,5.458-2.407L61.328,72l4.331-4.331
	l-2.892-2.893c1.035-1.614,1.789-3.426,2.176-5.373h4.14v-6.125h-4.14c-0.387-1.947-1.141-3.759-2.176-5.374l2.892-2.893
	l-4.331-4.33l-2.808,2.807c-1.622-1.13-3.468-1.955-5.458-2.407v-3.823h-6.125v3.665c-2.103,0.358-4.059,1.131-5.785,2.238
	l-2.48-2.479l-4.331,4.33l2.396,2.396c-1.209,1.735-2.077,3.721-2.505,5.871h-3.314v6.125h3.314
	C34.658,61.553,35.527,63.539,36.735,65.274z M50,47.31c4.988,0,9.031,4.043,9.031,9.031S54.988,65.372,50,65.372
	s-9.031-4.043-9.031-9.031S45.012,47.31,50,47.31z"/>
</svg>
