<?xml version="1.0" encoding="iso-8859-1"?>
<!-- Generator: Adobe Illustrator 18.0.0, SVG Export Plug-In . SVG Version: 6.00 Build 0)  -->
<!DOCTYPE svg PUBLIC "-//W3C//DTD SVG 1.1//EN" "http://www.w3.org/Graphics/SVG/1.1/DTD/svg11.dtd">
<svg version="1.1" id="Capa_1" xmlns="http://www.w3.org/2000/svg" xmlns:xlink="http://www.w3.org/1999/xlink" x="0px" y="0px"
	 viewBox="0 0 22 22" style="enable-background:new 0 0 22 22;" xml:space="preserve">
<g>
	<path style="fill-rule:evenodd;clip-rule:evenodd;" d="M0,8.111v5.778C0,15,1.1,15,1.1,15H3v-1H1V8h20v6h-2v1h1.9
		c0,0,1.1,0,1.1-1.111V8.111C22,8.111,22,7,20.9,7H1.1C0,7,0,8.111,0,8.111z"/>
	<polygon style="fill-rule:evenodd;clip-rule:evenodd;" points="18,6 18,0 4,0 4,6 5,6 5,1 17,1 17,6 	"/>
	<path style="fill-rule:evenodd;clip-rule:evenodd;" d="M19,10.5c0-0.5-0.51-0.5-0.51-0.5H3.51c0,0-0.51,0-0.51,0.5
		C3,11,3.51,11,3.51,11H18.49C18.49,11,19,11,19,10.5z"/>
	<rect x="6" y="18" style="fill-rule:evenodd;clip-rule:evenodd;" width="10" height="1"/>
	<path style="fill-rule:evenodd;clip-rule:evenodd;" d="M18,22v-8H4v8H18z M5,15h12v6H5V15z"/>
	<rect x="6" y="16" style="fill-rule:evenodd;clip-rule:evenodd;" width="10" height="1"/>
</g>
<g>
</g>
<g>
</g>
<g>
</g>
<g>
</g>
<g>
</g>
<g>
</g>
<g>
</g>
<g>
</g>
<g>
</g>
<g>
</g>
<g>
</g>
<g>
</g>
<g>
</g>
<g>
</g>
<g>
</g>
</svg>
