<?xml version="1.0" encoding="utf-8"?>
<!-- Generator: Adobe Illustrator 16.0.0, SVG Export Plug-In . SVG Version: 6.00 Build 0)  -->
<!DOCTYPE svg PUBLIC "-//W3C//DTD SVG 1.1//EN" "http://www.w3.org/Graphics/SVG/1.1/DTD/svg11.dtd">
<svg version="1.1" id="Layer_2" xmlns="http://www.w3.org/2000/svg" xmlns:xlink="http://www.w3.org/1999/xlink" x="0px" y="0px"
	 width="100px" height="100px" viewBox="0 0 100 100" enable-background="new 0 0 100 100" xml:space="preserve">
<path d="M75,7.015H25c-1.104,0-2,0.896-2,2v68c0,1.104,0.896,2,2,2s2-0.896,2-2v-66h46v1.437L52,27.698v65.287l21.114-15.33
	c0.269,0.788,1.007,1.359,1.886,1.359c1.104,0,2-0.896,2-2v-68C77,7.91,76.104,7.015,75,7.015z M59.934,61.863
	c-0.943,0-1.729-1.165-1.932-2.724H55.75v-1.75h2.284c0.239-1.464,0.994-2.541,1.899-2.541c1.096,0,1.984,1.57,1.984,3.508
	C61.918,60.293,61.029,61.863,59.934,61.863z"/>
</svg>
