<?xml version="1.0" encoding="iso-8859-1"?>
<!-- Generator: Adobe Illustrator 18.0.0, SVG Export Plug-In . SVG Version: 6.00 Build 0)  -->
<!DOCTYPE svg PUBLIC "-//W3C//DTD SVG 1.1//EN" "http://www.w3.org/Graphics/SVG/1.1/DTD/svg11.dtd">
<svg version="1.1" id="Capa_1" xmlns="http://www.w3.org/2000/svg" xmlns:xlink="http://www.w3.org/1999/xlink" x="0px" y="0px"
	 viewBox="0 0 22 22" style="enable-background:new 0 0 22 22;" xml:space="preserve">
<g>
	<path style="fill-rule:evenodd;clip-rule:evenodd;" d="M18,22v-8H4v8H18z M6,16h10v1H6V16z M6,18h10v1H6V18z"/>
	<path style="fill-rule:evenodd;clip-rule:evenodd;" d="M0,8.111v5.778C0,15,1.1,15,1.1,15H3v-2h16v2h1.9c0,0,1.1,0,1.1-1.111V8.111
		C22,8.111,22,7,20.9,7H1.1C0,7,0,8.111,0,8.111z M3.51,10H18.49c0,0,0.51,0,0.51,0.5c0,0.5-0.51,0.5-0.51,0.5H3.51
		c0,0-0.51,0-0.51-0.5C3,10,3.51,10,3.51,10z"/>
	<rect x="4" style="fill-rule:evenodd;clip-rule:evenodd;" width="14" height="6"/>
</g>
<g>
</g>
<g>
</g>
<g>
</g>
<g>
</g>
<g>
</g>
<g>
</g>
<g>
</g>
<g>
</g>
<g>
</g>
<g>
</g>
<g>
</g>
<g>
</g>
<g>
</g>
<g>
</g>
<g>
</g>
</svg>
