<?xml version="1.0" encoding="utf-8"?>
<!-- Generator: Adobe Illustrator 16.0.0, SVG Export Plug-In . SVG Version: 6.00 Build 0)  -->
<!DOCTYPE svg PUBLIC "-//W3C//DTD SVG 1.1//EN" "http://www.w3.org/Graphics/SVG/1.1/DTD/svg11.dtd">
<svg version="1.1" id="Layer_1" xmlns="http://www.w3.org/2000/svg" xmlns:xlink="http://www.w3.org/1999/xlink" x="0px" y="0px"
	 width="100px" height="100px" viewBox="0 0 100 100" enable-background="new 0 0 100 100" xml:space="preserve">
<path fill="#020202" d="M85.284,32.354h-8.833V10.771h-53v21.583h-8.833c-2.761,0-5,2.238-5,5v26c0,2.762,2.239,5,5,5h1.833V56.687
	h7v12.75h53v-12.75h7v11.667h1.833c2.761,0,5-2.238,5-5v-26C90.284,34.592,88.045,32.354,85.284,32.354z M22.285,42.854h-6.667
	V41.52h6.667V42.854z M73.451,66.437h-47v-9.75h47V66.437z M73.451,38.687h-47v-6.333V13.771h47V38.687z M65.801,20.524h-31.75
	v-2.066h31.75V20.524z M65.801,27.777h-31.75v-2.066h31.75V27.777z M65.801,34.562h-31.75v-2.066h31.75V34.562z M57.854,84.479
	h13.947v3.5H57.854c-0.545,0.754-1.426,1.25-2.428,1.25h-11c-1.001,0-1.883-0.496-2.428-1.25H29.801v-3.5h12.197
	c0.545-0.754,1.426-1.25,2.428-1.25h2.5v-2.5c0-1.001,0.496-1.883,1.25-2.428v-6.447h3.5v6.447c0.754,0.545,1.25,1.426,1.25,2.428
	v2.5h2.5C56.428,83.229,57.309,83.725,57.854,84.479z"/>
</svg>
