<?xml version="1.0" encoding="utf-8"?>
<!-- Generator: Adobe Illustrator 16.0.0, SVG Export Plug-In . SVG Version: 6.00 Build 0)  -->
<!DOCTYPE svg PUBLIC "-//W3C//DTD SVG 1.1//EN" "http://www.w3.org/Graphics/SVG/1.1/DTD/svg11.dtd">
<svg version="1.1" id="Layer_1" xmlns="http://www.w3.org/2000/svg" xmlns:xlink="http://www.w3.org/1999/xlink" x="0px" y="0px"
	 width="100px" height="100px" viewBox="0 0 100 100" enable-background="new 0 0 100 100" xml:space="preserve">
<path fill="#020202" d="M85.333,23.125H76.5v-5.833h-53v5.833h-8.833c-2.761,0-5,2.238-5,5v26c0,2.762,2.239,5,5,5H16.5V47.458h7
	v35.25h53v-35.25h7v11.667h1.833c2.761,0,5-2.238,5-5v-26C90.333,25.363,88.094,23.125,85.333,23.125z M22.333,33.625h-6.667v-1.334
	h6.667V33.625z M73.5,79.708h-47v-32.25h47V79.708z M73.5,29.458h-47v-6.333v-2.833h47V29.458z M65.875,54.958h-31.75V52.75h31.75
	V54.958z M65.875,62.708h-31.75V60.5h31.75V62.708z M65.875,69.958h-31.75V67.75h31.75V69.958z"/>
</svg>
