<?xml version="1.0" encoding="iso-8859-1"?>
<!-- Generator: Adobe Illustrator 18.0.0, SVG Export Plug-In . SVG Version: 6.00 Build 0)  -->
<!DOCTYPE svg PUBLIC "-//W3C//DTD SVG 1.1//EN" "http://www.w3.org/Graphics/SVG/1.1/DTD/svg11.dtd">
<svg version="1.1" id="Capa_1" xmlns="http://www.w3.org/2000/svg" xmlns:xlink="http://www.w3.org/1999/xlink" x="0px" y="0px"
	 viewBox="0 0 21 16" style="enable-background:new 0 0 21 16;" xml:space="preserve">
<g>
	<path style="fill-rule:evenodd;clip-rule:evenodd;" d="M12,11.889V13c0,0,3-1.243,3-5s-3-5-3-5v1.111c0,0,2,0.848,2,3.889
		S12,11.889,12,11.889z"/>
	<path style="fill-rule:evenodd;clip-rule:evenodd;" d="M3.125,11.2L11,16V0L3.125,4.8H1.042C0,4.8,0,5.867,0,5.867v4.267
		c0,0,0,1.067,1.042,1.067H3.125z"/>
	<path style="fill-rule:evenodd;clip-rule:evenodd;" d="M15,12.734V14c0,0,3-1.65,3-6c0-4.35-3-6-3-6v1.224c0,0,2,1.301,2,4.776
		C17,11.475,15,12.734,15,12.734z"/>
	<path style="fill-rule:evenodd;clip-rule:evenodd;" d="M18,13.68V15c0,0,3-1.439,3-7c0-5.561-3-7-3-7v1.298c0,0,2,1.104,2,5.702
		S18,13.68,18,13.68z"/>
</g>
<g>
</g>
<g>
</g>
<g>
</g>
<g>
</g>
<g>
</g>
<g>
</g>
<g>
</g>
<g>
</g>
<g>
</g>
<g>
</g>
<g>
</g>
<g>
</g>
<g>
</g>
<g>
</g>
<g>
</g>
</svg>
