<?xml version="1.0" encoding="iso-8859-1"?>
<!-- Generator: Adobe Illustrator 18.0.0, SVG Export Plug-In . SVG Version: 6.00 Build 0)  -->
<!DOCTYPE svg PUBLIC "-//W3C//DTD SVG 1.1//EN" "http://www.w3.org/Graphics/SVG/1.1/DTD/svg11.dtd">
<svg version="1.1" id="Capa_1" xmlns="http://www.w3.org/2000/svg" xmlns:xlink="http://www.w3.org/1999/xlink" x="0px" y="0px"
	 viewBox="0 0 16.008 16.017" style="enable-background:new 0 0 16.008 16.017;" xml:space="preserve">
<g id="Sound">
	<g>
		<path style="fill-rule:evenodd;clip-rule:evenodd;" d="M12.765,4.712l2.939-2.939c0.406-0.406,0.406-1.064,0-1.469
			c-0.406-0.406-1.064-0.406-1.469,0l-2.939,2.939c-0.406,0.406-0.406,1.064,0,1.469C11.702,5.118,12.36,5.118,12.765,4.712z
			 M7,0.811L4,3.896v0.112H2c-1.105,0-2,0.895-2,2v4c0,1.105,0.895,2,2,2h2v0.112l3,3.084c0,0,2,2.378,2-1.028V1.84
			C9-1.566,7,0.811,7,0.811z M7,11.008c0,1.625-1,0-1,0l-1-1H3c-0.552,0-1-0.448-1-1v-2c0-0.552,0.448-1,1-1h2l1-1
			c0.002-0.067,0.994-1.886,0.985-0.346C6.982,5.313,6.986,6.247,6.991,6.966C6.992,6.981,7,6.993,7,7.008V11.008z M12.765,11.304
			c-0.406-0.406-1.064-0.406-1.469,0c-0.406,0.406-0.406,1.064,0,1.469l2.939,2.939c0.406,0.406,1.064,0.406,1.469,0
			c0.406-0.406,0.406-1.064,0-1.469L12.765,11.304z M12,7.008c-0.552,0-1,0.448-1,1c0,0.552,0.448,1,1,1h3c0.552,0,1-0.448,1-1
			c0-0.552-0.448-1-1-1H12z"/>
	</g>
</g>
<g>
</g>
<g>
</g>
<g>
</g>
<g>
</g>
<g>
</g>
<g>
</g>
<g>
</g>
<g>
</g>
<g>
</g>
<g>
</g>
<g>
</g>
<g>
</g>
<g>
</g>
<g>
</g>
<g>
</g>
</svg>
