<?xml version="1.0" encoding="utf-8"?>
<!-- Generator: Adobe Illustrator 16.0.0, SVG Export Plug-In . SVG Version: 6.00 Build 0)  -->
<!DOCTYPE svg PUBLIC "-//W3C//DTD SVG 1.1//EN" "http://www.w3.org/Graphics/SVG/1.1/DTD/svg11.dtd">
<svg version="1.1" id="Layer_1" xmlns="http://www.w3.org/2000/svg" xmlns:xlink="http://www.w3.org/1999/xlink" x="0px" y="0px"
	 width="100px" height="100px" viewBox="0 0 100 100" enable-background="new 0 0 100 100" xml:space="preserve">
<path fill="#020202" d="M89.104,34.553l-0.08-1.14c0-10.48-9.027-18.972-20.156-18.972h-1.059H34.541h-2.203
	c-11.133,0-20.161,8.492-20.161,18.972v2.943c-0.608,1.841-0.954,3.802-0.954,5.845c0,10.258,8.315,18.574,18.577,18.574
	c10.261,0,18.579-8.316,18.579-18.574c0-6.722-3.582-12.59-8.929-15.853c6.855-1.257,14.681-1.582,23.106-0.013
	c-5.36,3.264-8.946,9.138-8.946,15.866c0,10.258,8.315,18.574,18.578,18.574c10.26,0,18.578-8.316,18.578-18.574
	C90.765,39.472,90.161,36.889,89.104,34.553z M42.1,42.201c0,6.781-5.52,12.294-12.3,12.294c-6.777,0-12.298-5.513-12.298-12.294
	c0-6.783,5.521-12.295,12.298-12.295C36.581,29.905,42.1,35.418,42.1,42.201z M72.188,54.495c-6.779,0-12.299-5.513-12.299-12.294
	c0-6.783,5.52-12.295,12.299-12.295c6.78,0,12.298,5.513,12.298,12.295C84.486,48.982,78.968,54.495,72.188,54.495z M68.989,12.496
	c0,0,7.383-6.948,14.898,6.181C83.887,18.677,78.851,12.386,68.989,12.496z M15.884,18.45c7.512-13.129,14.898-6.182,14.898-6.182
	C20.919,12.158,15.884,18.45,15.884,18.45z M35.868,42.701c0,3.426-2.776,6.203-6.202,6.203c-3.425,0-6.202-2.777-6.202-6.203
	c0-0.357,0.037-0.706,0.095-1.047c0.951,0.05,2.253-0.454,3.441-1.433c1.453-1.198,2.25-2.701,2.057-3.691
	c0.2-0.02,0.402-0.031,0.608-0.031C33.091,36.5,35.868,39.276,35.868,42.701z M78.786,40.954c0.059,0.341,0.095,0.69,0.095,1.047
	c0,3.426-2.776,6.203-6.201,6.203c-3.425,0-6.202-2.777-6.202-6.203c0-3.425,2.777-6.202,6.202-6.202
	c0.205,0,0.408,0.011,0.607,0.031c-0.192,0.989,0.604,2.493,2.058,3.69C76.533,40.501,77.835,41.004,78.786,40.954z M37.483,67.121
	H33.88v-3.556h-4.434v3.603h-3.603v3.603h-3.579v3.579v0.855v2.748v0.855v2.725v0.878v2.725v0.854v3.579h4.434v-3.579v-0.854V82.41
	h3.603v-0.024h2.724h0.855h2.749v2.749v0.854v3.579h4.457v-3.579v-0.854v-2.749v-0.854v-2.725v-0.878v-2.725V74.35v-3.603h-3.603
	V67.121z M36.629,74.35v0.855v2.725h-3.604v0.023h-2.724h-0.855h-2.748v-2.748V74.35v-2.725h3.579v-3.603h2.748v3.556h3.604V74.35z
	 M57.796,63.565h-3.603h-0.855h-2.724h-0.855h-2.748h-0.855h-3.579v3.603v0.878v2.725v0.854v2.725v0.878v2.725v0.855v2.748v0.855
	v2.725v0.854v3.579h3.579h0.855h2.748h0.855h2.724h0.855h3.603v-3.579h3.603v-3.603v-0.854v-3.603h-3.603v-2.725h3.603v-3.58v-0.878
	v-3.579h-3.603V63.565z M56.942,81.532v0.854v2.749h-2.749h-0.855h-2.724h-0.855h-2.748V82.41v-0.855v-2.748h2.748h0.855h2.724
	h0.855h2.749V81.532z M56.942,70.747v0.878v2.725h-2.749h-0.855h-2.724h-0.855h-2.748v-2.725v-0.854v-2.725v-0.024h2.748h0.855
	h2.724h0.855h2.749V70.747z M78.109,67.168h3.603v4.457h-4.457v-3.603h-2.749h-0.855h-2.724h-0.855h-2.748v2.749v0.854v2.725v0.855
	v2.748v0.855v2.725h0.023v3.603h2.725h0.855h2.724h0.879h2.725v-3.603h4.457v4.457h-3.603v3.579H74.53h-0.879h-2.724h-0.855H66.47
	v-3.579h-3.579v-3.603v-0.854v-2.725v-0.855v-2.748V74.35v-2.725v-0.854v-3.603h3.579v-3.603h3.603h0.855h2.724h0.855h3.603V67.168z
	"/>
</svg>
