<?xml version="1.0" encoding="utf-8"?>
<!-- Generator: Adobe Illustrator 16.0.0, SVG Export Plug-In . SVG Version: 6.00 Build 0)  -->
<!DOCTYPE svg PUBLIC "-//W3C//DTD SVG 1.1//EN" "http://www.w3.org/Graphics/SVG/1.1/DTD/svg11.dtd">
<svg version="1.1" id="Layer_1" xmlns="http://www.w3.org/2000/svg" xmlns:xlink="http://www.w3.org/1999/xlink" x="0px" y="0px"
	 width="100px" height="100px" viewBox="0 0 100 100" enable-background="new 0 0 100 100" xml:space="preserve">
<path fill="#020202" d="M44.899,24.206c0-0.73,0.286-1.419,0.803-1.935l14.61-14.61c1.033-1.035,2.837-1.035,3.87,0
	c1.067,1.067,1.067,2.804,0,3.871l-9.938,9.937h14.429c12.183,0,22.094,9.911,22.094,22.094c0,11.5-11.527,20.609-19.498,21.366
	c-1.108,0.003-2.456-0.939-2.128-3.125c0.399-1.414,3.181-2.042,3.352-2.082c7.326-1.732,12.8-8.311,12.8-16.159
	c0-9.164-7.455-16.619-16.62-16.619H54.245l9.937,9.938c1.067,1.066,1.067,2.803,0,3.87c-1.035,1.036-2.837,1.033-3.87,0
	l-14.61-14.61C45.185,25.625,44.899,24.938,44.899,24.206z M45.266,64.826h-7.74l8.23,8.23H31.327
	c-9.165,0-16.62-7.456-16.62-16.619c0-2.685,0.657-5.208,1.8-7.448c-0.187-0.478-0.363-0.958-0.516-1.433
	c-0.503-1.567-0.774-3.19-0.927-4.831c-3.396,3.688-5.832,8.439-5.832,13.712c0,12.183,9.911,22.094,22.094,22.094h14.429
	l-9.938,9.937c-1.066,1.066-1.066,2.803,0,3.871c1.033,1.035,2.837,1.035,3.87,0l14.611-14.61c0.517-0.516,0.802-1.205,0.802-1.935
	c0-0.731-0.286-1.419-0.802-1.936L45.266,64.826z M57.74,53.479c2-2.713,3.278-5.791,3.854-8.971
	c-2.329-1.835-4.451-3.954-6.321-6.207c0.723,4.626-0.662,9.519-4.22,13.076c-5.917,5.917-15.543,5.917-21.459,0
	c-5.917-5.917-5.917-15.543,0-21.459c3.485-3.486,8.249-4.862,12.791-4.234c0.294-2.368,1.048-4.644,2.941-5.945
	c-6.642-1.732-15.241,0.517-20.318,5.594c-8.444,8.444-8.444,22.185,0,30.63c7.664,7.664,19.677,8.347,28.147,2.102l27.214,27.213
	c1.266,1.267,3.319,1.267,4.585,0c1.266-1.266,1.266-3.319,0-4.585L57.74,53.479z"/>
</svg>
