<?xml version="1.0" encoding="utf-8"?>
<!-- Generator: Adobe Illustrator 16.0.0, SVG Export Plug-In . SVG Version: 6.00 Build 0)  -->
<!DOCTYPE svg PUBLIC "-//W3C//DTD SVG 1.1//EN" "http://www.w3.org/Graphics/SVG/1.1/DTD/svg11.dtd">
<svg version="1.1" id="Layer_1" xmlns="http://www.w3.org/2000/svg" xmlns:xlink="http://www.w3.org/1999/xlink" x="0px" y="0px"
	 width="100px" height="100px" viewBox="0 0 100 100" enable-background="new 0 0 100 100" xml:space="preserve">
<path fill="#020202" d="M30.433,30.932c-0.416-0.416-0.645-0.969-0.645-1.557c0-0.588,0.229-1.142,0.645-1.557l11.753-11.753
	c0.832-0.832,2.283-0.832,3.115,0c0.858,0.858,0.858,2.255,0,3.114l-7.994,7.994h11.607c9.375,0,17.058,7.301,17.71,16.512
	c0,0-0.074,2.112-2.553,1.742c-1.704-0.254-1.971-2.592-1.971-2.592c-1.018-6.37-6.535-11.258-13.187-11.258H37.307l7.994,7.994
	c0.858,0.858,0.858,2.256,0,3.114c-0.833,0.833-2.283,0.832-3.115,0L30.433,30.932z M89.771,64.836
	c0,10.258-8.318,18.574-18.578,18.574c-10.263,0-18.578-8.316-18.578-18.574c0-6.728,3.586-12.602,8.946-15.866
	c-8.425-1.569-16.25-1.245-23.106,0.013c5.347,3.263,8.929,9.131,8.929,15.853c0,10.258-8.318,18.574-18.579,18.574
	c-10.262,0-18.577-8.316-18.577-18.574c0-2.042,0.345-4.004,0.954-5.845v-2.943c0-10.449,8.975-18.917,20.063-18.967l9.228,9.228
	c1.048,1.049,2.518,1.65,4.033,1.65h0c1.514,0,2.984-0.602,4.031-1.649c1.077-1.076,1.669-2.508,1.669-4.032
	s-0.592-2.956-1.668-4.032l-1.17-1.169h6.249c2.966,1.319,5.226,4.064,5.78,7.402c0.315,2.465,1.948,5.117,4.92,5.56
	c0.364,0.055,0.724,0.082,1.07,0.082c3.454,0,5.41-2.661,5.497-5.164l0.006-0.185l-0.013-0.184
	c-0.188-2.656-0.877-5.167-1.952-7.461c10.637,0.519,19.104,8.776,19.104,18.922l0.08,1.14
	C89.167,59.524,89.771,62.107,89.771,64.836z M28.806,52.541c-6.777,0-12.298,5.513-12.298,12.295
	c0,6.781,5.521,12.294,12.298,12.294c6.78,0,12.3-5.513,12.3-12.294C41.106,58.053,35.586,52.541,28.806,52.541z M83.492,64.836
	c0-6.783-5.518-12.295-12.298-12.295c-6.779,0-12.299,5.513-12.299,12.295c0,6.781,5.52,12.294,12.299,12.294
	C77.974,77.13,83.492,71.617,83.492,64.836z M82.893,41.312c-7.515-13.129-14.898-6.181-14.898-6.181
	C77.857,35.021,82.893,41.312,82.893,41.312z M29.788,34.904c0,0-7.386-6.948-14.898,6.182
	C14.89,41.085,19.925,34.793,29.788,34.904z M28.671,59.135c-0.206,0-0.408,0.012-0.608,0.031c0.192,0.99-0.604,2.493-2.057,3.691
	c-1.188,0.979-2.491,1.482-3.441,1.433c-0.059,0.341-0.095,0.689-0.095,1.047c0,3.426,2.776,6.203,6.202,6.203
	c3.426,0,6.202-2.777,6.202-6.203C34.874,61.912,32.097,59.135,28.671,59.135z M74.351,62.157c-1.454-1.198-2.25-2.702-2.058-3.69
	c-0.2-0.021-0.402-0.031-0.607-0.031c-3.425,0-6.202,2.776-6.202,6.202c0,3.426,2.777,6.203,6.202,6.203
	c3.425,0,6.201-2.777,6.201-6.203c0-0.357-0.036-0.707-0.095-1.047C76.841,63.64,75.539,63.136,74.351,62.157z"/>
</svg>
