<?xml version="1.0" encoding="iso-8859-1"?>
<!-- Generator: Adobe Illustrator 18.0.0, SVG Export Plug-In . SVG Version: 6.00 Build 0)  -->
<!DOCTYPE svg PUBLIC "-//W3C//DTD SVG 1.1//EN" "http://www.w3.org/Graphics/SVG/1.1/DTD/svg11.dtd">
<svg version="1.1" id="Capa_1" xmlns="http://www.w3.org/2000/svg" xmlns:xlink="http://www.w3.org/1999/xlink" x="0px" y="0px"
	 viewBox="0 0 22 19" style="enable-background:new 0 0 22 19;" xml:space="preserve">
<g>
	<path style="fill-rule:evenodd;clip-rule:evenodd;" d="M0,17.889C0,19,1.1,19,1.1,19h19.8c0,0,1.1,0,1.1-1.111V9h-7.974v0.985h7.03
		v8.083H0.97V9.985h7.036V9H0V17.889z"/>
	<path style="fill-rule:evenodd;clip-rule:evenodd;" d="M12.846,0H9.154C9.154,0,8,0,8,1.25V3H1.1C1.1,3,0,3,0,4.136V8h1V4h20v4h1
		V4.136C22,3,20.9,3,20.9,3H14V1.25C14,0,12.846,0,12.846,0z M13.054,3H9.011V0.979h4.044V3z"/>
	<path style="fill-rule:evenodd;clip-rule:evenodd;" d="M10.009,7C9.452,7,9,7.443,9,8.009v1.981C9,10.548,9.443,11,10.009,11h1.981
		C12.548,11,13,10.557,13,9.991V8.009C13,7.452,12.557,7,11.991,7H10.009z M12,10h-2V8h2V10z"/>
</g>
<g>
</g>
<g>
</g>
<g>
</g>
<g>
</g>
<g>
</g>
<g>
</g>
<g>
</g>
<g>
</g>
<g>
</g>
<g>
</g>
<g>
</g>
<g>
</g>
<g>
</g>
<g>
</g>
<g>
</g>
</svg>
