<?xml version="1.0" encoding="iso-8859-1"?>
<!-- Generator: Adobe Illustrator 18.0.0, SVG Export Plug-In . SVG Version: 6.00 Build 0)  -->
<!DOCTYPE svg PUBLIC "-//W3C//DTD SVG 1.1//EN" "http://www.w3.org/Graphics/SVG/1.1/DTD/svg11.dtd">
<svg version="1.1" id="Capa_1" xmlns="http://www.w3.org/2000/svg" xmlns:xlink="http://www.w3.org/1999/xlink" x="0px" y="0px"
	 viewBox="0 0 22 19" style="enable-background:new 0 0 22 19;" xml:space="preserve">
<g>
	<path style="fill-rule:evenodd;clip-rule:evenodd;" d="M12.846,0H9.154C9.154,0,8,0,8,1.25V3H1.1C1.1,3,0,3,0,4.136V8h8h1V7.539
		C9,7.238,9.242,7,9.539,7h2.921C12.762,7,13,7.242,13,7.539V8h1h8V4.136C22,3,20.9,3,20.9,3H14V1.25C14,0,12.846,0,12.846,0z
		 M13.055,3H9.011V0.979h4.043V3z"/>
	<path style="fill-rule:evenodd;clip-rule:evenodd;" d="M0,17.889C0,19,1.1,19,1.1,19h19.8c0,0,1.1,0,1.1-1.111V9h-7.974H13v1.461
		C13,10.762,12.759,11,12.461,11H9.539C9.238,11,9,10.758,9,10.461V9H8.005H0V17.889z"/>
	<rect x="10" y="8" style="fill-rule:evenodd;clip-rule:evenodd;" width="2" height="2"/>
</g>
<g>
</g>
<g>
</g>
<g>
</g>
<g>
</g>
<g>
</g>
<g>
</g>
<g>
</g>
<g>
</g>
<g>
</g>
<g>
</g>
<g>
</g>
<g>
</g>
<g>
</g>
<g>
</g>
<g>
</g>
</svg>
