<?xml version="1.0" encoding="utf-8"?>
<!-- Generator: Adobe Illustrator 16.0.0, SVG Export Plug-In . SVG Version: 6.00 Build 0)  -->
<!DOCTYPE svg PUBLIC "-//W3C//DTD SVG 1.1//EN" "http://www.w3.org/Graphics/SVG/1.1/DTD/svg11.dtd">
<svg version="1.1" id="Layer_2" xmlns="http://www.w3.org/2000/svg" xmlns:xlink="http://www.w3.org/1999/xlink" x="0px" y="0px"
	 width="100px" height="100px" viewBox="0 0 100 100" enable-background="new 0 0 100 100" xml:space="preserve">
<path d="M54.005,74.437v-9.624c0-1.305,1.059-2.363,2.363-2.363c4.657,0,7.19-4.775,7.541-14.202h-7.541
	c-1.305,0-2.363-1.059-2.363-2.363v-20.32c0-1.305,1.059-2.363,2.363-2.363h20.106c1.305,0,2.363,1.059,2.363,2.363v20.32
	c0,4.519-0.456,8.665-1.351,12.327c-0.92,3.754-2.332,7.036-4.197,9.756c-1.917,2.795-4.317,4.988-7.13,6.516
	c-2.834,1.537-6.128,2.317-9.792,2.317C55.063,76.8,54.005,75.741,54.005,74.437z M23.526,62.449c-1.305,0-2.363,1.059-2.363,2.363
	v9.624c0,1.305,1.058,2.363,2.363,2.363c3.662,0,6.958-0.78,9.79-2.317c2.814-1.528,5.214-3.72,7.131-6.516
	c1.865-2.72,3.277-6.002,4.197-9.758c0.896-3.662,1.351-7.808,1.351-12.325v-20.32c0-1.305-1.059-2.363-2.363-2.363H23.526
	c-1.305,0-2.363,1.059-2.363,2.363v20.32c0,1.305,1.058,2.363,2.363,2.363h7.435C30.614,57.674,28.117,62.449,23.526,62.449z"/>
</svg>
