<?xml version="1.0" encoding="utf-8"?>
<!-- Generator: Adobe Illustrator 16.0.0, SVG Export Plug-In . SVG Version: 6.00 Build 0)  -->
<!DOCTYPE svg PUBLIC "-//W3C//DTD SVG 1.1//EN" "http://www.w3.org/Graphics/SVG/1.1/DTD/svg11.dtd">
<svg version="1.1" id="Layer_2" xmlns="http://www.w3.org/2000/svg" xmlns:xlink="http://www.w3.org/1999/xlink" x="0px" y="0px"
	 width="100px" height="100px" viewBox="0 0 100 100" enable-background="new 0 0 100 100" xml:space="preserve">
<path d="M45.995,25.564v9.624c0,1.305-1.058,2.363-2.363,2.363c-4.657,0-7.19,4.776-7.541,14.203h7.541
	c1.305,0,2.363,1.059,2.363,2.363v20.32c0,1.305-1.058,2.363-2.363,2.363H23.526c-1.306,0-2.363-1.059-2.363-2.363v-20.32
	c0-4.519,0.455-8.666,1.352-12.327c0.92-3.754,2.332-7.036,4.196-9.756c1.918-2.795,4.317-4.988,7.131-6.516
	c2.833-1.537,6.127-2.317,9.791-2.317C44.937,23.201,45.995,24.259,45.995,25.564z M76.474,37.551c1.305,0,2.363-1.059,2.363-2.363
	v-9.624c0-1.305-1.058-2.363-2.363-2.363c-3.663,0-6.957,0.78-9.79,2.317c-2.814,1.528-5.214,3.721-7.132,6.516
	c-1.864,2.72-3.276,6.002-4.196,9.757c-0.896,3.662-1.351,7.809-1.351,12.326v20.32c0,1.305,1.058,2.363,2.363,2.363h20.105
	c1.305,0,2.363-1.059,2.363-2.363v-20.32c0-1.305-1.058-2.363-2.363-2.363H69.04C69.386,42.327,71.882,37.551,76.474,37.551z"/>
</svg>
