<?xml version="1.0" encoding="utf-8"?>
<!-- Generator: Adobe Illustrator 16.0.0, SVG Export Plug-In . SVG Version: 6.00 Build 0)  -->
<!DOCTYPE svg PUBLIC "-//W3C//DTD SVG 1.1//EN" "http://www.w3.org/Graphics/SVG/1.1/DTD/svg11.dtd">
<svg version="1.1" id="Layer_2" xmlns="http://www.w3.org/2000/svg" xmlns:xlink="http://www.w3.org/1999/xlink" x="0px" y="0px"
	 width="100px" height="100px" viewBox="0 0 100 100" enable-background="new 0 0 100 100" xml:space="preserve">
<path d="M25.566,47.766v6.256c0,0.849-0.688,1.537-1.537,1.537c-3.028,0-4.674,3.105-4.902,9.233h4.902
	c0.849,0,1.537,0.688,1.537,1.537v13.21c0,0.848-0.688,1.536-1.537,1.536H10.959c-0.849,0-1.537-0.688-1.537-1.536v-13.21
	c0-2.938,0.296-5.634,0.879-8.015c0.598-2.44,1.516-4.574,2.727-6.342c1.247-1.817,2.807-3.243,4.637-4.236
	c1.842-0.999,3.983-1.506,6.365-1.506C24.878,46.23,25.566,46.918,25.566,47.766z M45.381,46.23c-2.381,0-4.523,0.507-6.365,1.506
	c-1.83,0.993-3.39,2.419-4.637,4.236c-1.212,1.769-2.129,3.902-2.728,6.344c-0.583,2.38-0.878,5.076-0.878,8.013v13.21
	c0,0.848,0.688,1.536,1.536,1.536h13.071c0.848,0,1.536-0.688,1.536-1.536v-13.21c0-0.849-0.688-1.537-1.536-1.537h-4.833
	c0.225-6.128,1.848-9.233,4.833-9.233c0.848,0,1.536-0.688,1.536-1.537v-6.256C46.917,46.918,46.229,46.23,45.381,46.23z
	 M89.041,18.925H75.97c-0.848,0-1.537,0.688-1.537,1.537v13.209c0,0.849,0.688,1.537,1.537,1.537h4.902
	c-0.228,6.128-1.874,9.232-4.902,9.232c-0.848,0-1.537,0.688-1.537,1.537v6.257c0,0.848,0.688,1.536,1.537,1.536
	c2.382,0,4.523-0.507,6.365-1.506c1.829-0.993,3.389-2.418,4.635-4.236c1.212-1.768,2.13-3.901,2.728-6.342
	c0.583-2.381,0.879-5.077,0.879-8.015V20.462C90.578,19.613,89.889,18.925,89.041,18.925z M67.69,18.925H54.619
	c-0.848,0-1.536,0.688-1.536,1.537v13.209c0,0.849,0.688,1.537,1.536,1.537h4.833c-0.225,6.128-1.848,9.232-4.833,9.232
	c-0.848,0-1.536,0.688-1.536,1.537v6.257c0,0.848,0.688,1.536,1.536,1.536c2.381,0,4.523-0.507,6.365-1.506
	c1.83-0.993,3.39-2.418,4.636-4.236c1.213-1.768,2.131-3.901,2.729-6.343c0.582-2.38,0.877-5.076,0.877-8.013V20.462
	C69.226,19.613,68.538,18.925,67.69,18.925z"/>
</svg>
