<?xml version="1.0" encoding="iso-8859-1"?>
<!-- Generator: Adobe Illustrator 18.0.0, SVG Export Plug-In . SVG Version: 6.00 Build 0)  -->
<!DOCTYPE svg PUBLIC "-//W3C//DTD SVG 1.1//EN" "http://www.w3.org/Graphics/SVG/1.1/DTD/svg11.dtd">
<svg version="1.1" id="Capa_1" xmlns="http://www.w3.org/2000/svg" xmlns:xlink="http://www.w3.org/1999/xlink" x="0px" y="0px"
	 viewBox="0 0 18.959 20.721" style="enable-background:new 0 0 18.959 20.721;" xml:space="preserve">
<g>
	<path style="fill-rule:evenodd;clip-rule:evenodd;" d="M5.152,0.769c-0.68-0.871-1.94-1.024-2.806-0.347L0.766,1.656
		c-0.87,0.679-1.02,1.939-0.342,2.807L1.039,5.25l4.728-3.694L5.459,1.163L5.152,0.769z"/>
	<path style="fill-rule:evenodd;clip-rule:evenodd;" d="M0.479,10.721c0,3.021,1.488,5.694,3.772,7.327l-1.985,1.976l0.7,0.697
		l2.141-2.132c1.294,0.721,2.785,1.132,4.372,1.132c1.555,0,3.017-0.394,4.293-1.088l2.097,2.088l0.7-0.697l-1.934-1.926
		c2.324-1.627,3.844-4.325,3.844-7.377c0-4.971-4.029-9-9-9C4.509,1.721,0.479,5.751,0.479,10.721z M10.479,10.713v1.004h-0.005
		v0.004H9.479v-0.004h-4v-1.004h4V4.721h0.995v5.992H10.479z"/>
	<path style="fill-rule:evenodd;clip-rule:evenodd;" d="M18.227,4.856l0.307-0.394c0.68-0.871,0.524-2.13-0.342-2.807l-1.579-1.234
		c-0.87-0.679-2.129-0.521-2.806,0.347l-0.615,0.787L17.92,5.25L18.227,4.856z"/>
</g>
<g>
</g>
<g>
</g>
<g>
</g>
<g>
</g>
<g>
</g>
<g>
</g>
<g>
</g>
<g>
</g>
<g>
</g>
<g>
</g>
<g>
</g>
<g>
</g>
<g>
</g>
<g>
</g>
<g>
</g>
</svg>
