<?xml version="1.0" encoding="iso-8859-1"?>
<!-- Generator: Adobe Illustrator 18.0.0, SVG Export Plug-In . SVG Version: 6.00 Build 0)  -->
<!DOCTYPE svg PUBLIC "-//W3C//DTD SVG 1.1//EN" "http://www.w3.org/Graphics/SVG/1.1/DTD/svg11.dtd">
<svg version="1.1" id="Capa_1" xmlns="http://www.w3.org/2000/svg" xmlns:xlink="http://www.w3.org/1999/xlink" x="0px" y="0px"
	 viewBox="0 0 22 22" style="enable-background:new 0 0 22 22;" xml:space="preserve">
<path style="fill-rule:evenodd;clip-rule:evenodd;" d="M22,11c0-6.075-4.925-11-11-11C4.925,0,0,4.925,0,11s4.925,11,11,11
	C17.075,22,22,17.075,22,11z M5.077,14.909c0.19,0.024,0.384,0.037,0.58,0.037c1.139,0.002,2.187-0.409,3.018-1.099
	c-1.064-0.025-1.961-0.777-2.27-1.809c0.148,0.031,0.301,0.049,0.457,0.05c0.222,0.001,0.436-0.029,0.64-0.087
	c-1.112-0.246-1.95-1.301-1.95-2.558c0-0.011,0-0.022,0-0.033c0.328,0.198,0.702,0.318,1.101,0.336
	C6.002,9.275,5.573,8.475,5.573,7.575c0-0.476,0.12-0.92,0.329-1.3c1.199,1.585,2.99,2.637,5.009,2.768
	c-0.042-0.189-0.063-0.386-0.063-0.587c0-1.421,1.088-2.555,2.43-2.533c0.699,0.012,1.331,0.333,1.774,0.837
	c0.554-0.106,1.074-0.31,1.543-0.595c-0.181,0.593-0.567,1.087-1.069,1.396c0.492-0.055,0.96-0.185,1.396-0.382
	c-0.326,0.507-0.738,0.95-1.213,1.304c0.005,0.11,0.007,0.22,0.007,0.33c0,3.374-2.445,7.265-6.915,7.263
	C7.43,16.077,6.152,15.647,5.077,14.909z"/>
<g>
</g>
<g>
</g>
<g>
</g>
<g>
</g>
<g>
</g>
<g>
</g>
<g>
</g>
<g>
</g>
<g>
</g>
<g>
</g>
<g>
</g>
<g>
</g>
<g>
</g>
<g>
</g>
<g>
</g>
</svg>
