<?xml version="1.0" encoding="utf-8"?>
<!-- Generator: Adobe Illustrator 16.0.0, SVG Export Plug-In . SVG Version: 6.00 Build 0)  -->
<!DOCTYPE svg PUBLIC "-//W3C//DTD SVG 1.1//EN" "http://www.w3.org/Graphics/SVG/1.1/DTD/svg11.dtd">
<svg version="1.1" id="Layer_1" xmlns="http://www.w3.org/2000/svg" xmlns:xlink="http://www.w3.org/1999/xlink" x="0px" y="0px"
	 width="100px" height="100px" viewBox="0 0 100 100" enable-background="new 0 0 100 100" xml:space="preserve">
<path fill="#020202" d="M89.651,83.526l-31.801-31.8c7.606-10.331,6.767-24.973-2.576-34.316c-10.301-10.301-27.062-10.301-37.363,0
	c-10.301,10.301-10.301,27.063,0,37.363c9.343,9.343,23.985,10.182,34.316,2.577l31.8,31.8c1.553,1.553,4.07,1.553,5.624,0
	C91.204,87.597,91.204,85.079,89.651,83.526z M49.65,49.149c-7.2,7.2-18.915,7.2-26.116,0c-7.2-7.2-7.2-18.915,0-26.115
	c7.201-7.201,18.916-7.201,26.116,0C56.85,30.234,56.85,41.949,49.65,49.149z M47.81,33.256c1.486,0,2.69,1.205,2.69,2.69
	s-1.205,2.69-2.69,2.69h-8.673v8.672c0,1.486-1.204,2.69-2.69,2.69s-2.69-1.205-2.69-2.69v-8.672h-8.673
	c-1.486,0-2.69-1.205-2.69-2.69s1.205-2.69,2.69-2.69h8.673v-8.673c0-1.486,1.205-2.69,2.69-2.69s2.69,1.204,2.69,2.69v8.673H47.81z
	"/>
</svg>
