<?xml version="1.0" encoding="iso-8859-1"?>
<!-- Generator: Adobe Illustrator 18.0.0, SVG Export Plug-In . SVG Version: 6.00 Build 0)  -->
<!DOCTYPE svg PUBLIC "-//W3C//DTD SVG 1.1//EN" "http://www.w3.org/Graphics/SVG/1.1/DTD/svg11.dtd">
<svg version="1.1" id="Capa_1" xmlns="http://www.w3.org/2000/svg" xmlns:xlink="http://www.w3.org/1999/xlink" x="0px" y="0px"
	 viewBox="0 0 22 22" style="enable-background:new 0 0 22 22;" xml:space="preserve">
<path style="fill-rule:evenodd;clip-rule:evenodd;" d="M22,11c0-6.075-4.925-11-11-11C4.925,0,0,4.925,0,11c0,6.075,4.925,11,11,11
	C17.075,22,22,17.075,22,11z M9.004,7.602c-0.176,0.337-0.276,0.823-0.3,1.458H7.4c0-1.055,0.298-1.903,0.894-2.545
	c0.596-0.642,1.414-0.963,2.454-0.963c0.962,0,1.732,0.275,2.311,0.824s0.868,1.251,0.868,2.106c0,0.518-0.106,0.938-0.319,1.26
	s-0.641,0.796-1.285,1.421c-0.469,0.454-0.773,0.839-0.912,1.154s-0.209,0.78-0.209,1.395H9.898c0-0.698,0.083-1.261,0.249-1.688
	c0.166-0.427,0.53-0.917,1.091-1.469l0.586-0.579c0.176-0.166,0.317-0.339,0.425-0.52c0.195-0.317,0.293-0.647,0.293-0.989
	c0-0.479-0.143-0.894-0.428-1.245s-0.758-0.527-1.417-0.527C9.881,6.693,9.317,6.996,9.004,7.602z M9.868,14.926h1.458v1.523H9.868
	V14.926z"/>
<g>
</g>
<g>
</g>
<g>
</g>
<g>
</g>
<g>
</g>
<g>
</g>
<g>
</g>
<g>
</g>
<g>
</g>
<g>
</g>
<g>
</g>
<g>
</g>
<g>
</g>
<g>
</g>
<g>
</g>
</svg>
