<?xml version="1.0" encoding="utf-8"?>
<!-- Generator: Adobe Illustrator 16.0.0, SVG Export Plug-In . SVG Version: 6.00 Build 0)  -->
<!DOCTYPE svg PUBLIC "-//W3C//DTD SVG 1.1//EN" "http://www.w3.org/Graphics/SVG/1.1/DTD/svg11.dtd">
<svg version="1.1" id="Layer_2" xmlns="http://www.w3.org/2000/svg" xmlns:xlink="http://www.w3.org/1999/xlink" x="0px" y="0px"
	 width="100px" height="100px" viewBox="0 0 100 100" enable-background="new 0 0 100 100" xml:space="preserve">
<path d="M89.925,40h-1.05c-3.499-13.634-13.98-24.492-27.389-28.536v-1.39c0-1.93-1.57-3.5-3.5-3.5h-15.25c-1.93,0-3.5,1.57-3.5,3.5
	v1.118C25.374,15.001,14.477,26.046,10.896,40h-0.821c-1.93,0-3.5,1.57-3.5,3.5v15.25c0,1.93,1.57,3.5,3.5,3.5h1.475
	c4.127,12.884,14.579,22.956,27.687,26.558v1.118c0,1.93,1.57,3.5,3.5,3.5h15.25c1.93,0,3.5-1.57,3.5-3.5v-1.39
	c12.662-3.818,22.708-13.715,26.735-26.286h1.704c1.93,0,3.5-1.57,3.5-3.5V43.5C93.425,41.57,91.855,40,89.925,40z M86.678,38.128
	l-11.086,1.897c-2.756-6.74-8.114-12.149-14.822-14.966l1.946-11.377C74.042,17.612,82.972,26.701,86.678,38.128z M49.885,75.065
	c-13.584,0-24.634-11.05-24.634-24.634c0-13.583,11.05-24.634,24.634-24.634S74.52,36.849,74.52,50.432
	C74.52,64.016,63.469,75.065,49.885,75.065z M40.236,10.074c0-1.379,1.122-2.5,2.5-2.5h15.25c1.378,0,2.5,1.121,2.5,2.5v1.104
	c-3.38-0.924-6.932-1.427-10.601-1.427c-3.326,0-6.556,0.413-9.649,1.178V10.074z M36.752,13.993l1.915,11.473
	c-6.326,2.934-11.352,8.202-13.967,14.697l-11.079-1.895C17.204,27.071,25.796,18.098,36.752,13.993z M10.075,61.25
	c-1.378,0-2.5-1.121-2.5-2.5V43.5c0-1.379,1.122-2.5,2.5-2.5h0.59C10,43.896,9.637,46.905,9.637,50c0,3.905,0.57,7.678,1.612,11.25
	H10.075z M37.095,86.015c-10.412-3.786-18.727-11.96-22.717-22.272l10.893-1.818c2.771,5.955,7.613,10.753,13.597,13.468
	L37.095,86.015z M60.486,89.926c0,1.379-1.122,2.5-2.5,2.5h-15.25c-1.378,0-2.5-1.121-2.5-2.5V89.07
	c3.093,0.765,6.323,1.178,9.649,1.178c3.669,0,7.221-0.503,10.601-1.427V89.926z M62.362,86.316l-1.8-10.525
	c6.36-2.611,11.53-7.54,14.452-13.733l10.9,1.819C81.791,74.416,73.141,82.695,62.362,86.316z M92.425,58.75
	c0,1.379-1.122,2.5-2.5,2.5h-1.404c1.042-3.572,1.612-7.345,1.612-11.25c0-3.095-0.363-6.104-1.027-9h0.819
	c1.378,0,2.5,1.121,2.5,2.5V58.75z"/>
</svg>
