<?xml version="1.0" encoding="utf-8"?>
<!-- Generator: Adobe Illustrator 16.0.0, SVG Export Plug-In . SVG Version: 6.00 Build 0)  -->
<!DOCTYPE svg PUBLIC "-//W3C//DTD SVG 1.1//EN" "http://www.w3.org/Graphics/SVG/1.1/DTD/svg11.dtd">
<svg version="1.1" id="Layer_1" xmlns="http://www.w3.org/2000/svg" xmlns:xlink="http://www.w3.org/1999/xlink" x="0px" y="0px"
	 width="100px" height="100px" viewBox="0 0 100 100" enable-background="new 0 0 100 100" xml:space="preserve">
<path fill="#020202" d="M81.185,42.553h-0.152v-7.009c0-2.419-1.968-4.387-4.388-4.387H38.327l-2.843-7.462
	c-0.297-0.775-1.039-1.288-1.869-1.288H18.02c-0.533,0-1.043,0.212-1.419,0.59c-0.375,0.378-0.585,0.889-0.581,1.422l0.012,11.125
	v37.662c0,2.419,1.969,4.387,4.387,4.387h56.227c0.043,0,0.084-0.012,0.126-0.013h4.414c1.573,0,2.848-1.274,2.848-2.848V45.4
	C84.032,43.827,82.758,42.553,81.185,42.553z M77.032,42.553h-49.63c-1.573,0-2.848,1.274-2.848,2.848v28.192h-4.137
	c-0.213,0-0.387-0.174-0.387-0.387V35.532l-0.026-9.125h12.231l2.844,7.462c0.295,0.775,1.039,1.288,1.869,1.288h39.695
	c0.214,0,0.388,0.174,0.388,0.387V42.553z"/>
</svg>
