<?xml version="1.0" encoding="utf-8"?>
<!-- Generator: Adobe Illustrator 16.0.0, SVG Export Plug-In . SVG Version: 6.00 Build 0)  -->
<!DOCTYPE svg PUBLIC "-//W3C//DTD SVG 1.1//EN" "http://www.w3.org/Graphics/SVG/1.1/DTD/svg11.dtd">
<svg version="1.1" id="Layer_1" xmlns="http://www.w3.org/2000/svg" xmlns:xlink="http://www.w3.org/1999/xlink" x="0px" y="0px"
	 width="100px" height="100px" viewBox="0 0 100 100" enable-background="new 0 0 100 100" xml:space="preserve">
<path fill="#020202" d="M20.345,26.014l-0.01-9.378c-0.003-0.449,0.173-0.88,0.489-1.199c0.317-0.318,0.747-0.497,1.196-0.497
	h13.146c0.7,0,1.325,0.432,1.575,1.086l2.396,6.29h32.3c2.04,0,3.698,1.659,3.698,3.698v5.908h0.128c1.327,0,2.4,1.075,2.4,2.4
	v13.213c-3.865,0.46-7.249,2.795-9.037,6.33c-0.434,0.856-0.864,1.648-1.293,2.374c-1.976-3.676-5.858-6.18-10.315-6.18H28.59
	c-0.296,0-0.584,0.035-0.865,0.087v-1.989h-0.195V34.322c0-1.326,1.074-2.4,2.4-2.4h41.835v-5.908c0-0.18-0.146-0.326-0.326-0.326
	H37.978c-0.7,0-1.327-0.432-1.575-1.086l-2.397-6.29H23.693l0.023,7.692v22.153h-3.372V26.014z M87.142,63.665
	c-3.646,7.201-11.863,19.292-25.928,19.35l-32.316,0.031c-0.463,0-0.904-0.184-1.231-0.51c-0.326-0.326-0.51-0.77-0.51-1.23
	l0.004-25.923c0-0.961,0.779-1.741,1.74-1.741h28.43c4.8,0,8.703,3.904,8.703,8.703c0,0.482-0.038,0.958-0.115,1.425
	c1.93-1.592,3.797-4.215,5.697-7.967c1.489-2.945,4.466-4.774,7.768-4.774c1.354,0,2.713,0.325,3.928,0.941
	c2.072,1.049,3.614,2.843,4.338,5.053C88.373,59.232,88.192,61.591,87.142,63.665z M84.341,58.108
	c-0.435-1.326-1.358-2.402-2.604-3.031c-0.742-0.376-1.533-0.567-2.354-0.567c-1.982,0-3.768,1.098-4.662,2.865
	c-2.525,4.986-6.189,10.793-12.164,11.656c-0.019,0.003-0.038,0.007-0.058,0.01c-0.031,0.004-0.062,0.013-0.093,0.017
	c-0.021,0.003-0.042-0.003-0.063-0.001c-0.054,0.004-0.105,0.016-0.16,0.016H42.052c-0.961,0-1.741-0.78-1.741-1.741
	s0.78-1.74,1.741-1.74h19.333c0.744-0.924,1.168-2.047,1.168-3.247c0-2.879-2.343-5.222-5.223-5.222H30.641l-0.003,22.438
	l30.568-0.027c12.206-0.051,19.544-10.95,22.831-17.442C84.667,60.848,84.774,59.433,84.341,58.108z M10.914,51.74h14.121V85.06
	H10.914V51.74z M15.267,58.187c0,1.496,1.213,2.708,2.708,2.708c1.496,0,2.709-1.212,2.709-2.708c0-1.496-1.213-2.708-2.709-2.708
	C16.479,55.479,15.267,56.691,15.267,58.187z"/>
</svg>
