<?xml version="1.0" encoding="iso-8859-1"?>
<!-- Generator: Adobe Illustrator 18.0.0, SVG Export Plug-In . SVG Version: 6.00 Build 0)  -->
<!DOCTYPE svg PUBLIC "-//W3C//DTD SVG 1.1//EN" "http://www.w3.org/Graphics/SVG/1.1/DTD/svg11.dtd">
<svg version="1.1" id="Capa_1" xmlns="http://www.w3.org/2000/svg" xmlns:xlink="http://www.w3.org/1999/xlink" x="0px" y="0px"
	 viewBox="0 0 16 22" style="enable-background:new 0 0 16 22;" xml:space="preserve">
<g>
	<rect x="3" y="12" style="fill-rule:evenodd;clip-rule:evenodd;" width="10" height="1"/>
	<rect x="3" y="15" style="fill-rule:evenodd;clip-rule:evenodd;" width="10" height="1"/>
	<rect x="3" y="3" style="fill-rule:evenodd;clip-rule:evenodd;" width="6" height="1"/>
	<rect x="3" y="18" style="fill-rule:evenodd;clip-rule:evenodd;" width="10" height="1"/>
	<rect x="3" y="9" style="fill-rule:evenodd;clip-rule:evenodd;" width="10" height="1"/>
	<path style="fill-rule:evenodd;clip-rule:evenodd;" d="M15.515,22c0,0,0.485,0,0.485-0.489V4.4L11.636,0H0.485C0.485,0,0,0,0,0.489
		V21.51C0,22,0.485,22,0.485,22H15.515z M1,1h10v3c0,1,1,1,1,1h3v16H1V1z"/>
	<rect x="3" y="6" style="fill-rule:evenodd;clip-rule:evenodd;" width="10" height="1"/>
</g>
<g>
</g>
<g>
</g>
<g>
</g>
<g>
</g>
<g>
</g>
<g>
</g>
<g>
</g>
<g>
</g>
<g>
</g>
<g>
</g>
<g>
</g>
<g>
</g>
<g>
</g>
<g>
</g>
<g>
</g>
</svg>
