<?xml version="1.0" encoding="utf-8"?>
<!-- Generator: Adobe Illustrator 16.0.0, SVG Export Plug-In . SVG Version: 6.00 Build 0)  -->
<!DOCTYPE svg PUBLIC "-//W3C//DTD SVG 1.1//EN" "http://www.w3.org/Graphics/SVG/1.1/DTD/svg11.dtd">
<svg version="1.1" id="Layer_1" xmlns="http://www.w3.org/2000/svg" xmlns:xlink="http://www.w3.org/1999/xlink" x="0px" y="0px"
	 width="100px" height="100px" viewBox="0 0 100 100" enable-background="new 0 0 100 100" xml:space="preserve">
<path fill="#020202" d="M80.602,68.477c0.621,0.62,0.621,1.625,0,2.245c-0.309,0.311-0.716,0.465-1.123,0.465
	s-0.812-0.154-1.122-0.465l-4.868-4.866v6.503c0,6.875-4,12.818-9.789,15.665v-3.641c3.971-2.535,6.613-6.972,6.613-12.024v-6.503
	l-4.866,4.866c-0.62,0.62-1.625,0.62-2.245,0c-0.62-0.62-0.62-1.625,0-2.245L70.78,60.9c0.621-0.62,1.625-0.62,2.245,0
	L80.602,68.477z M26.698,39.453c0.621,0.62,1.625,0.62,2.245,0l7.577-7.576c0.621-0.62,0.621-1.624,0-2.244
	c-0.62-0.621-1.624-0.621-2.244,0l-4.868,4.865v-6.502c0-5.054,2.643-9.489,6.615-12.026v-3.639
	c-5.789,2.846-9.79,8.789-9.79,15.665v6.502l-4.867-4.865c-0.311-0.311-0.717-0.465-1.123-0.465c-0.406,0-0.812,0.154-1.123,0.465
	c-0.62,0.62-0.62,1.624,0,2.244L26.698,39.453z M84.078,18.021v46.226c0,1.275-0.639,2.4-1.609,3.087l-2.481-2.48h0.306
	c0.334,0,0.607-0.273,0.607-0.606V20.287h-8.289c-0.876,0-1.59-0.71-1.59-1.587V9.497H42.248c-0.334,0-0.605,0.271-0.605,0.605V29.2
	h-3.178V10.103c0-2.086,1.699-3.784,3.783-3.784h31.06L84.078,18.021z M78.922,17.11L74.2,11.98v5.13H78.922z M50.766,31.482
	l10.77,11.702V89.41c0,2.088-1.697,3.784-3.784,3.784H19.706c-2.084,0-3.783-1.696-3.783-3.784V35.267
	c0-0.828,0.276-1.589,0.729-2.213c0.197,0.498,0.491,0.957,0.882,1.348l1.566,1.567V89.41c0,0.334,0.271,0.606,0.606,0.606h38.045
	c0.334,0,0.606-0.272,0.606-0.606V45.452h-8.289c-0.875,0-1.59-0.711-1.59-1.586v-9.204h-10.44l0.26-0.261
	c0.75-0.749,1.163-1.746,1.163-2.806c0-0.038-0.009-0.075-0.01-0.113H50.766z M51.658,42.275h4.722l-4.722-5.13V42.275z"/>
</svg>
