<?xml version="1.0" encoding="utf-8"?>
<!-- Generator: Adobe Illustrator 16.0.0, SVG Export Plug-In . SVG Version: 6.00 Build 0)  -->
<!DOCTYPE svg PUBLIC "-//W3C//DTD SVG 1.1//EN" "http://www.w3.org/Graphics/SVG/1.1/DTD/svg11.dtd">
<svg version="1.1" id="Layer_1" xmlns="http://www.w3.org/2000/svg" xmlns:xlink="http://www.w3.org/1999/xlink" x="0px" y="0px"
	 width="100px" height="100px" viewBox="0 0 100 100" enable-background="new 0 0 100 100" xml:space="preserve">
<path fill="#020202" d="M21.469,27.663c-2.161,0-3.921,1.762-3.921,3.922v56.11c0,2.163,1.76,3.922,3.921,3.922h39.427
	c2.164,0,3.921-1.759,3.921-3.922V39.791L53.656,27.663H21.469z M61.525,87.695c0,0.346-0.283,0.629-0.629,0.629H21.469
	c-0.346,0-0.628-0.283-0.628-0.629v-56.11c0-0.346,0.282-0.627,0.628-0.627h29.819v9.539c0,0.908,0.74,1.644,1.648,1.644h8.589
	V87.695z M54.582,33.532l4.893,5.317h-4.893V33.532z M71.292,8.384H39.103c-2.161,0-3.92,1.761-3.92,3.922v11.417h3.293V12.306
	c0-0.347,0.281-0.627,0.627-0.627h29.819v9.538c0,0.908,0.74,1.644,1.647,1.644h8.589v45.555c0,0.347-0.283,0.63-0.628,0.63h-9.312
	v3.293h9.312c2.163,0,3.921-1.759,3.921-3.923V20.511L71.292,8.384z M72.216,19.569v-5.316l4.893,5.316H72.216z"/>
</svg>
