<?xml version="1.0" encoding="utf-8"?>
<!-- Generator: Adobe Illustrator 16.0.0, SVG Export Plug-In . SVG Version: 6.00 Build 0)  -->
<!DOCTYPE svg PUBLIC "-//W3C//DTD SVG 1.1//EN" "http://www.w3.org/Graphics/SVG/1.1/DTD/svg11.dtd">
<svg version="1.1" id="Layer_1" xmlns="http://www.w3.org/2000/svg" xmlns:xlink="http://www.w3.org/1999/xlink" x="0px" y="0px"
	 width="100px" height="100px" viewBox="0 0 100 100" enable-background="new 0 0 100 100" xml:space="preserve">
<path fill="#020202" d="M84.068,60.281L76.14,74.732c-1.252,1.978-2.024,2.848-3.598,2.848l-60.016,0.013
	c-2.419,0-4.387-1.968-4.387-4.387l0.076-37.662L8.178,24.419c-0.003-0.533,0.206-1.044,0.581-1.422
	c0.376-0.378,0.887-0.59,1.419-0.59h15.545c0.83,0,1.573,0.513,1.869,1.288l2.843,7.462h13.741l-1.537,4H29.057
	c-0.83,0-1.573-0.513-1.869-1.288l-2.843-7.462H12.138l0.002,9.125v37.674c0,0.213,0.174,0.387,0.387,0.387h4.699L31.162,45.4
	c0.787-1.577,2.274-2.848,3.848-2.848h8.867H74.39v-0.109c0.034,0.037,0.069,0.072,0.103,0.109h1.976
	C80.75,46.167,82.583,52.833,84.068,60.281z M93.999,57.366C89.63,40.304,82.546,30.109,72.946,27.064
	c-6.884-2.179-13.392-0.136-17.8,2.092l3.276-8.53c0.693-1.805-0.207-3.829-2.012-4.522c-1.803-0.69-3.83,0.208-4.522,2.013
	L45.166,35.62c-0.678,1.763,0.174,3.728,1.896,4.464h19.488l-9.856-3.786c3.151-1.879,8.671-4.312,14.172-2.549
	C77.893,36,83.547,44.768,87.218,59.102c0.406,1.582,1.828,2.633,3.389,2.633c0.287,0,0.58-0.036,0.871-0.11
	C93.351,61.145,94.479,59.238,93.999,57.366z"/>
</svg>
