<?xml version="1.0" encoding="utf-8"?>
<!-- Generator: Adobe Illustrator 16.0.0, SVG Export Plug-In . SVG Version: 6.00 Build 0)  -->
<!DOCTYPE svg PUBLIC "-//W3C//DTD SVG 1.1//EN" "http://www.w3.org/Graphics/SVG/1.1/DTD/svg11.dtd">
<svg version="1.1" id="Layer_1" xmlns="http://www.w3.org/2000/svg" xmlns:xlink="http://www.w3.org/1999/xlink" x="0px" y="0px"
	 width="100px" height="100px" viewBox="0 0 100 100" enable-background="new 0 0 100 100" xml:space="preserve">
<path fill="#020202" d="M65.165,11.126H26.034c-2.627,0-4.767,2.141-4.767,4.768v68.213c0,2.63,2.14,4.768,4.767,4.768h47.932
	c2.63,0,4.768-2.138,4.768-4.768V25.869L65.165,11.126z M66.29,18.261l5.948,6.463H66.29V18.261z M74.73,84.106
	c0,0.421-0.344,0.765-0.765,0.765H26.034c-0.421,0-0.763-0.344-0.763-0.765V15.894c0-0.421,0.342-0.762,0.763-0.762h36.251v11.595
	c0,1.104,0.899,1.999,2.003,1.999H74.73V84.106z M57.671,40.667c5.242,0,9.492,4.25,9.492,9.491C67.164,58.821,50,70.327,50,70.327
	S32.836,59.236,32.836,50.158c0-6.525,4.25-9.491,9.491-9.491c3.157,0,5.946,1.548,7.672,3.919
	C51.726,42.215,54.515,40.667,57.671,40.667z"/>
</svg>
