<?xml version="1.0" encoding="utf-8"?>
<!-- Generator: Adobe Illustrator 16.0.0, SVG Export Plug-In . SVG Version: 6.00 Build 0)  -->
<!DOCTYPE svg PUBLIC "-//W3C//DTD SVG 1.1//EN" "http://www.w3.org/Graphics/SVG/1.1/DTD/svg11.dtd">
<svg version="1.1" id="Layer_1" xmlns="http://www.w3.org/2000/svg" xmlns:xlink="http://www.w3.org/1999/xlink" x="0px" y="0px"
	 width="100px" height="100px" viewBox="0 0 100 100" enable-background="new 0 0 100 100" xml:space="preserve">
<path fill="#020202" d="M91.64,45.4l-15.5,29.332c-0.973,2.06-2.944,2.848-3.848,2.848l-59.766,0.013
	c-2.419,0-4.387-1.968-4.387-4.387l0.076-37.662L8.178,24.419c-0.003-0.533,0.206-1.044,0.581-1.422
	c0.376-0.378,0.887-0.59,1.419-0.59h15.545c0.83,0,1.573,0.513,1.869,1.288l2.843,7.462h17.009c-1.683,1.1-3.271,2.438-4.771,4
	H29.057c-0.83,0-1.573-0.513-1.869-1.288l-2.843-7.462H12.138l0.002,9.125v37.674c0,0.213,0.174,0.387,0.387,0.387h4.699
	L31.162,45.4c0.787-1.577,2.274-2.848,3.848-2.848h2.221h16.627h3.444c-2.316,1.689-3.32,4.779-2.244,7.58
	c0.959,2.494,3.397,4.169,6.067,4.169c0.797,0,1.58-0.146,2.33-0.433l17.504-6.723c2.085-0.801,3.521-2.567,3.997-4.593h3.836
	C90.365,42.553,92.566,43.615,91.64,45.4z M42.863,40h8.97c0.079,0,0.147,0.017,0.223,0.022c1.692-1.551,3.494-2.659,5.4-3.27
	c5.501-1.763,11.021,0.67,14.172,2.55l-10.497,4.031c-1.805,0.693-2.706,2.718-2.013,4.522c0.535,1.392,1.861,2.246,3.268,2.246
	c0.418,0,0.842-0.075,1.255-0.233l17.503-6.723c1.805-0.693,2.706-2.718,2.013-4.522L76.434,21.12
	c-0.692-1.805-2.72-2.703-4.522-2.013c-1.805,0.693-2.705,2.718-2.012,4.522l3.276,8.53c-4.408-2.228-10.916-4.271-17.8-2.092
	C50.564,31.594,46.387,34.917,42.863,40z"/>
</svg>
