<?xml version="1.0" encoding="utf-8"?>
<!-- Generator: Adobe Illustrator 16.0.0, SVG Export Plug-In . SVG Version: 6.00 Build 0)  -->
<!DOCTYPE svg PUBLIC "-//W3C//DTD SVG 1.1//EN" "http://www.w3.org/Graphics/SVG/1.1/DTD/svg11.dtd">
<svg version="1.1" id="Layer_1" xmlns="http://www.w3.org/2000/svg" xmlns:xlink="http://www.w3.org/1999/xlink" x="0px" y="0px"
	 width="100px" height="100px" viewBox="0 0 100 100" enable-background="new 0 0 100 100" xml:space="preserve">
<path fill="#020202" d="M84.202,56.028h-5.467V45.4c0-1.573-1.274-2.848-2.848-2.848h-0.152v-7.009c0-2.419-1.968-4.387-4.388-4.387
	H33.03l-2.843-7.462c-0.297-0.775-1.039-1.288-1.869-1.288H12.723c-0.533,0-1.043,0.212-1.419,0.59
	c-0.375,0.378-0.585,0.889-0.581,1.422l0.012,11.125v37.662c0,2.419,1.969,4.387,4.387,4.387h56.227
	c0.043,0,0.084-0.012,0.126-0.013h4.414c1.573,0,2.848-1.274,2.848-2.848v-8.557h5.467c2.798,0,5.074-2.276,5.074-5.074
	S87,56.028,84.202,56.028z M19.258,45.4v28.192h-4.137c-0.213,0-0.387-0.174-0.387-0.387V35.532l-0.026-9.125h12.231l2.844,7.462
	c0.295,0.775,1.039,1.288,1.869,1.288h39.695c0.214,0,0.388,0.174,0.388,0.387v7.009h-49.63
	C20.532,42.553,19.258,43.827,19.258,45.4z M84.202,65.176h-8.649v0.016h-1.141c-1.071,0-1.938-0.845-1.99-1.903v2.771h-2.891v-5.18
	h-5.442v5.18h-2.891v-5.18h-5.676v5.18h-2.892v-5.18H48.35h-0.166h-0.217v5.18h-2.891v-5.18h-5.442v5.18h-2.891v-5.18h-5.676v5.18
	h-2.892v-5.18h-4.447v-0.687v-1.11v-4.757h2.891v4.757h5.677v-4.757h2.892v4.757h5.441v-4.757h2.891v4.757h4.664v-4.757h2.891v4.757
	h5.677v-4.757h2.892v4.757h5.441v-4.757h2.891v4.757h4.438v-0.056c0-1.104,0.896-2,2-2h1.141v0.002h8.649
	c2.246,0,4.074,1.828,4.074,4.074C88.276,63.348,86.448,65.176,84.202,65.176z M86.562,61.125c0,1.45-1.175,2.625-2.625,2.625
	h-4.833V58.5h4.833C85.387,58.5,86.562,59.675,86.562,61.125z"/>
</svg>
