<?xml version="1.0" encoding="iso-8859-1"?>
<!-- Generator: Adobe Illustrator 18.0.0, SVG Export Plug-In . SVG Version: 6.00 Build 0)  -->
<!DOCTYPE svg PUBLIC "-//W3C//DTD SVG 1.1//EN" "http://www.w3.org/Graphics/SVG/1.1/DTD/svg11.dtd">
<svg version="1.1" id="Capa_1" xmlns="http://www.w3.org/2000/svg" xmlns:xlink="http://www.w3.org/1999/xlink" x="0px" y="0px"
	 viewBox="0 0 16.941 22" style="enable-background:new 0 0 16.941 22;" xml:space="preserve">
<g>
	<path style="fill-rule:evenodd;clip-rule:evenodd;" d="M0.513,0C0.513,0,0,0,0,0.489V21.51C0,22,0.513,22,0.513,22h15.914
		c0,0,0.513,0,0.513-0.489V5h-4.235c0,0-1.059,0-1.059-1V0H0.513z M3.177,3h6.353v1H3.177V3z M3.177,6h6.353v1H3.177V6z M13.765,19
		H3.177v-1h10.588V19z M13.765,16H3.177v-1h10.588V16z M13.765,13H3.177v-1h10.588V13z M13.765,9v1H3.177V9H13.765z"/>
	<polygon style="fill-rule:evenodd;clip-rule:evenodd;" points="12.706,4 16.521,4 12.706,0.367 	"/>
</g>
<g>
</g>
<g>
</g>
<g>
</g>
<g>
</g>
<g>
</g>
<g>
</g>
<g>
</g>
<g>
</g>
<g>
</g>
<g>
</g>
<g>
</g>
<g>
</g>
<g>
</g>
<g>
</g>
<g>
</g>
</svg>
