<?xml version="1.0" encoding="utf-8"?>
<!-- Generator: Adobe Illustrator 16.0.0, SVG Export Plug-In . SVG Version: 6.00 Build 0)  -->
<!DOCTYPE svg PUBLIC "-//W3C//DTD SVG 1.1//EN" "http://www.w3.org/Graphics/SVG/1.1/DTD/svg11.dtd">
<svg version="1.1" id="Layer_1" xmlns="http://www.w3.org/2000/svg" xmlns:xlink="http://www.w3.org/1999/xlink" x="0px" y="0px"
	 width="100px" height="100px" viewBox="0 0 100 100" enable-background="new 0 0 100 100" xml:space="preserve">
<path fill="#020202" d="M4.854,76.744h21.18V19.522H4.854V76.744z M15.443,66.062c-2.667,0-4.831-2.162-4.831-4.83
	c0-2.669,2.163-4.83,4.831-4.83s4.831,2.161,4.831,4.83C20.274,63.899,18.111,66.062,15.443,66.062z M9.561,25.097H20.77v20.652
	H9.561V25.097z M9.561,47.482H20.77v2.137H9.561V47.482z M11.047,26.829h8.175v3.469h-8.175V26.829z M29.563,76.744h21.18V19.522
	h-21.18V76.744z M40.153,66.062c-2.667,0-4.831-2.162-4.831-4.83c0-2.669,2.163-4.83,4.831-4.83c2.668,0,4.83,2.161,4.83,4.83
	C44.983,63.899,42.821,66.062,40.153,66.062z M34.27,25.097h11.209v20.652H34.27V25.097z M34.27,47.482h11.209v2.137H34.27V47.482z
	 M35.756,26.829h8.175v3.469h-8.175V26.829z M72.984,17.653l-19.527,8.203L75.62,78.612l19.527-8.202L72.984,17.653z M59.956,29.172
	l10.333-4.341l8,19.041l-10.334,4.342L59.956,29.172z M68.626,49.813l10.334-4.341l0.828,1.97l-10.334,4.341L68.626,49.813z
	 M81.246,64.662c-2.459,1.034-5.291-0.123-6.324-2.583c-1.033-2.459,0.123-5.29,2.583-6.323c2.459-1.034,5.291,0.122,6.324,2.583
	C84.861,60.797,83.705,63.629,81.246,64.662z M70.877,30.227l-7.536,3.165l-1.344-3.197l7.537-3.165L70.877,30.227z"/>
</svg>
