<?xml version="1.0" encoding="iso-8859-1"?>
<!-- Generator: Adobe Illustrator 18.0.0, SVG Export Plug-In . SVG Version: 6.00 Build 0)  -->
<!DOCTYPE svg PUBLIC "-//W3C//DTD SVG 1.1//EN" "http://www.w3.org/Graphics/SVG/1.1/DTD/svg11.dtd">
<svg version="1.1" id="Capa_1" xmlns="http://www.w3.org/2000/svg" xmlns:xlink="http://www.w3.org/1999/xlink" x="0px" y="0px"
	 viewBox="0 0 22 21" style="enable-background:new 0 0 22 21;" xml:space="preserve">
<g>
	<path style="fill-rule:evenodd;clip-rule:evenodd;" d="M6.997,0H2.003C1.449,0,1,0.444,1,1v4h1V1h5v2h13v2h1V2.999
		C21,2.447,20.553,2,20.002,2H8V1C8,0.448,7.562,0,6.997,0z"/>
	<path style="fill-rule:evenodd;clip-rule:evenodd;" d="M0,7.008v12.985C0,20.549,0.439,21,1.003,21h19.995
		C21.551,21,22,20.551,22,19.992V7.008C22,6.451,21.561,6,20.998,6H1.003C0.449,6,0,6.449,0,7.008z M1,7h20v13H1V7z"/>
</g>
<g>
</g>
<g>
</g>
<g>
</g>
<g>
</g>
<g>
</g>
<g>
</g>
<g>
</g>
<g>
</g>
<g>
</g>
<g>
</g>
<g>
</g>
<g>
</g>
<g>
</g>
<g>
</g>
<g>
</g>
</svg>
