<?xml version="1.0" encoding="utf-8"?>
<!-- Generator: Adobe Illustrator 16.0.0, SVG Export Plug-In . SVG Version: 6.00 Build 0)  -->
<!DOCTYPE svg PUBLIC "-//W3C//DTD SVG 1.1//EN" "http://www.w3.org/Graphics/SVG/1.1/DTD/svg11.dtd">
<svg version="1.1" id="Layer_1" xmlns="http://www.w3.org/2000/svg" xmlns:xlink="http://www.w3.org/1999/xlink" x="0px" y="0px"
	 width="100px" height="100px" viewBox="0 0 100 100" enable-background="new 0 0 100 100" xml:space="preserve">
<path fill="#020202" d="M81.159,32.53h-0.152v-7.009c0-2.419-1.968-4.387-4.388-4.387H38.301l-2.843-7.462
	c-0.297-0.775-1.039-1.288-1.869-1.288H17.994c-0.533,0-1.043,0.212-1.419,0.59c-0.375,0.378-0.585,0.889-0.581,1.422l0.012,11.125
	v37.662c0,2.419,1.969,4.387,4.387,4.387h56.227c0.043,0,0.084-0.012,0.126-0.013h4.414c1.573,0,2.848-1.274,2.848-2.848V35.378
	C84.006,33.805,82.732,32.53,81.159,32.53z M77.006,32.53h-49.63c-1.573,0-2.848,1.274-2.848,2.848V63.57h-4.137
	c-0.213,0-0.387-0.174-0.387-0.387V25.51l-0.026-9.125H32.21l2.844,7.462c0.295,0.775,1.039,1.288,1.869,1.288h39.695
	c0.214,0,0.388,0.174,0.388,0.387V32.53z M57.053,82.865H71v3.5H57.053c-0.545,0.754-1.426,1.25-2.428,1.25h-11
	c-1.001,0-1.883-0.496-2.428-1.25H29v-3.5h12.197c0.545-0.754,1.426-1.25,2.428-1.25h2.5v-2.5c0-1.001,0.496-1.883,1.25-2.428V70.24
	h3.5v6.447c0.754,0.545,1.25,1.426,1.25,2.428v2.5h2.5C55.626,81.615,56.508,82.11,57.053,82.865z"/>
</svg>
