<?xml version="1.0" encoding="utf-8"?>
<!-- Generator: Adobe Illustrator 16.0.0, SVG Export Plug-In . SVG Version: 6.00 Build 0)  -->
<!DOCTYPE svg PUBLIC "-//W3C//DTD SVG 1.1//EN" "http://www.w3.org/Graphics/SVG/1.1/DTD/svg11.dtd">
<svg version="1.1" id="Layer_1" xmlns="http://www.w3.org/2000/svg" xmlns:xlink="http://www.w3.org/1999/xlink" x="0px" y="0px"
	 width="100px" height="100px" viewBox="0 0 100 100" enable-background="new 0 0 100 100" xml:space="preserve">
<path fill="#020202" d="M76.383,29.742v0.315h-4v-0.315c0-0.213-0.174-0.387-0.388-0.387H32.3c-0.83,0-1.574-0.513-1.869-1.288
	l-2.844-7.462H15.38l0.002,9.125v37.674c0,0.213,0.174,0.387,0.387,0.387h4.137V39.598c0-1.573,1.274-2.848,2.848-2.848h25.002
	v35.04H15.769c-2.418,0-4.387-1.968-4.387-4.387V29.742l0.012-11.125c-0.004-0.533,0.206-1.044,0.581-1.422
	c0.376-0.378,0.886-0.59,1.419-0.59h15.572c0.83,0,1.572,0.513,1.869,1.288l2.843,7.462h38.317
	C74.415,25.355,76.383,27.323,76.383,29.742z M88.583,42.172v38.104c0,1.72-1.399,3.119-3.119,3.119H54.102
	c-1.72,0-3.119-1.399-3.119-3.119V35.645c0-1.72,1.399-3.119,3.119-3.119h25.603L88.583,42.172z M80.44,41.422h3.892l-3.892-4.229
	V41.422z M85.963,44.042h-6.832c-0.722,0-1.31-0.587-1.31-1.31v-7.586H54.102c-0.275,0-0.5,0.224-0.5,0.499v44.631
	c0,0.275,0.224,0.499,0.5,0.499h31.361c0.275,0,0.5-0.224,0.5-0.499V44.042z M56.109,48.612c0,0.889,0.723,1.612,1.611,1.612h22.767
	c0.889,0,1.611-0.724,1.611-1.612c0-0.888-0.723-1.611-1.611-1.611H57.721C56.833,47,56.109,47.724,56.109,48.612z M80.488,56.35
	H57.721c-0.888,0-1.611,0.722-1.611,1.61s0.723,1.61,1.611,1.61h22.767c0.889,0,1.611-0.722,1.611-1.61S81.376,56.35,80.488,56.35z
	 M80.488,65.546H57.721c-0.888,0-1.611,0.723-1.611,1.611c0,0.888,0.723,1.611,1.611,1.611h22.767c0.889,0,1.611-0.724,1.611-1.611
	C82.099,66.269,81.376,65.546,80.488,65.546z"/>
</svg>
