<?xml version="1.0" encoding="iso-8859-1"?>
<!-- Generator: Adobe Illustrator 18.0.0, SVG Export Plug-In . SVG Version: 6.00 Build 0)  -->
<!DOCTYPE svg PUBLIC "-//W3C//DTD SVG 1.1//EN" "http://www.w3.org/Graphics/SVG/1.1/DTD/svg11.dtd">
<svg version="1.1" id="Capa_1" xmlns="http://www.w3.org/2000/svg" xmlns:xlink="http://www.w3.org/1999/xlink" x="0px" y="0px"
	 viewBox="0 0 21 22" style="enable-background:new 0 0 21 22;" xml:space="preserve">
<g>
	<path style="fill-rule:evenodd;clip-rule:evenodd;" d="M18,7v13h-2v1h2.001C18.553,21,19,20.552,19,20.001V8h1
		c0.552,0,1-0.438,1-1.003V2.003C21,1.449,20.556,1,20,1h-4v1h4v5H18z"/>
	<path style="fill-rule:evenodd;clip-rule:evenodd;" d="M13.992,22C14.549,22,15,21.561,15,20.998V1.002C15,0.449,14.551,0,13.992,0
		H1.008C0.451,0,0,0.439,0,1.002v19.995C0,21.551,0.449,22,1.008,22H13.992z M1,1h13v20H1V1z"/>
</g>
<g>
</g>
<g>
</g>
<g>
</g>
<g>
</g>
<g>
</g>
<g>
</g>
<g>
</g>
<g>
</g>
<g>
</g>
<g>
</g>
<g>
</g>
<g>
</g>
<g>
</g>
<g>
</g>
<g>
</g>
</svg>
