<?xml version="1.0" encoding="iso-8859-1"?>
<!-- Generator: Adobe Illustrator 18.0.0, SVG Export Plug-In . SVG Version: 6.00 Build 0)  -->
<!DOCTYPE svg PUBLIC "-//W3C//DTD SVG 1.1//EN" "http://www.w3.org/Graphics/SVG/1.1/DTD/svg11.dtd">
<svg version="1.1" id="Capa_1" xmlns="http://www.w3.org/2000/svg" xmlns:xlink="http://www.w3.org/1999/xlink" x="0px" y="0px"
	 viewBox="0 0 15 19" style="enable-background:new 0 0 15 19;" xml:space="preserve">
<path style="fill-rule:evenodd;clip-rule:evenodd;" d="M14.794,19C14.908,19,15,18.907,15,18.79V0.21C15,0.094,14.908,0,14.794,0
	H0.206C0.092,0,0,0.093,0,0.21v18.58C0,18.906,0.092,19,0.206,19H14.794z M2,3h11v1H2V3z M2,6h11v1H2V6z M2,9h11v1H2V9z M2,12h11v1
	H2V12z M2,15h7v1H2V15z"/>
<g>
</g>
<g>
</g>
<g>
</g>
<g>
</g>
<g>
</g>
<g>
</g>
<g>
</g>
<g>
</g>
<g>
</g>
<g>
</g>
<g>
</g>
<g>
</g>
<g>
</g>
<g>
</g>
<g>
</g>
</svg>
