<?xml version="1.0" encoding="utf-8"?>
<!-- Generator: Adobe Illustrator 16.0.0, SVG Export Plug-In . SVG Version: 6.00 Build 0)  -->
<!DOCTYPE svg PUBLIC "-//W3C//DTD SVG 1.1//EN" "http://www.w3.org/Graphics/SVG/1.1/DTD/svg11.dtd">
<svg version="1.1" id="Layer_1" xmlns="http://www.w3.org/2000/svg" xmlns:xlink="http://www.w3.org/1999/xlink" x="0px" y="0px"
	 width="100px" height="100px" viewBox="0 0 100 100" enable-background="new 0 0 100 100" xml:space="preserve">
<path fill="#020202" d="M79.86,46.63v-8.85c0-1.573-1.274-2.848-2.848-2.848H76.86v-7.009c0-2.419-1.968-4.387-4.388-4.387H34.155
	l-2.843-7.462c-0.297-0.775-1.039-1.288-1.869-1.288H13.848c-0.533,0-1.043,0.212-1.419,0.59c-0.375,0.378-0.585,0.889-0.581,1.422
	l0.012,11.125v37.662c0,2.419,1.969,4.387,4.387,4.387h27.108V51.998c0-2.96,2.408-5.368,5.368-5.368H79.86z M23.23,34.933
	c-1.573,0-2.848,1.274-2.848,2.848v28.192h-4.137c-0.213,0-0.387-0.174-0.387-0.387V27.912l-0.026-9.125h12.231l2.844,7.462
	c0.295,0.775,1.039,1.288,1.869,1.288h39.695c0.214,0,0.388,0.174,0.388,0.387v7.009H23.23z M85.283,48.88H49.223
	c-1.581,0-2.868,1.287-2.868,2.868v30.597c0,1.582,1.287,2.869,2.868,2.869h36.061c1.581,0,2.868-1.287,2.868-2.869V51.748
	C88.151,50.167,86.864,48.88,85.283,48.88z M81.936,51.288c0.82,0,1.485,0.665,1.485,1.485c0,0.82-0.665,1.485-1.485,1.485
	c-0.819,0-1.485-0.665-1.485-1.485C80.45,51.952,81.116,51.288,81.936,51.288z M75.976,51.206c0.82,0,1.485,0.665,1.485,1.485
	c0,0.821-0.665,1.485-1.485,1.485c-0.819,0-1.485-0.665-1.485-1.485C74.49,51.871,75.156,51.206,75.976,51.206z M85.692,82.345
	c0,0.227-0.184,0.41-0.409,0.41H49.223c-0.226,0-0.409-0.184-0.409-0.41V56.051h36.879V82.345z"/>
</svg>
