<?xml version="1.0" encoding="utf-8"?>
<!-- Generator: Adobe Illustrator 16.0.0, SVG Export Plug-In . SVG Version: 6.00 Build 0)  -->
<!DOCTYPE svg PUBLIC "-//W3C//DTD SVG 1.1//EN" "http://www.w3.org/Graphics/SVG/1.1/DTD/svg11.dtd">
<svg version="1.1" id="Layer_1" xmlns="http://www.w3.org/2000/svg" xmlns:xlink="http://www.w3.org/1999/xlink" x="0px" y="0px"
	 width="100px" height="100px" viewBox="0 0 100 100" enable-background="new 0 0 100 100" xml:space="preserve">
<path fill="#020202" d="M65.164,14.512H48.557c-1.47-3.891-5.19-6.682-9.571-6.762c-0.033,0-0.062-0.01-0.095-0.01
	c-0.019,0-0.033,0.003-0.048,0.003c-0.019,0-0.033-0.003-0.048-0.003c-0.033,0-0.063,0.01-0.097,0.01
	c-4.377,0.08-8.061,2.879-9.531,6.762h-3.134c-2.627,0-4.767,2.141-4.767,4.768v68.213c0,2.63,2.14,4.768,4.767,4.768h47.932
	c2.63,0,4.768-2.138,4.768-4.768V29.255L65.164,14.512z M66.289,21.646l5.948,6.463h-5.948V21.646z M38.843,12.328
	c1.819,0.016,3.442,0.865,4.508,2.184h-8.979C35.429,13.197,37.028,12.344,38.843,12.328z M74.729,87.492
	c0,0.421-0.344,0.765-0.765,0.765H26.033c-0.421,0-0.763-0.344-0.763-0.765V19.279c0-0.421,0.342-0.762,0.763-0.762h18.618v19.037
	c0,3.23-2.627,5.86-5.856,5.86c-3.232,0-5.859-2.63-5.859-5.86v-10.71c0-0.006-0.004-0.008-0.004-0.015
	c0-0.006,0.004-0.009,0.004-0.016c0-1.035,0.842-1.877,1.877-1.877c1.036,0,1.877,0.842,1.877,1.877v8.923
	c0,1.266,1.027,2.292,2.294,2.292c1.265,0,2.292-1.026,2.292-2.292v-8.923c0-3.563-2.898-6.463-6.463-6.463
	s-6.462,2.899-6.462,6.463v10.74C28.351,43.313,33.033,48,38.795,48c5.758,0,10.441-4.687,10.441-10.445V18.518h13.048v11.595
	c0,1.104,0.899,1.999,2.003,1.999h10.442V87.492z"/>
</svg>
