<?xml version="1.0" encoding="utf-8"?>
<!-- Generator: Adobe Illustrator 16.0.0, SVG Export Plug-In . SVG Version: 6.00 Build 0)  -->
<!DOCTYPE svg PUBLIC "-//W3C//DTD SVG 1.1//EN" "http://www.w3.org/Graphics/SVG/1.1/DTD/svg11.dtd">
<svg version="1.1" id="Layer_1" xmlns="http://www.w3.org/2000/svg" xmlns:xlink="http://www.w3.org/1999/xlink" x="0px" y="0px"
	 width="100px" height="100px" viewBox="0 0 100 100" enable-background="new 0 0 100 100" xml:space="preserve">
<path fill="#020202" d="M66.249,13.245H27.118c-2.627,0-4.767,2.141-4.767,4.768v68.213c0,2.63,2.14,4.768,4.767,4.768H75.05
	c2.63,0,4.768-2.138,4.768-4.768V27.988L66.249,13.245z M67.374,20.38l5.948,6.463h-5.948V20.38z M75.814,86.226
	c0,0.421-0.344,0.765-0.765,0.765H27.118c-0.421,0-0.763-0.344-0.763-0.765V18.013c0-0.421,0.342-0.762,0.763-0.762h36.251v11.595
	c0,1.104,0.899,1.999,2.003,1.999h10.442V86.226z M28.302,54.122l4.684-4.684v9.367L28.302,54.122z M73.868,54.122l-4.684,4.684
	v-9.367L73.868,54.122z M51.485,19.089l4.685,4.684h-9.368L51.485,19.089z M46.802,80.972h9.368l-4.685,4.684L46.802,80.972z"/>
</svg>
