<?xml version="1.0" encoding="utf-8"?>
<!-- Generator: Adobe Illustrator 16.0.0, SVG Export Plug-In . SVG Version: 6.00 Build 0)  -->
<!DOCTYPE svg PUBLIC "-//W3C//DTD SVG 1.1//EN" "http://www.w3.org/Graphics/SVG/1.1/DTD/svg11.dtd">
<svg version="1.1" id="Layer_1" xmlns="http://www.w3.org/2000/svg" xmlns:xlink="http://www.w3.org/1999/xlink" x="0px" y="0px"
	 width="100px" height="100px" viewBox="0 0 100 100" enable-background="new 0 0 100 100" xml:space="preserve">
<path fill="#020202" d="M74.131,21.267H15.894c-2.63,0-4.768,2.139-4.768,4.768v47.932c0,2.627,2.138,4.768,4.768,4.768h68.213
	c2.627,0,4.768-2.141,4.768-4.768V34.835L74.131,21.267z M75.276,27.763l6.463,5.947h-6.463V27.763z M84.868,73.966
	c0,0.422-0.341,0.764-0.762,0.764H15.894c-0.421,0-0.765-0.342-0.765-0.764V26.034c0-0.42,0.344-0.764,0.765-0.764h55.381v10.441
	c0,1.104,0.895,2.004,1.999,2.004h11.595V73.966z M24.464,48.296l-4.178-16.468h3.036l1.93,8.227
	c0.273,1.149,0.534,2.314,0.759,3.39c0.256-1.104,0.566-2.276,0.871-3.424l2.168-8.192h2.786l1.978,8.249
	c0.256,1.077,0.511,2.188,0.726,3.262c0.221-0.956,0.465-1.936,0.718-2.946l0.092-0.366l2.146-8.198h2.973l-4.667,16.468h-2.779
	l-2.048-8.455c-0.253-1.039-0.474-1.991-0.657-2.923c-0.213,0.928-0.461,1.878-0.767,2.94l-2.307,8.438H24.464z M41.917,36.917
	c0-0.828,0.671-1.5,1.5-1.5h23.667c0.829,0,1.5,0.672,1.5,1.5s-0.671,1.5-1.5,1.5H43.417C42.588,38.417,41.917,37.745,41.917,36.917
	z M42.917,45.5H78c0.829,0,1.5,0.672,1.5,1.5s-0.671,1.5-1.5,1.5H42.917c-0.829,0-1.5-0.672-1.5-1.5S42.088,45.5,42.917,45.5z
	 M79.5,56c0,0.828-0.671,1.5-1.5,1.5H21.25c-0.829,0-1.5-0.672-1.5-1.5s0.671-1.5,1.5-1.5H78C78.829,54.5,79.5,55.172,79.5,56z
	 M79.5,64.75c0,0.828-0.671,1.5-1.5,1.5H21.25c-0.829,0-1.5-0.672-1.5-1.5s0.671-1.5,1.5-1.5H78
	C78.829,63.25,79.5,63.922,79.5,64.75z"/>
</svg>
