<?xml version="1.0" encoding="utf-8"?>
<!-- Generator: Adobe Illustrator 16.0.0, SVG Export Plug-In . SVG Version: 6.00 Build 0)  -->
<!DOCTYPE svg PUBLIC "-//W3C//DTD SVG 1.1//EN" "http://www.w3.org/Graphics/SVG/1.1/DTD/svg11.dtd">
<svg version="1.1" id="Layer_1" xmlns="http://www.w3.org/2000/svg" xmlns:xlink="http://www.w3.org/1999/xlink" x="0px" y="0px"
	 width="100px" height="100px" viewBox="0 0 100 100" enable-background="new 0 0 100 100" xml:space="preserve">
<path fill="#020202" d="M65.195,11.046h-39.21c-2.632,0-4.776,2.147-4.776,4.778v68.353c0,2.635,2.145,4.777,4.776,4.777h48.03
	c2.636,0,4.777-2.143,4.777-4.777V25.821L65.195,11.046z M66.323,18.196l5.961,6.478h-5.961V18.196z M74.015,84.942H51.828v-21.59
	c0-1.008-0.818-1.826-1.828-1.826c-1.009,0-1.827,0.818-1.827,1.826v21.59H25.985c-0.421,0-0.765-0.345-0.765-0.766V50.664h13.816
	c1.01,0,1.828-0.819,1.828-1.828c0-1.008-0.818-1.827-1.828-1.827H25.22V15.824c0-0.422,0.344-0.765,0.765-0.765h22.188v21.821
	c0,1.009,0.818,1.827,1.827,1.827c1.01,0,1.828-0.818,1.828-1.827V15.06H62.31v11.621c0,1.106,0.901,2.002,2.008,2.002h10.463
	v18.326H60.659c-1.009,0-1.827,0.819-1.827,1.827c0,1.009,0.818,1.828,1.827,1.828h14.122v33.513
	C74.781,84.598,74.437,84.942,74.015,84.942z M56.79,48.769c0.085,0.086,0.133,0.203,0.133,0.323c0,0.122-0.048,0.236-0.133,0.324
	l-1.366,1.365c-0.089,0.09-0.206,0.133-0.323,0.133s-0.234-0.043-0.323-0.133c-0.179-0.179-0.179-0.469,0-0.647l0.332-0.331h-4.166
	v4.141l0.332-0.332c0.178-0.178,0.467-0.178,0.646,0c0.179,0.179,0.179,0.469,0,0.647l-1.366,1.365
	c-0.086,0.087-0.202,0.134-0.323,0.134c-0.121,0-0.237-0.049-0.323-0.135l-1.365-1.365c-0.178-0.179-0.178-0.468,0-0.646
	c0.179-0.178,0.468-0.178,0.646,0.001l0.332,0.333v-4.143H44.89l0.333,0.331c0.178,0.179,0.178,0.469,0,0.647
	c-0.089,0.09-0.206,0.133-0.323,0.133s-0.234-0.043-0.323-0.133l-1.366-1.365c-0.085-0.088-0.134-0.202-0.134-0.324
	c0-0.12,0.048-0.237,0.134-0.323l1.366-1.364c0.179-0.18,0.468-0.176,0.646,0c0.178,0.179,0.178,0.468,0,0.646l-0.332,0.331h4.632
	v-4.658l-0.332,0.332c-0.089,0.089-0.206,0.135-0.323,0.135c-0.117,0-0.234-0.045-0.323-0.134c-0.178-0.179-0.178-0.468,0-0.646
	l1.365-1.366c0.171-0.171,0.475-0.172,0.646-0.002l1.366,1.366c0.179,0.179,0.179,0.469,0,0.647s-0.468,0.179-0.646,0l-0.332-0.332
	v4.657h4.166l-0.331-0.331c-0.179-0.179-0.179-0.468,0-0.646c0.178-0.176,0.467-0.18,0.646,0L56.79,48.769z"/>
</svg>
