<?xml version="1.0" encoding="utf-8"?>
<!-- Generator: Adobe Illustrator 16.0.0, SVG Export Plug-In . SVG Version: 6.00 Build 0)  -->
<!DOCTYPE svg PUBLIC "-//W3C//DTD SVG 1.1//EN" "http://www.w3.org/Graphics/SVG/1.1/DTD/svg11.dtd">
<svg version="1.1" id="Layer_2" xmlns="http://www.w3.org/2000/svg" xmlns:xlink="http://www.w3.org/1999/xlink" x="0px" y="0px"
	 width="100px" height="100px" viewBox="0 0 100 100" enable-background="new 0 0 100 100" xml:space="preserve">
<path d="M63.297,85.921l2.593,1.779c-0.589,0.515-1.351,0.838-2.193,0.838H16.025c-1.848,0-3.352-1.504-3.352-3.352V14.813
	c0-1.848,1.504-3.352,3.352-3.352h47.672c1.849,0,3.352,1.504,3.352,3.352v36.768l-2.617,1.724V14.813
	c0-0.405-0.33-0.735-0.735-0.735H16.025c-0.405,0-0.734,0.33-0.734,0.735v70.373c0,0.405,0.33,0.735,0.734,0.735H63.297z
	 M19.907,24.08h39.91c0.98,0,1.777-0.797,1.777-1.777s-0.797-1.777-1.777-1.777h-39.91c-0.98,0-1.777,0.797-1.777,1.777
	S18.927,24.08,19.907,24.08z M19.907,34.767h32.822c0.98,0,1.777-0.797,1.777-1.777c0-0.979-0.797-1.777-1.777-1.777H19.907
	c-0.98,0-1.777,0.797-1.777,1.777C18.13,33.969,18.927,34.767,19.907,34.767z M59.816,42.771h-39.91
	c-0.98,0-1.777,0.797-1.777,1.777c0,0.979,0.797,1.777,1.777,1.777h39.91c0.98,0,1.777-0.797,1.777-1.777
	C61.594,43.568,60.796,42.771,59.816,42.771z M41.824,53.457H19.907c-0.98,0-1.777,0.797-1.777,1.777s0.797,1.777,1.777,1.777
	h21.917c0.98,0,1.777-0.797,1.777-1.777S42.804,53.457,41.824,53.457z M19.907,67.916h21.917c0.852,0,1.585-0.607,1.752-1.532
	l-0.008-0.578c-0.159-0.837-0.892-1.445-1.744-1.445H19.907c-0.98,0-1.777,0.797-1.777,1.777S18.927,67.916,19.907,67.916z
	 M41.824,75.265H19.907c-0.98,0-1.777,0.797-1.777,1.777s0.797,1.777,1.777,1.777h21.917c0.98,0,1.777-0.797,1.777-1.777
	S42.804,75.265,41.824,75.265z M70.996,51.818l-15.504,10.21c-0.649,0-1.207,0.167-1.493,0.575h-6.395
	c-0.894,0-1.618,0.725-1.618,1.618v11.146c0,0.894,0.724,1.619,1.618,1.619h6.316c0.256,0.497,0.863,0.689,1.571,0.689L70.996,88.31
	c0.94,0,1.702-0.762,1.702-1.702V53.519C72.698,52.579,71.936,51.818,70.996,51.818z M81.776,70.063
	c0-3.262-2.654-5.916-5.916-5.916c-0.297,0-0.54,0.242-0.54,0.54s0.242,0.539,0.54,0.539c2.667,0,4.837,2.17,4.837,4.837
	c0,2.667-2.17,4.837-4.837,4.837c-0.297,0-0.54,0.242-0.54,0.54c0,0.298,0.242,0.539,0.54,0.539
	C79.122,75.979,81.776,73.325,81.776,70.063z M77.685,60.423c-0.298,0-0.539,0.241-0.539,0.539s0.241,0.539,0.539,0.539
	c4.722,0,8.563,3.841,8.563,8.563s-3.84,8.562-8.563,8.562c-0.298,0-0.539,0.242-0.539,0.539c0,0.299,0.241,0.54,0.539,0.54
	c5.316,0,9.641-4.324,9.641-9.641C87.326,64.748,83,60.423,77.685,60.423z"/>
</svg>
