<?xml version="1.0" encoding="utf-8"?>
<!-- Generator: Adobe Illustrator 16.0.0, SVG Export Plug-In . SVG Version: 6.00 Build 0)  -->
<!DOCTYPE svg PUBLIC "-//W3C//DTD SVG 1.1//EN" "http://www.w3.org/Graphics/SVG/1.1/DTD/svg11.dtd">
<svg version="1.1" id="Layer_1" xmlns="http://www.w3.org/2000/svg" xmlns:xlink="http://www.w3.org/1999/xlink" x="0px" y="0px"
	 width="100px" height="100px" viewBox="0 0 100 100" enable-background="new 0 0 100 100" xml:space="preserve">
<path fill="#020202" d="M65.195,11.046H25.984c-2.631,0-4.775,2.147-4.775,4.778v68.353c0,2.635,2.145,4.777,4.775,4.777h48.03
	c2.636,0,4.776-2.143,4.776-4.777V25.821L65.195,11.046z M66.323,18.196l5.96,6.478h-5.96V18.196z M74.015,84.942h-48.03
	c-0.42,0-0.764-0.345-0.764-0.766V50.664h13.815c1.01,0,1.827-0.819,1.827-1.828c0-1.008-0.817-1.827-1.827-1.827H25.221V15.824
	c0-0.422,0.344-0.765,0.764-0.765H62.31v11.621c0,1.106,0.901,2.002,2.008,2.002h10.464v18.326h-15.34
	c-1.01,0-1.828,0.819-1.828,1.827c0,1.009,0.818,1.828,1.828,1.828h15.34v33.513C74.781,84.598,74.437,84.942,74.015,84.942z
	 M56.486,48.769c0.084,0.086,0.133,0.203,0.133,0.323c0,0.122-0.049,0.236-0.133,0.324l-1.366,1.365
	c-0.089,0.09-0.206,0.133-0.323,0.133s-0.234-0.043-0.323-0.133c-0.179-0.179-0.179-0.469,0-0.647l0.332-0.331H50.64v4.141
	l0.331-0.332c0.179-0.178,0.468-0.178,0.646,0c0.178,0.179,0.178,0.469,0,0.647l-1.366,1.365c-0.085,0.087-0.201,0.134-0.323,0.134
	c-0.121,0-0.236-0.049-0.322-0.135l-1.365-1.365c-0.178-0.179-0.178-0.468,0-0.646c0.18-0.178,0.469-0.178,0.646,0.001l0.331,0.333
	v-4.143h-4.632l0.332,0.331c0.178,0.179,0.178,0.469,0,0.647c-0.09,0.09-0.206,0.133-0.323,0.133s-0.233-0.043-0.323-0.133
	l-1.365-1.365c-0.086-0.088-0.135-0.202-0.135-0.324c0-0.12,0.049-0.237,0.135-0.323l1.365-1.364c0.179-0.18,0.468-0.176,0.646,0
	c0.178,0.179,0.178,0.468,0,0.646l-0.332,0.331h4.632v-4.658l-0.331,0.332c-0.089,0.089-0.205,0.135-0.322,0.135
	s-0.234-0.045-0.324-0.134c-0.178-0.179-0.178-0.468,0-0.646l1.365-1.366c0.171-0.171,0.475-0.172,0.646-0.002l1.366,1.366
	c0.178,0.179,0.178,0.469,0,0.647c-0.179,0.179-0.468,0.179-0.646,0l-0.331-0.332v4.657h4.165l-0.331-0.331
	c-0.179-0.179-0.179-0.468,0-0.646c0.179-0.176,0.468-0.18,0.646,0L56.486,48.769z"/>
</svg>
