<?xml version="1.0" encoding="utf-8"?>
<!-- Generator: Adobe Illustrator 16.0.0, SVG Export Plug-In . SVG Version: 6.00 Build 0)  -->
<!DOCTYPE svg PUBLIC "-//W3C//DTD SVG 1.1//EN" "http://www.w3.org/Graphics/SVG/1.1/DTD/svg11.dtd">
<svg version="1.1" id="Layer_1" xmlns="http://www.w3.org/2000/svg" xmlns:xlink="http://www.w3.org/1999/xlink" x="0px" y="0px"
	 width="100px" height="100px" viewBox="0 0 100 100" enable-background="new 0 0 100 100" xml:space="preserve">
<path fill="#020202" d="M69.946,16.688H37.854c-0.197,1.386-0.626,2.735-1.276,4.006h30.489v11.595c0,1.104,0.899,1.999,2.003,1.999
	h10.442v55.381c0,0.421-0.344,0.765-0.765,0.765H30.815c-0.421,0-0.763-0.344-0.763-0.765V36.621l-4.004-5.299v58.347
	c0,2.63,2.14,4.768,4.767,4.768h47.932c2.63,0,4.768-2.138,4.768-4.768V31.432L69.946,16.688z M71.071,30.286v-6.463l5.948,6.463
	H71.071z M33.086,20.738c2.144-2.671,2.739-6.421,1.211-9.741C32.143,6.314,26.6,4.265,21.919,6.419
	c-4.683,2.155-6.731,7.697-4.577,12.379c1.559,3.387,4.89,5.385,8.386,5.422l11.203,14.826L33.086,20.738z M30.595,9.194
	c-0.18,0.809-1.636,1.173-3.253,0.813c-1.618-0.359-2.783-1.307-2.604-2.115c0.18-0.809,1.636-1.173,3.254-0.813
	C29.608,7.438,30.774,8.385,30.595,9.194z"/>
</svg>
