<?xml version="1.0" encoding="utf-8"?>
<!-- Generator: Adobe Illustrator 16.0.0, SVG Export Plug-In . SVG Version: 6.00 Build 0)  -->
<!DOCTYPE svg PUBLIC "-//W3C//DTD SVG 1.1//EN" "http://www.w3.org/Graphics/SVG/1.1/DTD/svg11.dtd">
<svg version="1.1" id="Layer_1" xmlns="http://www.w3.org/2000/svg" xmlns:xlink="http://www.w3.org/1999/xlink" x="0px" y="0px"
	 width="100px" height="100px" viewBox="0 0 100 100" enable-background="new 0 0 100 100" xml:space="preserve">
<path fill="#020202" d="M64.823,11.126H25.692c-2.627,0-4.767,2.141-4.767,4.768v68.213c0,2.63,2.14,4.768,4.767,4.768h47.932
	c2.63,0,4.768-2.138,4.768-4.768V25.869L64.823,11.126z M65.948,18.261l5.948,6.463h-5.948V18.261z M74.389,84.106
	c0,0.421-0.344,0.765-0.765,0.765H25.692c-0.421,0-0.763-0.344-0.763-0.765V15.894c0-0.421,0.342-0.762,0.763-0.762h36.251v11.595
	c0,1.104,0.899,1.999,2.003,1.999h10.442V84.106z M64.034,57.549l5.45-15.117l-1.6,1.004l-1.064-1.693l5.541-3.479l1.45,6.912
	l-1.957,0.41l-0.509-2.424l-6.714,18.624L57.301,51.66l-7.617,9.693l-3.722-10.021l-5.235,26.501l-6.391-13.491l-4.431,9.416
	l-1.811-0.852l6.235-13.25L39.939,71.5l5.433-27.499l4.944,13.312l7.049-8.973L64.034,57.549z"/>
</svg>
