<?xml version="1.0" encoding="utf-8"?>
<!-- Generator: Adobe Illustrator 16.0.0, SVG Export Plug-In . SVG Version: 6.00 Build 0)  -->
<!DOCTYPE svg PUBLIC "-//W3C//DTD SVG 1.1//EN" "http://www.w3.org/Graphics/SVG/1.1/DTD/svg11.dtd">
<svg version="1.1" id="Layer_1" xmlns="http://www.w3.org/2000/svg" xmlns:xlink="http://www.w3.org/1999/xlink" x="0px" y="0px"
	 width="100px" height="100px" viewBox="0 0 100 100" enable-background="new 0 0 100 100" xml:space="preserve">
<path fill="#020202" d="M65.165,11.458H26.034c-2.627,0-4.767,2.141-4.767,4.768v68.213c0,2.63,2.14,4.768,4.767,4.768h47.932
	c2.63,0,4.768-2.138,4.768-4.768V26.201L65.165,11.458z M66.29,18.593l5.948,6.463H66.29V18.593z M74.73,84.438
	c0,0.421-0.344,0.765-0.765,0.765H26.034c-0.421,0-0.763-0.344-0.763-0.765V16.226c0-0.421,0.342-0.762,0.763-0.762h36.251v11.595
	c0,1.104,0.899,1.999,2.003,1.999H74.73V84.438z M64.87,54.547l3.404,2.695h3.33c0.553,0,1,0.447,1,1s-0.447,1-1,1h-3.678
	c-0.226,0-0.444-0.076-0.621-0.216l-2.96-2.344l-2.127,2.247c-0.221,0.233-0.542,0.347-0.858,0.304
	c-0.317-0.042-0.597-0.234-0.748-0.517l-1.692-3.141l-2.429,7.568c-0.142,0.442-0.579,0.727-1.032,0.691
	c-0.463-0.037-0.839-0.388-0.908-0.847l-3.337-21.975l-4.14,36.34c-0.056,0.492-0.464,0.869-0.958,0.886
	c-0.012,0.001-0.024,0.001-0.035,0.001c-0.48,0-0.896-0.343-0.983-0.818l-3.726-20.154l-1.399,9.395
	c-0.07,0.468-0.459,0.823-0.932,0.851c-0.476,0.033-0.899-0.279-1.023-0.737l-2.575-9.531L33.6,61.406
	c-0.16,0.361-0.519,0.595-0.914,0.595h-4.289c-0.553,0-1-0.447-1-1s0.447-1,1-1h3.639l2.722-6.147
	c0.172-0.387,0.577-0.628,0.99-0.592c0.423,0.032,0.778,0.327,0.89,0.736l2.063,7.636l1.577-10.587
	c0.072-0.483,0.483-0.844,0.972-0.853c0.514,0.018,0.912,0.338,1.001,0.818l3.596,19.455l4.233-37.16
	c0.057-0.498,0.474-0.877,0.975-0.887c0.481,0.038,0.933,0.354,1.007,0.85l3.828,25.207l1.845-5.75
	c0.122-0.382,0.461-0.653,0.86-0.69c0.408-0.038,0.782,0.169,0.972,0.521l2.151,3.992l1.806-1.907
	C63.88,54.267,64.463,54.227,64.87,54.547z"/>
</svg>
