<?xml version="1.0" encoding="utf-8"?>
<!-- Generator: Adobe Illustrator 16.0.0, SVG Export Plug-In . SVG Version: 6.00 Build 0)  -->
<!DOCTYPE svg PUBLIC "-//W3C//DTD SVG 1.1//EN" "http://www.w3.org/Graphics/SVG/1.1/DTD/svg11.dtd">
<svg version="1.1" id="Layer_1" xmlns="http://www.w3.org/2000/svg" xmlns:xlink="http://www.w3.org/1999/xlink" x="0px" y="0px"
	 width="100px" height="100px" viewBox="0 0 100 100" enable-background="new 0 0 100 100" xml:space="preserve">
<path fill="#020202" d="M51.5,18.188v65.625c0,0.828-0.672,1.5-1.5,1.5s-1.5-0.672-1.5-1.5V18.188c0-0.828,0.672-1.5,1.5-1.5
	S51.5,17.359,51.5,18.188z M56.667,24.501h23.334c0.828,0,1.5-0.672,1.5-1.5s-0.672-1.5-1.5-1.5H56.667c-0.828,0-1.5,0.672-1.5,1.5
	S55.839,24.501,56.667,24.501z M56.667,34.501h17.334c0.828,0,1.5-0.672,1.5-1.5s-0.672-1.5-1.5-1.5H56.667
	c-0.828,0-1.5,0.672-1.5,1.5S55.839,34.501,56.667,34.501z M80.001,51.5H56.667c-0.828,0-1.5,0.672-1.5,1.5s0.672,1.5,1.5,1.5
	h23.334c0.828,0,1.5-0.672,1.5-1.5S80.829,51.5,80.001,51.5z M74.001,61.5H56.667c-0.828,0-1.5,0.672-1.5,1.5s0.672,1.5,1.5,1.5
	h17.334c0.828,0,1.5-0.672,1.5-1.5S74.829,61.5,74.001,61.5z M74.001,71.584H56.667c-0.828,0-1.5,0.672-1.5,1.5s0.672,1.5,1.5,1.5
	h17.334c0.828,0,1.5-0.672,1.5-1.5S74.829,71.584,74.001,71.584z M56.667,44.501h14.084c0.828,0,1.5-0.672,1.5-1.5
	s-0.672-1.5-1.5-1.5H56.667c-0.828,0-1.5,0.672-1.5,1.5S55.839,44.501,56.667,44.501z M42.334,21.708H19c-0.828,0-1.5,0.672-1.5,1.5
	s0.672,1.5,1.5,1.5h23.334c0.828,0,1.5-0.672,1.5-1.5S43.162,21.708,42.334,21.708z M42.334,31.708H25c-0.828,0-1.5,0.672-1.5,1.5
	s0.672,1.5,1.5,1.5h17.334c0.828,0,1.5-0.672,1.5-1.5S43.162,31.708,42.334,31.708z M42.334,51.707H19c-0.828,0-1.5,0.672-1.5,1.5
	s0.672,1.5,1.5,1.5h23.334c0.828,0,1.5-0.672,1.5-1.5S43.162,51.707,42.334,51.707z M42.334,61.707H25c-0.828,0-1.5,0.672-1.5,1.5
	s0.672,1.5,1.5,1.5h17.334c0.828,0,1.5-0.672,1.5-1.5S43.162,61.707,42.334,61.707z M42.334,71.791H25c-0.828,0-1.5,0.672-1.5,1.5
	s0.672,1.5,1.5,1.5h17.334c0.828,0,1.5-0.672,1.5-1.5S43.162,71.791,42.334,71.791z M42.334,41.708H28.25
	c-0.828,0-1.5,0.672-1.5,1.5s0.672,1.5,1.5,1.5h14.084c0.828,0,1.5-0.672,1.5-1.5S43.162,41.708,42.334,41.708z"/>
</svg>
