<?xml version="1.0" encoding="utf-8"?>
<!-- Generator: Adobe Illustrator 16.0.0, SVG Export Plug-In . SVG Version: 6.00 Build 0)  -->
<!DOCTYPE svg PUBLIC "-//W3C//DTD SVG 1.1//EN" "http://www.w3.org/Graphics/SVG/1.1/DTD/svg11.dtd">
<svg version="1.1" id="Layer_1" xmlns="http://www.w3.org/2000/svg" xmlns:xlink="http://www.w3.org/1999/xlink" x="0px" y="0px"
	 width="100px" height="100px" viewBox="0 0 100 100" enable-background="new 0 0 100 100" xml:space="preserve">
<path fill="#020202" d="M65.165,11.126H26.034c-2.627,0-4.767,2.141-4.767,4.768v68.213c0,2.63,2.14,4.768,4.767,4.768h47.932
	c2.63,0,4.768-2.138,4.768-4.768V25.869L65.165,11.126z M66.29,18.261l5.948,6.463H66.29V18.261z M74.73,84.106
	c0,0.421-0.344,0.765-0.765,0.765H26.034c-0.421,0-0.763-0.344-0.763-0.765V15.894c0-0.421,0.342-0.762,0.763-0.762h36.251v11.595
	c0,1.104,0.899,1.999,2.003,1.999H74.73V84.106z M68.037,75.727h1.736v4.34h-4.34V78.33h2.604V75.727z M40.742,78.33h6.173v1.736
	h-6.173V78.33z M53.088,78.33h6.172v1.736h-6.172V78.33z M31.965,78.33h2.604v1.736h-4.34v-4.34h1.736V78.33z M31.965,69.553h-1.736
	v-6.172h1.736V69.553z M31.965,57.208h-1.736v-6.173h1.736V57.208z M30.229,40.521h4.34v1.736h-2.604v2.604h-1.736V40.521z
	 M46.914,42.258h-6.172v-1.736h6.172V42.258z M53.087,40.521h6.173v1.736h-6.173V40.521z M69.773,40.521v4.34h-1.736v-2.604h-2.604
	v-1.736H69.773z M68.037,63.38h1.736v6.173h-1.736V63.38z M68.037,51.035h1.736v6.172h-1.736V51.035z"/>
</svg>
