<?xml version="1.0" encoding="utf-8"?>
<!-- Generator: Adobe Illustrator 16.0.0, SVG Export Plug-In . SVG Version: 6.00 Build 0)  -->
<!DOCTYPE svg PUBLIC "-//W3C//DTD SVG 1.1//EN" "http://www.w3.org/Graphics/SVG/1.1/DTD/svg11.dtd">
<svg version="1.1" id="Layer_1" xmlns="http://www.w3.org/2000/svg" xmlns:xlink="http://www.w3.org/1999/xlink" x="0px" y="0px"
	 width="100px" height="100px" viewBox="0 0 100 100" enable-background="new 0 0 100 100" xml:space="preserve">
<path fill="#020202" d="M65.456,11.458H26.325c-2.627,0-4.767,2.141-4.767,4.768v68.213c0,2.63,2.14,4.768,4.767,4.768h47.932
	c2.63,0,4.768-2.138,4.768-4.768V26.201L65.456,11.458z M66.581,18.593l5.948,6.463h-5.948V18.593z M75.021,84.438
	c0,0.421-0.344,0.765-0.765,0.765H26.325c-0.421,0-0.763-0.344-0.763-0.765V16.226c0-0.421,0.342-0.762,0.763-0.762h36.251v11.595
	c0,1.104,0.899,1.999,2.003,1.999h10.442V84.438z M34.688,32.331H70.98v2H34.688v10.334H70.98v2H34.688v10H70.98v2H34.688v9.416
	H70.98v2H34.688v5.583h-2v-5.583h-3.664v-2h3.664v-9.416h-3.664v-2h3.664v-10h-3.664v-2h3.664V34.331h-3.664v-2h3.664v-6.667h2
	V32.331z"/>
</svg>
