<?xml version="1.0" encoding="utf-8"?>
<!-- Generator: Adobe Illustrator 16.0.0, SVG Export Plug-In . SVG Version: 6.00 Build 0)  -->
<!DOCTYPE svg PUBLIC "-//W3C//DTD SVG 1.1//EN" "http://www.w3.org/Graphics/SVG/1.1/DTD/svg11.dtd">
<svg version="1.1" id="Layer_1" xmlns="http://www.w3.org/2000/svg" xmlns:xlink="http://www.w3.org/1999/xlink" x="0px" y="0px"
	 width="100px" height="100px" viewBox="0 0 100 100" enable-background="new 0 0 100 100" xml:space="preserve">
<path fill="#020202" d="M30.361,16.938v65.625c0,0.828-0.672,1.5-1.5,1.5s-1.5-0.672-1.5-1.5V16.938c0-0.828,0.672-1.5,1.5-1.5
	S30.361,16.109,30.361,16.938z M35.528,23.501h35.609c0.828,0,1.5-0.672,1.5-1.5s-0.672-1.5-1.5-1.5H35.528
	c-0.828,0-1.5,0.672-1.5,1.5S34.7,23.501,35.528,23.501z M35.528,33.501h29.609c0.828,0,1.5-0.672,1.5-1.5s-0.672-1.5-1.5-1.5
	H35.528c-0.828,0-1.5,0.672-1.5,1.5S34.7,33.501,35.528,33.501z M71.138,50.5H35.528c-0.828,0-1.5,0.672-1.5,1.5s0.672,1.5,1.5,1.5
	h35.609c0.828,0,1.5-0.672,1.5-1.5S71.966,50.5,71.138,50.5z M65.138,60.5H35.528c-0.828,0-1.5,0.672-1.5,1.5s0.672,1.5,1.5,1.5
	h29.609c0.828,0,1.5-0.672,1.5-1.5S65.966,60.5,65.138,60.5z M65.138,70.584H35.528c-0.828,0-1.5,0.672-1.5,1.5s0.672,1.5,1.5,1.5
	h29.609c0.828,0,1.5-0.672,1.5-1.5S65.966,70.584,65.138,70.584z M35.528,43.501h26.359c0.828,0,1.5-0.672,1.5-1.5
	s-0.672-1.5-1.5-1.5H35.528c-0.828,0-1.5,0.672-1.5,1.5S34.7,43.501,35.528,43.501z"/>
</svg>
