<?xml version="1.0" encoding="utf-8"?>
<!-- Generator: Adobe Illustrator 16.0.0, SVG Export Plug-In . SVG Version: 6.00 Build 0)  -->
<!DOCTYPE svg PUBLIC "-//W3C//DTD SVG 1.1//EN" "http://www.w3.org/Graphics/SVG/1.1/DTD/svg11.dtd">
<svg version="1.1" id="Layer_1" xmlns="http://www.w3.org/2000/svg" xmlns:xlink="http://www.w3.org/1999/xlink" x="0px" y="0px"
	 width="100px" height="100px" viewBox="0 0 100 100" enable-background="new 0 0 100 100" xml:space="preserve">
<path fill="#020202" d="M65.195,11.046H25.984c-2.631,0-4.775,2.147-4.775,4.778v68.353c0,2.635,2.145,4.777,4.775,4.777h48.031
	c2.635,0,4.775-2.143,4.775-4.777V25.821L65.195,11.046z M66.324,18.196l5.959,6.478h-5.959V18.196z M74.781,84.177
	c0,0.421-0.346,0.766-0.766,0.766H51.828v-21.59c0-1.008-0.82-1.826-1.828-1.826c-1.01,0-1.826,0.818-1.826,1.826v21.59H25.984
	c-0.42,0-0.764-0.345-0.764-0.766V15.824c0-0.422,0.344-0.765,0.764-0.765h22.189v21.821c0,1.009,0.816,1.827,1.826,1.827
	c1.008,0,1.828-0.818,1.828-1.827V15.06h10.48v11.621c0,1.106,0.902,2.002,2.01,2.002h10.463V84.177z M56.789,48.769
	c0.086,0.086,0.135,0.203,0.135,0.323c0,0.122-0.049,0.236-0.135,0.324l-1.365,1.365c-0.088,0.09-0.205,0.133-0.322,0.133
	s-0.234-0.043-0.322-0.133c-0.18-0.179-0.18-0.469,0-0.647l0.33-0.331h-4.166v4.141l0.332-0.332c0.18-0.178,0.467-0.178,0.646,0
	c0.178,0.179,0.178,0.469,0,0.647l-1.365,1.365c-0.086,0.087-0.203,0.134-0.324,0.134s-0.236-0.049-0.322-0.135l-1.365-1.365
	c-0.18-0.179-0.18-0.468,0-0.646c0.178-0.178,0.469-0.178,0.646,0.001l0.332,0.333v-4.143h-4.631l0.328,0.331
	c0.178,0.179,0.178,0.469,0,0.647c-0.088,0.09-0.203,0.133-0.32,0.133s-0.236-0.043-0.322-0.133l-1.367-1.365
	c-0.084-0.088-0.135-0.202-0.135-0.324c0-0.12,0.051-0.237,0.135-0.323l1.367-1.364c0.178-0.18,0.467-0.176,0.643,0
	c0.178,0.179,0.178,0.468,0,0.646l-0.328,0.331h4.631v-4.658l-0.332,0.332c-0.088,0.089-0.207,0.135-0.322,0.135
	c-0.117,0-0.234-0.045-0.324-0.134c-0.18-0.179-0.18-0.468,0-0.646l1.365-1.366c0.17-0.171,0.475-0.172,0.646-0.002l1.365,1.366
	c0.178,0.179,0.178,0.469,0,0.647c-0.18,0.179-0.467,0.179-0.646,0l-0.332-0.332v4.657h4.166l-0.33-0.331
	c-0.18-0.179-0.18-0.468,0-0.646c0.178-0.176,0.467-0.18,0.645,0L56.789,48.769z"/>
</svg>
