<?xml version="1.0" encoding="utf-8"?>
<!-- Generator: Adobe Illustrator 16.0.0, SVG Export Plug-In . SVG Version: 6.00 Build 0)  -->
<!DOCTYPE svg PUBLIC "-//W3C//DTD SVG 1.1//EN" "http://www.w3.org/Graphics/SVG/1.1/DTD/svg11.dtd">
<svg version="1.1" id="Layer_1" xmlns="http://www.w3.org/2000/svg" xmlns:xlink="http://www.w3.org/1999/xlink" x="0px" y="0px"
	 width="100px" height="100px" viewBox="0 0 100 100" enable-background="new 0 0 100 100" xml:space="preserve">
<path fill="#020202" d="M65.165,11.126H26.034c-2.627,0-4.767,2.141-4.767,4.768v68.213c0,2.63,2.14,4.768,4.767,4.768h47.932
	c2.63,0,4.768-2.138,4.768-4.768V25.869L65.165,11.126z M66.29,18.261l5.948,6.463H66.29V18.261z M74.73,84.106
	c0,0.421-0.344,0.765-0.765,0.765H26.034c-0.421,0-0.763-0.344-0.763-0.765V15.894c0-0.421,0.342-0.762,0.763-0.762h36.251v11.595
	c0,1.104,0.899,1.999,2.003,1.999H74.73V84.106z M62.851,50.006v-0.249H33.748v3.086c0,6.538,4.748,11.954,10.98,13.023
	c-7.168,0.089-12.523,0.439-12.523,0.859c0,0.346,3.625,0.644,8.902,0.789v0.479h14.387v-0.479c5.275-0.146,8.9-0.443,8.9-0.789
	c0-0.419-5.341-0.77-12.493-0.858c2.466-0.433,4.695-1.545,6.491-3.14c0.345,0.098,0.739,0.152,1.19,0.152
	c3.155,0,6.806-1.482,7.375-4.758l0.826-5.456l0.012-0.148c0-1.199-0.536-2.63-3.094-2.63c-0.529,0-1.103,0.053-1.658,0.103
	C62.979,49.995,62.916,50,62.851,50.006z M64.702,51.872c1.043,0,1.104,0.202,1.109,0.572L65,57.804
	c-0.361,2.071-2.942,2.936-4.882,3.069c1.708-2.228,2.733-5.006,2.733-8.03v-0.846c0.124-0.011,0.25-0.02,0.371-0.03
	C63.757,51.918,64.262,51.872,64.702,51.872z M45.195,36.03c-0.158-0.848,0.119-1.565,0.42-2.035
	c0.306-0.487,0.662-0.809,0.984-1.067c0.317-0.26,0.622-0.437,0.876-0.571c0.505-0.269,0.825-0.349,0.825-0.349
	s-0.177,0.279-0.446,0.746c-0.134,0.236-0.285,0.522-0.439,0.84c-0.141,0.321-0.285,0.686-0.346,1.041
	c-0.072,0.356-0.026,0.671,0.103,0.847c0.061,0.094,0.133,0.176,0.255,0.267c0.052,0.042,0.127,0.103,0.185,0.133l0.264,0.15
	l0.359,0.207c0.139,0.078,0.277,0.171,0.419,0.258c0.279,0.185,0.552,0.391,0.824,0.625c0.54,0.461,1.068,1.054,1.433,1.858
	c0.176,0.402,0.299,0.865,0.32,1.351c0.018,0.486-0.083,0.979-0.257,1.409c-0.364,0.863-0.976,1.442-1.573,1.836
	c-0.158,0.104-0.336,0.211-0.443,0.263c-0.078,0.043-0.098,0.056-0.118,0.057c-0.029,0.003-0.042,0.021-0.067,0.026
	c-0.088,0.039-0.168,0.112-0.253,0.234c-0.162,0.251-0.264,0.664-0.304,1.062c-0.088,0.815-0.022,1.592,0.013,2.13
	c0.047,0.551,0.073,0.865,0.073,0.865s-0.235-0.226-0.561-0.688c-0.16-0.232-0.356-0.521-0.53-0.879
	c-0.181-0.357-0.373-0.776-0.502-1.286c-0.124-0.509-0.226-1.115-0.046-1.862c0.088-0.373,0.285-0.777,0.596-1.123
	c0.08-0.082,0.158-0.174,0.249-0.244l0.226-0.183c0.131-0.098,0.187-0.153,0.258-0.222c0.307-0.299,0.53-0.625,0.598-0.893
	c0.064-0.264,0.047-0.469-0.092-0.785c-0.139-0.313-0.417-0.676-0.766-1.02c-0.168-0.175-0.367-0.336-0.56-0.505
	c-0.102-0.08-0.196-0.165-0.304-0.243l-0.154-0.117l-0.122-0.091l-0.085-0.067l-0.172-0.146l-0.238-0.22
	c-0.156-0.153-0.274-0.295-0.398-0.463C45.456,36.851,45.275,36.439,45.195,36.03z"/>
</svg>
