<?xml version="1.0" encoding="utf-8"?>
<!-- Generator: Adobe Illustrator 16.0.0, SVG Export Plug-In . SVG Version: 6.00 Build 0)  -->
<!DOCTYPE svg PUBLIC "-//W3C//DTD SVG 1.1//EN" "http://www.w3.org/Graphics/SVG/1.1/DTD/svg11.dtd">
<svg version="1.1" id="Layer_1" xmlns="http://www.w3.org/2000/svg" xmlns:xlink="http://www.w3.org/1999/xlink" x="0px" y="0px"
	 width="100px" height="100px" viewBox="0 0 100 100" enable-background="new 0 0 100 100" xml:space="preserve">
<path fill="#020202" d="M74.131,21.267H15.894c-2.63,0-4.768,2.139-4.768,4.768v47.932c0,2.627,2.138,4.768,4.768,4.768h68.213
	c2.627,0,4.768-2.141,4.768-4.768V34.835L74.131,21.267z M75.276,33.71v-5.947l6.463,5.947H75.276z M71.274,25.271v10.441
	c0,1.104,0.895,2.004,1.999,2.004h11.595v36.25c0,0.422-0.341,0.764-0.762,0.764H15.894c-0.421,0-0.765-0.342-0.765-0.764V26.034
	c0-0.42,0.344-0.764,0.765-0.764H71.274z"/>
</svg>
