<?xml version="1.0" encoding="utf-8"?>
<!-- Generator: Adobe Illustrator 16.0.0, SVG Export Plug-In . SVG Version: 6.00 Build 0)  -->
<!DOCTYPE svg PUBLIC "-//W3C//DTD SVG 1.1//EN" "http://www.w3.org/Graphics/SVG/1.1/DTD/svg11.dtd">
<svg version="1.1" id="Layer_1" xmlns="http://www.w3.org/2000/svg" xmlns:xlink="http://www.w3.org/1999/xlink" x="0px" y="0px"
	 width="100px" height="100px" viewBox="0 0 100 100" enable-background="new 0 0 100 100" xml:space="preserve">
<path fill="#020202" d="M65.164,11.126H26.033c-2.627,0-4.767,2.141-4.767,4.768v68.213c0,2.63,2.14,4.768,4.767,4.768h47.932
	c2.63,0,4.768-2.138,4.768-4.768V25.869L65.164,11.126z M66.289,18.261l5.948,6.463h-5.948V18.261z M74.729,84.106
	c0,0.421-0.344,0.765-0.765,0.765H26.033c-0.421,0-0.763-0.344-0.763-0.765V15.894c0-0.421,0.342-0.762,0.763-0.762h36.251v11.595
	c0,1.104,0.899,1.999,2.003,1.999h10.442V84.106z M31.514,48.137l13.883-9.666v4.595l-10.499,6.892v0.084l10.499,6.893v4.596
	l-13.883-9.667V48.137z M54.605,38.471l13.881,9.535v3.987l-13.881,9.536v-4.596l10.729-6.893v-0.084l-10.729-6.892V38.471z"/>
</svg>
