<?xml version="1.0" encoding="iso-8859-1"?>
<!-- Generator: Adobe Illustrator 18.0.0, SVG Export Plug-In . SVG Version: 6.00 Build 0)  -->
<!DOCTYPE svg PUBLIC "-//W3C//DTD SVG 1.1//EN" "http://www.w3.org/Graphics/SVG/1.1/DTD/svg11.dtd">
<svg version="1.1" id="Capa_1" xmlns="http://www.w3.org/2000/svg" xmlns:xlink="http://www.w3.org/1999/xlink" x="0px" y="0px"
	 viewBox="0 0 16 12" style="enable-background:new 0 0 16 12;" xml:space="preserve">
<g id="Mail">
	<g>
		<path style="fill-rule:evenodd;clip-rule:evenodd;" d="M14,0H2C0.895,0,0,0.895,0,2v8c0,1.105,0.895,2,2,2h12c1.105,0,2-0.895,2-2
			V2C16,0.895,15.105,0,14,0z M14,9c0,0.552-0.448,1-1,1H3c-0.552,0-1-0.448-1-1V3c0-0.552,0.448-1,1-1h10c0.552,0,1,0.448,1,1V9z
			 M11.5,3.5L8,7L4.5,3.5l-1,1L5,6L3.5,7.5l1,1L6,7l2,1.5L10,7l1.5,1.5l1-1L11,6l1.5-1.5L11.5,3.5z"/>
	</g>
</g>
<g>
</g>
<g>
</g>
<g>
</g>
<g>
</g>
<g>
</g>
<g>
</g>
<g>
</g>
<g>
</g>
<g>
</g>
<g>
</g>
<g>
</g>
<g>
</g>
<g>
</g>
<g>
</g>
<g>
</g>
</svg>
