<?xml version="1.0" encoding="iso-8859-1"?>
<!-- Generator: Adobe Illustrator 18.0.0, SVG Export Plug-In . SVG Version: 6.00 Build 0)  -->
<!DOCTYPE svg PUBLIC "-//W3C//DTD SVG 1.1//EN" "http://www.w3.org/Graphics/SVG/1.1/DTD/svg11.dtd">
<svg version="1.1" id="Capa_1" xmlns="http://www.w3.org/2000/svg" xmlns:xlink="http://www.w3.org/1999/xlink" x="0px" y="0px"
	 viewBox="0 0 21.292 21.98" style="enable-background:new 0 0 21.292 21.98;" xml:space="preserve">
<g>
	<path style="fill-rule:evenodd;clip-rule:evenodd;" d="M21.225,2.162c0,0,0.235-1.107-0.175-1.428l-0.802-0.626
		c-0.409-0.319-1.428,0.175-1.428,0.175l-0.626,0.802l2.405,1.879L21.225,2.162z"/>
	<polygon style="fill-rule:evenodd;clip-rule:evenodd;" points="8.796,13.112 8.746,15.655 11.202,14.991 20.285,3.365 
		19.484,2.738 10.589,14.122 9.686,14.453 9.787,13.496 18.682,2.112 17.88,1.485 	"/>
	<polygon style="fill-rule:evenodd;clip-rule:evenodd;" points="0,21.98 19,21.98 19,6.98 18,7.98 18,20.98 1,20.98 1,3.98 14,3.98 
		15,2.98 0,2.98 	"/>
</g>
<g>
</g>
<g>
</g>
<g>
</g>
<g>
</g>
<g>
</g>
<g>
</g>
<g>
</g>
<g>
</g>
<g>
</g>
<g>
</g>
<g>
</g>
<g>
</g>
<g>
</g>
<g>
</g>
<g>
</g>
</svg>
