<?xml version="1.0" encoding="utf-8"?>
<!-- Generator: Adobe Illustrator 16.0.0, SVG Export Plug-In . SVG Version: 6.00 Build 0)  -->
<!DOCTYPE svg PUBLIC "-//W3C//DTD SVG 1.1//EN" "http://www.w3.org/Graphics/SVG/1.1/DTD/svg11.dtd">
<svg version="1.1" id="Layer_3" xmlns="http://www.w3.org/2000/svg" xmlns:xlink="http://www.w3.org/1999/xlink" x="0px" y="0px"
	 width="100px" height="100px" viewBox="0 0 100 100" enable-background="new 0 0 100 100" xml:space="preserve">
<path d="M72.139,22.874c0.01,0.005,0.019,0.009,0.029,0.013c-0.034-0.021-0.067-0.039-0.101-0.059
	c-0.159-0.103-3.434-2.495-9.504-2.549v-0.001c-0.002,0-0.005,0-0.007,0c-0.007,0-0.012,0-0.019,0v0.002
	c-10.394,0.81-19.485,11.52-31.087,3.137c0,10.161,0,20.323,0,30.484c3.762,2.719,7.259,3.427,10.624,3.119c0-0.001,0-0.002,0-0.003
	c2.367-0.358,6.783-1.756,6.758-1.744c7.707-2.949,15.159-7.836,24.103-1.372c0-10.162,0-20.323,0-30.484
	C72.668,23.225,72.403,23.046,72.139,22.874z M62.563,20.661c4.02-0.053,5.851,0.732,9.235,2.268
	c0.233,0.216,0.468,0.231,0.717,0.478c0,3.98,0,5.971,0,9.952c-3.98-3.959-5.971-4.211-9.951-3.685
	C62.563,26.021,62.563,24.037,62.563,20.661z M62.438,50.223c0-3.995,0-6.831,0-10.826c-4.065,0.577-6.097,1.904-10.162,4.054
	c0,3.995,0,5.992,0,9.986l-2.711,1.242c0,0-4.811,1.771-7.491,2.026c0-3.44,0-5.435,0-9.131c-4.065,0.615-6.098,0.41-10.163-3.608
	c0,3.995,0,5.993,0,9.987c-0.017-0.017-0.025-0.025-0.042-0.042c0.001-6.565,0-13.129,0-19.695
	c4.065,4.043,6.097,4.258,10.162,3.656c0-3.981,0-6.778,0-10.759c4.148-0.614,6.223-1.196,10.371-3.39c0,3.981,0,5.971,0,9.952
	c4.023-2.128,6.034-3.426,10.057-3.99c0,4.065,0,6.097,0,10.162c4.023-0.564,6.034-0.331,10.057,3.67c0,3.814,0,5.72,0,9.533
	C68.819,50.328,66.334,49.886,62.438,50.223z M42.093,37.865c4.064-0.622,6.097-1.959,10.162-4.11c0,4.065,0,6.097,0,10.162
	c-4.064,2.15-6.097,3.489-10.162,4.11C42.093,43.961,42.093,41.93,42.093,37.865z M31.45,17.465c0,1.983-0.991,3.733-2.502,4.789
	v62.785c0,1.843-1.494,3.337-3.337,3.337c-1.843,0-3.337-1.494-3.337-3.337V22.253c-1.511-1.056-2.502-2.805-2.502-4.789
	c0-3.226,2.615-5.84,5.84-5.84C28.835,11.625,31.45,14.239,31.45,17.465z"/>
</svg>
