<?xml version="1.0" encoding="utf-8"?>
<!-- Generator: Adobe Illustrator 16.0.0, SVG Export Plug-In . SVG Version: 6.00 Build 0)  -->
<!DOCTYPE svg PUBLIC "-//W3C//DTD SVG 1.1//EN" "http://www.w3.org/Graphics/SVG/1.1/DTD/svg11.dtd">
<svg version="1.1" id="Layer_2" xmlns="http://www.w3.org/2000/svg" xmlns:xlink="http://www.w3.org/1999/xlink" x="0px" y="0px"
	 width="100px" height="100px" viewBox="0 0 100 100" enable-background="new 0 0 100 100" xml:space="preserve">
<path d="M86.12,55.498H37.268c-1.51-7.658-6.906-13.332-13.352-13.332c-7.614,0-13.786,7.908-13.786,17.666
	s6.172,17.666,13.786,17.666c6.77,0,12.388-6.256,13.554-14.5h29.326c-0.104,0.402-0.177,0.816-0.177,1.25v8.699l3.333-0.006V68.75
	h2.333v4.248h2.542v-5.332h2.333v5.332h1.958V68.75h2.333v4.373l3.917,0.027v-8.902c0-0.434-0.073-0.848-0.177-1.25h0.927
	c2.071,0,3.75-1.678,3.75-3.75C89.87,57.178,88.191,55.498,86.12,55.498z M23.917,69.307c-3.376,0-6.115-4.242-6.115-9.475
	s2.738-9.475,6.115-9.475c3.377,0,6.114,4.242,6.114,9.475S27.294,69.307,23.917,69.307z M54.913,19.112
	c1.332-0.001,2.41,1.078,2.41,2.409v24.041l7.426-7.426c0.941-0.941,2.467-0.941,3.408,0c0.941,0.94,0.941,2.466,0,3.407
	l-11.539,11.54c-0.941,0.94-2.467,0.94-3.408,0l-11.539-11.54c-0.471-0.471-0.705-1.087-0.707-1.704
	c0-0.617,0.236-1.233,0.707-1.703c0.941-0.941,2.467-0.941,3.408,0l7.426,7.426V21.521C52.505,20.19,53.583,19.111,54.913,19.112z"
	/>
</svg>
