<?xml version="1.0" encoding="iso-8859-1"?>
<!-- Generator: Adobe Illustrator 18.0.0, SVG Export Plug-In . SVG Version: 6.00 Build 0)  -->
<!DOCTYPE svg PUBLIC "-//W3C//DTD SVG 1.1//EN" "http://www.w3.org/Graphics/SVG/1.1/DTD/svg11.dtd">
<svg version="1.1" id="Capa_1" xmlns="http://www.w3.org/2000/svg" xmlns:xlink="http://www.w3.org/1999/xlink" x="0px" y="0px"
	 viewBox="0 0 22 21" style="enable-background:new 0 0 22 21;" xml:space="preserve">
<g>
	<path style="fill-rule:evenodd;clip-rule:evenodd;" d="M14.491,16.496C14.458,16.547,14.466,16.535,14.491,16.496L14.491,16.496z"
		/>
	<path style="fill-rule:evenodd;clip-rule:evenodd;" d="M14.491,16.496c0.012-0.019,0.025-0.038,0.051-0.08
		C14.524,16.444,14.506,16.472,14.491,16.496z"/>
	<path style="fill-rule:evenodd;clip-rule:evenodd;" d="M4,3.872L3.999,2H0v18c0,1,1.1,1,1.1,1H21c0,0,1,0,1-1V2h-4v1.871
		C18,4.499,17.328,5,16.499,5h-0.998C14.669,5,14,4.495,14,3.872V2H8v1.871C8,4.499,7.328,5,6.499,5H5.501C4.669,5,4,4.495,4,3.872z
		 M9,18H8.025v-5.978H6v-0.677c0.737-0.062,1.251-0.166,1.542-0.312c0.291-0.146,0.509-0.49,0.652-1.033H9V18z M15.56,16.51
		C15.135,17.503,14.44,18,13.475,18c-0.87,0-1.518-0.406-1.943-1.218C11.177,16.104,11,15.194,11,14.052
		c0-0.885,0.106-1.644,0.319-2.279C11.717,10.591,12.437,10,13.48,10c0.938,0,1.616,0.415,2.034,1.245
		C15.838,11.887,16,12.766,16,13.883C16,14.942,15.853,15.817,15.56,16.51z M20,6v1H2V6H20z"/>
	<path style="fill-rule:evenodd;clip-rule:evenodd;" d="M13.532,11c-0.531,0-0.919,0.261-1.164,0.783
		C12.123,12.306,12,13.075,12,14.092c0,0.765,0.078,1.38,0.235,1.845C12.476,16.645,12.886,17,13.467,17
		c0.467,0,0.84-0.217,1.117-0.65C14.861,15.917,15,15.11,15,13.929c0-0.852-0.1-1.554-0.301-2.104C14.499,11.275,14.11,11,13.532,11
		z"/>
	<path style="fill-rule:evenodd;clip-rule:evenodd;" d="M17,3.001V0.999C17,0.447,16.551,0,16,0c-0.552,0-1,0.447-1,0.999v2.002
		C15,3.553,15.449,4,16,4C16.552,4,17,3.553,17,3.001z"/>
	<path style="fill-rule:evenodd;clip-rule:evenodd;" d="M6.25,4C6.664,4,7,3.666,7,3.248V0.752C7,0.337,6.665,0,6.25,0H5.75
		C5.336,0,5,0.334,5,0.752v2.495C5,3.663,5.335,4,5.75,4H6.25z"/>
</g>
<g>
</g>
<g>
</g>
<g>
</g>
<g>
</g>
<g>
</g>
<g>
</g>
<g>
</g>
<g>
</g>
<g>
</g>
<g>
</g>
<g>
</g>
<g>
</g>
<g>
</g>
<g>
</g>
<g>
</g>
</svg>
