<?xml version="1.0" encoding="iso-8859-1"?>
<!-- Generator: Adobe Illustrator 18.0.0, SVG Export Plug-In . SVG Version: 6.00 Build 0)  -->
<!DOCTYPE svg PUBLIC "-//W3C//DTD SVG 1.1//EN" "http://www.w3.org/Graphics/SVG/1.1/DTD/svg11.dtd">
<svg version="1.1" id="Capa_1" xmlns="http://www.w3.org/2000/svg" xmlns:xlink="http://www.w3.org/1999/xlink" x="0px" y="0px"
	 viewBox="0 0 24 22" style="enable-background:new 0 0 24 22;" xml:space="preserve">
<g>
	<polygon style="fill-rule:evenodd;clip-rule:evenodd;" points="12.5,4.032 12.5,11.35 17.711,14.421 18.218,13.56 13.5,10.754 
		13.5,4.032 	"/>
	<path style="fill-rule:evenodd;clip-rule:evenodd;" d="M4.341,16.005H3.202C5.023,19.564,8.727,22,13,22c6.075,0,11-4.925,11-11
		c0-6.075-4.925-11-11-11C7.608,0,3.122,3.88,2.181,9H0l2.5,3L5,9H3.2C4.127,4.436,8.162,1,13,1c5.523,0,10,4.477,10,10
		s-4.477,10-10,10C9.301,21,6.07,18.991,4.341,16.005z"/>
</g>
<g>
</g>
<g>
</g>
<g>
</g>
<g>
</g>
<g>
</g>
<g>
</g>
<g>
</g>
<g>
</g>
<g>
</g>
<g>
</g>
<g>
</g>
<g>
</g>
<g>
</g>
<g>
</g>
<g>
</g>
</svg>
