<?xml version="1.0" encoding="utf-8"?>
<!-- Generator: Adobe Illustrator 16.0.0, SVG Export Plug-In . SVG Version: 6.00 Build 0)  -->
<!DOCTYPE svg PUBLIC "-//W3C//DTD SVG 1.1//EN" "http://www.w3.org/Graphics/SVG/1.1/DTD/svg11.dtd">
<svg version="1.1" id="Layer_2" xmlns="http://www.w3.org/2000/svg" xmlns:xlink="http://www.w3.org/1999/xlink" x="0px" y="0px"
	 width="100px" height="100px" viewBox="0 0 100 100" enable-background="new 0 0 100 100" xml:space="preserve">
<path d="M29.184,84.982c-1.097,0-2.146-0.342-3.034-0.988c-1.812-1.318-2.565-3.635-1.874-5.766l6.795-20.909L13.285,44.398
	c-1.814-1.32-2.565-3.638-1.874-5.767c0.693-2.134,2.665-3.566,4.906-3.566h21.983l6.793-20.907
	c0.694-2.132,2.666-3.564,4.906-3.564c2.242,0,4.214,1.433,4.906,3.564L61.7,35.065h21.982c2.241,0,4.213,1.433,4.905,3.564
	c0.693,2.131-0.061,4.448-1.871,5.767L68.93,57.319l6.793,20.908c0.692,2.132-0.061,4.448-1.872,5.767
	c-1.774,1.29-4.294,1.29-6.067,0L50,71.074L32.215,83.996C31.328,84.641,30.28,84.982,29.184,84.982z M16.317,39.487
	c-0.32,0-0.603,0.205-0.701,0.51c-0.099,0.304,0.009,0.636,0.268,0.824L36.268,55.63l-7.786,23.965
	c-0.098,0.304,0.009,0.636,0.269,0.824c0.32,0.233,0.546,0.233,0.865,0L50,65.607l20.383,14.811
	c0.319,0.233,0.549,0.232,0.867,0.001c0.259-0.188,0.368-0.521,0.268-0.826L63.731,55.63l20.385-14.81
	c0.259-0.188,0.366-0.52,0.268-0.824c-0.1-0.304-0.382-0.509-0.701-0.509H58.487l-7.786-23.962c-0.198-0.61-1.204-0.61-1.403,0
	l-7.785,23.962H16.317z"/>
</svg>
