<?xml version="1.0" encoding="utf-8"?>
<!-- Generator: Adobe Illustrator 16.0.0, SVG Export Plug-In . SVG Version: 6.00 Build 0)  -->
<!DOCTYPE svg PUBLIC "-//W3C//DTD SVG 1.1//EN" "http://www.w3.org/Graphics/SVG/1.1/DTD/svg11.dtd">
<svg version="1.1" id="Layer_2" xmlns="http://www.w3.org/2000/svg" xmlns:xlink="http://www.w3.org/1999/xlink" x="0px" y="0px"
	 width="100px" height="100px" viewBox="0 0 100 100" enable-background="new 0 0 100 100" xml:space="preserve">
<path d="M71.138,15.688c0.828,0,1.5,0.672,1.5,1.5v65.625c0,0.828-0.672,1.5-1.5,1.5s-1.5-0.672-1.5-1.5V17.188
	C69.638,16.359,70.31,15.688,71.138,15.688z M65.971,22.251c0-0.828-0.672-1.5-1.5-1.5H28.862c-0.828,0-1.5,0.672-1.5,1.5
	s0.672,1.5,1.5,1.5h35.609C65.299,23.751,65.971,23.079,65.971,22.251z M65.971,32.251c0-0.828-0.672-1.5-1.5-1.5H34.862
	c-0.828,0-1.5,0.672-1.5,1.5s0.672,1.5,1.5,1.5h29.609C65.299,33.751,65.971,33.079,65.971,32.251z M27.362,52.25
	c0,0.828,0.672,1.5,1.5,1.5h35.609c0.828,0,1.5-0.672,1.5-1.5s-0.672-1.5-1.5-1.5H28.862C28.034,50.75,27.362,51.422,27.362,52.25z
	 M33.362,62.25c0,0.828,0.672,1.5,1.5,1.5h29.609c0.828,0,1.5-0.672,1.5-1.5s-0.672-1.5-1.5-1.5H34.862
	C34.034,60.75,33.362,61.422,33.362,62.25z M33.362,72.334c0,0.828,0.672,1.5,1.5,1.5h29.609c0.828,0,1.5-0.672,1.5-1.5
	s-0.672-1.5-1.5-1.5H34.862C34.034,70.834,33.362,71.506,33.362,72.334z M65.971,42.251c0-0.828-0.672-1.5-1.5-1.5H38.112
	c-0.828,0-1.5,0.672-1.5,1.5s0.672,1.5,1.5,1.5h26.359C65.299,43.751,65.971,43.079,65.971,42.251z"/>
</svg>
