<?xml version="1.0" encoding="iso-8859-1"?>
<!-- Generator: Adobe Illustrator 18.0.0, SVG Export Plug-In . SVG Version: 6.00 Build 0)  -->
<!DOCTYPE svg PUBLIC "-//W3C//DTD SVG 1.1//EN" "http://www.w3.org/Graphics/SVG/1.1/DTD/svg11.dtd">
<svg version="1.1" id="Capa_1" xmlns="http://www.w3.org/2000/svg" xmlns:xlink="http://www.w3.org/1999/xlink" x="0px" y="0px"
	 viewBox="0 0 9.299 22" style="enable-background:new 0 0 9.299 22;" xml:space="preserve">
<path style="fill-rule:evenodd;clip-rule:evenodd;" d="M9.158,6.5C9.664,2.457,8.651,0,8.651,0H4.648h-4c0,0-1.012,2.457-0.506,6.5
	c0.5,3.991,3.557,4.488,3.775,7.385V20c0,0,0,0.476-0.411,0.654c-0.411,0.178-2.824,0.371-2.824,0.861S2.723,22,4.632,22
	c1.909,0,3.95,0.005,3.95-0.485s-2.413-0.683-2.824-0.861C5.348,20.476,5.348,20,5.348,20l0.027-6C5.52,11,8.651,10.543,9.158,6.5z
	 M4.699,12.532c-0.248-0.684-0.667-1.311-1.288-2.04c-0.107-0.125-0.51-0.588-0.602-0.695C1.817,8.637,1.356,7.763,1.182,6.376
	C0.939,4.432,1.038,2.738,1.348,1.34C1.368,1.252,1.474,1,1.474,1h3.147h0.102h3.147c0,0,0.106,0.252,0.126,0.34
	c0.31,1.398,0.41,3.092,0.166,5.036C7.987,7.763,7.526,8.637,6.534,9.797c-0.092,0.108-0.496,0.57-0.602,0.695
	C5.311,11.221,4.891,11.849,4.699,12.532z"/>
<g>
</g>
<g>
</g>
<g>
</g>
<g>
</g>
<g>
</g>
<g>
</g>
<g>
</g>
<g>
</g>
<g>
</g>
<g>
</g>
<g>
</g>
<g>
</g>
<g>
</g>
<g>
</g>
<g>
</g>
</svg>
