<?xml version="1.0" encoding="iso-8859-1"?>
<!-- Generator: Adobe Illustrator 18.0.0, SVG Export Plug-In . SVG Version: 6.00 Build 0)  -->
<!DOCTYPE svg PUBLIC "-//W3C//DTD SVG 1.1//EN" "http://www.w3.org/Graphics/SVG/1.1/DTD/svg11.dtd">
<svg version="1.1" id="Capa_1" xmlns="http://www.w3.org/2000/svg" xmlns:xlink="http://www.w3.org/1999/xlink" x="0px" y="0px"
	 viewBox="0 90 612 612" style="enable-background:new 0 90 612 612;" xml:space="preserve">
<g>
	<path d="M139.091,396c0-38.417-31.129-69.545-69.545-69.545S0,357.583,0,396s31.129,69.545,69.545,69.545
		S139.091,434.417,139.091,396z M27.818,396c0-23.033,18.694-41.727,41.727-41.727s41.727,18.694,41.727,41.727
		c0,23.033-18.694,41.727-41.727,41.727S27.818,419.033,27.818,396z"/>
	<path d="M612,396c0-38.417-31.129-69.545-69.545-69.545S472.909,357.583,472.909,396s31.129,69.545,69.545,69.545
		S612,434.417,612,396z M500.727,396c0-23.033,18.694-41.727,41.727-41.727c23.033,0,41.727,18.694,41.727,41.727
		c0,23.033-18.694,41.727-41.727,41.727C519.421,437.727,500.727,419.033,500.727,396z"/>
	<path d="M375.545,396c0-38.417-31.129-69.545-69.545-69.545S236.455,357.583,236.455,396s31.129,69.545,69.545,69.545
		S375.545,434.417,375.545,396z M264.273,396c0-23.033,18.694-41.727,41.727-41.727s41.727,18.694,41.727,41.727
		c0,23.033-18.694,41.727-41.727,41.727S264.273,419.033,264.273,396z"/>
</g>
</svg>
