<?xml version="1.0" encoding="iso-8859-1"?>
<!-- Generator: Adobe Illustrator 18.0.0, SVG Export Plug-In . SVG Version: 6.00 Build 0)  -->
<!DOCTYPE svg PUBLIC "-//W3C//DTD SVG 1.1//EN" "http://www.w3.org/Graphics/SVG/1.1/DTD/svg11.dtd">
<svg version="1.1" id="Capa_1" xmlns="http://www.w3.org/2000/svg" xmlns:xlink="http://www.w3.org/1999/xlink" x="0px" y="0px"
	 viewBox="0 0 21.241 21.949" style="enable-background:new 0 0 21.241 21.949;" xml:space="preserve">
<g>
	<polygon style="fill-rule:evenodd;clip-rule:evenodd;" points="9,5 8,5 8,8 5,8 5,9 8,9 8,12 9,12 9,9 12,9 12,8 9,8 	"/>
	<path style="fill-rule:evenodd;clip-rule:evenodd;" d="M8.5,0C3.806,0,0,3.806,0,8.5C0,13.194,3.806,17,8.5,17
		c1.805,0,3.479-0.563,4.855-1.522l6.427,6.427c0.058,0.058,0.153,0.058,0.207,0.004l1.211-1.211
		c0.056-0.056,0.052-0.152-0.004-0.207l-6.344-6.344C16.189,12.646,17,10.668,17,8.5C17,3.806,13.194,0,8.5,0z M8.5,16
		C4.358,16,1,12.642,1,8.5C1,4.358,4.358,1,8.5,1C12.642,1,16,4.358,16,8.5C16,12.642,12.642,16,8.5,16z"/>
</g>
<g>
</g>
<g>
</g>
<g>
</g>
<g>
</g>
<g>
</g>
<g>
</g>
<g>
</g>
<g>
</g>
<g>
</g>
<g>
</g>
<g>
</g>
<g>
</g>
<g>
</g>
<g>
</g>
<g>
</g>
</svg>
