<?xml version="1.0" encoding="utf-8"?>
<!-- Generator: Adobe Illustrator 16.0.0, SVG Export Plug-In . SVG Version: 6.00 Build 0)  -->
<!DOCTYPE svg PUBLIC "-//W3C//DTD SVG 1.1//EN" "http://www.w3.org/Graphics/SVG/1.1/DTD/svg11.dtd">
<svg version="1.1" id="Layer_2" xmlns="http://www.w3.org/2000/svg" xmlns:xlink="http://www.w3.org/1999/xlink" x="0px" y="0px"
	 width="100px" height="100px" viewBox="0 0 100 100" enable-background="new 0 0 100 100" xml:space="preserve">
<path d="M89.663,53.373v27.588c0,4.771-3.883,8.652-8.655,8.652h-62.01c-4.773,0-8.656-3.881-8.656-8.652V19.018
	c0-4.771,3.883-8.653,8.656-8.653H46.66c-1.489,1.528-2.479,3.544-2.696,5.784H18.997c-1.583,0-2.871,1.287-2.871,2.869v61.943
	c0,1.581,1.288,2.868,2.871,2.868h62.01c1.583,0,2.871-1.287,2.871-2.868V56.065C86.055,55.856,88.075,54.919,89.663,53.373z
	 M56.048,18.448h18.91L44.349,49.058c-1.694,1.694-1.694,4.441,0,6.135c1.694,1.694,4.441,1.694,6.135,0.001l30.609-30.61v18.911
	c0,2.396,1.942,4.338,4.338,4.338c1.198,0,2.283-0.484,3.068-1.27c0.785-0.787,1.271-1.87,1.271-3.068V14.109
	c0-2.396-1.942-4.338-4.338-4.338H56.048c-2.396,0-4.338,1.942-4.338,4.339C51.709,16.506,53.652,18.448,56.048,18.448z"/>
</svg>
