<?xml version="1.0" encoding="utf-8"?>
<!-- Generator: Adobe Illustrator 16.0.0, SVG Export Plug-In . SVG Version: 6.00 Build 0)  -->
<!DOCTYPE svg PUBLIC "-//W3C//DTD SVG 1.1//EN" "http://www.w3.org/Graphics/SVG/1.1/DTD/svg11.dtd">
<svg version="1.1" id="Layer_3" xmlns="http://www.w3.org/2000/svg" xmlns:xlink="http://www.w3.org/1999/xlink" x="0px" y="0px"
	 width="100px" height="100px" viewBox="0 0 100 100" enable-background="new 0 0 100 100" xml:space="preserve">
<path d="M84.343,83.232c-0.005,0.001-0.013,0-0.02,0H15.657c-1.25,0-2.406-0.667-3.031-1.75s-0.625-2.417,0-3.5l34.333-59.466
	c0.625-1.083,1.781-1.75,3.031-1.75s2.406,0.667,3.031,1.75l34.163,59.171c0.414,0.575,0.658,1.281,0.658,2.045
	C87.843,81.665,86.276,83.232,84.343,83.232z M21.72,76.232h56.541L49.99,27.267L21.72,76.232z M62.105,70.712
	c-0.295,0.63-0.848,1.025-1.473,1.171c0.291,0.572,0.36,1.25,0.074,1.88c-0.495,1.092-1.785,1.571-2.87,1.076
	c-1.097-0.498-1.578-1.785-1.076-2.875c0.016-0.049,0.061-0.072,0.083-0.118l-7.116-3.198l-7.207,2.998
	c0.023,0.046,0.063,0.07,0.079,0.116c0.469,1.104-0.044,2.38-1.155,2.849c-1.104,0.46-2.375-0.056-2.84-1.162
	c-0.27-0.642-0.179-1.313,0.128-1.876c-0.618-0.165-1.165-0.581-1.438-1.215c-0.46-1.106,0.051-2.382,1.16-2.842
	c1.104-0.467,2.375,0.048,2.842,1.152c0.017,0.049,0.012,0.095,0.028,0.14l4.55-1.892l-4.495-2.019
	c-0.019,0.044-0.012,0.093-0.035,0.139c-0.495,1.09-1.785,1.571-2.875,1.076c-1.087-0.498-1.564-1.785-1.069-2.877
	c0.288-0.63,0.846-1.021,1.469-1.176c-0.295-0.569-0.365-1.248-0.077-1.877c0.497-1.092,1.785-1.569,2.877-1.076
	c1.092,0.498,1.571,1.785,1.069,2.877c-0.016,0.046-0.061,0.072-0.077,0.111l7.116,3.205l7.202-2.996
	c-0.023-0.049-0.063-0.072-0.084-0.121c-0.464-1.111,0.051-2.38,1.16-2.845c1.099-0.467,2.37,0.047,2.837,1.157
	c0.27,0.637,0.179,1.315-0.133,1.878c0.623,0.165,1.171,0.572,1.443,1.218c0.46,1.102-0.051,2.37-1.16,2.837
	c-1.104,0.467-2.375-0.049-2.842-1.15c-0.021-0.046-0.011-0.098-0.028-0.142l-4.548,1.889l4.492,2.022
	c0.019-0.044,0.014-0.093,0.035-0.14c0.502-1.089,1.785-1.571,2.873-1.073C62.122,68.333,62.603,69.616,62.105,70.712z
	 M57.05,51.921c0.563,0.514,0.918,1.228,0.918,2.02c0,1.312-0.972,2.368-2.264,2.692v0.985c0,1.698-1.39,3.092-3.091,3.092h-5.731
	c-1.701,0-3.091-1.394-3.091-3.092v-0.981c-1.299-0.324-2.275-1.38-2.275-2.697c0-0.797,0.357-1.511,0.927-2.024
	c-0.886-1.278-1.411-2.794-1.411-4.429c0-4.497,3.902-8.148,8.714-8.148c4.811,0,8.717,3.651,8.717,8.148
	C58.466,49.124,57.938,50.64,57.05,51.921z M48.313,48.079c0-1.287-1.081-2.329-2.41-2.329c-1.325,0-2.412,1.042-2.412,2.329
	c0,1.288,1.087,2.33,2.412,2.33C47.232,50.407,48.313,49.367,48.313,48.079z M52.266,54.934l-2.338-3.956l-2.426,4.033l2.403-1.166
	L52.266,54.934z M56.002,48.079c0-1.287-1.083-2.329-2.407-2.329c-1.33,0-2.408,1.042-2.408,2.329c0,1.288,1.078,2.33,2.408,2.33
	C54.922,50.407,56.002,49.367,56.002,48.079z"/>
</svg>
