<?xml version="1.0" encoding="utf-8"?>
<!-- Generator: Adobe Illustrator 16.0.0, SVG Export Plug-In . SVG Version: 6.00 Build 0)  -->
<!DOCTYPE svg PUBLIC "-//W3C//DTD SVG 1.1//EN" "http://www.w3.org/Graphics/SVG/1.1/DTD/svg11.dtd">
<svg version="1.1" id="Layer_3" xmlns="http://www.w3.org/2000/svg" xmlns:xlink="http://www.w3.org/1999/xlink" x="0px" y="0px"
	 width="100px" height="100px" viewBox="0 0 100 100" enable-background="new 0 0 100 100" xml:space="preserve">
<path d="M23.984,63.013h51.293c4.375,0,7.934-2.31,7.934-6.684c0-2.96-1.652-5.629-4.223-6.987
	C75.845,37.289,64.77,28.657,52.223,28.653v-0.567h-0.637v-2.373h0.637v-1.581h-5.185v1.581h0.637v2.373h-0.637v0.567
	c-12.547,0.004-23.621,8.636-26.763,20.688c-2.571,1.357-4.225,4.027-4.225,6.987C16.051,60.703,19.609,63.013,23.984,63.013z
	 M22.877,53.029l1.192-0.401l0.267-1.23c2.294-10.613,11.847-18.317,22.712-18.317h5.167c10.865,0,20.418,7.704,22.713,18.317
	l0.266,1.23l1.192,0.401c1.435,0.482,2.397,1.808,2.397,3.3c0,1.933-1.572,2.255-3.506,2.255H23.984
	c-1.933,0-3.506-0.322-3.506-2.255C20.479,54.837,21.441,53.511,22.877,53.029z M85,70.782v6.086H15v-6.086h4.188v-3.043h61.625
	v3.043H85z"/>
</svg>
