<?xml version="1.0" encoding="utf-8"?>
<!-- Generator: Adobe Illustrator 16.0.0, SVG Export Plug-In . SVG Version: 6.00 Build 0)  -->
<!DOCTYPE svg PUBLIC "-//W3C//DTD SVG 1.1//EN" "http://www.w3.org/Graphics/SVG/1.1/DTD/svg11.dtd">
<svg version="1.1" id="Layer_2" xmlns="http://www.w3.org/2000/svg" xmlns:xlink="http://www.w3.org/1999/xlink" x="0px" y="0px"
	 width="100px" height="100px" viewBox="0 0 100 100" enable-background="new 0 0 100 100" xml:space="preserve">
<path d="M92.658,74.807c0.002-0.032,0.009-0.062,0.009-0.094V31.589c0-0.02-0.004-0.039-0.004-0.059
	c-0.002-0.061-0.009-0.121-0.018-0.182c-0.006-0.051-0.012-0.102-0.023-0.151c-0.012-0.054-0.028-0.105-0.045-0.158
	c-0.015-0.051-0.031-0.103-0.051-0.151c-0.021-0.049-0.045-0.095-0.069-0.142c-0.024-0.046-0.048-0.092-0.076-0.135
	c-0.03-0.045-0.063-0.088-0.096-0.13c-0.031-0.038-0.059-0.076-0.092-0.111c-0.037-0.039-0.077-0.073-0.118-0.108
	c-0.037-0.033-0.074-0.064-0.115-0.093c-0.04-0.028-0.082-0.052-0.126-0.076c-0.047-0.026-0.094-0.052-0.143-0.073
	c-0.018-0.007-0.033-0.019-0.051-0.025c-2.957-1.109-29.136-10.649-37.274-4.127c-1.226,0.981-2.018,2.3-2.368,3.86
	c-0.226-0.074-0.458-0.126-0.707-0.126c-0.248,0-0.48,0.052-0.705,0.126c-0.35-1.56-1.144-2.878-2.368-3.86
	c-8.136-6.522-34.316,3.018-37.274,4.127c-0.018,0.006-0.033,0.018-0.051,0.025c-0.049,0.021-0.096,0.047-0.143,0.073
	c-0.044,0.024-0.086,0.048-0.126,0.076c-0.041,0.028-0.078,0.061-0.115,0.092c-0.041,0.035-0.081,0.069-0.118,0.108
	c-0.032,0.035-0.062,0.073-0.092,0.111c-0.034,0.042-0.066,0.085-0.096,0.131c-0.028,0.042-0.051,0.088-0.076,0.134
	c-0.024,0.047-0.048,0.093-0.069,0.143c-0.021,0.048-0.035,0.1-0.051,0.151c-0.018,0.052-0.033,0.104-0.045,0.158
	c-0.011,0.049-0.017,0.1-0.023,0.151c-0.009,0.061-0.014,0.121-0.017,0.182c-0.001,0.02-0.005,0.039-0.005,0.059v43.124
	c0,0.032,0.007,0.063,0.009,0.094c0.003,0.059,0.006,0.118,0.015,0.177c0.009,0.058,0.021,0.114,0.035,0.171
	c0.008,0.031,0.01,0.062,0.02,0.093c0.006,0.02,0.016,0.036,0.022,0.054c0.019,0.058,0.044,0.113,0.068,0.168
	c0.021,0.044,0.041,0.089,0.065,0.131c0.028,0.049,0.059,0.095,0.091,0.141c0.028,0.041,0.056,0.081,0.087,0.118
	c0.035,0.042,0.073,0.079,0.113,0.117c0.034,0.032,0.066,0.065,0.102,0.094c0.044,0.035,0.089,0.063,0.135,0.093
	c0.038,0.024,0.076,0.049,0.115,0.069c0.047,0.024,0.095,0.042,0.144,0.062c0.045,0.017,0.091,0.034,0.137,0.047
	c0.045,0.012,0.09,0.019,0.136,0.027c0.055,0.009,0.109,0.016,0.166,0.019c0.017,0,0.034,0.005,0.051,0.005h37.863h4.008h37.861
	c0.001,0,0.002,0,0.002,0c0.003,0,0.007-0.001,0.009-0.001c0.141-0.001,0.275-0.03,0.403-0.07c0.029-0.01,0.058-0.019,0.087-0.03
	c0.129-0.05,0.252-0.116,0.361-0.201c0.014-0.01,0.024-0.023,0.037-0.034c0.101-0.084,0.191-0.183,0.271-0.292
	c0.018-0.023,0.035-0.044,0.05-0.068c0.082-0.125,0.146-0.264,0.195-0.412c0.004-0.013,0.013-0.023,0.017-0.036
	c0.008-0.03,0.011-0.062,0.019-0.093c0.014-0.057,0.027-0.113,0.036-0.172C92.651,74.924,92.654,74.866,92.658,74.807z
	 M54.804,31.589c0-1.317,0.42-2.268,1.321-2.99c5.591-4.483,25.186,1.208,33.526,4.208v39.594
	c-6.969-2.441-28.119-9.153-35.286-3.409c-0.207,0.165-0.381,0.354-0.561,0.536V33.165C54.386,32.932,54.804,32.317,54.804,31.589z
	 M46.458,28.599c0.901,0.722,1.321,1.673,1.321,2.99c0,0.729,0.418,1.343,0.998,1.576v36.363c-0.182-0.183-0.354-0.372-0.56-0.536
	c-7.165-5.744-28.317,0.968-35.286,3.409V32.807C21.272,29.807,40.865,24.116,46.458,28.599z"/>
</svg>
