<?xml version="1.0" encoding="utf-8"?>
<!-- Generator: Adobe Illustrator 16.0.0, SVG Export Plug-In . SVG Version: 6.00 Build 0)  -->
<!DOCTYPE svg PUBLIC "-//W3C//DTD SVG 1.1//EN" "http://www.w3.org/Graphics/SVG/1.1/DTD/svg11.dtd">
<svg version="1.1" id="Layer_2" xmlns="http://www.w3.org/2000/svg" xmlns:xlink="http://www.w3.org/1999/xlink" x="0px" y="0px"
	 width="100px" height="100px" viewBox="0 0 100 100" enable-background="new 0 0 100 100" xml:space="preserve">
<path d="M30.472,23.014v-3.545c0-0.956-0.775-1.731-1.731-1.731c-0.956,0-1.73,0.775-1.73,1.731v35.159
	c0,0.14,0.021,0.275,0.052,0.405c-0.002,2.883-0.003,5.768-0.004,8.513h-1.229c-2.6,0-4.727,2.041-4.878,4.604
	c0.002,0.157,0.004,0.275,0.006,0.352c0.001,0.047-0.007,0.091-0.01,0.137c0.105,2.605,2.252,4.693,4.882,4.693h1.232
	c0.001,1.298,0.003,2.465,0.005,3.462h-1.499c-0.09,0-0.176-0.013-0.264-0.026c-4.362-0.273-7.83-3.898-7.83-8.328
	c0-0.101,0.012-0.199,0.015-0.299c-0.053-5.141,0-44.236,0.006-48.491c-0.007-0.06-0.019-0.119-0.019-0.18
	c0-4.607,3.748-8.355,8.355-8.355h2.766h41.973h0.423c0.956,0,1.731,0.775,1.731,1.731v6.636h-33.84
	C35.595,19.48,32.616,20.836,30.472,23.014z M34.437,80.242c0.002,0.157,0.004,0.275,0.006,0.352c0,0.047-0.008,0.091-0.01,0.138
	c0.105,2.604,2.252,4.693,4.883,4.693H82.75V80.64c0-0.956,0.775-1.731,1.731-1.731c0.956,0,1.731,0.775,1.731,1.731v6.516
	c0,0.956-0.775,1.731-1.731,1.731H39.054c-0.091,0-0.177-0.013-0.264-0.027c-4.362-0.273-7.83-3.898-7.83-8.328
	c0-0.101,0.012-0.199,0.015-0.299c-0.053-5.141,0-44.236,0.006-48.491c-0.007-0.061-0.019-0.119-0.019-0.181
	c0-4.606,3.748-8.354,8.355-8.354h2.766h41.973h0.424c0.956,0,1.731,0.775,1.731,1.731v48.923c0,0.956-0.775,1.731-1.731,1.731
	c-0.01,0-0.02-0.003-0.03-0.003c-0.127,0.03-0.259,0.05-0.396,0.05H39.315C36.715,75.639,34.588,77.679,34.437,80.242z
	 M40.496,66.72c0,0.956,0.775,1.731,1.731,1.731c0.956,0,1.731-0.775,1.731-1.731V31.561c0-0.956-0.775-1.731-1.731-1.731
	c-0.956,0-1.731,0.775-1.731,1.731V66.72z"/>
</svg>
