<?xml version="1.0" encoding="iso-8859-1"?>
<!-- Generator: Adobe Illustrator 18.0.0, SVG Export Plug-In . SVG Version: 6.00 Build 0)  -->
<!DOCTYPE svg PUBLIC "-//W3C//DTD SVG 1.1//EN" "http://www.w3.org/Graphics/SVG/1.1/DTD/svg11.dtd">
<svg version="1.1" id="Capa_1" xmlns="http://www.w3.org/2000/svg" xmlns:xlink="http://www.w3.org/1999/xlink" x="0px" y="0px"
	 viewBox="0 0 22 19" style="enable-background:new 0 0 22 19;" xml:space="preserve">
<path style="fill-rule:evenodd;clip-rule:evenodd;" d="M8.922,16.979c1.258,0,1.696,2.021,1.696,2.021H11h0.382
	c0,0,0.438-2.021,1.696-2.021c1.258,0,8.042,0,8.042,0c0.486,0,0.88-0.396,0.88-0.884V2c0-2-2-2-2-2h-7.707
	C11.646,0,11,0.817,11,1.23v0.003C11,0.819,10.367,0,9.733,0H2c0,0-2,0-2,2v14.095c0,0.488,0.394,0.884,0.879,0.884
	C0.879,16.979,7.664,16.979,8.922,16.979z M11.5,1.677C11.5,1.303,11.799,1,12.162,1h8.358c0.245,0,0.444,0.202,0.445,0.451
	L21,15.611c0.001,0.249-0.199,0.451-0.439,0.451c0,0-6.727,0-7.566,0C12.154,16.062,11.5,17,11.5,17V1.677z M1.035,1.451
	C1.036,1.202,1.235,1,1.48,1h8.358C10.201,1,10.5,1.303,10.5,1.677V17c0,0-0.655-0.938-1.494-0.938c-0.84,0-7.566,0-7.566,0
	c-0.24,0-0.44-0.202-0.439-0.451L1.035,1.451z"/>
<g>
</g>
<g>
</g>
<g>
</g>
<g>
</g>
<g>
</g>
<g>
</g>
<g>
</g>
<g>
</g>
<g>
</g>
<g>
</g>
<g>
</g>
<g>
</g>
<g>
</g>
<g>
</g>
<g>
</g>
</svg>
