<?xml version="1.0" encoding="utf-8"?>
<!-- Generator: Adobe Illustrator 16.0.0, SVG Export Plug-In . SVG Version: 6.00 Build 0)  -->
<!DOCTYPE svg PUBLIC "-//W3C//DTD SVG 1.1//EN" "http://www.w3.org/Graphics/SVG/1.1/DTD/svg11.dtd">
<svg version="1.1" id="Layer_2" xmlns="http://www.w3.org/2000/svg" xmlns:xlink="http://www.w3.org/1999/xlink" x="0px" y="0px"
	 width="100px" height="100px" viewBox="0 0 100 100" enable-background="new 0 0 100 100" xml:space="preserve">
<path d="M34.917,72.638V12.057h46.332h0.489c1.104,0,2,0.896,2,2v56.527c0,1.104-0.896,2-2,2c-0.012,0-0.022-0.003-0.034-0.003
	c-0.147,0.035-0.3,0.058-0.458,0.058H34.917z M81.738,87.945c1.104,0,2-0.896,2-2v-7.528c0-1.104-0.896-2-2-2s-2,0.896-2,2v5.528
	H34.917v4H81.738z M29.553,83.945c-3.039,0-5.52-2.413-5.642-5.422c0.003-0.053,0.013-0.104,0.012-0.159
	c-0.002-0.088-0.005-0.225-0.007-0.407c0.175-2.961,2.633-5.319,5.637-5.319h1.364V12.057h-1.361c-5.323,0-9.653,4.331-9.653,9.653
	c0,0.071,0.014,0.139,0.021,0.208c-0.007,4.916-0.068,50.088-0.007,56.027c-0.004,0.116-0.018,0.229-0.018,0.346
	c0,5.118,4.007,9.307,9.047,9.623c0.101,0.016,0.2,0.031,0.305,0.031h1.666v-4H29.553z"/>
</svg>
