<?xml version="1.0" encoding="iso-8859-1"?>
<!-- Generator: Adobe Illustrator 18.0.0, SVG Export Plug-In . SVG Version: 6.00 Build 0)  -->
<!DOCTYPE svg PUBLIC "-//W3C//DTD SVG 1.1//EN" "http://www.w3.org/Graphics/SVG/1.1/DTD/svg11.dtd">
<svg version="1.1" id="Capa_1" xmlns="http://www.w3.org/2000/svg" xmlns:xlink="http://www.w3.org/1999/xlink" x="0px" y="0px"
	 viewBox="0 0 22 19" style="enable-background:new 0 0 22 19;" xml:space="preserve">
<path style="fill-rule:evenodd;clip-rule:evenodd;" d="M8.922,16.979c1.258,0,1.696,2.021,1.696,2.021H11h0.382
	c0,0,0.438-2.021,1.696-2.021s8.042,0,8.042,0c0.486,0,0.88-0.396,0.88-0.884V2c0-2-2-2-2-2h-7.707C11.647,0,11,0.817,11,1.23v0.003
	C11,0.819,10.367,0,9.733,0H2c0,0-2,0-2,2v14.095c0,0.488,0.394,0.884,0.88,0.884C0.88,16.979,7.664,16.979,8.922,16.979z
	 M11.986,2.549c0-0.327,0.267-0.593,0.592-0.593L19.57,2c0.219,0,0.477,0.103,0.478,0.321v12.295
	c0.001,0.218-0.258,0.468-0.473,0.468c0,0-5.533-0.044-6.284-0.044s-1.305,0.917-1.305,0.917V2.549z M1.986,2.321
	C1.986,2.103,2.245,2,2.464,2l6.992-0.044c0.325,0,0.592,0.265,0.592,0.593v13.407c0,0-0.554-0.917-1.305-0.917
	c-0.751,0-6.284,0.044-6.284,0.044c-0.215,0-0.473-0.25-0.473-0.468V2.321z"/>
<g>
</g>
<g>
</g>
<g>
</g>
<g>
</g>
<g>
</g>
<g>
</g>
<g>
</g>
<g>
</g>
<g>
</g>
<g>
</g>
<g>
</g>
<g>
</g>
<g>
</g>
<g>
</g>
<g>
</g>
</svg>
