<?xml version="1.0" encoding="utf-8"?>
<!-- Generator: Adobe Illustrator 16.0.0, SVG Export Plug-In . SVG Version: 6.00 Build 0)  -->
<!DOCTYPE svg PUBLIC "-//W3C//DTD SVG 1.1//EN" "http://www.w3.org/Graphics/SVG/1.1/DTD/svg11.dtd">
<svg version="1.1" id="Layer_2" xmlns="http://www.w3.org/2000/svg" xmlns:xlink="http://www.w3.org/1999/xlink" x="0px" y="0px"
	 width="100px" height="100px" viewBox="0 0 100 100" enable-background="new 0 0 100 100" xml:space="preserve">
<path d="M27.739,72.637h51.693c0.158,0,0.311-0.023,0.458-0.058c0.012,0,0.022,0.003,0.034,0.003c1.104,0,2-0.896,2-2V14.056
	c0-1.104-0.896-2-2-2h-0.489H30.938h-3.196c-5.323,0-9.653,4.331-9.653,9.653c0,0.071,0.014,0.139,0.021,0.208
	c-0.007,4.916-0.068,50.088-0.007,56.027c-0.004,0.116-0.018,0.229-0.018,0.346c0,5.118,4.007,9.307,9.047,9.623
	c0.101,0.016,0.2,0.031,0.305,0.031h52.487c1.104,0,2-0.896,2-2v-7.528c0-1.104-0.896-2-2-2s-2,0.896-2,2v5.528H27.739
	c-3.039,0-5.52-2.413-5.642-5.422c0.003-0.053,0.013-0.104,0.012-0.159c-0.002-0.088-0.005-0.225-0.007-0.407
	C22.277,74.995,24.735,72.637,27.739,72.637z M29.04,45.365c0-2.841,1.616-5.339,4.081-6.529
	c0.214-10.391,8.732-18.779,19.174-18.779h1.074c10.575,0,19.179,8.604,19.179,19.178v0.509c2.079,1.313,3.401,3.633,3.401,6.144
	v10.184c0,4.004-3.257,7.261-7.261,7.261s-7.262-3.257-7.262-7.261V45.888c0-2.51,1.323-4.831,3.402-6.143v-0.509
	c0-6.319-5.141-11.46-11.46-11.46h-1.074c-6.318,0-11.459,5.141-11.459,11.46v0.459c1.706,1.365,2.727,3.444,2.727,5.67v10.184
	c0,4.004-3.258,7.261-7.262,7.261s-7.261-3.257-7.261-7.261V45.365z"/>
</svg>
