<?xml version="1.0" encoding="utf-8"?>
<!-- Generator: Adobe Illustrator 16.0.0, SVG Export Plug-In . SVG Version: 6.00 Build 0)  -->
<!DOCTYPE svg PUBLIC "-//W3C//DTD SVG 1.1//EN" "http://www.w3.org/Graphics/SVG/1.1/DTD/svg11.dtd">
<svg version="1.1" id="Layer_1" xmlns="http://www.w3.org/2000/svg" xmlns:xlink="http://www.w3.org/1999/xlink" x="0px" y="0px"
	 width="100px" height="100px" viewBox="0 0 100 100" enable-background="new 0 0 100 100" xml:space="preserve">
<path fill="#020202" d="M79.324,59.34c0,15.577-12.673,28.25-28.25,28.25h-10c-1.657,0-3-1.343-3-3v-1c0-1.657,1.343-3,3-3h10
	c11.717,0,21.25-9.533,21.25-21.25s-9.533-21.25-21.25-21.25H32.625l12.706,12.706c1.365,1.364,1.365,3.585,0,4.949
	c-1.324,1.324-3.629,1.322-4.95,0L21.701,37.065c-0.661-0.661-1.025-1.54-1.025-2.475s0.364-1.814,1.025-2.475l18.681-18.681
	c1.321-1.322,3.628-1.322,4.949,0c1.365,1.364,1.365,3.585,0,4.949L32.625,31.09h18.449C66.651,31.09,79.324,43.763,79.324,59.34z"
	/>
</svg>
