<?xml version="1.0" encoding="utf-8"?>
<!-- Generator: Adobe Illustrator 16.0.0, SVG Export Plug-In . SVG Version: 6.00 Build 0)  -->
<!DOCTYPE svg PUBLIC "-//W3C//DTD SVG 1.1//EN" "http://www.w3.org/Graphics/SVG/1.1/DTD/svg11.dtd">
<svg version="1.1" id="Layer_3" xmlns="http://www.w3.org/2000/svg" xmlns:xlink="http://www.w3.org/1999/xlink" x="0px" y="0px"
	 width="100px" height="100px" viewBox="0 0 100 100" enable-background="new 0 0 100 100" xml:space="preserve">
<path d="M77.561,22.438c-15.197-15.197-39.926-15.197-55.123,0s-15.197,39.926,0,55.123s39.926,15.197,55.123,0
	S92.758,37.636,77.561,22.438z M74.537,74.539c-13.529,13.53-35.547,13.53-49.078,0c-13.529-13.531-13.529-35.548,0-49.078
	c13.531-13.531,35.547-13.531,49.078,0C88.068,38.991,88.068,61.008,74.537,74.539z M76.859,37.576l-2.168,9.763
	c-0.059,0.27-0.326,0.438-0.594,0.38c-0.082-0.018-2.043-0.44-4.906-0.44c-4.83,0-13.363,1.278-18.998,9.245l1.174,1.174
	L64.521,63.4c0.441,0.193,0.701,0.654,0.633,1.131c-0.066,0.476-0.441,0.85-0.92,0.91l-32.762,4.283
	c-0.328,0.043-0.66-0.07-0.895-0.304c-0.236-0.235-0.346-0.566-0.305-0.896l4.283-32.762c0.031-0.24,0.141-0.455,0.303-0.617
	c0.16-0.16,0.371-0.27,0.609-0.304c0.475-0.067,0.936,0.193,1.129,0.633l5.703,13.154l0.029,0.029
	c8.795-11.082,21.533-12.404,27.057-12.404c2.527,0,4.98,0.251,7.094,0.725C76.75,37.04,76.92,37.307,76.859,37.576z"/>
</svg>
