<?xml version="1.0" encoding="iso-8859-1"?>
<!-- Generator: Adobe Illustrator 18.0.0, SVG Export Plug-In . SVG Version: 6.00 Build 0)  -->
<!DOCTYPE svg PUBLIC "-//W3C//DTD SVG 1.1//EN" "http://www.w3.org/Graphics/SVG/1.1/DTD/svg11.dtd">
<svg version="1.1" id="Capa_1" xmlns="http://www.w3.org/2000/svg" xmlns:xlink="http://www.w3.org/1999/xlink" x="0px" y="0px"
	 viewBox="0 0 21.544 21.543" style="enable-background:new 0 0 21.544 21.543;" xml:space="preserve">
<g>
	<path style="fill-rule:evenodd;clip-rule:evenodd;" d="M13.71,5.006c-0.764,0.764-0.75,2.016,0.031,2.797
		c0.781,0.781,2.033,0.795,2.797,0.031c0.764-0.764,0.75-2.016-0.031-2.797C15.726,4.256,14.473,4.242,13.71,5.006z M15.831,7.127
		c-0.382,0.382-1.008,0.375-1.398-0.016c-0.391-0.391-0.398-1.017-0.016-1.399c0.382-0.382,1.008-0.375,1.398,0.016
		C16.206,6.119,16.213,6.745,15.831,7.127z"/>
	<path style="fill-rule:evenodd;clip-rule:evenodd;" d="M20.338,0.68L10.937,0L0.141,10.796c-0.191,0.191-0.188,0.504,0.007,0.699
		l9.901,9.901c0.195,0.195,0.51,0.195,0.698,0.007l10.796-10.796l-0.68-9.401C20.845,0.935,20.604,0.699,20.338,0.68z
		 M10.732,20.004c-0.194,0.193-0.505,0.187-0.701-0.009l-8.483-8.483c-0.195-0.195-0.2-0.51-0.009-0.701l9.874-9.874l7.906,0.745
		c0.269,0.025,0.515,0.268,0.541,0.541l0.745,7.906L10.732,20.004z"/>
</g>
<g>
</g>
<g>
</g>
<g>
</g>
<g>
</g>
<g>
</g>
<g>
</g>
<g>
</g>
<g>
</g>
<g>
</g>
<g>
</g>
<g>
</g>
<g>
</g>
<g>
</g>
<g>
</g>
<g>
</g>
</svg>
