<?xml version="1.0" encoding="utf-8"?>
<!-- Generator: Adobe Illustrator 16.0.0, SVG Export Plug-In . SVG Version: 6.00 Build 0)  -->
<!DOCTYPE svg PUBLIC "-//W3C//DTD SVG 1.1//EN" "http://www.w3.org/Graphics/SVG/1.1/DTD/svg11.dtd">
<svg version="1.1" id="Layer_2" xmlns="http://www.w3.org/2000/svg" xmlns:xlink="http://www.w3.org/1999/xlink" x="0px" y="0px"
	 width="100px" height="100px" viewBox="0 0 100 100" enable-background="new 0 0 100 100" xml:space="preserve">
<path d="M66.121,58.333 M89.595,63.927L45.893,20.225c-0.477-0.476-1.122-0.744-1.794-0.744H28.098
	c-1.152-1.465-2.702-2.72-4.523-3.624c-4.386-2.179-9.328-1.82-12.02,0.87c-0.497,0.498-0.906,1.065-1.216,1.688
	c-0.993,2-0.891,4.376,0.287,6.689c1.136,2.231,3.15,4.149,5.674,5.401c1.132,0.562,2.301,0.952,3.458,1.181v12.134
	c0.001,0.672,0.268,1.319,0.744,1.794l43.702,43.702c0.991,0.992,2.598,0.992,3.589,0l21.802-21.802
	C90.586,66.526,90.586,64.919,89.595,63.927z M20.502,20.225c-0.476,0.476-0.743,1.122-0.743,1.794v7.943
	c-0.904-0.208-1.816-0.528-2.706-0.971c-2.2-1.092-3.947-2.744-4.919-4.653c-0.929-1.825-1.028-3.661-0.279-5.169
	c0.228-0.458,0.528-0.877,0.896-1.244c2.185-2.185,6.325-2.411,10.07-0.551c1.139,0.566,2.153,1.284,3.006,2.108h-3.531
	C21.623,19.481,20.979,19.749,20.502,20.225z M26.085,25.809c0.68-0.68,1.523-1.095,2.405-1.25c0.078,0.938-0.072,1.834-0.471,2.637
	c-0.227,0.459-0.529,0.878-0.897,1.245c-0.619,0.62-1.4,1.076-2.282,1.378C24.581,28.408,24.994,26.899,26.085,25.809z
	 M32.466,32.189c-1.763,1.762-4.619,1.762-6.381,0c-0.247-0.248-0.457-0.518-0.634-0.803c1.1-0.382,2.082-0.963,2.868-1.749
	c0.497-0.498,0.906-1.065,1.216-1.688c0.517-1.041,0.73-2.184,0.656-3.366c0.833,0.172,1.628,0.579,2.274,1.226
	C34.228,27.57,34.228,30.427,32.466,32.189z"/>
</svg>
