<?xml version="1.0" encoding="iso-8859-1"?>
<!-- Generator: Adobe Illustrator 18.0.0, SVG Export Plug-In . SVG Version: 6.00 Build 0)  -->
<!DOCTYPE svg PUBLIC "-//W3C//DTD SVG 1.1//EN" "http://www.w3.org/Graphics/SVG/1.1/DTD/svg11.dtd">
<svg version="1.1" id="Capa_1" xmlns="http://www.w3.org/2000/svg" xmlns:xlink="http://www.w3.org/1999/xlink" x="0px" y="0px"
	 viewBox="0 0 16.001 16.001" style="enable-background:new 0 0 16.001 16.001;" xml:space="preserve">
<g id="Bookmark">
	<g>
		<path style="fill-rule:evenodd;clip-rule:evenodd;" d="M15.426,7.096L9.873,1.544c-0.26-0.26-0.576-0.424-0.909-0.508L9,1L8,0H0v8
			l1,1l0.036-0.036c0.084,0.332,0.248,0.649,0.508,0.909l5.553,5.553c0.767,0.767,2.01,0.767,2.776,0l5.553-5.553
			C16.192,9.106,16.192,7.863,15.426,7.096z M13.343,9.179l-4.165,4.165c-0.383,0.383-1.005,0.383-1.388,0L3.626,9.179
			C3.473,9.025,3.398,8.832,3.367,8.633L3,9L2,7V2h5l2,1L8.633,3.367c0.199,0.031,0.393,0.105,0.546,0.259l4.165,4.165
			C13.727,8.174,13.727,8.795,13.343,9.179z M5,4C4.448,4,4,4.448,4,5c0,0.552,0.448,1,1,1c0.552,0,1-0.448,1-1C6,4.448,5.552,4,5,4
			z"/>
	</g>
</g>
<g>
</g>
<g>
</g>
<g>
</g>
<g>
</g>
<g>
</g>
<g>
</g>
<g>
</g>
<g>
</g>
<g>
</g>
<g>
</g>
<g>
</g>
<g>
</g>
<g>
</g>
<g>
</g>
<g>
</g>
</svg>
