<?xml version="1.0" encoding="iso-8859-1"?>
<!-- Generator: Adobe Illustrator 18.0.0, SVG Export Plug-In . SVG Version: 6.00 Build 0)  -->
<!DOCTYPE svg PUBLIC "-//W3C//DTD SVG 1.1//EN" "http://www.w3.org/Graphics/SVG/1.1/DTD/svg11.dtd">
<svg version="1.1" id="Capa_1" xmlns="http://www.w3.org/2000/svg" xmlns:xlink="http://www.w3.org/1999/xlink" x="0px" y="0px"
	 viewBox="0 0 21.543 21.544" style="enable-background:new 0 0 21.543 21.544;" xml:space="preserve">
<g>
	<path style="fill-rule:evenodd;clip-rule:evenodd;" d="M5.037,5.037C4.256,5.818,4.242,7.071,5.006,7.834
		c0.764,0.764,2.016,0.75,2.797-0.031C8.584,7.022,8.598,5.77,7.834,5.006S5.818,4.256,5.037,5.037z M7.112,7.111
		C6.721,7.502,6.095,7.509,5.713,7.127C5.331,6.745,5.338,6.119,5.729,5.729c0.39-0.391,1.017-0.398,1.398-0.016
		C7.509,6.095,7.502,6.721,7.112,7.111z"/>
	<path style="fill-rule:evenodd;clip-rule:evenodd;" d="M10.607,0L1.206,0.68C0.935,0.699,0.699,0.94,0.68,1.206L0,10.607
		l10.796,10.796c0.191,0.191,0.504,0.188,0.699-0.007l9.901-9.901c0.195-0.195,0.195-0.51,0.007-0.699L10.607,0z M19.995,11.512
		l-8.483,8.483c-0.195,0.195-0.51,0.2-0.701,0.009L0.938,10.13l0.745-7.906c0.025-0.269,0.268-0.515,0.541-0.541l7.906-0.745
		l9.874,9.874C20.198,11.005,20.191,11.316,19.995,11.512z"/>
</g>
<g>
</g>
<g>
</g>
<g>
</g>
<g>
</g>
<g>
</g>
<g>
</g>
<g>
</g>
<g>
</g>
<g>
</g>
<g>
</g>
<g>
</g>
<g>
</g>
<g>
</g>
<g>
</g>
<g>
</g>
</svg>
