<?xml version="1.0" encoding="utf-8"?>
<!-- Generator: Adobe Illustrator 16.0.0, SVG Export Plug-In . SVG Version: 6.00 Build 0)  -->
<!DOCTYPE svg PUBLIC "-//W3C//DTD SVG 1.1//EN" "http://www.w3.org/Graphics/SVG/1.1/DTD/svg11.dtd">
<svg version="1.1" id="Layer_2" xmlns="http://www.w3.org/2000/svg" xmlns:xlink="http://www.w3.org/1999/xlink" x="0px" y="0px"
	 width="100px" height="100px" viewBox="0 0 100 100" enable-background="new 0 0 100 100" xml:space="preserve">
<path d="M76.492,62.067L39.4,24.977c-0.404-0.404-0.951-0.631-1.522-0.631h-13.58c-0.979-1.243-2.293-2.308-3.84-3.075
	c-3.722-1.85-7.915-1.545-10.2,0.738c-0.422,0.422-0.77,0.904-1.031,1.433c-0.844,1.697-0.757,3.714,0.243,5.677
	c0.964,1.894,2.673,3.521,4.815,4.584c0.961,0.477,1.953,0.808,2.935,1.002v10.298c0.001,0.571,0.228,1.12,0.632,1.523
	l37.091,37.091c0.841,0.842,2.204,0.842,3.046,0l18.504-18.504C77.333,64.273,77.333,62.909,76.492,62.067z M17.852,24.977
	c-0.403,0.403-0.631,0.952-0.631,1.522v6.741c-0.768-0.176-1.541-0.448-2.297-0.823c-1.867-0.927-3.351-2.329-4.174-3.95
	c-0.789-1.548-0.873-3.106-0.237-4.386c0.192-0.389,0.447-0.745,0.761-1.056c1.854-1.854,5.368-2.046,8.546-0.468
	c0.968,0.48,1.828,1.089,2.552,1.789h-2.997C18.803,24.345,18.256,24.572,17.852,24.977z M22.59,29.716
	c0.576-0.577,1.293-0.93,2.041-1.062c0.066,0.796-0.062,1.557-0.399,2.238c-0.192,0.389-0.448,0.745-0.762,1.057
	c-0.525,0.526-1.188,0.913-1.937,1.169C21.313,31.922,21.664,30.641,22.59,29.716z M28.005,35.131c-1.495,1.495-3.92,1.495-5.415,0
	c-0.21-0.21-0.389-0.439-0.538-0.682c0.934-0.325,1.768-0.817,2.435-1.484c0.422-0.422,0.77-0.904,1.031-1.433
	c0.439-0.884,0.621-1.854,0.558-2.857c0.707,0.146,1.382,0.492,1.93,1.041C29.5,31.211,29.5,33.635,28.005,35.131z M90.718,60.799
	L72.215,79.303c-0.842,0.841-2.206,0.841-3.047,0l-0.937-0.938l11.537-11.539c0.809-0.808,1.254-1.881,1.254-3.023
	s-0.444-2.216-1.253-3.023L42.679,23.688c-0.81-0.808-1.883-1.252-3.022-1.252h-8.21v-0.251c0-0.571,0.228-1.119,0.632-1.523
	c0.404-0.403,0.95-0.631,1.521-0.631h2.998c-0.725-0.699-1.586-1.309-2.552-1.789c-3.179-1.578-6.693-1.386-8.547,0.468
	c-0.313,0.311-0.567,0.667-0.762,1.056c-0.092,0.188-0.165,0.382-0.227,0.581c-0.409-0.261-0.827-0.509-1.265-0.729
	c0.063-0.165,0.126-0.331,0.205-0.491c0.264-0.528,0.61-1.01,1.033-1.433c2.283-2.283,6.479-2.587,10.2-0.738
	c1.546,0.767,2.861,1.832,3.839,3.075h13.581c0.569,0,1.118,0.228,1.522,0.631l37.091,37.091
	C91.56,58.595,91.56,59.959,90.718,60.799z"/>
</svg>
