<?xml version="1.0" encoding="iso-8859-1"?>
<!-- Generator: Adobe Illustrator 18.0.0, SVG Export Plug-In . SVG Version: 6.00 Build 0)  -->
<!DOCTYPE svg PUBLIC "-//W3C//DTD SVG 1.1//EN" "http://www.w3.org/Graphics/SVG/1.1/DTD/svg11.dtd">
<svg version="1.1" id="Capa_1" xmlns="http://www.w3.org/2000/svg" xmlns:xlink="http://www.w3.org/1999/xlink" x="0px" y="0px"
	 viewBox="0 0 16 16" style="enable-background:new 0 0 16 16;" xml:space="preserve">
<g id="Chat">
	<g>
		<path style="fill-rule:evenodd;clip-rule:evenodd;" d="M16,6.5C16,2.91,13.09,0,9.5,0h-3C2.91,0,0,2.91,0,6.5
			C0,10.09,2.91,13,6.5,13h2l4.5,3v-4h-0.047C14.781,10.85,16,8.82,16,6.5z M11,10.724V12.5L8.5,11h-2C4.015,11,2,8.985,2,6.5
			C2,4.015,4.015,2,6.5,2h3C11.985,2,14,4.015,14,6.5C14,8.457,12.744,10.105,11,10.724z"/>
	</g>
</g>
<g>
</g>
<g>
</g>
<g>
</g>
<g>
</g>
<g>
</g>
<g>
</g>
<g>
</g>
<g>
</g>
<g>
</g>
<g>
</g>
<g>
</g>
<g>
</g>
<g>
</g>
<g>
</g>
<g>
</g>
</svg>
