<?xml version="1.0" encoding="utf-8"?>
<!-- Generator: Adobe Illustrator 16.0.0, SVG Export Plug-In . SVG Version: 6.00 Build 0)  -->
<!DOCTYPE svg PUBLIC "-//W3C//DTD SVG 1.1//EN" "http://www.w3.org/Graphics/SVG/1.1/DTD/svg11.dtd">
<svg version="1.1" id="Layer_4" xmlns="http://www.w3.org/2000/svg" xmlns:xlink="http://www.w3.org/1999/xlink" x="0px" y="0px"
	 width="100px" height="100px" viewBox="0 0 100 100" enable-background="new 0 0 100 100" xml:space="preserve">
<path d="M87.5,19.462v5H66.167v18.074h-18v20.002H29.5v18h-17v-5h12v-18h18.667V37.536h18V19.462H87.5z M41.152,26.593l-13.693,1.79
	c-0.2,0.025-0.356,0.182-0.384,0.381c-0.028,0.199,0.08,0.392,0.264,0.473l5.498,2.384l-9.123,9.122
	c-0.174,0.176-0.175,0.458,0,0.633l3.158,3.158c0.174,0.175,0.457,0.174,0.632,0l9.123-9.123l2.384,5.497
	c0.08,0.184,0.273,0.293,0.472,0.265c0.1-0.015,0.188-0.061,0.254-0.127c0.067-0.067,0.113-0.157,0.127-0.258l1.79-13.693
	c0.018-0.138-0.028-0.275-0.127-0.374C41.429,26.624,41.29,26.576,41.152,26.593z"/>
</svg>
