<?xml version="1.0" encoding="utf-8"?>
<!-- Generator: Adobe Illustrator 16.0.0, SVG Export Plug-In . SVG Version: 6.00 Build 0)  -->
<!DOCTYPE svg PUBLIC "-//W3C//DTD SVG 1.1//EN" "http://www.w3.org/Graphics/SVG/1.1/DTD/svg11.dtd">
<svg version="1.1" id="Layer_1" xmlns="http://www.w3.org/2000/svg" xmlns:xlink="http://www.w3.org/1999/xlink" x="0px" y="0px"
	 width="100px" height="100px" viewBox="0 0 100 100" enable-background="new 0 0 100 100" xml:space="preserve">
<path fill="#020202" d="M25.75,17.188v65.625c0,0.828-0.672,1.5-1.5,1.5s-1.5-0.672-1.5-1.5V17.188c0-0.828,0.672-1.5,1.5-1.5
	S25.75,16.359,25.75,17.188z M74.75,15.688c-0.828,0-1.5,0.672-1.5,1.5v65.625c0,0.828,0.672,1.5,1.5,1.5s1.5-0.672,1.5-1.5V17.188
	C76.25,16.359,75.578,15.688,74.75,15.688z M67.917,21.501H30.894c-0.828,0-1.5,0.672-1.5,1.5s0.672,1.5,1.5,1.5h37.023
	c0.828,0,1.5-0.672,1.5-1.5S68.745,21.501,67.917,21.501z M67.917,32.5H30.894c-0.828,0-1.5,0.672-1.5,1.5s0.672,1.5,1.5,1.5h37.023
	c0.828,0,1.5-0.672,1.5-1.5S68.745,32.5,67.917,32.5z M67.917,43.917H30.894c-0.828,0-1.5,0.672-1.5,1.5s0.672,1.5,1.5,1.5h37.023
	c0.828,0,1.5-0.672,1.5-1.5S68.745,43.917,67.917,43.917z M67.917,55.75H30.894c-0.828,0-1.5,0.672-1.5,1.5s0.672,1.5,1.5,1.5
	h37.023c0.828,0,1.5-0.672,1.5-1.5S68.745,55.75,67.917,55.75z M55.001,67.167H30.894c-0.828,0-1.5,0.672-1.5,1.5s0.672,1.5,1.5,1.5
	h24.107c0.828,0,1.5-0.672,1.5-1.5S55.829,67.167,55.001,67.167z"/>
</svg>
