<?xml version="1.0" encoding="iso-8859-1"?>
<!-- Generator: Adobe Illustrator 18.0.0, SVG Export Plug-In . SVG Version: 6.00 Build 0)  -->
<!DOCTYPE svg PUBLIC "-//W3C//DTD SVG 1.1//EN" "http://www.w3.org/Graphics/SVG/1.1/DTD/svg11.dtd">
<svg version="1.1" id="Capa_1" xmlns="http://www.w3.org/2000/svg" xmlns:xlink="http://www.w3.org/1999/xlink" x="0px" y="0px"
	 viewBox="0 0 19.856 22.953" style="enable-background:new 0 0 19.856 22.953;" xml:space="preserve">
<g>
	<circle style="fill-rule:evenodd;clip-rule:evenodd;" cx="16.98" cy="16.142" r="1.375"/>
	<path style="fill-rule:evenodd;clip-rule:evenodd;" d="M8.852,3.894C4.152,6.608,0,11.438,0,11.438l2.057,1.193
		c0.188-0.211,0.407-0.451,0.651-0.713l-1.244-0.69c0,0,3.108-3.803,7.919-6.581s9.713-3.599,9.713-3.599l-0.049,1.497
		c0.281-0.064,0.539-0.12,0.77-0.168L19.811,0C19.811,0,13.553,1.181,8.852,3.894z"/>
	<circle style="fill-rule:evenodd;clip-rule:evenodd;" cx="16.315" cy="8.585" r="1.375"/>
	<circle style="fill-rule:evenodd;clip-rule:evenodd;" cx="11.498" cy="10.308" r="1.375"/>
	<circle style="fill-rule:evenodd;clip-rule:evenodd;" cx="12.143" cy="14.17" r="1.375"/>
	<path style="fill-rule:evenodd;clip-rule:evenodd;" d="M2.822,13.075l17.033,9.878l-0.038-19.69
		c-2.175,0.472-6.066,1.509-9.361,3.411C7.162,8.576,4.319,11.427,2.822,13.075z M18.899,4.825l0.04,16.539L4.635,13.061
		c0,0,2.518-3.31,6.328-5.51C14.773,5.351,18.899,4.825,18.899,4.825z"/>
</g>
<g>
</g>
<g>
</g>
<g>
</g>
<g>
</g>
<g>
</g>
<g>
</g>
<g>
</g>
<g>
</g>
<g>
</g>
<g>
</g>
<g>
</g>
<g>
</g>
<g>
</g>
<g>
</g>
<g>
</g>
</svg>
