<?xml version="1.0" encoding="iso-8859-1"?>
<!-- Generator: Adobe Illustrator 18.0.0, SVG Export Plug-In . SVG Version: 6.00 Build 0)  -->
<!DOCTYPE svg PUBLIC "-//W3C//DTD SVG 1.1//EN" "http://www.w3.org/Graphics/SVG/1.1/DTD/svg11.dtd">
<svg version="1.1" id="Capa_1" xmlns="http://www.w3.org/2000/svg" xmlns:xlink="http://www.w3.org/1999/xlink" x="0px" y="0px"
	 viewBox="0 0 19.331 22.582" style="enable-background:new 0 0 19.331 22.582;" xml:space="preserve">
<g>
	<path style="fill-rule:evenodd;clip-rule:evenodd;" d="M2.748,12.56l16.583,10.022L18.942,3.21
		c-2.087,0.425-5.815,1.376-8.955,3.189C6.847,8.212,4.16,10.966,2.748,12.56z M17.572,15.177c0.378,0.654,0.177,1.477-0.449,1.838
		c-0.625,0.361-1.439,0.124-1.816-0.53c-0.377-0.654-0.176-1.477,0.449-1.838C16.381,14.285,17.194,14.523,17.572,15.177z
		 M14.98,7.2c0.625-0.361,1.439-0.124,1.816,0.53c0.378,0.654,0.177,1.477-0.449,1.838s-1.439,0.124-1.816-0.53
		C14.154,8.384,14.355,7.561,14.98,7.2z M12.878,13.15c0.378,0.654,0.177,1.477-0.449,1.838c-0.625,0.361-1.439,0.124-1.816-0.53
		c-0.377-0.654-0.176-1.477,0.449-1.838C11.687,12.259,12.5,12.496,12.878,13.15z M10.371,8.808c0.626-0.361,1.439-0.124,1.816,0.53
		s0.177,1.477-0.449,1.838c-0.626,0.361-1.439,0.124-1.816-0.53C9.545,9.992,9.746,9.169,10.371,8.808z"/>
	<path style="fill-rule:evenodd;clip-rule:evenodd;" d="M8.392,3.636C3.913,6.222,0,10.899,0,10.899l2.002,1.21
		c0.178-0.204,2.969-3.811,7.554-6.457c4.584-2.647,9.148-3.27,9.369-3.313L18.878,0C18.878,0,12.871,1.05,8.392,3.636z"/>
</g>
<g>
</g>
<g>
</g>
<g>
</g>
<g>
</g>
<g>
</g>
<g>
</g>
<g>
</g>
<g>
</g>
<g>
</g>
<g>
</g>
<g>
</g>
<g>
</g>
<g>
</g>
<g>
</g>
<g>
</g>
</svg>
