<?xml version="1.0" encoding="utf-8"?>
<!-- Generator: Adobe Illustrator 16.0.0, SVG Export Plug-In . SVG Version: 6.00 Build 0)  -->
<!DOCTYPE svg PUBLIC "-//W3C//DTD SVG 1.1//EN" "http://www.w3.org/Graphics/SVG/1.1/DTD/svg11.dtd">
<svg version="1.1" id="Layer_2" xmlns="http://www.w3.org/2000/svg" xmlns:xlink="http://www.w3.org/1999/xlink" x="0px" y="0px"
	 width="100px" height="100px" viewBox="0 0 100 100" enable-background="new 0 0 100 100" xml:space="preserve">
<path d="M93.272,45.935l-26.99,26.99c-0.977,0.976-2.256,1.464-3.536,1.464c-1.28,0-2.559-0.488-3.536-1.464L45.069,58.782
	c-1.953-1.953-1.953-5.119,0-7.071c1.953-1.952,5.118-1.952,7.071,0l10.606,10.607l23.455-23.455c1.954-1.952,5.119-1.951,7.071,0
	C95.225,40.816,95.225,43.982,93.272,45.935z M26.114,35.452h4.936v4.936v1.171v3.733v1.204v3.732v1.17v3.766v1.171v4.903h-6.106
	v-4.903v-1.171v-3.766h-3.766h-1.171h-3.732v0.033h-4.937v3.733v1.171v4.903H5.263v-4.903v-1.171v-3.733v-1.203v-3.732v-1.172
	v-3.765v-1.171v-4.904h4.904v-4.936h4.936v-4.937h6.075v4.872h4.937V35.452z M24.943,36.59h-4.937v-4.872h-3.765v4.936h-4.904v3.733
	v1.171v3.765h3.765h1.172h3.732v-0.032h4.937v-3.733v-1.171V36.59z M43.495,61.238h-0.562h-3.765h-1.171h-4.904v-4.903v-1.171
	v-3.733v-1.171v-3.764v-1.172v-3.732v-1.204v-3.733v-1.17V31.75v-1.203v-4.937h4.904h1.171h3.765h1.171h3.732h1.171h4.937v4.937
	h4.935v4.904v1.202v4.904h-4.935v3.733h4.935v4.936v1.17v4.018l-4.722-4.722c-0.421-0.421-0.889-0.779-1.384-1.084v-3.114h-3.766
	h-1.171h-3.732h-1.171h-3.765v3.764v1.171v3.733h2.24C41.169,57.325,41.864,59.57,43.495,61.238z M39.168,40.387h3.765h1.171h3.732
	h1.171h3.766v-3.733v-1.202v-3.734h-3.766h-1.171h-3.732h-1.171h-3.765v0.033v3.733v1.17V40.387z M65.828,56.701l1.538-1.538H67.03
	v-4.936h-0.032v-3.732v-1.172v-3.765v-1.171v-3.733v-1.17v-3.766h3.765h1.172h3.732h1.17h3.766v4.936h5.644
	c0.151-0.088,0.306-0.169,0.463-0.246v-5.86h-4.936v-4.937h-4.938h-1.17h-3.732h-1.172h-4.936v4.937h-4.903v4.936v1.17v3.733v1.171
	v3.765v1.172v3.732v1.17v4.937h4.903V56.701z"/>
</svg>
