<?xml version="1.0" encoding="utf-8"?>
<!-- Generator: Adobe Illustrator 16.0.4, SVG Export Plug-In . SVG Version: 6.00 Build 0)  -->
<!DOCTYPE svg PUBLIC "-//W3C//DTD SVG 1.1//EN" "http://www.w3.org/Graphics/SVG/1.1/DTD/svg11.dtd">
<svg version="1.1" id="Capa_1" xmlns="http://www.w3.org/2000/svg" xmlns:xlink="http://www.w3.org/1999/xlink" x="0px" y="0px"
	 width="32px" height="32px" viewBox="0 0 32 32" enable-background="new 0 0 32 32" xml:space="preserve">
<g>
	<polygon points="5.626,4.465 2.328,4.465 2.328,10.355 5.626,7.763 	"/>
	<path d="M19.212,9.956c0.173-0.083,0.346-0.165,0.521-0.242l-7.509-5.808L0.129,13.261h2.199v14.834h6.597V17.1h3.422l0.27-0.583
		C13.996,13.528,16.288,11.38,19.212,9.956z"/>
	<path d="M22.11,12.834c-0.928,0.122-3.013,0.875-4.608,1.967c-0.902,0.617-1.758,1.379-2.558,2.298h0.58v10.995h6.596V14.797
		l-0.01,0.005V12.834z"/>
	<path d="M31.871,11.221l-4.908-4.576L26.61,9.166c-1.998,0.116-9.854,1.004-12.995,7.811c4.934-6.215,11.159-5.39,12.611-5.093
		l-0.334,2.384L31.871,11.221z"/>
</g>
</svg>
