<?xml version="1.0" encoding="iso-8859-1"?>
<!-- Generator: Adobe Illustrator 18.0.0, SVG Export Plug-In . SVG Version: 6.00 Build 0)  -->
<!DOCTYPE svg PUBLIC "-//W3C//DTD SVG 1.1//EN" "http://www.w3.org/Graphics/SVG/1.1/DTD/svg11.dtd">
<svg version="1.1" id="Capa_1" xmlns="http://www.w3.org/2000/svg" xmlns:xlink="http://www.w3.org/1999/xlink" x="0px" y="0px"
	 viewBox="0 0 28.87 22.009" style="enable-background:new 0 0 28.87 22.009;" xml:space="preserve">
<g>
	<path d="M22,8.509l-0.583-0.451c-0.557,0.012-1.126,0.072-1.7,0.185L22,10.009V8.509z"/>
	<polygon points="5,3.509 5,0.509 2,0.509 2,5.866 3,5.009 3,1.509 4,1.509 4,4.381 	"/>
	<path d="M0,10.009L11,1.5l5.649,4.37c0.231-0.128,0.466-0.25,0.706-0.367c0.157-0.076,0.315-0.15,0.473-0.221L11,0L0,8.509V10.009z
		"/>
	<path d="M28.87,6.654l-4.464-4.162l-0.322,2.292c-1.817,0.106-8.962,0.914-11.818,7.104c4.488-5.652,10.148-4.902,11.47-4.632
		l-0.305,2.168L28.87,6.654z"/>
	<polygon points="2,9.918 2,22.009 6.98,22.009 6.98,21.009 3,21.009 3,9.108 	"/>
	<path d="M10.652,13l0.461-1H8v10h6V12h-0.527c-0.143,0.165-0.285,0.335-0.424,0.51L12.66,13H13v8H9v-8H10.652z"/>
	<polygon points="19.007,21.009 15.029,21.009 15.029,22.009 20.007,22.009 20.007,9.88 19.007,9.081 	"/>
</g>
<g>
</g>
<g>
</g>
<g>
</g>
<g>
</g>
<g>
</g>
<g>
</g>
<g>
</g>
<g>
</g>
<g>
</g>
<g>
</g>
<g>
</g>
<g>
</g>
<g>
</g>
<g>
</g>
<g>
</g>
</svg>
