<?xml version="1.0" encoding="utf-8"?>
<!-- Generator: Adobe Illustrator 16.0.0, SVG Export Plug-In . SVG Version: 6.00 Build 0)  -->
<!DOCTYPE svg PUBLIC "-//W3C//DTD SVG 1.1//EN" "http://www.w3.org/Graphics/SVG/1.1/DTD/svg11.dtd">
<svg version="1.1" id="Layer_3" xmlns="http://www.w3.org/2000/svg" xmlns:xlink="http://www.w3.org/1999/xlink" x="0px" y="0px"
	 width="100px" height="100px" viewBox="0 0 100 100" enable-background="new 0 0 100 100" xml:space="preserve">
<path d="M87.358,84.949c0.011,0.508-0.394,0.93-0.902,0.939c-0.017,0-0.061,0.002-0.129,0.002c-0.89,0-5.913-0.127-8.733-2.889
	c-0.43-0.422-0.786-0.879-1.072-1.375c-2.703,3.91-9.95,4.246-10.326,4.262c-0.003,0-0.006,0-0.009,0s-0.005,0-0.008,0
	c-0.017,0-0.061,0.002-0.129,0.002c-0.89,0-5.913-0.127-8.733-2.889c-0.43-0.422-0.787-0.879-1.072-1.375
	c-2.147,3.105-7.158,3.957-9.317,4.182c-0.109,0.049-0.229,0.078-0.356,0.08c-0.018,0-0.062,0.002-0.13,0.002
	c-0.089,0-0.23-0.004-0.396-0.008c-0.061,0.002-0.105,0.006-0.126,0.006c-0.085,0.006-0.166-0.006-0.245-0.021
	c-1.743-0.094-5.615-0.564-7.966-2.865c-0.429-0.422-0.786-0.879-1.071-1.375c-2.125,3.074-7.058,3.939-9.253,4.176
	c-0.112,0.053-0.236,0.084-0.368,0.086c-0.017,0-0.062,0.002-0.129,0.002c-0.096,0-0.248-0.004-0.432-0.01
	c-0.072,0.004-0.122,0.008-0.145,0.008c-0.09,0.006-0.176-0.006-0.258-0.025c-1.774-0.102-5.58-0.59-7.9-2.861
	c-0.429-0.422-0.786-0.879-1.071-1.375c-2.703,3.91-9.95,4.246-10.326,4.262c-0.512,0.033-0.937-0.377-0.957-0.885
	c-0.02-0.508,0.376-0.936,0.885-0.957c0.095-0.004,9.561-0.449,9.561-5.736c0-0.508,0.412-0.922,0.922-0.922
	c0.509,0,0.921,0.414,0.921,0.922c0,1.377,0.444,2.48,1.356,3.373c2.003,1.961,5.623,2.295,6.989,2.352
	c1.344-0.094,9.367-0.855,9.367-5.725c0-0.508,0.412-0.922,0.921-0.922c0.51,0,0.922,0.414,0.922,0.922
	c0,1.377,0.444,2.48,1.356,3.373c2.017,1.975,5.677,2.301,7.021,2.354c1.275-0.088,9.389-0.83,9.389-5.727
	c0-0.508,0.413-0.922,0.922-0.922s0.922,0.414,0.922,0.922c0,1.377,0.443,2.48,1.356,3.373c2.475,2.424,7.425,2.363,7.528,2.361
	c0.282-0.012,9.549-0.5,9.549-5.734c0-0.508,0.413-0.922,0.922-0.922s0.922,0.414,0.922,0.922c0,1.377,0.443,2.48,1.356,3.373
	c2.488,2.438,7.482,2.361,7.534,2.361C86.942,84.031,87.348,84.439,87.358,84.949z M94.203,76.447
	c0.011,0.508-0.394,0.93-0.902,0.941c-0.017,0-0.061,0-0.129,0c-0.89,0-5.913-0.127-8.733-2.889c-0.43-0.42-0.786-0.879-1.072-1.375
	c-2.703,3.91-9.95,4.248-10.326,4.262h-0.009c-0.003,0-0.005,0.002-0.008,0.002c-0.017,0-0.061,0-0.129,0
	c-0.533,0-2.552-0.053-4.69-0.684c0.007-0.016,0.012-0.031,0.019-0.047c-1.54-0.293-3.346-0.883-4.559-2.07
	c-0.913-0.895-1.356-1.998-1.356-3.373c0-0.51-0.413-0.922-0.922-0.922s-0.922,0.412-0.922,0.922c0,4.896-8.113,5.639-9.389,5.725
	c-1.344-0.053-5.004-0.377-7.021-2.352c-0.912-0.895-1.356-1.998-1.356-3.373c0-0.51-0.412-0.922-0.922-0.922
	c-0.509,0-0.921,0.412-0.921,0.922c0,3.309-3.697,4.713-6.493,5.309c0.001,0,0.001,0,0.001,0c-0.001,0-0.002,0-0.002,0
	c-0.091,0.02-0.184,0.041-0.272,0.059c-0.038-0.027-0.071-0.063-0.109-0.09c-1.874-0.139-5.385-0.684-7.583-2.836
	c-0.429-0.422-0.786-0.879-1.071-1.375c-2.704,3.91-9.951,4.246-10.327,4.262c-0.512,0.033-0.936-0.377-0.956-0.885
	s0.375-0.936,0.884-0.957c0.096-0.004,9.561-0.449,9.561-5.736c0-0.508,0.413-0.922,0.922-0.922c0.51,0,0.922,0.414,0.922,0.922
	c0,1.377,0.443,2.48,1.356,3.373c1.084,1.063,2.632,1.637,4.046,1.957c-1.563-1.984-2.512-4.473-2.512-7.195v-4.465
	c0-5.996-0.393-7.154,4.725-7.289l9.171-31.498c-0.049-0.371-0.083-0.75-0.083-1.135c0-4.752,3.852-8.604,8.603-8.604
	c4.709,0,8.529,3.785,8.597,8.479l9.543,32.773c4.674,0.189,4.272,1.443,4.272,7.273V67.1c0,3.227-1.321,6.133-3.435,8.248
	c1.313,0.201,2.32,0.197,2.366,0.197c0.282-0.014,9.549-0.502,9.549-5.734c0-0.51,0.413-0.922,0.922-0.922s0.922,0.412,0.922,0.922
	c0,1.375,0.443,2.479,1.356,3.373c2.488,2.438,7.482,2.361,7.534,2.361C93.787,75.531,94.192,75.938,94.203,76.447z M67.022,55.33
	l-8.147-27.982c-1.529,2.385-4.196,3.969-7.239,3.969c-2.845,0-5.36-1.389-6.927-3.518L36.693,55.33H67.022z"/>
</svg>
