<?xml version="1.0" encoding="iso-8859-1"?>
<!-- Generator: Adobe Illustrator 18.0.0, SVG Export Plug-In . SVG Version: 6.00 Build 0)  -->
<!DOCTYPE svg PUBLIC "-//W3C//DTD SVG 1.1//EN" "http://www.w3.org/Graphics/SVG/1.1/DTD/svg11.dtd">
<svg version="1.1" id="Capa_1" xmlns="http://www.w3.org/2000/svg" xmlns:xlink="http://www.w3.org/1999/xlink" x="0px" y="0px"
	 viewBox="0 0 16 16" style="enable-background:new 0 0 16 16;" xml:space="preserve">
<g id="Google_x2B_">
	<g>
		<path style="fill-rule:evenodd;clip-rule:evenodd;" d="M2,13V9H0v5c0,1.105,0.895,2,2,2h5v-2H3C2.448,14,2,13.552,2,13z M9,12V9h3
			V7H9V4H7v3H4v2h3v3H9z M2,3c0-0.552,0.448-1,1-1h4V0H2C0.895,0,0,0.895,0,2v5h2V3z M14,13c0,0.552-0.448,1-1,1H9v2h5
			c1.105,0,2-0.895,2-2V9h-2V13z M14,0H9v2h4c0.552,0,1,0.448,1,1v4h2V2C16,0.895,15.105,0,14,0z"/>
	</g>
</g>
<g>
</g>
<g>
</g>
<g>
</g>
<g>
</g>
<g>
</g>
<g>
</g>
<g>
</g>
<g>
</g>
<g>
</g>
<g>
</g>
<g>
</g>
<g>
</g>
<g>
</g>
<g>
</g>
<g>
</g>
</svg>
