<?xml version="1.0" encoding="iso-8859-1"?>
<!-- Generator: Adobe Illustrator 18.0.0, SVG Export Plug-In . SVG Version: 6.00 Build 0)  -->
<!DOCTYPE svg PUBLIC "-//W3C//DTD SVG 1.1//EN" "http://www.w3.org/Graphics/SVG/1.1/DTD/svg11.dtd">
<svg version="1.1" id="Capa_1" xmlns="http://www.w3.org/2000/svg" xmlns:xlink="http://www.w3.org/1999/xlink" x="0px" y="0px"
	 viewBox="0 0 15 19" style="enable-background:new 0 0 15 19;" xml:space="preserve">
<g>
	<path style="fill-rule:evenodd;clip-rule:evenodd;" d="M2,16h6c0-0.345,0.044-0.68,0.126-1H2V16z"/>
	<path style="fill-rule:evenodd;clip-rule:evenodd;" d="M13,12h-1c0.345,0,0.68,0.044,1,0.126V12z"/>
	<polygon style="fill-rule:evenodd;clip-rule:evenodd;" points="13,19 13,17 15,17 15,15 13,15 13,13 11,13 11,15 9,15 9,17 11,17 
		11,19 	"/>
	<path style="fill-rule:evenodd;clip-rule:evenodd;" d="M12,12H2v1h7.354C10.059,12.378,10.986,12,12,12z"/>
	<rect x="2" y="9" style="fill-rule:evenodd;clip-rule:evenodd;" width="11" height="1"/>
	<path style="fill-rule:evenodd;clip-rule:evenodd;" d="M15,0.21C15,0.094,14.908,0,14.794,0H0.206C0.092,0,0,0.093,0,0.21v18.58
		C0,18.906,0.092,19,0.206,19h9.148c-0.324-0.286-0.601-0.624-0.819-1H1V1h13v11.535c0.376,0.218,0.714,0.495,1,0.819V0.21z"/>
	<rect x="2" y="6" style="fill-rule:evenodd;clip-rule:evenodd;" width="11" height="1"/>
	<rect x="2" y="3" style="fill-rule:evenodd;clip-rule:evenodd;" width="11" height="1"/>
</g>
<g>
</g>
<g>
</g>
<g>
</g>
<g>
</g>
<g>
</g>
<g>
</g>
<g>
</g>
<g>
</g>
<g>
</g>
<g>
</g>
<g>
</g>
<g>
</g>
<g>
</g>
<g>
</g>
<g>
</g>
</svg>
