<?xml version="1.0" encoding="iso-8859-1"?>
<!-- Generator: Adobe Illustrator 18.0.0, SVG Export Plug-In . SVG Version: 6.00 Build 0)  -->
<!DOCTYPE svg PUBLIC "-//W3C//DTD SVG 1.1//EN" "http://www.w3.org/Graphics/SVG/1.1/DTD/svg11.dtd">
<svg version="1.1" id="Capa_1" xmlns="http://www.w3.org/2000/svg" xmlns:xlink="http://www.w3.org/1999/xlink" x="0px" y="0px"
	 viewBox="0 0 16 22" style="enable-background:new 0 0 16 22;" xml:space="preserve">
<g>
	<polygon style="fill-rule:evenodd;clip-rule:evenodd;" points="14,22 14,20 16,20 16,18 14,18 14,16 12,16 12,18 10,18 10,20 
		12,20 12,22 	"/>
	<path style="fill-rule:evenodd;clip-rule:evenodd;" d="M0.485,0C0.485,0,0,0,0,0.489V21.51C0,22,0.485,22,0.485,22h9.869
		C9.524,21.267,9,20.195,9,19H3v-1h6.126c0.202-0.786,0.638-1.479,1.228-2H3v-1h10c1.195,0,2.267,0.524,3,1.354V5h-4c0,0-1,0-1-1V0
		H0.485z M3,3h6v1H3V3z M3,6h6v1H3V6z M13,13H3v-1h10V13z M13,9v1H3V9H13z"/>
	<polygon style="fill-rule:evenodd;clip-rule:evenodd;" points="12,4 15.603,4 12,0.367 	"/>
</g>
<g>
</g>
<g>
</g>
<g>
</g>
<g>
</g>
<g>
</g>
<g>
</g>
<g>
</g>
<g>
</g>
<g>
</g>
<g>
</g>
<g>
</g>
<g>
</g>
<g>
</g>
<g>
</g>
<g>
</g>
</svg>
