<?xml version="1.0" encoding="iso-8859-1"?>
<!-- Generator: Adobe Illustrator 18.0.0, SVG Export Plug-In . SVG Version: 6.00 Build 0)  -->
<!DOCTYPE svg PUBLIC "-//W3C//DTD SVG 1.1//EN" "http://www.w3.org/Graphics/SVG/1.1/DTD/svg11.dtd">
<svg version="1.1" id="Capa_1" xmlns="http://www.w3.org/2000/svg" xmlns:xlink="http://www.w3.org/1999/xlink" x="0px" y="0px"
	 viewBox="0 0 22 21" style="enable-background:new 0 0 22 21;" xml:space="preserve">
<g>
	<path style="fill-rule:evenodd;clip-rule:evenodd;" d="M7.403,0H1.597C1.267,0,1,0.269,1,0.593V5h1V1h5v2h13v2h1V2.593
		C21,2.265,20.728,2,20.408,2H8V0.589C8,0.264,7.734,0,7.403,0z"/>
	<path style="fill-rule:evenodd;clip-rule:evenodd;" d="M0,6.588v13.824C0,20.737,0.262,21,0.588,21h15.766
		c-0.324-0.286-0.601-0.624-0.819-1H1V7h20v7.535c0.376,0.218,0.714,0.495,1,0.819V6.588C22,6.263,21.738,6,21.411,6H0.588
		C0.263,6,0,6.26,0,6.588z"/>
	<polygon style="fill-rule:evenodd;clip-rule:evenodd;" points="20,21 20,19 22,19 22,17 20,17 20,15 18,15 18,17 16,17 16,19 
		18,19 18,21 	"/>
</g>
<g>
</g>
<g>
</g>
<g>
</g>
<g>
</g>
<g>
</g>
<g>
</g>
<g>
</g>
<g>
</g>
<g>
</g>
<g>
</g>
<g>
</g>
<g>
</g>
<g>
</g>
<g>
</g>
<g>
</g>
</svg>
