<?xml version="1.0" encoding="iso-8859-1"?>
<!-- Generator: Adobe Illustrator 18.0.0, SVG Export Plug-In . SVG Version: 6.00 Build 0)  -->
<!DOCTYPE svg PUBLIC "-//W3C//DTD SVG 1.1//EN" "http://www.w3.org/Graphics/SVG/1.1/DTD/svg11.dtd">
<svg version="1.1" id="Capa_1" xmlns="http://www.w3.org/2000/svg" xmlns:xlink="http://www.w3.org/1999/xlink" x="0px" y="0px"
	 viewBox="0 0 21 22" style="enable-background:new 0 0 21 22;" xml:space="preserve">
<g>
	<polygon style="fill-rule:evenodd;clip-rule:evenodd;" points="16,18 14,18 14,20 16,20 16,22 18,22 18,20 20,20 20,18 18,18 
		18,16 16,16 	"/>
	<path style="fill-rule:evenodd;clip-rule:evenodd;" d="M19,8h1c0.552,0,1-0.438,1-1.003V2.003C21,1.449,20.556,1,20,1h-4v14.126
		C16.32,15.044,16.655,15,17,15c0.729,0,1.412,0.195,2,0.535V8z"/>
	<path style="fill-rule:evenodd;clip-rule:evenodd;" d="M13.993,0H1.008C0.451,0,0,0.439,0,1.002v19.995C0,21.551,0.449,22,1.008,22
		h12.985c0.108,0,0.212-0.017,0.309-0.047C13.502,21.221,13,20.169,13,19c0-1.481,0.804-2.773,2-3.465V1.002
		C15,0.449,14.551,0,13.993,0z"/>
</g>
<g>
</g>
<g>
</g>
<g>
</g>
<g>
</g>
<g>
</g>
<g>
</g>
<g>
</g>
<g>
</g>
<g>
</g>
<g>
</g>
<g>
</g>
<g>
</g>
<g>
</g>
<g>
</g>
<g>
</g>
</svg>
