<?xml version="1.0" encoding="iso-8859-1"?>
<!-- Generator: Adobe Illustrator 18.0.0, SVG Export Plug-In . SVG Version: 6.00 Build 0)  -->
<!DOCTYPE svg PUBLIC "-//W3C//DTD SVG 1.1//EN" "http://www.w3.org/Graphics/SVG/1.1/DTD/svg11.dtd">
<svg version="1.1" id="Capa_1" xmlns="http://www.w3.org/2000/svg" xmlns:xlink="http://www.w3.org/1999/xlink" x="0px" y="0px"
	 viewBox="0 0 22 21" style="enable-background:new 0 0 22 21;" xml:space="preserve">
<g>
	<path style="fill-rule:evenodd;clip-rule:evenodd;" d="M6.997,0H2.003C1.449,0,1,0.444,1,1v4h20V2.999C21,2.447,20.552,2,20.002,2
		H8V1C8,0.448,7.562,0,6.997,0z"/>
	<polygon style="fill-rule:evenodd;clip-rule:evenodd;" points="20,21 20,19 22,19 22,17 20,17 20,15 18,15 18,17 16,17 16,19 
		18,19 18,21 	"/>
	<path style="fill-rule:evenodd;clip-rule:evenodd;" d="M0,7.007v12.985C0,20.549,0.439,21,1.002,21h15.352
		C15.524,20.267,15,19.195,15,18c0-2.209,1.791-4,4-4c1.195,0,2.267,0.524,3,1.354V7.007C22,6.451,21.56,6,20.998,6H1.002
		C0.449,6,0,6.449,0,7.007z"/>
</g>
<g>
</g>
<g>
</g>
<g>
</g>
<g>
</g>
<g>
</g>
<g>
</g>
<g>
</g>
<g>
</g>
<g>
</g>
<g>
</g>
<g>
</g>
<g>
</g>
<g>
</g>
<g>
</g>
<g>
</g>
</svg>
