<?xml version="1.0" encoding="iso-8859-1"?>
<!-- Generator: Adobe Illustrator 18.0.0, SVG Export Plug-In . SVG Version: 6.00 Build 0)  -->
<!DOCTYPE svg PUBLIC "-//W3C//DTD SVG 1.1//EN" "http://www.w3.org/Graphics/SVG/1.1/DTD/svg11.dtd">
<svg version="1.1" id="Capa_1" xmlns="http://www.w3.org/2000/svg" xmlns:xlink="http://www.w3.org/1999/xlink" x="0px" y="0px"
	 viewBox="0 0 20 22.026" style="enable-background:new 0 0 20 22.026;" xml:space="preserve">
<g>
	<path style="fill-rule:evenodd;clip-rule:evenodd;" d="M1.2,7H2V4H1.2C1.2,4,0,4,0,5.5S1.2,7,1.2,7z"/>
	<path style="fill-rule:evenodd;clip-rule:evenodd;" d="M1.2,11H2V8H1.2C1.2,8,0,8,0,9.5S1.2,11,1.2,11z"/>
	<path style="fill-rule:evenodd;clip-rule:evenodd;" d="M1.2,16H2v-3H1.2c0,0-1.2,0-1.2,1.5S1.2,16,1.2,16z"/>
	<polygon style="fill-rule:evenodd;clip-rule:evenodd;" points="18,22 18,20 20,20 20,18 18,18 18,16 16,16 16,18 14,18 14,20 
		16,20 16,22 	"/>
	<path style="fill-rule:evenodd;clip-rule:evenodd;" d="M20,0H4v0.938h15.086v14.649c0.342,0.209,0.65,0.469,0.914,0.768V0z"/>
	<path style="fill-rule:evenodd;clip-rule:evenodd;" d="M3,2.455v19.089C3,21.796,3.202,22,3.462,22h9.527l1.395,0.026
		C13.536,21.292,13,20.209,13,19c0-2.209,1.791-4,4-4c0.344,0,0.679,0.044,0.998,0.125L18,14.941V2.455C18,2.204,17.798,2,17.538,2
		H3.462C3.207,2,3,2.204,3,2.455z"/>
	<path style="fill-rule:evenodd;clip-rule:evenodd;" d="M1.2,20H2v-3H1.2c0,0-1.2,0-1.2,1.5S1.2,20,1.2,20z"/>
</g>
<g>
</g>
<g>
</g>
<g>
</g>
<g>
</g>
<g>
</g>
<g>
</g>
<g>
</g>
<g>
</g>
<g>
</g>
<g>
</g>
<g>
</g>
<g>
</g>
<g>
</g>
<g>
</g>
<g>
</g>
</svg>
