<?xml version="1.0" encoding="iso-8859-1"?>
<!-- Generator: Adobe Illustrator 18.0.0, SVG Export Plug-In . SVG Version: 6.00 Build 0)  -->
<!DOCTYPE svg PUBLIC "-//W3C//DTD SVG 1.1//EN" "http://www.w3.org/Graphics/SVG/1.1/DTD/svg11.dtd">
<svg version="1.1" id="Capa_1" xmlns="http://www.w3.org/2000/svg" xmlns:xlink="http://www.w3.org/1999/xlink" x="0px" y="0px"
	 viewBox="0 0 16 22" style="enable-background:new 0 0 16 22;" xml:space="preserve">
<g>
	<path style="fill-rule:evenodd;clip-rule:evenodd;" d="M3,19h6c0-0.345,0.044-0.68,0.126-1H3V19z"/>
	<polygon style="fill-rule:evenodd;clip-rule:evenodd;" points="14,22 14,20 16,20 16,18 14,18 14,16 12,16 12,18 10,18 10,20 
		12,20 12,22 	"/>
	<path style="fill-rule:evenodd;clip-rule:evenodd;" d="M13,15H3v1h7.354C11.059,15.378,11.986,15,13,15z"/>
	<rect x="3" y="6" style="fill-rule:evenodd;clip-rule:evenodd;" width="10" height="1"/>
	<rect x="3" y="12" style="fill-rule:evenodd;clip-rule:evenodd;" width="10" height="1"/>
	<path style="fill-rule:evenodd;clip-rule:evenodd;" d="M16,4.4L11.636,0H0.485C0.485,0,0,0,0,0.489V21.51C0,22,0.485,22,0.485,22
		h9.869c-0.324-0.286-0.601-0.624-0.819-1H1V1h10v3c0,1,1,1,1,1h3v10.535c0.376,0.218,0.714,0.495,1,0.819V4.4z"/>
	<rect x="3" y="3" style="fill-rule:evenodd;clip-rule:evenodd;" width="6" height="1"/>
	<rect x="3" y="9" style="fill-rule:evenodd;clip-rule:evenodd;" width="10" height="1"/>
</g>
<g>
</g>
<g>
</g>
<g>
</g>
<g>
</g>
<g>
</g>
<g>
</g>
<g>
</g>
<g>
</g>
<g>
</g>
<g>
</g>
<g>
</g>
<g>
</g>
<g>
</g>
<g>
</g>
<g>
</g>
</svg>
