<?xml version="1.0" encoding="iso-8859-1"?>
<!-- Generator: Adobe Illustrator 18.0.0, SVG Export Plug-In . SVG Version: 6.00 Build 0)  -->
<!DOCTYPE svg PUBLIC "-//W3C//DTD SVG 1.1//EN" "http://www.w3.org/Graphics/SVG/1.1/DTD/svg11.dtd">
<svg version="1.1" id="Capa_1" xmlns="http://www.w3.org/2000/svg" xmlns:xlink="http://www.w3.org/1999/xlink" x="0px" y="0px"
	 viewBox="0 0 15 19" style="enable-background:new 0 0 15 19;" xml:space="preserve">
<g>
	<polygon style="fill-rule:evenodd;clip-rule:evenodd;" points="13,19 13,17 15,17 15,15 13,15 13,13 11,13 11,15 9,15 9,17 11,17 
		11,19 	"/>
	<path style="fill-rule:evenodd;clip-rule:evenodd;" d="M15,0.21C15,0.094,14.908,0,14.794,0H0.206C0.092,0,0,0.093,0,0.21v18.58
		C0,18.906,0.092,19,0.206,19h9.148C8.524,18.267,8,17.195,8,16H2v-1h6.126c0.202-0.786,0.638-1.479,1.228-2H2v-1h11v0.126
		c0.786,0.202,1.479,0.638,2,1.228V0.21z M13,10H2V9h11V10z M13,7H2V6h11V7z M13,4H2V3h11V4z"/>
</g>
<g>
</g>
<g>
</g>
<g>
</g>
<g>
</g>
<g>
</g>
<g>
</g>
<g>
</g>
<g>
</g>
<g>
</g>
<g>
</g>
<g>
</g>
<g>
</g>
<g>
</g>
<g>
</g>
<g>
</g>
</svg>
