<?xml version="1.0" encoding="iso-8859-1"?>
<!-- Generator: Adobe Illustrator 18.0.0, SVG Export Plug-In . SVG Version: 6.00 Build 0)  -->
<!DOCTYPE svg PUBLIC "-//W3C//DTD SVG 1.1//EN" "http://www.w3.org/Graphics/SVG/1.1/DTD/svg11.dtd">
<svg version="1.1" id="Capa_1" xmlns="http://www.w3.org/2000/svg" xmlns:xlink="http://www.w3.org/1999/xlink" x="0px" y="0px"
	 viewBox="0 0 22 22" style="enable-background:new 0 0 22 22;" xml:space="preserve">
<g>
	<path style="fill-rule:evenodd;clip-rule:evenodd;" d="M12.398,1.098l0.864-0.864C9.75-0.501,5.948,0.495,3.222,3.222
		C-0.591,7.035-1.02,12.95,1.936,17.236l-1.543,1.542l3.889,0.354l-0.353-3.889l-1.273,1.273C0.084,12.633,0.508,7.35,3.929,3.929
		C6.238,1.62,9.396,0.676,12.398,1.098z"/>
	<path style="fill-rule:evenodd;clip-rule:evenodd;" d="M20.9,2.515L17.01,2.161l0.354,3.889l1.379-1.379
		c3.218,3.928,2.994,9.734-0.672,13.4c-2.608,2.608-6.299,3.475-9.626,2.599l-0.806,0.806c3.798,1.215,8.126,0.316,11.14-2.698
		c4.057-4.057,4.282-10.496,0.675-14.818L20.9,2.515z"/>
</g>
<g>
</g>
<g>
</g>
<g>
</g>
<g>
</g>
<g>
</g>
<g>
</g>
<g>
</g>
<g>
</g>
<g>
</g>
<g>
</g>
<g>
</g>
<g>
</g>
<g>
</g>
<g>
</g>
<g>
</g>
</svg>
