<?xml version="1.0" encoding="utf-8"?>
<!-- Generator: Adobe Illustrator 16.0.0, SVG Export Plug-In . SVG Version: 6.00 Build 0)  -->
<!DOCTYPE svg PUBLIC "-//W3C//DTD SVG 1.1//EN" "http://www.w3.org/Graphics/SVG/1.1/DTD/svg11.dtd">
<svg version="1.1" id="Layer_2" xmlns="http://www.w3.org/2000/svg" xmlns:xlink="http://www.w3.org/1999/xlink" x="0px" y="0px"
	 width="100px" height="100px" viewBox="0 0 100 100" enable-background="new 0 0 100 100" xml:space="preserve">
<path d="M87.741,48.315c0,4.446-3.956,8.064-8.819,8.064l-37.477,0c0.027-1.157-0.17-2.315-0.582-3.42h30.861
	c-0.248-0.319-0.469-0.656-0.664-1.008c-0.751-1.203-1.284-2.672-1.284-4.433c0-2.328,0.93-4.17,2.068-5.552h-52.01
	c-2.322,0-4.211,2.465-4.211,5.496c0,1.66,0.578,3.133,1.473,4.142c-0.065,0.3-0.122,0.604-0.159,0.915
	c-0.387,0.893-0.623,1.829-0.714,2.774c-2.359-1.519-3.964-4.473-3.964-7.83c0-4.885,3.398-8.86,7.575-8.86h56.808
	c0.79,0,1.475,0.551,1.643,1.324c0.169,0.772-0.224,1.558-0.942,1.888c-0.036,0.017-4.202,2.008-4.202,5.705
	c0,3.673,4.14,5.566,4.182,5.584c0.027,0.013,0.047,0.036,0.073,0.05c0.489,0.117,0.995,0.2,1.526,0.2
	c3.194,0,5.793-2.26,5.793-5.039c-0.001,0-0.045-1.267-0.824-1.839c-0.765-0.565-2.077-0.346-3.04-0.065
	c-0.073,0.03-1.375,0.524-1.113,1.39c0.242,0.8-0.209,1.646-1.009,1.888c-0.8,0.241-1.646-0.209-1.889-1.009
	c-0.825-2.724,1.4-4.574,3.098-5.153c2.443-0.715,4.366-0.527,5.783,0.538C87.688,45.54,87.742,48.036,87.741,48.315z M34.456,65.89
	l4.871,9.141c-4.722-1.447-5.667,6.546-5.667,6.546l-3.606-14.429c-0.466,0.084-0.938,0.13-1.411,0.125L24.824,82.55
	c0,0-0.945-7.994-5.666-6.547l5.144-9.654c-3.145-0.794-5.524-3.504-5.814-6.821c-0.956-2.025-0.956-4.382,0-6.407
	c0.327-3.733,3.297-6.704,7.03-7.031c2.025-0.958,4.386-0.958,6.411,0c3.731,0.328,6.701,3.298,7.029,7.031
	c0.956,2.024,0.956,4.382,0,6.407C38.709,62.366,36.932,64.759,34.456,65.89z M34.478,56.325c0-3.178-2.577-5.756-5.755-5.756
	s-5.756,2.578-5.756,5.756s2.578,5.755,5.756,5.755S34.478,59.503,34.478,56.325z M28.723,53.168c-1.743,0-3.156,1.413-3.156,3.157
	c0,1.744,1.413,3.157,3.156,3.157s3.155-1.413,3.155-3.157C31.878,54.581,30.466,53.168,28.723,53.168z"/>
</svg>
