<?xml version="1.0" encoding="utf-8"?>
<!-- Generator: Adobe Illustrator 16.0.0, SVG Export Plug-In . SVG Version: 6.00 Build 0)  -->
<!DOCTYPE svg PUBLIC "-//W3C//DTD SVG 1.1//EN" "http://www.w3.org/Graphics/SVG/1.1/DTD/svg11.dtd">
<svg version="1.1" id="Layer_3" xmlns="http://www.w3.org/2000/svg" xmlns:xlink="http://www.w3.org/1999/xlink" x="0px" y="0px"
	 width="100px" height="100px" viewBox="0 0 100 100" enable-background="new 0 0 100 100" xml:space="preserve">
<path d="M65.25,80.753h-4.321L58.11,35.705h3.091v-4.567h-3.194l-0.021-0.896c0.038-0.307,0.063-0.617,0.063-0.934V19.266
	c0-3.908-2.896-7.13-6.656-7.661v-0.552c0-0.602-0.488-1.09-1.091-1.09c-0.602,0-1.089,0.488-1.089,1.09v0.552
	c-3.762,0.53-6.657,3.753-6.657,7.661v10.042c0,0.318,0.025,0.629,0.062,0.938l-0.02,0.892h-3.194v4.567h3.091l-2.07,45.049h-2.89
	v4.642h-7.161v4.642h43.439v-4.642H65.25V80.753z M50.925,21.666c0-1.505,1.22-2.725,2.726-2.725c1.505,0,2.725,1.22,2.725,2.725
	v3.582h-5.45V21.666z M44.126,54.596l0.356-7.058h11.525l0.47,7.058H44.126z M44.126,44.787l0.356-7.058h11.525l0.47,7.058H44.126z
	 M84.09,18.422v9.549L59.021,25.71v-5.78L84.09,18.422z M40.978,25.71L15.91,27.972v-9.549l25.067,1.508V25.71z"/>
</svg>
