<?xml version="1.0" encoding="utf-8"?>
<!-- Generator: Adobe Illustrator 16.0.0, SVG Export Plug-In . SVG Version: 6.00 Build 0)  -->
<!DOCTYPE svg PUBLIC "-//W3C//DTD SVG 1.1//EN" "http://www.w3.org/Graphics/SVG/1.1/DTD/svg11.dtd">
<svg version="1.1" id="Layer_2" xmlns="http://www.w3.org/2000/svg" xmlns:xlink="http://www.w3.org/1999/xlink" x="0px" y="0px"
	 width="100px" height="100px" viewBox="0 0 100 100" enable-background="new 0 0 100 100" xml:space="preserve">
<path d="M50,11.276c-11.938,0-21.65,9.868-21.65,21.998c0,4.825,2.805,9.168,5.279,12.998c1.459,2.257,2.836,4.389,3.145,5.982
	c0.869,4.499,1.367,15.169,1.371,15.276c0.035,0.746,0.648,1.333,1.396,1.333h20.918c0.385,0,0.752-0.158,1.016-0.437
	c0.264-0.28,0.4-0.655,0.379-1.038c-0.26-4.676-0.08-12.968,1.508-15.315c0.275-0.406,0.592-0.856,0.934-1.348
	c2.752-3.925,7.354-10.498,7.354-17.452C71.648,21.145,61.938,11.276,50,11.276z M62.008,49.126
	c-0.354,0.503-0.676,0.966-0.959,1.383c-2.189,3.235-2.16,11.954-2.047,15.562H40.869c-0.164-3.063-0.627-10.579-1.354-14.345
	c-0.412-2.127-1.861-4.37-3.539-6.969c-2.266-3.507-4.832-7.48-4.832-11.482c0-10.59,8.459-19.204,18.855-19.204
	s18.855,8.614,18.855,19.204C68.855,39.348,64.568,45.469,62.008,49.126z M39.176,70.939h21.648v10.825
	c0,2.036-1.318,3.745-3.143,4.37c-0.338,1.481-1.656,2.589-3.24,2.589h-8.883c-1.584,0-2.902-1.107-3.24-2.589
	c-1.824-0.625-3.143-2.334-3.143-4.37V70.939z M46.961,18.1c0.152,0.531-0.154,1.085-0.686,1.236c-9.801,2.809-9.9,13.34-9.9,13.786
	c0,0.552-0.445,1.001-0.998,1.002h-0.002c-0.551,0-0.998-0.444-1-0.995c0-0.124,0.078-12.485,11.35-15.715
	C46.252,17.262,46.809,17.568,46.961,18.1z M64,38.32c-0.197,0.219-0.469,0.33-0.742,0.33c-0.238,0-0.479-0.085-0.67-0.257
	c-0.41-0.37-0.443-1.002-0.072-1.413c3.164-3.512,0.523-7.805,0.496-7.848c-0.295-0.468-0.154-1.085,0.313-1.379
	c0.467-0.295,1.084-0.154,1.379,0.313C65.918,29.995,67.336,34.62,64,38.32z"/>
</svg>
