<?xml version="1.0" encoding="iso-8859-1"?>
<!-- Generator: Adobe Illustrator 18.0.0, SVG Export Plug-In . SVG Version: 6.00 Build 0)  -->
<!DOCTYPE svg PUBLIC "-//W3C//DTD SVG 1.1//EN" "http://www.w3.org/Graphics/SVG/1.1/DTD/svg11.dtd">
<svg version="1.1" id="Capa_1" xmlns="http://www.w3.org/2000/svg" xmlns:xlink="http://www.w3.org/1999/xlink" x="0px" y="0px"
	 viewBox="0 0 22 16" style="enable-background:new 0 0 22 16;" xml:space="preserve">
<g>
	<circle style="fill-rule:evenodd;clip-rule:evenodd;" cx="17" cy="5" r="1"/>
	<path style="fill-rule:evenodd;clip-rule:evenodd;" d="M5.778,1.5C5.901,1.5,6,1.411,6,1.3V0.7c0-0.11-0.099-0.2-0.222-0.2H4.222
		C4.099,0.5,4,0.589,4,0.7v0.6c0,0.11,0.099,0.2,0.222,0.2H5.778z"/>
	<path style="fill-rule:evenodd;clip-rule:evenodd;" d="M11.5,13c2.485,0,4.5-2.015,4.5-4.5C16,6.015,13.985,4,11.5,4S7,6.015,7,8.5
		C7,10.985,9.015,13,11.5,13z M11.5,5C13.433,5,15,6.567,15,8.5c0,1.933-1.567,3.5-3.5,3.5C9.567,12,8,10.433,8,8.5
		C8,6.567,9.567,5,11.5,5z"/>
	<path style="fill-rule:evenodd;clip-rule:evenodd;" d="M0,4v10c0,2,2,2,2,2h18c0,0,2,0,2-2V4c0-2-2-2-2-2h-3.8l-1.062-1.769
		C15.062,0.103,14.878,0,14.734,0H8.266c-0.147,0-0.33,0.107-0.404,0.231L6.8,2H2C2,2,0,2,0,4z M7.474,3l1.114-2h5.728l1.267,2
		h4.406C19.989,3,21,3,21,4.018v9.963C21,15,19.989,15,19.989,15H2.011C2.011,15,1,15,1,13.981V4.018C1,3,2.011,3,2.011,3H7.474z"/>
</g>
<g>
</g>
<g>
</g>
<g>
</g>
<g>
</g>
<g>
</g>
<g>
</g>
<g>
</g>
<g>
</g>
<g>
</g>
<g>
</g>
<g>
</g>
<g>
</g>
<g>
</g>
<g>
</g>
<g>
</g>
</svg>
