<?xml version="1.0" encoding="iso-8859-1"?>
<!-- Generator: Adobe Illustrator 18.0.0, SVG Export Plug-In . SVG Version: 6.00 Build 0)  -->
<!DOCTYPE svg PUBLIC "-//W3C//DTD SVG 1.1//EN" "http://www.w3.org/Graphics/SVG/1.1/DTD/svg11.dtd">
<svg version="1.1" id="Capa_1" xmlns="http://www.w3.org/2000/svg" xmlns:xlink="http://www.w3.org/1999/xlink" x="0px" y="0px"
	 viewBox="0 0 16 16" style="enable-background:new 0 0 16 16;" xml:space="preserve">
<g id="Camera">
	<g>
		<path style="fill-rule:evenodd;clip-rule:evenodd;" d="M8,6C6.343,6,5,7.343,5,9s1.343,3,3,3c1.657,0,3-1.343,3-3S9.657,6,8,6z
			 M8,10c-0.552,0-1-0.448-1-1s0.448-1,1-1c0.552,0,1,0.448,1,1S8.552,10,8,10z M14,2h-2c0-1.105-0.895-2-2-2H6C4.895,0,4,0.895,4,2
			H2C0.895,2,0,2.895,0,4v10c0,1.105,0.895,2,2,2h12c1.105,0,2-0.895,2-2V4C16,2.895,15.105,2,14,2z M14,13c0,0.552-0.448,1-1,1H3
			c-0.552,0-1-0.448-1-1V5c0-0.552,0.448-1,1-1h3V3c0-0.552,0.448-1,1-1h2c0.552,0,1,0.448,1,1v1h3c0.552,0,1,0.448,1,1V13z"/>
	</g>
</g>
<g>
</g>
<g>
</g>
<g>
</g>
<g>
</g>
<g>
</g>
<g>
</g>
<g>
</g>
<g>
</g>
<g>
</g>
<g>
</g>
<g>
</g>
<g>
</g>
<g>
</g>
<g>
</g>
<g>
</g>
</svg>
