<?xml version="1.0" encoding="iso-8859-1"?>
<!-- Generator: Adobe Illustrator 18.0.0, SVG Export Plug-In . SVG Version: 6.00 Build 0)  -->
<!DOCTYPE svg PUBLIC "-//W3C//DTD SVG 1.1//EN" "http://www.w3.org/Graphics/SVG/1.1/DTD/svg11.dtd">
<svg version="1.1" id="Capa_1" xmlns="http://www.w3.org/2000/svg" xmlns:xlink="http://www.w3.org/1999/xlink" x="0px" y="0px"
	 viewBox="0 0 16 16" style="enable-background:new 0 0 16 16;" xml:space="preserve">
<g id="Instagram">
	<g>
		<path style="fill-rule:evenodd;clip-rule:evenodd;" d="M14,0H2C0.895,0,0,0.895,0,2v12c0,1.105,0.895,2,2,2h12
			c1.105,0,2-0.895,2-2V2C16,0.895,15.105,0,14,0z M8,6c1.841,0,2,2,2,2s0.058,2-2,2S6,8,6,8S6.158,6,8,6z M14,13
			c0,0.552-0.448,1-1,1H3c-0.552,0-1-0.448-1-1V8c0-0.552,0.448-1,1-1h1.141C4.058,7.321,4,7.653,4,8c0,2.209,1.791,4,4,4
			c2.209,0,4-1.791,4-4c0-0.347-0.058-0.679-0.141-1H13c0.552,0,1,0.448,1,1V13z M14,4c0,0.552-0.448,1-1,1h-1c-0.552,0-1-0.448-1-1
			V3c0-0.552,0.448-1,1-1h1c0.552,0,1,0.448,1,1V4z"/>
	</g>
</g>
<g>
</g>
<g>
</g>
<g>
</g>
<g>
</g>
<g>
</g>
<g>
</g>
<g>
</g>
<g>
</g>
<g>
</g>
<g>
</g>
<g>
</g>
<g>
</g>
<g>
</g>
<g>
</g>
<g>
</g>
</svg>
