<?xml version="1.0" encoding="iso-8859-1"?>
<!-- Generator: Adobe Illustrator 18.0.0, SVG Export Plug-In . SVG Version: 6.00 Build 0)  -->
<!DOCTYPE svg PUBLIC "-//W3C//DTD SVG 1.1//EN" "http://www.w3.org/Graphics/SVG/1.1/DTD/svg11.dtd">
<svg version="1.1" id="Capa_1" xmlns="http://www.w3.org/2000/svg" xmlns:xlink="http://www.w3.org/1999/xlink" x="0px" y="0px"
	 viewBox="0 0 22 18" style="enable-background:new 0 0 22 18;" xml:space="preserve">
<g>
	<circle style="fill-rule:evenodd;clip-rule:evenodd;" cx="17.5" cy="4.5" r="1.5"/>
	<path style="fill-rule:evenodd;clip-rule:evenodd;" d="M21.86,18C21.937,18,22,17.935,22,17.855V0.145C22,0.065,21.937,0,21.86,0
		H0.141C0.063,0,0,0.065,0,0.145v17.71C0,17.935,0.063,18,0.141,18H21.86z M1,1h20v16H1V1z"/>
	<path style="fill-rule:evenodd;clip-rule:evenodd;" d="M14.909,7.765c-0.086-0.135-0.259-0.167-0.388-0.076l-2.763,1.943
		c-0.064,0.045-0.151,0.027-0.191-0.042L8.311,3.966C8.233,3.83,8.108,3.829,8.035,3.969l-0.322,0.62L1.998,15.61
		c-0.073,0.141-0.006,0.254,0.149,0.254h17.656c0.15,0,0.211-0.108,0.126-0.241L14.909,7.765z"/>
</g>
<g>
</g>
<g>
</g>
<g>
</g>
<g>
</g>
<g>
</g>
<g>
</g>
<g>
</g>
<g>
</g>
<g>
</g>
<g>
</g>
<g>
</g>
<g>
</g>
<g>
</g>
<g>
</g>
<g>
</g>
</svg>
