<?xml version="1.0" encoding="iso-8859-1"?>
<!-- Generator: Adobe Illustrator 18.0.0, SVG Export Plug-In . SVG Version: 6.00 Build 0)  -->
<!DOCTYPE svg PUBLIC "-//W3C//DTD SVG 1.1//EN" "http://www.w3.org/Graphics/SVG/1.1/DTD/svg11.dtd">
<svg version="1.1" id="Capa_1" xmlns="http://www.w3.org/2000/svg" xmlns:xlink="http://www.w3.org/1999/xlink" x="0px" y="0px"
	 viewBox="0 90 612 612" style="enable-background:new 0 90 612 612;" xml:space="preserve">
<g>
	<path d="M301.048,453.584c-7.121,0-12.824-1.947-17.108-5.87c-4.089-4.089-7.567-10.933-10.404-20.502l-20.78,4.34
		c3.088,13.547,7.873,23.562,14.354,30.044s15.912,10.738,28.263,12.769v19h16.552v-19.556c10.654-2.837,19.167-8.318,25.509-16.441
		c6.426-8.179,9.653-17.637,9.653-28.347c0-10.905-3.561-20.196-10.682-27.874c-2.531-2.837-6.259-5.786-11.239-8.846
		c-4.979-3.06-11.294-6.315-18.916-9.792c-8.818-3.978-14.688-7.4-17.581-10.293c-2.977-2.949-4.451-6.676-4.451-11.155
		c0-4.924,1.836-9.013,5.48-12.296c3.644-3.283,8.262-4.924,13.798-4.924c8.957,0,16.19,5.035,21.726,15.133l18.443-10.293
		c-4.284-7.678-8.791-13.381-13.52-17.108c-4.729-3.728-10.793-6.176-18.249-7.372v-18.555h-16.552v18.527
		c-5.091,1.335-9.681,3.143-13.714,5.48c-3.978,2.337-7.372,5.091-10.126,8.29s-4.84,6.704-6.287,10.627
		c-1.447,3.895-2.17,8.123-2.17,12.657c0,9.569,3.06,17.804,9.18,24.675c3.839,4.59,11.878,9.653,24.091,15.133
		c5.925,2.698,10.793,5.202,14.605,7.511c3.811,2.309,6.704,4.367,8.651,6.203c3.839,3.783,5.758,8.791,5.758,15.022
		c0,6.982-2.309,12.685-6.899,17.108C313.789,451.33,307.975,453.584,301.048,453.584z"/>
	<path d="M0,243v306h612V243H0z M584.182,521.182H27.818V270.818h556.364V521.182z"/>
</g>
</svg>
