<?xml version="1.0" encoding="iso-8859-1"?>
<!-- Generator: Adobe Illustrator 18.0.0, SVG Export Plug-In . SVG Version: 6.00 Build 0)  -->
<!DOCTYPE svg PUBLIC "-//W3C//DTD SVG 1.1//EN" "http://www.w3.org/Graphics/SVG/1.1/DTD/svg11.dtd">
<svg version="1.1" id="Capa_1" xmlns="http://www.w3.org/2000/svg" xmlns:xlink="http://www.w3.org/1999/xlink" x="0px" y="0px"
	 viewBox="0 0 9.296 22" style="enable-background:new 0 0 9.296 22;" xml:space="preserve">
<path style="fill-rule:evenodd;clip-rule:evenodd;" d="M9.154,6.5C9.661,2.457,8.648,0,8.648,0h-8c0,0-1.013,2.457-0.506,6.5
	c0.5,3.991,3.557,4.488,3.775,7.385V20c0,0,0,0.476-0.411,0.654c-0.411,0.178-2.824,0.371-2.824,0.861S2.723,22,4.632,22
	c1.909,0,3.95,0.005,3.95-0.485s-2.413-0.683-2.824-0.861C5.348,20.476,5.348,20,5.348,20l0.024-6C5.517,11,8.648,10.543,9.154,6.5z
	"/>
<g>
</g>
<g>
</g>
<g>
</g>
<g>
</g>
<g>
</g>
<g>
</g>
<g>
</g>
<g>
</g>
<g>
</g>
<g>
</g>
<g>
</g>
<g>
</g>
<g>
</g>
<g>
</g>
<g>
</g>
</svg>
