<?xml version="1.0" encoding="utf-8"?>
<!-- Generator: Adobe Illustrator 16.0.0, SVG Export Plug-In . SVG Version: 6.00 Build 0)  -->
<!DOCTYPE svg PUBLIC "-//W3C//DTD SVG 1.1//EN" "http://www.w3.org/Graphics/SVG/1.1/DTD/svg11.dtd">
<svg version="1.1" id="Layer_2" xmlns="http://www.w3.org/2000/svg" xmlns:xlink="http://www.w3.org/1999/xlink" x="0px" y="0px"
	 width="100px" height="100px" viewBox="0 0 100 100" enable-background="new 0 0 100 100" xml:space="preserve">
<path d="M87.185,77.145L53.021,17.974c-0.625-1.083-1.781-1.75-3.031-1.75s-2.406,0.667-3.031,1.75L12.626,77.439
	c-0.625,1.083-0.625,2.417,0,3.5s1.781,1.75,3.031,1.75h68.666c0.007,0,0.015,0.001,0.02,0c1.934,0,3.5-1.567,3.5-3.5
	C87.843,78.426,87.599,77.72,87.185,77.145z M21.72,75.689L49.99,26.724l28.271,48.966H21.72z M41.731,46.669l-0.414-1.803
	l-0.413,1.803c-0.703,3.063,0.158,6.212,2.298,8.485c-0.68-0.158-1.387-0.244-2.112-0.244c-3.234,0-6.192,1.639-7.913,4.385
	l-0.982,1.567l1.566-0.982c1.35-0.846,2.905-1.292,4.5-1.292c4.679,0,8.486,3.807,8.486,8.486c0,1.595-0.447,3.15-1.292,4.499
	l-0.982,1.567l1.567-0.982c1.929-1.209,3.308-3.029,3.96-5.127c0.652,2.098,2.031,3.918,3.96,5.127l1.567,0.982l-0.982-1.567
	c-0.845-1.349-1.292-2.904-1.292-4.499c0-4.68,3.808-8.486,8.486-8.486c1.595,0,3.15,0.446,4.499,1.292l1.567,0.982l-0.982-1.567
	c-1.721-2.746-4.679-4.385-7.913-4.385c-0.726,0-1.433,0.086-2.112,0.244c2.14-2.273,3.001-5.422,2.298-8.485l-0.413-1.803
	l-0.414,1.803c-0.355,1.552-1.141,2.968-2.268,4.096C54.397,52.367,52.267,53.25,50,53.25s-4.397-0.883-6.001-2.485
	C42.872,49.637,42.087,48.221,41.731,46.669z M50,58.099c0.721,0,1.428-0.083,2.112-0.241C51.158,58.873,50.427,60.1,50,61.461
	c-0.427-1.361-1.158-2.588-2.112-3.604C48.572,58.016,49.279,58.099,50,58.099z"/>
</svg>
