<?xml version="1.0" encoding="iso-8859-1"?>
<!-- Generator: Adobe Illustrator 18.0.0, SVG Export Plug-In . SVG Version: 6.00 Build 0)  -->
<!DOCTYPE svg PUBLIC "-//W3C//DTD SVG 1.1//EN" "http://www.w3.org/Graphics/SVG/1.1/DTD/svg11.dtd">
<svg version="1.1" id="Capa_1" xmlns="http://www.w3.org/2000/svg" xmlns:xlink="http://www.w3.org/1999/xlink" x="0px" y="0px"
	 viewBox="0 0 22 18.5" style="enable-background:new 0 0 22 18.5;" xml:space="preserve">
<g>
	<path style="fill-rule:evenodd;clip-rule:evenodd;" d="M0,8.509V11v5.214C0,18.5,2.256,18.5,2.256,18.5h17.487
		c0,0,2.256,0,2.256-2.286V11V8.509C22,6.5,20.308,6.5,20.308,6.5H1.692C1.692,6.5,0,6.5,0,8.509z M20.872,8.509v2.816
		c-0.683,0.439-1.555,0.89-2.256,0.89c-1.369,0-2.55-1.714-3.949-1.714c-1.398,0-2.503,1.714-3.949,1.714
		c-1.445,0-2.439-1.714-3.949-1.714c-1.51,0-2.297,1.714-3.667,1.714c-0.651,0-1.384-0.387-1.974-0.794V8.509
		c0-1.004,0.564-1.004,0.564-1.004h18.615C20.308,7.504,20.872,7.504,20.872,8.509z"/>
	<path style="fill-rule:evenodd;clip-rule:evenodd;" d="M5.495,0C4.688,0.951,5,1.495,5.495,1.5C6.003,1.505,6.316,0.951,5.495,0z"
		/>
	<rect x="5" y="2" style="fill-rule:evenodd;clip-rule:evenodd;" width="1" height="4"/>
	<rect x="10.5" y="2" style="fill-rule:evenodd;clip-rule:evenodd;" width="1" height="4"/>
	<path style="fill-rule:evenodd;clip-rule:evenodd;" d="M16.495,0c-0.806,0.951-0.495,1.495,0,1.5
		C17.003,1.505,17.316,0.951,16.495,0z"/>
	<rect x="16" y="2" style="fill-rule:evenodd;clip-rule:evenodd;" width="1" height="4"/>
	<path style="fill-rule:evenodd;clip-rule:evenodd;" d="M10.995,0c-0.806,0.951-0.495,1.495,0,1.5
		C11.503,1.505,11.816,0.951,10.995,0z"/>
</g>
<g>
</g>
<g>
</g>
<g>
</g>
<g>
</g>
<g>
</g>
<g>
</g>
<g>
</g>
<g>
</g>
<g>
</g>
<g>
</g>
<g>
</g>
<g>
</g>
<g>
</g>
<g>
</g>
<g>
</g>
</svg>
