<?xml version="1.0" encoding="iso-8859-1"?>
<!-- Generator: Adobe Illustrator 18.0.0, SVG Export Plug-In . SVG Version: 6.00 Build 0)  -->
<!DOCTYPE svg PUBLIC "-//W3C//DTD SVG 1.1//EN" "http://www.w3.org/Graphics/SVG/1.1/DTD/svg11.dtd">
<svg version="1.1" id="Capa_1" xmlns="http://www.w3.org/2000/svg" xmlns:xlink="http://www.w3.org/1999/xlink" x="0px" y="0px"
	 viewBox="0 0 16 16" style="enable-background:new 0 0 16 16;" xml:space="preserve">
<g id="User">
	<g>
		<path style="fill-rule:evenodd;clip-rule:evenodd;" d="M16,12c0-1.634-1.962-3.037-4.77-3.658C11.709,7.683,12,6.878,12,6V4
			c0-2.209-1.791-4-4-4C5.791,0,4,1.791,4,4v2c0,0.878,0.291,1.683,0.77,2.342C1.962,8.963,0,10.366,0,12
			c0,0.351,0.1,0.69,0.27,1.014C0.103,13.306,0,13.64,0,14c0,1.105,0.895,2,2,2h12c1.105,0,2-0.895,2-2
			c0-0.36-0.103-0.694-0.27-0.986C15.9,12.69,16,12.351,16,12z M6,4c0-1.105,0.895-2,2-2c1.105,0,2,0.895,2,2v2c0,1.105-0.895,2-2,2
			C6.895,8,6,7.105,6,6V4z M14,14H2v-2c0-1.105,2.686-2,6-2s6,0.895,6,2V14z"/>
	</g>
</g>
<g>
</g>
<g>
</g>
<g>
</g>
<g>
</g>
<g>
</g>
<g>
</g>
<g>
</g>
<g>
</g>
<g>
</g>
<g>
</g>
<g>
</g>
<g>
</g>
<g>
</g>
<g>
</g>
<g>
</g>
</svg>
