<?xml version="1.0" encoding="iso-8859-1"?>
<!-- Generator: Adobe Illustrator 18.0.0, SVG Export Plug-In . SVG Version: 6.00 Build 0)  -->
<!DOCTYPE svg PUBLIC "-//W3C//DTD SVG 1.1//EN" "http://www.w3.org/Graphics/SVG/1.1/DTD/svg11.dtd">
<svg version="1.1" id="Capa_1" xmlns="http://www.w3.org/2000/svg" xmlns:xlink="http://www.w3.org/1999/xlink" x="0px" y="0px"
	 viewBox="0 0 16 16" style="enable-background:new 0 0 16 16;" xml:space="preserve">
<g id="Friends">
	<g>
		<path style="fill-rule:evenodd;clip-rule:evenodd;" d="M14.619,11.108c-0.679-0.409-1.56-0.733-2.58-0.918
			C12.627,9.642,13,8.867,13,8V7c0-1.657-1.343-3-3-3C9.64,4,9.299,4.074,8.98,4.19C8.984,4.126,9,4.065,9,4V3c0-1.657-1.343-3-3-3
			S3,1.343,3,3v1c0,0.867,0.373,1.642,0.961,2.19C2.941,6.375,2.06,6.698,1.381,7.108C0.581,7.369,0,8.113,0,9v1
			c0,1.105,0.895,2,2,2h2.296C4.12,12.296,4,12.63,4,13v1c0,1.105,0.895,2,2,2h8c1.105,0,2-0.895,2-2v-1
			C16,12.113,15.419,11.369,14.619,11.108z M9,7c0-0.552,0.448-1,1-1s1,0.448,1,1v2c0,0.552-0.448,1-1,1S9,9.552,9,9V7z M5,3
			c0-0.552,0.448-1,1-1s1,0.448,1,1v2c0,0.552-0.448,1-1,1S5,5.552,5,5V3z M2,10c0,0,0.281-2,4-2c0.372,0,0.7,0.025,1.006,0.06
			C7.022,8.812,7.323,9.483,7.794,10H2z M6,14c0,0,0.281-2,4-2s4,2,4,2H6z"/>
	</g>
</g>
<g>
</g>
<g>
</g>
<g>
</g>
<g>
</g>
<g>
</g>
<g>
</g>
<g>
</g>
<g>
</g>
<g>
</g>
<g>
</g>
<g>
</g>
<g>
</g>
<g>
</g>
<g>
</g>
<g>
</g>
</svg>
