<?xml version="1.0" encoding="iso-8859-1"?>
<!-- Generator: Adobe Illustrator 18.0.0, SVG Export Plug-In . SVG Version: 6.00 Build 0)  -->
<!DOCTYPE svg PUBLIC "-//W3C//DTD SVG 1.1//EN" "http://www.w3.org/Graphics/SVG/1.1/DTD/svg11.dtd">
<svg version="1.1" id="Capa_1" xmlns="http://www.w3.org/2000/svg" xmlns:xlink="http://www.w3.org/1999/xlink" x="0px" y="0px"
	 viewBox="0 0 16 16" style="enable-background:new 0 0 16 16;" xml:space="preserve">
<g id="Film">
	<g>
		<path style="fill-rule:evenodd;clip-rule:evenodd;" d="M14,0H2C0.895,0,0,0.895,0,2v12c0,1.105,0.895,2,2,2h12
			c1.105,0,2-0.895,2-2V2C16,0.895,15.105,0,14,0z M12,2h1c0.552,0,1,0.448,1,1v2h-2V2z M14,6v4h-2V6H14z M6,2h4v5H6V2z M4,14H3
			c-0.552,0-1-0.448-1-1v-2h2V14z M4,10H2V6h2V10z M4,5H2V3c0-0.552,0.448-1,1-1h1V5z M10,14H6V9h4V14z M13,14h-1v-3h2v2
			C14,13.552,13.552,14,13,14z"/>
	</g>
</g>
<g>
</g>
<g>
</g>
<g>
</g>
<g>
</g>
<g>
</g>
<g>
</g>
<g>
</g>
<g>
</g>
<g>
</g>
<g>
</g>
<g>
</g>
<g>
</g>
<g>
</g>
<g>
</g>
<g>
</g>
</svg>
