<?xml version="1.0" encoding="iso-8859-1"?>
<!-- Generator: Adobe Illustrator 18.0.0, SVG Export Plug-In . SVG Version: 6.00 Build 0)  -->
<!DOCTYPE svg PUBLIC "-//W3C//DTD SVG 1.1//EN" "http://www.w3.org/Graphics/SVG/1.1/DTD/svg11.dtd">
<svg version="1.1" id="Capa_1" xmlns="http://www.w3.org/2000/svg" xmlns:xlink="http://www.w3.org/1999/xlink" x="0px" y="0px"
	 viewBox="0 0 22 22" style="enable-background:new 0 0 22 22;" xml:space="preserve">
<path style="fill-rule:evenodd;clip-rule:evenodd;" d="M22,11c0-6.075-4.925-11-11-11C4.925,0,0,4.925,0,11c0,6.075,4.925,11,11,11
	C17.075,22,22,17.075,22,11z M17.953,15.21l-3.786-3.19l0.921-0.52l3.356,2.697L17.953,15.21z M3.5,7l7.5,4.5L18.5,7v1L11,12.5
	L3.5,8V7z M3.658,15.007l-0.49-1.013l3.355-2.697l0.921,0.52L3.658,15.007z"/>
<g>
</g>
<g>
</g>
<g>
</g>
<g>
</g>
<g>
</g>
<g>
</g>
<g>
</g>
<g>
</g>
<g>
</g>
<g>
</g>
<g>
</g>
<g>
</g>
<g>
</g>
<g>
</g>
<g>
</g>
</svg>
