<?xml version="1.0" encoding="iso-8859-1"?>
<!-- Generator: Adobe Illustrator 18.0.0, SVG Export Plug-In . SVG Version: 6.00 Build 0)  -->
<!DOCTYPE svg PUBLIC "-//W3C//DTD SVG 1.1//EN" "http://www.w3.org/Graphics/SVG/1.1/DTD/svg11.dtd">
<svg version="1.1" id="Capa_1" xmlns="http://www.w3.org/2000/svg" xmlns:xlink="http://www.w3.org/1999/xlink" x="0px" y="0px"
	 viewBox="0 90 612 612" style="enable-background:new 0 90 612 612;" xml:space="preserve">
<g>
	<circle cx="542.455" cy="396" r="27.818"/>
	<path d="M55.664,357.973c0-2.059-2.698-3.7-6.148-3.7h-1.641c-3.394,0-6.148,1.669-6.148,3.7v76.055c0,2.059,2.698,3.7,6.148,3.7
		h1.641c3.394,0,6.148-1.669,6.148-3.7V357.973z"/>
	<path d="M556.364,549C612,549,612,493.364,612,493.364V298.636c0,0,0-55.636-55.636-55.636H55.636C0,243,0,298.636,0,298.636
		v194.727c0,0,0,55.636,55.636,55.636H556.364z M500.727,270.818h55.636c13.408,0,19.667,4.173,23.812,12.435
		c2.921,5.87,4.006,12.351,4.006,15.383v194.727c0,3.032-1.085,9.514-4.006,15.383c-4.145,8.262-10.404,12.435-23.812,12.435
		h-55.636V270.818z M97.364,270.818h375.545v250.364H97.364V270.818z M31.824,508.747c-2.921-5.87-4.006-12.351-4.006-15.383
		V298.636c0-3.032,1.085-9.514,4.006-15.383c4.145-8.262,10.404-12.435,23.812-12.435h13.909v250.364H55.636
		C42.228,521.182,35.969,517.009,31.824,508.747z"/>
</g>
</svg>
