<?xml version="1.0" encoding="iso-8859-1"?>
<!-- Generator: Adobe Illustrator 18.0.0, SVG Export Plug-In . SVG Version: 6.00 Build 0)  -->
<!DOCTYPE svg PUBLIC "-//W3C//DTD SVG 1.1//EN" "http://www.w3.org/Graphics/SVG/1.1/DTD/svg11.dtd">
<svg version="1.1" id="Capa_1" xmlns="http://www.w3.org/2000/svg" xmlns:xlink="http://www.w3.org/1999/xlink" x="0px" y="0px"
	 viewBox="0 0 22.001 17" style="enable-background:new 0 0 22.001 17;" xml:space="preserve">
<g>
	<circle style="fill-rule:evenodd;clip-rule:evenodd;" cx="18.001" cy="13" r="1"/>
	<circle style="fill-rule:evenodd;clip-rule:evenodd;" cx="18.001" cy="7" r="1"/>
	<path style="fill-rule:evenodd;clip-rule:evenodd;" d="M19.001,3.154C19.001,3.069,18.927,3,18.834,3h-7.666
		c-0.092,0-0.167,0.069-0.167,0.154v1.693C11.001,4.931,11.075,5,11.168,5h7.666c0.092,0,0.167-0.069,0.167-0.154V3.154z"/>
	<path style="fill-rule:evenodd;clip-rule:evenodd;" d="M1.601,2h0.4V1h-1c0,0-1.119,0-0.991,7.5C0.138,16,1.001,16,1.001,16h1v-1
		h-0.4c0,0-0.6,0.31-0.6-6.5C1.001,1.69,1.601,2,1.601,2z"/>
	<path style="fill-rule:evenodd;clip-rule:evenodd;" d="M7.354,17c0,0,1.647,0,1.647-1.375V1.375C9.001,0,7.354,0,7.354,0H4.648
		c0,0-1.647,0-1.647,1.375v14.249C3.001,17,4.648,17,4.648,17H7.354z M4.001,15.236V1.764C4.001,1,4.79,1,4.79,1h2.423
		c0,0,0.788,0,0.788,0.764v13.472C8.001,16,7.213,16,7.213,16H4.79C4.79,16,4.001,16,4.001,15.236z"/>
	<circle style="fill-rule:evenodd;clip-rule:evenodd;" cx="18.001" cy="10" r="1"/>
	<circle style="fill-rule:evenodd;clip-rule:evenodd;" cx="15.001" cy="7" r="1"/>
	<circle style="fill-rule:evenodd;clip-rule:evenodd;" cx="12.001" cy="13" r="1"/>
	<path style="fill-rule:evenodd;clip-rule:evenodd;" d="M10.001,16h10.749c0,0,1.251,0,1.251-7.5S20.751,1,20.751,1H10.001v1H20.22
		c0,0,0.805,0,0.805,6.5c0,6.5-0.805,6.5-0.805,6.5H10.001V16z"/>
	<circle style="fill-rule:evenodd;clip-rule:evenodd;" cx="12.001" cy="10" r="1"/>
	<circle style="fill-rule:evenodd;clip-rule:evenodd;" cx="12.001" cy="7" r="1"/>
	<circle style="fill-rule:evenodd;clip-rule:evenodd;" cx="15.001" cy="10" r="1"/>
	<circle style="fill-rule:evenodd;clip-rule:evenodd;" cx="15.001" cy="13" r="1"/>
</g>
<g>
</g>
<g>
</g>
<g>
</g>
<g>
</g>
<g>
</g>
<g>
</g>
<g>
</g>
<g>
</g>
<g>
</g>
<g>
</g>
<g>
</g>
<g>
</g>
<g>
</g>
<g>
</g>
<g>
</g>
</svg>
