<?xml version="1.0" encoding="iso-8859-1"?>
<!-- Generator: Adobe Illustrator 18.0.0, SVG Export Plug-In . SVG Version: 6.00 Build 0)  -->
<!DOCTYPE svg PUBLIC "-//W3C//DTD SVG 1.1//EN" "http://www.w3.org/Graphics/SVG/1.1/DTD/svg11.dtd">
<svg version="1.1" id="Capa_1" xmlns="http://www.w3.org/2000/svg" xmlns:xlink="http://www.w3.org/1999/xlink" x="0px" y="0px"
	 viewBox="0 0 22.001 17" style="enable-background:new 0 0 22.001 17;" xml:space="preserve">
<g>
	<path style="fill-rule:evenodd;clip-rule:evenodd;" d="M7.354,17c0,0,1.647,0,1.647-1.375V1.375C9.001,0,7.354,0,7.354,0H4.648
		c0,0-1.647,0-1.647,1.375v14.249C3.001,17,4.648,17,4.648,17H7.354z"/>
	<path style="fill-rule:evenodd;clip-rule:evenodd;" d="M1.001,16h1V1h-1c0,0-1.119,0-0.991,7.5C0.138,16,1.001,16,1.001,16z"/>
	<path style="fill-rule:evenodd;clip-rule:evenodd;" d="M22.001,8.5c0-7.5-1.251-7.5-1.251-7.5H10.001v15h10.749
		C20.751,16,22.001,16,22.001,8.5z M12.001,14c-0.552,0-1-0.448-1-1c0-0.552,0.448-1,1-1c0.552,0,1,0.448,1,1
		C13.001,13.552,12.554,14,12.001,14z M12.001,11c-0.552,0-1-0.448-1-1c0-0.552,0.448-1,1-1c0.552,0,1,0.448,1,1
		C13.001,10.552,12.554,11,12.001,11z M12.001,8c-0.552,0-1-0.448-1-1c0-0.552,0.448-1,1-1c0.552,0,1,0.448,1,1
		C13.001,7.552,12.554,8,12.001,8z M15.001,14c-0.552,0-1-0.448-1-1c0-0.552,0.448-1,1-1c0.552,0,1,0.448,1,1
		C16.001,13.552,15.554,14,15.001,14z M15.001,11c-0.552,0-1-0.448-1-1c0-0.552,0.448-1,1-1c0.552,0,1,0.448,1,1
		C16.001,10.552,15.554,11,15.001,11z M15.001,8c-0.552,0-1-0.448-1-1c0-0.552,0.448-1,1-1c0.552,0,1,0.448,1,1
		C16.001,7.552,15.554,8,15.001,8z M18.001,14c-0.552,0-1-0.448-1-1c0-0.552,0.448-1,1-1c0.552,0,1,0.448,1,1
		C19.001,13.552,18.554,14,18.001,14z M18.001,11c-0.552,0-1-0.448-1-1c0-0.552,0.448-1,1-1c0.552,0,1,0.448,1,1
		C19.001,10.552,18.554,11,18.001,11z M18.001,8c-0.552,0-1-0.448-1-1c0-0.552,0.448-1,1-1c0.552,0,1,0.448,1,1
		C19.001,7.552,18.554,8,18.001,8z M19.001,4.846C19.001,4.931,18.926,5,18.834,5h-7.666c-0.093,0-0.167-0.069-0.167-0.154V3.154
		C11.001,3.069,11.076,3,11.168,3h7.666c0.093,0,0.167,0.069,0.167,0.154V4.846z"/>
</g>
<g>
</g>
<g>
</g>
<g>
</g>
<g>
</g>
<g>
</g>
<g>
</g>
<g>
</g>
<g>
</g>
<g>
</g>
<g>
</g>
<g>
</g>
<g>
</g>
<g>
</g>
<g>
</g>
<g>
</g>
</svg>
