<?xml version="1.0" encoding="iso-8859-1"?>
<!-- Generator: Adobe Illustrator 18.0.0, SVG Export Plug-In . SVG Version: 6.00 Build 0)  -->
<!DOCTYPE svg PUBLIC "-//W3C//DTD SVG 1.1//EN" "http://www.w3.org/Graphics/SVG/1.1/DTD/svg11.dtd">
<svg version="1.1" id="Capa_1" xmlns="http://www.w3.org/2000/svg" xmlns:xlink="http://www.w3.org/1999/xlink" x="0px" y="0px"
	 viewBox="0 0 22 22" style="enable-background:new 0 0 22 22;" xml:space="preserve">
<g>
	<path style="fill-rule:evenodd;clip-rule:evenodd;" d="M0,22h6v-6H0V22z M1,17h4v4H1V17z"/>
	<path style="fill-rule:evenodd;clip-rule:evenodd;" d="M0,14h6V8H0V14z M1,9h4v4H1V9z"/>
	<path style="fill-rule:evenodd;clip-rule:evenodd;" d="M6,0H0v6h6V0z M5,5H1V1h4V5z"/>
	<path style="fill-rule:evenodd;clip-rule:evenodd;" d="M22,0h-6v6h6V0z M21,5h-4V1h4V5z"/>
	<path style="fill-rule:evenodd;clip-rule:evenodd;" d="M16,14h6V8h-6V14z M17,9h4v4h-4V9z"/>
	<path style="fill-rule:evenodd;clip-rule:evenodd;" d="M16,22h6v-6h-6V22z M17,17h4v4h-4V17z"/>
	<path style="fill-rule:evenodd;clip-rule:evenodd;" d="M14,0H8v6h6V0z M13,5H9V1h4V5z"/>
	<path style="fill-rule:evenodd;clip-rule:evenodd;" d="M8,22h6v-6H8V22z M9,17h4v4H9V17z"/>
	<path style="fill-rule:evenodd;clip-rule:evenodd;" d="M8,14h6V8H8V14z M9,9h4v4H9V9z"/>
</g>
<g>
</g>
<g>
</g>
<g>
</g>
<g>
</g>
<g>
</g>
<g>
</g>
<g>
</g>
<g>
</g>
<g>
</g>
<g>
</g>
<g>
</g>
<g>
</g>
<g>
</g>
<g>
</g>
<g>
</g>
</svg>
