<?xml version="1.0" encoding="iso-8859-1"?>
<!-- Generator: Adobe Illustrator 18.0.0, SVG Export Plug-In . SVG Version: 6.00 Build 0)  -->
<!DOCTYPE svg PUBLIC "-//W3C//DTD SVG 1.1//EN" "http://www.w3.org/Graphics/SVG/1.1/DTD/svg11.dtd">
<svg version="1.1" id="Capa_1" xmlns="http://www.w3.org/2000/svg" xmlns:xlink="http://www.w3.org/1999/xlink" x="0px" y="0px"
	 viewBox="0 0 12 22" style="enable-background:new 0 0 12 22;" xml:space="preserve">
<g>
	<ellipse style="fill-rule:evenodd;clip-rule:evenodd;" cx="6" cy="19.5" rx="0.923" ry="1"/>
	<path style="fill-rule:evenodd;clip-rule:evenodd;" d="M8.103,1.5H3.897c-0.113,0-0.204,0.097-0.204,0.221V1.78
		c0,0.122,0.092,0.221,0.204,0.221h4.207c0.113,0,0.204-0.097,0.204-0.221V1.721C8.308,1.599,8.215,1.5,8.103,1.5z"/>
	<path style="fill-rule:evenodd;clip-rule:evenodd;" d="M10.154,22c0,0,1.846,0,1.846-2V2c0-2-1.846-2-1.846-2H1.846
		C1.846,0,0,0,0,2v18c0,2,1.846,2,1.846,2H10.154z M0.923,2c0-0.482,0.138-0.707,0.413-0.856C1.531,1.039,1.746,1,1.846,1h8.308
		c0.1,0,0.315,0.039,0.51,0.144C10.939,1.293,11.077,1.518,11.077,2v0.5H0.923V2z M0.923,3.5h10.154V17H0.923V3.5z M0.923,20v-2
		h10.154v2c0,0.482-0.138,0.707-0.413,0.856C10.469,20.961,10.254,21,10.154,21H1.846c-0.1,0-0.315-0.039-0.51-0.144
		C1.061,20.707,0.923,20.482,0.923,20z"/>
</g>
<g>
</g>
<g>
</g>
<g>
</g>
<g>
</g>
<g>
</g>
<g>
</g>
<g>
</g>
<g>
</g>
<g>
</g>
<g>
</g>
<g>
</g>
<g>
</g>
<g>
</g>
<g>
</g>
<g>
</g>
</svg>
