<?xml version="1.0" encoding="iso-8859-1"?>
<!-- Generator: Adobe Illustrator 18.0.0, SVG Export Plug-In . SVG Version: 6.00 Build 0)  -->
<!DOCTYPE svg PUBLIC "-//W3C//DTD SVG 1.1//EN" "http://www.w3.org/Graphics/SVG/1.1/DTD/svg11.dtd">
<svg version="1.1" id="Capa_1" xmlns="http://www.w3.org/2000/svg" xmlns:xlink="http://www.w3.org/1999/xlink" x="0px" y="0px"
	 viewBox="0 0 12 20" style="enable-background:new 0 0 12 20;" xml:space="preserve">
<g>
	<path style="fill-rule:evenodd;clip-rule:evenodd;" d="M0.5,8C0,8,0,8.502,0,8.502v2.867c0,1.281,0.562,4.985,5.5,5.219V19H1.9v1h8
		v-1H6.5v-2.412c4.938-0.234,5.5-3.938,5.5-5.219V8.661C12,8.661,12.013,8,11.504,8c-0.509,0-0.509,0.661-0.509,0.661v2.646
		c0,1.323-0.6,4.31-4.996,4.31c-4.396,0-4.998-2.987-4.998-4.31V8.502C1.002,8.502,1,8,0.5,8z"/>
	<path style="fill-rule:evenodd;clip-rule:evenodd;" d="M9,10.4V2.6C9,2.6,9,0,6,0C3,0,3,2.6,3,2.6v7.8c0,0,0,2.6,3,2.6
		C9,13,9,10.4,9,10.4z M4,10.625v-8.25C4,2.375,4,1,6,1c2,0,2,1.375,2,1.375v8.25C8,10.625,8,12,6,12C4,12,4,10.625,4,10.625z"/>
</g>
<g>
</g>
<g>
</g>
<g>
</g>
<g>
</g>
<g>
</g>
<g>
</g>
<g>
</g>
<g>
</g>
<g>
</g>
<g>
</g>
<g>
</g>
<g>
</g>
<g>
</g>
<g>
</g>
<g>
</g>
</svg>
