<?xml version="1.0" encoding="iso-8859-1"?>
<!-- Generator: Adobe Illustrator 18.0.0, SVG Export Plug-In . SVG Version: 6.00 Build 0)  -->
<!DOCTYPE svg PUBLIC "-//W3C//DTD SVG 1.1//EN" "http://www.w3.org/Graphics/SVG/1.1/DTD/svg11.dtd">
<svg version="1.1" id="Capa_1" xmlns="http://www.w3.org/2000/svg" xmlns:xlink="http://www.w3.org/1999/xlink" x="0px" y="0px"
	 viewBox="0 0 22 22" style="enable-background:new 0 0 22 22;" xml:space="preserve">
<path style="fill-rule:evenodd;clip-rule:evenodd;" d="M20,18c0,0,2,0,2-2V2c0-2-2-2-2-2H2c0,0-2,0-2,2v14c0,2,2,2,2,2h5.8v2L6,22
	h10l-2.2-2v-2H20z M2,14c0,0-1,0-1-1.04V2.04C1,1,2,1,2,1h18c0,0,1,0,1,1.04v10.92C21,14,20,14,20,14H2z"/>
<g>
</g>
<g>
</g>
<g>
</g>
<g>
</g>
<g>
</g>
<g>
</g>
<g>
</g>
<g>
</g>
<g>
</g>
<g>
</g>
<g>
</g>
<g>
</g>
<g>
</g>
<g>
</g>
<g>
</g>
</svg>
