<?xml version="1.0" encoding="utf-8"?>
<!-- Generator: Adobe Illustrator 16.0.0, SVG Export Plug-In . SVG Version: 6.00 Build 0)  -->
<!DOCTYPE svg PUBLIC "-//W3C//DTD SVG 1.1//EN" "http://www.w3.org/Graphics/SVG/1.1/DTD/svg11.dtd">
<svg version="1.1" id="Layer_2" xmlns="http://www.w3.org/2000/svg" xmlns:xlink="http://www.w3.org/1999/xlink" x="0px" y="0px"
	 width="100px" height="100px" viewBox="0 0 100 100" enable-background="new 0 0 100 100" xml:space="preserve">
<path d="M73.5,12.875h-46c-2.206,0-4,1.794-4,4v66.249c0,2.206,1.794,4,4,4h46c2.206,0,4-1.794,4-4V16.875
	C77.5,14.67,75.706,12.875,73.5,12.875z M75.5,83.125c0,1.103-0.897,2-2,2h-46c-1.103,0-2-0.897-2-2V16.875c0-1.103,0.897-2,2-2h46
	c1.103,0,2,0.897,2,2V83.125z M36.75,38.5c0-1.795,1.455-3.25,3.25-3.25s3.25,1.455,3.25,3.25s-1.455,3.25-3.25,3.25
	S36.75,40.295,36.75,38.5z M40,30.75c0-1.795,1.455-3.25,3.25-3.25s3.25,1.455,3.25,3.25S45.045,34,43.25,34S40,32.545,40,30.75z
	 M48.75,24.75c0-1.795,1.455-3.25,3.25-3.25s3.25,1.455,3.25,3.25S53.795,28,52,28S48.75,26.545,48.75,24.75z M60.042,28
	c-1.795,0-3.25-1.455-3.25-3.25s1.455-3.25,3.25-3.25s3.25,1.455,3.25,3.25S61.837,28,60.042,28z M48.75,42.81
	c0-1.795,1.455-3.25,3.25-3.25s3.25,1.455,3.25,3.25s-1.455,3.25-3.25,3.25S48.75,44.604,48.75,42.81z M48.75,54
	c0-1.795,1.455-3.25,3.25-3.25s3.25,1.455,3.25,3.25s-1.455,3.25-3.25,3.25S48.75,55.795,48.75,54z M43.25,57.25
	C41.455,57.25,40,55.795,40,54s1.455-3.25,3.25-3.25S46.5,52.205,46.5,54S45.045,57.25,43.25,57.25z M40,63
	c0,1.795-1.455,3.25-3.25,3.25S33.5,64.795,33.5,63s1.455-3.25,3.25-3.25S40,61.205,40,63z M40,73.75c0,1.795-1.455,3.25-3.25,3.25
	s-3.25-1.455-3.25-3.25s1.455-3.25,3.25-3.25S40,71.955,40,73.75z M49.75,73.75c0,1.795-1.455,3.25-3.25,3.25s-3.25-1.455-3.25-3.25
	s1.455-3.25,3.25-3.25S49.75,71.955,49.75,73.75z M58.5,73.75c0,1.795-1.455,3.25-3.25,3.25S52,75.545,52,73.75
	s1.455-3.25,3.25-3.25S58.5,71.955,58.5,73.75z M67.542,73.75c0,1.795-1.455,3.25-3.25,3.25s-3.25-1.455-3.25-3.25
	s1.455-3.25,3.25-3.25S67.542,71.955,67.542,73.75z"/>
</svg>
