<?xml version="1.0" encoding="utf-8"?>
<!-- Generator: Adobe Illustrator 16.0.0, SVG Export Plug-In . SVG Version: 6.00 Build 0)  -->
<!DOCTYPE svg PUBLIC "-//W3C//DTD SVG 1.1//EN" "http://www.w3.org/Graphics/SVG/1.1/DTD/svg11.dtd">
<svg version="1.1" id="Layer_2" xmlns="http://www.w3.org/2000/svg" xmlns:xlink="http://www.w3.org/1999/xlink" x="0px" y="0px"
	 width="100px" height="100px" viewBox="0 0 100 100" enable-background="new 0 0 100 100" xml:space="preserve">
<path d="M50,15.411c-18.772,0-34.045,15.272-34.045,34.045S31.228,83.501,50,83.501s34.045-15.272,34.045-34.045
	S68.772,15.411,50,15.411z M24.955,49.456c0-13.81,11.235-25.045,25.045-25.045c5.422,0,10.443,1.737,14.547,4.677L29.632,64.003
	C26.693,59.899,24.955,54.878,24.955,49.456z M50,74.501c-5.143,0-9.927-1.56-13.909-4.229l34.725-34.725
	c2.669,3.981,4.229,8.767,4.229,13.909C75.045,63.266,63.81,74.501,50,74.501z"/>
</svg>
