<?xml version="1.0" encoding="iso-8859-1"?>
<!-- Generator: Adobe Illustrator 18.0.0, SVG Export Plug-In . SVG Version: 6.00 Build 0)  -->
<!DOCTYPE svg PUBLIC "-//W3C//DTD SVG 1.1//EN" "http://www.w3.org/Graphics/SVG/1.1/DTD/svg11.dtd">
<svg version="1.1" id="Capa_1" xmlns="http://www.w3.org/2000/svg" xmlns:xlink="http://www.w3.org/1999/xlink" x="0px" y="0px"
	 viewBox="0 0 11 22" style="enable-background:new 0 0 11 22;" xml:space="preserve">
<g>
	<path style="fill-rule:evenodd;clip-rule:evenodd;" d="M9,22c0,0,2,0,2-2V2c0-2-2-2-2-2H2c0,0-2,0-2,2v18c0,2,2,2,2,2H9z M1,2
		c0-0.482,0.15-0.707,0.447-0.856C1.658,1.039,1.891,1,2,1h7c0.109,0,0.342,0.039,0.553,0.144C9.85,1.293,10,1.518,10,2v0.5H1V2z
		 M1,3.5h9V17H1V3.5z M1,20v-2h9v2c0,0.482-0.15,0.707-0.447,0.856C9.342,20.961,9.109,21,9,21H2c-0.109,0-0.342-0.039-0.553-0.144
		C1.15,20.707,1,20.482,1,20z"/>
	<path style="fill-rule:evenodd;clip-rule:evenodd;" d="M6.867,1.5H4.133C4.059,1.5,4,1.597,4,1.721V1.78
		c0,0.122,0.06,0.221,0.133,0.221h2.734C6.941,2.001,7,1.904,7,1.78V1.721C7,1.599,6.94,1.5,6.867,1.5z"/>
	<circle style="fill-rule:evenodd;clip-rule:evenodd;" cx="5.5" cy="19.5" r="1"/>
</g>
<g>
</g>
<g>
</g>
<g>
</g>
<g>
</g>
<g>
</g>
<g>
</g>
<g>
</g>
<g>
</g>
<g>
</g>
<g>
</g>
<g>
</g>
<g>
</g>
<g>
</g>
<g>
</g>
<g>
</g>
</svg>
