<?xml version="1.0" encoding="utf-8"?>
<!-- Generator: Adobe Illustrator 16.0.0, SVG Export Plug-In . SVG Version: 6.00 Build 0)  -->
<!DOCTYPE svg PUBLIC "-//W3C//DTD SVG 1.1//EN" "http://www.w3.org/Graphics/SVG/1.1/DTD/svg11.dtd">
<svg version="1.1" id="Layer_2" xmlns="http://www.w3.org/2000/svg" xmlns:xlink="http://www.w3.org/1999/xlink" x="0px" y="0px"
	 width="100px" height="100px" viewBox="0 0 100 100" enable-background="new 0 0 100 100" xml:space="preserve">
<g>
	<path d="M82.605,11.37H17.394c-3.341,0-6.06,2.718-6.06,6.059v65.141c0,3.341,2.719,6.06,6.06,6.06h65.212
		c3.341,0,6.06-2.719,6.06-6.06V17.429C88.665,14.088,85.946,11.37,82.605,11.37z M78.497,18.268c1.435,0,2.597,1.163,2.597,2.597
		c0,1.435-1.162,2.598-2.597,2.598S75.9,22.299,75.9,20.864C75.9,19.431,77.063,18.268,78.497,18.268z M69.191,18.268
		c1.435,0,2.597,1.163,2.597,2.597c0,1.435-1.162,2.598-2.597,2.598s-2.597-1.163-2.597-2.598
		C66.595,19.431,67.757,18.268,69.191,18.268z M81.74,81.704H18.259V29.909H81.74V81.704z"/>
	<path d="M20.504,60.453c3.098,1.929,5.345,4.229,6.39,4.229h3.44c-0.069-0.302,0.01-0.62,0.233-0.844l2.147-2.147
		c0.354-0.355,0.93-0.355,1.285,0l2.147,2.147c0.224,0.224,0.303,0.542,0.233,0.844h2.386l1.501-1.5c0.256-0.256,0.67-0.256,0.926,0
		l1.501,1.5h2.246c-0.047-0.297,0.043-0.604,0.261-0.822l2.256-2.256c0.374-0.374,0.979-0.374,1.353,0l2.256,2.256
		c0.218,0.219,0.308,0.525,0.261,0.822h5.662c1.997,3.951,6.084,6.667,10.813,6.667c6.694,0,12.121-5.427,12.121-12.121
		s-5.427-12.121-12.121-12.121c-4.969,0-9.234,2.993-11.105,7.272H26.894c-1.059,0-3.313,2.473-6.415,4.547
		c-0.256,0.172-0.408,0.462-0.403,0.771S20.241,60.29,20.504,60.453z M68.888,55.339c0-1.004,0.813-1.817,1.818-1.817h1.717
		c1.005,0,1.818,0.813,1.818,1.817v7.777c0,1.005-0.813,1.818-1.818,1.818h-1.717c-1.005,0-1.818-0.813-1.818-1.818V55.339z"/>
</g>
</svg>
