<?xml version="1.0" encoding="utf-8"?>
<!-- Generator: Adobe Illustrator 16.0.0, SVG Export Plug-In . SVG Version: 6.00 Build 0)  -->
<!DOCTYPE svg PUBLIC "-//W3C//DTD SVG 1.1//EN" "http://www.w3.org/Graphics/SVG/1.1/DTD/svg11.dtd">
<svg version="1.1" id="Layer_2" xmlns="http://www.w3.org/2000/svg" xmlns:xlink="http://www.w3.org/1999/xlink" x="0px" y="0px"
	 width="100px" height="100px" viewBox="0 0 100 100" enable-background="new 0 0 100 100" xml:space="preserve">
<path d="M82.605,11.371H17.395c-3.342,0-6.061,2.717-6.061,6.059V82.57c0,3.34,2.719,6.059,6.061,6.059h65.211
	c3.342,0,6.061-2.719,6.061-6.059V17.43C88.666,14.088,85.947,11.371,82.605,11.371z M78.498,18.268
	c1.434,0,2.596,1.163,2.596,2.598c0,1.434-1.162,2.597-2.596,2.597c-1.436,0-2.598-1.163-2.598-2.597
	C75.9,19.431,77.063,18.268,78.498,18.268z M69.191,18.268c1.436,0,2.598,1.163,2.598,2.598c0,1.434-1.162,2.597-2.598,2.597
	c-1.434,0-2.596-1.163-2.596-2.597C66.596,19.431,67.758,18.268,69.191,18.268z M81.74,81.704H18.26V29.909h63.48V81.704z
	 M32.369,47.5h-2.621C33.101,39.625,40.916,34.091,50,34.091S66.899,39.625,70.252,47.5h-2.624c-1.76-3.594-4.579-6.578-8.058-8.529
	c0.098,0.09,0.197,0.182,0.285,0.27c3.755,3.754,1.905,4.153,2.342,8.26h-18.83c-0.118-3.176-0.515-6.349-3.263-8.342
	C36.774,41.111,34.073,44.018,32.369,47.5z M60.408,62H71.18C68.59,71.268,60.082,78.091,50,78.091
	c-10.084,0-18.599-6.821-21.188-16.091h6.434c1.287,1.473,2.755,2.93,2.64,4.465c-0.163,2.191-1.802,2.313-3.439,1.568
	c1.868,2.426,4.286,4.408,7.069,5.748c-0.457-1.853-1.104-3.93-0.525-5.752c0.6-1.895,2.354-3.869,4.536-3.566
	c0.931,0.129,1.532,0.697,2.241,1.257c0.77,0.606,1.939,0.11,2.838,0.14c2.251,0.075,2.639,2.505,2.794,4.262
	c0.114,1.289,1.307,2.354,0.978,3.703c-0.146,0.604-0.461,1.211-0.966,1.585c3.578-0.63,6.823-2.231,9.454-4.522
	c-0.911-2.279-3.537-3.674-3.307-6.674C59.662,63.231,59.966,62.522,60.408,62z M77.625,49.604h-54.75v11.5h54.75V49.604z
	 M75.625,59.104h-50.75v-7.5h50.75V59.104z M42.06,57.428H27.462v-4.021H42.06V57.428z"/>
</svg>
