<?xml version="1.0" encoding="utf-8"?>
<!-- Generator: Adobe Illustrator 16.0.0, SVG Export Plug-In . SVG Version: 6.00 Build 0)  -->
<!DOCTYPE svg PUBLIC "-//W3C//DTD SVG 1.1//EN" "http://www.w3.org/Graphics/SVG/1.1/DTD/svg11.dtd">
<svg version="1.1" id="Layer_2" xmlns="http://www.w3.org/2000/svg" xmlns:xlink="http://www.w3.org/1999/xlink" x="0px" y="0px"
	 width="100px" height="100px" viewBox="0 0 100 100" enable-background="new 0 0 100 100" xml:space="preserve">
<path d="M80.005,5.386H19.996c-3.075,0-5.577,2.5-5.577,5.575v59.944c0,3.073,2.502,5.575,5.577,5.575h60.009
	c3.075,0,5.577-2.502,5.577-5.575V10.961C85.582,7.886,83.08,5.386,80.005,5.386z M76.226,11.732c1.319,0,2.389,1.07,2.389,2.39
	s-1.069,2.39-2.389,2.39c-1.321,0-2.391-1.07-2.391-2.39S74.904,11.732,76.226,11.732z M67.661,11.732
	c1.321,0,2.391,1.07,2.391,2.39s-1.069,2.39-2.391,2.39c-1.319,0-2.389-1.07-2.389-2.39S66.342,11.732,67.661,11.732z
	 M79.209,70.108H20.792V22.445h58.417V70.108z M56.399,89.035h9.578v2.227h-9.578v1.35c0,0.668-0.393,1.209-0.877,1.209h-2.311
	h-4.153h-2.312c-0.484,0-0.877-0.541-0.877-1.209v-1.35h-9.223v-2.227h9.223v-1.388c0-0.669,0.393-1.21,0.877-1.21h2.312v-5.16
	c0-0.667,0.393-1.208,0.877-1.208h2.726c0.486,0,0.877,0.541,0.877,1.208v5.16h1.984c0.484,0,0.877,0.541,0.877,1.21V89.035z"/>
</svg>
