<?xml version="1.0" encoding="utf-8"?>
<!-- Generator: Adobe Illustrator 16.0.0, SVG Export Plug-In . SVG Version: 6.00 Build 0)  -->
<!DOCTYPE svg PUBLIC "-//W3C//DTD SVG 1.1//EN" "http://www.w3.org/Graphics/SVG/1.1/DTD/svg11.dtd">
<svg version="1.1" id="Layer_2" xmlns="http://www.w3.org/2000/svg" xmlns:xlink="http://www.w3.org/1999/xlink" x="0px" y="0px"
	 width="100px" height="100px" viewBox="0 0 100 100" enable-background="new 0 0 100 100" xml:space="preserve">
<path d="M82.606,11.371H17.394c-3.341,0-6.06,2.718-6.06,6.059v65.14c0,3.341,2.719,6.06,6.06,6.06h65.212
	c3.341,0,6.06-2.719,6.06-6.06V17.43C88.666,14.088,85.947,11.371,82.606,11.371z M78.498,18.268c1.435,0,2.597,1.163,2.597,2.597
	c0,1.435-1.162,2.597-2.597,2.597s-2.597-1.163-2.597-2.597C75.901,19.431,77.063,18.268,78.498,18.268z M69.192,18.268
	c1.435,0,2.597,1.163,2.597,2.597c0,1.435-1.162,2.597-2.597,2.597s-2.597-1.163-2.597-2.597
	C66.595,19.431,67.757,18.268,69.192,18.268z M81.741,81.704H18.259V29.909h63.481V81.704z M50,78.341
	c10.209,0,18.815-6.991,21.286-16.437l0.384-1.792c0.213-1.227,0.33-2.486,0.33-3.772c0-12.131-9.869-22-22-22s-22,9.869-22,22
	S37.869,78.341,50,78.341z M33.407,58.983c0.194-0.533,0.334-1.2,0.422-1.925c0.831-1.715,2.474-2.88,1.31-5.455
	c-0.485-1.182-1.989-1.825-3.47-2.25c1.604-4.193,4.606-7.699,8.436-9.945c6.155,4.465,0.516,14.852,6.373,17.92
	c5.054,2.378,2.378-5.946,6.541-6.244c1.487,0,2.081,2.676,3.271,3.271c0.892,0.297,2.676-1.487,5.351,0.743
	c2.676,2.23,2.775-0.396,3.37-3.072c0.297-2.676-2.775-2.428-2.775-3.915c-0.595-4.459,1.487-4.757-2.378-8.622
	c-0.088-0.088-0.188-0.179-0.286-0.27c5.992,3.362,10.052,9.774,10.052,17.121c0,1.181-0.111,2.336-0.312,3.46
	c-3.319,1.74-9.212-0.45-9.751,4.661c-0.23,3.001,2.396,4.395,3.307,6.674c-2.632,2.292-5.876,3.893-9.455,4.522
	c0.505-0.375,0.819-0.982,0.966-1.585c0.329-1.349-0.864-2.413-0.978-3.702c-0.156-1.757-0.543-4.187-2.794-4.262
	c-0.898-0.03-2.069,0.466-2.837-0.14c-0.709-0.559-1.312-1.127-2.242-1.256c-2.182-0.303-3.936,1.671-4.537,3.566
	c-0.578,1.823,0.068,3.899,0.526,5.752c-2.784-1.341-5.202-3.322-7.07-5.749c1.637,0.745,3.276,0.624,3.439-1.568
	C38.083,64.065,33.566,61.651,33.407,58.983z"/>
</svg>
