<?xml version="1.0" encoding="utf-8"?>
<!-- Generator: Adobe Illustrator 16.0.0, SVG Export Plug-In . SVG Version: 6.00 Build 0)  -->
<!DOCTYPE svg PUBLIC "-//W3C//DTD SVG 1.1//EN" "http://www.w3.org/Graphics/SVG/1.1/DTD/svg11.dtd">
<svg version="1.1" id="Layer_2" xmlns="http://www.w3.org/2000/svg" xmlns:xlink="http://www.w3.org/1999/xlink" x="0px" y="0px"
	 width="100px" height="100px" viewBox="0 0 100 100" enable-background="new 0 0 100 100" xml:space="preserve">
<path d="M85.188,11.371H19.976c-3.341,0-6.06,2.717-6.06,6.059V82.57c0,3.34,2.719,6.059,6.06,6.059h65.212
	c3.341,0,6.06-2.719,6.06-6.059V17.43C91.248,14.088,88.529,11.371,85.188,11.371z M81.08,18.268c1.435,0,2.597,1.163,2.597,2.598
	c0,1.434-1.162,2.597-2.597,2.597s-2.597-1.163-2.597-2.597C78.483,19.431,79.645,18.268,81.08,18.268z M71.774,18.268
	c1.435,0,2.597,1.163,2.597,2.598c0,1.434-1.162,2.597-2.597,2.597s-2.597-1.163-2.597-2.597
	C69.177,19.431,70.339,18.268,71.774,18.268z M84.323,81.704H20.841V29.909h63.481V81.704z M78.833,42.333h-52v22.334h52V42.333z
	 M58.5,62H44.75v-4.75H58.5V62z M75.875,62h-13.75v-4.75h13.75V62z M77.048,48.074l-0.82,0.82l-1.407-1.406l-1.407,1.406
	l-0.821-0.82L74,46.667l-1.407-1.407l0.821-0.82l1.407,1.407l1.407-1.407l0.821,0.82l-1.407,1.407L77.048,48.074z"/>
</svg>
