<?xml version="1.0" encoding="iso-8859-1"?>
<!-- Generator: Adobe Illustrator 18.0.0, SVG Export Plug-In . SVG Version: 6.00 Build 0)  -->
<!DOCTYPE svg PUBLIC "-//W3C//DTD SVG 1.1//EN" "http://www.w3.org/Graphics/SVG/1.1/DTD/svg11.dtd">
<svg version="1.1" id="Capa_1" xmlns="http://www.w3.org/2000/svg" xmlns:xlink="http://www.w3.org/1999/xlink" x="0px" y="0px"
	 viewBox="0 0 16 16" style="enable-background:new 0 0 16 16;" xml:space="preserve">
<g id="Newspaper">
	<g>
		<path style="fill-rule:evenodd;clip-rule:evenodd;" d="M8,12h4v-2H8V12z M8,9h4V7H8V9z M8,6h4V4H8V6z M14,0H4C2.895,0,2,0.895,2,2
			H1C0.448,2,0,2.448,0,3v11c0,1.105,0.895,2,2,2h12c1.105,0,2-0.895,2-2V2C16,0.895,15.105,0,14,0z M4,13c0,0.552-0.448,1-1,1
			s-1-0.448-1-1V5c0-0.552,0.448-1,1-1s1,0.448,1,1V13z M14,13c0,0.552-0.448,1-1,1H7c-0.552,0-1-0.448-1-1V3c0-0.552,0.448-1,1-1h6
			c0.552,0,1,0.448,1,1V13z"/>
	</g>
</g>
<g>
</g>
<g>
</g>
<g>
</g>
<g>
</g>
<g>
</g>
<g>
</g>
<g>
</g>
<g>
</g>
<g>
</g>
<g>
</g>
<g>
</g>
<g>
</g>
<g>
</g>
<g>
</g>
<g>
</g>
</svg>
