<?xml version="1.0" encoding="iso-8859-1"?>
<!-- Generator: Adobe Illustrator 18.0.0, SVG Export Plug-In . SVG Version: 6.00 Build 0)  -->
<!DOCTYPE svg PUBLIC "-//W3C//DTD SVG 1.1//EN" "http://www.w3.org/Graphics/SVG/1.1/DTD/svg11.dtd">
<svg version="1.1" id="Capa_1" xmlns="http://www.w3.org/2000/svg" xmlns:xlink="http://www.w3.org/1999/xlink" x="0px" y="0px"
	 viewBox="0 0 22 20" style="enable-background:new 0 0 22 20;" xml:space="preserve">
<g>
	<path style="fill-rule:evenodd;clip-rule:evenodd;" d="M5,7.8C5,7.91,5.097,8,5.218,8h11.563C16.902,8,17,7.911,17,7.8V7.2
		C17,7.09,16.903,7,16.781,7H5.218C5.098,7,5,7.089,5,7.2V7.8z"/>
	<path style="fill-rule:evenodd;clip-rule:evenodd;" d="M5,15.8C5,15.91,5.097,16,5.218,16h11.563C16.902,16,17,15.911,17,15.8v-0.6
		c0-0.11-0.097-0.2-0.219-0.2H5.218C5.098,15,5,15.089,5,15.2V15.8z"/>
	<path style="fill-rule:evenodd;clip-rule:evenodd;" d="M4,3V2H1.009C0.443,2,0,2.445,0,2.993v16.013C0,19.555,0.449,20,1.002,20
		h19.995C21.561,20,22,19.555,22,19.007V2.993C22,2.445,21.548,2,20.991,2H18v1h3v16H1V3.047L4,3z"/>
	<rect x="8" y="2" style="fill-rule:evenodd;clip-rule:evenodd;" width="1" height="1"/>
	<ellipse style="fill-rule:evenodd;clip-rule:evenodd;" cx="6" cy="2" rx="1" ry="2"/>
	<path style="fill-rule:evenodd;clip-rule:evenodd;" d="M5,11.8C5,11.91,5.097,12,5.218,12h11.563C16.902,12,17,11.911,17,11.8v-0.6
		c0-0.11-0.097-0.2-0.219-0.2H5.218C5.098,11,5,11.089,5,11.2V11.8z"/>
	<ellipse style="fill-rule:evenodd;clip-rule:evenodd;" cx="11" cy="2" rx="1" ry="2"/>
	<ellipse style="fill-rule:evenodd;clip-rule:evenodd;" cx="16" cy="2" rx="1" ry="2"/>
	<rect x="13" y="2" style="fill-rule:evenodd;clip-rule:evenodd;" width="1" height="1"/>
</g>
<g>
</g>
<g>
</g>
<g>
</g>
<g>
</g>
<g>
</g>
<g>
</g>
<g>
</g>
<g>
</g>
<g>
</g>
<g>
</g>
<g>
</g>
<g>
</g>
<g>
</g>
<g>
</g>
<g>
</g>
</svg>
