<?xml version="1.0" encoding="iso-8859-1"?>
<!-- Generator: Adobe Illustrator 18.0.0, SVG Export Plug-In . SVG Version: 6.00 Build 0)  -->
<!DOCTYPE svg PUBLIC "-//W3C//DTD SVG 1.1//EN" "http://www.w3.org/Graphics/SVG/1.1/DTD/svg11.dtd">
<svg version="1.1" id="Capa_1" xmlns="http://www.w3.org/2000/svg" xmlns:xlink="http://www.w3.org/1999/xlink" x="0px" y="0px"
	 viewBox="0 0 22 15" style="enable-background:new 0 0 22 15;" xml:space="preserve">
<g>
	<path style="fill-rule:evenodd;clip-rule:evenodd;" d="M21,2c0-2-2-2-2-2H3c0,0-2,0-2,2v10h20V2z"/>
	<path style="fill-rule:evenodd;clip-rule:evenodd;" d="M0,14c0,1,0.971,1,0.971,1h20.026c0,0,1.003,0,1.003-1s-1.003-1-1.003-1
		H0.971C0.971,13,0,13,0,14z M8.5,13.5h4c0,0,0.5,0,0.5,0.5s-0.5,0.5-0.5,0.5h-4c0,0-0.5,0-0.5-0.5S8.5,13.5,8.5,13.5z"/>
</g>
<g>
</g>
<g>
</g>
<g>
</g>
<g>
</g>
<g>
</g>
<g>
</g>
<g>
</g>
<g>
</g>
<g>
</g>
<g>
</g>
<g>
</g>
<g>
</g>
<g>
</g>
<g>
</g>
<g>
</g>
</svg>
