<?xml version="1.0" encoding="utf-8"?>
<!-- Generator: Adobe Illustrator 16.0.0, SVG Export Plug-In . SVG Version: 6.00 Build 0)  -->
<!DOCTYPE svg PUBLIC "-//W3C//DTD SVG 1.1//EN" "http://www.w3.org/Graphics/SVG/1.1/DTD/svg11.dtd">
<svg version="1.1" id="Layer_3" xmlns="http://www.w3.org/2000/svg" xmlns:xlink="http://www.w3.org/1999/xlink" x="0px" y="0px"
	 width="100px" height="100px" viewBox="0 0 100 100" enable-background="new 0 0 100 100" xml:space="preserve">
<path d="M84.26,48.931c0,9.579-4.205,18.617-11.535,24.797l-6.368-7.554c5.098-4.298,8.022-10.583,8.022-17.243
	c0-11.979-9.399-21.775-21.206-22.471H48.34l4.07,10.304c0.137,0.345,0.025,0.739-0.271,0.962c-0.296,0.224-0.706,0.223-1-0.004
	L30.9,22.161c-0.203-0.157-0.323-0.397-0.323-0.655c0-0.257,0.12-0.499,0.323-0.655L51.14,5.291c0.148-0.114,0.325-0.17,0.503-0.17
	c0.176,0,0.35,0.055,0.498,0.166c0.296,0.223,0.407,0.618,0.271,0.963l-4.07,10.303l3.5,0.01v-0.052c1.251,0,2.485,0.079,3.7,0.218
	c0.806,0.084,1.705,0.203,2.388,0.364C72.903,19.951,84.26,33.136,84.26,48.931z M48.86,62.279c-0.294-0.227-0.704-0.228-1-0.003
	c-0.296,0.223-0.407,0.617-0.271,0.962l4.07,10.304h-4.833C35.021,72.845,25.621,63.048,25.621,51.07
	c0-6.233,2.488-12.033,7.005-16.331l-6.812-7.158C19.318,33.763,15.74,42.104,15.74,51.07c0,15.794,11.356,28.98,26.332,31.838
	c0.684,0.161,1.583,0.28,2.388,0.364c1.215,0.139,2.448,0.218,3.7,0.218v-0.052l3.5,0.01l-4.07,10.303
	c-0.137,0.346-0.025,0.741,0.271,0.963c0.148,0.111,0.322,0.166,0.498,0.166c0.178,0,0.354-0.056,0.503-0.17L69.1,79.149
	c0.203-0.156,0.323-0.398,0.323-0.655c0-0.257-0.12-0.498-0.323-0.654L48.86,62.279z"/>
</svg>
