<?xml version="1.0" encoding="utf-8"?>
<!-- Generator: Adobe Illustrator 16.0.0, SVG Export Plug-In . SVG Version: 6.00 Build 0)  -->
<!DOCTYPE svg PUBLIC "-//W3C//DTD SVG 1.1//EN" "http://www.w3.org/Graphics/SVG/1.1/DTD/svg11.dtd">
<svg version="1.1" id="Layer_3" xmlns="http://www.w3.org/2000/svg" xmlns:xlink="http://www.w3.org/1999/xlink" x="0px" y="0px"
	 width="100px" height="100px" viewBox="0 0 100 100" enable-background="new 0 0 100 100" xml:space="preserve">
<path d="M49.539,43.24c0.277,0.277,0.276,0.725-0.001,1.002l-5.012,5.014c-0.277,0.276-0.726,0.276-1.002,0l-14.48-14.48
	l-3.784,8.726c-0.126,0.292-0.434,0.464-0.749,0.42c-0.315-0.043-0.563-0.294-0.604-0.609l-2.841-21.734
	c-0.029-0.218,0.046-0.437,0.202-0.592c0.155-0.155,0.374-0.231,0.593-0.202l21.733,2.841c0.16,0.021,0.302,0.094,0.41,0.201
	c0.106,0.106,0.178,0.246,0.2,0.403c0.044,0.314-0.127,0.621-0.419,0.748l-8.726,3.784L49.539,43.24z M75.49,56.079
	c-0.315-0.044-0.622,0.128-0.749,0.42l-3.784,8.726l-14.48-14.479c-0.277-0.277-0.726-0.277-1.003,0l-5.012,5.013
	c-0.277,0.277-0.277,0.726,0,1.002l14.48,14.48l-8.726,3.784c-0.292,0.126-0.464,0.433-0.419,0.747
	c0.022,0.158,0.094,0.297,0.2,0.403c0.108,0.108,0.25,0.182,0.41,0.201l21.733,2.842c0.219,0.028,0.438-0.047,0.593-0.202
	s0.23-0.375,0.202-0.593l-2.841-21.733C76.054,56.373,75.806,56.123,75.49,56.079z M55.724,49.149
	c0.276,0.276,0.726,0.277,1.002,0.001l14.48-14.48l3.784,8.726c0.125,0.292,0.432,0.463,0.747,0.419
	c0.158-0.022,0.297-0.094,0.404-0.199c0.108-0.108,0.181-0.25,0.2-0.41l2.843-21.732c0.028-0.22-0.048-0.439-0.203-0.594
	c-0.156-0.156-0.374-0.23-0.593-0.202l-21.733,2.841c-0.315,0.041-0.566,0.289-0.61,0.604c-0.044,0.314,0.128,0.622,0.419,0.748
	l8.726,3.784L50.71,43.135c-0.277,0.276-0.276,0.726,0,1.002L55.724,49.149z M44.03,50.604c-0.276-0.276-0.725-0.277-1.002,0
	L28.549,65.083l-3.784-8.726c-0.126-0.292-0.433-0.463-0.747-0.419c-0.158,0.022-0.298,0.094-0.404,0.2
	c-0.107,0.107-0.181,0.25-0.2,0.41l-2.842,21.732c-0.028,0.219,0.048,0.438,0.203,0.593c0.156,0.156,0.374,0.23,0.593,0.202
	L43.1,76.235c0.315-0.041,0.566-0.289,0.61-0.604c0.044-0.314-0.128-0.622-0.42-0.748l-8.726-3.784l14.48-14.479
	c0.277-0.277,0.276-0.727,0-1.003L44.03,50.604z"/>
</svg>
