<?xml version="1.0" encoding="utf-8"?>
<!-- Generator: Adobe Illustrator 16.0.0, SVG Export Plug-In . SVG Version: 6.00 Build 0)  -->
<!DOCTYPE svg PUBLIC "-//W3C//DTD SVG 1.1//EN" "http://www.w3.org/Graphics/SVG/1.1/DTD/svg11.dtd">
<svg version="1.1" id="Layer_3" xmlns="http://www.w3.org/2000/svg" xmlns:xlink="http://www.w3.org/1999/xlink" x="0px" y="0px"
	 width="100px" height="100px" viewBox="0 0 100 100" enable-background="new 0 0 100 100" xml:space="preserve">
<path d="M92.761,65.642c0.174,0.132,0.275,0.34,0.275,0.559s-0.102,0.427-0.275,0.559L75.449,80.07
	c-0.253,0.193-0.603,0.195-0.855,0.004c-0.254-0.192-0.348-0.528-0.231-0.824l2.884-7.301c-13.111-0.493-20.544-5.175-25.743-10.607
	c1.934-2.207,3.54-4.445,5.005-6.486c0.726-1.014,1.424-1.982,2.123-2.908c3.943,4.637,8.743,7.95,18.574,8.4l-2.843-7.197
	c-0.116-0.296-0.022-0.632,0.231-0.824c0.126-0.094,0.275-0.143,0.425-0.143c0.151,0,0.304,0.049,0.431,0.146L92.761,65.642z
	 M24.551,47.669c0.127,0.098,0.279,0.146,0.431,0.146c0.149,0,0.3-0.049,0.425-0.143c0.254-0.191,0.349-0.528,0.231-0.824
	l-2.821-7.145c9.787,0.624,14.6,4.002,18.553,8.662c0.69-0.913,1.378-1.866,2.094-2.865c1.472-2.053,3.088-4.304,5.036-6.528
	c-5.208-5.456-12.646-10.192-25.763-10.878l2.901-7.344c0.117-0.296,0.022-0.632-0.231-0.824c-0.253-0.191-0.603-0.189-0.855,0.004
	L7.239,33.24c-0.174,0.132-0.275,0.34-0.275,0.559s0.102,0.427,0.275,0.559L24.551,47.669z M54.695,53.556
	c5.17-7.209,9.344-13.014,22.488-13.852l-2.821,7.145c-0.116,0.296-0.022,0.632,0.231,0.824c0.126,0.094,0.275,0.143,0.425,0.143
	c0.151,0,0.304-0.049,0.431-0.146l17.312-13.311c0.174-0.132,0.275-0.34,0.275-0.559s-0.102-0.427-0.275-0.559L75.449,19.93
	c-0.253-0.193-0.603-0.195-0.855-0.004c-0.254,0.192-0.348,0.528-0.231,0.824l2.901,7.344C57.978,29.104,50.963,38.868,45.274,46.8
	c-5.155,7.189-9.292,12.945-22.479,13.548l2.843-7.197c0.117-0.296,0.022-0.632-0.231-0.824c-0.125-0.094-0.275-0.143-0.425-0.143
	c-0.151,0-0.304,0.049-0.431,0.146L7.239,65.642c-0.174,0.132-0.275,0.34-0.275,0.559s0.102,0.427,0.275,0.559L24.551,80.07
	c0.253,0.193,0.603,0.195,0.855,0.004c0.254-0.192,0.349-0.528,0.231-0.824l-2.884-7.301C42.016,71.225,49.026,61.463,54.695,53.556
	z"/>
</svg>
