<?xml version="1.0" encoding="utf-8"?>
<!-- Generator: Adobe Illustrator 16.0.0, SVG Export Plug-In . SVG Version: 6.00 Build 0)  -->
<!DOCTYPE svg PUBLIC "-//W3C//DTD SVG 1.1//EN" "http://www.w3.org/Graphics/SVG/1.1/DTD/svg11.dtd">
<svg version="1.1" id="Layer_3" xmlns="http://www.w3.org/2000/svg" xmlns:xlink="http://www.w3.org/1999/xlink" x="0px" y="0px"
	 width="100px" height="100px" viewBox="0 0 100 100" enable-background="new 0 0 100 100" xml:space="preserve">
<path d="M11.804,73.236v-9.749c10.237,0,15.35-5.071,20.295-9.976c1.204-1.195,2.423-2.398,3.704-3.511
	c-1.281-1.112-2.5-2.316-3.704-3.512c-4.945-4.904-10.058-9.976-20.295-9.976v-9.749c14.252,0,21.713,7.4,27.159,12.804
	c3.23,3.204,5.306,5.159,7.521,5.538c0.264-0.014,0.523-0.032,0.795-0.032v0.104l0,0H70.72l-4.006-10.137
	c-0.134-0.34-0.025-0.728,0.268-0.947c0.291-0.22,0.693-0.219,0.983,0.004L87.88,49.408c0.2,0.154,0.316,0.392,0.316,0.644
	s-0.116,0.49-0.316,0.644L67.965,66.007c-0.146,0.112-0.321,0.168-0.495,0.168c-0.172,0-0.344-0.054-0.488-0.164
	c-0.293-0.219-0.401-0.607-0.268-0.947l4.006-10.138H47.25c-0.008,0-0.015-0.002-0.022-0.002c-0.253-0.001-0.498-0.017-0.744-0.029
	c-2.215,0.378-4.29,2.333-7.521,5.538C33.517,65.836,26.056,73.236,11.804,73.236z"/>
</svg>
