<?xml version="1.0" encoding="utf-8"?>
<!-- Generator: Adobe Illustrator 16.0.0, SVG Export Plug-In . SVG Version: 6.00 Build 0)  -->
<!DOCTYPE svg PUBLIC "-//W3C//DTD SVG 1.1//EN" "http://www.w3.org/Graphics/SVG/1.1/DTD/svg11.dtd">
<svg version="1.1" id="Layer_3" xmlns="http://www.w3.org/2000/svg" xmlns:xlink="http://www.w3.org/1999/xlink" x="0px" y="0px"
	 width="100px" height="100px" viewBox="0 0 100 100" enable-background="new 0 0 100 100" xml:space="preserve">
<path d="M74.065,33.401c0,0.168-0.053,0.335-0.16,0.477c-0.214,0.285-0.592,0.391-0.923,0.26l-9.881-3.903v57.077
	c0,0.437-0.354,0.792-0.792,0.792H54.39c-0.437,0-0.792-0.355-0.792-0.792V67.287l-0.022,0.008
	c-0.248-0.659-2.598-6.219-10.493-6.668l3.791,9.597c0.131,0.332,0.025,0.709-0.259,0.923c-0.285,0.214-0.677,0.213-0.959-0.004
	L26.243,56.218c-0.195-0.15-0.309-0.381-0.309-0.627s0.114-0.478,0.309-0.628l19.412-14.924c0.142-0.109,0.313-0.164,0.482-0.164
	c0.168,0,0.336,0.053,0.477,0.16c0.284,0.214,0.391,0.592,0.259,0.923l-3.903,9.881v0.81c4.44,0.141,7.926,1.307,10.627,2.887
	V30.234l-9.882,3.903c-0.332,0.131-0.709,0.025-0.923-0.26c-0.214-0.284-0.213-0.677,0.004-0.959l14.924-19.412
	c0.15-0.195,0.382-0.309,0.627-0.309c0.246,0,0.478,0.114,0.627,0.309l14.925,19.412C74.011,33.061,74.065,33.231,74.065,33.401z"/>
</svg>
