<?xml version="1.0" encoding="utf-8"?>
<!-- Generator: Adobe Illustrator 16.0.0, SVG Export Plug-In . SVG Version: 6.00 Build 0)  -->
<!DOCTYPE svg PUBLIC "-//W3C//DTD SVG 1.1//EN" "http://www.w3.org/Graphics/SVG/1.1/DTD/svg11.dtd">
<svg version="1.1" id="Layer_3" xmlns="http://www.w3.org/2000/svg" xmlns:xlink="http://www.w3.org/1999/xlink" x="0px" y="0px"
	 width="100px" height="100px" viewBox="0 0 100 100" enable-background="new 0 0 100 100" xml:space="preserve">
<path d="M35.352,53.504c2.038,2.842,4.233,5.896,6.956,8.797C36.1,69.445,27.053,75.945,9.298,75.945v-13
	c14.077,0,19.779-4.668,24.822-11.15C34.526,52.354,34.935,52.922,35.352,53.504z M49.248,43.537
	c1.272,1.773,2.467,3.436,3.704,4.963c4.289-4.732,9.675-8.109,19.975-8.766l-3.164,8.012c-0.132,0.332-0.025,0.709,0.26,0.924
	c0.141,0.105,0.309,0.16,0.477,0.16c0.17,0,0.34-0.055,0.482-0.164L90.393,33.74c0.195-0.148,0.309-0.381,0.309-0.627
	s-0.113-0.479-0.309-0.627L70.981,17.561c-0.283-0.217-0.676-0.219-0.959-0.004c-0.285,0.215-0.392,0.592-0.26,0.924l3.252,8.234
	c-13.938,0.73-22.157,5.539-27.95,11.248C46.615,39.871,47.979,41.768,49.248,43.537z M70.981,51.334
	c-0.143-0.109-0.313-0.164-0.482-0.164c-0.168,0-0.336,0.055-0.477,0.16c-0.285,0.215-0.392,0.592-0.26,0.924l3.164,8.012
	c-14.741-0.939-19.421-7.449-25.218-15.533c-6.607-9.213-14.829-20.678-38.41-20.678v13c16.906,0,21.734,6.73,27.846,15.254
	c6.379,8.895,14.246,19.844,35.871,20.977l-3.252,8.234c-0.132,0.332-0.025,0.709,0.26,0.924c0.283,0.215,0.676,0.213,0.959-0.004
	l19.412-14.926c0.195-0.148,0.309-0.381,0.309-0.627s-0.113-0.479-0.309-0.627L70.981,51.334z"/>
</svg>
