<?xml version="1.0" encoding="utf-8"?>
<!-- Generator: Adobe Illustrator 16.0.0, SVG Export Plug-In . SVG Version: 6.00 Build 0)  -->
<!DOCTYPE svg PUBLIC "-//W3C//DTD SVG 1.1//EN" "http://www.w3.org/Graphics/SVG/1.1/DTD/svg11.dtd">
<svg version="1.1" id="Layer_3" xmlns="http://www.w3.org/2000/svg" xmlns:xlink="http://www.w3.org/1999/xlink" x="0px" y="0px"
	 width="100px" height="100px" viewBox="0 0 100 100" enable-background="new 0 0 100 100" xml:space="preserve">
<path d="M77.464,49.999c0.001,0.334-0.154,0.646-0.417,0.849L50.853,70.986c-0.192,0.146-0.422,0.222-0.651,0.222
	c-0.227,0-0.452-0.071-0.645-0.216c-0.383-0.288-0.525-0.799-0.35-1.245l5.268-13.335l-30.87,0.001
	c-0.589-0.001-1.07-0.479-1.069-1.07l0-10.685c0-0.591,0.479-1.068,1.07-1.069h30.87l-5.269-13.334
	c-0.174-0.447-0.032-0.958,0.353-1.247c0.383-0.289,0.913-0.289,1.294,0.007l26.195,20.138
	C77.31,49.354,77.464,49.669,77.464,49.999z M88.978,50c0,21.492-17.486,38.978-38.978,38.978S11.022,71.492,11.022,50
	S28.508,11.022,50,11.022C71.493,11.022,88.978,28.508,88.978,50z M84.704,50C84.703,30.864,69.135,15.297,50,15.297
	c-19.136,0-34.704,15.568-34.704,34.703c0,19.136,15.567,34.703,34.704,34.703C69.135,84.703,84.704,69.136,84.704,50z"/>
</svg>
