<?xml version="1.0" encoding="utf-8"?>
<!-- Generator: Adobe Illustrator 16.0.0, SVG Export Plug-In . SVG Version: 6.00 Build 0)  -->
<!DOCTYPE svg PUBLIC "-//W3C//DTD SVG 1.1//EN" "http://www.w3.org/Graphics/SVG/1.1/DTD/svg11.dtd">
<svg version="1.1" id="Layer_3" xmlns="http://www.w3.org/2000/svg" xmlns:xlink="http://www.w3.org/1999/xlink" x="0px" y="0px"
	 width="100px" height="100px" viewBox="0 0 100 100" enable-background="new 0 0 100 100" xml:space="preserve">
<path d="M80.338,21.343l-6.011,45.99c-0.044,0.337-0.199,0.638-0.427,0.866c-0.225,0.225-0.52,0.378-0.852,0.425
	c-0.667,0.094-1.316-0.27-1.584-0.889l-8.007-18.464L32.816,79.912c-0.586,0.586-1.536,0.586-2.122,0L20.088,69.305
	c-0.586-0.586-0.586-1.535,0-2.121l30.641-30.641l-18.464-8.007c-0.619-0.269-0.983-0.917-0.889-1.585
	c0.093-0.668,0.62-1.192,1.291-1.279l45.989-6.011c0.462-0.061,0.926,0.097,1.255,0.426C80.241,20.417,80.399,20.881,80.338,21.343z
	"/>
</svg>
