<?xml version="1.0" encoding="utf-8"?>
<!-- Generator: Adobe Illustrator 16.0.0, SVG Export Plug-In . SVG Version: 6.00 Build 0)  -->
<!DOCTYPE svg PUBLIC "-//W3C//DTD SVG 1.1//EN" "http://www.w3.org/Graphics/SVG/1.1/DTD/svg11.dtd">
<svg version="1.1" id="Layer_3" xmlns="http://www.w3.org/2000/svg" xmlns:xlink="http://www.w3.org/1999/xlink" x="0px" y="0px"
	 width="100px" height="100px" viewBox="0 0 100 100" enable-background="new 0 0 100 100" xml:space="preserve">
<path d="M88.552,50c0,0.466-0.216,0.905-0.585,1.189l-36.77,28.27c-0.27,0.207-0.592,0.311-0.915,0.311
	c-0.318,0-0.635-0.101-0.903-0.302c-0.538-0.406-0.74-1.122-0.492-1.749l7.394-18.718H12.948c-0.829,0-1.5-0.672-1.5-1.5l0-15
	c0-0.829,0.671-1.5,1.5-1.5h43.333l-7.394-18.719c-0.248-0.627-0.046-1.343,0.493-1.749c0.538-0.406,1.282-0.404,1.817,0.009
	l36.77,28.27C88.336,49.095,88.552,49.534,88.552,50z"/>
</svg>
