<?xml version="1.0" encoding="utf-8"?>
<!-- Generator: Adobe Illustrator 16.0.0, SVG Export Plug-In . SVG Version: 6.00 Build 0)  -->
<!DOCTYPE svg PUBLIC "-//W3C//DTD SVG 1.1//EN" "http://www.w3.org/Graphics/SVG/1.1/DTD/svg11.dtd">
<svg version="1.1" id="Layer_3" xmlns="http://www.w3.org/2000/svg" xmlns:xlink="http://www.w3.org/1999/xlink" x="0px" y="0px"
	 width="100px" height="100px" viewBox="0 0 100 100" enable-background="new 0 0 100 100" xml:space="preserve">
<path d="M90.303,53.345v1.393c0,11.458-9.322,20.779-20.779,20.779H30.476c-11.457,0-20.779-9.321-20.779-20.779v-1.393
	c0-11.458,9.322-20.779,20.779-20.779l2.299,0.083c0,0-3.805,2.613-2.299,8.027c-7.324,0-12.667,5.683-12.667,12.668v1.393
	c0,6.985,5.683,12.668,12.667,12.668h39.048c6.985,0,12.668-5.683,12.668-12.668v-1.393c0-6.985-5.683-12.668-12.668-12.668H50.92v0
	h-4.907l2.863,7.248c0.101,0.255,0.019,0.547-0.201,0.713c-0.22,0.166-0.523,0.165-0.741-0.003L32.94,37.107
	c-0.15-0.116-0.239-0.295-0.238-0.485c0-0.19,0.088-0.369,0.238-0.485l14.995-11.528c0.109-0.085,0.241-0.126,0.372-0.126
	c0.13,0,0.259,0.04,0.369,0.123c0.22,0.166,0.301,0.457,0.201,0.713l-2.863,7.249h4.907v0h18.604
	C80.981,32.566,90.303,41.888,90.303,53.345z"/>
</svg>
