<?xml version="1.0" encoding="utf-8"?>
<!-- Generator: Adobe Illustrator 16.0.0, SVG Export Plug-In . SVG Version: 6.00 Build 0)  -->
<!DOCTYPE svg PUBLIC "-//W3C//DTD SVG 1.1//EN" "http://www.w3.org/Graphics/SVG/1.1/DTD/svg11.dtd">
<svg version="1.1" id="Layer_3" xmlns="http://www.w3.org/2000/svg" xmlns:xlink="http://www.w3.org/1999/xlink" x="0px" y="0px"
	 width="100px" height="100px" viewBox="0 0 100 100" enable-background="new 0 0 100 100" xml:space="preserve">
<path d="M64.321,26.819c0.099,0.127,0.147,0.279,0.147,0.432c0,0.15-0.048,0.3-0.144,0.427c-0.191,0.254-0.529,0.35-0.825,0.232
	l-8.846-3.494v20.478c0,0.392-0.317,0.708-0.709,0.708l-7.089,0.001c-0.392,0-0.709-0.317-0.709-0.709V24.416l-8.846,3.494
	c-0.296,0.117-0.635,0.021-0.826-0.232c-0.192-0.254-0.19-0.606,0.004-0.858L49.838,9.442c0.134-0.175,0.342-0.276,0.562-0.276
	s0.428,0.102,0.563,0.276L64.321,26.819z M49.438,90.558c0.135,0.175,0.343,0.276,0.563,0.276s0.428-0.102,0.562-0.276
	l13.359-17.377c0.194-0.252,0.196-0.604,0.004-0.858c-0.191-0.254-0.53-0.35-0.826-0.232l-8.846,3.494V55.106
	c0-0.392-0.317-0.709-0.709-0.709l-7.089,0.001c-0.392,0-0.709,0.316-0.709,0.708v20.478l-8.846-3.494
	c-0.296-0.117-0.634-0.021-0.825,0.232c-0.096,0.127-0.144,0.276-0.144,0.427c0,0.152,0.049,0.305,0.147,0.432L49.438,90.558z
	 M54.849,53.445c0,0.391,0.316,0.709,0.708,0.709h20.478L72.54,63c-0.117,0.295-0.021,0.633,0.232,0.824
	c0.127,0.096,0.276,0.145,0.427,0.145c0.152,0,0.305-0.049,0.432-0.148l17.377-13.357c0.175-0.135,0.276-0.344,0.276-0.563
	c0-0.221-0.102-0.428-0.276-0.563L73.631,35.979c-0.252-0.193-0.604-0.195-0.858-0.004s-0.35,0.531-0.232,0.826l3.494,8.846H55.557
	c-0.392,0-0.709,0.318-0.709,0.709L54.849,53.445z M9.116,49.75c0,0.221,0.102,0.428,0.276,0.563L26.77,63.672
	c0.252,0.193,0.604,0.195,0.858,0.004s0.35-0.531,0.232-0.826l-3.494-8.846h20.478c0.392,0,0.709-0.318,0.709-0.709l-0.001-7.09
	c0-0.391-0.316-0.709-0.708-0.709H24.366l3.494-8.846c0.117-0.295,0.021-0.633-0.232-0.824c-0.127-0.096-0.276-0.145-0.427-0.145
	c-0.152,0-0.305,0.049-0.432,0.148L9.393,49.188C9.218,49.322,9.116,49.531,9.116,49.75z"/>
</svg>
