<?xml version="1.0" encoding="utf-8"?>
<!-- Generator: Adobe Illustrator 16.0.0, SVG Export Plug-In . SVG Version: 6.00 Build 0)  -->
<!DOCTYPE svg PUBLIC "-//W3C//DTD SVG 1.1//EN" "http://www.w3.org/Graphics/SVG/1.1/DTD/svg11.dtd">
<svg version="1.1" id="Layer_3" xmlns="http://www.w3.org/2000/svg" xmlns:xlink="http://www.w3.org/1999/xlink" x="0px" y="0px"
	 width="100px" height="100px" viewBox="0 0 100 100" enable-background="new 0 0 100 100" xml:space="preserve">
<path d="M95.062,49.532v1.321c0,10.873-8.846,19.717-19.718,19.717H59.665c0,0,3.638-2.467,2.847-7.697h12.832
	c6.629,0,12.021-5.392,12.021-12.021v-1.321c0-6.629-5.393-12.021-12.021-12.021H57.691V37.51h-4.655l2.716,6.878
	c0.096,0.243,0.018,0.519-0.19,0.676c-0.209,0.158-0.496,0.157-0.703-0.003L40.63,34.124c-0.144-0.11-0.227-0.28-0.227-0.46
	s0.083-0.351,0.227-0.461l14.229-10.938c0.104-0.082,0.229-0.121,0.354-0.121c0.123,0,0.246,0.038,0.35,0.117
	c0.208,0.157,0.286,0.434,0.19,0.676l-2.716,6.879h4.655v-0.001h17.652C86.216,29.814,95.062,38.66,95.062,49.532z M45.142,54.938
	c-0.207-0.159-0.494-0.16-0.703-0.002c-0.208,0.157-0.286,0.434-0.19,0.676l2.716,6.878h-4.655v-0.001H24.656
	c-6.629,0-12.021-5.393-12.021-12.021v-1.321c0-6.628,5.393-12.021,12.021-12.021h12.832c-0.791-5.229,2.847-7.697,2.847-7.697
	H24.656c-10.872,0-19.718,8.845-19.718,19.718v1.321c0,10.873,8.846,19.718,19.718,19.718h17.652v-0.001h4.655l-2.716,6.878
	c-0.096,0.243-0.018,0.52,0.19,0.677c0.104,0.079,0.227,0.117,0.35,0.117c0.124,0,0.25-0.039,0.354-0.121L59.37,66.798
	c0.144-0.11,0.227-0.28,0.227-0.461s-0.083-0.35-0.227-0.46L45.142,54.938z"/>
</svg>
