<?xml version="1.0" encoding="utf-8"?>
<!-- Generator: Adobe Illustrator 16.0.0, SVG Export Plug-In . SVG Version: 6.00 Build 0)  -->
<!DOCTYPE svg PUBLIC "-//W3C//DTD SVG 1.1//EN" "http://www.w3.org/Graphics/SVG/1.1/DTD/svg11.dtd">
<svg version="1.1" id="Layer_3" xmlns="http://www.w3.org/2000/svg" xmlns:xlink="http://www.w3.org/1999/xlink" x="0px" y="0px"
	 width="100px" height="100px" viewBox="0 0 100 100" enable-background="new 0 0 100 100" xml:space="preserve">
<path d="M86.29,55.803c0,18.213-14.817,33.03-33.03,33.03s-33.03-14.817-33.03-33.03c0-6.021,1.638-11.917,4.735-17.047l8.618,5.202
	c-2.15,3.562-3.286,7.658-3.287,11.846c0,12.662,10.301,22.963,22.963,22.963s22.963-10.301,22.963-22.963
	c0-12.204-9.576-22.185-21.604-22.894h-4.924l4.147,10.498c0.139,0.352,0.026,0.753-0.276,0.98
	c-0.302,0.228-0.719,0.227-1.019-0.004L31.926,28.529c-0.207-0.16-0.329-0.404-0.329-0.667c0-0.262,0.122-0.508,0.329-0.667
	l20.621-15.854c0.151-0.117,0.331-0.174,0.512-0.174c0.179,0,0.356,0.056,0.507,0.169c0.302,0.227,0.415,0.629,0.276,0.981
	l-4.147,10.497l3.566-0.042c1.275,0,5.506,0.429,6.203,0.593C74.72,26.278,86.29,39.711,86.29,55.803z"/>
</svg>
