<?xml version="1.0" encoding="utf-8"?>
<!-- Generator: Adobe Illustrator 16.0.0, SVG Export Plug-In . SVG Version: 6.00 Build 0)  -->
<!DOCTYPE svg PUBLIC "-//W3C//DTD SVG 1.1//EN" "http://www.w3.org/Graphics/SVG/1.1/DTD/svg11.dtd">
<svg version="1.1" id="Layer_3" xmlns="http://www.w3.org/2000/svg" xmlns:xlink="http://www.w3.org/1999/xlink" x="0px" y="0px"
	 width="100px" height="100px" viewBox="0 0 100 100" enable-background="new 0 0 100 100" xml:space="preserve">
<path d="M66.72,57.088c0,9.727-7.186,17.785-16.522,19.204v11.614h-7.854V68.997c0-0.361,0.293-0.654,0.655-0.654h6.321
	c5.337-0.97,9.4-5.643,9.4-11.255c0-5.826-4.379-10.64-10.016-11.349h-5.705c-0.362,0-0.654-0.293-0.654-0.654V26.176l-8.169,3.227
	c-0.273,0.107-0.586,0.02-0.763-0.215c-0.178-0.235-0.177-0.56,0.004-0.793l12.336-16.046c0.123-0.161,0.315-0.255,0.519-0.255
	s0.395,0.094,0.519,0.255l12.336,16.046c0.091,0.117,0.136,0.258,0.136,0.398c0,0.139-0.044,0.277-0.132,0.395
	c-0.177,0.234-0.489,0.322-0.763,0.215l-8.168-3.227v11.709C59.535,39.304,66.72,47.362,66.72,57.088z M54.104,56.854
	c0-4.326-3.507-7.834-7.833-7.834s-7.834,3.508-7.834,7.834s3.508,7.833,7.834,7.833S54.104,61.181,54.104,56.854z"/>
</svg>
