<?xml version="1.0" encoding="utf-8"?>
<!-- Generator: Adobe Illustrator 16.0.0, SVG Export Plug-In . SVG Version: 6.00 Build 0)  -->
<!DOCTYPE svg PUBLIC "-//W3C//DTD SVG 1.1//EN" "http://www.w3.org/Graphics/SVG/1.1/DTD/svg11.dtd">
<svg version="1.1" id="Layer_3" xmlns="http://www.w3.org/2000/svg" xmlns:xlink="http://www.w3.org/1999/xlink" x="0px" y="0px"
	 width="100px" height="100px" viewBox="0 0 100 100" enable-background="new 0 0 100 100" xml:space="preserve">
<path d="M62.122,45.166c0-11.403-9.277-20.68-20.68-20.68c-11.403,0-20.681,9.277-20.681,20.68c0,4.036,1.181,7.793,3.188,10.98
	h-9.348v9.7h26.841C52.845,65.846,62.122,56.569,62.122,45.166z M41.442,56.146c-6.055,0-10.98-4.926-10.98-10.98
	s4.926-10.98,10.98-10.98c6.054,0,10.979,4.926,10.979,10.98S47.496,56.146,41.442,56.146z M85.398,60.996
	c0,0.228-0.105,0.442-0.285,0.58L67.181,75.362c-0.131,0.102-0.288,0.151-0.445,0.152c-0.155,0-0.31-0.048-0.44-0.147
	c-0.263-0.198-0.36-0.547-0.24-0.853l3.424-8.667H51.022c0,0,8-2.392,10.75-9.7h7.706l-3.424-8.667
	c-0.12-0.306-0.022-0.655,0.24-0.853c0.263-0.199,0.625-0.198,0.886,0.004l17.933,13.787C85.293,60.555,85.399,60.769,85.398,60.996
	z"/>
</svg>
