<?xml version="1.0" encoding="utf-8"?>
<!-- Generator: Adobe Illustrator 16.0.0, SVG Export Plug-In . SVG Version: 6.00 Build 0)  -->
<!DOCTYPE svg PUBLIC "-//W3C//DTD SVG 1.1//EN" "http://www.w3.org/Graphics/SVG/1.1/DTD/svg11.dtd">
<svg version="1.1" id="Layer_3" xmlns="http://www.w3.org/2000/svg" xmlns:xlink="http://www.w3.org/1999/xlink" x="0px" y="0px"
	 width="100px" height="100px" viewBox="0 0 100 100" enable-background="new 0 0 100 100" xml:space="preserve">
<path d="M60.61,84.723l0.011,0.01c-2.432,1.719-3.941,4.875-3.939,8.23l-8.798,0.002c-0.002-4.813,2.197-9.348,5.92-12.305
	c2.276-1.787,3.636-4.762,3.636-7.986c0-5.531-3.852-9.385-7.309-9.385v-0.076c-8.24-0.777-14.479-7.398-14.479-15.709
	c0-4.688,2.021-9.02,5.565-12L41.211,35.5c1.497-1.27,2.56-3.09,3.064-5.115V18.914l-9.474,2.723
	c-0.317,0.09-0.679,0.016-0.885-0.182c-0.207-0.197-0.205-0.473,0.004-0.668L48.229,7.25c0.143-0.137,0.366-0.215,0.601-0.215
	c0.235,0,0.459,0.078,0.603,0.215l14.307,13.537c0.104,0.098,0.156,0.217,0.156,0.336c0,0.117-0.05,0.232-0.151,0.332
	c-0.206,0.197-0.567,0.271-0.886,0.182l-9.473-2.723v8.035c0.224,4.748-1.711,9.361-5.25,12.496l0.019,0.014
	c-2.318,1.779-3.703,4.787-3.703,8.045c0,5.531,3.853,9.385,7.31,9.385v0.078c8.238,0.775,14.478,7.396,14.478,15.707
	C66.237,77.389,64.192,81.742,60.61,84.723z"/>
</svg>
