<?xml version="1.0" encoding="utf-8"?>
<!-- Generator: Adobe Illustrator 16.0.0, SVG Export Plug-In . SVG Version: 6.00 Build 0)  -->
<!DOCTYPE svg PUBLIC "-//W3C//DTD SVG 1.1//EN" "http://www.w3.org/Graphics/SVG/1.1/DTD/svg11.dtd">
<svg version="1.1" id="Layer_3" xmlns="http://www.w3.org/2000/svg" xmlns:xlink="http://www.w3.org/1999/xlink" x="0px" y="0px"
	 width="100px" height="100px" viewBox="0 0 100 100" enable-background="new 0 0 100 100" xml:space="preserve">
<path d="M65.136,34.826l-10.221-4.037v53.938c0,0.452-0.366,0.819-0.819,0.819h-8.191c-0.452,0-0.818-0.367-0.818-0.819V30.789
	l-10.222,4.037c-0.343,0.135-0.733,0.025-0.955-0.27c-0.222-0.293-0.221-0.699,0.005-0.991l15.437-20.079
	c0.155-0.202,0.396-0.319,0.649-0.319c0.255,0,0.494,0.117,0.649,0.319l15.437,20.079c0.113,0.147,0.17,0.323,0.17,0.499
	c0,0.174-0.055,0.347-0.165,0.492C65.87,34.852,65.479,34.961,65.136,34.826z M79.473,41.787H57.915v17.5h21.558
	c1.104,0,2-0.896,2-2v-13.5C81.473,42.683,80.577,41.787,79.473,41.787z M18.527,43.787v13.5c0,1.104,0.896,2,2,2h21.559v-17.5
	H20.527C19.423,41.787,18.527,42.683,18.527,43.787z"/>
</svg>
