<?xml version="1.0" encoding="utf-8"?>
<!-- Generator: Adobe Illustrator 16.0.0, SVG Export Plug-In . SVG Version: 6.00 Build 0)  -->
<!DOCTYPE svg PUBLIC "-//W3C//DTD SVG 1.1//EN" "http://www.w3.org/Graphics/SVG/1.1/DTD/svg11.dtd">
<svg version="1.1" id="Layer_3" xmlns="http://www.w3.org/2000/svg" xmlns:xlink="http://www.w3.org/1999/xlink" x="0px" y="0px"
	 width="100px" height="100px" viewBox="0 0 100 100" enable-background="new 0 0 100 100" xml:space="preserve">
<path d="M41.354,42.189L17.451,23.813c-0.239-0.186-0.381-0.469-0.381-0.773c0-0.303,0.142-0.588,0.381-0.772L41.354,3.89
	c0.176-0.135,0.384-0.201,0.595-0.201c0.206,0,0.412,0.064,0.587,0.195c0.35,0.264,0.48,0.729,0.318,1.139l-4.806,12.167
	l6.186,0.018c0,0,0.593,0.033,1.415,0.104l-0.003-0.104c0.524-0.012,12.486-0.142,20.843,8.056
	c5.141,5.042,7.746,11.912,7.746,20.418v28.015H62.565V45.681c0-5.329-1.39-9.282-4.249-12.087
	c-4.07-3.993-10.062-4.613-11.885-4.704h-8.384l4.806,12.168c0.162,0.407,0.031,0.873-0.318,1.137
	C42.186,42.459,41.701,42.457,41.354,42.189z M80.93,78.812H21.984c-1.105,0-2,0.896-2,2v13.5c0,1.104,0.895,2,2,2H80.93
	c1.104,0,2-0.896,2-2v-13.5C82.93,79.707,82.033,78.812,80.93,78.812z"/>
</svg>
