<?xml version="1.0" encoding="utf-8"?>
<!-- Generator: Adobe Illustrator 16.0.0, SVG Export Plug-In . SVG Version: 6.00 Build 0)  -->
<!DOCTYPE svg PUBLIC "-//W3C//DTD SVG 1.1//EN" "http://www.w3.org/Graphics/SVG/1.1/DTD/svg11.dtd">
<svg version="1.1" id="Layer_3" xmlns="http://www.w3.org/2000/svg" xmlns:xlink="http://www.w3.org/1999/xlink" x="0px" y="0px"
	 width="100px" height="100px" viewBox="0 0 100 100" enable-background="new 0 0 100 100" xml:space="preserve">
<path d="M79.912,69.304L69.307,79.911c-0.588,0.586-1.535,0.586-2.123,0L36.545,49.271l-8.009,18.464
	c-0.269,0.618-0.917,0.983-1.585,0.888c-0.668-0.093-1.193-0.62-1.279-1.292l-6.011-45.988c-0.061-0.461,0.097-0.926,0.426-1.255
	c0.33-0.33,0.794-0.487,1.256-0.427l45.989,6.011c0.337,0.044,0.639,0.198,0.867,0.427c0.225,0.225,0.378,0.52,0.425,0.853
	c0.094,0.667-0.271,1.316-0.889,1.584l-18.464,8.007l30.641,30.64C80.498,67.77,80.498,68.718,79.912,69.304z"/>
</svg>
