<?xml version="1.0" encoding="utf-8"?>
<!-- Generator: Adobe Illustrator 16.0.0, SVG Export Plug-In . SVG Version: 6.00 Build 0)  -->
<!DOCTYPE svg PUBLIC "-//W3C//DTD SVG 1.1//EN" "http://www.w3.org/Graphics/SVG/1.1/DTD/svg11.dtd">
<svg version="1.1" id="Layer_3" xmlns="http://www.w3.org/2000/svg" xmlns:xlink="http://www.w3.org/1999/xlink" x="0px" y="0px"
	 width="100px" height="100px" viewBox="0 0 100 100" enable-background="new 0 0 100 100" xml:space="preserve">
<path d="M81.84,25.094L67.36,39.573l8.726,3.784c0.292,0.127,0.464,0.434,0.42,0.749c-0.043,0.315-0.294,0.563-0.61,0.604
	l-21.733,2.842c-0.218,0.028-0.438-0.047-0.593-0.202s-0.23-0.374-0.202-0.593l2.841-21.733c0.02-0.159,0.093-0.302,0.201-0.409
	c0.106-0.106,0.246-0.179,0.403-0.201c0.315-0.044,0.622,0.128,0.748,0.42l3.784,8.726l14.48-14.48
	c0.277-0.276,0.725-0.275,1.002,0.001l5.013,5.012C82.117,24.368,82.117,24.816,81.84,25.094z M46.299,52.907l-21.733,2.841
	c-0.316,0.041-0.566,0.289-0.61,0.604c-0.044,0.315,0.127,0.622,0.42,0.749l8.726,3.784l-14.48,14.479
	c-0.277,0.277-0.277,0.726,0,1.003l5.013,5.012c0.277,0.277,0.725,0.278,1.002,0.001l14.48-14.48l3.784,8.726
	c0.126,0.292,0.433,0.463,0.748,0.419c0.158-0.022,0.297-0.094,0.403-0.2c0.108-0.107,0.181-0.25,0.201-0.41l2.841-21.733
	c0.028-0.219-0.047-0.438-0.202-0.593S46.517,52.878,46.299,52.907z M66.441,61.344l8.726-3.784
	c0.292-0.126,0.463-0.433,0.419-0.747c-0.022-0.158-0.094-0.298-0.201-0.403c-0.107-0.108-0.25-0.182-0.409-0.201l-21.733-2.842
	c-0.219-0.028-0.438,0.047-0.593,0.202c-0.155,0.155-0.23,0.375-0.201,0.593l2.841,21.733c0.041,0.316,0.289,0.566,0.604,0.61
	c0.315,0.044,0.622-0.128,0.749-0.42l3.784-8.726l14.479,14.479c0.277,0.277,0.726,0.277,1.003,0l5.012-5.013
	c0.277-0.277,0.278-0.726,0.001-1.002L66.441,61.344z M33.099,39.114l-8.726,3.784c-0.292,0.126-0.463,0.433-0.419,0.747
	c0.022,0.158,0.094,0.297,0.2,0.403c0.108,0.108,0.25,0.182,0.41,0.201l21.733,2.842c0.219,0.028,0.438-0.047,0.593-0.202
	s0.23-0.375,0.202-0.593l-2.841-21.733c-0.041-0.316-0.289-0.566-0.604-0.61c-0.315-0.044-0.622,0.128-0.749,0.42l-3.784,8.726
	L24.635,18.619c-0.277-0.277-0.726-0.277-1.003,0l-5.012,5.013c-0.277,0.277-0.277,0.726,0,1.002L33.099,39.114z"/>
</svg>
