<?xml version="1.0" encoding="utf-8"?>
<!-- Generator: Adobe Illustrator 16.0.0, SVG Export Plug-In . SVG Version: 6.00 Build 0)  -->
<!DOCTYPE svg PUBLIC "-//W3C//DTD SVG 1.1//EN" "http://www.w3.org/Graphics/SVG/1.1/DTD/svg11.dtd">
<svg version="1.1" id="Layer_3" xmlns="http://www.w3.org/2000/svg" xmlns:xlink="http://www.w3.org/1999/xlink" x="0px" y="0px"
	 width="100px" height="100px" viewBox="0 0 100 100" enable-background="new 0 0 100 100" xml:space="preserve">
<path d="M78.582,53.948v34.097H66.913V53.948c0-5.33-1.39-9.283-4.249-12.087c-4.07-3.993-10.062-4.613-11.885-4.704h-8.384
	l4.806,12.168c0.162,0.408,0.031,0.873-0.318,1.137c-0.35,0.265-0.834,0.263-1.182-0.005L21.799,32.08
	c-0.239-0.186-0.381-0.469-0.381-0.773c0-0.303,0.142-0.588,0.381-0.772l23.902-18.377c0.176-0.135,0.384-0.201,0.595-0.201
	c0.206,0,0.412,0.064,0.587,0.196c0.35,0.263,0.48,0.729,0.318,1.138l-4.806,12.167l6.186,0.018c0,0,0.593,0.033,1.415,0.103
	l-0.003-0.104c0.524-0.011,12.486-0.142,20.843,8.056C75.977,38.572,78.582,45.441,78.582,53.948z"/>
</svg>
