<?xml version="1.0" encoding="utf-8"?>
<!-- Generator: Adobe Illustrator 16.0.0, SVG Export Plug-In . SVG Version: 6.00 Build 0)  -->
<!DOCTYPE svg PUBLIC "-//W3C//DTD SVG 1.1//EN" "http://www.w3.org/Graphics/SVG/1.1/DTD/svg11.dtd">
<svg version="1.1" id="Layer_3" xmlns="http://www.w3.org/2000/svg" xmlns:xlink="http://www.w3.org/1999/xlink" x="0px" y="0px"
	 width="100px" height="100px" viewBox="0 0 100 100" enable-background="new 0 0 100 100" xml:space="preserve">
<path d="M87.282,45.5v2.813V54.5v2.813c-17.082,0-22.363,3.616-27.956,7.444c-5.373,3.678-10.929,7.481-24.544,7.481v-0.084
	c-0.645,0.056-1.114,0.083-1.114,0.083l-4.771,0.014l3.707,9.384c0.125,0.315,0.023,0.675-0.246,0.877
	c-0.135,0.102-0.293,0.151-0.453,0.151c-0.162,0-0.322-0.051-0.458-0.155L13.012,68.334c-0.185-0.142-0.294-0.362-0.294-0.596
	c0-0.234,0.109-0.453,0.294-0.596l18.436-14.174c0.269-0.207,0.642-0.208,0.911-0.003c0.27,0.203,0.371,0.562,0.246,0.876
	l-3.707,9.385h6.645c10.237-0.123,13.996-2.676,18.7-5.896c2.988-2.045,6.174-4.222,10.912-5.924
	c-4.738-1.703-7.924-3.879-10.912-5.924c-4.704-3.22-8.463-5.773-18.7-5.896h-6.645l3.707,9.385
	c0.125,0.314,0.023,0.673-0.246,0.876c-0.27,0.204-0.643,0.203-0.911-0.003L13.012,35.67c-0.185-0.143-0.294-0.362-0.294-0.596
	c0-0.234,0.109-0.454,0.294-0.596l18.436-14.174c0.136-0.104,0.296-0.155,0.458-0.155c0.16,0,0.318,0.05,0.453,0.151
	c0.27,0.203,0.371,0.563,0.246,0.877l-3.707,9.384l4.771,0.014c0,0,0.47,0.026,1.114,0.083v-0.084
	c13.615,0,19.171,3.803,24.544,7.481C64.919,41.884,70.2,45.5,87.282,45.5z"/>
</svg>
