<?xml version="1.0" encoding="utf-8"?>
<!-- Generator: Adobe Illustrator 16.0.0, SVG Export Plug-In . SVG Version: 6.00 Build 0)  -->
<!DOCTYPE svg PUBLIC "-//W3C//DTD SVG 1.1//EN" "http://www.w3.org/Graphics/SVG/1.1/DTD/svg11.dtd">
<svg version="1.1" id="Layer_3" xmlns="http://www.w3.org/2000/svg" xmlns:xlink="http://www.w3.org/1999/xlink" x="0px" y="0px"
	 width="100px" height="100px" viewBox="0 0 100 100" enable-background="new 0 0 100 100" xml:space="preserve">
<path d="M70.799,59.599c0.146,0.19,0.219,0.417,0.219,0.645c0,0.225-0.07,0.449-0.213,0.638c-0.286,0.38-0.792,0.522-1.235,0.348
	l-13.215-5.221v30.594c0,0.585-0.474,1.059-1.059,1.059H44.705c-0.585,0-1.059-0.474-1.059-1.059V56.008l-13.216,5.221
	c-0.442,0.175-0.948,0.032-1.234-0.348c-0.287-0.38-0.286-0.905,0.006-1.283l19.959-25.96c0.2-0.261,0.51-0.414,0.839-0.414
	s0.64,0.153,0.84,0.414L70.799,59.599z M79.473,12.339H20.527c-1.104,0-2,0.896-2,2v13.5c0,1.104,0.896,2,2,2h58.945
	c1.104,0,2-0.896,2-2v-13.5C81.473,13.234,80.577,12.339,79.473,12.339z"/>
</svg>
