<?xml version="1.0" encoding="utf-8"?>
<!-- Generator: Adobe Illustrator 16.0.0, SVG Export Plug-In . SVG Version: 6.00 Build 0)  -->
<!DOCTYPE svg PUBLIC "-//W3C//DTD SVG 1.1//EN" "http://www.w3.org/Graphics/SVG/1.1/DTD/svg11.dtd">
<svg version="1.1" id="Layer_3" xmlns="http://www.w3.org/2000/svg" xmlns:xlink="http://www.w3.org/1999/xlink" x="0px" y="0px"
	 width="100px" height="100px" viewBox="0 0 100 100" enable-background="new 0 0 100 100" xml:space="preserve">
<path d="M70.986,49.147c0.146,0.192,0.222,0.422,0.222,0.651c0,0.227-0.071,0.451-0.216,0.645c-0.288,0.383-0.799,0.525-1.245,0.35
	l-13.335-5.268l0.001,30.87c-0.001,0.589-0.479,1.069-1.07,1.069H44.658c-0.591,0-1.068-0.479-1.069-1.07V45.525l-13.334,5.27
	c-0.447,0.174-0.958,0.031-1.247-0.354c-0.289-0.383-0.289-0.912,0.007-1.293l20.138-26.195c0.202-0.264,0.517-0.418,0.847-0.418
	c0.334,0,0.646,0.154,0.849,0.418L70.986,49.147z M88.978,50c0,21.492-17.485,38.979-38.978,38.979S11.022,71.492,11.022,50
	S28.508,11.021,50,11.021S88.978,28.508,88.978,50z M84.703,50c0-19.135-15.567-34.703-34.703-34.703S15.297,30.865,15.297,50
	c0,19.137,15.568,34.703,34.703,34.703C69.136,84.703,84.703,69.137,84.703,50z"/>
</svg>
