<?xml version="1.0" encoding="utf-8"?>
<!-- Generator: Adobe Illustrator 16.0.0, SVG Export Plug-In . SVG Version: 6.00 Build 0)  -->
<!DOCTYPE svg PUBLIC "-//W3C//DTD SVG 1.1//EN" "http://www.w3.org/Graphics/SVG/1.1/DTD/svg11.dtd">
<svg version="1.1" id="Layer_3" xmlns="http://www.w3.org/2000/svg" xmlns:xlink="http://www.w3.org/1999/xlink" x="0px" y="0px"
	 width="100px" height="100px" viewBox="0 0 100 100" enable-background="new 0 0 100 100" xml:space="preserve">
<path d="M80.572,28.894v56.189c0,3.313-2.686,6-6,6c-3.313,0-6-2.687-6-6V34.894h-27.5c-0.125,0-0.246-0.012-0.369-0.019
	l4.508,11.411c0.162,0.407,0.031,0.873-0.318,1.137s-0.834,0.262-1.182-0.006L19.809,29.041c-0.24-0.187-0.381-0.47-0.381-0.773
	s0.141-0.589,0.381-0.772L43.711,9.118c0.176-0.135,0.383-0.201,0.594-0.201c0.207,0,0.412,0.064,0.588,0.195
	c0.35,0.264,0.48,0.729,0.318,1.139l-4.807,12.166v0.516c0.221-0.024,0.441-0.039,0.668-0.039h33.5
	C77.887,22.894,80.572,25.58,80.572,28.894z"/>
</svg>
