<?xml version="1.0" encoding="utf-8"?>
<!-- Generator: Adobe Illustrator 16.0.0, SVG Export Plug-In . SVG Version: 6.00 Build 0)  -->
<!DOCTYPE svg PUBLIC "-//W3C//DTD SVG 1.1//EN" "http://www.w3.org/Graphics/SVG/1.1/DTD/svg11.dtd">
<svg version="1.1" id="Layer_3" xmlns="http://www.w3.org/2000/svg" xmlns:xlink="http://www.w3.org/1999/xlink" x="0px" y="0px"
	 width="100px" height="100px" viewBox="0 0 100 100" enable-background="new 0 0 100 100" xml:space="preserve">
<path d="M79.913,79.912c-0.33,0.33-0.794,0.487-1.256,0.427l-45.989-6.011c-0.337-0.044-0.639-0.198-0.867-0.427
	c-0.225-0.225-0.378-0.52-0.425-0.853c-0.094-0.667,0.271-1.316,0.889-1.585l18.464-8.007l-30.641-30.64
	c-0.586-0.586-0.586-1.536,0-2.122l10.606-10.606c0.587-0.586,1.535-0.586,2.122,0l30.64,30.641l8.008-18.465
	c0.269-0.618,0.917-0.982,1.585-0.888c0.668,0.093,1.193,0.62,1.279,1.291l6.011,45.989C80.399,79.118,80.241,79.583,79.913,79.912z
	"/>
</svg>
