<?xml version="1.0" encoding="utf-8"?>
<!-- Generator: Adobe Illustrator 16.0.0, SVG Export Plug-In . SVG Version: 6.00 Build 0)  -->
<!DOCTYPE svg PUBLIC "-//W3C//DTD SVG 1.1//EN" "http://www.w3.org/Graphics/SVG/1.1/DTD/svg11.dtd">
<svg version="1.1" id="Layer_3" xmlns="http://www.w3.org/2000/svg" xmlns:xlink="http://www.w3.org/1999/xlink" x="0px" y="0px"
	 width="100px" height="100px" viewBox="0 0 100 100" enable-background="new 0 0 100 100" xml:space="preserve">
<path d="M54.097,63.613H18.292c-0.859,0-1.556-0.696-1.556-1.556V51.556c0-0.859,0.696-1.556,1.556-1.556h35.199
	c1.984,1.741,3.229,4.286,3.229,7.088C56.72,59.598,55.731,61.906,54.097,63.613z M81.708,50H67.49
	c0.796,2.232,1.229,4.622,1.229,7.088c0,2.263-0.38,4.454-1.055,6.525h14.043c0.858,0,1.556-0.696,1.556-1.556V51.556
	C83.264,50.696,82.566,50,81.708,50z M50.199,37.885V26.176l8.168,3.227c0.273,0.107,0.586,0.02,0.763-0.215
	c0.088-0.117,0.132-0.256,0.132-0.395c0-0.141-0.045-0.281-0.136-0.398L46.79,12.349c-0.124-0.161-0.315-0.255-0.519-0.255
	s-0.396,0.094-0.519,0.255L33.417,28.395c-0.181,0.233-0.182,0.558-0.004,0.793c0.177,0.234,0.489,0.322,0.763,0.215l8.169-3.227
	v18.909c0,0.361,0.292,0.654,0.654,0.654h5.705c5.637,0.709,10.016,5.522,10.016,11.349c0,5.612-4.063,10.285-9.4,11.255h-6.321
	c-0.362,0-0.655,0.293-0.655,0.654v18.909h7.854V76.292c9.337-1.419,16.522-9.478,16.522-19.204
	C66.72,47.362,59.535,39.304,50.199,37.885z"/>
</svg>
