<?xml version="1.0" encoding="utf-8"?>
<!-- Generator: Adobe Illustrator 16.0.0, SVG Export Plug-In . SVG Version: 6.00 Build 0)  -->
<!DOCTYPE svg PUBLIC "-//W3C//DTD SVG 1.1//EN" "http://www.w3.org/Graphics/SVG/1.1/DTD/svg11.dtd">
<svg version="1.1" id="Layer_3" xmlns="http://www.w3.org/2000/svg" xmlns:xlink="http://www.w3.org/1999/xlink" x="0px" y="0px"
	 width="100px" height="100px" viewBox="0 0 100 100" enable-background="new 0 0 100 100" xml:space="preserve">
<path d="M69.224,59.474c0,0.205-0.064,0.41-0.195,0.583c-0.262,0.348-0.725,0.478-1.13,0.317L55.813,55.6v27.981
	c0,0.535-0.434,0.969-0.97,0.969h-9.686c-0.534,0-0.968-0.434-0.968-0.969V55.6l-12.088,4.774c-0.404,0.16-0.867,0.03-1.129-0.317
	c-0.263-0.348-0.262-0.828,0.006-1.174L49.232,35.14c0.184-0.239,0.467-0.378,0.768-0.378s0.585,0.139,0.768,0.378l18.255,23.743
	C69.156,59.057,69.224,59.266,69.224,59.474z M50,15.45c-4.524,0-8.192,3.668-8.192,8.191c0,4.525,3.668,8.193,8.192,8.193
	s8.193-3.668,8.193-8.193C58.193,19.118,54.524,15.45,50,15.45z"/>
</svg>
