<?xml version="1.0" encoding="utf-8"?>
<!-- Generator: Adobe Illustrator 16.0.0, SVG Export Plug-In . SVG Version: 6.00 Build 0)  -->
<!DOCTYPE svg PUBLIC "-//W3C//DTD SVG 1.1//EN" "http://www.w3.org/Graphics/SVG/1.1/DTD/svg11.dtd">
<svg version="1.1" id="Layer_3" xmlns="http://www.w3.org/2000/svg" xmlns:xlink="http://www.w3.org/1999/xlink" x="0px" y="0px"
	 width="100px" height="100px" viewBox="0 0 100 100" enable-background="new 0 0 100 100" xml:space="preserve">
<path d="M69.725,68.525c0.043,0.329-0.07,0.661-0.304,0.895c-0.235,0.236-0.566,0.348-0.896,0.305l-32.762-4.282
	c-0.24-0.032-0.455-0.142-0.617-0.304c-0.16-0.16-0.27-0.37-0.304-0.608c-0.067-0.475,0.193-0.937,0.633-1.128l13.154-5.704
	L26.801,35.87c-0.416-0.417-0.418-1.095,0.001-1.513l7.555-7.555c0.418-0.418,1.095-0.417,1.513,0l21.828,21.828L63.4,35.477
	c0.193-0.439,0.654-0.7,1.131-0.633c0.476,0.066,0.85,0.441,0.91,0.92L69.725,68.525z M77.562,77.562
	c-15.197,15.197-39.926,15.197-55.123,0s-15.197-39.926,0-55.123s39.926-15.197,55.123,0C92.759,37.637,92.759,62.364,77.562,77.562
	z M74.539,25.461c-13.531-13.531-35.548-13.53-49.078,0c-13.531,13.531-13.531,35.547,0,49.078c13.53,13.53,35.547,13.531,49.078,0
	C88.069,61.008,88.069,38.992,74.539,25.461z"/>
</svg>
