<?xml version="1.0" encoding="utf-8"?>
<!-- Generator: Adobe Illustrator 16.0.0, SVG Export Plug-In . SVG Version: 6.00 Build 0)  -->
<!DOCTYPE svg PUBLIC "-//W3C//DTD SVG 1.1//EN" "http://www.w3.org/Graphics/SVG/1.1/DTD/svg11.dtd">
<svg version="1.1" id="Layer_3" xmlns="http://www.w3.org/2000/svg" xmlns:xlink="http://www.w3.org/1999/xlink" x="0px" y="0px"
	 width="100px" height="100px" viewBox="0 0 100 100" enable-background="new 0 0 100 100" xml:space="preserve">
<path d="M68.213,32.75c0,0.168-0.055,0.336-0.16,0.477c-0.215,0.285-0.592,0.392-0.924,0.26l-9.881-3.902V86.66
	c0,0.438-0.355,0.793-0.793,0.793h-7.918c-0.438,0-0.793-0.355-0.793-0.793V66.637l-0.021,0.008v-0.096
	c-6.422,4.393-13.914,5.695-14.461,5.786l-1.475-8.879c0.15-0.025,13.951-2.48,15.957-11.273V29.584l-9.881,3.902
	c-0.332,0.132-0.709,0.025-0.924-0.26c-0.215-0.283-0.213-0.676,0.004-0.959l14.926-19.412c0.148-0.195,0.381-0.309,0.627-0.309
	s0.479,0.113,0.627,0.309l14.926,19.412C68.158,32.41,68.213,32.58,68.213,32.75z"/>
</svg>
