<?xml version="1.0" encoding="utf-8"?>
<!-- Generator: Adobe Illustrator 16.0.0, SVG Export Plug-In . SVG Version: 6.00 Build 0)  -->
<!DOCTYPE svg PUBLIC "-//W3C//DTD SVG 1.1//EN" "http://www.w3.org/Graphics/SVG/1.1/DTD/svg11.dtd">
<svg version="1.1" id="Layer_3" xmlns="http://www.w3.org/2000/svg" xmlns:xlink="http://www.w3.org/1999/xlink" x="0px" y="0px"
	 width="100px" height="100px" viewBox="0 0 100 100" enable-background="new 0 0 100 100" xml:space="preserve">
<path d="M78.854,65.356c0,0.304-0.141,0.589-0.381,0.772L54.57,84.506c-0.176,0.135-0.383,0.201-0.594,0.201
	c-0.207,0-0.412-0.064-0.588-0.195c-0.35-0.264-0.48-0.729-0.318-1.139l4.807-12.166v-0.516c-0.221,0.024-0.441,0.039-0.668,0.039
	v-0.045H47.146c-14.338,0-26-11.663-26-26v-3.393c0-14.337,11.662-26,26-26h25.979v12H47.146c-7.721,0-14,6.28-14,14v3.393
	c0,7.72,6.279,14,14,14h10.406L53.07,47.338c-0.162-0.407-0.031-0.873,0.318-1.137s0.834-0.262,1.182,0.006l23.902,18.376
	C78.713,64.77,78.854,65.053,78.854,65.356z"/>
</svg>
