<?xml version="1.0" encoding="utf-8"?>
<!-- Generator: Adobe Illustrator 16.0.0, SVG Export Plug-In . SVG Version: 6.00 Build 0)  -->
<!DOCTYPE svg PUBLIC "-//W3C//DTD SVG 1.1//EN" "http://www.w3.org/Graphics/SVG/1.1/DTD/svg11.dtd">
<svg version="1.1" id="Layer_3" xmlns="http://www.w3.org/2000/svg" xmlns:xlink="http://www.w3.org/1999/xlink" x="0px" y="0px"
	 width="100px" height="100px" viewBox="0 0 100 100" enable-background="new 0 0 100 100" xml:space="preserve">
<path d="M87.277,11.167v11.669H65.641c-5.328,0-9.281,1.39-12.086,4.249c-3.994,4.07-4.613,10.062-4.705,11.885v8.384l12.168-4.806
	c0.408-0.162,0.873-0.031,1.137,0.318c0.266,0.35,0.264,0.834-0.004,1.182L43.773,67.95c-0.186,0.239-0.469,0.381-0.773,0.381
	c-0.303,0-0.588-0.142-0.773-0.381L23.85,44.048c-0.135-0.176-0.201-0.384-0.201-0.595c0-0.206,0.064-0.412,0.195-0.587
	c0.264-0.35,0.73-0.48,1.139-0.318l12.168,4.806l0.018-6.186c0,0,0.033-0.593,0.104-1.415l-0.104,0.003
	c-0.012-0.524-0.143-12.486,8.055-20.843c5.043-5.141,11.912-7.746,20.418-7.746H87.277z M73.668,71.333H14.723
	c-1.105,0-2,0.896-2,2v13.5c0,1.104,0.895,2,2,2h58.945c1.104,0,2-0.896,2-2v-13.5C75.668,72.229,74.771,71.333,73.668,71.333z"/>
</svg>
