<?xml version="1.0" encoding="iso-8859-1"?>
<!-- Generator: Adobe Illustrator 18.0.0, SVG Export Plug-In . SVG Version: 6.00 Build 0)  -->
<!DOCTYPE svg PUBLIC "-//W3C//DTD SVG 1.1//EN" "http://www.w3.org/Graphics/SVG/1.1/DTD/svg11.dtd">
<svg version="1.1" id="Capa_1" xmlns="http://www.w3.org/2000/svg" xmlns:xlink="http://www.w3.org/1999/xlink" x="0px" y="0px"
	 viewBox="0 0 22 16" style="enable-background:new 0 0 22 16;" xml:space="preserve">
<g>
	<path style="fill-rule:evenodd;clip-rule:evenodd;" d="M1,3v11.86C1,16,2.111,16,2.111,16h17.778c0,0,1.111,0,1.111-1.14V3h-1v12H2
		V3H1z"/>
	<path style="fill-rule:evenodd;clip-rule:evenodd;" d="M14.003,6C14.554,6,15,5.557,15,5.001V3.999C15,3.447,14.547,3,14.003,3
		H7.997C7.446,3,7,3.443,7,3.999v1.002C7,5.553,7.453,6,7.997,6H14.003z M8,4h6v1H8V4z"/>
	<path style="fill-rule:evenodd;clip-rule:evenodd;" d="M22,1c0-1-1-1-1-1H0.995C0.995,0,0,0,0,1c0,1,0.995,1,0.995,1H21
		C21,2,22,2,22,1z"/>
</g>
<g>
</g>
<g>
</g>
<g>
</g>
<g>
</g>
<g>
</g>
<g>
</g>
<g>
</g>
<g>
</g>
<g>
</g>
<g>
</g>
<g>
</g>
<g>
</g>
<g>
</g>
<g>
</g>
<g>
</g>
</svg>
