<?xml version="1.0" encoding="utf-8"?>
<!-- Generator: Adobe Illustrator 16.0.0, SVG Export Plug-In . SVG Version: 6.00 Build 0)  -->
<!DOCTYPE svg PUBLIC "-//W3C//DTD SVG 1.1//EN" "http://www.w3.org/Graphics/SVG/1.1/DTD/svg11.dtd">
<svg version="1.1" id="Layer_1" xmlns="http://www.w3.org/2000/svg" xmlns:xlink="http://www.w3.org/1999/xlink" x="0px" y="0px"
	 width="100px" height="100px" viewBox="0 0 100 100" enable-background="new 0 0 100 100" xml:space="preserve">
<g>
	<path fill="#020202" d="M50,17.333c-18.042,0-32.667,14.625-32.667,32.667S31.958,82.667,50,82.667S82.667,68.042,82.667,50
		S68.042,17.333,50,17.333z M56.002,19.999l-3.5,15.334h-3.5l-2.5-15.334C50.169,18.165,56.002,19.999,56.002,19.999z M50,62.128
		c-6.698,0-12.128-5.43-12.128-12.128S43.302,37.872,50,37.872S62.128,43.302,62.128,50S56.698,62.128,50,62.128z M50,40.753
		c-5.1,0-9.247,4.147-9.247,9.247S44.9,59.247,50,59.247S59.247,55.1,59.247,50S55.1,40.753,50,40.753z M50,56.605
		c-3.642,0-6.605-2.963-6.605-6.605s2.964-6.605,6.605-6.605c3.643,0,6.604,2.963,6.604,6.605S53.643,56.605,50,56.605z M50,9.334
		C27.577,9.334,9.334,27.577,9.334,50S27.577,90.666,50,90.666S90.666,72.423,90.666,50S72.423,9.334,50,9.334z M50,86.666
		c-20.218,0-36.666-16.448-36.666-36.666S29.782,13.334,50,13.334S86.666,29.782,86.666,50S70.218,86.666,50,86.666z"/>
	<path fill="#020202" d="M50,17.333c-18.042,0-32.667,14.625-32.667,32.667S31.958,82.667,50,82.667S82.667,68.042,82.667,50
		S68.042,17.333,50,17.333z M56.002,19.999l-3.5,15.334h-3.5l-2.5-15.334C50.169,18.165,56.002,19.999,56.002,19.999z M50,62.128
		c-6.698,0-12.128-5.43-12.128-12.128S43.302,37.872,50,37.872S62.128,43.302,62.128,50S56.698,62.128,50,62.128z M50,40.753
		c-5.1,0-9.247,4.147-9.247,9.247S44.9,59.247,50,59.247S59.247,55.1,59.247,50S55.1,40.753,50,40.753z M50,56.605
		c-3.642,0-6.605-2.963-6.605-6.605s2.964-6.605,6.605-6.605c3.643,0,6.604,2.963,6.604,6.605S53.643,56.605,50,56.605z M50,9.334
		C27.577,9.334,9.334,27.577,9.334,50S27.577,90.666,50,90.666S90.666,72.423,90.666,50S72.423,9.334,50,9.334z M50,86.666
		c-20.218,0-36.666-16.448-36.666-36.666S29.782,13.334,50,13.334S86.666,29.782,86.666,50S70.218,86.666,50,86.666z"/>
</g>
</svg>
