<?xml version="1.0" encoding="utf-8"?>
<!-- Generator: Adobe Illustrator 16.0.0, SVG Export Plug-In . SVG Version: 6.00 Build 0)  -->
<!DOCTYPE svg PUBLIC "-//W3C//DTD SVG 1.1//EN" "http://www.w3.org/Graphics/SVG/1.1/DTD/svg11.dtd">
<svg version="1.1" id="Layer_2" xmlns="http://www.w3.org/2000/svg" xmlns:xlink="http://www.w3.org/1999/xlink" x="0px" y="0px"
	 width="100px" height="100px" viewBox="0 0 100 100" enable-background="new 0 0 100 100" xml:space="preserve">
<path d="M61.829,24.202c0,1.458-1.181,2.64-2.638,2.64H18.786c-1.456,0-2.64-1.182-2.64-2.64c0-1.458,1.184-2.639,2.64-2.639h40.405
	C60.648,21.563,61.829,22.745,61.829,24.202z M59.191,34.578H18.786c-1.456,0-2.64,1.182-2.64,2.639c0,1.458,1.184,2.64,2.64,2.64
	h40.405c1.457,0,2.638-1.182,2.638-2.64C61.829,35.759,60.648,34.578,59.191,34.578z M59.191,47.596H18.786
	c-1.456,0-2.64,1.182-2.64,2.639c0,1.458,1.184,2.64,2.64,2.64h40.405c1.457,0,2.638-1.182,2.638-2.64
	C61.829,48.778,60.648,47.596,59.191,47.596z M59.191,60.14H18.786c-1.456,0-2.64,1.182-2.64,2.639c0,1.458,1.184,2.64,2.64,2.64
	h40.405c1.457,0,2.638-1.182,2.638-2.64C61.829,61.322,60.648,60.14,59.191,60.14z M59.191,73.159H18.786
	c-1.456,0-2.64,1.182-2.64,2.639c0,1.458,1.184,2.64,2.64,2.64h40.405c1.457,0,2.638-1.182,2.638-2.64
	C61.829,74.34,60.648,73.159,59.191,73.159z M74.086,37.704c0.299,0.3,0.706,0.469,1.131,0.469c0.424,0,0.831-0.169,1.132-0.469
	l3.394-3.394c0.625-0.625,0.625-1.638,0-2.263c-0.625-0.625-1.639-0.625-2.264,0l-0.662,0.663v-5.035c0-0.883-0.717-1.6-1.601-1.6
	c-0.883,0-1.599,0.716-1.599,1.6v5.035l-0.663-0.663c-0.625-0.625-1.638-0.625-2.263,0c-0.313,0.313-0.469,0.722-0.469,1.131
	c0,0.41,0.156,0.819,0.469,1.132L74.086,37.704z M76.348,55.561c-0.3-0.3-0.707-0.469-1.132-0.469c-0.424,0-0.831,0.168-1.132,0.469
	l-3.393,3.394c-0.625,0.625-0.625,1.638,0,2.262c0.625,0.625,1.638,0.625,2.263,0l0.663-0.663v5.035c0,0.884,0.716,1.6,1.6,1.6
	c0.883,0,1.6-0.716,1.6-1.6v-5.035l0.662,0.663c0.625,0.625,1.639,0.625,2.264,0c0.312-0.312,0.469-0.722,0.469-1.131
	c0-0.41-0.157-0.819-0.469-1.131L76.348,55.561z M68.582,43.849h13.27c1.105,0,2.002-0.896,2.002-2.003
	c0-1.107-0.896-2.002-2.002-2.002h-13.27c-1.105,0-2.003,0.896-2.003,2.002C66.579,42.952,67.477,43.849,68.582,43.849z
	 M81.852,48.607h-13.27c-1.105,0-2.003,0.896-2.003,2.003c0,1.106,0.897,2.002,2.003,2.002h13.27c1.105,0,2.002-0.896,2.002-2.002
	C83.854,49.503,82.957,48.607,81.852,48.607z"/>
</svg>
