<?xml version="1.0" encoding="utf-8"?>
<!-- Generator: Adobe Illustrator 16.0.0, SVG Export Plug-In . SVG Version: 6.00 Build 0)  -->
<!DOCTYPE svg PUBLIC "-//W3C//DTD SVG 1.1//EN" "http://www.w3.org/Graphics/SVG/1.1/DTD/svg11.dtd">
<svg version="1.1" id="Layer_2" xmlns="http://www.w3.org/2000/svg" xmlns:xlink="http://www.w3.org/1999/xlink" x="0px" y="0px"
	 width="100px" height="100px" viewBox="0 0 100 100" enable-background="new 0 0 100 100" xml:space="preserve">
<path d="M16.146,27.877c0-1.458,1.184-2.639,2.64-2.639h43.405c1.457,0,2.638,1.182,2.638,2.639c0,1.458-1.181,2.64-2.638,2.64
	H18.786C17.33,30.517,16.146,29.335,16.146,27.877z M18.786,43.42h28.157c1.456,0,2.638-1.181,2.638-2.639
	c0-1.458-1.182-2.639-2.638-2.639H18.786c-1.456,0-2.64,1.181-2.64,2.639C16.146,42.239,17.33,43.42,18.786,43.42z M62.795,56.58
	H19.391c-1.456,0-2.64,1.181-2.64,2.639s1.184,2.64,2.64,2.64h43.404c1.457,0,2.639-1.182,2.639-2.64S64.252,56.58,62.795,56.58z
	 M47.547,69.484H19.391c-1.456,0-2.64,1.181-2.64,2.639c0,1.458,1.184,2.64,2.64,2.64h28.156c1.457,0,2.64-1.181,2.64-2.64
	C50.187,70.665,49.004,69.484,47.547,69.484z M74.086,40.378c0.299,0.3,0.706,0.469,1.131,0.469c0.424,0,0.831-0.169,1.132-0.469
	l3.394-3.394c0.625-0.625,0.625-1.638,0-2.263c-0.625-0.625-1.639-0.625-2.264,0l-0.662,0.663V30.35c0-0.883-0.717-1.6-1.601-1.6
	c-0.883,0-1.599,0.716-1.599,1.6v5.035l-0.663-0.663c-0.625-0.625-1.638-0.625-2.263,0c-0.313,0.313-0.469,0.722-0.469,1.131
	c0,0.41,0.156,0.819,0.469,1.132L74.086,40.378z M76.348,58.235c-0.3-0.3-0.707-0.469-1.132-0.469c-0.424,0-0.831,0.168-1.132,0.469
	l-3.393,3.394c-0.625,0.625-0.625,1.638,0,2.262c0.625,0.625,1.638,0.625,2.263,0l0.663-0.663v5.035c0,0.884,0.716,1.6,1.6,1.6
	c0.883,0,1.6-0.716,1.6-1.6v-5.035l0.662,0.663c0.625,0.625,1.639,0.625,2.264,0c0.312-0.312,0.469-0.722,0.469-1.131
	c0-0.41-0.157-0.819-0.469-1.131L76.348,58.235z M68.582,46.523h13.27c1.105,0,2.002-0.896,2.002-2.003
	c0-1.107-0.896-2.002-2.002-2.002h-13.27c-1.105,0-2.003,0.896-2.003,2.002C66.579,45.627,67.477,46.523,68.582,46.523z
	 M81.852,51.282h-13.27c-1.105,0-2.003,0.896-2.003,2.003c0,1.106,0.897,2.002,2.003,2.002h13.27c1.105,0,2.002-0.896,2.002-2.002
	C83.854,52.178,82.957,51.282,81.852,51.282z"/>
</svg>
