<?xml version="1.0" encoding="utf-8"?>
<!-- Generator: Adobe Illustrator 16.0.0, SVG Export Plug-In . SVG Version: 6.00 Build 0)  -->
<!DOCTYPE svg PUBLIC "-//W3C//DTD SVG 1.1//EN" "http://www.w3.org/Graphics/SVG/1.1/DTD/svg11.dtd">
<svg version="1.1" id="Layer_2" xmlns="http://www.w3.org/2000/svg" xmlns:xlink="http://www.w3.org/1999/xlink" x="0px" y="0px"
	 width="100px" height="100px" viewBox="0 0 100 100" enable-background="new 0 0 100 100" xml:space="preserve">
<path d="M86.083,15.156v8.691c0,0.829-0.671,1.5-1.5,1.5h-7.167v59.496c0,0.829-0.671,1.5-1.5,1.5h-9.25c-0.829,0-1.5-0.671-1.5-1.5
	V25.348h-7.057v59.496c0,0.829-0.671,1.5-1.5,1.5h-8.582c-0.829,0-1.5-0.671-1.5-1.5V62.247c-2.961,0.91-5.734,1.37-8.269,1.37
	c-7.037,0-12.92-2.399-17.485-7.131c-4.551-4.717-6.858-10.807-6.858-18.1c0-7.734,2.47-13.867,7.34-18.226
	c4.823-4.315,11.591-6.503,20.117-6.503h43.209C85.412,13.656,86.083,14.328,86.083,15.156z"/>
</svg>
