<?xml version="1.0" encoding="utf-8"?>
<!-- Generator: Adobe Illustrator 16.0.0, SVG Export Plug-In . SVG Version: 6.00 Build 0)  -->
<!DOCTYPE svg PUBLIC "-//W3C//DTD SVG 1.1//EN" "http://www.w3.org/Graphics/SVG/1.1/DTD/svg11.dtd">
<svg version="1.1" id="Layer_2" xmlns="http://www.w3.org/2000/svg" xmlns:xlink="http://www.w3.org/1999/xlink" x="0px" y="0px"
	 width="100px" height="100px" viewBox="0 0 100 100" enable-background="new 0 0 100 100" xml:space="preserve">
<path d="M38.526,26.416c0-1.287,1.044-2.33,2.33-2.33h38.313c1.286,0,2.33,1.043,2.33,2.33c0,1.287-1.043,2.33-2.33,2.33H40.856
	C39.57,28.746,38.526,27.703,38.526,26.416z M40.856,40.137h24.853c1.287,0,2.33-1.043,2.33-2.33s-1.043-2.33-2.33-2.33H40.856
	c-1.286,0-2.33,1.042-2.33,2.33S39.57,40.137,40.856,40.137z M79.169,64.729H40.856c-1.286,0-2.33,1.043-2.33,2.33
	c0,1.287,1.044,2.33,2.33,2.33h38.313c1.286,0,2.33-1.043,2.33-2.33C81.499,65.771,80.455,64.729,79.169,64.729z M65.708,76.119
	H40.856c-1.286,0-2.33,1.042-2.33,2.33s1.044,2.33,2.33,2.33h24.853c1.287,0,2.33-1.043,2.33-2.33S66.995,76.119,65.708,76.119z
	 M24.096,41.282h3.699V22.541h-3.029c-0.086,0.979-0.011,1.766-0.776,2.359c-0.765,0.593-2.373,0.889-3.826,0.889h-0.528v2.591h4.46
	V41.282z M22.731,77.186l4.645-3.455c1.601-1.1,2.653-2.12,3.157-3.061c0.504-0.941,0.755-1.953,0.755-3.036
	c0-1.771-0.592-3.199-1.774-4.286c-1.183-1.087-2.737-1.63-4.664-1.63c-1.858,0-3.344,0.55-4.458,1.65
	c-1.115,1.1-1.671,2.758-1.671,4.976h3.583c0-1.324,0.234-2.239,0.703-2.746c0.468-0.507,1.11-0.761,1.927-0.761
	s1.463,0.258,1.94,0.773s0.715,1.156,0.715,1.921c0,0.765-0.221,1.456-0.664,2.075c-0.442,0.619-1.673,1.663-3.693,3.132
	c-1.727,1.264-3.991,2.803-4.691,3.92l-0.04,3.801h12.826v-3.274H22.731z"/>
</svg>
