<?xml version="1.0" encoding="utf-8"?>
<!-- Generator: Adobe Illustrator 16.0.0, SVG Export Plug-In . SVG Version: 6.00 Build 0)  -->
<!DOCTYPE svg PUBLIC "-//W3C//DTD SVG 1.1//EN" "http://www.w3.org/Graphics/SVG/1.1/DTD/svg11.dtd">
<svg version="1.1" id="Layer_1" xmlns="http://www.w3.org/2000/svg" xmlns:xlink="http://www.w3.org/1999/xlink" x="0px" y="0px"
	 width="100px" height="100px" viewBox="0 0 100 100" enable-background="new 0 0 100 100" xml:space="preserve">
<path fill="#020202" d="M91.194,40.156l-4.871,4.872L72.751,31.457l4.872-4.872c1.535-1.535,3.843-1.725,5.145-0.424l8.85,8.851
	C92.919,36.313,92.729,38.621,91.194,40.156z M70.489,33.718L84.061,47.29L51.698,79.653c-0.149,0.149-0.561,0.56-1.139,0.708
	c-0.067,0.032-0.135,0.059-0.203,0.081l-16.89,5.382c-0.473,0.15-0.948,0.054-1.256-0.255c-0.309-0.309-0.405-0.784-0.257-1.256
	l5.383-16.888c0.023-0.07,0.05-0.138,0.081-0.203c0.148-0.579,0.559-0.99,0.709-1.139L44.208,60H23.666c-0.828,0-1.5-0.671-1.5-1.5
	s0.672-1.5,1.5-1.5h23.542L70.489,33.718z M47.523,78.61l-8.355-8.354l-2.241,7.036l3.561,3.561L47.523,78.61z M69.967,39.112
	c-0.48-0.481-1.259-0.481-1.739,0L42.998,64.341c-0.48,0.48-0.48,1.259,0,1.74c0.48,0.48,1.26,0.48,1.74,0l25.229-25.229
	C70.448,40.371,70.448,39.592,69.967,39.112z M68.443,87.142c0,0.902-0.733,1.636-1.635,1.636h-29.77l-2.689,0.857
	c-0.54,0.172-1.095,0.259-1.651,0.259c-1.183,0-2.283-0.406-3.183-1.116H14.061c-0.902,0-1.637-0.733-1.637-1.636V18.446
	c0-0.902,0.734-1.636,1.637-1.636h6.133v2.59c0,0.903,0.732,1.635,1.636,1.635s1.636-0.732,1.636-1.635v-2.59h9.404v2.59
	c0,0.903,0.732,1.635,1.636,1.635s1.636-0.732,1.636-1.635v-2.59h8.178v2.59c0,0.903,0.732,1.635,1.636,1.635
	s1.636-0.732,1.636-1.635v-2.59h8.996v2.59c0,0.903,0.732,1.635,1.635,1.635c0.904,0,1.637-0.732,1.637-1.635v-2.59h6.951
	c0.901,0,1.635,0.734,1.635,1.636v11.329l1.714-1.714l3.193-3.193v-6.422c0-3.607-2.935-6.542-6.542-6.542h-6.951V7.951
	c0-0.903-0.732-1.636-1.637-1.636c-0.902,0-1.635,0.732-1.635,1.636v3.953H47.59V7.951c0-0.903-0.732-1.636-1.636-1.636
	s-1.636,0.732-1.636,1.636v3.953h-8.178V7.951c0-0.903-0.732-1.636-1.636-1.636s-1.636,0.732-1.636,1.636v3.953h-9.404V7.951
	c0-0.903-0.732-1.636-1.636-1.636s-1.636,0.732-1.636,1.636v3.953h-6.133c-3.607,0-6.543,2.935-6.543,6.542v68.695
	c0,3.607,2.936,6.542,6.543,6.542h52.748c3.607,0,6.542-2.935,6.542-6.542V63.325l-4.907,4.908V87.142z M55.666,31.5h-32
	c-0.828,0-1.5,0.671-1.5,1.5s0.672,1.5,1.5,1.5h32c0.828,0,1.5-0.671,1.5-1.5S56.494,31.5,55.666,31.5z M55.666,43.594h-32
	c-0.828,0-1.5,0.671-1.5,1.5s0.672,1.5,1.5,1.5h32c0.828,0,1.5-0.671,1.5-1.5S56.494,43.594,55.666,43.594z"/>
</svg>
