<?xml version="1.0" encoding="utf-8"?>
<!-- Generator: Adobe Illustrator 16.0.0, SVG Export Plug-In . SVG Version: 6.00 Build 0)  -->
<!DOCTYPE svg PUBLIC "-//W3C//DTD SVG 1.1//EN" "http://www.w3.org/Graphics/SVG/1.1/DTD/svg11.dtd">
<svg version="1.1" id="Layer_2" xmlns="http://www.w3.org/2000/svg" xmlns:xlink="http://www.w3.org/1999/xlink" x="0px" y="0px"
	 width="100px" height="100px" viewBox="0 0 100 100" enable-background="new 0 0 100 100" xml:space="preserve">
<path d="M37.334,24.473c0-1.657,1.343-3,3-3h45.749c1.657,0,3,1.343,3,3s-1.343,3-3,3H40.334
	C38.677,27.473,37.334,26.129,37.334,24.473z M86.083,72.527H40.334c-1.657,0-3,1.343-3,3s1.343,3,3,3h45.749c1.657,0,3-1.343,3-3
	S87.74,72.527,86.083,72.527z M19.084,27.473h10.499c1.657,0,3-1.343,3-3s-1.343-3-3-3H19.084c-1.657,0-3,1.343-3,3
	S17.427,27.473,19.084,27.473z M29.583,72.527H19.084c-1.657,0-3,1.343-3,3s1.343,3,3,3h10.499c1.657,0,3-1.343,3-3
	S31.24,72.527,29.583,72.527z M40.334,44.616h30.293c1.657,0,3-1.343,3-3s-1.343-3-3-3H40.334c-1.657,0-3,1.343-3,3
	S38.677,44.616,40.334,44.616z M40.334,61.139h30.293c1.657,0,3-1.343,3-3s-1.343-3-3-3H40.334c-1.657,0-3,1.343-3,3
	S38.677,61.139,40.334,61.139z M18.16,57.875c1.172,1.171,3.07,1.171,4.242,0c1.172-1.171,1.172-3.071,0-4.243l-1.242-1.243H30.6
	c1.657,0,3-1.343,3-3s-1.343-3-3-3H21.16l1.242-1.243c1.172-1.171,1.172-3.071,0-4.242c-0.586-0.586-1.354-0.879-2.121-0.879
	s-1.535,0.293-2.121,0.879l-6.364,6.364c-0.563,0.563-0.879,1.326-0.879,2.121c0,0.796,0.316,1.559,0.879,2.122L18.16,57.875z"/>
</svg>
