<?xml version="1.0" encoding="iso-8859-1"?>
<!-- Generator: Adobe Illustrator 18.0.0, SVG Export Plug-In . SVG Version: 6.00 Build 0)  -->
<!DOCTYPE svg PUBLIC "-//W3C//DTD SVG 1.1//EN" "http://www.w3.org/Graphics/SVG/1.1/DTD/svg11.dtd">
<svg version="1.1" id="Capa_1" xmlns="http://www.w3.org/2000/svg" xmlns:xlink="http://www.w3.org/1999/xlink" x="0px" y="0px"
	 viewBox="0 0 16 16" style="enable-background:new 0 0 16 16;" xml:space="preserve">
<g id="Compass">
	<g>
		<path style="fill-rule:evenodd;clip-rule:evenodd;" d="M8,0C3.582,0,0,3.582,0,8s3.582,8,8,8s8-3.582,8-8S12.418,0,8,0z M8,14
			c-3.314,0-6-2.686-6-6s2.686-6,6-6c3.314,0,6,2.686,6,6S11.314,14,8,14z M6,8l-1,2h2L6.792,9.585C7.129,9.841,7.544,10,8,10
			c1.105,0,2-0.895,2-2c0-0.456-0.159-0.871-0.415-1.208L10,7V5L8,6C6.895,6,6,6.895,6,8z M9,8c0,0.552-0.448,1-1,1
			C7.448,9,7,8.552,7,8s0.448-1,1-1C8.552,7,9,7.448,9,8z"/>
	</g>
</g>
<g>
</g>
<g>
</g>
<g>
</g>
<g>
</g>
<g>
</g>
<g>
</g>
<g>
</g>
<g>
</g>
<g>
</g>
<g>
</g>
<g>
</g>
<g>
</g>
<g>
</g>
<g>
</g>
<g>
</g>
</svg>
