<?xml version="1.0" encoding="iso-8859-1"?>
<!-- Generator: Adobe Illustrator 18.0.0, SVG Export Plug-In . SVG Version: 6.00 Build 0)  -->
<!DOCTYPE svg PUBLIC "-//W3C//DTD SVG 1.1//EN" "http://www.w3.org/Graphics/SVG/1.1/DTD/svg11.dtd">
<svg version="1.1" id="Capa_1" xmlns="http://www.w3.org/2000/svg" xmlns:xlink="http://www.w3.org/1999/xlink" x="0px" y="0px"
	 viewBox="0 0 16 16" style="enable-background:new 0 0 16 16;" xml:space="preserve">
<g>
	<path style="fill-rule:evenodd;clip-rule:evenodd;" d="M8.382,11.5v-0.73c0.339-0.106,0.609-0.31,0.812-0.613
		C9.398,9.852,9.5,9.499,9.5,9.1c0-0.406-0.113-0.753-0.34-1.04C9.08,7.954,8.961,7.844,8.803,7.73S8.444,7.495,8.201,7.366
		C7.921,7.218,7.734,7.089,7.642,6.981c-0.094-0.11-0.141-0.249-0.141-0.416c0-0.183,0.058-0.336,0.174-0.458
		c0.116-0.122,0.263-0.183,0.439-0.183c0.285,0,0.515,0.188,0.691,0.564l0.586-0.384c-0.136-0.287-0.28-0.499-0.43-0.638
		c-0.15-0.139-0.344-0.23-0.58-0.275V4.5H7.856v0.691C7.693,5.24,7.548,5.308,7.42,5.395c-0.128,0.087-0.236,0.19-0.323,0.308
		C7.01,5.822,6.943,5.955,6.897,6.1C6.851,6.246,6.828,6.403,6.828,6.572c0,0.357,0.097,0.664,0.292,0.92
		c0.122,0.172,0.378,0.359,0.766,0.564c0.188,0.101,0.343,0.194,0.464,0.28c0.121,0.086,0.213,0.163,0.275,0.231
		c0.122,0.141,0.183,0.328,0.183,0.56c0,0.261-0.073,0.474-0.219,0.638c-0.148,0.167-0.333,0.25-0.553,0.25
		c-0.227,0-0.408-0.073-0.544-0.219c-0.13-0.153-0.24-0.408-0.331-0.765L6.5,9.195c0.098,0.505,0.25,0.879,0.457,1.121
		c0.206,0.242,0.506,0.401,0.899,0.476V11.5H8.382z"/>
	<path style="fill-rule:evenodd;clip-rule:evenodd;" d="M16,8c0-4.418-3.582-8-8-8C3.582,0,0,3.582,0,8c0,4.418,3.582,8,8,8
		C12.418,16,16,12.418,16,8z M1,8c0-3.866,3.134-7,7-7s7,3.134,7,7c0,3.866-3.134,7-7,7S1,11.866,1,8z"/>
</g>
<g>
</g>
<g>
</g>
<g>
</g>
<g>
</g>
<g>
</g>
<g>
</g>
<g>
</g>
<g>
</g>
<g>
</g>
<g>
</g>
<g>
</g>
<g>
</g>
<g>
</g>
<g>
</g>
<g>
</g>
</svg>
