<?xml version="1.0" encoding="iso-8859-1"?>
<!-- Generator: Adobe Illustrator 18.0.0, SVG Export Plug-In . SVG Version: 6.00 Build 0)  -->
<!DOCTYPE svg PUBLIC "-//W3C//DTD SVG 1.1//EN" "http://www.w3.org/Graphics/SVG/1.1/DTD/svg11.dtd">
<svg version="1.1" id="Capa_1" xmlns="http://www.w3.org/2000/svg" xmlns:xlink="http://www.w3.org/1999/xlink" x="0px" y="0px"
	 viewBox="0 0 16 22" style="enable-background:new 0 0 16 22;" xml:space="preserve">
<g>
	<path style="fill-rule:evenodd;clip-rule:evenodd;" d="M8,17c-3.399,0-6.358-1.884-7.889-4.665C0.746,16.118,4.036,19,8,19
		c3.963,0,7.254-2.882,7.889-6.665C14.358,15.116,11.399,17,8,17z"/>
	<path style="fill-rule:evenodd;clip-rule:evenodd;" d="M0.111,15.335C0.746,19.118,4.036,22,8,22c3.963,0,7.254-2.882,7.889-6.665
		C14.358,18.116,11.399,20,8,20S1.642,18.116,0.111,15.335z"/>
	<path style="fill-rule:evenodd;clip-rule:evenodd;" d="M8,0C3.582,0,0,3.582,0,8s3.582,8,8,8c4.418,0,8-3.582,8-8S12.418,0,8,0z
		 M9.193,10.157C8.991,10.46,8.72,10.665,8.382,10.77v0.73H7.856v-0.708c-0.393-0.075-0.692-0.234-0.899-0.476S6.598,9.7,6.5,9.195
		l0.661-0.162c0.09,0.357,0.2,0.612,0.331,0.765c0.136,0.146,0.318,0.219,0.544,0.219c0.22,0,0.405-0.083,0.553-0.25
		c0.146-0.164,0.219-0.377,0.219-0.638c0-0.233-0.061-0.419-0.183-0.56C8.563,8.499,8.471,8.422,8.35,8.337
		c-0.121-0.086-0.276-0.179-0.464-0.28C7.497,7.852,7.241,7.664,7.119,7.492C6.925,7.236,6.828,6.93,6.828,6.573
		c0-0.169,0.023-0.327,0.069-0.472c0.046-0.146,0.113-0.278,0.2-0.396S7.292,5.482,7.42,5.395C7.548,5.308,7.693,5.24,7.856,5.191
		V4.5h0.526v0.691c0.236,0.045,0.43,0.136,0.58,0.275c0.15,0.139,0.294,0.351,0.43,0.638L8.806,6.488
		C8.629,6.112,8.399,5.924,8.114,5.924c-0.176,0-0.323,0.061-0.439,0.183C7.559,6.229,7.501,6.382,7.501,6.565
		c0,0.167,0.047,0.305,0.141,0.416C7.734,7.09,7.921,7.218,8.201,7.366C8.444,7.495,8.644,7.616,8.803,7.73
		C8.961,7.844,9.08,7.954,9.16,8.06C9.387,8.347,9.5,8.693,9.5,9.1C9.5,9.499,9.398,9.852,9.193,10.157z"/>
</g>
<g>
</g>
<g>
</g>
<g>
</g>
<g>
</g>
<g>
</g>
<g>
</g>
<g>
</g>
<g>
</g>
<g>
</g>
<g>
</g>
<g>
</g>
<g>
</g>
<g>
</g>
<g>
</g>
<g>
</g>
</svg>
