<?xml version="1.0" encoding="iso-8859-1"?>
<!-- Generator: Adobe Illustrator 18.0.0, SVG Export Plug-In . SVG Version: 6.00 Build 0)  -->
<!DOCTYPE svg PUBLIC "-//W3C//DTD SVG 1.1//EN" "http://www.w3.org/Graphics/SVG/1.1/DTD/svg11.dtd">
<svg version="1.1" id="Capa_1" xmlns="http://www.w3.org/2000/svg" xmlns:xlink="http://www.w3.org/1999/xlink" x="0px" y="0px"
	 viewBox="0 0 22 15" style="enable-background:new 0 0 22 15;" xml:space="preserve">
<g>
	<rect x="1" y="2" style="fill-rule:evenodd;clip-rule:evenodd;" width="20" height="1"/>
	<path style="fill-rule:evenodd;clip-rule:evenodd;" d="M0,15h22V4H0V15z M11.402,9.921c-0.07-0.066-0.174-0.14-0.311-0.223
		c-0.137-0.083-0.312-0.173-0.525-0.27C10.127,9.231,9.838,9.05,9.7,8.885C9.48,8.638,9.37,8.342,9.37,7.998
		c0-0.163,0.026-0.315,0.078-0.455c0.052-0.14,0.127-0.268,0.226-0.382c0.099-0.114,0.22-0.214,0.365-0.297
		c0.145-0.084,0.309-0.149,0.493-0.197V6h0.595v0.666c0.267,0.043,0.486,0.131,0.656,0.265c0.17,0.134,0.332,0.339,0.486,0.615
		l-0.663,0.37c-0.199-0.362-0.46-0.544-0.781-0.544c-0.199,0-0.365,0.059-0.496,0.177c-0.131,0.118-0.197,0.265-0.197,0.442
		c0,0.161,0.053,0.294,0.16,0.401c0.104,0.104,0.315,0.228,0.632,0.37c0.274,0.125,0.501,0.242,0.68,0.352
		c0.179,0.11,0.314,0.216,0.404,0.318c0.256,0.276,0.384,0.61,0.384,1.002c0,0.385-0.116,0.725-0.347,1.019
		c-0.229,0.292-0.535,0.489-0.917,0.591v0.703h-0.595v-0.683c-0.444-0.073-0.783-0.225-1.016-0.459
		C9.283,11.373,9.111,11.013,9,10.526l0.747-0.156c0.102,0.344,0.226,0.59,0.374,0.737c0.154,0.14,0.359,0.211,0.615,0.211
		c0.249,0,0.458-0.08,0.625-0.241c0.165-0.159,0.248-0.364,0.248-0.615C11.609,10.237,11.54,10.057,11.402,9.921z"/>
	<rect x="2" style="fill-rule:evenodd;clip-rule:evenodd;" width="18" height="1"/>
</g>
<g>
</g>
<g>
</g>
<g>
</g>
<g>
</g>
<g>
</g>
<g>
</g>
<g>
</g>
<g>
</g>
<g>
</g>
<g>
</g>
<g>
</g>
<g>
</g>
<g>
</g>
<g>
</g>
<g>
</g>
</svg>
