<?xml version="1.0" encoding="iso-8859-1"?>
<!-- Generator: Adobe Illustrator 18.0.0, SVG Export Plug-In . SVG Version: 6.00 Build 0)  -->
<!DOCTYPE svg PUBLIC "-//W3C//DTD SVG 1.1//EN" "http://www.w3.org/Graphics/SVG/1.1/DTD/svg11.dtd">
<svg version="1.1" id="Capa_1" xmlns="http://www.w3.org/2000/svg" xmlns:xlink="http://www.w3.org/1999/xlink" x="0px" y="0px"
	 viewBox="0 0 22 15" style="enable-background:new 0 0 22 15;" xml:space="preserve">
<g>
	<path style="fill-rule:evenodd;clip-rule:evenodd;" d="M0,15h22V4H0V15z M1,5h20v9H1V5z"/>
	<rect x="1" y="2" style="fill-rule:evenodd;clip-rule:evenodd;" width="20" height="1"/>
	<rect x="2" style="fill-rule:evenodd;clip-rule:evenodd;" width="18" height="1"/>
	<path style="fill-rule:evenodd;clip-rule:evenodd;" d="M11.603,9.114c-0.179-0.11-0.406-0.227-0.68-0.352
		c-0.317-0.143-0.528-0.266-0.632-0.37c-0.106-0.106-0.16-0.24-0.16-0.401c0-0.177,0.066-0.324,0.197-0.442
		c0.131-0.118,0.297-0.177,0.496-0.177c0.322,0,0.582,0.181,0.781,0.544l0.662-0.37c-0.154-0.276-0.316-0.481-0.486-0.615
		c-0.17-0.134-0.388-0.222-0.656-0.265V6h-0.595v0.666c-0.183,0.048-0.348,0.113-0.493,0.197C9.895,6.947,9.773,7.046,9.674,7.16
		C9.576,7.275,9.501,7.402,9.448,7.542C9.396,7.683,9.37,7.835,9.37,7.998c0,0.344,0.11,0.64,0.33,0.887
		c0.138,0.165,0.427,0.346,0.866,0.544c0.213,0.097,0.388,0.187,0.525,0.27c0.137,0.083,0.241,0.157,0.311,0.223
		c0.138,0.136,0.207,0.316,0.207,0.54c0,0.251-0.083,0.456-0.248,0.615c-0.168,0.161-0.376,0.241-0.625,0.241
		c-0.256,0-0.461-0.07-0.615-0.211c-0.147-0.147-0.272-0.393-0.374-0.737L9,10.526c0.111,0.487,0.283,0.847,0.516,1.08
		c0.233,0.233,0.572,0.386,1.016,0.459v0.683h0.595v-0.703c0.383-0.102,0.689-0.299,0.917-0.591
		c0.231-0.294,0.347-0.634,0.347-1.019c0-0.392-0.128-0.726-0.384-1.002C11.916,9.33,11.781,9.224,11.603,9.114z"/>
</g>
<g>
</g>
<g>
</g>
<g>
</g>
<g>
</g>
<g>
</g>
<g>
</g>
<g>
</g>
<g>
</g>
<g>
</g>
<g>
</g>
<g>
</g>
<g>
</g>
<g>
</g>
<g>
</g>
<g>
</g>
</svg>
