<?xml version="1.0" encoding="iso-8859-1"?>
<!-- Generator: Adobe Illustrator 18.0.0, SVG Export Plug-In . SVG Version: 6.00 Build 0)  -->
<!DOCTYPE svg PUBLIC "-//W3C//DTD SVG 1.1//EN" "http://www.w3.org/Graphics/SVG/1.1/DTD/svg11.dtd">
<svg version="1.1" id="Capa_1" xmlns="http://www.w3.org/2000/svg" xmlns:xlink="http://www.w3.org/1999/xlink" x="0px" y="0px"
	 viewBox="0 90 612 612" style="enable-background:new 0 90 612 612;" xml:space="preserve">
<path d="M0,243v306h612V243H0z M337.435,457.367c-6.37,8.123-14.883,13.603-25.509,16.441v19.556h-16.524v-19
	c-12.351-2.003-21.782-6.259-28.263-12.769c-6.482-6.482-11.266-16.496-14.354-30.044l20.78-4.34
	c2.837,9.569,6.287,16.413,10.404,20.502c4.284,3.895,9.987,5.87,17.108,5.87c6.927,0,12.713-2.225,17.386-6.704
	c4.59-4.423,6.899-10.126,6.899-17.108c0-6.231-1.919-11.239-5.758-15.022c-1.947-1.836-4.84-3.895-8.651-6.203
	c-3.811-2.309-8.679-4.813-14.605-7.511c-12.212-5.48-20.252-10.515-24.091-15.133c-6.12-6.871-9.18-15.077-9.18-24.675
	c0-4.534,0.723-8.763,2.17-12.657c1.447-3.895,3.533-7.455,6.287-10.627c2.754-3.171,6.12-5.925,10.154-8.262
	c4.034-2.337,8.596-4.145,13.714-5.48v-18.555h16.524v18.527c7.427,1.196,13.52,3.644,18.249,7.372s9.236,9.43,13.52,17.108
	l-18.443,10.293c-5.536-10.07-12.796-15.133-21.726-15.133c-5.536,0-10.154,1.641-13.798,4.924c-3.644,3.283-5.48,7.372-5.48,12.296
	c0,4.479,1.474,8.179,4.451,11.155c2.893,2.893,8.763,6.343,17.581,10.293c7.622,3.477,13.937,6.732,18.916,9.792
	c4.979,3.06,8.735,6.009,11.239,8.846c7.121,7.678,10.682,16.969,10.682,27.874C347.087,439.702,343.861,449.161,337.435,457.367z"
	/>
</svg>
