<?xml version="1.0" encoding="iso-8859-1"?>
<!-- Generator: Adobe Illustrator 18.0.0, SVG Export Plug-In . SVG Version: 6.00 Build 0)  -->
<!DOCTYPE svg PUBLIC "-//W3C//DTD SVG 1.1//EN" "http://www.w3.org/Graphics/SVG/1.1/DTD/svg11.dtd">
<svg version="1.1" id="Capa_1" xmlns="http://www.w3.org/2000/svg" xmlns:xlink="http://www.w3.org/1999/xlink" x="0px" y="0px"
	 viewBox="0 0 16 22" style="enable-background:new 0 0 16 22;" xml:space="preserve">
<g>
	<path style="fill-rule:evenodd;clip-rule:evenodd;" d="M13.859,14.832C12.609,16.74,10.451,18,8,18
		c-2.452,0-4.609-1.26-5.859-3.168c-0.817-0.701-1.507-1.547-2.03-2.497C0.746,16.118,4.036,19,8,19
		c3.963,0,7.254-2.882,7.889-6.665C15.366,13.285,14.676,14.131,13.859,14.832z"/>
	<path style="fill-rule:evenodd;clip-rule:evenodd;" d="M8,21c-2.452,0-4.609-1.26-5.859-3.168c-0.817-0.701-1.507-1.547-2.03-2.497
		C0.746,19.118,4.036,22,8,22c3.963,0,7.254-2.882,7.889-6.665c-0.523,0.95-1.213,1.796-2.03,2.497C12.609,19.74,10.451,21,8,21z"/>
	<path style="fill-rule:evenodd;clip-rule:evenodd;" d="M8.803,7.73C8.644,7.616,8.444,7.495,8.201,7.366
		C7.921,7.218,7.734,7.089,7.642,6.981c-0.094-0.11-0.141-0.249-0.141-0.416c0-0.183,0.058-0.336,0.174-0.458
		c0.116-0.122,0.263-0.183,0.439-0.183c0.285,0,0.515,0.188,0.691,0.564l0.586-0.384c-0.136-0.287-0.28-0.499-0.43-0.638
		c-0.15-0.139-0.344-0.23-0.58-0.275V4.5H7.856v0.691C7.693,5.24,7.548,5.308,7.42,5.395c-0.128,0.087-0.236,0.19-0.323,0.308
		S6.943,5.955,6.897,6.1C6.851,6.246,6.828,6.403,6.828,6.572c0,0.357,0.097,0.664,0.292,0.92c0.122,0.172,0.378,0.359,0.767,0.564
		c0.188,0.101,0.343,0.194,0.464,0.28c0.121,0.086,0.213,0.163,0.275,0.231c0.122,0.141,0.183,0.328,0.183,0.56
		c0,0.261-0.073,0.474-0.219,0.638c-0.148,0.167-0.333,0.25-0.553,0.25c-0.226,0-0.408-0.073-0.544-0.219
		c-0.13-0.153-0.24-0.408-0.331-0.765L6.5,9.195c0.098,0.505,0.25,0.879,0.457,1.121c0.206,0.242,0.506,0.401,0.899,0.476V11.5
		h0.526v-0.73c0.339-0.106,0.609-0.31,0.812-0.613C9.398,9.852,9.5,9.499,9.5,9.1c0-0.406-0.113-0.753-0.34-1.04
		C9.08,7.954,8.961,7.844,8.803,7.73z"/>
	<path style="fill-rule:evenodd;clip-rule:evenodd;" d="M8,0C3.582,0,0,3.582,0,8c0,4.418,3.582,8,8,8c4.418,0,8-3.582,8-8
		C16,3.582,12.418,0,8,0z M8,15c-3.866,0-7-3.134-7-7c0-3.866,3.134-7,7-7s7,3.134,7,7C15,11.866,11.866,15,8,15z"/>
</g>
<g>
</g>
<g>
</g>
<g>
</g>
<g>
</g>
<g>
</g>
<g>
</g>
<g>
</g>
<g>
</g>
<g>
</g>
<g>
</g>
<g>
</g>
<g>
</g>
<g>
</g>
<g>
</g>
<g>
</g>
</svg>
