<?xml version="1.0" encoding="utf-8"?>
<!-- Generator: Adobe Illustrator 16.0.0, SVG Export Plug-In . SVG Version: 6.00 Build 0)  -->
<!DOCTYPE svg PUBLIC "-//W3C//DTD SVG 1.1//EN" "http://www.w3.org/Graphics/SVG/1.1/DTD/svg11.dtd">
<svg version="1.1" id="Layer_3" xmlns="http://www.w3.org/2000/svg" xmlns:xlink="http://www.w3.org/1999/xlink" x="0px" y="0px"
	 width="100px" height="100px" viewBox="0 0 100 100" enable-background="new 0 0 100 100" xml:space="preserve">
<path d="M82.484,25.046v16h-9.865L37.131,76.533H17.518v-16h12.986l35.488-35.487H82.484z M47.613,23.471l-13.693,1.79
	c-0.201,0.025-0.357,0.182-0.385,0.381s0.08,0.392,0.264,0.473l5.498,2.384l-9.123,9.122c-0.174,0.176-0.174,0.458,0,0.633
	l3.158,3.158c0.174,0.175,0.457,0.174,0.633,0l9.123-9.123l2.383,5.497c0.08,0.184,0.273,0.293,0.473,0.265
	c0.1-0.015,0.188-0.061,0.254-0.127c0.066-0.067,0.113-0.157,0.127-0.258l1.789-13.693c0.018-0.138-0.027-0.275-0.127-0.374
	C47.889,23.501,47.75,23.453,47.613,23.471z"/>
</svg>
