<?xml version="1.0" encoding="utf-8"?>
<!-- Generator: Adobe Illustrator 16.0.0, SVG Export Plug-In . SVG Version: 6.00 Build 0)  -->
<!DOCTYPE svg PUBLIC "-//W3C//DTD SVG 1.1//EN" "http://www.w3.org/Graphics/SVG/1.1/DTD/svg11.dtd">
<svg version="1.1" id="Layer_3" xmlns="http://www.w3.org/2000/svg" xmlns:xlink="http://www.w3.org/1999/xlink" x="0px" y="0px"
	 width="100px" height="100px" viewBox="0 0 100 100" enable-background="new 0 0 100 100" xml:space="preserve">
<path d="M82.483,24.256v16h-9.865L37.13,75.744H17.517v-16h12.986l35.488-35.488H82.483z M40.854,24.387
	c-0.174-0.174-0.457-0.174-0.631,0l-9.123,9.123l-2.385-5.496c-0.08-0.184-0.273-0.293-0.471-0.266
	c-0.1,0.016-0.188,0.061-0.254,0.127c-0.068,0.068-0.113,0.158-0.127,0.258l-1.791,13.693c-0.018,0.139,0.029,0.275,0.127,0.375
	c0.098,0.096,0.236,0.145,0.375,0.127l13.693-1.791c0.199-0.025,0.355-0.182,0.383-0.381c0.029-0.199-0.08-0.391-0.264-0.473
	l-5.498-2.383l9.123-9.123c0.174-0.176,0.176-0.457,0-0.633L40.854,24.387z"/>
</svg>
