<?xml version="1.0" encoding="utf-8"?>
<!-- Generator: Adobe Illustrator 16.0.0, SVG Export Plug-In . SVG Version: 6.00 Build 0)  -->
<!DOCTYPE svg PUBLIC "-//W3C//DTD SVG 1.1//EN" "http://www.w3.org/Graphics/SVG/1.1/DTD/svg11.dtd">
<svg version="1.1" id="Layer_3" xmlns="http://www.w3.org/2000/svg" xmlns:xlink="http://www.w3.org/1999/xlink" x="0px" y="0px"
	 width="100px" height="100px" viewBox="0 0 100 100" enable-background="new 0 0 100 100" xml:space="preserve">
<path d="M40.969,49.553c0,4.899,3.986,8.887,8.887,8.887s8.887-3.987,8.887-8.887c0-4.9-3.986-8.888-8.887-8.888
	S40.969,44.652,40.969,49.553z M49.855,43.472c3.354,0,6.08,2.728,6.08,6.081c0,3.353-2.727,6.08-6.08,6.08s-6.08-2.728-6.08-6.08
	C43.775,46.199,46.502,43.472,49.855,43.472z M90.813,46.256H77.875l0.049,0.427c0.012,0.104,0.016,0.199,0.027,0.301h-5.324
	c-0.523-4.663-2.451-8.904-5.348-12.297l3.557-3.556c0.086,0.095,0.176,0.183,0.26,0.278l0.268,0.305l8.486-8.486
	c0.805-0.805,0.805-2.113,0-2.918c-0.779-0.778-2.139-0.778-2.916,0.001l-8.473,8.472l0.291,0.261l-3.525,3.524
	c-3.719-3.369-8.547-5.532-13.863-5.879v-4.772c0.131,0.007,0.25,0.011,0.389,0.019l0.404,0.024V9.188
	c0-1.138-0.926-2.063-2.063-2.063s-2.063,0.925-2.063,2.063v12.755l0.383-0.021v4.761c-5.051,0.315-9.66,2.271-13.305,5.343
	l-3.387-3.386c0.094-0.081,0.186-0.17,0.279-0.249l0.32-0.268l-9.068-9.067c-0.777-0.779-2.137-0.779-2.916,0
	c-0.389,0.389-0.604,0.906-0.604,1.458s0.215,1.069,0.604,1.458l8.979,8.979l0.266-0.28l3.396,3.396
	c-3.203,3.488-5.34,7.967-5.895,12.918h-5.033c0.01-0.102,0.014-0.197,0.027-0.301l0.049-0.427H9.188
	c-1.137,0-2.063,0.926-2.063,2.063c0,1.138,0.926,2.063,2.063,2.063h12.688V50c0-0.021,0.002-0.044,0.002-0.066h5.068
	c0.096,5.76,2.318,11.01,5.924,14.991l-3.826,3.826l-0.26-0.291l-9.568,9.568c-0.389,0.389-0.604,0.906-0.604,1.458
	c0,0.551,0.215,1.068,0.604,1.458c0.391,0.39,0.908,0.604,1.459,0.604s1.068-0.215,1.459-0.604l9.58-9.58l-0.303-0.27
	c-0.096-0.084-0.184-0.174-0.279-0.26l3.859-3.859c3.662,3.131,8.318,5.128,13.424,5.446v5.656l-0.383-0.021v12.755
	c0,1.138,0.926,2.063,2.063,2.063s2.063-0.925,2.063-2.063V78.041l-0.404,0.024c-0.139,0.008-0.258,0.012-0.389,0.019v-5.667
	c5.371-0.352,10.244-2.557,13.979-5.987l3.988,3.988l-0.279,0.267l9.006,9.005c0.389,0.39,0.906,0.604,1.459,0.604
	c0.549,0,1.066-0.215,1.457-0.604c0.389-0.39,0.604-0.907,0.604-1.458s-0.215-1.068-0.604-1.459l-9.096-9.095l-0.268,0.32
	c-0.078,0.094-0.168,0.187-0.248,0.28l-3.979-3.979c3.283-3.898,5.293-8.901,5.381-14.365h5.359c0,0.022,0.002,0.045,0.002,0.066
	v0.382h12.688c1.139,0,2.063-0.926,2.063-2.063C92.875,47.182,91.951,46.256,90.813,46.256z M48.969,30.676v7.292
	c0,0.463,0.375,0.838,0.838,0.838s0.836-0.375,0.836-0.838v-7.176c0.43-0.258,0.721-0.724,0.721-1.261v-0.029
	c4.543,0.339,8.67,2.188,11.875,5.054l-0.459,0.459c-0.23,0.231-0.365,0.522-0.41,0.823l-5.244,5.243
	c-0.326,0.328-0.326,0.858,0,1.185c0.328,0.327,0.859,0.327,1.186,0l4.881-4.882c0.549,0.261,1.221,0.17,1.674-0.283l0.426-0.425
	c2.41,2.886,4.025,6.455,4.516,10.37c-0.428,0.123-0.779,0.428-0.953,0.832h-7.51c-0.463,0-0.838,0.375-0.838,0.837
	s0.375,0.838,0.838,0.838h7.883c0.203,0.182,0.453,0.308,0.732,0.355c-0.084,4.754-1.818,9.109-4.664,12.515
	c-0.281-0.099-0.584-0.108-0.873-0.03l-5.553-5.554c-0.326-0.327-0.857-0.327-1.184,0c-0.328,0.326-0.328,0.856,0,1.184l5.66,5.661
	c-0.021,0.23,0.008,0.465,0.098,0.683c-3.281,3.011-7.559,4.945-12.275,5.251c-0.125-0.224-0.305-0.409-0.525-0.541v-7.939
	c0-0.463-0.373-0.838-0.836-0.838s-0.838,0.375-0.838,0.838v8.055c-0.146,0.119-0.27,0.265-0.363,0.431
	c-4.693-0.289-8.957-2.191-12.238-5.164c-0.02-0.061-0.043-0.121-0.07-0.179l5.631-5.632c0.328-0.326,0.328-0.856,0-1.185
	c-0.326-0.326-0.857-0.326-1.184,0l-5.689,5.69c-3.225-3.506-5.219-8.157-5.303-13.265c0.24-0.059,0.455-0.176,0.633-0.336h7.791
	c0.463,0,0.838-0.376,0.838-0.838s-0.375-0.837-0.838-0.837h-7.418c-0.16-0.374-0.471-0.663-0.857-0.802
	c0.521-4.218,2.346-8.036,5.066-11.032c0.313,0.285,0.719,0.409,1.113,0.375l5.223,5.222c0.328,0.327,0.857,0.327,1.186,0
	c0.326-0.327,0.326-0.857,0-1.184l-5.117-5.116c0.121-0.45,0.027-0.94-0.283-1.317c3.127-2.575,7.043-4.222,11.326-4.526v0.034
	C48.414,29.996,48.633,30.405,48.969,30.676z"/>
</svg>
