<?xml version="1.0" encoding="iso-8859-1"?>
<!-- Generator: Adobe Illustrator 18.0.0, SVG Export Plug-In . SVG Version: 6.00 Build 0)  -->
<!DOCTYPE svg PUBLIC "-//W3C//DTD SVG 1.1//EN" "http://www.w3.org/Graphics/SVG/1.1/DTD/svg11.dtd">
<svg version="1.1" id="Capa_1" xmlns="http://www.w3.org/2000/svg" xmlns:xlink="http://www.w3.org/1999/xlink" x="0px" y="0px"
	 viewBox="0 0 21 21" style="enable-background:new 0 0 21 21;" xml:space="preserve">
<g>
	<polygon style="fill-rule:evenodd;clip-rule:evenodd;" points="15,2 14,2 14,6.08 7,6.08 7,2 6,2 6,7 15,7 	"/>
	<rect x="12" y="2" style="fill-rule:evenodd;clip-rule:evenodd;" width="1" height="2"/>
	<polygon style="fill-rule:evenodd;clip-rule:evenodd;" points="4,19 5,19 5,13 16,13 16,19 17,19 17,12 4,12 	"/>
	<path style="fill-rule:evenodd;clip-rule:evenodd;" d="M20.687,21C20.86,21,21,20.859,21,20.689V3.5L17.5,0H0.311
		C0.139,0,0,0.134,0,0.313v20.374C0,20.86,0.134,21,0.313,21H20.687z M1,1h16.15L20,3.85V20H1V1z"/>
</g>
<g>
</g>
<g>
</g>
<g>
</g>
<g>
</g>
<g>
</g>
<g>
</g>
<g>
</g>
<g>
</g>
<g>
</g>
<g>
</g>
<g>
</g>
<g>
</g>
<g>
</g>
<g>
</g>
<g>
</g>
</svg>
