<?xml version="1.0" encoding="iso-8859-1"?>
<!-- Generator: Adobe Illustrator 18.0.0, SVG Export Plug-In . SVG Version: 6.00 Build 0)  -->
<!DOCTYPE svg PUBLIC "-//W3C//DTD SVG 1.1//EN" "http://www.w3.org/Graphics/SVG/1.1/DTD/svg11.dtd">
<svg version="1.1" id="Capa_1" xmlns="http://www.w3.org/2000/svg" xmlns:xlink="http://www.w3.org/1999/xlink" x="0px" y="0px"
	 viewBox="0 90 612 612" style="enable-background:new 0 90 612 612;" xml:space="preserve">
<g>
	<path d="M16.051,270.818h579.898c8.874,0,16.051-6.176,16.051-13.909c0-7.678-7.288-13.909-16.051-13.909H16.051
		C7.177,243,0,249.176,0,256.909C0,264.587,7.288,270.818,16.051,270.818z"/>
	<path d="M16.051,409.909h579.898c8.874,0,16.051-6.176,16.051-13.909c0-7.678-7.288-13.909-16.051-13.909H16.051
		C7.177,382.091,0,388.267,0,396C0,403.678,7.288,409.909,16.051,409.909z"/>
	<path d="M16.051,549h579.898c8.874,0,16.051-6.176,16.051-13.909c0-7.678-7.288-13.909-16.051-13.909H16.051
		C7.177,521.182,0,527.357,0,535.091C0,542.769,7.288,549,16.051,549z"/>
</g>
</svg>
