<?xml version="1.0" encoding="iso-8859-1"?>
<!-- Generator: Adobe Illustrator 18.0.0, SVG Export Plug-In . SVG Version: 6.00 Build 0)  -->
<!DOCTYPE svg PUBLIC "-//W3C//DTD SVG 1.1//EN" "http://www.w3.org/Graphics/SVG/1.1/DTD/svg11.dtd">
<svg version="1.1" id="Capa_1" xmlns="http://www.w3.org/2000/svg" xmlns:xlink="http://www.w3.org/1999/xlink" x="0px" y="0px"
	 viewBox="0 90 612 612" style="enable-background:new 0 90 612 612;" xml:space="preserve">
<g>
	<path d="M604.267,284.727c4.256,0,7.733-3.644,7.733-7.733v-40.169c0-4.256-3.283-7.733-7.733-7.733H7.733
		c-4.256,0-7.733,3.644-7.733,7.733v40.169c0,4.256,3.283,7.733,7.733,7.733H604.267z"/>
	<path d="M0,416.085c0,4.256,3.283,7.733,7.733,7.733h596.533c4.256,0,7.733-3.644,7.733-7.733v-40.169
		c0-4.284-3.283-7.733-7.733-7.733H7.733c-4.256,0-7.733,3.644-7.733,7.733V416.085z"/>
	<path d="M0,555.176c0,4.256,3.283,7.733,7.733,7.733h596.533c4.256,0,7.733-3.644,7.733-7.733v-40.169
		c0-4.256-3.283-7.733-7.733-7.733H7.733c-4.256,0-7.733,3.644-7.733,7.733V555.176z"/>
</g>
</svg>
