<?xml version="1.0" encoding="iso-8859-1"?>
<!-- Generator: Adobe Illustrator 18.0.0, SVG Export Plug-In . SVG Version: 6.00 Build 0)  -->
<!DOCTYPE svg PUBLIC "-//W3C//DTD SVG 1.1//EN" "http://www.w3.org/Graphics/SVG/1.1/DTD/svg11.dtd">
<svg version="1.1" id="Capa_1" xmlns="http://www.w3.org/2000/svg" xmlns:xlink="http://www.w3.org/1999/xlink" x="0px" y="0px"
	 viewBox="0 0 22 22" style="enable-background:new 0 0 22 22;" xml:space="preserve">
<g>
	<path style="fill-rule:evenodd;clip-rule:evenodd;" d="M0,10.377c0,1.425,1,2.6,1,2.6h1c0,0-1-1.409-1-2.6
		c0-1.191,1.478-7.344,10-7.344s10,6.096,10,7.344C21,11.625,20.5,13,20.5,13h1c0,0,0.5-1.314,0.5-2.623C22,9.068,19.82,2,11,2
		S0,8.952,0,10.377z"/>
	<path style="fill-rule:evenodd;clip-rule:evenodd;" d="M10.527,0C9.054,0,9,1,9,1h3C12,1,12,0,10.527,0z"/>
	<path style="fill-rule:evenodd;clip-rule:evenodd;" d="M14.333,14c-1.271,0-2.276,1.5-3.59,1.5c-1.314,0-2.217-1.5-3.59-1.5
		c-1.372,0-2.088,1.5-3.333,1.5C2.575,15.5,1,14,1,14l2.564,8h14.872L21,14c0,0-1.833,1.5-3.077,1.5
		C16.679,15.5,15.605,14,14.333,14z M19.5,16l-1.545,5H4.045l-1.527-4.94c0.053,0.131,0.281,0.44,1.269,0.44
		c1.251,0,1.97-1.5,3.348-1.5s2.286,1.5,3.606,1.5c1.32,0,2.329-1.5,3.606-1.5c1.277,0,2.356,1.5,3.606,1.5
		C19.204,16.5,19.5,16,19.5,16z"/>
</g>
<g>
</g>
<g>
</g>
<g>
</g>
<g>
</g>
<g>
</g>
<g>
</g>
<g>
</g>
<g>
</g>
<g>
</g>
<g>
</g>
<g>
</g>
<g>
</g>
<g>
</g>
<g>
</g>
<g>
</g>
</svg>
