<?xml version="1.0" encoding="utf-8"?>
<!-- Generator: Adobe Illustrator 16.0.0, SVG Export Plug-In . SVG Version: 6.00 Build 0)  -->
<!DOCTYPE svg PUBLIC "-//W3C//DTD SVG 1.1//EN" "http://www.w3.org/Graphics/SVG/1.1/DTD/svg11.dtd">
<svg version="1.1" id="Layer_3" xmlns="http://www.w3.org/2000/svg" xmlns:xlink="http://www.w3.org/1999/xlink" x="0px" y="0px"
	 width="100px" height="100px" viewBox="0 0 100 100" enable-background="new 0 0 100 100" xml:space="preserve">
<path d="M65.613,47.511v45.041H36.99V74.319c-1.934,0.811-1.868-0.897-1.021-3.365c-0.073,0.096-0.114,0.148-0.114,0.148
	c-5.196,3.271-1.413-4.922,1.136-9.807V46.505c0,0,3.689,4.221,7.441,0S65.613,47.511,65.613,47.511z M45.307,39.962
	c0.218,0.271,0.546,0.428,0.894,0.428h2.271c-0.19,0-0.36-0.109-0.441-0.28c-1.497-3.183-1.756-5.966-0.769-8.272
	c1.323-3.089,4.387-4.142,4.517-4.184c0.202-0.068,0.427,0.004,0.552,0.179c0.122,0.173,0.119,0.409-0.012,0.578
	c-1.387,1.815-0.186,3.11-0.033,3.264c4.03,4.26,0.709,8.492,0.676,8.534c-0.094,0.115-0.233,0.182-0.381,0.182h3.302
	c0.444,0,0.849-0.256,1.038-0.659c3.528-7.499,4.139-14.057,1.812-19.488c-3.116-7.278-10.335-9.756-10.64-9.858
	c-0.479-0.159-1.004,0.011-1.296,0.421c-0.294,0.409-0.283,0.962,0.021,1.362c3.267,4.278,0.438,7.328,0.079,7.688
	C37.4,29.894,45.227,39.862,45.307,39.962z"/>
</svg>
