<?xml version="1.0" encoding="utf-8"?>
<!-- Generator: Adobe Illustrator 16.0.0, SVG Export Plug-In . SVG Version: 6.00 Build 0)  -->
<!DOCTYPE svg PUBLIC "-//W3C//DTD SVG 1.1//EN" "http://www.w3.org/Graphics/SVG/1.1/DTD/svg11.dtd">
<svg version="1.1" id="Layer_1" xmlns="http://www.w3.org/2000/svg" xmlns:xlink="http://www.w3.org/1999/xlink" x="0px" y="0px"
	 width="100px" height="100px" viewBox="0 0 100 100" enable-background="new 0 0 100 100" xml:space="preserve">
<path fill="#020202" d="M89.676,83.977L57.448,51.749c7.708-10.47,6.857-25.308-2.61-34.776c-10.439-10.439-27.425-10.439-37.864,0
	s-10.439,27.425,0,37.864c9.469,9.469,24.307,10.319,34.776,2.612l32.227,32.227c1.573,1.574,4.125,1.574,5.699,0
	S91.25,85.549,89.676,83.977z M49.139,49.138c-7.296,7.296-19.169,7.296-26.466,0s-7.297-19.169,0-26.465
	c7.297-7.297,19.17-7.297,26.466,0C56.435,29.969,56.435,41.842,49.139,49.138z M29.117,41.31h1.076v2.675h-5.506V41.31h1.279
	V29.836l-1.8,1.42l-0.704-2.772l3.098-2.214h2.557V41.31z M38.305,41.903c0,1.212-0.849,2.082-2.018,2.082
	c-1.135,0-1.991-0.889-1.991-2.068c0-1.212,0.849-2.093,2.019-2.093C37.453,39.824,38.271,40.679,38.305,41.903z M38.305,32.978
	c0,1.212-0.849,2.082-2.018,2.082c-1.135,0-1.991-0.889-1.991-2.068c0-1.213,0.849-2.093,2.019-2.093
	C37.453,30.898,38.271,31.753,38.305,32.978z M48.518,41.31v2.675h-5.506V41.31h1.172V29.836l-1.801,1.42l-0.704-2.772l3.098-2.214
	h2.557v15.04H48.518z"/>
</svg>
