<?xml version="1.0" encoding="iso-8859-1"?>
<!-- Generator: Adobe Illustrator 18.0.0, SVG Export Plug-In . SVG Version: 6.00 Build 0)  -->
<!DOCTYPE svg PUBLIC "-//W3C//DTD SVG 1.1//EN" "http://www.w3.org/Graphics/SVG/1.1/DTD/svg11.dtd">
<svg version="1.1" id="Capa_1" xmlns="http://www.w3.org/2000/svg" xmlns:xlink="http://www.w3.org/1999/xlink" x="0px" y="0px"
	 viewBox="0 0 22 14" style="enable-background:new 0 0 22 14;" xml:space="preserve">
<g>
	<path style="fill-rule:evenodd;clip-rule:evenodd;" d="M13.916,14c0,0,2,0,2-2V2c0-2-2-2-2-2H2c0,0-2,0-2,2v10c0,2,2,2,2,2H13.916z
		 M1,11.981V2.018C1,1,2.011,1,2.011,1H14.02c0,0,1.011,0,1.011,1.018v9.963C15.031,13,14.02,13,14.02,13H2.011
		C2.011,13,1,13,1,11.981z"/>
	<polygon style="fill-rule:evenodd;clip-rule:evenodd;" points="17.081,8.904 17.081,10.129 22,14 22,0 17.081,3.907 17.081,5.16 
		21,2.22 21,11.843 	"/>
</g>
<g>
</g>
<g>
</g>
<g>
</g>
<g>
</g>
<g>
</g>
<g>
</g>
<g>
</g>
<g>
</g>
<g>
</g>
<g>
</g>
<g>
</g>
<g>
</g>
<g>
</g>
<g>
</g>
<g>
</g>
</svg>
