<?xml version="1.0" encoding="iso-8859-1"?>
<!-- Generator: Adobe Illustrator 18.0.0, SVG Export Plug-In . SVG Version: 6.00 Build 0)  -->
<!DOCTYPE svg PUBLIC "-//W3C//DTD SVG 1.1//EN" "http://www.w3.org/Graphics/SVG/1.1/DTD/svg11.dtd">
<svg version="1.1" id="Capa_1" xmlns="http://www.w3.org/2000/svg" xmlns:xlink="http://www.w3.org/1999/xlink" x="0px" y="0px"
	 viewBox="0 0 16 22" style="enable-background:new 0 0 16 22;" xml:space="preserve">
<g>
	<path style="fill-rule:evenodd;clip-rule:evenodd;" d="M13.037,7.998v-2.76c0,0,0-5.238-5.037-5.238
		C5.658,0,4.409,1.134,3.742,2.345C2.979,3.731,3.979,4.072,4.547,2.976C5.07,1.968,6.073,1,8,1c4.021,0,4.037,4.238,4.037,4.238
		v2.76H13.037z"/>
	<path style="fill-rule:evenodd;clip-rule:evenodd;" d="M7,15.958v1.852c0,0,0.003,1.048,1.002,1.048C9,18.857,9,17.81,9,17.81
		v-1.852c0.598-0.362,1-1.039,1-1.815c0-1.157-0.895-2.095-2-2.095s-2,0.938-2,2.095C6,14.918,6.402,15.596,7,15.958z"/>
	<path style="fill-rule:evenodd;clip-rule:evenodd;" d="M0,9.041v11.918C0,21.534,0.445,22,1.001,22h13.998
		C15.552,22,16,21.534,16,20.959V9.041C16,8.466,15.555,8,14.999,8H1.001C0.448,8,0,8.466,0,9.041z M15,9v12.048H1V9H15z"/>
</g>
<g>
</g>
<g>
</g>
<g>
</g>
<g>
</g>
<g>
</g>
<g>
</g>
<g>
</g>
<g>
</g>
<g>
</g>
<g>
</g>
<g>
</g>
<g>
</g>
<g>
</g>
<g>
</g>
<g>
</g>
</svg>
