<?xml version="1.0" encoding="utf-8"?>
<!-- Generator: Adobe Illustrator 16.0.0, SVG Export Plug-In . SVG Version: 6.00 Build 0)  -->
<!DOCTYPE svg PUBLIC "-//W3C//DTD SVG 1.1//EN" "http://www.w3.org/Graphics/SVG/1.1/DTD/svg11.dtd">
<svg version="1.1" id="Layer_2" xmlns="http://www.w3.org/2000/svg" xmlns:xlink="http://www.w3.org/1999/xlink" x="0px" y="0px"
	 width="100px" height="100px" viewBox="0 0 100 100" enable-background="new 0 0 100 100" xml:space="preserve">
<path d="M87.185,77.145L53.021,17.974c-0.625-1.083-1.781-1.75-3.031-1.75s-2.406,0.667-3.031,1.75L12.626,77.439
	c-0.625,1.083-0.625,2.417,0,3.5s1.781,1.75,3.031,1.75h68.666c0.007,0,0.015,0.001,0.02,0c1.934,0,3.5-1.567,3.5-3.5
	C87.843,78.426,87.599,77.72,87.185,77.145z M21.72,75.689L49.99,26.724l28.271,48.966H21.72z M42.603,48.952l7.398,7.398
	l7.398-7.398c1.1-1.1,2.882-1.1,3.982,0c1.1,1.1,1.1,2.884,0,3.983l-7.397,7.397l7.397,7.398c1.1,1.1,1.1,2.884,0,3.983
	c-0.55,0.55-1.271,0.825-1.992,0.825s-1.441-0.275-1.99-0.825l-7.398-7.397l-7.398,7.397c-0.551,0.55-1.271,0.825-1.992,0.825
	c-0.72,0-1.441-0.275-1.991-0.825c-1.101-1.1-1.101-2.884,0-3.983l7.397-7.398l-7.397-7.397c-1.101-1.1-1.101-2.884,0-3.983
	S41.502,47.853,42.603,48.952z"/>
</svg>
