<?xml version="1.0" encoding="utf-8"?>
<!-- Generator: Adobe Illustrator 16.0.0, SVG Export Plug-In . SVG Version: 6.00 Build 0)  -->
<!DOCTYPE svg PUBLIC "-//W3C//DTD SVG 1.1//EN" "http://www.w3.org/Graphics/SVG/1.1/DTD/svg11.dtd">
<svg version="1.1" id="Layer_2" xmlns="http://www.w3.org/2000/svg" xmlns:xlink="http://www.w3.org/1999/xlink" x="0px" y="0px"
	 width="100px" height="100px" viewBox="0 0 100 100" enable-background="new 0 0 100 100" xml:space="preserve">
<path d="M87.185,77.145L53.021,17.974c-0.625-1.083-1.781-1.75-3.031-1.75s-2.406,0.667-3.031,1.75L12.626,77.439
	c-0.625,1.083-0.625,2.417,0,3.5s1.781,1.75,3.031,1.75h68.666c0.007,0,0.015,0.001,0.02,0c1.934,0,3.5-1.567,3.5-3.5
	C87.843,78.426,87.599,77.72,87.185,77.145z M58.514,75.689c3.482-1.991,10.804-7.627,3.345-16.901c0,0,2.421,8.341-2.695,8.341
	c-0.658,0-2.182-0.993-0.898-3.079c0,0,3.914-7.25-2.053-9.881c0,0,1.714,3.215-1.046,5.424c-1.126-4.064-5.986-6.968-5.986-6.968
	c-4.648-3.059-2.02-7.959-2.02-7.959c-8.286,3.653-2.852,13.72-2.852,13.72c1.782,2.896-0.334,4.277-1.247,4.277
	c-7.105,0-3.742-11.582-3.742-11.582c-10.898,13.55,0.919,22.062,5.349,24.608H21.72L49.99,26.724l28.271,48.966H58.514z"/>
</svg>
