<?xml version="1.0" encoding="utf-8"?>
<!-- Generator: Adobe Illustrator 16.0.0, SVG Export Plug-In . SVG Version: 6.00 Build 0)  -->
<!DOCTYPE svg PUBLIC "-//W3C//DTD SVG 1.1//EN" "http://www.w3.org/Graphics/SVG/1.1/DTD/svg11.dtd">
<svg version="1.1" id="Layer_2" xmlns="http://www.w3.org/2000/svg" xmlns:xlink="http://www.w3.org/1999/xlink" x="0px" y="0px"
	 width="100px" height="100px" viewBox="0 0 100 100" enable-background="new 0 0 100 100" xml:space="preserve">
<path d="M82.605,11.371H17.395c-3.342,0-6.061,2.718-6.061,6.059v65.14c0,3.341,2.719,6.06,6.061,6.06h65.211
	c3.342,0,6.061-2.719,6.061-6.06V17.43C88.666,14.088,85.947,11.371,82.605,11.371z M78.498,18.268c1.434,0,2.596,1.163,2.596,2.597
	c0,1.435-1.162,2.597-2.596,2.597c-1.436,0-2.598-1.163-2.598-2.597C75.9,19.431,77.063,18.268,78.498,18.268z M69.191,18.268
	c1.436,0,2.598,1.163,2.598,2.597c0,1.435-1.162,2.597-2.598,2.597c-1.434,0-2.596-1.163-2.596-2.597
	C66.596,19.431,67.758,18.268,69.191,18.268z M81.74,81.704H18.26V29.909h63.48V81.704z M29.09,74.152h41.816
	c0.001,0,0.003,0,0.003,0c0.7,0,1.267-0.566,1.267-1.265c0-0.267-0.083-0.515-0.224-0.719L51.094,36.041
	c-0.226-0.392-0.644-0.633-1.096-0.633s-0.87,0.241-1.096,0.633L27.994,72.253c-0.226,0.392-0.226,0.874,0,1.266
	C28.221,73.911,28.638,74.152,29.09,74.152z M52.408,69.407c0,0.479-0.389,0.868-0.867,0.868H48.46
	c-0.479,0-0.867-0.389-0.867-0.868v-3.058c0-0.479,0.389-0.868,0.867-0.868h3.081c0.479,0,0.867,0.389,0.867,0.868V69.407z
	 M48.026,45.171h3.948c0.479,0,0.868,0.389,0.868,0.868l-0.435,16.605c0,0.479-0.389,0.868-0.867,0.868H48.46
	c-0.479,0-0.867-0.388-0.867-0.868L47.158,46.04C47.158,45.56,47.547,45.171,48.026,45.171z"/>
</svg>
