<?xml version="1.0" encoding="iso-8859-1"?>
<!-- Generator: Adobe Illustrator 18.0.0, SVG Export Plug-In . SVG Version: 6.00 Build 0)  -->
<!DOCTYPE svg PUBLIC "-//W3C//DTD SVG 1.1//EN" "http://www.w3.org/Graphics/SVG/1.1/DTD/svg11.dtd">
<svg version="1.1" id="Capa_1" xmlns="http://www.w3.org/2000/svg" xmlns:xlink="http://www.w3.org/1999/xlink" x="0px" y="0px"
	 viewBox="0 0 22 22" style="enable-background:new 0 0 22 22;" xml:space="preserve">
<g>
	<path style="fill-rule:evenodd;clip-rule:evenodd;" d="M22,11c0-6.075-4.925-11-11-11C4.925,0,0,4.925,0,11c0,6.075,4.925,11,11,11
		C17.075,22,22,17.075,22,11z M1,11C1,5.477,5.477,1,11,1s10,4.477,10,10s-4.477,10-10,10S1,16.523,1,11z"/>
	<path style="fill-rule:evenodd;clip-rule:evenodd;" d="M11.824,16.944c0.252-0.035,0.5-0.085,0.741-0.15l1.562,1.573L14.08,16.15
		c0.187-0.112,0.367-0.234,0.539-0.364l2.038,0.874l-0.873-2.038c0.152-0.201,0.292-0.411,0.418-0.63l2.216,0.008l-1.599-1.533
		c0.053-0.209,0.094-0.423,0.124-0.641l2.058-0.823l-2.057-0.823c-0.035-0.253-0.085-0.501-0.15-0.743l1.571-1.56l-2.214,0.046
		c-0.112-0.187-0.234-0.368-0.366-0.542l0.873-2.036l-2.036,0.872c-0.201-0.153-0.412-0.293-0.632-0.419l0.008-2.214L12.465,5.18
		c-0.21-0.053-0.425-0.094-0.643-0.124L11,3l-0.822,2.056C9.924,5.091,9.676,5.141,9.433,5.207l-1.56-1.571L7.92,5.85
		C7.732,5.962,7.552,6.085,7.378,6.216L5.342,5.344L6.215,7.38C6.062,7.581,5.922,7.792,5.796,8.012L3.581,8.004L5.18,9.537
		c-0.053,0.21-0.094,0.424-0.124,0.642l-2.057,0.823l2.058,0.823c0.035,0.253,0.085,0.501,0.15,0.742l-1.572,1.561l2.216-0.046
		c0.112,0.187,0.234,0.367,0.365,0.54l-0.874,2.038l2.039-0.874c0.2,0.152,0.411,0.291,0.63,0.417L8.003,18.42l1.534-1.6
		c0.209,0.052,0.422,0.094,0.64,0.124L11,19.003L11.824,16.944z M16,11c0,2.593-1.973,4.724-4.5,4.975v-4.109
		C11.799,11.693,12,11.37,12,11c0-0.048-0.003-0.096-0.01-0.143l3.515-2.029C15.822,9.485,16,10.222,16,11z M11,6
		c1.625,0,3.068,0.775,3.982,1.975l-3.622,2.091C11.248,10.024,11.127,10,11,10c-0.195,0-0.376,0.056-0.53,0.152L6.923,8.104
		C7.83,6.831,9.318,6,11,6z M10.5,15.975C7.973,15.724,6,13.593,6,11c0-0.722,0.153-1.408,0.428-2.027l3.573,2.063
		c0.012,0.355,0.21,0.663,0.499,0.831V15.975z"/>
</g>
<g>
</g>
<g>
</g>
<g>
</g>
<g>
</g>
<g>
</g>
<g>
</g>
<g>
</g>
<g>
</g>
<g>
</g>
<g>
</g>
<g>
</g>
<g>
</g>
<g>
</g>
<g>
</g>
<g>
</g>
</svg>
