<?xml version="1.0" encoding="iso-8859-1"?>
<!-- Generator: Adobe Illustrator 18.0.0, SVG Export Plug-In . SVG Version: 6.00 Build 0)  -->
<!DOCTYPE svg PUBLIC "-//W3C//DTD SVG 1.1//EN" "http://www.w3.org/Graphics/SVG/1.1/DTD/svg11.dtd">
<svg version="1.1" id="Capa_1" xmlns="http://www.w3.org/2000/svg" xmlns:xlink="http://www.w3.org/1999/xlink" x="0px" y="0px"
	 viewBox="0 0 22 18.588" style="enable-background:new 0 0 22 18.588;" xml:space="preserve">
<path style="fill-rule:evenodd;clip-rule:evenodd;" d="M3,15l2.817,3.275c0.36,0.419,0.954,0.415,1.317,0L10,15h10.997
	C21.551,15,22,14.551,22,13.993V1.008C22,0.451,21.561,0,20.998,0H1.002C0.449,0,0,0.449,0,1.008v12.985C0,14.549,0.443,15,0.999,15
	H3z M4,4.222C4,4.1,4.099,4,4.22,4h12.56C16.903,4,17,4.099,17,4.222v0.556C17,4.9,16.901,5,16.78,5H4.22C4.097,5,4,4.901,4,4.778
	V4.222z M4,7.222C4,7.1,4.099,7,4.22,7h12.56C16.903,7,17,7.099,17,7.222v0.556C17,7.9,16.901,8,16.78,8H4.22
	C4.097,8,4,7.901,4,7.778V7.222z M4,10.222C4,10.1,4.094,10,4.209,10h8.582C12.905,10,13,10.099,13,10.222v0.556
	C13,10.9,12.906,11,12.791,11H4.209C4.095,11,4,10.901,4,10.778V10.222z"/>
<g>
</g>
<g>
</g>
<g>
</g>
<g>
</g>
<g>
</g>
<g>
</g>
<g>
</g>
<g>
</g>
<g>
</g>
<g>
</g>
<g>
</g>
<g>
</g>
<g>
</g>
<g>
</g>
<g>
</g>
</svg>
