<?xml version="1.0" encoding="utf-8"?>
<!-- Generator: Adobe Illustrator 16.0.0, SVG Export Plug-In . SVG Version: 6.00 Build 0)  -->
<!DOCTYPE svg PUBLIC "-//W3C//DTD SVG 1.1//EN" "http://www.w3.org/Graphics/SVG/1.1/DTD/svg11.dtd">
<svg version="1.1" id="Layer_2" xmlns="http://www.w3.org/2000/svg" xmlns:xlink="http://www.w3.org/1999/xlink" x="0px" y="0px"
	 width="100px" height="100px" viewBox="0 0 100 100" enable-background="new 0 0 100 100" xml:space="preserve">
<path d="M35.4,43.419h-3.913V36.06h3.887v-3.914h3.472v3.862h3.913v7.386h-3.913v0.025H35.4z M22.102,77.957
	c0.002,0.182,0.005,0.318,0.007,0.407c0.001,0.054-0.009,0.105-0.012,0.159c0.122,3.01,2.603,5.422,5.642,5.422h50.186v-5.528
	c0-1.104,0.896-2,2-2s2,0.896,2,2v7.528c0,1.104-0.896,2-2,2H27.437c-0.104,0-0.204-0.015-0.305-0.031
	c-5.04-0.315-9.047-4.504-9.047-9.623c0-0.117,0.014-0.23,0.018-0.346c-0.062-5.939,0-51.112,0.007-56.027
	c-0.008-0.07-0.021-0.137-0.021-0.208c0-5.323,4.33-9.653,9.653-9.653h3.196h48.497h0.489c1.104,0,2,0.896,2,2v56.527
	c0,1.104-0.896,2-2,2c-0.012,0-0.022-0.003-0.034-0.003c-0.147,0.035-0.3,0.058-0.458,0.058H27.739
	C24.735,72.638,22.277,74.996,22.102,77.957z M58.044,32.146h15.601v3.447h-3.913v3.914h-3.887v3.913h-3.914v3.888h-3.888v8.242H78
	V51.22H62.373v-3.447h3.913V43.86h3.887v-3.914h3.914V36.06H78v-8.268H58.044V32.146z M49.222,43.86h9.296v-4.354h-9.296V43.86z
	 M27.159,55.548h4.329v-7.775H35.4v-0.025h7.359v7.801h4.354V35.593h-3.914v-3.939h-3.913v-3.862h-4.329v3.913h-3.913v3.914h-3.888
	V55.548z"/>
</svg>
