<?xml version="1.0" encoding="utf-8"?>
<!-- Generator: Adobe Illustrator 16.0.0, SVG Export Plug-In . SVG Version: 6.00 Build 0)  -->
<!DOCTYPE svg PUBLIC "-//W3C//DTD SVG 1.1//EN" "http://www.w3.org/Graphics/SVG/1.1/DTD/svg11.dtd">
<svg version="1.1" id="Layer_2" xmlns="http://www.w3.org/2000/svg" xmlns:xlink="http://www.w3.org/1999/xlink" x="0px" y="0px"
	 width="100px" height="100px" viewBox="0 0 100 100" enable-background="new 0 0 100 100" xml:space="preserve">
<path d="M32.463,91.398c-0.004,0-0.008,0-0.012,0c-1.135,0-2.086-0.512-2.609-1.402c-0.863-1.461-0.432-3.471,1.488-6.938
	c2.348-4.24,3.693-8.855,4.01-13.746C19.578,64.686,9.107,53.066,9.107,39.998C9.107,22.686,27.451,8.602,50,8.602
	s40.893,14.084,40.893,31.396c0,13.436-11.039,25.313-27.52,29.674C37.982,91.348,33.971,91.398,32.463,91.398z M50,12.697
	c-20.291,0-36.799,12.248-36.799,27.301c0,11.607,9.951,21.973,24.762,25.791l1.568,0.402L39.5,67.811
	c-0.117,6.15-1.662,11.949-4.588,17.232c-0.381,0.688-0.658,1.242-0.859,1.689c2.756-1.336,9.816-5.775,27.018-20.48l0.363-0.311
	l0.463-0.117c14.895-3.791,24.9-14.168,24.9-25.826C86.797,24.945,70.289,12.697,50,12.697z"/>
</svg>
