<?xml version="1.0" encoding="utf-8"?>
<!-- Generator: Adobe Illustrator 16.0.0, SVG Export Plug-In . SVG Version: 6.00 Build 0)  -->
<!DOCTYPE svg PUBLIC "-//W3C//DTD SVG 1.1//EN" "http://www.w3.org/Graphics/SVG/1.1/DTD/svg11.dtd">
<svg version="1.1" id="Layer_2" xmlns="http://www.w3.org/2000/svg" xmlns:xlink="http://www.w3.org/1999/xlink" x="0px" y="0px"
	 width="100px" height="100px" viewBox="0 0 100 100" enable-background="new 0 0 100 100" xml:space="preserve">
<path d="M50,8.602c-22.549,0-40.893,14.084-40.893,31.396c0,13.068,10.471,24.688,26.232,29.314
	c-0.316,4.891-1.662,9.506-4.01,13.746c-1.92,3.467-2.352,5.477-1.488,6.938c0.523,0.891,1.475,1.402,2.609,1.402
	c0.004,0,0.008,0,0.012,0c1.508,0,5.52-0.051,30.91-21.727c16.48-4.361,27.52-16.238,27.52-29.674
	C90.893,22.686,72.549,8.602,50,8.602z M61.896,65.824l-0.463,0.117l-0.363,0.311c-17.201,14.705-24.262,19.145-27.018,20.48
	c0.201-0.447,0.479-1.002,0.859-1.689c2.926-5.283,4.471-11.082,4.588-17.232l0.031-1.619l-1.568-0.402
	c-14.811-3.818-24.762-14.184-24.762-25.791c0-15.053,16.508-27.301,36.799-27.301c20.289,0,36.797,12.248,36.797,27.301
	C86.797,51.656,76.791,62.033,61.896,65.824z M53.057,58.898v4.768c0,0.643-0.52,1.162-1.162,1.162h-4.117
	c-0.641,0-1.162-0.52-1.162-1.162v-4.768c0-0.641,0.521-1.162,1.162-1.162h4.117C52.537,57.736,53.057,58.258,53.057,58.898z
	 M58.059,21.285c0.797,0.785,1.201,1.793,1.201,2.996v9.535c0,1.309-0.346,2.5-1.031,3.537l-5.334,8.133v8.645
	c0,0.643-0.52,1.162-1.162,1.162h-3.793c-0.641,0-1.162-0.52-1.162-1.162v-8.098c0-1.422,0.332-2.635,0.986-3.604l5.408-8.072V25.77
	h-6.344v8.371c0,0.643-0.521,1.164-1.162,1.164H41.9c-0.643,0-1.162-0.521-1.162-1.164v-9.859c0-1.207,0.41-2.217,1.221-3.002
	c0.799-0.773,1.811-1.166,3.002-1.166h10.076C56.25,20.113,57.268,20.508,58.059,21.285z"/>
</svg>
