<?xml version="1.0" encoding="iso-8859-1"?>
<!-- Generator: Adobe Illustrator 18.0.0, SVG Export Plug-In . SVG Version: 6.00 Build 0)  -->
<!DOCTYPE svg PUBLIC "-//W3C//DTD SVG 1.1//EN" "http://www.w3.org/Graphics/SVG/1.1/DTD/svg11.dtd">
<svg version="1.1" id="Capa_1" xmlns="http://www.w3.org/2000/svg" xmlns:xlink="http://www.w3.org/1999/xlink" x="0px" y="0px"
	 viewBox="0 0 22 18.588" style="enable-background:new 0 0 22 18.588;" xml:space="preserve">
<g>
	<path style="fill-rule:evenodd;clip-rule:evenodd;" d="M4.22,8h12.56C16.901,8,17,7.9,17,7.778V7.222C17,7.099,16.903,7,16.78,7
		H4.22C4.099,7,4,7.1,4,7.222v0.556C4,7.901,4.097,8,4.22,8z"/>
	<path style="fill-rule:evenodd;clip-rule:evenodd;" d="M4.22,5h12.56C16.901,5,17,4.9,17,4.778V4.222C17,4.099,16.903,4,16.78,4
		H4.22C4.099,4,4,4.1,4,4.222v0.556C4,4.901,4.097,5,4.22,5z"/>
	<path style="fill-rule:evenodd;clip-rule:evenodd;" d="M4.209,11h8.582C12.906,11,13,10.9,13,10.778v-0.556
		C13,10.099,12.905,10,12.791,10H4.209C4.094,10,4,10.1,4,10.222v0.556C4,10.901,4.095,11,4.209,11z"/>
	<path style="fill-rule:evenodd;clip-rule:evenodd;" d="M3,15l2.817,3.275c0.36,0.419,0.954,0.415,1.317,0L10,15h10.997
		C21.551,15,22,14.551,22,13.993V1.008C22,0.451,21.56,0,20.998,0H1.002C0.449,0,0,0.449,0,1.008v12.985C0,14.549,0.443,15,0.999,15
		H3z M1,1h20v13H9.711l-3.239,3.562L3.516,14H1V1z"/>
</g>
<g>
</g>
<g>
</g>
<g>
</g>
<g>
</g>
<g>
</g>
<g>
</g>
<g>
</g>
<g>
</g>
<g>
</g>
<g>
</g>
<g>
</g>
<g>
</g>
<g>
</g>
<g>
</g>
<g>
</g>
</svg>
