<?xml version="1.0" encoding="utf-8"?>
<!-- Generator: Adobe Illustrator 16.0.0, SVG Export Plug-In . SVG Version: 6.00 Build 0)  -->
<!DOCTYPE svg PUBLIC "-//W3C//DTD SVG 1.1//EN" "http://www.w3.org/Graphics/SVG/1.1/DTD/svg11.dtd">
<svg version="1.1" id="Layer_2" xmlns="http://www.w3.org/2000/svg" xmlns:xlink="http://www.w3.org/1999/xlink" x="0px" y="0px"
	 width="100px" height="100px" viewBox="0 0 100 100" enable-background="new 0 0 100 100" xml:space="preserve">
<path d="M50,8.603c-22.549,0-40.893,14.084-40.893,31.396c0,13.068,10.471,24.688,26.232,29.314
	c-0.316,4.891-1.662,9.507-4.01,13.747c-1.92,3.466-2.352,5.476-1.488,6.938c0.523,0.891,1.475,1.401,2.609,1.401
	c0.004,0,0.008,0,0.012,0c1.508,0,5.52-0.051,30.908-21.727c16.482-4.361,27.521-16.238,27.521-29.674
	C90.893,22.687,72.547,8.603,50,8.603z M61.896,65.824l-0.463,0.117l-0.363,0.311c-17.201,14.706-24.262,19.146-27.018,20.48
	c0.201-0.446,0.479-1.002,0.859-1.689c2.926-5.283,4.471-11.082,4.588-17.232l0.031-1.618l-1.568-0.403
	c-14.811-3.818-24.762-14.184-24.762-25.791c0-15.053,16.508-27.301,36.799-27.301c20.289,0,36.797,12.248,36.797,27.301
	C86.797,51.656,76.791,62.034,61.896,65.824z M53.07,20.901c0.246,0.252,0.379,0.592,0.369,0.943L52.58,48.816
	c-0.018,0.707-0.598,1.271-1.305,1.271h-2.551c-0.709,0-1.287-0.563-1.305-1.271l-0.859-26.972c-0.01-0.352,0.123-0.691,0.369-0.943
	c0.246-0.251,0.582-0.394,0.934-0.394h4.273C52.488,20.508,52.824,20.65,53.07,20.901z M53.385,55.916V60.8
	c0,0.72-0.584,1.304-1.305,1.304h-4.16c-0.721,0-1.305-0.584-1.305-1.304v-4.884c0-0.72,0.584-1.304,1.305-1.304h4.16
	C52.801,54.612,53.385,55.196,53.385,55.916z"/>
</svg>
