<?xml version="1.0" encoding="utf-8"?>
<!-- Generator: Adobe Illustrator 16.0.0, SVG Export Plug-In . SVG Version: 6.00 Build 0)  -->
<!DOCTYPE svg PUBLIC "-//W3C//DTD SVG 1.1//EN" "http://www.w3.org/Graphics/SVG/1.1/DTD/svg11.dtd">
<svg version="1.1" id="Layer_2" xmlns="http://www.w3.org/2000/svg" xmlns:xlink="http://www.w3.org/1999/xlink" x="0px" y="0px"
	 width="100px" height="100px" viewBox="0 0 100 100" enable-background="new 0 0 100 100" xml:space="preserve">
<path d="M85.375,59.033c2.177-0.209,4.197-1.146,5.785-2.692v27.588c0,4.771-3.883,8.652-8.655,8.652h-62.01
	c-4.773,0-8.656-3.881-8.656-8.652V21.985c0-4.771,3.883-8.653,8.656-8.653h27.663c-1.489,1.528-2.479,3.544-2.696,5.784H20.494
	c-1.583,0-2.871,1.287-2.871,2.869v61.943c0,1.581,1.288,2.868,2.871,2.868h62.01c1.583,0,2.871-1.287,2.871-2.868V59.033z
	 M86.929,12.739H57.545c-2.396,0-4.338,1.942-4.338,4.339c0,2.396,1.942,4.338,4.338,4.338h18.673
	c-0.18,0.131-0.36,0.264-0.522,0.427L45.085,52.452v-18.91c0-2.396-1.942-4.338-4.338-4.338c-1.198,0-2.283,0.484-3.068,1.27
	c-0.785,0.787-1.271,1.869-1.271,3.068v29.385c0,2.395,1.942,4.338,4.338,4.338H70.13c2.396,0,4.338-1.943,4.338-4.34
	c0-2.395-1.942-4.338-4.338-4.338H51.459c0.18-0.131,0.359-0.264,0.521-0.426l30.609-30.61v18.911c0,2.396,1.942,4.338,4.338,4.338
	c1.198,0,2.283-0.484,3.068-1.27c0.785-0.787,1.271-1.87,1.271-3.068V17.077C91.267,14.682,89.324,12.739,86.929,12.739z"/>
</svg>
