<?xml version="1.0" encoding="iso-8859-1"?>
<!-- Generator: Adobe Illustrator 18.0.0, SVG Export Plug-In . SVG Version: 6.00 Build 0)  -->
<!DOCTYPE svg PUBLIC "-//W3C//DTD SVG 1.1//EN" "http://www.w3.org/Graphics/SVG/1.1/DTD/svg11.dtd">
<svg version="1.1" id="Capa_1" xmlns="http://www.w3.org/2000/svg" xmlns:xlink="http://www.w3.org/1999/xlink" x="0px" y="0px"
	 viewBox="0 0 22 22" style="enable-background:new 0 0 22 22;" xml:space="preserve">
<g>
	<path style="fill-rule:evenodd;clip-rule:evenodd;" d="M10.643,8.893c0-1.125-0.672-2.877-1.97-2.877
		c-0.406,0-0.844,0.203-1.095,0.517c-0.266,0.328-0.344,0.75-0.344,1.157c0,1.047,0.61,2.783,1.955,2.783
		c0.391,0,0.813-0.188,1.064-0.438C10.612,9.674,10.643,9.174,10.643,8.893z"/>
	<path style="fill-rule:evenodd;clip-rule:evenodd;" d="M22,11c0-6.075-4.925-11-11-11C4.925,0,0,4.925,0,11s4.925,11,11,11
		C17.075,22,22,17.075,22,11z M14.385,8.885h0.846v1.692h1.692v0.846h-1.692v1.692h-0.846v-1.692h-1.692v-0.846h1.692V8.885z
		 M5.077,15.179c0-0.563,0.281-1.36,1.204-1.908c0.969-0.594,2.283-0.672,2.986-0.719c-0.219-0.282-0.469-0.579-0.469-1.063
		c0-0.266,0.078-0.422,0.156-0.61c-0.172,0.015-0.344,0.031-0.501,0.031c-1.657,0-2.595-1.236-2.595-2.455
		c0-0.719,0.328-1.517,1.001-2.095C7.751,5.625,8.814,5.5,9.658,5.5h3.221l-1.001,0.562h-0.969v0c0.359,0.297,1.11,0.923,1.11,2.111
		c0,1.157-0.657,1.704-1.313,2.22c-0.203,0.203-0.438,0.422-0.438,0.766s0.235,0.532,0.406,0.672l0.563,0.438
		c0.688,0.578,1.313,1.11,1.313,2.19c0,1.469-1.423,2.955-4.112,2.955C6.172,17.415,5.077,16.336,5.077,15.179z"/>
	<path style="fill-rule:evenodd;clip-rule:evenodd;" d="M9.799,13.005C9.674,12.99,9.596,12.99,9.44,12.99
		c-0.141,0-0.985,0.031-1.642,0.251c-0.344,0.125-1.345,0.5-1.345,1.61c0,1.11,1.079,1.907,2.752,1.907
		c1.501,0,2.298-0.719,2.298-1.688C11.503,14.272,10.988,13.85,9.799,13.005z"/>
</g>
<g>
</g>
<g>
</g>
<g>
</g>
<g>
</g>
<g>
</g>
<g>
</g>
<g>
</g>
<g>
</g>
<g>
</g>
<g>
</g>
<g>
</g>
<g>
</g>
<g>
</g>
<g>
</g>
<g>
</g>
</svg>
