<?xml version="1.0" encoding="utf-8"?>
<!-- Generator: Adobe Illustrator 16.0.0, SVG Export Plug-In . SVG Version: 6.00 Build 0)  -->
<!DOCTYPE svg PUBLIC "-//W3C//DTD SVG 1.1//EN" "http://www.w3.org/Graphics/SVG/1.1/DTD/svg11.dtd">
<svg version="1.1" id="Layer_3" xmlns="http://www.w3.org/2000/svg" xmlns:xlink="http://www.w3.org/1999/xlink" x="0px" y="0px"
	 width="100px" height="100px" viewBox="0 0 100 100" enable-background="new 0 0 100 100" xml:space="preserve">
<path d="M83.141,71.792c-1.515-1.584-2.938-2.746-4.193-3.771c-2.814-2.298-4.513-3.686-4.513-7.594V47.026
	c-0.053-10.996-7.509-20.805-17.848-23.632c-0.455-2.247-2.209-5.436-6.588-5.436c-4.422,0-6.154,3.09-6.589,5.287
	C33.128,26.061,25.706,35.93,25.646,47.031v12.966c0,4.031-1.812,5.576-4.813,8.134c-1.197,1.019-2.552,2.175-3.973,3.661
	c-0.32,0.334-0.409,0.826-0.229,1.25c0.182,0.424,0.599,0.7,1.061,0.7h19.624c-0.151,0.251-0.208,0.55-0.146,0.841
	c1.443,6.508,6.837,11.233,12.827,11.233c5.994,0,11.39-4.725,12.829-11.233c0.063-0.291,0.007-0.589-0.145-0.841h19.624
	c0.462,0,0.879-0.275,1.06-0.7C83.548,72.618,83.459,72.126,83.141,71.792z M45.463,28.925
	c-8.884,1.061-13.867,12.869-13.917,12.988c-0.184,0.444-0.613,0.712-1.065,0.712c-0.146,0-0.297-0.028-0.44-0.088
	c-0.588-0.244-0.868-0.918-0.624-1.506c0.223-0.538,5.564-13.177,15.773-14.396c0.638-0.076,1.206,0.376,1.282,1.008
	C46.547,28.276,46.097,28.85,45.463,28.925z"/>
</svg>
