<?xml version="1.0" encoding="iso-8859-1"?>
<!-- Generator: Adobe Illustrator 18.0.0, SVG Export Plug-In . SVG Version: 6.00 Build 0)  -->
<!DOCTYPE svg PUBLIC "-//W3C//DTD SVG 1.1//EN" "http://www.w3.org/Graphics/SVG/1.1/DTD/svg11.dtd">
<svg version="1.1" id="Capa_1" xmlns="http://www.w3.org/2000/svg" xmlns:xlink="http://www.w3.org/1999/xlink" x="0px" y="0px"
	 viewBox="0 0 16.005 16" style="enable-background:new 0 0 16.005 16;" xml:space="preserve">
<g id="Cart">
	<g>
		<path style="fill-rule:evenodd;clip-rule:evenodd;" d="M6.5,13C5.672,13,5,13.672,5,14.5S5.672,16,6.5,16S8,15.328,8,14.5
			S7.328,13,6.5,13z M13,9H6.798L6.549,8h6.504c0.348,0,0.64-0.208,0.805-0.504L13.926,7.5l2.079-5.884l-0.227-0.014
			C15.909,1.433,16,1.231,16,1c0-0.552-0.448-1-1-1H2.5v0.153C2.351,0.065,2.186,0,2,0H1C0.448,0,0,0.448,0,1c0,0.552,0.448,1,1,1h1
			c0.186,0,0.351-0.065,0.5-0.153V2h0.579l1.954,7.835C5.024,9.891,5,9.942,5,10c0,0.552,0.448,1,1,1h7c0.552,0,1-0.448,1-1
			C14,9.448,13.552,9,13,9z M5.052,2h8.844l-1.413,4H6.05L5.052,2z M12.5,13c-0.828,0-1.5,0.672-1.5,1.5s0.672,1.5,1.5,1.5
			c0.828,0,1.5-0.672,1.5-1.5S13.328,13,12.5,13z"/>
	</g>
</g>
<g>
</g>
<g>
</g>
<g>
</g>
<g>
</g>
<g>
</g>
<g>
</g>
<g>
</g>
<g>
</g>
<g>
</g>
<g>
</g>
<g>
</g>
<g>
</g>
<g>
</g>
<g>
</g>
<g>
</g>
</svg>
