<?xml version="1.0" encoding="utf-8"?>
<!-- Generator: Adobe Illustrator 16.0.0, SVG Export Plug-In . SVG Version: 6.00 Build 0)  -->
<!DOCTYPE svg PUBLIC "-//W3C//DTD SVG 1.1//EN" "http://www.w3.org/Graphics/SVG/1.1/DTD/svg11.dtd">
<svg version="1.1" id="Layer_3" xmlns="http://www.w3.org/2000/svg" xmlns:xlink="http://www.w3.org/1999/xlink" x="0px" y="0px"
	 width="100px" height="100px" viewBox="0 0 100 100" enable-background="new 0 0 100 100" xml:space="preserve">
<path d="M69.42,30.579c0.236,0.235,0.348,0.565,0.305,0.896l-4.282,32.762c-0.032,0.24-0.142,0.455-0.304,0.618
	c-0.16,0.16-0.369,0.269-0.608,0.303c-0.475,0.067-0.937-0.193-1.128-0.633L57.698,51.37L35.87,73.199
	c-0.417,0.416-1.095,0.418-1.513-0.001l-7.555-7.555c-0.418-0.418-0.417-1.095,0-1.513l21.828-21.828l-13.154-5.702
	c-0.439-0.193-0.7-0.655-0.633-1.132c0.066-0.476,0.441-0.85,0.92-0.91l32.762-4.283C68.855,30.232,69.187,30.346,69.42,30.579z
	 M77.562,77.562c-15.197,15.197-39.927,15.197-55.124,0S7.241,37.636,22.438,22.438S62.365,7.24,77.563,22.438
	S92.759,62.364,77.562,77.562z M74.539,25.461c-13.531-13.531-35.548-13.53-49.078,0c-13.531,13.532-13.53,35.548,0,49.078
	c13.531,13.531,35.546,13.531,49.078,0C88.069,61.009,88.07,38.992,74.539,25.461z"/>
</svg>
