<?xml version="1.0" encoding="utf-8"?>
<!-- Generator: Adobe Illustrator 16.0.0, SVG Export Plug-In . SVG Version: 6.00 Build 0)  -->
<!DOCTYPE svg PUBLIC "-//W3C//DTD SVG 1.1//EN" "http://www.w3.org/Graphics/SVG/1.1/DTD/svg11.dtd">
<svg version="1.1" id="Layer_3" xmlns="http://www.w3.org/2000/svg" xmlns:xlink="http://www.w3.org/1999/xlink" x="0px" y="0px"
	 width="100px" height="100px" viewBox="0 0 100 100" enable-background="new 0 0 100 100" xml:space="preserve">
<path d="M76.004,15.537v68.925c0,0.819-0.664,1.482-1.482,1.482h-8.4c-0.819,0-1.483-0.663-1.483-1.482V15.537
	c0-0.818,0.664-1.481,1.483-1.481h8.4C75.34,14.056,76.004,14.719,76.004,15.537z M61.612,19.366H31.965
	c-0.184,0-0.359,0.066-0.496,0.189l-7.227,6.487c-0.167,0.149-0.257,0.368-0.245,0.593c0.014,0.226,0.128,0.433,0.312,0.563
	l7.228,5.126c0.125,0.089,0.274,0.138,0.429,0.138h29.647c0.409,0,0.741-0.333,0.741-0.742V20.107
	C62.354,19.696,62.021,19.366,61.612,19.366z"/>
</svg>
