<?xml version="1.0" encoding="utf-8"?>
<!-- Generator: Adobe Illustrator 16.0.0, SVG Export Plug-In . SVG Version: 6.00 Build 0)  -->
<!DOCTYPE svg PUBLIC "-//W3C//DTD SVG 1.1//EN" "http://www.w3.org/Graphics/SVG/1.1/DTD/svg11.dtd">
<svg version="1.1" id="Layer_3" xmlns="http://www.w3.org/2000/svg" xmlns:xlink="http://www.w3.org/1999/xlink" x="0px" y="0px"
	 width="100px" height="100px" viewBox="0 0 100 100" enable-background="new 0 0 100 100" xml:space="preserve">
<path d="M56.155,16.787v68.925c0,0.819-0.664,1.482-1.483,1.482h-8.4c-0.819,0-1.483-0.663-1.483-1.482V16.787
	c0-0.818,0.664-1.481,1.483-1.481h8.4C55.491,15.306,56.155,15.969,56.155,16.787z M96.551,39.646l-7.227-6.486
	c-0.137-0.121-0.313-0.189-0.496-0.189H59.181c-0.409,0-0.742,0.331-0.742,0.742v11.612c0,0.409,0.333,0.741,0.742,0.741h29.647
	c0.154,0,0.304-0.048,0.429-0.136l7.227-5.127c0.184-0.131,0.298-0.338,0.312-0.562C96.808,40.016,96.718,39.798,96.551,39.646z
	 M4.148,44.235c0.013,0.225,0.128,0.431,0.312,0.562l7.227,5.127c0.125,0.088,0.275,0.137,0.429,0.137h29.648
	c0.409,0,0.741-0.332,0.741-0.741V37.706c0-0.41-0.332-0.742-0.741-0.742H12.115c-0.183,0-0.359,0.068-0.495,0.19l-7.227,6.487
	C4.226,43.792,4.136,44.01,4.148,44.235z M41.763,20.616H12.115c-0.183,0-0.359,0.066-0.495,0.189l-7.227,6.487
	c-0.168,0.149-0.258,0.368-0.245,0.593c0.013,0.226,0.128,0.433,0.312,0.563l7.227,5.126c0.125,0.089,0.275,0.138,0.429,0.138
	h29.648c0.409,0,0.741-0.333,0.741-0.742V21.357C42.504,20.946,42.172,20.616,41.763,20.616z"/>
</svg>
