<?xml version="1.0" encoding="utf-8"?>
<!-- Generator: Adobe Illustrator 16.0.0, SVG Export Plug-In . SVG Version: 6.00 Build 0)  -->
<!DOCTYPE svg PUBLIC "-//W3C//DTD SVG 1.1//EN" "http://www.w3.org/Graphics/SVG/1.1/DTD/svg11.dtd">
<svg version="1.1" id="Layer_3" xmlns="http://www.w3.org/2000/svg" xmlns:xlink="http://www.w3.org/1999/xlink" x="0px" y="0px"
	 width="100px" height="100px" viewBox="0 0 100 100" enable-background="new 0 0 100 100" xml:space="preserve">
<path d="M56.33,16.787v68.925c0,0.819-0.664,1.482-1.482,1.482h-8.4c-0.819,0-1.483-0.663-1.483-1.482V16.787
	c0-0.818,0.664-1.481,1.483-1.481h8.4C55.667,15.306,56.33,15.969,56.33,16.787z M96.726,39.646L89.5,33.159
	c-0.136-0.121-0.313-0.189-0.495-0.189H59.356c-0.409,0-0.741,0.331-0.741,0.742v11.612c0,0.409,0.332,0.741,0.741,0.741h29.648
	c0.154,0,0.303-0.048,0.429-0.136l7.227-5.127c0.184-0.131,0.298-0.338,0.312-0.562C96.984,40.016,96.894,39.798,96.726,39.646z
	 M41.938,20.616H12.291c-0.183,0-0.359,0.066-0.496,0.189l-7.227,6.487c-0.167,0.149-0.257,0.368-0.245,0.593
	c0.013,0.226,0.128,0.433,0.312,0.563l7.227,5.126c0.125,0.089,0.274,0.138,0.429,0.138h29.647c0.409,0,0.742-0.333,0.742-0.742
	V21.357C42.68,20.946,42.348,20.616,41.938,20.616z"/>
</svg>
