<?xml version="1.0" encoding="utf-8"?>
<!-- Generator: Adobe Illustrator 16.0.0, SVG Export Plug-In . SVG Version: 6.00 Build 0)  -->
<!DOCTYPE svg PUBLIC "-//W3C//DTD SVG 1.1//EN" "http://www.w3.org/Graphics/SVG/1.1/DTD/svg11.dtd">
<svg version="1.1" id="Layer_3" xmlns="http://www.w3.org/2000/svg" xmlns:xlink="http://www.w3.org/1999/xlink" x="0px" y="0px"
	 width="100px" height="100px" viewBox="0 0 100 100" enable-background="new 0 0 100 100" xml:space="preserve">
<path d="M88.002,40.063c-0.135-0.806-0.592-1.521-1.266-1.982c-11.363-7.767-6.688-17.549-6.125-18.623
	c0.5-0.93,0.477-2.055-0.064-2.962c-0.543-0.906-1.521-1.462-2.576-1.462c-15.424,0-26.164-7.225-26.266-7.294
	c-1.027-0.709-2.383-0.709-3.41,0c-0.105,0.073-10.742,7.294-26.264,7.294c-1.057,0-2.035,0.556-2.576,1.462
	c-0.541,0.907-0.566,2.032-0.064,2.962c0.232,0.431,5.553,10.641-6.127,18.623c-0.674,0.461-1.131,1.177-1.266,1.982
	c-0.664,3.98-0.664,9.747-0.664,13.563c0,24.249,19.83,32.596,30.484,37.08c2.006,0.844,4.457,1.875,5.322,2.496
	c0.385,1.213,1.52,2.091,2.859,2.091s2.475-0.878,2.859-2.091c0.867-0.621,3.316-1.652,5.322-2.496
	c10.654-4.484,30.486-12.831,30.486-37.08C88.668,49.81,88.668,44.043,88.002,40.063z M55.854,85.175
	c-2.352,0.99-4.352,1.832-5.854,2.755c-1.5-0.923-3.5-1.765-5.854-2.755c-10.029-4.221-26.813-11.285-26.813-31.55
	c0-3.226,0-7.922,0.412-11.376c0.736-0.552,1.4-1.119,2.031-1.692h60.445c0.631,0.573,1.295,1.141,2.031,1.692
	c0.414,3.454,0.414,8.15,0.414,11.376C82.668,73.89,65.883,80.954,55.854,85.175z"/>
</svg>
