<?xml version="1.0" encoding="utf-8"?>
<!-- Generator: Adobe Illustrator 16.0.0, SVG Export Plug-In . SVG Version: 6.00 Build 0)  -->
<!DOCTYPE svg PUBLIC "-//W3C//DTD SVG 1.1//EN" "http://www.w3.org/Graphics/SVG/1.1/DTD/svg11.dtd">
<svg version="1.1" id="Layer_1" xmlns="http://www.w3.org/2000/svg" xmlns:xlink="http://www.w3.org/1999/xlink" x="0px" y="0px"
	 width="100px" height="100px" viewBox="0 0 100 100" enable-background="new 0 0 100 100" xml:space="preserve">
<path fill="#020202" d="M67.25,27.749H12.917c-1.104,0-2,0.896-2,2v54.334c0,1.104,0.896,2,2,2H67.25c1.104,0,2-0.896,2-2V29.749
	C69.25,28.645,68.355,27.749,67.25,27.749z M22.083,30.75h36v16.833h-36V30.75z M59.834,81.833h-39.5V56.916h39.5V81.833z
	 M47.917,33.25h5.001v12.001h-5.001V33.25z M56.208,63.083h-32.25v-2h32.25V63.083z M56.208,70.083h-32.25v-2h32.25V70.083z
	 M56.208,76.833h-32.25v-2h32.25V76.833z M89.083,15.917v54.334c0,1.104-0.896,2-2,2H74.458v-4.25h5.209V43.084h-5.209v-9.333h3.458
	V16.918h-36v7.164H30.75v-8.165c0-1.104,0.896-2,2-2h54.334C88.188,13.917,89.083,14.813,89.083,15.917z M67.75,19.418h5.001v5.175
	c-0.526-0.317-1.135-0.511-1.793-0.511H67.75V19.418z M76.042,49.251h-1.583v-2h1.583V49.251z M74.458,54.251h1.583v2h-1.583V54.251
	z M74.458,61.001h1.583v2h-1.583V61.001z"/>
</svg>
