<?xml version="1.0" encoding="utf-8"?>
<!-- Generator: Adobe Illustrator 16.0.0, SVG Export Plug-In . SVG Version: 6.00 Build 0)  -->
<!DOCTYPE svg PUBLIC "-//W3C//DTD SVG 1.1//EN" "http://www.w3.org/Graphics/SVG/1.1/DTD/svg11.dtd">
<svg version="1.1" id="Layer_1" xmlns="http://www.w3.org/2000/svg" xmlns:xlink="http://www.w3.org/1999/xlink" x="0px" y="0px"
	 width="100px" height="100px" viewBox="0 0 100 100" enable-background="new 0 0 100 100" xml:space="preserve">
<path fill="#020202" d="M71.128,79.167l8.04-8.041v6.041c0,1.104-0.896,2-2,2H71.128z M30.252,74.917h19.757l-1.354,4.25h-25.82
	c-1.105,0-2-0.896-2-2V22.833c0-1.104,0.895-2,2-2h54.334c1.104,0,2,0.896,2,2v18.023l-0.374,0.374l-0.001-0.001l-9.041,9.042V50
	h-39.5V74.917z M32,40.667h36V23.834H32V40.667z M57.834,38.335h5.002V26.334h-5.002V38.335z M65.856,54.167H33.875v2h29.981
	L65.856,54.167z M58.857,61.167H33.875v2h22.982L58.857,61.167z M33.875,69.917h17.727l0.225-0.703
	c0.031-0.092,0.062-0.176,0.091-0.255c0.118-0.362,0.283-0.708,0.478-1.042h-18.52V69.917z M92.687,47.791l-6.182-6.183
	c-0.91-0.908-2.521-0.776-3.594,0.297l-3.402,3.402l9.479,9.479l3.402-3.402C93.464,50.312,93.595,48.7,92.687,47.791z
	 M77.929,46.887l9.479,9.479L64.804,78.971c-0.104,0.104-0.391,0.392-0.795,0.494c-0.047,0.022-0.094,0.041-0.142,0.057
	L52.069,83.28c-0.33,0.105-0.662,0.038-0.877-0.178s-0.283-0.548-0.179-0.878l3.76-11.796c0.017-0.049,0.034-0.096,0.057-0.141
	c0.103-0.405,0.39-0.692,0.495-0.797L77.929,46.887z M61.888,78.243l-5.836-5.836l-1.564,4.914l2.486,2.487L61.888,78.243z
	 M77.564,50.655c-0.337-0.336-0.88-0.336-1.215,0L58.728,68.276c-0.336,0.336-0.336,0.88,0,1.215c0.336,0.336,0.879,0.336,1.215,0
	L77.564,51.87C77.9,51.534,77.9,50.99,77.564,50.655z"/>
</svg>
