<?xml version="1.0" encoding="utf-8"?>
<!-- Generator: Adobe Illustrator 16.0.0, SVG Export Plug-In . SVG Version: 6.00 Build 0)  -->
<!DOCTYPE svg PUBLIC "-//W3C//DTD SVG 1.1//EN" "http://www.w3.org/Graphics/SVG/1.1/DTD/svg11.dtd">
<svg version="1.1" id="Layer_1" xmlns="http://www.w3.org/2000/svg" xmlns:xlink="http://www.w3.org/1999/xlink" x="0px" y="0px"
	 width="100px" height="100px" viewBox="0 0 100 100" enable-background="new 0 0 100 100" xml:space="preserve">
<path fill="#020202" d="M77.167,20.833H22.833c-1.104,0-2,0.896-2,2v54.334c0,1.104,0.896,2,2,2h54.334c1.104,0,2-0.896,2-2V22.833
	C79.167,21.729,78.271,20.833,77.167,20.833z M32,23.834h36v16.833H32V23.834z M69.751,74.917h-39.5V50h39.5V74.917z M57.834,26.334
	h5.001v12.001h-5.001V26.334z M66.125,56.167h-32.25v-2h32.25V56.167z M66.125,63.167h-32.25v-2h32.25V63.167z M66.125,69.917
	h-32.25v-2h32.25V69.917z"/>
</svg>
