<?xml version="1.0" encoding="utf-8"?>
<!-- Generator: Adobe Illustrator 16.0.0, SVG Export Plug-In . SVG Version: 6.00 Build 0)  -->
<!DOCTYPE svg PUBLIC "-//W3C//DTD SVG 1.1//EN" "http://www.w3.org/Graphics/SVG/1.1/DTD/svg11.dtd">
<svg version="1.1" id="Layer_1" xmlns="http://www.w3.org/2000/svg" xmlns:xlink="http://www.w3.org/1999/xlink" x="0px" y="0px"
	 width="100px" height="100px" viewBox="0 0 100 100" enable-background="new 0 0 100 100" xml:space="preserve">
<path fill="#020202" d="M63.981,29.676H36.019v13.075h27.963V29.676z M59.969,40.939h-3.884v-9.322h3.884V40.939z M34.66,69.354
	h30.681V50H34.66V69.354z M37.475,53.236h25.05v1.554h-25.05V53.236z M37.475,58.674h25.05v1.554h-25.05V58.674z M37.475,63.917
	h25.05v1.554h-25.05V63.917z M79.955,9.351h-59.91c-0.857,0-1.553,0.695-1.553,1.554v78.192c0,0.858,0.696,1.554,1.553,1.554h59.91
	c0.858,0,1.554-0.695,1.554-1.554V10.904C81.508,10.046,80.813,9.351,79.955,9.351z M24.703,12.069c2.002,0,3.625,1.623,3.625,3.625
	s-1.623,3.625-3.625,3.625s-3.625-1.623-3.625-3.625S22.701,12.069,24.703,12.069z M24.703,87.673c-2.002,0-3.625-1.623-3.625-3.625
	s1.623-3.625,3.625-3.625s3.625,1.623,3.625,3.625S26.705,87.673,24.703,87.673z M71.102,72.655H28.898
	c-0.858,0-1.553-0.695-1.553-1.554V28.898c0-0.858,0.695-1.554,1.553-1.554h42.204c0.858,0,1.554,0.695,1.554,1.554v42.203
	C72.655,71.96,71.959,72.655,71.102,72.655z M75.968,87.673c-2.002,0-3.625-1.623-3.625-3.625s1.623-3.625,3.625-3.625
	s3.625,1.623,3.625,3.625S77.97,87.673,75.968,87.673z M75.968,19.319c-2.002,0-3.625-1.623-3.625-3.625s1.623-3.625,3.625-3.625
	s3.625,1.623,3.625,3.625S77.97,19.319,75.968,19.319z"/>
</svg>
