<?xml version="1.0" encoding="utf-8"?>
<!-- Generator: Adobe Illustrator 16.0.0, SVG Export Plug-In . SVG Version: 6.00 Build 0)  -->
<!DOCTYPE svg PUBLIC "-//W3C//DTD SVG 1.1//EN" "http://www.w3.org/Graphics/SVG/1.1/DTD/svg11.dtd">
<svg version="1.1" id="Layer_1" xmlns="http://www.w3.org/2000/svg" xmlns:xlink="http://www.w3.org/1999/xlink" x="0px" y="0px"
	 width="100px" height="100px" viewBox="0 0 100 100" enable-background="new 0 0 100 100" xml:space="preserve">
<path fill="#020202" d="M41.164,46.661c0-3.235,2.633-5.868,5.868-5.868h24.444V21.625c0-1.104-0.896-2-2-2H15.143
	c-1.104,0-2,0.896-2,2v54.334c0,1.104,0.896,2,2,2H41.21c-0.027-0.23-0.046-0.464-0.046-0.701v-3.549H22.561V48.792h18.604V46.661z
	 M24.31,22.626h36v16.833h-36V22.626z M50.144,25.126h5.001v12.001h-5.001V25.126z M41.164,54.959H26.185v-2h14.979V54.959z
	 M41.164,61.959H26.185v-2h14.979V61.959z M26.185,66.709h14.979v2H26.185V66.709z M83.988,44.043H47.928
	c-1.581,0-2.868,1.287-2.868,2.868v30.597c0,1.581,1.287,2.868,2.868,2.868h36.061c1.581,0,2.868-1.287,2.868-2.868V46.911
	C86.856,45.33,85.569,44.043,83.988,44.043z M80.641,46.45c0.82,0,1.485,0.665,1.485,1.486c0,0.82-0.665,1.484-1.485,1.484
	c-0.819,0-1.485-0.664-1.485-1.484C79.155,47.115,79.821,46.45,80.641,46.45z M74.681,46.369c0.82,0,1.485,0.665,1.485,1.485
	s-0.665,1.484-1.485,1.484c-0.819,0-1.485-0.664-1.485-1.484S73.861,46.369,74.681,46.369z M84.397,77.508
	c0,0.227-0.184,0.41-0.409,0.41H47.928c-0.226,0-0.409-0.184-0.409-0.41V51.214h36.879V77.508z"/>
</svg>
