<?xml version="1.0" encoding="utf-8"?>
<!-- Generator: Adobe Illustrator 16.0.0, SVG Export Plug-In . SVG Version: 6.00 Build 0)  -->
<!DOCTYPE svg PUBLIC "-//W3C//DTD SVG 1.1//EN" "http://www.w3.org/Graphics/SVG/1.1/DTD/svg11.dtd">
<svg version="1.1" id="Layer_2" xmlns="http://www.w3.org/2000/svg" xmlns:xlink="http://www.w3.org/1999/xlink" x="0px" y="0px"
	 width="100px" height="100px" viewBox="0 0 100 100" enable-background="new 0 0 100 100" xml:space="preserve">
<path d="M87.021,77.145L52.857,17.974c-0.625-1.083-1.781-1.75-3.031-1.75s-2.406,0.667-3.031,1.75L12.462,77.439
	c-0.625,1.083-0.625,2.417,0,3.5s1.781,1.75,3.031,1.75h68.666c0.007,0,0.015,0.001,0.02,0c1.934,0,3.5-1.567,3.5-3.5
	C87.679,78.426,87.435,77.72,87.021,77.145z M21.556,75.689l28.271-48.966l28.271,48.966H21.556z M47.501,58.306l-11.597-5.116
	c0,0,1.357-5.732,8.285-8.509l5.425,11.456C47.667,56.348,47.501,58.306,47.501,58.306z M50.685,61.016l0.071,12.677
	c0,0-5.786,1.103-11.153-4.086l8.241-9.632C48.832,61.666,50.685,61.016,50.685,61.016z M51.521,56.824l11.349-5.647
	c0,0,3.542,4.711,1.248,11.811L51.84,59.836C52.924,58.201,51.521,56.824,51.521,56.824z"/>
</svg>
