<?xml version="1.0" encoding="iso-8859-1"?>
<!-- Generator: Adobe Illustrator 18.0.0, SVG Export Plug-In . SVG Version: 6.00 Build 0)  -->
<!DOCTYPE svg PUBLIC "-//W3C//DTD SVG 1.1//EN" "http://www.w3.org/Graphics/SVG/1.1/DTD/svg11.dtd">
<svg version="1.1" id="Capa_1" xmlns="http://www.w3.org/2000/svg" xmlns:xlink="http://www.w3.org/1999/xlink" x="0px" y="0px"
	 viewBox="0 0 24 22" style="enable-background:new 0 0 24 22;" xml:space="preserve">
<g>
	<path style="fill-rule:evenodd;clip-rule:evenodd;" d="M5.519,16.005H3.202C5.024,19.564,8.727,22,13,22c6.075,0,11-4.925,11-11
		c0-6.075-4.925-11-11-11C7.608,0,3.122,3.88,2.181,9H0l3,4l3-4H4.223C5.133,4.992,8.717,2,13,2c4.971,0,9,4.029,9,9s-4.029,9-9,9
		C9.882,20,7.134,18.414,5.519,16.005z"/>
	<polygon style="fill-rule:evenodd;clip-rule:evenodd;" points="12.5,4.032 12.5,11.35 17.711,14.421 18.219,13.56 13.5,10.754 
		13.5,4.032 	"/>
</g>
<g>
</g>
<g>
</g>
<g>
</g>
<g>
</g>
<g>
</g>
<g>
</g>
<g>
</g>
<g>
</g>
<g>
</g>
<g>
</g>
<g>
</g>
<g>
</g>
<g>
</g>
<g>
</g>
<g>
</g>
</svg>
