<?xml version="1.0" encoding="utf-8"?>
<!-- Generator: Adobe Illustrator 16.0.0, SVG Export Plug-In . SVG Version: 6.00 Build 0)  -->
<!DOCTYPE svg PUBLIC "-//W3C//DTD SVG 1.1//EN" "http://www.w3.org/Graphics/SVG/1.1/DTD/svg11.dtd">
<svg version="1.1" id="Layer_1" xmlns="http://www.w3.org/2000/svg" xmlns:xlink="http://www.w3.org/1999/xlink" x="0px" y="0px"
	 width="100px" height="100px" viewBox="0 0 100 100" enable-background="new 0 0 100 100" xml:space="preserve">
<path fill="#020202" d="M81.166,76.667h3v7.5h-7.5v-3h4.5V76.667z M34,84.167h10.666v-3H34V84.167z M55.333,84.167H66v-3H55.333
	V84.167z M18.833,76.667h-3v7.5h7.5v-3h-4.5V76.667z M18.833,55.333h-3V66h3V55.333z M18.833,34h-3v10.667h3V34z M15.833,23.333h3
	v-4.5h4.5v-3h-7.5V23.333z M44.666,15.833H34v3h10.666V15.833z M66,15.833H55.332v3H66V15.833z M76.666,15.833v3h4.5v4.5h3v-7.5
	H76.666z M81.166,66h3V55.333h-3V66z M81.166,44.667h3V34h-3V44.667z M73.994,51.987c0.665,1.471,1.046,3.097,1.046,4.815
	c0,6.458-5.237,11.694-11.697,11.694c-6.461,0-11.696-5.236-11.696-11.694c0-4.235,2.258-7.934,5.634-9.989
	c-5.306-0.988-10.232-0.784-14.548,0.008c3.365,2.054,5.621,5.749,5.621,9.981c0,6.458-5.237,11.694-11.696,11.694
	c-6.462,0-11.697-5.236-11.697-11.694c0-1.286,0.218-2.521,0.601-3.68V51.27c0-6.599,5.685-11.945,12.694-11.945h1.387h20.945h0.666
	c7.007,0,12.69,5.346,12.69,11.945L73.994,51.987z M36.657,49.061c-4.268,0-7.743,3.471-7.743,7.741c0,4.27,3.476,7.741,7.743,7.741
	s7.743-3.471,7.743-7.741C44.4,52.532,40.925,49.061,36.657,49.061z M71.086,56.802c0-4.27-3.475-7.741-7.743-7.741
	c-4.268,0-7.743,3.471-7.743,7.741c0,4.27,3.476,7.741,7.743,7.741C67.611,64.542,71.086,61.071,71.086,56.802z M61.33,38.1
	c6.209-0.069,9.379,3.892,9.379,3.892C65.979,33.725,61.33,38.1,61.33,38.1z M37.274,37.957c0,0-4.649-4.375-9.379,3.892
	C27.896,41.849,31.065,37.887,37.274,37.957z M36.572,53.212c-0.13,0-0.258,0.007-0.383,0.02c0.12,0.624-0.382,1.57-1.296,2.324
	c-0.748,0.616-1.568,0.933-2.167,0.901c-0.037,0.215-0.06,0.435-0.06,0.66c0,2.157,1.748,3.905,3.905,3.905s3.904-1.748,3.904-3.905
	C40.477,54.961,38.729,53.212,36.572,53.212z M65.331,55.115c-0.916-0.754-1.417-1.701-1.296-2.324
	c-0.125-0.013-0.253-0.02-0.382-0.02c-2.157,0-3.905,1.748-3.905,3.905s1.748,3.905,3.905,3.905c2.155,0,3.903-1.748,3.903-3.905
	c0-0.226-0.022-0.445-0.06-0.66C66.898,56.049,66.079,55.732,65.331,55.115z"/>
</svg>
