<?xml version="1.0" encoding="utf-8"?>
<!-- Generator: Adobe Illustrator 16.0.0, SVG Export Plug-In . SVG Version: 6.00 Build 0)  -->
<!DOCTYPE svg PUBLIC "-//W3C//DTD SVG 1.1//EN" "http://www.w3.org/Graphics/SVG/1.1/DTD/svg11.dtd">
<svg version="1.1" id="Layer_1" xmlns="http://www.w3.org/2000/svg" xmlns:xlink="http://www.w3.org/1999/xlink" x="0px" y="0px"
	 width="100px" height="100px" viewBox="0 0 100 100" enable-background="new 0 0 100 100" xml:space="preserve">
<path fill="#020202" d="M81.167,76.667h3v7.5h-7.5v-3h4.5V76.667z M34,84.167h10.667v-3H34V84.167z M55.333,84.167H66v-3H55.333
	V84.167z M18.833,76.667h-3v7.5h7.5v-3h-4.5V76.667z M18.833,55.333h-3V66h3V55.333z M18.833,34h-3v10.667h3V34z M15.833,23.333h3
	v-4.5h4.5v-3h-7.5V23.333z M44.667,15.833H34v3h10.667V15.833z M55.333,18.833H66v-3H55.333V18.833z M76.667,15.833v3h4.5v4.5h3
	v-7.5H76.667z M81.167,66h3V55.333h-3V66z M81.167,44.667h3V34h-3V44.667z"/>
</svg>
