<?xml version="1.0" encoding="iso-8859-1"?>
<!-- Generator: Adobe Illustrator 18.0.0, SVG Export Plug-In . SVG Version: 6.00 Build 0)  -->
<!DOCTYPE svg PUBLIC "-//W3C//DTD SVG 1.1//EN" "http://www.w3.org/Graphics/SVG/1.1/DTD/svg11.dtd">
<svg version="1.1" id="Capa_1" xmlns="http://www.w3.org/2000/svg" xmlns:xlink="http://www.w3.org/1999/xlink" x="0px" y="0px"
	 viewBox="0 0 22 22" style="enable-background:new 0 0 22 22;" xml:space="preserve">
<g>
	<path style="fill-rule:evenodd;clip-rule:evenodd;" d="M11,10c0.127,0,0.248,0.024,0.36,0.067l3.622-2.091
		C14.068,6.775,12.625,6,11,6C9.318,6,7.83,6.831,6.923,8.104l3.547,2.048C10.624,10.056,10.805,10,11,10z"/>
	<path style="fill-rule:evenodd;clip-rule:evenodd;" d="M12,11c0,0.37-0.201,0.693-0.5,0.866v4.109C14.027,15.724,16,13.593,16,11
		c0-0.778-0.178-1.515-0.495-2.172l-3.515,2.029C11.997,10.904,12,10.952,12,11z"/>
	<path style="fill-rule:evenodd;clip-rule:evenodd;" d="M22,11c0-6.075-4.925-11-11-11C4.925,0,0,4.925,0,11c0,6.075,4.925,11,11,11
		C17.075,22,22,17.075,22,11z M9.537,16.82l-1.534,1.6l0.008-2.217c-0.219-0.126-0.429-0.266-0.63-0.417l-2.038,0.874l0.873-2.038
		c-0.131-0.173-0.253-0.353-0.365-0.54l-2.216,0.046l1.572-1.561c-0.065-0.242-0.116-0.489-0.15-0.742l-2.058-0.823l2.057-0.823
		c0.03-0.218,0.071-0.432,0.124-0.642L3.581,8.004l2.215,0.008c0.127-0.22,0.266-0.431,0.419-0.632L5.342,5.344l2.036,0.872
		C7.552,6.085,7.732,5.962,7.92,5.85L7.874,3.636l1.56,1.571c0.242-0.065,0.491-0.116,0.744-0.151L11,3l0.822,2.056
		c0.218,0.03,0.433,0.072,0.643,0.124l1.532-1.598L13.99,5.797c0.22,0.127,0.431,0.267,0.632,0.419l2.036-0.872L15.785,7.38
		c0.131,0.173,0.254,0.354,0.366,0.542l2.214-0.046l-1.571,1.56c0.065,0.242,0.116,0.49,0.15,0.743l2.057,0.823l-2.058,0.823
		c-0.03,0.218-0.071,0.431-0.124,0.641l1.599,1.533l-2.216-0.008c-0.126,0.219-0.266,0.429-0.418,0.63l0.874,2.038l-2.039-0.874
		c-0.173,0.131-0.353,0.253-0.539,0.364l0.046,2.217l-1.562-1.573c-0.241,0.065-0.489,0.115-0.741,0.15L11,19.003l-0.824-2.059
		C9.959,16.914,9.746,16.873,9.537,16.82z"/>
	<path style="fill-rule:evenodd;clip-rule:evenodd;" d="M10.001,11.035L6.428,8.973C6.153,9.592,6,10.278,6,11
		c0,2.593,1.973,4.724,4.5,4.975v-4.109C10.211,11.699,10.013,11.391,10.001,11.035z"/>
</g>
<g>
</g>
<g>
</g>
<g>
</g>
<g>
</g>
<g>
</g>
<g>
</g>
<g>
</g>
<g>
</g>
<g>
</g>
<g>
</g>
<g>
</g>
<g>
</g>
<g>
</g>
<g>
</g>
<g>
</g>
</svg>
