<?xml version="1.0" encoding="utf-8"?>
<!-- Generator: Adobe Illustrator 16.0.0, SVG Export Plug-In . SVG Version: 6.00 Build 0)  -->
<!DOCTYPE svg PUBLIC "-//W3C//DTD SVG 1.1//EN" "http://www.w3.org/Graphics/SVG/1.1/DTD/svg11.dtd">
<svg version="1.1" id="Layer_1" xmlns="http://www.w3.org/2000/svg" xmlns:xlink="http://www.w3.org/1999/xlink" x="0px" y="0px"
	 width="100px" height="100px" viewBox="0 0 100 100" enable-background="new 0 0 100 100" xml:space="preserve">
<path fill="#020202" d="M65.165,11.126H26.034c-2.627,0-4.767,2.141-4.767,4.768v68.213c0,2.63,2.14,4.768,4.767,4.768h47.932
	c2.63,0,4.768-2.138,4.768-4.768V25.869L65.165,11.126z M66.29,18.261l5.948,6.463H66.29V18.261z M74.73,84.106
	c0,0.421-0.344,0.765-0.765,0.765H26.034c-0.421,0-0.763-0.344-0.763-0.765V15.894c0-0.421,0.342-0.762,0.763-0.762h24.413v1.717
	h-5.18v2.892h5.18v5.676h-5.18v2.891h5.18v5.442h-5.18v2.891h5.18v0.217v0.166v4.281h-5.18v2.892h5.18v5.676h-5.18v2.891h5.18v5.442
	h-5.18v2.891h2.77c-1.059,0.052-1.902,0.919-1.902,1.99v1.141h0.016v8.649c0,2.246,1.828,4.074,4.074,4.074s4.074-1.828,4.074-4.074
	v-8.649H54.3v-1.141c0-1.104-0.896-2-2-2h-0.057v-4.438H57v-2.891h-4.757v-5.441H57v-2.892h-4.757v-5.677H57v-2.891h-4.757v-4.664
	H57v-2.891h-4.757V23.86H57v-2.892h-4.757v-5.677H57v-0.16h5.285v11.595c0,1.104,0.899,1.999,2.003,1.999H74.73V84.106z
	 M52.825,67.776v4.833c0,1.45-1.176,2.625-2.625,2.625s-2.625-1.175-2.625-2.625v-4.833H52.825z"/>
</svg>
