<?xml version="1.0" encoding="iso-8859-1"?>
<!-- Generator: Adobe Illustrator 18.0.0, SVG Export Plug-In . SVG Version: 6.00 Build 0)  -->
<!DOCTYPE svg PUBLIC "-//W3C//DTD SVG 1.1//EN" "http://www.w3.org/Graphics/SVG/1.1/DTD/svg11.dtd">
<svg version="1.1" id="Capa_1" xmlns="http://www.w3.org/2000/svg" xmlns:xlink="http://www.w3.org/1999/xlink" x="0px" y="0px"
	 viewBox="0 0 22.011 22.012" style="enable-background:new 0 0 22.011 22.012;" xml:space="preserve">
<path style="fill-rule:evenodd;clip-rule:evenodd;" d="M0.999,8.506C0.447,8.506,0,8.95,0,9.506v3c0,0.552,0.443,1,0.999,1h2.93
	c0.089,0.252,0.191,0.497,0.306,0.736l-2.073,2.072c-0.39,0.39-0.393,1.02,0.001,1.413l2.122,2.122
	c0.39,0.391,1.02,0.393,1.413,0.001l2.077-2.077c0.237,0.113,0.481,0.214,0.731,0.302v2.937c0,0.552,0.444,0.999,1,0.999h3
	c0.552,0,1-0.443,1-0.999v-2.941c0.249-0.088,0.492-0.189,0.728-0.302l2.08,2.08c0.39,0.39,1.02,0.393,1.413-0.001l2.122-2.122
	c0.391-0.39,0.393-1.021,0.001-1.413l-2.08-2.08c0.113-0.236,0.214-0.479,0.302-0.728h2.941c0.552,0,0.999-0.444,0.999-1v-3
	c0-0.552-0.443-1-0.999-1h-2.937c-0.088-0.25-0.189-0.494-0.302-0.731l2.076-2.077c0.39-0.39,0.393-1.02-0.001-1.413l-2.122-2.122
	c-0.391-0.391-1.021-0.393-1.413-0.001l-2.072,2.073c-0.238-0.114-0.484-0.217-0.736-0.306v-2.93c0-0.552-0.444-0.999-1-0.999h-3
	c-0.552,0-1,0.443-1,0.999v2.926c-0.253,0.089-0.5,0.191-0.739,0.306L5.698,2.162c-0.39-0.39-1.02-0.393-1.413,0.001L2.163,4.284
	c-0.39,0.39-0.393,1.02-0.001,1.413l2.069,2.069c-0.115,0.24-0.217,0.486-0.306,0.739H0.999z M11,6c2.761,0,5,2.239,5,5
	s-2.239,5-5,5c-2.761,0-5-2.239-5-5S8.239,6,11,6z"/>
<g>
</g>
<g>
</g>
<g>
</g>
<g>
</g>
<g>
</g>
<g>
</g>
<g>
</g>
<g>
</g>
<g>
</g>
<g>
</g>
<g>
</g>
<g>
</g>
<g>
</g>
<g>
</g>
<g>
</g>
</svg>
