<?xml version="1.0" encoding="iso-8859-1"?>
<!-- Generator: Adobe Illustrator 18.0.0, SVG Export Plug-In . SVG Version: 6.00 Build 0)  -->
<!DOCTYPE svg PUBLIC "-//W3C//DTD SVG 1.1//EN" "http://www.w3.org/Graphics/SVG/1.1/DTD/svg11.dtd">
<svg version="1.1" id="Capa_1" xmlns="http://www.w3.org/2000/svg" xmlns:xlink="http://www.w3.org/1999/xlink" x="0px" y="0px"
	 viewBox="0 0 14.796 24" style="enable-background:new 0 0 14.796 24;" xml:space="preserve">
<g>
	<path style="fill-rule:evenodd;clip-rule:evenodd;" d="M0.142,8.5c0.5,3.991,3.557,4.488,3.775,7.385V22c0,0,0,0.476-0.411,0.654
		c-0.411,0.178-2.824,0.371-2.824,0.861S2.723,24,4.632,24c1.909,0,3.95,0.005,3.95-0.485s-2.413-0.683-2.824-0.861
		C5.348,22.476,5.348,22,5.348,22l0.024-6c0.145-3,3.276-3.457,3.782-7.5C9.661,4.457,8.648,2,8.648,2h-8
		C0.648,2-0.365,4.457,0.142,8.5z"/>
	<path style="fill-rule:evenodd;clip-rule:evenodd;" d="M14.654,6.5C15.161,2.457,14.148,0,14.148,0h-8c0,0-0.218,0.529-0.401,1.5
		h3.328c0,0,1.121,2.72,0.56,7.196c-0.161,1.288-0.563,2.247-1.058,3.039c0.442,0.605,0.773,1.265,0.839,2.149V20
		c0,0,0,0.476-0.411,0.654c-0.411,0.178-2.824,0.371-2.824,0.861S8.223,22,10.132,22s3.95,0.005,3.95-0.485
		s-2.413-0.683-2.824-0.861C10.848,20.476,10.848,20,10.848,20l0.024-6C11.017,11,14.148,10.543,14.654,6.5z"/>
</g>
<g>
</g>
<g>
</g>
<g>
</g>
<g>
</g>
<g>
</g>
<g>
</g>
<g>
</g>
<g>
</g>
<g>
</g>
<g>
</g>
<g>
</g>
<g>
</g>
<g>
</g>
<g>
</g>
<g>
</g>
</svg>
