<?xml version="1.0" encoding="utf-8"?>
<!-- Generator: Adobe Illustrator 16.0.0, SVG Export Plug-In . SVG Version: 6.00 Build 0)  -->
<!DOCTYPE svg PUBLIC "-//W3C//DTD SVG 1.1//EN" "http://www.w3.org/Graphics/SVG/1.1/DTD/svg11.dtd">
<svg version="1.1" id="Layer_3" xmlns="http://www.w3.org/2000/svg" xmlns:xlink="http://www.w3.org/1999/xlink" x="0px" y="0px"
	 width="100px" height="100px" viewBox="0 0 100 100" enable-background="new 0 0 100 100" xml:space="preserve">
<path d="M22.438,77.562c15.197,15.197,39.926,15.197,55.123,0s15.197-39.926,0-55.123s-39.926-15.197-55.123,0
	S7.241,62.364,22.438,77.562z M25.462,25.461c13.531-13.531,35.547-13.531,49.078,0c13.529,13.53,13.529,35.547,0,49.078
	c-13.531,13.53-35.549,13.53-49.078,0C11.931,61.008,11.931,38.991,25.462,25.461z M23.519,36.979
	c2.113-0.474,4.566-0.725,7.094-0.725c5.523,0,18.262,1.322,27.057,12.404l0.029-0.029l5.703-13.154
	c0.193-0.439,0.654-0.7,1.129-0.633c0.238,0.034,0.449,0.144,0.609,0.304c0.162,0.162,0.271,0.377,0.303,0.617l4.283,32.762
	c0.041,0.329-0.068,0.66-0.305,0.896c-0.234,0.233-0.566,0.347-0.895,0.304l-32.762-4.283c-0.479-0.061-0.854-0.435-0.92-0.91
	c-0.068-0.477,0.191-0.938,0.633-1.131l13.154-5.703l1.174-1.174c-5.635-7.967-14.168-9.245-18.998-9.245
	c-2.863,0-4.824,0.423-4.906,0.44c-0.268,0.058-0.535-0.11-0.594-0.38l-2.168-9.763C23.079,37.307,23.249,37.04,23.519,36.979z"/>
</svg>
