<?xml version="1.0" encoding="iso-8859-1"?>
<!-- Generator: Adobe Illustrator 18.0.0, SVG Export Plug-In . SVG Version: 6.00 Build 0)  -->
<!DOCTYPE svg PUBLIC "-//W3C//DTD SVG 1.1//EN" "http://www.w3.org/Graphics/SVG/1.1/DTD/svg11.dtd">
<svg version="1.1" id="Capa_1" xmlns="http://www.w3.org/2000/svg" xmlns:xlink="http://www.w3.org/1999/xlink" x="0px" y="0px"
	 viewBox="0 0 22 22" style="enable-background:new 0 0 22 22;" xml:space="preserve">
<path style="fill-rule:evenodd;clip-rule:evenodd;" d="M22,11c0-6.075-4.925-11-11-11C4.925,0,0,4.925,0,11c0,6.075,4.925,11,11,11
	C17.075,22,22,17.075,22,11z M13.818,5.577c0,0,1.002-0.486,1.404-0.172L16.01,6.02c0.404,0.315,0.172,1.404,0.172,1.404
	l-0.616,0.788l-2.364-1.847L13.818,5.577z M6.999,16.811l0.049-2.5l5.849-7.486l0.788,0.616l-5.663,7.248l-0.1,0.94l0.888-0.324
	l5.663-7.248l0.788,0.616l-5.849,7.486L6.999,16.811z"/>
<g>
</g>
<g>
</g>
<g>
</g>
<g>
</g>
<g>
</g>
<g>
</g>
<g>
</g>
<g>
</g>
<g>
</g>
<g>
</g>
<g>
</g>
<g>
</g>
<g>
</g>
<g>
</g>
<g>
</g>
</svg>
