<?xml version="1.0" encoding="iso-8859-1"?>
<!-- Generator: Adobe Illustrator 18.0.0, SVG Export Plug-In . SVG Version: 6.00 Build 0)  -->
<!DOCTYPE svg PUBLIC "-//W3C//DTD SVG 1.1//EN" "http://www.w3.org/Graphics/SVG/1.1/DTD/svg11.dtd">
<svg version="1.1" id="Capa_1" xmlns="http://www.w3.org/2000/svg" xmlns:xlink="http://www.w3.org/1999/xlink" x="0px" y="0px"
	 viewBox="0 0 22 22" style="enable-background:new 0 0 22 22;" xml:space="preserve">
<g>
	<path style="fill-rule:evenodd;clip-rule:evenodd;" d="M22,11c0-6.075-4.925-11-11-11C4.925,0,0,4.925,0,11c0,6.075,4.925,11,11,11
		C17.075,22,22,17.075,22,11z M1,11C1,5.477,5.477,1,11,1c5.523,0,10,4.477,10,10s-4.477,10-10,10C5.477,21,1,16.523,1,11z"/>
	<path style="fill-rule:evenodd;clip-rule:evenodd;" d="M16.182,7.423c0,0,0.231-1.088-0.172-1.404l-0.788-0.616
		c-0.401-0.314-1.404,0.172-1.404,0.172l-0.616,0.788l2.364,1.847L16.182,7.423z"/>
	<polygon style="fill-rule:evenodd;clip-rule:evenodd;" points="14.473,8.057 8.81,15.305 7.923,15.629 8.022,14.689 13.685,7.441 
		12.897,6.825 7.048,14.312 6.999,16.811 9.412,16.159 15.261,8.672 	"/>
</g>
<g>
</g>
<g>
</g>
<g>
</g>
<g>
</g>
<g>
</g>
<g>
</g>
<g>
</g>
<g>
</g>
<g>
</g>
<g>
</g>
<g>
</g>
<g>
</g>
<g>
</g>
<g>
</g>
<g>
</g>
</svg>
