<?xml version="1.0" encoding="iso-8859-1"?>
<!-- Generator: Adobe Illustrator 18.0.0, SVG Export Plug-In . SVG Version: 6.00 Build 0)  -->
<!DOCTYPE svg PUBLIC "-//W3C//DTD SVG 1.1//EN" "http://www.w3.org/Graphics/SVG/1.1/DTD/svg11.dtd">
<svg version="1.1" id="Capa_1" xmlns="http://www.w3.org/2000/svg" xmlns:xlink="http://www.w3.org/1999/xlink" x="0px" y="0px"
	 viewBox="0 0 21.163 21.164" style="enable-background:new 0 0 21.163 21.164;" xml:space="preserve">
<g>
	<path style="fill-rule:evenodd;clip-rule:evenodd;" d="M17.316,0.315c0,0-0.709-0.709-1.418,0L1.42,14.793l-0.369,0.369
		l4.032,4.033h0l0.591,0.591l0.327,0.327l0.707-0.707l-0.001-0.001L18.021,8.091l0.001,0.001l0.707-0.707l-0.001-0.001l2.12-2.12
		c0.709-0.709,0-1.418,0-1.418L17.316,0.315z M5.998,18.696l-3.531-3.531L13.781,3.85l3.531,3.531L5.998,18.696z M18.019,6.675
		l-3.531-3.531l2.12-2.12l3.531,3.531L18.019,6.675z"/>
	<polygon style="fill-rule:evenodd;clip-rule:evenodd;" points="1.368,19.795 2.112,16.224 1.039,15.151 0,21.164 6,20.111 
		5.674,19.786 5.084,19.195 	"/>
</g>
<g>
</g>
<g>
</g>
<g>
</g>
<g>
</g>
<g>
</g>
<g>
</g>
<g>
</g>
<g>
</g>
<g>
</g>
<g>
</g>
<g>
</g>
<g>
</g>
<g>
</g>
<g>
</g>
<g>
</g>
</svg>
