<?xml version="1.0" encoding="iso-8859-1"?>
<!-- Generator: Adobe Illustrator 18.0.0, SVG Export Plug-In . SVG Version: 6.00 Build 0)  -->
<!DOCTYPE svg PUBLIC "-//W3C//DTD SVG 1.1//EN" "http://www.w3.org/Graphics/SVG/1.1/DTD/svg11.dtd">
<svg version="1.1" id="Capa_1" xmlns="http://www.w3.org/2000/svg" xmlns:xlink="http://www.w3.org/1999/xlink" x="0px" y="0px"
	 viewBox="0 0 16 16" style="enable-background:new 0 0 16 16;" xml:space="preserve">
<g id="Lock">
	<g>
		<path style="fill-rule:evenodd;clip-rule:evenodd;" d="M14,4h-1.101C12.436,1.718,10.419,0,8,0C5.581,0,3.564,1.718,3.101,4H2
			C0.895,4,0,4.895,0,6v8c0,1.105,0.895,2,2,2h12c1.105,0,2-0.895,2-2V6C16,4.895,15.105,4,14,4z M8,2c1.304,0,2.403,0.837,2.816,2
			H5.184C5.597,2.837,6.696,2,8,2z M14,13c0,0.552-0.448,1-1,1H3c-0.552,0-1-0.448-1-1V7c0-0.552,0.448-1,1-1h10
			c0.552,0,1,0.448,1,1V13z M8.5,8h-1C6.672,8,6,8.672,6,9.5S6.672,11,7.5,11H7v1h2v-1H8.5c0.828,0,1.5-0.672,1.5-1.5S9.328,8,8.5,8
			z"/>
	</g>
</g>
<g>
</g>
<g>
</g>
<g>
</g>
<g>
</g>
<g>
</g>
<g>
</g>
<g>
</g>
<g>
</g>
<g>
</g>
<g>
</g>
<g>
</g>
<g>
</g>
<g>
</g>
<g>
</g>
<g>
</g>
</svg>
