<?xml version="1.0" encoding="iso-8859-1"?>
<!-- Generator: Adobe Illustrator 18.0.0, SVG Export Plug-In . SVG Version: 6.00 Build 0)  -->
<!DOCTYPE svg PUBLIC "-//W3C//DTD SVG 1.1//EN" "http://www.w3.org/Graphics/SVG/1.1/DTD/svg11.dtd">
<svg version="1.1" id="Capa_1" xmlns="http://www.w3.org/2000/svg" xmlns:xlink="http://www.w3.org/1999/xlink" x="0px" y="0px"
	 viewBox="0 0 16 22" style="enable-background:new 0 0 16 22;" xml:space="preserve">
<g>
	<path style="fill-rule:evenodd;clip-rule:evenodd;" d="M0,9.041v11.918C0,21.534,0.445,22,1.001,22h13.998
		C15.552,22,16,21.534,16,20.959V9.041C16,8.466,15.555,8,14.999,8H1.001C0.448,8,0,8.466,0,9.041z M8,12.048
		c1.104,0,2,0.938,2,2.095c0,0.776-0.402,1.453-1,1.815v1.852c0,0,0,1.048-0.999,1.048C7.003,18.857,7,17.81,7,17.81v-1.852
		c-0.598-0.362-1-1.039-1-1.815C6,12.986,6.895,12.048,8,12.048z"/>
	<path style="fill-rule:evenodd;clip-rule:evenodd;" d="M13.037,7.998v-2.76c0,0,0-5.238-5.037-5.238
		C2.979,0,2.979,5.216,2.979,5.216v2.782h1V5.216c0,0,0-4.216,4.021-4.216s4.037,4.238,4.037,4.238v2.76H13.037z"/>
</g>
<g>
</g>
<g>
</g>
<g>
</g>
<g>
</g>
<g>
</g>
<g>
</g>
<g>
</g>
<g>
</g>
<g>
</g>
<g>
</g>
<g>
</g>
<g>
</g>
<g>
</g>
<g>
</g>
<g>
</g>
</svg>
