<?xml version="1.0" encoding="utf-8"?>
<!-- Generator: Adobe Illustrator 16.0.0, SVG Export Plug-In . SVG Version: 6.00 Build 0)  -->
<!DOCTYPE svg PUBLIC "-//W3C//DTD SVG 1.1//EN" "http://www.w3.org/Graphics/SVG/1.1/DTD/svg11.dtd">
<svg version="1.1" id="Layer_2" xmlns="http://www.w3.org/2000/svg" xmlns:xlink="http://www.w3.org/1999/xlink" x="0px" y="0px"
	 width="100px" height="100px" viewBox="0 0 100 100" enable-background="new 0 0 100 100" xml:space="preserve">
<path d="M80.573,7.015h-50c-1.104,0-2,0.896-2,2v29.901h2.751c-0.827-1.056-1.276-2.35-1.276-3.712
	c-0.001-1.613,0.628-3.13,1.769-4.27c0.235-0.235,0.491-0.444,0.757-0.635V11.015h46v1.437l-21,15.247v65.287l21.114-15.33
	c0.269,0.788,1.007,1.359,1.886,1.359c1.104,0,2-0.896,2-2v-68C82.573,7.91,81.678,7.015,80.573,7.015z M65.507,61.863
	c-0.943,0-1.729-1.165-1.932-2.724h-2.252v-1.75h2.284c0.239-1.464,0.994-2.541,1.899-2.541c1.096,0,1.984,1.57,1.984,3.508
	C67.491,60.293,66.603,61.863,65.507,61.863z M31.818,58.971c0.235,0.234,0.49,0.442,0.755,0.632v17.412c0,1.104-0.896,2-2,2
	s-2-0.896-2-2V50.986h2.751C29.476,53.353,29.639,56.791,31.818,58.971z M46.123,43.096c0.796,0.796,0.796,2.083,0,2.879
	l-9.747,9.748c-0.397,0.396-0.918,0.596-1.439,0.597c-0.521-0.001-1.042-0.2-1.439-0.597c-0.795-0.795-0.794-2.084,0-2.878
	l6.274-6.274h-20.31c-1.124,0-2.035-0.911-2.035-2.035s0.91-2.035,2.036-2.035h20.308l-6.273-6.274
	c-0.794-0.794-0.795-2.083,0-2.877c0.795-0.795,2.084-0.795,2.879,0L46.123,43.096z"/>
</svg>
