<?xml version="1.0" encoding="utf-8"?>
<!-- Generator: Adobe Illustrator 16.0.0, SVG Export Plug-In . SVG Version: 6.00 Build 0)  -->
<!DOCTYPE svg PUBLIC "-//W3C//DTD SVG 1.1//EN" "http://www.w3.org/Graphics/SVG/1.1/DTD/svg11.dtd">
<svg version="1.1" id="Layer_2" xmlns="http://www.w3.org/2000/svg" xmlns:xlink="http://www.w3.org/1999/xlink" x="0px" y="0px"
	 width="100px" height="100px" viewBox="0 0 100 100" enable-background="new 0 0 100 100" xml:space="preserve">
<path d="M51.857,9.001C29.25,9.001,10.858,27.393,10.858,50S29.25,90.999,51.857,90.999S92.856,72.607,92.856,50
	S74.465,9.001,51.857,9.001z M51.857,86.999c-20.401,0-36.999-16.598-36.999-36.999s16.598-36.999,36.999-36.999
	S88.856,29.599,88.856,50S72.259,86.999,51.857,86.999z M55.63,71.704v6.153c0,0.828-0.671,1.5-1.5,1.5h-5.314
	c-0.829,0-1.5-0.672-1.5-1.5v-6.153c0-0.828,0.671-1.5,1.5-1.5h5.314C54.959,70.204,55.63,70.876,55.63,71.704z M62.087,23.155
	c1.029,1.014,1.55,2.314,1.55,3.867v12.307c0,1.69-0.448,3.227-1.331,4.566l-6.885,10.496v11.159c0,0.828-0.671,1.5-1.5,1.5h-4.895
	c-0.829,0-1.5-0.672-1.5-1.5V55.098c0-1.835,0.427-3.399,1.271-4.65l6.981-10.42V28.942h-8.188v10.807c0,0.828-0.671,1.5-1.5,1.5
	h-4.86c-0.829,0-1.5-0.672-1.5-1.5V27.022c0-1.559,0.53-2.862,1.575-3.874c1.034-1,2.337-1.507,3.875-1.507h13.006
	C59.752,21.642,61.064,22.151,62.087,23.155z"/>
</svg>
