<?xml version="1.0" encoding="iso-8859-1"?>
<!-- Generator: Adobe Illustrator 18.0.0, SVG Export Plug-In . SVG Version: 6.00 Build 0)  -->
<!DOCTYPE svg PUBLIC "-//W3C//DTD SVG 1.1//EN" "http://www.w3.org/Graphics/SVG/1.1/DTD/svg11.dtd">
<svg version="1.1" id="Capa_1" xmlns="http://www.w3.org/2000/svg" xmlns:xlink="http://www.w3.org/1999/xlink" x="0px" y="0px"
	 viewBox="0 0 22 22" style="enable-background:new 0 0 22 22;" xml:space="preserve">
<g>
	<path style="fill-rule:evenodd;clip-rule:evenodd;" d="M8.294,6.514C8.208,6.607,8.152,6.667,8.11,6.712
		C8.188,6.628,8.294,6.514,8.294,6.514z"/>
	<path style="fill-rule:evenodd;clip-rule:evenodd;" d="M12.113,7.221c0.286,0.352,0.428,0.767,0.428,1.245
		c0,0.342-0.098,0.671-0.293,0.989C12.141,9.635,12,9.809,11.824,9.975l-0.586,0.579c-0.562,0.552-0.925,1.041-1.091,1.469
		c-0.166,0.427-0.249,0.99-0.249,1.688h1.304c0-0.615,0.07-1.08,0.209-1.395s0.443-0.699,0.912-1.154
		c0.645-0.625,1.073-1.099,1.285-1.421s0.319-0.742,0.319-1.26c0-0.854-0.289-1.556-0.868-2.106s-1.349-0.824-2.311-0.824
		c-1.04,0-1.858,0.321-2.454,0.963C7.698,7.156,7.4,8.004,7.4,9.059h1.304c0.024-0.635,0.125-1.121,0.3-1.458
		c0.312-0.605,0.876-0.908,1.692-0.908C11.355,6.693,11.828,6.869,12.113,7.221z"/>
	<path style="fill-rule:evenodd;clip-rule:evenodd;" d="M22,11c0-6.075-4.925-11-11-11C4.925,0,0,4.925,0,11c0,6.075,4.925,11,11,11
		C17.075,22,22,17.075,22,11z M1,11C1,5.477,5.477,1,11,1s10,4.477,10,10s-4.477,10-10,10S1,16.523,1,11z"/>
	<rect x="9.868" y="14.926" style="fill-rule:evenodd;clip-rule:evenodd;" width="1.458" height="1.523"/>
</g>
<g>
</g>
<g>
</g>
<g>
</g>
<g>
</g>
<g>
</g>
<g>
</g>
<g>
</g>
<g>
</g>
<g>
</g>
<g>
</g>
<g>
</g>
<g>
</g>
<g>
</g>
<g>
</g>
<g>
</g>
</svg>
