<?xml version="1.0" encoding="iso-8859-1"?>
<!-- Generator: Adobe Illustrator 18.0.0, SVG Export Plug-In . SVG Version: 6.00 Build 0)  -->
<!DOCTYPE svg PUBLIC "-//W3C//DTD SVG 1.1//EN" "http://www.w3.org/Graphics/SVG/1.1/DTD/svg11.dtd">
<svg version="1.1" id="Capa_1" xmlns="http://www.w3.org/2000/svg" xmlns:xlink="http://www.w3.org/1999/xlink" x="0px" y="0px"
	 viewBox="0 0 21.409 21.132" style="enable-background:new 0 0 21.409 21.132;" xml:space="preserve">
<g>
	<path style="fill-rule:evenodd;clip-rule:evenodd;" d="M17.76,21.099l2.916-0.781c0.528-0.142,0.843-0.681,0.698-1.225
		L16.457,0.745c-0.143-0.535-0.695-0.852-1.216-0.712l-2.916,0.781c-0.529,0.142-0.843,0.681-0.698,1.225l4.916,18.348
		C16.687,20.922,17.238,21.238,17.76,21.099z"/>
	<path style="fill-rule:evenodd;clip-rule:evenodd;" d="M4.009,21.066C4.556,21.066,5,20.626,5,20.063V1.068
		c0-0.554-0.451-1.002-0.991-1.002H0.991C0.444,0.066,0,0.505,0,1.068v18.995c0,0.554,0.451,1.002,0.991,1.002H4.009z"/>
	<path style="fill-rule:evenodd;clip-rule:evenodd;" d="M10.009,21.066c0.547,0,0.991-0.439,0.991-1.002V1.068
		c0-0.554-0.451-1.002-0.991-1.002H6.991C6.444,0.066,6,0.505,6,1.068v18.995c0,0.554,0.451,1.002,0.991,1.002H10.009z"/>
</g>
<g>
</g>
<g>
</g>
<g>
</g>
<g>
</g>
<g>
</g>
<g>
</g>
<g>
</g>
<g>
</g>
<g>
</g>
<g>
</g>
<g>
</g>
<g>
</g>
<g>
</g>
<g>
</g>
<g>
</g>
</svg>
