<?xml version="1.0" encoding="iso-8859-1"?>
<!-- Generator: Adobe Illustrator 18.0.0, SVG Export Plug-In . SVG Version: 6.00 Build 0)  -->
<!DOCTYPE svg PUBLIC "-//W3C//DTD SVG 1.1//EN" "http://www.w3.org/Graphics/SVG/1.1/DTD/svg11.dtd">
<svg version="1.1" id="Capa_1" xmlns="http://www.w3.org/2000/svg" xmlns:xlink="http://www.w3.org/1999/xlink" x="0px" y="0px"
	 viewBox="0 0 9 22" style="enable-background:new 0 0 9 22;" xml:space="preserve">
<path style="fill-rule:evenodd;clip-rule:evenodd;" d="M2,4.18v12.76c0,0-0.186,2.678,2.541,2.678C7,19.618,7,16.94,7,16.94V3.52
	C7,3.52,7,0,3.5,0S0,3.52,0,3.52v13.42c0,0,0,5.06,4.5,5.06S9,16.94,9,16.94V3.52c0-0.55-1-0.55-1,0v13.42c0,0,0.364,4.06-3.5,4.06
	C1,21,1,16.94,1,16.94V3.52C1,3.52,1,1,3.5,1S6,3.52,6,3.52v13.42c0,0,0,1.578-1.459,1.578C3.082,18.518,3,16.94,3,16.94V4.18
	C3,3.63,2,3.63,2,4.18z"/>
<g>
</g>
<g>
</g>
<g>
</g>
<g>
</g>
<g>
</g>
<g>
</g>
<g>
</g>
<g>
</g>
<g>
</g>
<g>
</g>
<g>
</g>
<g>
</g>
<g>
</g>
<g>
</g>
<g>
</g>
</svg>
