<?xml version="1.0" encoding="iso-8859-1"?>
<!-- Generator: Adobe Illustrator 18.0.0, SVG Export Plug-In . SVG Version: 6.00 Build 0)  -->
<!DOCTYPE svg PUBLIC "-//W3C//DTD SVG 1.1//EN" "http://www.w3.org/Graphics/SVG/1.1/DTD/svg11.dtd">
<svg version="1.1" id="Capa_1" xmlns="http://www.w3.org/2000/svg" xmlns:xlink="http://www.w3.org/1999/xlink" x="0px" y="0px"
	 viewBox="0 0 20 22" style="enable-background:new 0 0 20 22;" xml:space="preserve">
<path style="fill-rule:evenodd;clip-rule:evenodd;" d="M14.375,4.464c0.43-0.45-0.43-1.349-0.861-0.899L3.532,13.994
	c0,0-2.237,2.338-0.172,4.495c2.065,2.158,4.303-0.18,4.303-0.18L18.162,7.341c0,0,2.754-2.877-0.172-5.934
	c-2.926-3.057-5.68-0.18-5.68-0.18L1.811,12.196c0,0-3.958,4.136-0.172,8.092c3.786,3.956,7.745-0.18,7.745-0.18L19.883,9.139
	c0.43-0.449-0.43-1.349-0.861-0.899L8.524,19.208c0,0-3.098,3.237-6.024,0.18c-2.926-3.057,0.172-6.293,0.172-6.293L13.17,2.126
	c0,0,1.893-1.978,3.959,0.18c2.065,2.158,0.172,4.136,0.172,4.136L6.803,17.41c0,0-1.377,1.439-2.582,0.18
	c-1.205-1.259,0.172-2.697,0.172-2.697L14.375,4.464z"/>
<g>
</g>
<g>
</g>
<g>
</g>
<g>
</g>
<g>
</g>
<g>
</g>
<g>
</g>
<g>
</g>
<g>
</g>
<g>
</g>
<g>
</g>
<g>
</g>
<g>
</g>
<g>
</g>
<g>
</g>
</svg>
