<?xml version="1.0" encoding="iso-8859-1"?>
<!-- Generator: Adobe Illustrator 18.0.0, SVG Export Plug-In . SVG Version: 6.00 Build 0)  -->
<!DOCTYPE svg PUBLIC "-//W3C//DTD SVG 1.1//EN" "http://www.w3.org/Graphics/SVG/1.1/DTD/svg11.dtd">
<svg version="1.1" id="Capa_1" xmlns="http://www.w3.org/2000/svg" xmlns:xlink="http://www.w3.org/1999/xlink" x="0px" y="0px"
	 viewBox="0 0 22.06 16" style="enable-background:new 0 0 22.06 16;" xml:space="preserve">
<g>
	<path style="fill-rule:evenodd;clip-rule:evenodd;" d="M17.811,9.809C17.93,9.267,18,8.665,18,8c0-4.35-3-6-3-6v1.224
		c0,0,2,1.301,2,4.776c0,0.445-0.033,0.853-0.09,1.227L17.811,9.809z"/>
	<path style="fill-rule:evenodd;clip-rule:evenodd;" d="M15,7.992L15,7.992C14.996,4.242,12,3,12,3v1.111
		c0,0,1.698,0.72,1.965,3.212L15,7.992z"/>
	<path style="fill-rule:evenodd;clip-rule:evenodd;" d="M20.498,11.546C20.798,10.611,21,9.444,21,8c0-5.561-3-7-3-7v1.298
		c0,0,2,1.104,2,5.702c0,1.236-0.145,2.219-0.356,2.994L20.498,11.546z"/>
	<polygon style="fill-rule:evenodd;clip-rule:evenodd;" points="1.962,1.802 21.514,14.676 22.06,13.838 2.508,0.964 	"/>
	<polygon style="fill-rule:evenodd;clip-rule:evenodd;" points="6.695,2.624 11,5.407 11,0 	"/>
	<path style="fill-rule:evenodd;clip-rule:evenodd;" d="M18,15c0,0,0.465-0.223,1.028-0.832l-0.894-0.578
		C18.05,13.653,18,13.68,18,13.68V15z"/>
	<path style="fill-rule:evenodd;clip-rule:evenodd;" d="M0,5.867v4.267c0,0,0,1.067,1.042,1.067h2.083L11,16V8.979L3.85,4.358
		L3.125,4.8H1.042C0,4.8,0,5.867,0,5.867z"/>
	<path style="fill-rule:evenodd;clip-rule:evenodd;" d="M12,11.889V13c0,0,1.292-0.536,2.18-1.965l-0.789-0.51
		C12.803,11.548,12,11.889,12,11.889z"/>
	<path style="fill-rule:evenodd;clip-rule:evenodd;" d="M15,12.734V14c0,0,0.784-0.431,1.55-1.434l-0.82-0.53
		C15.335,12.523,15,12.734,15,12.734z"/>
</g>
<g>
</g>
<g>
</g>
<g>
</g>
<g>
</g>
<g>
</g>
<g>
</g>
<g>
</g>
<g>
</g>
<g>
</g>
<g>
</g>
<g>
</g>
<g>
</g>
<g>
</g>
<g>
</g>
<g>
</g>
</svg>
