<?xml version="1.0" encoding="iso-8859-1"?>
<!-- Generator: Adobe Illustrator 18.0.0, SVG Export Plug-In . SVG Version: 6.00 Build 0)  -->
<!DOCTYPE svg PUBLIC "-//W3C//DTD SVG 1.1//EN" "http://www.w3.org/Graphics/SVG/1.1/DTD/svg11.dtd">
<svg version="1.1" id="Capa_1" xmlns="http://www.w3.org/2000/svg" xmlns:xlink="http://www.w3.org/1999/xlink" x="0px" y="0px"
	 viewBox="0 0 22 22" style="enable-background:new 0 0 22 22;" xml:space="preserve">
<path style="fill-rule:evenodd;clip-rule:evenodd;" d="M22,11c0-6.075-4.925-11-11-11C4.925,0,0,4.925,0,11c0,6.075,4.925,11,11,11
	C17.075,22,22,17.075,22,11z M9.215,14.451c0,0.269-0.075,0.647-0.162,0.841c-0.248,0.539-1.035,1.002-1.67,1.002
	c-0.388,0-0.69-0.108-0.873-0.312c-0.14-0.172-0.237-0.42-0.237-0.647c0-0.485,0.366-0.927,0.959-1.164
	c0.237-0.097,0.453-0.14,0.657-0.14c0.334,0,0.636,0.054,0.851,0.151V7.629l6.262-1.52v6.811c0,0.539-0.183,0.97-0.539,1.304
	c-0.388,0.345-0.873,0.55-1.336,0.55c-0.388,0-0.679-0.108-0.862-0.312c-0.14-0.172-0.237-0.42-0.237-0.647
	c0-0.42,0.28-0.819,0.744-1.067c0.248-0.129,0.636-0.248,0.841-0.248c0.334,0,0.657,0.054,0.916,0.162V7.877L9.215,9.202V14.451z"/>
<g>
</g>
<g>
</g>
<g>
</g>
<g>
</g>
<g>
</g>
<g>
</g>
<g>
</g>
<g>
</g>
<g>
</g>
<g>
</g>
<g>
</g>
<g>
</g>
<g>
</g>
<g>
</g>
<g>
</g>
</svg>
