<?xml version="1.0" encoding="iso-8859-1"?>
<!-- Generator: Adobe Illustrator 18.0.0, SVG Export Plug-In . SVG Version: 6.00 Build 0)  -->
<!DOCTYPE svg PUBLIC "-//W3C//DTD SVG 1.1//EN" "http://www.w3.org/Graphics/SVG/1.1/DTD/svg11.dtd">
<svg version="1.1" id="Capa_1" xmlns="http://www.w3.org/2000/svg" xmlns:xlink="http://www.w3.org/1999/xlink" x="0px" y="0px"
	 viewBox="0 0 22 22" style="enable-background:new 0 0 22 22;" xml:space="preserve">
<path style="fill-rule:evenodd;clip-rule:evenodd;" d="M22,11c0-6.075-4.925-11-11-11C4.925,0,0,4.925,0,11c0,6.075,4.925,11,11,11
	C17.075,22,22,17.075,22,11z M9.25,16.066c-1.45,0-2.174-0.421-2.174-1.263c0-0.353,0.227-0.655,0.682-0.904
	c0.455-0.249,0.999-0.374,1.633-0.374c0.572,0,1.125,0.231,1.66,0.694V5.475l0.475-0.023c0.119,0.322,0.251,0.545,0.393,0.67
	c0.143,0.125,0.414,0.249,0.814,0.374c1.366,0.41,2.05,0.974,2.05,1.691c0,0.468-0.322,1.016-0.966,1.644l-0.195-0.32
	c0.244-0.307,0.366-0.569,0.366-0.787c0-0.338-0.312-0.613-0.935-0.826c-0.634-0.208-1.138-0.436-1.512-0.686l0.008,6.897v0.397
	c0,0.223-0.01,0.377-0.031,0.46c-0.078,0.312-0.316,0.573-0.713,0.783C10.408,15.961,9.889,16.066,9.25,16.066z"/>
<g>
</g>
<g>
</g>
<g>
</g>
<g>
</g>
<g>
</g>
<g>
</g>
<g>
</g>
<g>
</g>
<g>
</g>
<g>
</g>
<g>
</g>
<g>
</g>
<g>
</g>
<g>
</g>
<g>
</g>
</svg>
