<?xml version="1.0" encoding="utf-8"?>
<!-- Generator: Adobe Illustrator 16.0.0, SVG Export Plug-In . SVG Version: 6.00 Build 0)  -->
<!DOCTYPE svg PUBLIC "-//W3C//DTD SVG 1.1//EN" "http://www.w3.org/Graphics/SVG/1.1/DTD/svg11.dtd">
<svg version="1.1" id="Layer_1" xmlns="http://www.w3.org/2000/svg" xmlns:xlink="http://www.w3.org/1999/xlink" x="0px" y="0px"
	 width="100px" height="100px" viewBox="0 0 100 100" enable-background="new 0 0 100 100" xml:space="preserve">
<path fill="#020202" d="M59.342,71.471c-2.634,0.66-4.945,2.106-6.509,4.075c-0.904,1.138-1.511,2.408-1.813,3.717H20.2
	c-2.418,0-4.387-1.968-4.387-4.387V37.213l-0.012-11.125c-0.004-0.533,0.206-1.044,0.581-1.422c0.376-0.378,0.886-0.59,1.419-0.59
	h15.596c0.83,0,1.572,0.513,1.869,1.288l2.843,7.462h38.317c2.42,0,4.388,1.968,4.388,4.387v0.382l-4,0.648v-1.031
	c0-0.213-0.174-0.387-0.388-0.387H36.731c-0.83,0-1.574-0.513-1.869-1.288l-2.844-7.462H19.787l0.026,9.125v37.674
	c0,0.213,0.174,0.387,0.387,0.387h4.137V47.07c0-1.573,1.274-2.848,2.848-2.848h33.778v26.952
	C60.422,71.238,59.881,71.337,59.342,71.471z M64.919,43.519V74.8c-1.364-0.479-2.988-0.561-4.648-0.148
	c-3.691,0.924-6.105,3.964-5.397,6.793c0.414,2.623,4.273,4.376,7.956,3.45c3.245-0.803,5.502-3.26,5.519-5.762h0.003l0.088-26.425
	l19.06-3.485v21.243c-1.386-0.489-3.045-0.575-4.729-0.158c-3.727,0.934-6.167,4.001-5.453,6.865
	c0.714,2.857,4.313,4.418,8.041,3.495c3.396-0.858,5.573-3.188,5.573-6.107V39.301L64.919,43.519z"/>
</svg>
