<?xml version="1.0" encoding="utf-8"?>
<!-- Generator: Adobe Illustrator 16.0.0, SVG Export Plug-In . SVG Version: 6.00 Build 0)  -->
<!DOCTYPE svg PUBLIC "-//W3C//DTD SVG 1.1//EN" "http://www.w3.org/Graphics/SVG/1.1/DTD/svg11.dtd">
<svg version="1.1" id="Layer_1" xmlns="http://www.w3.org/2000/svg" xmlns:xlink="http://www.w3.org/1999/xlink" x="0px" y="0px"
	 width="100px" height="100px" viewBox="0 0 100 100" enable-background="new 0 0 100 100" xml:space="preserve">
<path fill="#020202" d="M64.169,77.244v-30.43l17.922-2.906C79.236,28.779,65.959,17.333,50,17.333
	c-18.042,0-32.667,14.625-32.667,32.667S31.958,82.667,50,82.667c1.75,0,3.466-0.142,5.141-0.406
	c1.311-2.177,3.664-3.924,6.651-4.671C62.581,77.394,63.378,77.278,64.169,77.244z M56.002,19.999l-3.5,15.334h-3.5l-2.5-15.334
	C50.169,18.165,56.002,19.999,56.002,19.999z M50,62.128c-6.698,0-12.128-5.43-12.128-12.128S43.302,37.872,50,37.872
	S62.128,43.302,62.128,50S56.698,62.128,50,62.128z M50,40.753c-5.1,0-9.247,4.147-9.247,9.247S44.9,59.247,50,59.247
	S59.247,55.1,59.247,50S55.1,40.753,50,40.753z M50,56.605c-3.642,0-6.605-2.963-6.605-6.605s2.964-6.605,6.605-6.605
	c3.643,0,6.604,2.963,6.604,6.605S53.643,56.605,50,56.605z M54.183,87.896c0.159,0.878,0.507,1.694,1.008,2.427
	c-1.701,0.218-3.431,0.343-5.19,0.343C27.577,90.666,9.334,72.423,9.334,50S27.577,9.334,50,9.334
	c19.904,0,36.504,14.38,39.984,33.294l-3.948,0.641C82.865,26.256,67.918,13.334,50,13.334c-20.218,0-36.666,16.448-36.666,36.666
	S29.782,86.666,50,86.666c1.354,0,2.689-0.079,4.006-0.223C54.018,86.926,54.07,87.411,54.183,87.896z M94.133,44.821v35.258
	c0,2.92-2.177,5.249-5.572,6.107c-3.728,0.924-7.327-0.637-8.041-3.494c-0.715-2.863,1.726-5.932,5.453-6.865
	c1.684-0.416,3.342-0.331,4.729,0.158V54.743l-19.061,3.484l-0.088,26.426h-0.004c-0.017,2.502-2.273,4.959-5.519,5.762
	c-3.683,0.927-7.542-0.826-7.956-3.449c-0.708-2.83,1.706-5.869,5.397-6.793c1.661-0.413,3.284-0.33,4.648,0.148V49.04
	L94.133,44.821z"/>
</svg>
