<?xml version="1.0" encoding="iso-8859-1"?>
<!-- Generator: Adobe Illustrator 18.0.0, SVG Export Plug-In . SVG Version: 6.00 Build 0)  -->
<!DOCTYPE svg PUBLIC "-//W3C//DTD SVG 1.1//EN" "http://www.w3.org/Graphics/SVG/1.1/DTD/svg11.dtd">
<svg version="1.1" id="Capa_1" xmlns="http://www.w3.org/2000/svg" xmlns:xlink="http://www.w3.org/1999/xlink" x="0px" y="0px"
	 viewBox="0 0 22 22" style="enable-background:new 0 0 22 22;" xml:space="preserve">
<g>
	<path style="fill-rule:evenodd;clip-rule:evenodd;" d="M14.528,12.662c-0.259-0.108-0.582-0.162-0.916-0.162
		c-0.205,0-0.593,0.119-0.841,0.248c-0.463,0.248-0.744,0.647-0.744,1.067c0,0.226,0.097,0.474,0.237,0.647
		c0.183,0.205,0.474,0.312,0.862,0.312c0.463,0,0.948-0.205,1.336-0.55c0.356-0.334,0.539-0.765,0.539-1.304V6.109L8.74,7.629v6.552
		c-0.216-0.097-0.517-0.151-0.851-0.151c-0.205,0-0.42,0.043-0.657,0.14c-0.593,0.237-0.959,0.679-0.959,1.164
		c0,0.226,0.097,0.474,0.237,0.647c0.183,0.205,0.485,0.312,0.873,0.312c0.636,0,1.423-0.463,1.67-1.002
		c0.086-0.194,0.162-0.571,0.162-0.841V9.202l5.313-1.326V12.662z"/>
	<path style="fill-rule:evenodd;clip-rule:evenodd;" d="M22,11c0-6.075-4.925-11-11-11S0,4.925,0,11c0,6.075,4.925,11,11,11
		S22,17.075,22,11z M1,11C1,5.477,5.477,1,11,1c5.523,0,10,4.477,10,10s-4.477,10-10,10C5.477,21,1,16.523,1,11z"/>
</g>
<g>
</g>
<g>
</g>
<g>
</g>
<g>
</g>
<g>
</g>
<g>
</g>
<g>
</g>
<g>
</g>
<g>
</g>
<g>
</g>
<g>
</g>
<g>
</g>
<g>
</g>
<g>
</g>
<g>
</g>
</svg>
