<?xml version="1.0" encoding="utf-8"?>
<!-- Generator: Adobe Illustrator 16.0.0, SVG Export Plug-In . SVG Version: 6.00 Build 0)  -->
<!DOCTYPE svg PUBLIC "-//W3C//DTD SVG 1.1//EN" "http://www.w3.org/Graphics/SVG/1.1/DTD/svg11.dtd">
<svg version="1.1" id="Layer_1" xmlns="http://www.w3.org/2000/svg" xmlns:xlink="http://www.w3.org/1999/xlink" x="0px" y="0px"
	 width="100px" height="100px" viewBox="0 0 100 100" enable-background="new 0 0 100 100" xml:space="preserve">
<path fill="#020202" d="M65.164,11.126H26.033c-2.627,0-4.766,2.141-4.766,4.768v68.213c0,2.63,2.139,4.768,4.766,4.768h47.932
	c2.631,0,4.768-2.138,4.768-4.768V25.869L65.164,11.126z M66.289,18.261l5.949,6.463h-5.949V18.261z M74.73,84.106
	c0,0.421-0.344,0.765-0.766,0.765H26.033c-0.42,0-0.762-0.344-0.762-0.765V15.894c0-0.421,0.342-0.762,0.762-0.762h36.252v11.595
	c0,1.104,0.898,1.999,2.002,1.999H74.73V84.106z M40.86,38.76l22.405-3.634v30.368c0,2.516-1.875,4.521-4.8,5.261
	c-3.21,0.796-6.311-0.549-6.926-3.01c-0.615-2.466,1.486-5.109,4.697-5.913c1.45-0.358,2.878-0.285,4.072,0.137V43.672
	l-16.417,3.001l-0.076,22.762h-0.003c-0.015,2.154-1.958,4.271-4.753,4.963c-3.172,0.798-6.496-0.712-6.854-2.972
	c-0.609-2.438,1.47-5.055,4.649-5.851c1.431-0.355,2.829-0.284,4.004,0.128V38.76z"/>
</svg>
