<?xml version="1.0" encoding="iso-8859-1"?>
<!-- Generator: Adobe Illustrator 18.0.0, SVG Export Plug-In . SVG Version: 6.00 Build 0)  -->
<!DOCTYPE svg PUBLIC "-//W3C//DTD SVG 1.1//EN" "http://www.w3.org/Graphics/SVG/1.1/DTD/svg11.dtd">
<svg version="1.1" id="Capa_1" xmlns="http://www.w3.org/2000/svg" xmlns:xlink="http://www.w3.org/1999/xlink" x="0px" y="0px"
	 viewBox="0 0 12 22" style="enable-background:new 0 0 12 22;" xml:space="preserve">
<g>
	<path style="fill-rule:evenodd;clip-rule:evenodd;" d="M10.794,14l1.047-1.507c0.197-0.284,0.213-0.757,0.034-1.054L8,5L10.794,14z
		"/>
	<path style="fill-rule:evenodd;clip-rule:evenodd;" d="M5.5,22c0.584,0,5.5-2.763,5.5-3.413c0-0.65-3.826-13.821-3.826-13.821
		l2.963-3.9c0,0,0.691-0.866-0.691-0.866H1.613C0.23,0,0.691,0.866,0.691,0.866l3.135,3.9C3.826,4.766,0,17.86,0,18.587
		C0,19.314,4.916,22,5.5,22z M5.068,4.494L2.287,1h6.34L5.932,4.494c0,0,3.568,13.502,3.568,13.72c0,0.218-4,2.299-4,2.299
		s-4-2.003-4-2.299C1.5,17.919,5.068,4.494,5.068,4.494z"/>
</g>
<g>
</g>
<g>
</g>
<g>
</g>
<g>
</g>
<g>
</g>
<g>
</g>
<g>
</g>
<g>
</g>
<g>
</g>
<g>
</g>
<g>
</g>
<g>
</g>
<g>
</g>
<g>
</g>
<g>
</g>
</svg>
