<?xml version="1.0" encoding="iso-8859-1"?>
<!-- Generator: Adobe Illustrator 18.0.0, SVG Export Plug-In . SVG Version: 6.00 Build 0)  -->
<!DOCTYPE svg PUBLIC "-//W3C//DTD SVG 1.1//EN" "http://www.w3.org/Graphics/SVG/1.1/DTD/svg11.dtd">
<svg version="1.1" id="Capa_1" xmlns="http://www.w3.org/2000/svg" xmlns:xlink="http://www.w3.org/1999/xlink" x="0px" y="0px"
	 viewBox="0 0 13 22" style="enable-background:new 0 0 13 22;" xml:space="preserve">
<g>
	<path style="fill-rule:evenodd;clip-rule:evenodd;" d="M0,1.5v6L2.5,10c0,0-0.25,2.851-0.25,5.5c0,2.649,0.25,6.5,0.25,6.5h1
		c0,0,0.25-3.871,0.25-6.5c0-2.629-0.25-5.5-0.25-5.5L6,7.5v-6L5,0v7.012L3.5,8.441V0h-1v8.441L1.002,7.012V0L0,1.5z"/>
	<path style="fill-rule:evenodd;clip-rule:evenodd;" d="M12.077,9.699c0,0,0.923-0.827,0.923-4.721C13,3.458,12.552,0,9.235,0
		v10.203c0,0-0.235,2.949-0.235,5.407C9,18.068,9.235,22,9.235,22h0.941c0,0,0.235-3.823,0.235-6.39
		c0-2.567-0.235-5.407-0.235-5.407S11.432,10.387,12.077,9.699z"/>
</g>
<g>
</g>
<g>
</g>
<g>
</g>
<g>
</g>
<g>
</g>
<g>
</g>
<g>
</g>
<g>
</g>
<g>
</g>
<g>
</g>
<g>
</g>
<g>
</g>
<g>
</g>
<g>
</g>
<g>
</g>
</svg>
