<?xml version="1.0" encoding="iso-8859-1"?>
<!-- Generator: Adobe Illustrator 18.0.0, SVG Export Plug-In . SVG Version: 6.00 Build 0)  -->
<!DOCTYPE svg PUBLIC "-//W3C//DTD SVG 1.1//EN" "http://www.w3.org/Graphics/SVG/1.1/DTD/svg11.dtd">
<svg version="1.1" id="Capa_1" xmlns="http://www.w3.org/2000/svg" xmlns:xlink="http://www.w3.org/1999/xlink" x="0px" y="0px"
	 viewBox="0 0 13 22" style="enable-background:new 0 0 13 22;" xml:space="preserve">
<g>
	<path style="fill-rule:evenodd;clip-rule:evenodd;" d="M0,1.5v6L2.5,10c0,0-0.25,2.851-0.25,5.5c0,2.649,0.25,6.5,0.25,6.5h1
		c0,0,0.25-3.871,0.25-6.5c0-2.629-0.25-5.5-0.25-5.5L6,7.5v-6L5,0v7.012L3,8.918L1.002,7.012V0L0,1.5z"/>
	<path style="fill-rule:evenodd;clip-rule:evenodd;" d="M13,7.414C13,6.417,12.5,0,10,0S7,6.417,7,7.414
		c0,1.995,2.5,2.618,2.5,2.618s-0.25,2.992-0.25,5.485C9.25,18.011,9.5,22,9.5,22h1c0,0,0.25-3.878,0.25-6.483
		c0-2.604-0.25-5.485-0.25-5.485S13,9.409,13,7.414z M10,9C7.664,9,7.691,7.437,8,5c0.309-2.437,1.295-4,2-4s1.7,1.634,2,4
		C12.3,7.366,12.336,9,10,9z"/>
	<rect x="2.5" style="fill-rule:evenodd;clip-rule:evenodd;" width="1" height="7"/>
</g>
<g>
</g>
<g>
</g>
<g>
</g>
<g>
</g>
<g>
</g>
<g>
</g>
<g>
</g>
<g>
</g>
<g>
</g>
<g>
</g>
<g>
</g>
<g>
</g>
<g>
</g>
<g>
</g>
<g>
</g>
</svg>
