<?xml version="1.0" encoding="utf-8"?>
<!-- Generator: Adobe Illustrator 16.0.0, SVG Export Plug-In . SVG Version: 6.00 Build 0)  -->
<!DOCTYPE svg PUBLIC "-//W3C//DTD SVG 1.1//EN" "http://www.w3.org/Graphics/SVG/1.1/DTD/svg11.dtd">
<svg version="1.1" id="Layer_2" xmlns="http://www.w3.org/2000/svg" xmlns:xlink="http://www.w3.org/1999/xlink" x="0px" y="0px"
	 width="100px" height="100px" viewBox="0 0 100 100" enable-background="new 0 0 100 100" xml:space="preserve">
<path d="M51.553,11.661c-22.607,0-41,18.392-41,40.999s18.393,40.999,41,40.999S92.551,75.268,92.551,52.66
	S74.16,11.661,51.553,11.661z M51.553,89.659c-20.402,0-37-16.598-37-36.999s16.598-36.999,37-36.999
	c20.4,0,36.998,16.598,36.998,36.999S71.953,89.659,51.553,89.659z M74.887,43.841v17.639c0,0.609-0.494,1.103-1.104,1.103H61.475
	v12.31c0,0.609-0.494,1.103-1.104,1.103H42.732c-0.609,0-1.102-0.493-1.102-1.103v-12.31H29.32c-0.609,0-1.102-0.493-1.102-1.103
	V43.841c0-0.609,0.492-1.103,1.102-1.103h12.311v-12.31c0-0.609,0.492-1.103,1.102-1.103h17.639c0.609,0,1.104,0.493,1.104,1.103
	v12.31h12.309C74.393,42.738,74.887,43.231,74.887,43.841z"/>
</svg>
