<?xml version="1.0" encoding="iso-8859-1"?>
<!-- Generator: Adobe Illustrator 18.0.0, SVG Export Plug-In . SVG Version: 6.00 Build 0)  -->
<!DOCTYPE svg PUBLIC "-//W3C//DTD SVG 1.1//EN" "http://www.w3.org/Graphics/SVG/1.1/DTD/svg11.dtd">
<svg version="1.1" id="Capa_1" xmlns="http://www.w3.org/2000/svg" xmlns:xlink="http://www.w3.org/1999/xlink" x="0px" y="0px"
	 viewBox="0 0 16.008 16.008" style="enable-background:new 0 0 16.008 16.008;" xml:space="preserve">
<g id="Magic_Wand">
	<g>
		<path style="fill-rule:evenodd;clip-rule:evenodd;" d="M8.007,4.526C7.245,3.763,5.57,2.785,5.57,2.785S5.974,0,5.57,0
			S3.481,1.392,3.481,1.392C1.843,0.685,0.696,0.696,0.696,0.696S0.685,1.843,1.392,3.481C1.392,3.481,0,5.166,0,5.57
			s2.785,0,2.785,0s0.979,1.675,1.741,2.437c0,0,0.721-2.76,0.348-3.133C5.246,5.246,8.007,4.526,8.007,4.526z M15.718,14.313
			L8.695,7.291c-0.388-0.388-1.017-0.388-1.404,0s-0.388,1.017,0,1.404l7.022,7.022c0.388,0.388,1.017,0.388,1.404,0
			S16.105,14.701,15.718,14.313z"/>
	</g>
</g>
<g>
</g>
<g>
</g>
<g>
</g>
<g>
</g>
<g>
</g>
<g>
</g>
<g>
</g>
<g>
</g>
<g>
</g>
<g>
</g>
<g>
</g>
<g>
</g>
<g>
</g>
<g>
</g>
<g>
</g>
</svg>
