<?xml version="1.0" encoding="utf-8"?>
<!-- Generator: Adobe Illustrator 16.0.0, SVG Export Plug-In . SVG Version: 6.00 Build 0)  -->
<!DOCTYPE svg PUBLIC "-//W3C//DTD SVG 1.1//EN" "http://www.w3.org/Graphics/SVG/1.1/DTD/svg11.dtd">
<svg version="1.1" id="Layer_2" xmlns="http://www.w3.org/2000/svg" xmlns:xlink="http://www.w3.org/1999/xlink" x="0px" y="0px"
	 width="100px" height="100px" viewBox="0 0 100 100" enable-background="new 0 0 100 100" xml:space="preserve">
<path d="M62.486,32.28c-0.217-0.216-0.568-0.216-0.783,0L6.971,87.013c-0.217,0.216-0.215,0.565,0,0.782l6.777,6.776
	c0.215,0.217,0.564,0.217,0.781,0L69.262,39.84c0.217-0.216,0.217-0.566,0-0.783L62.486,32.28z M14.531,90.531l-3.52-3.518
	l10.166-10.166l3.518,3.519L14.531,90.531z M55.971,49.092l-3.52-3.519l10.166-10.165l3.518,3.52L55.971,49.092z M62.686,18.223
	c-0.115-0.211-0.08-0.471,0.084-0.644l2.029-2.131L63.4,12.862c-0.113-0.211-0.078-0.472,0.086-0.645
	c0.166-0.173,0.424-0.221,0.641-0.117l2.652,1.271l2.027-2.13c0.166-0.174,0.424-0.221,0.639-0.118
	c0.217,0.105,0.342,0.335,0.311,0.573l-0.391,2.914l2.652,1.27c0.217,0.105,0.342,0.336,0.311,0.573
	c-0.033,0.237-0.213,0.428-0.449,0.471l-2.893,0.53l-0.389,2.916c-0.031,0.237-0.213,0.427-0.449,0.47
	c-0.117,0.021-0.236,0.005-0.338-0.045c-0.102-0.049-0.189-0.13-0.248-0.236l-1.398-2.586l-2.893,0.529
	C63.035,18.548,62.799,18.434,62.686,18.223z M75.502,27.579c0.043,0.149-0.014,0.31-0.143,0.397l-1.578,1.069l0.531,1.831
	c0.043,0.149-0.016,0.311-0.145,0.397c-0.127,0.087-0.297,0.081-0.42-0.014l-1.506-1.171l-1.576,1.071
	c-0.131,0.088-0.299,0.081-0.422-0.014c-0.061-0.048-0.104-0.113-0.125-0.184c-0.02-0.071-0.02-0.148,0.008-0.221l0.646-1.794
	L69.27,27.78c-0.123-0.096-0.172-0.259-0.119-0.405c0.053-0.146,0.193-0.241,0.35-0.237l1.904,0.063l0.648-1.793
	c0.053-0.146,0.193-0.242,0.348-0.236c0.156,0.005,0.291,0.109,0.334,0.258l0.529,1.832l1.904,0.062
	C75.324,27.326,75.459,27.432,75.502,27.579z M89.557,32.933c0.027,0.118-0.025,0.24-0.131,0.302l-1.287,0.758l0.322,1.459
	c0.027,0.119-0.025,0.241-0.131,0.303c-0.053,0.031-0.113,0.043-0.17,0.037s-0.111-0.029-0.158-0.069l-1.119-0.989l-1.287,0.758
	c-0.105,0.062-0.238,0.049-0.328-0.031c-0.092-0.081-0.121-0.212-0.072-0.323l0.598-1.371l-1.119-0.989
	c-0.092-0.08-0.121-0.209-0.072-0.321s0.164-0.181,0.283-0.168l1.488,0.144l0.598-1.369c0.047-0.112,0.162-0.18,0.283-0.168
	c0.121,0.013,0.221,0.101,0.246,0.22l0.324,1.458l1.486,0.143C89.432,32.725,89.531,32.814,89.557,32.933z M90.713,24.773
	l-6.816,2.824l-0.234-0.653L90.713,24.773z M75.703,13.812l3.176-8.546l-2.516,8.762L75.703,13.812z M79.676,41.434l1.15,7.66
	l-1.83-7.526L79.676,41.434z M59.973,23.296l-8.965-1.021l9.018,0.328L59.973,23.296z"/>
</svg>
