<?xml version="1.0" encoding="iso-8859-1"?>
<!-- Generator: Adobe Illustrator 18.0.0, SVG Export Plug-In . SVG Version: 6.00 Build 0)  -->
<!DOCTYPE svg PUBLIC "-//W3C//DTD SVG 1.1//EN" "http://www.w3.org/Graphics/SVG/1.1/DTD/svg11.dtd">
<svg version="1.1" id="Capa_1" xmlns="http://www.w3.org/2000/svg" xmlns:xlink="http://www.w3.org/1999/xlink" x="0px" y="0px"
	 viewBox="0 0 19.041 21.91" style="enable-background:new 0 0 19.041 21.91;" xml:space="preserve">
<path style="fill-rule:evenodd;clip-rule:evenodd;" d="M18.87,4.805c0.337-0.439,0.159-0.794-0.396-0.794h-8.388L10,4H7.32
	L5.475,0.205C5.434,0.092,5.305,0,5.183,0H0.218C0.098,0,0,0.097,0,0.219v0.466c0,0.121,0.098,0.218,0.216,0.218h4.385
	c0.119,0,0.249,0.091,0.29,0.209L6.292,4H5L4.986,4.011H2.993c-0.546,0-0.725,0.363-0.395,0.812l7.539,10.227l-0.099,5.98H7.858
	v0.88h5.453v-0.88h-2.399l0.099-5.98L18.87,4.805z"/>
<g>
</g>
<g>
</g>
<g>
</g>
<g>
</g>
<g>
</g>
<g>
</g>
<g>
</g>
<g>
</g>
<g>
</g>
<g>
</g>
<g>
</g>
<g>
</g>
<g>
</g>
<g>
</g>
<g>
</g>
</svg>
