<?xml version="1.0" encoding="iso-8859-1"?>
<!-- Generator: Adobe Illustrator 18.0.0, SVG Export Plug-In . SVG Version: 6.00 Build 0)  -->
<!DOCTYPE svg PUBLIC "-//W3C//DTD SVG 1.1//EN" "http://www.w3.org/Graphics/SVG/1.1/DTD/svg11.dtd">
<svg version="1.1" id="Capa_1" xmlns="http://www.w3.org/2000/svg" xmlns:xlink="http://www.w3.org/1999/xlink" x="0px" y="0px"
	 viewBox="0 0 19.041 21.91" style="enable-background:new 0 0 19.041 21.91;" xml:space="preserve">
<path style="fill-rule:evenodd;clip-rule:evenodd;" d="M7.32,4L5.474,0.205C5.434,0.092,5.305,0,5.183,0H0.218
	C0.098,0,0,0.097,0,0.219v0.466c0,0.121,0.098,0.218,0.216,0.218h4.385c0.119,0,0.248,0.091,0.29,0.209L6.292,4H5v0.011H2.993
	c-0.546,0-0.725,0.363-0.395,0.812l7.539,10.227l-0.099,5.98H7.858v0.88h5.453v-0.88h-2.399l0.099-5.98l7.86-10.245
	c0.337-0.439,0.159-0.794-0.396-0.794H10V4H7.32z M17.4,5l-0.012,0.016h0.129l-1.511,1.843L10.65,14L3.9,5h1.334h4.238H17.4z"/>
<g>
</g>
<g>
</g>
<g>
</g>
<g>
</g>
<g>
</g>
<g>
</g>
<g>
</g>
<g>
</g>
<g>
</g>
<g>
</g>
<g>
</g>
<g>
</g>
<g>
</g>
<g>
</g>
<g>
</g>
</svg>
