<?xml version="1.0" encoding="iso-8859-1"?>
<!-- Generator: Adobe Illustrator 18.0.0, SVG Export Plug-In . SVG Version: 6.00 Build 0)  -->
<!DOCTYPE svg PUBLIC "-//W3C//DTD SVG 1.1//EN" "http://www.w3.org/Graphics/SVG/1.1/DTD/svg11.dtd">
<svg version="1.1" id="Capa_1" xmlns="http://www.w3.org/2000/svg" xmlns:xlink="http://www.w3.org/1999/xlink" x="0px" y="0px"
	 viewBox="0 0 17 21.993" style="enable-background:new 0 0 17 21.993;" xml:space="preserve">
<g>
	<path style="fill-rule:evenodd;clip-rule:evenodd;" d="M0.5,19h7.122l-2.103,2.993h1.009L8.631,19h0.399l2.102,2.993h1.009
		L10.04,19h6.46c0,0,0.5,0.089,0.5-0.455C17,18,16.5,18,16.5,18h-16c0,0-0.5,0-0.5,0.544C0,19.089,0.5,19,0.5,19z"/>
	<polygon style="fill-rule:evenodd;clip-rule:evenodd;" points="8,0 8,1 7,1 7,2 10,2 10,1 9,1 9.052,0 	"/>
	<path style="fill-rule:evenodd;clip-rule:evenodd;" d="M0,5v10c0,2,2,2,2,2h13c0,0,2,0,2-2V5c0-2-2-2-2-2H2C2,3,0,3,0,5z M5,15
		c-1.657,0-3-1.343-3-3c0-1.657,1.343-3,3-3v3h3C8,13.657,6.657,15,5,15z M15,14h-5v-1h5V14z M15,11h-5v-1h5V11z M15,7H2V5h13V7z"/>
</g>
<g>
</g>
<g>
</g>
<g>
</g>
<g>
</g>
<g>
</g>
<g>
</g>
<g>
</g>
<g>
</g>
<g>
</g>
<g>
</g>
<g>
</g>
<g>
</g>
<g>
</g>
<g>
</g>
<g>
</g>
</svg>
