<?xml version="1.0" encoding="iso-8859-1"?>
<!-- Generator: Adobe Illustrator 18.0.0, SVG Export Plug-In . SVG Version: 6.00 Build 0)  -->
<!DOCTYPE svg PUBLIC "-//W3C//DTD SVG 1.1//EN" "http://www.w3.org/Graphics/SVG/1.1/DTD/svg11.dtd">
<svg version="1.1" id="Capa_1" xmlns="http://www.w3.org/2000/svg" xmlns:xlink="http://www.w3.org/1999/xlink" x="0px" y="0px"
	 viewBox="0 0 22 22" style="enable-background:new 0 0 22 22;" xml:space="preserve">
<path style="fill-rule:evenodd;clip-rule:evenodd;" d="M22,11c0-6.075-4.925-11-11-11C4.925,0,0,4.925,0,11c0,6.075,4.925,11,11,11
	C17.075,22,22,17.075,22,11z M10.399,10.86c-0.495-1.384-1.107-0.621-1.255-0.987C8.861,9.174,7.083,7.648,7.332,6.676
	c0.191-0.744-1.756-1.358-2.718-0.518c0.385-0.452,0.375-2.38,1.404-2.178c0.843,0.166,1.397-0.2,1.905-0.129
	c1.018,0.142,0.58,0.373,1.526,0.611c0.535,0.135,1.667-0.476,2.482-0.216c0.215,0.069,0.441,0.421,0.18,0.79
	c-0.218,0.308-1.388,0.277-0.954,0.651c0.367,0.317,1.043,0.872,1.606,0.989c0.568,0.119-0.052-1.306,0.487-1.454
	c0.539-0.148,2.38,1.313,2.144,1.454c-0.557,0.332,0.786,0.405,0.575,0.617C15.88,7.381,14.35,6.775,14.25,6.995
	c-0.278,0.613,0.548,0.206,0.37,0.69c-0.047,0.128-0.35,0.03-0.504,0.157c-0.427,0.351-0.93,0.892-1.023,0.971
	c-0.513,0.436-0.166,0.691-0.331,0.83c-0.145,0.122-0.349-0.419-0.488-0.309c-0.462,0.366-1.203,0.251-1.203,0.541
	s0.764,0.299,1.039,0.443c0.35,0.183,0.19,0.544,0.28,0.544c0.563,0,1.075,0.975,1.075,0.975s0.401,0.377,1.001,0.325
	c1.569-0.135,1.603,0.948,1.603,0.948c0.573-0.184,1.411,0.349,1.076,0.612c-0.673,0.529-0.658,1.372-0.658,1.372
	c-0.444,0.333-2.858,2.249-2.568,2.949c-0.29,0.401,0.043,0.822-0.29,1.024c-0.542,0.33-1.356-1.114-0.678-1.288
	c-0.117-0.126-0.25-0.381,0-0.778c0.11-0.174,0.067-1.136,0.139-2.168c-2.842-2.074,0.046-2.749-0.522-3.069
	c-0.187-0.106-0.511-0.57-1.079-0.673C11.028,11.005,10.489,11.291,10.399,10.86z"/>
<g>
</g>
<g>
</g>
<g>
</g>
<g>
</g>
<g>
</g>
<g>
</g>
<g>
</g>
<g>
</g>
<g>
</g>
<g>
</g>
<g>
</g>
<g>
</g>
<g>
</g>
<g>
</g>
<g>
</g>
</svg>
