<?xml version="1.0" encoding="iso-8859-1"?>
<!-- Generator: Adobe Illustrator 18.0.0, SVG Export Plug-In . SVG Version: 6.00 Build 0)  -->
<!DOCTYPE svg PUBLIC "-//W3C//DTD SVG 1.1//EN" "http://www.w3.org/Graphics/SVG/1.1/DTD/svg11.dtd">
<svg version="1.1" id="Capa_1" xmlns="http://www.w3.org/2000/svg" xmlns:xlink="http://www.w3.org/1999/xlink" x="0px" y="0px"
	 viewBox="0 0 22 22" style="enable-background:new 0 0 22 22;" xml:space="preserve">
<g>
	<path style="fill-rule:evenodd;clip-rule:evenodd;" d="M10,0v2H0.579C0.579,2,0,2,0,2.5C0,3,0.579,3,0.579,3h20.842
		C21.421,3,22,3,22,2.5C22,2,21.421,2,21.421,2H12V0H10z"/>
	<path style="fill-rule:evenodd;clip-rule:evenodd;" d="M3.353,4C3.353,4,1,4,1,6.286v11.429C1,20,3.353,20,3.353,20h15.294
		c0,0,2.353,0,2.353-2.286V6.286C21,4,18.647,4,18.647,4H3.353z M7,17c-1.657,0-3-1.343-3-3c0-1.657,1.343-3,3-3v3h3
		C10,15.657,8.657,17,7,17z M13,17h-1v-1h1V17z M13,14h-1v-1h1V14z M13,11h-1v-1h1V11z M18,17h-4v-1h4V17z M18,14h-4v-1h4V14z
		 M18,11h-4v-1h4V11z M18,8H4V7h14V8z"/>
	<path style="fill-rule:evenodd;clip-rule:evenodd;" d="M0.579,22h20.842c0,0,0.579,0,0.579-0.5c0-0.5-0.579-0.5-0.579-0.5H0.579
		C0.579,21,0,21,0,21.5C0,22,0.579,22,0.579,22z"/>
</g>
<g>
</g>
<g>
</g>
<g>
</g>
<g>
</g>
<g>
</g>
<g>
</g>
<g>
</g>
<g>
</g>
<g>
</g>
<g>
</g>
<g>
</g>
<g>
</g>
<g>
</g>
<g>
</g>
<g>
</g>
</svg>
