<?xml version="1.0" encoding="iso-8859-1"?>
<!-- Generator: Adobe Illustrator 18.0.0, SVG Export Plug-In . SVG Version: 6.00 Build 0)  -->
<!DOCTYPE svg PUBLIC "-//W3C//DTD SVG 1.1//EN" "http://www.w3.org/Graphics/SVG/1.1/DTD/svg11.dtd">
<svg version="1.1" id="Capa_1" xmlns="http://www.w3.org/2000/svg" xmlns:xlink="http://www.w3.org/1999/xlink" x="0px" y="0px"
	 viewBox="0 0 22 14.019" style="enable-background:new 0 0 22 14.019;" xml:space="preserve">
<path style="fill-rule:evenodd;clip-rule:evenodd;" d="M0,10.014c0,1.985,1.486,3.632,3.438,3.95l0.688,0.055h6.806L11.069,14
	l6.806,0.019l0.688-0.055C20.514,13.646,22,11.999,22,10.014c0-1.744-1.148-3.228-2.751-3.778C19.191,2.782,16.289,0,12.719,0
	c-2.575,0-4.802,1.447-5.866,3.55C6.35,3.01,5.622,2.67,4.812,2.67c-1.519,0-2.75,1.196-2.75,2.67c0,0.385,0.084,0.751,0.234,1.082
	C0.936,7.076,0,8.439,0,10.014z"/>
<g>
</g>
<g>
</g>
<g>
</g>
<g>
</g>
<g>
</g>
<g>
</g>
<g>
</g>
<g>
</g>
<g>
</g>
<g>
</g>
<g>
</g>
<g>
</g>
<g>
</g>
<g>
</g>
<g>
</g>
</svg>
