<?xml version="1.0" encoding="iso-8859-1"?>
<!-- Generator: Adobe Illustrator 18.0.0, SVG Export Plug-In . SVG Version: 6.00 Build 0)  -->
<!DOCTYPE svg PUBLIC "-//W3C//DTD SVG 1.1//EN" "http://www.w3.org/Graphics/SVG/1.1/DTD/svg11.dtd">
<svg version="1.1" id="Capa_1" xmlns="http://www.w3.org/2000/svg" xmlns:xlink="http://www.w3.org/1999/xlink" x="0px" y="0px"
	 viewBox="0 0 20 22" style="enable-background:new 0 0 20 22;" xml:space="preserve">
<g>
	<path style="fill-rule:evenodd;clip-rule:evenodd;" d="M1.2,7H2V4H1.2C1.2,4,0,4,0,5.5S1.2,7,1.2,7z"/>
	<path style="fill-rule:evenodd;clip-rule:evenodd;" d="M1.2,11H2V8H1.2C1.2,8,0,8,0,9.5S1.2,11,1.2,11z"/>
	<path style="fill-rule:evenodd;clip-rule:evenodd;" d="M1.2,16H2v-3H1.2c0,0-1.2,0-1.2,1.5S1.2,16,1.2,16z"/>
	<path style="fill-rule:evenodd;clip-rule:evenodd;" d="M1.2,20H2v-3H1.2c0,0-1.2,0-1.2,1.5S1.2,20,1.2,20z"/>
	<path style="fill-rule:evenodd;clip-rule:evenodd;" d="M3,2.992v18.016C3,21.556,3.449,22,4.008,22h12.985
		C17.549,22,18,21.545,18,21.008V2.992C18,2.444,17.551,2,16.993,2H4.008C3.451,2,3,2.455,3,2.992z"/>
	<polygon style="fill-rule:evenodd;clip-rule:evenodd;" points="20,20 20,0 5,0 5,0.938 19.086,0.938 19.086,20 	"/>
</g>
<g>
</g>
<g>
</g>
<g>
</g>
<g>
</g>
<g>
</g>
<g>
</g>
<g>
</g>
<g>
</g>
<g>
</g>
<g>
</g>
<g>
</g>
<g>
</g>
<g>
</g>
<g>
</g>
<g>
</g>
</svg>
