<?xml version="1.0" encoding="iso-8859-1"?>
<!-- Generator: Adobe Illustrator 18.0.0, SVG Export Plug-In . SVG Version: 6.00 Build 0)  -->
<!DOCTYPE svg PUBLIC "-//W3C//DTD SVG 1.1//EN" "http://www.w3.org/Graphics/SVG/1.1/DTD/svg11.dtd">
<svg version="1.1" id="Capa_1" xmlns="http://www.w3.org/2000/svg" xmlns:xlink="http://www.w3.org/1999/xlink" x="0px" y="0px"
	 viewBox="0 0 22 20" style="enable-background:new 0 0 22 20;" xml:space="preserve">
<g>
	<ellipse style="fill-rule:evenodd;clip-rule:evenodd;" cx="6" cy="2" rx="1" ry="2"/>
	<path style="fill-rule:evenodd;clip-rule:evenodd;" d="M4,2H1.002C0.439,2,0,2.445,0,2.993v16.013C0,19.555,0.449,20,1.002,20
		h19.995C21.561,20,22,19.555,22,19.007V2.993C22,2.445,21.551,2,20.998,2H18c0,1.657-0.895,3-2,3s-2-1.343-2-3h-1
		c0,1.657-0.896,3-2,3C9.895,5,9,3.657,9,2H8c0,1.657-0.895,3-2,3S4,3.657,4,2z M5,7.2C5,7.089,5.098,7,5.219,7h11.563
		C16.903,7,17,7.09,17,7.2v0.6C17,7.911,16.902,8,16.781,8H5.219C5.096,8,5,7.911,5,7.8V7.2z M5,11.2C5,11.089,5.098,11,5.219,11
		h11.563C16.903,11,17,11.09,17,11.2v0.6c0,0.111-0.098,0.2-0.219,0.2H5.219C5.096,12,5,11.911,5,11.8V11.2z M5,15.2
		C5,15.089,5.098,15,5.219,15h11.563C16.903,15,17,15.09,17,15.2v0.6c0,0.111-0.098,0.2-0.219,0.2H5.219C5.096,16,5,15.91,5,15.8
		V15.2z"/>
	<ellipse style="fill-rule:evenodd;clip-rule:evenodd;" cx="16" cy="2" rx="1" ry="2"/>
	<ellipse style="fill-rule:evenodd;clip-rule:evenodd;" cx="11" cy="2" rx="1" ry="2"/>
</g>
<g>
</g>
<g>
</g>
<g>
</g>
<g>
</g>
<g>
</g>
<g>
</g>
<g>
</g>
<g>
</g>
<g>
</g>
<g>
</g>
<g>
</g>
<g>
</g>
<g>
</g>
<g>
</g>
<g>
</g>
</svg>
