<?xml version="1.0" encoding="iso-8859-1"?>
<!-- Generator: Adobe Illustrator 18.0.0, SVG Export Plug-In . SVG Version: 6.00 Build 0)  -->
<!DOCTYPE svg PUBLIC "-//W3C//DTD SVG 1.1//EN" "http://www.w3.org/Graphics/SVG/1.1/DTD/svg11.dtd">
<svg version="1.1" id="Capa_1" xmlns="http://www.w3.org/2000/svg" xmlns:xlink="http://www.w3.org/1999/xlink" x="0px" y="0px"
	 viewBox="0 0 11 16" style="enable-background:new 0 0 11 16;" xml:space="preserve">
<g id="iPhone">
	<g>
		<path style="fill-rule:evenodd;clip-rule:evenodd;" d="M8.905,0h-6.81C0.938,0,0,0.924,0,2.065v11.871C0,15.076,0.938,16,2.095,16
			h6.81C10.062,16,11,15.076,11,13.935V2.065C11,0.924,10.062,0,8.905,0z M5.5,14.968c-0.434,0-0.786-0.347-0.786-0.774
			c0-0.428,0.352-0.774,0.786-0.774s0.786,0.347,0.786,0.774C6.286,14.621,5.934,14.968,5.5,14.968z M9,11c0,0.57-0.421,1-1,1H3
			c-0.579,0-1-0.43-1-1V3c0-0.57,0.421-1,1-1h5c0.579,0,1,0.43,1,1V11z"/>
	</g>
</g>
<g>
</g>
<g>
</g>
<g>
</g>
<g>
</g>
<g>
</g>
<g>
</g>
<g>
</g>
<g>
</g>
<g>
</g>
<g>
</g>
<g>
</g>
<g>
</g>
<g>
</g>
<g>
</g>
<g>
</g>
</svg>
