<?xml version="1.0" encoding="iso-8859-1"?>
<!-- Generator: Adobe Illustrator 18.0.0, SVG Export Plug-In . SVG Version: 6.00 Build 0)  -->
<!DOCTYPE svg PUBLIC "-//W3C//DTD SVG 1.1//EN" "http://www.w3.org/Graphics/SVG/1.1/DTD/svg11.dtd">
<svg version="1.1" id="Capa_1" xmlns="http://www.w3.org/2000/svg" xmlns:xlink="http://www.w3.org/1999/xlink" x="0px" y="0px"
	 viewBox="0 0 21.577 21.577" style="enable-background:new 0 0 21.577 21.577;" xml:space="preserve">
<path style="fill-rule:evenodd;clip-rule:evenodd;" d="M2.887,13.168c0.16,0.533,0.373,1.043,0.632,1.524L1.643,16.9l2.759-0.89
	c0.349,0.426,0.74,0.817,1.166,1.166l-0.89,2.759l2.207-1.877c0.481,0.259,0.992,0.472,1.524,0.632l0.234,2.887l1.321-2.579
	c0.271,0.027,0.546,0.041,0.825,0.041s0.553-0.014,0.825-0.041l1.321,2.579l0.234-2.887c0.533-0.16,1.043-0.373,1.524-0.632
	l2.207,1.877l-0.89-2.759c0.426-0.349,0.817-0.74,1.166-1.166l2.759,0.89l-1.877-2.207c0.259-0.481,0.472-0.992,0.632-1.524
	l2.887-0.234l-2.579-1.321c0.027-0.271,0.041-0.546,0.041-0.825s-0.014-0.553-0.041-0.825l2.579-1.321L18.69,8.409
	c-0.16-0.533-0.373-1.043-0.632-1.524l1.877-2.207l-2.759,0.89c-0.349-0.426-0.74-0.817-1.166-1.166L16.9,1.642l-2.207,1.877
	c-0.482-0.259-0.992-0.472-1.524-0.632L12.935,0l-1.321,2.579c-0.271-0.027-0.546-0.041-0.825-0.041s-0.553,0.014-0.825,0.041
	L8.643,0L8.409,2.887C7.876,3.047,7.366,3.26,6.885,3.519L4.677,1.642l0.89,2.759C5.141,4.75,4.75,5.141,4.401,5.567l-2.759-0.89
	l1.877,2.207C3.26,7.366,3.047,7.876,2.887,8.409L0,8.643l2.579,1.321c-0.027,0.271-0.041,0.546-0.041,0.825
	s0.014,0.553,0.041,0.825L0,12.935L2.887,13.168z M17.297,7.59c0.475,0.965,0.742,2.05,0.742,3.198c0,3.836-2.979,6.976-6.75,7.233
	v-6.367c0.299-0.173,0.5-0.496,0.5-0.866c0-0.006,0-0.012,0-0.018L17.297,7.59z M10.789,3.539c2.499,0,4.702,1.264,6.006,3.187
	l-5.521,3.188c-0.143-0.08-0.309-0.125-0.484-0.125s-0.341,0.045-0.484,0.125L4.783,6.726C6.087,4.803,8.29,3.539,10.789,3.539z
	 M4.28,7.59l5.508,3.18c0,0.006,0,0.012,0,0.018c0,0.37,0.201,0.693,0.5,0.866v6.367c-3.771-0.257-6.75-3.397-6.75-7.233
	C3.539,9.641,3.805,8.555,4.28,7.59z"/>
<g>
</g>
<g>
</g>
<g>
</g>
<g>
</g>
<g>
</g>
<g>
</g>
<g>
</g>
<g>
</g>
<g>
</g>
<g>
</g>
<g>
</g>
<g>
</g>
<g>
</g>
<g>
</g>
<g>
</g>
</svg>
